<?xml version="1.0" encoding="UTF-8"?>
<svg width="229px" height="206px" viewBox="0 0 229 206" version="1.1" xmlns="http://www.w3.org/2000/svg" xmlns:xlink="http://www.w3.org/1999/xlink">
    <!-- Generator: sketchtool 52.1 (67048) - http://www.bohemiancoding.com/sketch -->
    <title>EFD52790-305E-4740-975E-5E8362F6279D</title>
    <desc>Created with sketchtool.</desc>
    <g id="Facturación-2.0-Web*" stroke="none" stroke-width="1" fill="none" fill-rule="evenodd">
        <g id="Paciente-nuevo-05" transform="translate(-836.000000, -301.000000)">
            <g id="Cumpleaños" transform="translate(836.000000, 301.000000)">
                <g id="3021790" transform="translate(44.000000, 86.000000)">
                    <path d="M47.1082031,2.34375 C44.7365625,2.34375 41.0425781,9.6384375 41.0425781,12.9135937 C41.0425781,16.18875 43.7596875,18.8463281 47.1082031,18.8463281 C50.4564844,18.8463281 53.1738281,16.1889844 53.1738281,12.9135937 C53.1738281,9.63820312 49.4798438,2.34375 47.1082031,2.34375 Z" id="Path" fill="#FFC144"></path>
                    <path d="M72.8917969,2.34375 C70.5201562,2.34375 66.8261719,9.6384375 66.8261719,12.9135937 C66.8261719,16.18875 69.5367188,18.8463281 72.8917969,18.8463281 C76.2400781,18.8463281 78.9508594,16.1889844 78.9508594,12.9135937 C78.9508594,9.63820312 75.256875,2.34375 72.8917969,2.34375 Z" id="Path" fill="#FFC144"></path>
                    <path d="M72.8917969,29.2767188 L47.1082031,29.2767188 L32.2000781,29.2767188 C29.1705469,29.2767188 26.6992969,31.7547656 26.6992969,34.7842969 L26.6992969,42.2582813 L39.9796875,42.2582813 C42.0126562,42.2582813 43.6802344,43.9258594 43.6802344,45.9653906 L43.6802344,52.9809375 C43.6802344,55.7646094 45.9590625,58.0434375 48.7427344,58.0434375 C51.5264062,58.0434375 53.8052344,55.7646094 53.8052344,52.9809375 L53.8052344,47.3273438 L53.8052344,46.1978906 L53.8052344,45.9653906 C53.8052344,43.1817188 56.0840625,40.9028906 58.8677344,40.9028906 C61.6514062,40.9028906 63.9302344,43.1817188 63.9302344,45.9653906 C63.9302344,48.7490625 66.2090625,51.0278906 68.9927344,51.0278906 C71.7764063,51.0278906 74.0552344,48.7490625 74.0552344,45.9653906 C74.0552344,43.9258594 75.7228125,42.2582813 77.7623438,42.2582813 L93.3016406,42.2582813 L93.3016406,34.7842969 C93.3016406,31.7547656 90.8235938,29.2767188 87.7940625,29.2767188 L72.8917969,29.2767188 Z" id="Path" fill="#FF5929"></path>
                    <path d="M63.9297656,45.9653906 C63.9297656,43.1817188 61.6509375,40.9028906 58.8672656,40.9028906 C56.0835938,40.9028906 53.8047656,43.1817188 53.8047656,45.9653906 L53.8047656,52.9809375 C53.8047656,55.7646094 51.5259375,58.0434375 48.7422656,58.0434375 C45.9585938,58.0434375 43.6797656,55.7646094 43.6797656,52.9809375 L43.6797656,45.9653906 C43.6797656,43.9258594 42.0121875,42.2582813 39.9792188,42.2582813 L26.6988281,42.2582813 L26.6988281,67.9689844 L93.3007031,67.9689844 L93.3007031,42.2582813 L77.7614063,42.2582813 C75.721875,42.2582813 74.0542969,43.9258594 74.0542969,45.9653906 C74.0542969,48.7490625 71.7754688,51.0278906 68.9917969,51.0278906 C66.2083594,51.0278906 63.9297656,48.7490625 63.9297656,45.9653906 Z" id="Path" fill="#FF764E"></path>
                    <path d="M93.3009375,67.9689844 L26.6990625,67.9689844 L21.324375,67.9689844 C18.0025781,67.9689844 15.2786719,70.6860938 15.2786719,74.0146875 L15.2786719,82.5117188 L17.3779688,84.770625 C18.4277344,85.9066406 19.7097656,86.9896875 22.5665625,86.9896875 C25.4233594,86.9896875 26.705625,85.906875 27.7551562,84.770625 L29.8544531,82.5117188 C30.9042188,81.3822656 32.18625,80.2994531 35.0430469,80.2994531 C37.8998437,80.2994531 39.1821094,81.3822656 40.2316406,82.5117188 L42.3309375,84.770625 C43.3807031,85.9066406 44.6627344,86.9896875 47.5195312,86.9896875 C50.3763281,86.9896875 51.6585937,85.906875 52.708125,84.770625 L54.8074219,82.5117188 C55.8571875,81.3822656 57.1460156,80.2994531 59.9960156,80.2994531 C62.8528125,80.2994531 64.1350781,81.3822656 65.1846094,82.5117188 L67.2839063,84.770625 C68.3336719,85.9066406 69.6225,86.9896875 72.4725,86.9896875 C75.3292969,86.9896875 76.6113281,85.906875 77.6678906,84.770625 L79.760625,82.5117188 C80.8103906,81.3822656 82.0992187,80.2994531 84.9492187,80.2994531 C87.8060156,80.2994531 89.0882812,81.3822656 90.1446094,82.5117188 L92.2373437,84.770625 C93.2871094,85.9066406 94.5759375,86.9896875 97.4327344,86.9896875 C100.282734,86.9896875 101.571797,85.906875 102.621328,84.770625 L104.714062,82.5117188 L104.714062,74.0146875 C104.714062,70.6863281 101.996719,67.9689844 98.6751562,67.9689844 L93.3009375,67.9689844 Z" id="Path" fill="#FF5929"></path>
                    <path d="M35.4353906,106.661016 C32.233125,106.661016 29.6355469,104.063437 29.6355469,100.854609 C29.6355469,97.6523438 32.233125,95.0547656 35.4353906,95.0547656 C38.6376562,95.0547656 41.2352344,97.6523438 41.2352344,100.854609 C41.2352344,104.063437 38.6376562,106.661016 35.4353906,106.661016 Z M59.9967188,106.661016 C56.7944531,106.661016 54.196875,104.063437 54.196875,100.854609 C54.196875,97.6523438 56.7944531,95.0547656 59.9967188,95.0547656 C63.1989844,95.0547656 65.7965625,97.6523438 65.7965625,100.854609 C65.7965625,104.063437 63.1989844,106.661016 59.9967187,106.661016 Z M72.4732031,86.9894531 C69.6232031,86.9894531 68.3341406,85.9066406 67.2846094,84.7703906 L65.1853125,82.5114844 C64.1355469,81.3820312 62.8535156,80.2992187 59.9967188,80.2992187 C57.1467188,80.2992187 55.8576563,81.3820312 54.808125,82.5114844 L52.7088281,84.7703906 C51.6590625,85.9064062 50.3770313,86.9894531 47.5202344,86.9894531 C44.6634375,86.9894531 43.3811719,85.9066406 42.3316406,84.7703906 L40.2323438,82.5114844 C39.1825781,81.3820312 37.9005469,80.2992187 35.04375,80.2992187 C32.1869531,80.2992187 30.9046875,81.3820312 29.8551563,82.5114844 L27.7558594,84.7703906 C26.7060938,85.9064062 25.4240625,86.9894531 22.5672656,86.9894531 C19.7104687,86.9894531 18.4282031,85.9066406 17.3786719,84.7703906 L15.279375,82.5114844 L15.279375,106.660781 L35.4360938,106.660781 L59.9974219,106.660781 L84.3328125,106.660781 C81.2369531,106.54125 78.7654688,103.990078 78.7654688,100.860938 C78.7654688,97.6586719 81.3564844,95.0610938 84.5653125,95.0610938 C87.7675781,95.0610938 90.3651563,97.6586719 90.3651563,100.860938 C90.3651563,103.990078 87.8871094,106.54125 84.79125,106.660781 L104.715234,106.660781 L104.715234,82.5117188 L102.6225,84.770625 C101.572734,85.9066406 100.283906,86.9896875 97.4339063,86.9896875 C94.5771094,86.9896875 93.2882813,85.906875 92.2385156,84.770625 L90.1457813,82.5117188 C89.0894531,81.3822656 87.8071875,80.2994531 84.9503906,80.2994531 C82.1003906,80.2994531 80.8113281,81.3822656 79.7617969,82.5117188 L77.6690625,84.770625 C76.6122656,85.9066406 75.33,86.9894531 72.4732031,86.9894531 Z" id="Shape" fill="#FF764E"></path>
                    <path d="M35.4353906,95.0547656 C32.233125,95.0547656 29.6355469,97.6523438 29.6355469,100.854609 C29.6355469,104.063437 32.233125,106.661016 35.4353906,106.661016 C38.6376562,106.661016 41.2352344,104.063437 41.2352344,100.854609 C41.2352344,97.6523438 38.6376563,95.0547656 35.4353906,95.0547656 Z" id="Path" fill="#5CD0B3"></path>
                    <path d="M59.9967188,95.0547656 C56.7944531,95.0547656 54.196875,97.6523438 54.196875,100.854609 C54.196875,104.063437 56.7944531,106.661016 59.9967188,106.661016 C63.1989844,106.661016 65.7965625,104.063437 65.7965625,100.854609 C65.7965625,97.6523438 63.1989844,95.0547656 59.9967187,95.0547656 Z" id="Path" fill="#5CD0B3"></path>
                    <path d="M84.5646094,95.0615625 C81.3557813,95.0615625 78.7647656,97.6591406 78.7647656,100.861406 C78.7647656,103.990547 81.23625,106.541719 84.3321094,106.66125 L84.7905469,106.66125 C87.8864063,106.541719 90.3644531,103.990547 90.3644531,100.861406 C90.3644531,97.6591406 87.766875,95.0615625 84.5646094,95.0615625 Z" id="Path" fill="#5CD0B3"></path>
                    <path d="M84.3321094,106.661016 L59.9967188,106.661016 L35.4353906,106.661016 L15.2786719,106.661016 L8.88773437,106.661016 L14.7607031,117.65625 L105.232969,117.65625 L111.1125,106.661016 L104.714766,106.661016 L84.7907812,106.661016 C84.7176562,106.661016 84.6379687,106.661016 84.5648437,106.661016 C84.4849219,106.661016 84.4117969,106.661016 84.3321094,106.661016 Z" id="Path" fill="#FFFFFF"></path>
                    <g id="Group" fill="#000000">
                        <path d="M117.65625,104.3175 L107.058281,104.3175 L107.058281,74.0146875 C107.058281,69.3888281 103.297734,65.6252344 98.6753906,65.6252344 L95.6444531,65.6252344 L95.6444531,34.7842969 C95.6444531,30.4549219 92.1225,26.9329688 87.793125,26.9329688 L75.2353125,26.9329688 L75.2353125,20.8600781 C78.73125,19.858125 81.294375,16.67625 81.294375,12.9138281 C81.294375,10.5644531 80.0395312,7.42875 78.8650781,5.27742188 C76.9535156,1.775625 74.94375,3.90798505e-14 72.8917969,3.90798505e-14 C70.8372656,3.90798505e-14 68.825625,1.77539063 66.9126562,5.27695313 C65.7377344,7.42757813 64.4824219,10.5632813 64.4824219,12.9138281 C64.4824219,16.6769531 67.0483594,19.8592969 70.5480469,20.8605469 L70.5480469,26.9329688 L49.4517187,26.9329688 L49.4517187,20.8605469 C52.9514062,19.8590625 55.5173437,16.6767188 55.5173437,12.9138281 C55.5173437,10.5632813 54.2620312,7.42757813 53.0871094,5.27695313 C51.174375,1.77539063 49.1627344,4.15778523e-14 47.1082031,4.15778523e-14 C45.0536719,4.15778523e-14 43.0420312,1.77539063 41.1292969,5.27695313 C39.954375,7.42757813 38.6988281,10.5632813 38.6988281,12.9138281 C38.6988281,16.6769531 41.2647656,19.8592969 44.7644531,20.8605469 L44.7644531,26.9329688 L32.2000781,26.9329688 C27.8744531,26.9329688 24.3553125,30.4549219 24.3553125,34.7842969 L24.3553125,65.6252344 L21.324375,65.6252344 C16.6985156,65.6252344 12.9349219,69.3888281 12.9349219,74.0146875 L12.9349219,104.3175 L2.34375,104.3175 C1.04929687,104.3175 -1.20792265e-13,105.367031 -1.20792265e-13,106.66125 C-1.20792265e-13,107.955469 1.04929687,109.005 2.34375,109.005 L7.48242187,109.005 L12.6932812,118.760391 C13.1008594,119.523516 13.895625,120 14.7607031,120 L105.232969,120 C106.097578,120 106.892109,119.523984 107.299687,118.761563 L112.516875,109.005 L117.65625,109.005 C118.950703,109.005 120,107.955469 120,106.66125 C120,105.367031 118.950703,104.3175 117.65625,104.3175 Z M69.1699219,12.9138281 C69.1699219,10.7552344 71.5085156,6.095625 72.8901562,4.86914063 C74.270625,6.09820313 76.6071094,10.7578125 76.6071094,12.9138281 C76.6071094,14.8926563 74.9404687,16.5025781 72.8917969,16.5025781 C70.8396094,16.5025781 69.1699219,14.8926563 69.1699219,12.9138281 Z M43.3863281,12.9138281 C43.3863281,10.7542969 45.7267969,6.09210938 47.1082031,4.8675 C48.4896094,6.09210938 50.8300781,10.7542969 50.8300781,12.9138281 C50.8300781,14.8926563 49.1603906,16.5025781 47.1082031,16.5025781 C45.0560156,16.5025781 43.3863281,14.8926563 43.3863281,12.9138281 Z M29.0428125,34.7842969 C29.0428125,33.0398438 30.4591406,31.6204688 32.2000781,31.6204688 L87.7933594,31.6204688 C89.5378125,31.6204688 90.9571875,33.0398438 90.9571875,34.7842969 L90.9571875,39.9147656 L77.7616406,39.9147656 C74.4253125,39.9147656 71.7107812,42.6290625 71.7107812,45.9653906 C71.7107812,47.4644531 70.4910937,48.6841406 68.9920312,48.6841406 C67.4929687,48.6841406 66.2732812,47.4646875 66.2732812,45.9653906 C66.2732812,41.8816406 62.9510156,38.5591406 58.8670312,38.5591406 C54.7830469,38.5591406 51.4607812,41.8816406 51.4607812,45.9653906 L51.4607812,52.9811719 C51.4607812,54.4802344 50.2410937,55.6999219 48.7420312,55.6999219 C47.2429687,55.6999219 46.0232812,54.4804688 46.0232812,52.9811719 L46.0232812,45.9653906 C46.0232812,42.6290625 43.3117969,39.9147656 39.9789844,39.9147656 L29.0421094,39.9147656 L29.0421094,34.7842969 L29.0428125,34.7842969 Z M17.6224219,74.0146875 C17.6224219,71.9735156 19.2829687,70.3127344 21.324375,70.3127344 L49.4732812,70.3127344 C50.7677344,70.3127344 51.8170312,69.2632031 51.8170312,67.9689844 C51.8170312,66.6747656 50.7677344,65.6252344 49.4732812,65.6252344 L29.0428125,65.6252344 L29.0428125,44.6022656 L39.9796875,44.6022656 C40.7151562,44.6022656 41.3364844,45.2264063 41.3364844,45.9653906 L41.3364844,52.9811719 C41.3364844,57.0649219 44.65875,60.3874219 48.7427344,60.3874219 C52.8267187,60.3874219 56.1489844,57.0649219 56.1489844,52.9811719 L56.1489844,45.9653906 C56.1489844,44.4663281 57.3686719,43.2466406 58.8677344,43.2466406 C60.3667969,43.2466406 61.5864844,44.4660938 61.5864844,45.9653906 C61.5864844,50.0491406 64.90875,53.3716406 68.9927344,53.3716406 C73.0767187,53.3716406 76.3989844,50.0491406 76.3989844,45.9653906 C76.3989844,45.2266406 77.0233594,44.6022656 77.7623437,44.6022656 L90.9578906,44.6022656 L90.9578906,65.6252344 L70.5208594,65.6252344 C69.2264062,65.6252344 68.1771094,66.6747656 68.1771094,67.9689844 C68.1771094,69.2632031 69.2264062,70.3127344 70.5208594,70.3127344 L98.6763281,70.3127344 C100.713984,70.3127344 102.371719,71.9735156 102.371719,74.0146875 L102.371719,81.5929688 L100.90125,83.1801563 C100.108359,84.0384375 99.395625,84.6459375 97.4341406,84.6459375 C95.4665625,84.6459375 94.7533594,84.0384375 93.958125,83.1778125 L91.8578906,80.9107031 C90.49125,79.4496094 88.6017187,77.9559375 84.9508594,77.9559375 C81.2903906,77.9559375 79.4060156,79.4524219 78.0428906,80.9191406 L75.9529687,83.175 C75.1521094,84.0363281 74.4339844,84.6459375 72.4741406,84.6459375 C70.5128906,84.6459375 69.7999219,84.0384375 69.0023437,83.1752344 L66.9028125,80.9163281 C65.5422656,79.4524219 63.6578906,77.9559375 59.9974219,77.9559375 C56.3369531,77.9559375 54.4525781,79.4524219 53.0920312,80.9163281 L50.9878125,83.1801563 C50.1949219,84.0384375 49.4821875,84.6459375 47.5209375,84.6459375 C45.5594531,84.6459375 44.8467187,84.0384375 44.0491406,83.1752344 L41.9496094,80.9163281 C40.5890625,79.4524219 38.7046875,77.9559375 35.0442187,77.9559375 C31.38375,77.9559375 29.499375,79.4524219 28.1388281,80.9163281 L26.0348437,83.1801563 C25.2417187,84.0384375 24.5289844,84.6459375 22.5677344,84.6459375 C20.60625,84.6459375 19.8935156,84.0384375 19.0959375,83.1752344 L17.6235937,81.5910938 L17.6235937,74.0146875 L17.6224219,74.0146875 Z M17.6224219,88.0408594 C18.8102344,88.7908594 20.3655469,89.3332031 22.5667969,89.3332031 C26.2359375,89.3332031 28.1189062,87.8308594 29.4721875,86.3660156 L31.5714844,84.1071094 C32.368125,83.25 33.0836719,82.6432031 35.0432812,82.6432031 C37.0028906,82.6432031 37.7184375,83.25 38.5150781,84.1071094 L40.6096875,86.3608594 C41.9674219,87.830625 43.8503906,89.3332031 47.5197656,89.3332031 C51.1891406,89.3332031 53.071875,87.830625 54.4249219,86.3660156 L56.5244531,84.1071094 C57.3210937,83.25 58.0366406,82.6432031 59.99625,82.6432031 C61.9558594,82.6432031 62.6714062,83.25 63.4680469,84.1071094 L65.5628906,86.3608594 C66.9208594,87.830625 68.8038281,89.3332031 72.4729687,89.3332031 C76.1329687,89.3332031 78.0208594,87.8334375 79.3875,86.3632031 L81.4776562,84.1071094 C82.2742969,83.25 82.9898437,82.6432031 84.9494531,82.6432031 C86.9074219,82.6432031 87.6283594,83.2523438 88.4254687,84.1042969 L90.5160937,86.3608594 C91.8740625,87.830625 93.7577344,89.3332031 97.4327344,89.3332031 C99.6302344,89.3332031 101.183906,88.7927344 102.370312,88.0453125 L102.370312,104.3175 L91.9357031,104.3175 C92.43,103.267734 92.7077344,102.096563 92.7077344,100.861406 C92.7077344,96.3710156 89.0545312,92.7178125 84.5641406,92.7178125 C80.07375,92.7178125 76.4205469,96.3710156 76.4205469,100.861406 C76.4205469,102.096563 76.6982812,103.267734 77.1925781,104.3175 L67.3661719,104.3175 C67.8614062,103.265859 68.1398437,102.092344 68.1398437,100.854844 C68.1398437,96.3644531 64.4866406,92.71125 59.99625,92.71125 C55.5058594,92.71125 51.8526562,96.3644531 51.8526562,100.854844 C51.8526562,102.092578 52.1310937,103.265859 52.6263281,104.3175 L42.8048437,104.3175 C43.3000781,103.265859 43.5785156,102.092344 43.5785156,100.854844 C43.5785156,96.3644531 39.9253125,92.71125 35.4349219,92.71125 C30.9445312,92.71125 27.2913281,96.3644531 27.2913281,100.854844 C27.2913281,102.092578 27.5697656,103.265859 28.065,104.3175 L17.6224219,104.3175 L17.6224219,88.0408594 Z M88.0207031,100.861406 C88.0207031,102.767109 86.4703125,104.3175 84.5646094,104.3175 C82.6589062,104.3175 81.1085156,102.767109 81.1085156,100.861406 C81.1085156,98.9557031 82.6589062,97.4053125 84.5646094,97.4053125 C86.4703125,97.4053125 88.0207031,98.9557031 88.0207031,100.861406 Z M63.4528125,100.854609 C63.4528125,102.763828 61.9024219,104.317266 59.9967187,104.317266 C58.0910156,104.317266 56.540625,102.763828 56.540625,100.854609 C56.540625,98.9489063 58.0910156,97.3985156 59.9967187,97.3985156 C61.9024219,97.3985156 63.4528125,98.9491406 63.4528125,100.854609 Z M38.8914844,100.854609 C38.8914844,102.763828 37.3410937,104.317266 35.4353906,104.317266 C33.5296875,104.317266 31.9792969,102.763828 31.9792969,100.854609 C31.9792969,98.9489063 33.5296875,97.3985156 35.4353906,97.3985156 C37.3410937,97.3985156 38.8914844,98.9491406 38.8914844,100.854609 Z M103.828125,115.3125 L16.1657812,115.3125 L12.796875,109.005 L107.20125,109.005 L103.828125,115.3125 Z" id="Shape" fill-rule="nonzero"></path>
                        <path d="M59.9967187,70.3127344 L60.0100781,70.3127344 C61.3045313,70.3127344 62.3472656,69.2632031 62.3472656,67.9689844 C62.3472656,66.6747656 61.2914062,65.6252344 59.9969531,65.6252344 C58.7025,65.6252344 57.6532031,66.6747656 57.6532031,67.9689844 C57.6532031,69.2632031 58.7022656,70.3127344 59.9967187,70.3127344 Z" id="Path"></path>
                    </g>
                </g>
                <g id="2913130">
                    <g id="Group" transform="translate(3.000000, 3.000000)" fill="#5CD0B3">
                        <path d="M8.78197065,30 C8.78197065,30 28.3578763,24.2647059 31.2578616,9.41176471 C31.2578616,9.41176471 37.8071279,29.8125 55.8176101,29.7058824 C55.8176101,29.7058824 32.5974843,33.2352941 31.2578616,56.4705882 C31.2578616,56.4705882 32.4486373,32.6470588 8.78197065,30 Z" id="Path"></path>
                        <path d="M0,7.33985294 C0,7.33985294 6.9383522,5.30705882 7.96614046,0.0427941176 C7.96614046,0.0427941176 10.2874088,7.27338235 16.6708595,7.23558824 C16.6708595,7.23558824 8.44096226,8.48647059 7.96614046,16.7217647 C7.96614046,16.7219118 8.38812159,8.27808824 0,7.33985294 Z" id="Path"></path>
                        <path d="M47.6310273,51.8485294 C47.6310273,51.8485294 57.3571342,48.9989706 58.7978239,41.6195588 C58.7978239,41.6195588 62.0517673,51.7552941 71,51.7023529 C71,51.7023529 59.4634675,53.4558824 58.7978239,65 C58.7978239,65 59.3894906,53.1636765 47.6310273,51.8485294 Z" id="Path"></path>
                    </g>
                    <g id="Group" fill="#000000">
                        <path d="M47.796875,56.5957447 C54.34475,56.5957447 59.671875,61.940766 59.671875,68.5106383 C59.671875,69.3330638 60.3365781,70 61.15625,70 C61.9759219,70 62.640625,69.3330638 62.640625,68.5106383 C62.640625,61.940766 67.96775,56.5957447 74.515625,56.5957447 C75.3352969,56.5957447 76,55.9288085 76,55.106383 C76,54.2839574 75.3352969,53.6170213 74.515625,53.6170213 C67.96775,53.6170213 62.640625,48.272 62.640625,41.7021277 C62.640625,40.8797021 61.9759219,40.212766 61.15625,40.212766 C60.3365781,40.212766 59.671875,40.8797021 59.671875,41.7021277 C59.671875,48.272 54.34475,53.6170213 47.796875,53.6170213 C46.9772031,53.6170213 46.3125,54.2839574 46.3125,55.106383 C46.3125,55.9288085 46.9772031,56.5957447 47.796875,56.5957447 Z M61.15625,48.1914255 C62.6133125,51.1990426 65.0503594,53.6442766 68.0480547,55.106383 C65.0505078,56.5683404 62.6134609,59.0135745 61.15625,62.0213404 C59.6991875,59.0137234 57.2621406,56.5684894 54.2644453,55.106383 C57.2621406,53.6444255 59.6991875,51.1991915 61.15625,48.1914255 Z" id="Shape" fill-rule="nonzero"></path>
                        <path d="M1.484375,11.9148936 C5.57679687,11.9148936 8.90625,15.2555319 8.90625,19.3617021 C8.90625,20.1841277 9.57080469,20.8510638 10.390625,20.8510638 C11.2104453,20.8510638 11.875,20.1841277 11.875,19.3617021 C11.875,15.2555319 15.2044531,11.9148936 19.296875,11.9148936 C20.1166953,11.9148936 20.78125,11.2479574 20.78125,10.4255319 C20.78125,9.60310638 20.1166953,8.93617021 19.296875,8.93617021 C15.2044531,8.93617021 11.875,5.59553191 11.875,1.4893617 C11.875,0.66693617 11.2104453,0 10.390625,0 C9.57080469,0 8.90625,0.66693617 8.90625,1.4893617 C8.90625,5.59553191 5.57679687,8.93617021 1.484375,8.93617021 C0.664554688,8.93617021 0,9.60310638 0,10.4255319 C0,11.2479574 0.664554688,11.9148936 1.484375,11.9148936 Z M10.390625,6.8546383 C11.2683359,8.31570213 12.4933906,9.54502128 13.9494141,10.4255319 C12.4932422,11.3060426 11.2681875,12.5353617 10.390625,13.9964255 C9.51291406,12.5353617 8.28785938,11.3060426 6.83183594,10.4255319 C8.28785938,9.54502128 9.51291406,8.31570213 10.390625,6.8546383 Z" id="Shape" fill-rule="nonzero"></path>
                        <ellipse id="Oval" cx="41.4140625" cy="40.6595745" rx="1.484375" ry="1.4893617"></ellipse>
                        <path d="M45.3740781,37.2629362 C45.7922266,37.970234 46.7031875,38.2034681 47.4081172,37.783617 C51.2850078,35.4754043 55.7310078,34.2553191 60.265625,34.2553191 C61.0852969,34.2553191 61.75,33.588383 61.75,32.7659574 C61.75,31.9435319 61.0852969,31.2765957 60.265625,31.2765957 C46.3513906,31.2765957 35.03125,19.9184255 35.03125,5.95744681 C35.03125,5.13502128 34.3666953,4.46808511 33.546875,4.46808511 C32.7270547,4.46808511 32.0625,5.13502128 32.0625,5.95744681 C32.0625,19.9184255 20.7423594,31.2765957 6.828125,31.2765957 C6.00830469,31.2765957 5.34375,31.9435319 5.34375,32.7659574 C5.34375,33.588383 6.00830469,34.2553191 6.828125,34.2553191 C20.7423594,34.2553191 32.0625,45.6134894 32.0625,59.5744681 C32.0625,60.3968936 32.7270547,61.0638298 33.546875,61.0638298 C34.3666953,61.0638298 35.03125,60.3968936 35.03125,59.5744681 C35.03125,55.024617 36.24725,50.5636809 38.5477344,46.673766 C38.9660312,45.9663191 38.7337266,45.0525957 38.0287969,44.6328936 C37.3232734,44.2127447 36.4129062,44.4462766 35.9947578,45.1535745 C34.9907266,46.8511489 34.1716484,48.645383 33.5458359,50.505 C30.7325,42.1830426 24.1586484,35.588 15.8642578,32.7659574 C24.1595391,29.943617 30.7339844,23.3470851 33.546875,15.0239362 C36.3594687,23.3461915 42.9324297,29.9421277 51.226375,32.7649149 C49.3731328,33.3928298 47.5849062,34.2146596 45.8928672,35.2220638 C45.1880859,35.6419149 44.9556328,36.5554894 45.3740781,37.2629362 Z" id="Path"></path>
                    </g>
                </g>
                <g id="2997154" transform="translate(153.000000, 18.000000)">
                    <g id="Group" transform="translate(1.481481, 1.333333)">
                        <path d="M39.5521481,44.5194074 L20.6514074,25.6186667 L15.1814815,37.0291852 C22.6884444,41.8382222 31.2768889,45.3245926 39.5521481,44.5194074 Z" id="Path" fill="#5CD0B3"></path>
                        <path d="M39.5521481,44.5194074 C31.2768889,45.3247407 22.6885926,41.8383704 15.1814815,37.0291852 L10.6333333,46.5167407 C17.1737778,51.9087407 25.3148148,57.0642963 33.6515556,58.9971852 L47.4265185,52.3937778 L39.5521481,44.5194074 Z" id="Path" fill="#CBE558"></path>
                        <path d="M33.6517037,58.9971852 C25.3148148,57.0642963 17.1739259,51.9087407 10.6334815,46.5167407 L5.18948148,57.8731852 C8.77748148,61.0068148 12.9522963,64.1653333 17.4398519,66.7687407 L33.6517037,58.9971852 Z" id="Path" fill="#5CD0B3"></path>
                        <path d="M17.4398519,66.7687407 C12.9521481,64.1653333 8.77748148,61.0068148 5.18948148,57.8731852 L0.338962963,67.9915556 C-0.180740741,69.2376296 -0.181925926,70.8191111 1.02207407,72.0231111 C2.22622222,73.2272593 3.8077037,73.2259259 5.05362963,72.7062222 L17.4398519,66.7687407 Z" id="Path" fill="#CBE558"></path>
                        <path d="M28.9711111,15.4825185 L32.7659259,19.316 C33.9755556,20.5380741 33.9817778,22.5213333 32.7659259,23.7371852 C33.5311111,23.0422222 34.2965926,22.3472593 35.0148148,21.2882963 C35.8411852,20.0700741 36.3921481,18.6497778 36.3921481,16.8260741 C36.3921481,13.208 34.578963,11.5614815 32.7659259,9.91496296 C32.5355556,9.70577778 32.305037,9.49644444 32.0982222,9.28637037 L28.2866667,5.436 C27.077037,4.21407407 27.0708148,2.23066667 28.2866667,1.01481481 C27.5214815,1.70962963 26.7561481,2.40474074 26.0377778,3.46355556 C25.2114074,4.68192593 24.6604444,6.10207407 24.6604444,7.92577778 C24.6604444,11.5438519 26.4734815,13.1903704 28.2866667,14.8368889 C28.5235556,15.0517037 28.7601481,15.2665185 28.9711111,15.4825185 Z" id="Path" fill="#FFC144"></path>
                        <path d="M57.5628148,44.0740741 L53.7293333,40.2792593 C52.5072593,39.0696296 50.524,39.0634074 49.3081481,40.2792593 C50.0031111,39.5140741 50.6980741,38.7485926 51.757037,38.0303704 C52.9752593,37.204 54.3955556,36.653037 56.2192593,36.653037 C59.8373333,36.653037 61.4838519,38.4662222 63.1303704,40.2792593 C63.3395556,40.5096296 63.5488889,40.7401481 63.758963,40.946963 L67.6093333,44.7585185 C68.8312593,45.9681481 70.8146667,45.9743704 72.0305185,44.7585185 C71.3357037,45.5237037 70.6405926,46.289037 69.5817778,47.0074074 C68.3634074,47.8337778 66.9432593,48.3847407 65.1195556,48.3847407 C61.5014815,48.3847407 59.854963,46.5717037 58.2084444,44.7585185 C57.9936296,44.5217778 57.7786667,44.2851852 57.5628148,44.0740741 Z" id="Path" fill="#FF764E"></path>
                        <path d="M31.5327407,7.18740741 C31.7641481,6.84637037 32.265037,6.39140741 32.7659259,5.93644444 C34.125037,4.69955556 34.2241481,2.59496296 32.9872593,1.23585185 C31.7503704,-0.123259259 29.6459259,-0.22237037 28.2866667,1.01451852 C27.0708148,2.23037037 27.077037,4.21377778 28.2866667,5.4357037 L32.0982222,9.28607407 C31.6594074,8.84 31.3271111,8.38962963 31.3271111,7.92562963 C31.3272593,7.59911111 31.4096296,7.36903704 31.5327407,7.18740741 Z" id="Path" fill="#B278D3"></path>
                        <path d="M32.7660741,19.316 L28.9712593,15.4825185 C29.4017778,15.9231111 29.7257778,16.368 29.7257778,16.8260741 C29.7257778,17.1525926 29.6435556,17.3826667 29.5202963,17.5644444 C29.289037,17.9053333 28.788,18.3604444 28.286963,18.8154074 C26.9278519,20.0522963 26.8287407,22.1567407 28.0656296,23.516 C29.3025185,24.8751111 31.406963,24.9742222 32.7660741,23.7373333 C33.9819259,22.5213333 33.9757037,20.5379259 32.7660741,19.316 Z" id="Path" fill="#B278D3"></path>
                        <path d="M49.308,40.2792593 C48.0711111,41.6383704 48.1702222,43.742963 49.5293333,44.9797037 C50.8884444,46.2165926 52.993037,46.1174815 54.2297778,44.7583704 C54.6847407,44.2573333 55.1397037,43.7562963 55.4807407,43.525037 C55.6623704,43.4017778 55.8924444,43.3195556 56.2191111,43.3195556 C56.6780741,43.3195556 57.124,43.6448889 57.5654815,44.0767407 L53.7293333,40.2792593 C52.5072593,39.0696296 50.524,39.0634074 49.308,40.2792593 Z" id="Path" fill="#8481E2"></path>
                        <path d="M63.758963,40.9468148 L67.6093333,44.7583704 C68.8312593,45.968 70.8146667,45.9742222 72.0305185,44.7583704 C73.2674074,43.3992593 73.1682963,41.2948148 71.8091852,40.0579259 C70.4500741,38.821037 68.3456296,38.9201481 67.1085926,40.2792593 C66.6537778,40.7801481 66.1988148,41.2811852 65.8576296,41.5124444 C65.676,41.6357037 65.4457778,41.7179259 65.1192593,41.7179259 C64.6555556,41.7179259 64.205037,41.3856296 63.758963,40.9468148 Z" id="Path" fill="#8481E2"></path>
                        <path d="M56.8583704,18.2820741 C58.0106667,19.4343704 59.8962963,19.4343704 61.0485926,18.2820741 L63.1438519,16.1868148 C64.2961481,15.0345185 64.2961481,13.1488889 63.1438519,11.9965926 L61.0485926,9.90148148 C59.8962963,8.74918519 58.0106667,8.74918519 56.8583704,9.90148148 L54.7632593,11.9965926 C53.610963,13.1488889 53.610963,15.0345185 54.7632593,16.1868148 L56.8583704,18.2820741 Z" id="Path" fill="#FF5D7D"></path>
                    </g>
                    <g id="Group" fill="#000000">
                        <path d="M23.1804444,25.9042963 C22.8405926,25.5644444 22.3573333,25.4108148 21.8834074,25.4915556 C21.4097778,25.5724444 21.0047407,25.8780741 20.797037,26.3115556 L0.484444444,68.6845926 C0.473333333,68.7075556 0.462814815,68.730963 0.453037037,68.7546667 C-0.403259259,70.8078519 -0.0282962963,72.9198519 1.456,74.4041481 C2.41511111,75.3632593 3.63585185,75.8591111 4.93377778,75.8591111 C5.64459259,75.8591111 6.37881481,75.7102222 7.10548148,75.4071111 C7.12918519,75.3973333 7.15259259,75.3866667 7.1757037,75.3757037 L49.5487407,55.0632593 C49.9820741,54.8555556 50.2875556,54.4505185 50.3685926,53.9767407 C50.4494815,53.5031111 50.2957037,53.0195556 49.9558519,52.6797037 L23.1804444,25.9042963 Z M22.5644444,29.4786667 L37.5525926,44.4668148 C31.7533333,44.2282963 25.389037,41.9964444 18.570963,37.809037 L22.5644444,29.4786667 Z M5.93274074,72.6854815 C5.38444444,72.9072593 4.37614815,73.1339259 3.55096296,72.3087407 C2.72622222,71.484 2.95274074,70.4755556 3.17437037,69.9272593 L7.17348148,61.5851852 C10.0354074,63.9826667 12.9291852,66.1134815 15.816,67.9478519 L5.93274074,72.6854815 Z M34.9699259,58.7659259 C33.1933333,58.3248889 31.3548148,57.7164444 29.4952593,56.9500741 C28.7386667,56.6379259 27.8727407,56.9986667 27.5608889,57.7552593 C27.2491852,58.5115556 27.6096296,59.3776296 28.3660741,59.6894815 C29.2437037,60.0512593 30.1182222,60.3792593 30.9862222,60.6757037 L18.993037,66.4248889 C15.4988148,64.34 11.974963,61.7885926 8.49674074,58.8247407 L12.6417778,50.1779259 C13.910963,51.18 15.1906667,52.1348148 16.4628148,53.0266667 C16.7216296,53.2081481 17.0182222,53.2952593 17.312,53.2952593 C17.7786667,53.2952593 18.2380741,53.0752593 18.5263704,52.664 C18.9961481,51.9942222 18.8337778,51.0702222 18.1638519,50.6004444 C16.762963,49.6183704 15.3515556,48.5562963 13.9558519,47.4365926 L17.2834074,40.4952593 C24.8871111,45.1180741 32.034963,47.4514074 38.5896296,47.4514074 C39.2220741,47.4514074 39.8496296,47.4288889 40.4712593,47.3853333 L46.3813333,53.2954074 L34.9699259,58.7659259 Z" id="Shape" fill-rule="nonzero"></path>
                        <path d="M28.7722963,17.2666667 C29.057037,17.5253333 29.506963,17.9339259 29.6828148,18.1811852 C29.4780741,18.4111111 29.0628148,18.7881481 28.7712593,19.053037 C27.8211852,19.9174815 27.2648889,21.1002963 27.2042963,22.3834074 C27.1438519,23.6665185 27.5868148,24.8962963 28.4512593,25.8462222 C29.3157037,26.7961481 30.4985185,27.3527407 31.7816296,27.413037 C31.8591111,27.4167407 31.9361481,27.4185185 32.0131852,27.4185185 C33.212,27.4185185 34.3518519,26.9785185 35.2441481,26.1665185 C36.0226667,25.4594074 36.9051852,24.6579259 37.7223704,23.4531852 C38.821037,21.8333333 39.3551111,20.1017778 39.3551111,18.1594074 C39.3551111,13.8856296 37.1706667,11.9019259 35.2432593,10.1514074 C34.9586667,9.89288889 34.5087407,9.4842963 34.3328889,9.23718519 C34.5371852,9.0077037 34.9515556,8.63125926 35.2442963,8.36533333 C37.2053333,6.58074074 37.3488889,3.53333333 35.5641481,1.57214815 C34.6997037,0.622074074 33.5168889,0.0656296296 32.2337778,0.00533333333 C30.9531852,-0.0539259259 29.7220741,0.387407407 28.7722963,1.25111111 C27.9937778,1.95792593 27.1114074,2.75896296 26.2933333,3.96503704 C25.1945185,5.58474074 24.6604444,7.31644444 24.6604444,9.25896296 C24.6605926,13.533037 26.845037,15.5167407 28.7722963,17.2666667 Z M31.9211852,24.4534815 C31.4285926,24.4303704 30.9746667,24.2165926 30.6428148,23.852 C30.310963,23.4872593 30.141037,23.0152593 30.1641481,22.5226667 C30.1874074,22.0300741 30.4008889,21.576 30.7644444,21.2451852 C31.1342222,20.9093333 31.4905185,20.5853333 31.7863704,20.2687407 L33.1945185,21.6912593 C33.8274074,22.3306667 33.8365926,23.3577778 33.2223704,23.9977778 C32.8617778,24.3137778 32.4025185,24.4764444 31.9211852,24.4534815 Z M36.3922963,18.1594074 C36.3922963,18.9911111 36.2561481,19.7484444 35.9727407,20.4715556 C35.7872593,20.164 35.5638519,19.873037 35.3004444,19.606963 L31.4887407,15.7565926 C31.4865185,15.7543704 31.484,15.7524444 31.4816296,15.7502222 C31.248,15.5134815 31.0020741,15.2894815 30.7641481,15.0733333 C29.0094815,13.48 27.6234074,12.2213333 27.6234074,9.25911111 C27.6234074,8.42740741 27.7595556,7.67007407 28.042963,6.94696296 C28.2284444,7.25451852 28.4518519,7.54548148 28.7152593,7.81155556 L32.5268148,11.6619259 C32.5293333,11.6644444 32.5321481,11.6665185 32.5346667,11.669037 C32.7681481,11.9054815 33.0137778,12.1293333 33.2515556,12.3451852 C35.0063704,13.9385185 36.3922963,15.1973333 36.3922963,18.1594074 Z M32.0059259,2.96296296 C32.0354074,2.96296296 32.065037,2.9637037 32.0948148,2.96503704 C32.5874074,2.98814815 33.0414815,3.20192593 33.3731852,3.56651852 C34.0583704,4.31940741 34.0032593,5.48933333 33.2491852,6.17540741 C32.8802963,6.51051852 32.5247407,6.83377778 32.2296296,7.14962963 L30.8213333,5.72696296 C30.1882963,5.08755556 30.1792593,4.0602963 30.7937778,3.4202963 C31.1321481,3.124 31.5579259,2.96296296 32.0059259,2.96296296 Z" id="Shape" fill-rule="nonzero"></path>
                        <path d="M57.2922963,20.662963 C58.1588148,21.5294815 59.2968889,21.9625185 60.4351111,21.9625185 C61.5731852,21.9625185 62.7112593,21.5293333 63.5777778,20.662963 L65.673037,18.5677037 C67.4059259,16.8348148 67.4059259,14.0152593 65.673037,12.2822222 L63.5777778,10.1871111 C61.8448889,8.45437037 59.0253333,8.45407407 57.2922963,10.1871111 L55.197037,12.2823704 C54.36,13.1194074 53.8988148,14.2357037 53.8988148,15.4251852 C53.8988148,16.6145185 54.3598519,17.7306667 55.197037,18.5678519 L57.2922963,20.662963 Z M57.2922963,14.3774815 L59.3875556,12.2823704 C59.665037,12.0048889 60.037037,11.852 60.4351111,11.852 C60.8331852,11.852 61.205037,12.0048889 61.4825185,12.2823704 L63.5777778,14.3774815 C63.8552593,14.654963 64.0081481,15.026963 64.0081481,15.425037 C64.0081481,15.8231111 63.8552593,16.194963 63.5777778,16.4724444 L61.4825185,18.5677037 C61.205037,18.8451852 60.833037,18.9980741 60.4351111,18.9980741 C60.0368889,18.9980741 59.665037,18.8451852 59.3875556,18.5677037 L57.2922963,16.4724444 C57.0148148,16.194963 56.8619259,15.822963 56.8619259,15.425037 C56.8619259,15.0271111 57.0146667,14.654963 57.2922963,14.3774815 Z" id="Shape" fill-rule="nonzero"></path>
                        <path d="M74.288,40.2957037 C73.3379259,39.430963 72.1084444,38.9894815 70.8248889,39.0485926 C69.5417778,39.109037 68.358963,39.6654815 67.4934815,40.6167407 C67.2296296,40.9072593 66.8527407,41.3223704 66.6228148,41.5271111 C66.3757037,41.3512593 65.966963,40.9011852 65.7081481,40.6162963 C63.9579259,38.6891852 61.9742222,36.505037 57.7005926,36.505037 C55.7580741,36.505037 54.0263704,37.038963 52.4066667,38.1377778 C51.2014815,38.9554074 50.4,39.8379259 49.6939259,40.6155556 C49.6757037,40.6355556 49.6588148,40.6562963 49.641037,40.6765926 C49.6407407,40.6768889 49.6402963,40.6773333 49.64,40.6777778 C48.8115556,41.6191111 48.3875556,42.822963 48.4468148,44.0786667 C48.5072593,45.3617778 49.0637037,46.5445926 50.0136296,47.4088889 C51.9746667,49.1937778 55.0220741,49.0499259 56.8093333,47.0865185 C57.0727407,46.7962963 57.4491852,46.3819259 57.6788148,46.1774815 C57.9259259,46.3531852 58.3345185,46.8031111 58.593037,47.0878519 C60.3431111,49.0152593 62.326963,51.1997037 66.601037,51.1997037 C68.5435556,51.1997037 70.2752593,50.6656296 71.894963,49.566963 C73.0995556,48.7497778 73.9008889,47.8675556 74.6078519,47.0891852 C76.3924444,45.1277037 76.249037,42.0802963 74.288,40.2957037 Z M69.6860741,42.6097778 C70.0177778,42.245037 70.4718519,42.0315556 70.9644444,42.0081481 C71.4573333,41.9871111 71.929037,42.1551111 72.2937778,42.4868148 C73.0376296,43.1638519 73.0988148,44.3133333 72.4391111,45.066963 C71.7991111,45.6808889 70.7721481,45.6711111 70.1331852,45.0386667 L68.7106667,43.6303704 C69.026963,43.3348148 69.3508148,42.9788148 69.6860741,42.6097778 Z M54.6158519,45.0943704 C54.284,45.4591111 53.8297778,45.6727407 53.3373333,45.696 C52.8428148,45.7201481 52.3727407,45.5491852 52.008,45.2173333 C51.6432593,44.8856296 51.4297778,44.4315556 51.4063704,43.9391111 C51.3838519,43.4586667 51.5462222,42.9983704 51.8631111,42.6364444 C52.5035556,42.0234074 53.5296296,42.0331852 54.1682963,42.6653333 L55.590963,44.0736296 C55.274963,44.3691852 54.9514074,44.725037 54.6158519,45.0943704 Z M60.7866667,45.0957037 C60.5702222,44.8573333 60.3457778,44.6111111 60.1085926,44.377037 C60.1068148,44.3752593 60.1051852,44.3731852 60.1034074,44.3712593 L56.253037,40.5595556 C55.986963,40.2961481 55.6961481,40.0728889 55.3885926,39.8872593 C56.1117037,39.6038519 56.8691852,39.4677037 57.7007407,39.4677037 C60.6626667,39.4677037 61.9213333,40.8534815 63.5151111,42.6082963 C63.7308148,42.8457778 63.9543704,43.0912593 64.1908148,43.3245926 C64.1934815,43.3272593 64.1957037,43.3302222 64.1983704,43.3328889 L68.0487407,47.1445926 C68.3148148,47.408 68.6057778,47.6314074 68.9133333,47.817037 C68.1902222,48.1004444 67.4328889,48.2365926 66.6011852,48.2365926 C63.6386667,48.2364444 62.3801481,46.8505185 60.7866667,45.0957037 Z" id="Shape" fill-rule="nonzero"></path>
                        <path d="M70.2558519,7.08577778 C71.0739259,7.08577778 71.7373333,6.42237037 71.7373333,5.6042963 C71.7373333,4.78622222 71.0739259,4.12281481 70.2558519,4.12281481 L70.2546667,4.12281481 C69.4365926,4.12281481 68.7737778,4.78622222 68.7737778,5.6042963 C68.7737778,6.42237037 69.4377778,7.08577778 70.2558519,7.08577778 Z" id="Path"></path>
                        <path d="M50.016,6.0162963 C50.8340741,6.0162963 51.4974815,5.35288889 51.4974815,4.53481481 C51.4974815,3.71674074 50.8340741,3.05333333 50.016,3.05333333 L50.014963,3.05333333 C49.1968889,3.05333333 48.5339259,3.71674074 48.5339259,4.53481481 C48.5339259,5.35288889 49.1979259,6.0162963 50.016,6.0162963 Z" id="Path"></path>
                        <path d="M45.3805926,19.4511111 C46.1986667,19.4511111 46.8620741,18.7877037 46.8620741,17.9696296 C46.8620741,17.1515556 46.1986667,16.4881481 45.3805926,16.4881481 L45.3794074,16.4881481 C44.5613333,16.4881481 43.8985185,17.1515556 43.8985185,17.9696296 C43.8985185,18.7877037 44.5625185,19.4511111 45.3805926,19.4511111 Z" id="Path"></path>
                        <path d="M44.2497778,33.0922963 C45.0678519,33.0922963 45.7312593,32.4288889 45.7312593,31.6108148 C45.7312593,30.7927407 45.0678519,30.1293333 44.2497778,30.1293333 L44.2485926,30.1293333 C43.4305185,30.1293333 42.7677037,30.7927407 42.7677037,31.6108148 C42.7677037,32.4288889 43.4317037,33.0922963 44.2497778,33.0922963 Z" id="Path"></path>
                        <path d="M69.8438519,25.844 L69.8438519,25.8451852 C69.8438519,26.6632593 70.5072593,27.3260741 71.3253333,27.3260741 C72.1434074,27.3260741 72.8068148,26.6622222 72.8068148,25.844 C72.8068148,25.0257778 72.1434074,24.3625185 71.3253333,24.3625185 C70.5072593,24.3625185 69.8438519,25.0257778 69.8438519,25.844 Z" id="Path"></path>
                        <path d="M56.4088889,30.4795556 L56.4088889,30.4805926 C56.4088889,31.2986667 57.0722963,31.9616296 57.8903704,31.9616296 C58.7084444,31.9616296 59.3718519,31.2977778 59.3718519,30.4795556 C59.3718519,29.6613333 58.7084444,28.9980741 57.8903704,28.9980741 C57.0722963,28.9980741 56.4088889,29.6613333 56.4088889,30.4795556 Z" id="Path"></path>
                        <path d="M22.9445926,53.9025185 L22.9434074,53.9025185 C22.1251852,53.9025185 21.4625185,54.5659259 21.4625185,55.384 C21.4625185,56.2020741 22.1263704,56.8654815 22.9445926,56.8654815 C23.7628148,56.8654815 24.4260741,56.2020741 24.4260741,55.384 C24.4260741,54.5659259 23.7628148,53.9025185 22.9445926,53.9025185 Z" id="Path"></path>
                    </g>
                </g>
            </g>
        </g>
    </g>
</svg>