<?xml version="1.0" encoding="UTF-8"?>
<svg width="180px" height="180px" viewBox="0 0 180 180" version="1.1" xmlns="http://www.w3.org/2000/svg" xmlns:xlink="http://www.w3.org/1999/xlink">
    <!-- Generator: sketchtool 52.1 (67048) - http://www.bohemiancoding.com/sketch -->
    <title>E09B8008-D572-4D99-B44C-A3F03E3142CC</title>
    <desc>Created with sketchtool.</desc>
    <g id="Facturación-2.0-Web*" stroke="none" stroke-width="1" fill="none" fill-rule="evenodd">
        <g id="Paciente-nuevo-04" transform="translate(-852.000000, -311.000000)">
            <g id="Welcome" transform="translate(852.000000, 311.000000)">
                <g id="_x3C_Group_x3E__3_" transform="translate(2.456140, 2.456140)">
                    <path d="M10.7017544,118.698947 L13.0347368,121.201404 C12.9403509,121.201404 13.3929825,169.02386 13.3929825,169.02386 L50.0635088,149.637895 C60.1754386,142.948772 60.1754386,138.19193 60.1754386,138.19193 L60.1754386,118.705965 L60.1754386,55.9129825 L60.1754386,32.3326316 C60.1754386,29.8066667 58.8178947,27.4754386 56.6210526,26.2291228 L17.7192982,4.15719298 L13.1540351,5.10666667 L13.5122807,49.0635088 C13.6063158,49.0617544 10.9831579,55.9136842 10.9831579,55.9136842 L10.7017544,118.698947 Z" id="Path" fill="#8A94DB"></path>
                    <path d="M14.2105263,28.5940351 L10.7017544,0.175438596 L7.82526316,0.175438596 L7.19298246,0.175438596 C7.05719298,0.175438596 6.9245614,0.183157895 6.79368421,0.195438596 C3.10491228,0.403859649 0.175438596,3.4522807 0.175438596,7.19298246 L0.175438596,59.9392982 L0.175438596,114.679649 L0.175438596,160.746316 L1.62736842,166.957544 C1.62736842,170.833333 3.90315789,172.213333 7.77894737,172.213333 L10.7017544,174.561053 L14.2105263,169.510526 L11.494386,167.672982 L11.5364912,167.436491 L14.2101754,144.620351 L14.2101754,28.5940351 L14.2105263,28.5940351 Z" id="Path" fill="#A4ACE3"></path>
                    <path d="M14.2105263,169.512281 L10.7017544,174.561404 L7.19298246,174.561404 C3.31578947,174.561404 0.175438596,171.421053 0.175438596,167.54386 L0.175438596,158.77193 C0.175438596,162.649123 3.31578947,165.789474 7.19298246,165.789474 L10.7017544,165.789474 L11.9403509,164.010526 L11.5368421,167.438596 L11.4947368,167.673684 L14.2105263,169.512281 Z" id="Path" fill="#8A94DB"></path>
                    <path d="M10.7017544,174.561404 L56.6210526,148.50807 C58.8178947,147.261404 60.1754386,144.930526 60.1754386,142.404561 L60.1754386,138.192281 L20.3392982,160.794035 C19.1698246,161.457544 17.7192982,160.612982 17.7192982,159.26807 L17.7192982,4.15719298 L10.7017544,0.175438596 L10.7017544,174.561404 Z" id="Path" fill="#717ED4"></path>
                    <path d="M164.035088,55.9203509 L160.526316,28.5940351 L164.035088,0.175438596 L166.911579,0.175438596 L167.54386,0.175438596 C167.679649,0.175438596 167.812281,0.183157895 167.943158,0.195438596 C171.63193,0.403859649 174.561404,3.4522807 174.561404,7.19298246 L174.561404,59.9392982 L174.561404,78.0284211 L167.54386,88.002807 L174.561404,96.7073684 L174.561404,114.679649 L174.561404,160.746316 L173.109474,166.957544 C173.109474,170.833333 170.833684,172.213333 166.957895,172.213333 L164.035088,174.561053 L160.526316,169.510526 L163.242456,167.672982 L163.200351,167.436491 L160.526667,144.620351 L164.035439,118.698596 L164.035439,55.9203509 L164.035088,55.9203509 Z" id="Path" fill="#A4ACE3"></path>
                    <path d="M164.035088,174.561404 L167.54386,174.561404 C171.421053,174.561404 174.561404,171.421053 174.561404,167.54386 L174.561404,158.77193 C174.561404,162.649123 171.421053,165.789474 167.54386,165.789474 L164.035088,165.667368 L160.526316,167.465263 L164.035088,174.561404 Z" id="Path" fill="#8A94DB"></path>
                    <path d="M157.017544,4.15719298 L121.578947,24.2642105 L119.612632,27.2522807 C117.415789,28.4989474 116.058246,30.8298246 116.058246,33.3557895 L116.595789,55.9312281 L116.775088,118.895789 L117.042807,137.350877 L117.042807,141.563158 C117.042807,144.089123 118.400351,146.420351 120.597193,147.666667 L164.035088,174.561404 L164.035088,0.175438596 L157.017544,4.15719298 Z" id="Path" fill="#8A94DB"></path>
                    <path d="M114.561404,142.404561 C114.561404,144.930526 115.918947,147.261754 118.115789,148.50807 L164.035088,174.561404 L164.035088,165.667368 L125.133333,143.595439 C122.936491,142.348772 121.578947,140.017895 121.578947,137.49193 L121.578947,24.2638596 L118.115789,26.2287719 C115.918947,27.4754386 114.561404,29.8063158 114.561404,32.3322807 L114.561404,142.404561 Z" id="Path" fill="#717ED4"></path>
                    <path d="M173.985614,87.3680702 C173.985614,86.1978947 173.81193,85.0680702 173.489474,84.002807 C173.370175,83.6094737 173.397193,83.1863158 173.564211,82.8105263 C174.214386,81.3505263 174.57193,79.7319298 174.561053,78.0284211 C174.521053,71.6126316 169.126316,66.5112281 162.710526,66.5112281 L155.162105,66.5112281 C152.906667,66.5112281 150.802807,67.1568421 149.022456,68.2715789 C148.468772,68.6182456 147.759298,68.6108772 147.206316,68.2635088 C145.528772,67.2098246 143.578947,66.5610526 141.499649,66.4445614 C139.392982,66.3270175 137.359649,66.7642105 135.558246,67.6449123 C135.058596,67.8891228 134.48,67.8901754 133.98,67.6459649 C132.140351,66.7470175 130.057544,66.3115789 127.908421,66.4540351 C124.99193,66.6491228 122.340351,67.8877193 120.348421,69.8196491 C119.758947,70.3912281 118.856491,70.5031579 118.177544,70.0414035 C114.827018,67.7624561 110.786316,66.4263158 106.437544,66.4263158 C102.566316,66.4263158 98.9389474,67.4849123 95.8249123,69.3245614 C95.2722807,69.6508772 94.5894737,69.6522807 94.0364912,69.3259649 C90.8196491,67.4266667 87.1719298,66.4266667 83.4070175,66.4266667 C78.9884211,66.4266667 74.8870175,67.8045614 71.5049123,70.1505263 C70.7957895,70.6424561 69.8452632,70.5207018 69.2410526,69.9045614 C67.1375439,67.7582456 64.2059649,66.4270175 60.9631579,66.4270175 C59.3042105,66.4270175 57.7280702,66.777193 56.3017544,67.405614 C55.8557895,67.6021053 55.3522807,67.6122807 54.9035088,67.4224561 C53.5192982,66.8375439 51.9985965,66.5122807 50.4010526,66.5122807 L42.5929825,66.5122807 C40.7126316,66.5122807 38.9389474,66.962807 37.3684211,67.757193 C37.3642105,67.7592982 37.3592982,67.7592982 37.3554386,67.757193 C36.4119298,67.2698246 35.3870175,66.9017544 34.2929825,66.6842105 C31.9792982,66.2235088 29.6905263,66.4863158 27.6589474,67.3157895 C27.237193,67.4880702 26.7649123,67.4877193 26.3442105,67.3126316 C23.9347368,66.3108772 21.1754386,66.1122807 18.4870175,66.9407018 C18.1515789,67.0438596 17.8245614,67.1610526 17.5059649,67.2912281 C17.0785965,67.4659649 16.6017544,67.4722807 16.1747368,67.2961404 C14.1385965,66.457193 11.8414035,66.1877193 9.51964912,66.6470175 C3.23964912,67.8891228 1.04245614,76.3487719 2.2845614,82.6287719 L4.88245614,95.8873684 C6.70385965,101.382105 10.445614,106.670877 15.5217544,106.670877 C15.5494737,106.670877 19.2231579,106.217544 20.8105263,105.43614 C21.3098246,105.190175 21.8891228,105.189825 22.3884211,105.435789 C24.002807,106.230877 25.8063158,106.671228 27.6838596,106.671228 C27.7112281,106.671228 32.3031579,105.961053 34.174386,104.755088 C34.7480702,104.385614 36.6607018,105.076491 36.0582456,104.756491 C42.5929825,108.225614 50.4014035,106.822105 50.4014035,106.822105 C52.0049123,106.822105 53.5315789,106.494386 54.92,105.904912 C55.3638596,105.716491 55.8631579,105.721754 56.3049123,105.915439 C57.1526316,106.287368 58.0564912,106.562105 59.0038596,106.724912 C59.8273684,106.865965 60.0912281,106.911579 62.7677193,106.911579 C63.8814035,106.911579 65.4140351,106.90386 67.5775439,106.891579 C69.7122807,106.879649 71.7080702,106.289474 73.4196491,105.272632 C73.9126316,104.979649 74.5112281,104.92807 75.0368421,105.158246 C77.6017544,106.281754 80.4326316,106.907719 83.4073684,106.907719 C87.2242105,106.907719 90.7701754,105.89193 93.817193,103.951579 C94.3842105,103.590526 95.1014035,103.58 95.6775439,103.926316 C98.8242105,105.818596 102.505965,106.907368 106.437544,106.907368 C110.009123,106.907368 113.374386,106.00807 116.32,104.424561 C116.908421,104.10807 117.628772,104.135789 118.167719,104.530526 C119.542105,105.536491 121.160702,106.254035 122.949474,106.577193 C125.087719,106.963158 127.195088,106.735789 129.090175,106.020702 C129.495789,105.867719 129.94386,105.869474 130.345965,106.032281 C131.749474,106.6 133.275789,106.907719 134.858246,106.907719 L134.921404,106.907719 C136.484561,106.899649 137.990877,106.59193 139.376491,106.030526 C139.778947,105.867719 140.227368,105.864561 140.633333,106.017895 C142.566667,106.748772 144.72,106.972281 146.898947,106.555439 C147.703509,106.401754 148.471579,106.166667 149.198246,105.862105 C149.635088,105.679298 150.125965,105.680702 150.560351,105.869123 C151.971228,106.481053 153.526316,106.822105 155.162105,106.822105 L162.710526,106.822105 C169.126316,106.822105 174.521404,103.124211 174.561404,96.7084211 C174.57193,95.0049123 174.214386,93.3859649 173.564561,91.9263158 C173.397193,91.5508772 173.370526,91.1277193 173.489825,90.7340351 C173.81193,89.6680702 173.985614,88.5382456 173.985614,87.3680702 Z" id="Path" fill="#F5FCFF"></path>
                    <path d="M174.552632,96.2982456 C172.515439,100.053333 168.466667,102.591228 163.907018,102.591228 L156.238947,102.591228 C154.576842,102.591228 152.996842,102.244561 151.563509,101.622807 C151.122456,101.431579 150.624211,101.429825 150.180702,101.615789 C149.442456,101.924912 148.662105,102.16386 147.844561,102.320351 C145.630877,102.743509 143.443509,102.516842 141.479298,101.774035 C141.067018,101.618246 140.611579,101.621404 140.202807,101.786667 C138.795088,102.356842 137.264912,102.669474 135.676842,102.677544 C135.655439,102.677544 135.633684,102.677544 135.612632,102.677544 C134.004912,102.677544 132.454737,102.365263 131.028772,101.78807 C130.620351,101.622807 130.165614,101.621053 129.753333,101.776491 C127.82807,102.502807 125.687018,102.734035 123.514737,102.341754 C121.697193,102.013684 120.052982,101.284561 118.656842,100.262456 C118.109123,99.8617544 117.377544,99.8336842 116.78,100.154737 C113.787719,101.763158 110.369123,102.676842 106.740702,102.676842 C102.746667,102.676842 99.0063158,101.570526 95.8094737,99.6480702 C95.2242105,99.2961404 94.4957895,99.3066667 93.9196491,99.6736842 C90.8238596,101.644912 87.2217544,102.676842 83.3442105,102.676842 C80.3221053,102.676842 77.4463158,102.041053 74.8407018,100.899649 C74.3070175,100.665965 73.6989474,100.718246 73.1978947,101.015789 C71.4589474,102.048772 69.4319298,102.648421 67.262807,102.660351 C65.0649123,102.672632 63.5080702,102.680702 62.3764912,102.680702 C59.6575439,102.680702 59.3894737,102.634386 58.5526316,102.491228 C57.5901754,102.325965 56.6719298,102.046667 55.8105263,101.668772 C55.3621053,101.47193 54.8550877,101.467018 54.4045614,101.658246 C52.9936842,102.257193 51.442807,102.590175 49.8136842,102.590175 L41.8810526,102.590175 C39.5435088,102.590175 37.3666667,101.907368 35.5354386,100.73193 C34.9519298,100.357544 34.2045614,100.355088 33.6217544,100.730175 C31.7207018,101.955088 29.4782456,102.660351 27.1108772,102.676491 C27.0831579,102.676491 27.0557895,102.676491 27.0280702,102.676491 C25.1207018,102.676491 23.2884211,102.229474 21.6484211,101.421754 C21.1414035,101.17193 20.5526316,101.172632 20.045614,101.422105 C18.4329825,102.21614 16.6347368,102.663158 14.7582456,102.67614 C14.7298246,102.676491 14.7010526,102.676491 14.6729825,102.676491 C14.6557895,102.676491 14.6385965,102.676491 14.6214035,102.676491 C11.8912281,102.664912 9.57403509,100.656491 9.06526316,97.9740351 C8.98561404,97.5540351 8.92596491,97.2347368 8.90491228,97.1196491 L5.67087719,79.2477193 C4.7922807,74.3915789 6.46421053,69.6333333 9.66877193,66.6214035 C9.66666667,66.617193 9.66877193,66.6214035 9.66666667,66.617193 C3.30350877,67.7922807 -0.854385965,73.9364912 0.39754386,80.2652632 L3.27508772,94.8119298 L4.04140351,98.6866667 C4.15122807,99.2407018 4.30105263,99.7859649 4.48982456,100.317895 C4.53614035,100.447719 4.58631579,100.573333 4.64070175,100.694737 C6.44315789,105.271579 10.8691228,108.309123 15.8094737,108.309123 C15.837193,108.309123 15.865614,108.309123 15.8933333,108.308772 C17.7407018,108.295789 19.5108772,107.855789 21.0982456,107.074386 C21.5975439,106.828421 22.1768421,106.82807 22.6761404,107.074035 C24.2905263,107.869123 26.0940351,108.309474 27.9715789,108.309474 L28.0529825,108.309474 C30.3831579,108.293684 32.5908772,107.599298 34.4621053,106.393684 C35.0357895,106.024211 35.7715789,106.026667 36.3459649,106.395088 C38.1484211,107.55193 40.2915789,108.224211 42.5926316,108.224211 L50.4010526,108.224211 C52.0049123,108.224211 53.5312281,107.896491 54.92,107.307018 C55.3635088,107.118596 55.862807,107.12386 56.3042105,107.317544 C57.1519298,107.689474 58.0561404,107.964561 59.0035088,108.127018 C59.8270175,108.26807 60.0908772,108.313684 62.7673684,108.313684 C63.8810526,108.313684 65.4136842,108.305965 67.577193,108.293684 C69.7119298,108.281754 71.7077193,107.691579 73.4192982,106.674737 C73.9122807,106.381754 74.5108772,106.330175 75.0361404,106.560351 C77.6010526,107.68386 80.4319298,108.309825 83.4070175,108.309825 C87.2238596,108.309825 90.7698246,107.294035 93.817193,105.353684 C94.3842105,104.992632 95.1010526,104.982105 95.677193,105.328421 C98.8238596,107.220702 102.505965,108.309825 106.437544,108.309825 C110.009123,108.309825 113.374386,107.410175 116.32,105.827018 C116.908421,105.510877 117.628772,105.538246 118.167719,105.932982 C119.542105,106.938947 121.160702,107.656842 122.949825,107.979649 C125.08807,108.365614 127.195439,108.138246 129.090526,107.423158 C129.49614,107.270175 129.944211,107.27193 130.345965,107.434737 C131.749474,108.002807 133.275789,108.310175 134.858246,108.310175 L134.921404,108.310175 C136.484561,108.302105 137.990877,107.994386 139.376491,107.432982 C139.778596,107.270175 140.227018,107.267018 140.632982,107.420351 C142.566316,108.151579 144.719649,108.374737 146.898596,107.958246 C147.703509,107.804211 148.471579,107.569123 149.198246,107.264912 C149.634737,107.082105 150.125263,107.083509 150.559649,107.27193 C151.970526,107.88386 153.525965,108.224912 155.161754,108.224912 L162.710175,108.224912 C169.125965,108.224912 174.521053,103.123509 174.560702,96.7077193 C174.562105,96.5701754 174.556491,96.434386 174.552632,96.2982456 Z" id="Path" fill="#E6F7FE"></path>
                </g>
                <g id="Group" fill="#000000">
                    <path d="M127.527018,101.749474 C128.957544,102.007018 130.325965,101.057544 130.584211,99.6270175 L132.265614,90.3105263 C132.303509,90.4333333 135.015789,99.6435088 135.083158,99.854386 C135.503158,101.103509 136.667368,101.939649 137.983509,101.939298 L137.999649,101.939298 C139.322807,101.932281 140.485965,101.082456 140.894386,99.8242105 C140.917193,99.762807 143.565263,90.454386 143.613333,90.2922807 L145.402456,99.6536842 C145.675088,101.081404 147.053684,102.017544 148.481053,101.744561 C149.908772,101.47193 150.844561,100.093333 150.57193,98.6659649 L147.035088,80.1596491 C146.757544,78.7985965 145.595439,77.7936842 144.208772,77.7154386 C142.825965,77.6389474 141.554386,78.5052632 141.125614,79.8266667 C141.10386,79.8849123 137.991579,90.8210526 137.947368,90.9698246 C137.905263,90.8329825 134.710526,79.9870175 134.649123,79.797193 C134.206316,78.4803509 132.924561,77.6245614 131.543509,77.7189474 C130.157544,77.8119298 129.006316,78.8294737 128.737895,80.2235088 L125.404561,98.6929825 C125.146316,100.122456 126.096491,101.491228 127.527018,101.749474 Z" id="Path"></path>
                    <path d="M69.6880702,96.66 C68.8557895,96.6645614 67.3319298,96.6715789 65.6778947,96.6750877 L65.6778947,80.3417544 C65.6778947,78.8884211 64.4996491,77.7101754 63.0463158,77.7101754 C61.5929825,77.7101754 60.4147368,78.8884211 60.4147368,80.3417544 L60.4147368,99.2915789 C60.4147368,100.573333 61.3382456,101.668421 62.6014035,101.885263 C62.7915789,101.917895 67.5266667,101.935439 69.7024561,101.923158 C71.1557895,101.915088 72.3273684,100.730175 72.3192982,99.2768421 C72.3108772,97.8284211 71.134386,96.66 69.6880702,96.66 Z" id="Path"></path>
                    <path d="M52.3350877,83.0596491 C53.7884211,83.0596491 54.9666667,81.8814035 54.9666667,80.4280702 C54.9666667,78.9747368 53.7884211,77.7964912 52.3350877,77.7964912 L44.4164912,77.7964912 C42.9631579,77.7964912 41.7849123,78.9747368 41.7849123,80.4280702 L41.7849123,99.2210526 C41.7849123,100.674386 42.9631579,101.852632 44.4164912,101.852632 L52.3350877,101.852632 C53.7884211,101.852632 54.9666667,100.674386 54.9666667,99.2210526 C54.9666667,97.7677193 53.7884211,96.5894737 52.3350877,96.5894737 L47.0480702,96.5894737 L47.0480702,92.4561404 L51.7512281,92.4561404 C53.2045614,92.4561404 54.382807,91.2778947 54.382807,89.8245614 C54.382807,88.3712281 53.2045614,87.1929825 51.7512281,87.1929825 L47.0480702,87.1929825 L47.0480702,83.0596491 L52.3350877,83.0596491 Z" id="Path"></path>
                    <path d="M158.572632,101.852632 L166.491228,101.852632 C167.944561,101.852632 169.122807,100.674386 169.122807,99.2210526 C169.122807,97.7677193 167.944561,96.5894737 166.491228,96.5894737 L161.204211,96.5894737 L161.204211,92.4561404 L165.907368,92.4561404 C167.360702,92.4561404 168.538947,91.2778947 168.538947,89.8245614 C168.538947,88.3712281 167.360702,87.1929825 165.907368,87.1929825 L161.204211,87.1929825 L161.204211,83.0596491 L166.491228,83.0596491 C167.944561,83.0596491 169.122807,81.8814035 169.122807,80.4280702 C169.122807,78.9747368 167.944561,77.7964912 166.491228,77.7964912 L158.572632,77.7964912 C157.119298,77.7964912 155.941053,78.9747368 155.941053,80.4280702 L155.941053,99.2210526 C155.941053,100.674386 157.119298,101.852632 158.572632,101.852632 Z" id="Path"></path>
                    <path d="M93.4712281,94.6140351 C92.3575439,93.6803509 90.6978947,93.8263158 89.7638596,94.94 C88.965614,95.8557895 87.8322807,96.5698246 85.8063158,96.6761404 C82.0284211,96.6761404 78.9547368,93.602807 78.9547368,89.8249123 C78.9547368,86.0470175 82.0284211,82.9736842 85.8063158,82.9736842 C87.18,82.9736842 88.5038596,83.3775439 89.6350877,84.1421053 C90.8396491,84.9554386 92.4754386,84.6392982 93.2891228,83.4347368 C94.102807,82.2301754 93.7863158,80.5947368 92.5817544,79.7810526 C90.577193,78.4263158 88.2340351,77.7105263 85.8063158,77.7105263 C79.1263158,77.7105263 73.6915789,83.1449123 73.6915789,89.8249123 C73.6915789,96.5049123 79.1263158,101.939298 85.8063158,101.939298 C88.6929825,101.879649 91.7270175,100.822105 93.797193,98.3214035 C94.7308772,97.2073684 94.5849123,95.5477193 93.4712281,94.6140351 Z" id="Path"></path>
                    <path d="M34.2189474,77.7954386 C32.7936842,77.5122807 31.4080702,78.437193 31.1242105,79.862807 L29.1280702,89.8936842 L25.9466667,79.5670175 C25.5189474,78.1778947 24.045614,77.3985965 22.657193,77.8270175 C21.7214035,78.1154386 21.0642105,78.8785965 20.8649123,79.7705263 L17.7305263,89.8961404 L15.7396491,79.8312281 C15.4578947,78.405614 14.0726316,77.4782456 12.6473684,77.7603509 C11.2217544,78.0424561 10.294386,79.4270175 10.5764912,80.8526316 C10.6726316,81.1989474 14.2147368,99.5157895 14.3733333,99.9038596 C14.8066667,101.12386 15.9635088,101.939298 17.2564912,101.939298 L17.2778947,101.939298 C18.5792982,101.930175 19.7347368,101.09614 20.1536842,99.8638596 C20.1677193,99.8270175 23.3912281,89.4045614 23.4312281,89.2778947 C23.4705263,89.3978947 26.6389474,99.705614 26.7070175,99.9035088 C27.1403509,101.123158 28.297193,101.938947 29.5901754,101.938947 L29.6108772,101.938947 C30.9119298,101.930175 32.0677193,101.096491 32.4870175,99.8645614 C32.6042105,99.602807 36.1891228,81.2708772 36.2866667,80.8898246 C36.5698246,79.4645614 35.6442105,78.0792982 34.2189474,77.7954386 Z" id="Path"></path>
                    <path d="M109.161404,77.7101754 C102.481404,77.7101754 97.0466667,83.1445614 97.0466667,89.8245614 C97.0466667,96.5045614 102.481404,101.938947 109.161404,101.938947 C115.841404,101.938947 121.275789,96.5045614 121.275789,89.8245614 C121.275789,83.1445614 115.841404,77.7101754 109.161404,77.7101754 Z M109.161404,96.6761404 C105.383509,96.6761404 102.309825,93.602807 102.309825,89.8249123 C102.309825,86.0470175 105.383509,82.9736842 109.161404,82.9736842 C112.939298,82.9736842 116.012632,86.0470175 116.012632,89.8249123 C116.012982,93.6024561 112.939298,96.6761404 109.161404,96.6761404 Z" id="Shape" fill-rule="nonzero"></path>
                    <path d="M124.938246,113.025614 C127.356842,113.462105 129.841754,113.266316 132.148421,112.460351 C133.800702,113.082807 135.536842,113.397895 137.314386,113.397544 C138.610526,113.395439 140.573333,113.150877 142.488421,112.457895 C145.364912,113.416842 148.96807,113.602105 152.321053,112.289123 C154.007719,112.968421 155.787719,113.312281 157.618246,113.312281 L165.166667,113.312281 C173.103509,113.312281 179.600351,106.972632 179.649123,99.18 C179.661053,97.2529825 179.294737,95.385614 178.559649,93.6238596 C178.901053,92.3901754 179.073684,91.1136842 179.073684,89.8238596 C179.073684,88.534386 178.900702,87.2578947 178.559649,86.0242105 C179.294737,84.2621053 179.661404,82.394386 179.649123,80.4680702 C179.600351,72.6754386 173.10386,66.3357895 165.167018,66.3357895 L157.618596,66.3357895 C155.140351,66.3357895 152.718596,66.9789474 150.578947,68.2003509 C148.604561,67.0649123 146.377544,66.4007018 144.102807,66.2733333 C141.742456,66.1417544 139.372982,66.5870175 137.224211,67.5645614 C135.028421,66.5663158 132.604912,66.1252632 130.189123,66.2842105 C126.968772,66.4996491 123.905263,67.7810526 121.488421,69.9098246 C117.715439,67.5133333 113.377193,66.2505263 108.894035,66.2505263 C104.861404,66.2505263 100.893684,67.2891228 97.3859649,69.2589474 C93.8761404,67.2891228 89.9035088,66.2505263 85.8635088,66.2505263 C81.2975439,66.2505263 76.8929825,67.5550877 73.0764912,70.0308772 C70.4414035,67.5877193 67.0385965,66.2505263 63.4196491,66.2505263 C61.5550877,66.2505263 59.7442105,66.6066667 58.0319298,67.3101754 C56.3814035,66.6635088 54.6424561,66.3361404 52.8575439,66.3361404 L45.0491228,66.3361404 C43.2361404,66.3361404 41.4831579,66.6698246 39.8284211,67.3270175 C37.0498246,66.1326316 32.8059649,65.8905263 29.4642105,67.1996491 C26.5898246,66.1329825 22.6659649,65.8470175 19.2908772,67.182807 C16.7961404,66.2291228 14.0978947,66 11.4649123,66.5210526 C3.77192982,68.0424561 -1.24912281,75.5392982 0.272631579,83.2329825 C1.30210526,87.9164912 3.26982456,99.5070175 4.46666667,103.65614 C6.53684211,109.482807 12.0824561,113.397895 18.2659649,113.397895 C19.8761404,113.398246 22.2326316,113.023509 24.3445614,112.069474 C26.2473684,112.939649 28.3417544,113.397895 30.4280702,113.397895 L30.5273684,113.397895 C33.1105263,113.380351 35.6336842,112.677895 37.8603509,111.361053 C40.037193,112.639649 42.5101754,113.312632 45.0487719,113.312632 L52.857193,113.312632 C54.6491228,113.312632 56.3947368,112.982456 58.0505263,112.330877 C59.0024561,112.718596 59.9982456,113.003158 61.0150877,113.177544 C62.0308772,113.35193 62.4473684,113.402105 65.2238596,113.402105 C66.3410526,113.402105 67.8782456,113.394386 70.0484211,113.382105 C72.4326316,113.368772 74.7757895,112.755789 76.8526316,111.604912 C79.7154386,112.795088 82.7445614,113.397895 85.8638596,113.397895 C89.954386,113.397895 93.874386,112.331579 97.2364912,110.309123 C100.779298,112.331579 104.798246,113.397895 108.894386,113.397895 C112.592632,113.397895 116.264211,112.518246 119.549123,110.849123 C121.176491,111.941754 122.986667,112.673333 124.938246,113.025614 Z M108.894035,108.134737 C105.575439,108.134737 102.32386,107.234035 99.4905263,105.530175 C98.0519298,104.664912 96.2775439,104.68807 94.86,105.590526 C92.2087719,107.278947 89.1821053,108.134737 85.8635088,108.134737 C83.3245614,108.134737 80.8635088,107.620702 78.5484211,106.606316 C77.26,106.041754 75.7578947,106.140351 74.5315789,106.869123 C73.1701754,107.677895 71.6094737,108.110175 70.0189474,108.118947 C67.8621053,108.131228 66.334386,108.138947 65.2238596,108.138947 C62.7722807,108.138947 62.5884211,108.107368 61.9045614,107.990175 C61.1849123,107.866667 60.4831579,107.65614 59.8175439,107.364211 C59.2578947,107.118947 58.6564912,106.99614 58.0550877,106.99614 C57.4729825,106.99614 56.8912281,107.111228 56.3480702,107.341404 C55.2417544,107.811228 54.0673684,108.049474 52.8575439,108.049474 L45.0491228,108.049474 C43.3319298,108.049474 41.6635088,107.561053 40.2238596,106.637193 C38.7849123,105.713333 36.9277193,105.714386 35.4933333,106.638246 C33.9929825,107.605263 32.2631579,108.122456 30.4933333,108.134737 L30.4284211,108.134737 C28.985614,108.134737 27.5950877,107.810175 26.2954386,107.170175 C25.0554386,106.559649 23.6329825,106.56 22.3922807,107.170526 C21.5389474,107.586316 20.0185965,108.085263 18.2659649,108.134737 C14.3045614,108.134737 10.7522807,105.627018 9.42631579,101.894386 C9.20421053,101.802105 5.56385965,82.6424561 5.43578947,82.2115789 C4.47719298,77.3649123 7.64,72.6424561 12.4866667,71.6838596 C14.2221053,71.34 16,71.5136842 17.6280702,72.1845614 C18.6950877,72.6242105 19.877193,72.6235088 20.9575439,72.182807 C22.7235088,71.4522807 25.3431579,71.2354386 27.7905263,72.1978947 C28.8589474,72.6424561 30.0382456,72.6452632 31.1098246,72.2073684 C33.185614,71.4178947 36.0484211,71.2091228 38.6347368,72.5663158 C39.3792982,72.9389474 40.2698246,72.9364912 41.0129825,72.5607018 C42.2736842,71.922807 43.6315789,71.5992982 45.0491228,71.5992982 L52.8575439,71.5992982 C54.0624561,71.5992982 55.2326316,71.8357895 56.3354386,72.3017544 C57.4414035,72.7691228 58.7112281,72.7568421 59.8189474,72.2691228 C60.9568421,71.7680702 62.1680702,71.5140351 63.4196491,71.5140351 C65.8466667,71.5140351 68.1189474,72.4687719 69.8178947,74.2021053 C71.3322807,75.7480702 73.705614,75.9859649 75.4610526,74.7687719 C78.5305263,72.6396491 82.1273684,71.514386 85.8631579,71.514386 C89.134386,71.514386 92.3470175,72.3905263 95.154386,74.0480702 C96.5305263,74.8607018 98.2414035,74.86 99.6192982,74.0466667 C102.42386,72.3901754 105.630877,71.514386 108.893684,71.514386 C112.567018,71.514386 116.114737,72.6070175 119.154035,74.6740351 C120.842807,75.8217544 123.14807,75.6080702 124.636842,74.1652632 C126.232281,72.6178947 128.328772,71.6842105 130.538596,71.5361404 C132.173333,71.4273684 133.813333,71.7494737 135.280702,72.4666667 C136.516491,73.0708772 137.934386,73.0701754 139.170175,72.465614 C140.606316,71.7635088 142.208772,71.4378947 143.808421,71.5287719 C145.38386,71.6168421 146.924211,72.1080702 148.262456,72.9484211 C149.665965,73.8305263 151.476842,73.834386 152.875088,72.9585965 C154.295088,72.0694737 155.935088,71.5992982 157.618246,71.5992982 L165.166667,71.5992982 C170.219298,71.5992982 174.355088,75.5926316 174.385614,80.5014035 C174.393684,81.7884211 174.134737,83.0315789 173.61614,84.1968421 C173.19193,85.1498246 173.124561,86.2245614 173.427018,87.2224561 C173.681404,88.0621053 173.810175,88.9375439 173.810175,89.8245614 C173.810175,90.7115789 173.681053,91.5870175 173.427018,92.4263158 C173.124561,93.4242105 173.191579,94.4989474 173.61614,95.4526316 C174.134737,96.617193 174.393684,97.8603509 174.385614,99.1477193 C174.355088,104.056491 170.219298,108.049825 165.166316,108.049825 L157.617895,108.049825 C156.384561,108.049825 155.188421,107.802105 154.063158,107.314386 C152.978596,106.84386 151.729825,106.836842 150.637544,107.294035 C149.162456,107.99614 146.207018,108.269825 144.02,107.415439 C142.989825,107.025614 141.862456,107.038246 140.844912,107.450175 C140.106667,107.745965 138.800702,108.100351 137.314035,108.135088 C136.09614,108.135088 134.910175,107.905263 133.788772,107.451579 C132.773684,107.041053 131.647368,107.029123 130.617544,107.417544 C128.126667,108.330526 124.893333,108.18807 122.178246,106.266316 C120.838596,105.285614 119.013333,105.16807 117.529825,105.965965 C114.890526,107.384561 111.904211,108.134737 108.894035,108.134737 Z" id="Shape" fill-rule="nonzero"></path>
                    <path d="M13.1578947,34.3003509 C11.7045614,34.3003509 10.5263158,35.4785965 10.5263158,36.9319298 L10.5263158,58.3694737 C10.5263158,59.822807 11.7045614,61.0010526 13.1578947,61.0010526 C14.6112281,61.0010526 15.7894737,59.822807 15.7894737,58.3694737 L15.7894737,36.9319298 C15.7894737,35.4782456 14.6112281,34.3003509 13.1578947,34.3003509 Z" id="Path"></path>
                    <path d="M62.6315789,137.458246 C61.1782456,137.458246 60,138.636491 60,140.089825 L60,144.860702 C60,146.43614 59.1487719,147.897895 57.7782456,148.675439 L15.7894737,172.498947 L15.7894737,121.162105 C15.7894737,119.708772 14.6112281,118.530526 13.1578947,118.530526 C11.7045614,118.530526 10.5263158,119.708772 10.5263158,121.162105 L10.5263158,174.385965 L9.64912281,174.385965 C7.23052632,174.385965 5.26315789,172.418596 5.26315789,170 L5.26315789,120.044211 C5.26315789,118.590877 4.08491228,117.412632 2.63157895,117.412632 C1.17824561,117.412632 0,118.590877 0,120.044211 L0,170 C0,175.320702 4.32842105,179.649123 9.64912281,179.649123 L13.1578947,179.649123 C13.4807018,179.62 13.8880702,179.627719 14.4564912,179.306316 L60.3754386,153.252982 C63.3901754,151.542456 65.2631579,148.326667 65.2631579,144.860702 L65.2631579,140.089825 C65.2631579,138.63614 64.0849123,137.458246 62.6315789,137.458246 Z" id="Path"></path>
                    <path d="M62.6315789,118.530526 C61.1782456,118.530526 60,119.708772 60,121.162105 L60,127.846316 C60,129.299649 61.1782456,130.477895 62.6315789,130.477895 C64.0849123,130.477895 65.2631579,129.299649 65.2631579,127.846316 L65.2631579,121.162105 C65.2631579,119.708772 64.0849123,118.530526 62.6315789,118.530526 Z" id="Path"></path>
                    <path d="M117.017544,60.9842105 C118.470877,60.9842105 119.649123,59.8059649 119.649123,58.3526316 L119.649123,34.7887719 C119.649123,33.2133333 120.500351,31.7515789 121.870877,30.9740351 L137.356842,22.1873684 C138.621053,21.4701754 139.064211,19.8638596 138.347018,18.6 C137.629825,17.3357895 136.023509,16.8929825 134.759649,17.6098246 L119.273684,26.3961404 C116.258596,28.1066667 114.385965,31.3224561 114.385965,34.7887719 L114.385965,58.3526316 C114.385965,59.8059649 115.564211,60.9842105 117.017544,60.9842105 Z" id="Path"></path>
                    <path d="M2.63157895,64.4761404 C4.08491228,64.4761404 5.26315789,63.2978947 5.26315789,61.8445614 L5.26315789,9.64912281 C5.26315789,7.23087719 7.23052632,5.26315789 9.64912281,5.26315789 L10.5263158,5.26315789 L10.5263158,24.7031579 C10.5263158,26.1564912 11.7045614,27.3347368 13.1578947,27.3347368 C14.6112281,27.3347368 15.7894737,26.1564912 15.7894737,24.7031579 L15.7894737,7.15052632 L57.7782456,30.9740351 C59.1487719,31.7512281 60,33.2129825 60,34.7887719 L60,58.3526316 C60,59.8059649 61.1782456,60.9842105 62.6315789,60.9842105 C64.0849123,60.9842105 65.2631579,59.8059649 65.2631579,58.3526316 L65.2631579,34.7887719 C65.2631579,31.3224561 63.3905263,28.1066667 60.3757895,26.3964912 L14.4564912,0.342807018 C14.1785965,0.214035088 13.7961404,-0.00105263158 13.1578947,6.34969524e-15 L9.64912281,6.34969524e-15 C4.32842105,6.34969524e-15 -7.10542736e-15,4.32877193 -7.10542736e-15,9.64912281 L-7.10542736e-15,61.8445614 C-7.10542736e-15,63.2978947 1.17824561,64.4761404 2.63157895,64.4761404 Z" id="Path"></path>
                    <path d="M170,-1.84491798e-14 L166.506316,-1.84491798e-14 C166.165965,0.0277192982 165.776491,0.0175438596 165.192281,0.342807018 L145.26807,11.6470175 C144.00386,12.3642105 143.560702,13.9705263 144.277895,15.2347368 C144.995088,16.4989474 146.601053,16.9421053 147.865263,16.2249123 L163.859649,7.15052632 L163.859649,58.3694737 C163.859649,59.822807 165.037895,61.0010526 166.491228,61.0010526 C167.944561,61.0010526 169.122807,59.822807 169.122807,58.3694737 L169.122807,5.26315789 L170,5.26315789 C172.418596,5.26315789 174.385965,7.23052632 174.385965,9.64912281 L174.385965,61.8782456 C174.385965,63.3315789 175.564211,64.5098246 177.017544,64.5098246 C178.470877,64.5098246 179.649123,63.3315789 179.649123,61.8782456 L179.649123,9.64912281 C179.649123,4.32877193 175.320702,-2.84217094e-14 170,-1.84491798e-14 Z" id="Path"></path>
                    <path d="M177.017544,115.290526 C175.564211,115.290526 174.385965,116.468772 174.385965,117.922105 L174.385965,170 C174.385965,172.418596 172.418596,174.385965 170,174.385965 L169.122807,174.385965 L169.122807,121.430877 C169.122807,119.977544 167.944561,118.799298 166.491228,118.799298 C165.037895,118.799298 163.859649,119.977544 163.859649,121.430877 L163.859649,172.498596 L121.870877,148.675088 C120.500351,147.897895 119.649123,146.43614 119.649123,144.860351 L119.649123,121.161754 C119.649123,119.708421 118.470877,118.530175 117.017544,118.530175 C115.564211,118.530175 114.385965,119.708421 114.385965,121.161754 L114.385965,144.860351 C114.385965,148.326667 116.258596,151.542456 119.273333,153.252632 L165.192632,179.305965 C165.470877,179.435088 165.851579,179.649474 166.491228,179.648772 L170,179.648772 C175.320702,179.648772 179.649123,175.320351 179.649123,169.999649 L179.649123,117.922105 C179.649123,116.468772 178.470877,115.290526 177.017544,115.290526 Z" id="Path"></path>
                </g>
            </g>
        </g>
    </g>
</svg>