<?xml version="1.0" encoding="UTF-8"?>
<svg width="26px" height="26px" viewBox="0 0 26 26" version="1.1" xmlns="http://www.w3.org/2000/svg" xmlns:xlink="http://www.w3.org/1999/xlink">
    <!-- Generator: sketchtool 52.1 (67048) - http://www.bohemiancoding.com/sketch -->
    <title>1A119F00-B294-4286-934E-65FCADBBFC8E</title>
    <desc>Created with sketchtool.</desc>
    <g id="Parte-1---Seguridad" stroke="none" stroke-width="1" fill="none" fill-rule="evenodd">
        <g id="P61" transform="translate(-551.000000, -881.000000)">
            <g id="Group-7" transform="translate(551.000000, 881.000000)">
                <g id="Group-6">
                    <path d="M13.4814815,26 C16.1137671,26 16.1137671,24.4094422 17.8148148,23.5925926 C19.3042408,22.8773646 20.8367474,23.9211392 22.4748206,22.1481481 C24.1128938,20.3751571 22.9972322,18.8460993 23.5925926,17.3333333 C24.1726116,15.8595488 26,15.4074074 26,13 C26,10.5925926 23.6516942,10.0960636 23.1111111,8.66666667 C22.5015766,7.05494993 23.7644561,6.27196202 22.4748206,4.09894397 C21.1851852,1.92592593 19.2657233,3.10592337 17.8148148,2.40740741 C16.1108224,1.5870484 15.7048752,0 13,0 C10.2951248,3.31251681e-16 9.87115685,1.60832719 8.18518519,2.40740741 C6.78033413,3.07324818 5.17242444,2.40740741 3.69459691,3.92202475 C2.21676938,5.43664209 3.04344685,7.17341042 2.40740741,8.66666667 C1.74153378,10.2299659 -2.95585778e-12,10.5925926 0,13 C2.95621901e-12,15.4074074 1.62212939,16.1407488 2.40740741,17.8148148 C3.09004706,19.270075 2.40740741,20.851488 3.99679405,22.377778 C5.5861807,23.904068 7.06350565,22.9658379 8.66666667,23.5925926 C10.1330042,24.1658562 11.1368815,26 13.4814815,26 Z" id="Oval" fill="#3962E6"></path>
                    <g id="simple-line-icons:check" transform="translate(7.280000, 9.360000)" fill="#FFFFFF" fill-rule="nonzero" stroke="#FFFFFF">
                        <g id="Icon">
                            <path d="M9.67625198,0.206498091 L3.74899196,6.17327318 L1.08172495,3.50600617 C0.950008064,3.37428928 0.798533642,3.30843083 0.627301685,3.30843083 C0.456069729,3.30843083 0.304595307,3.37428928 0.172878417,3.50600617 C0.146535039,3.53234955 0.120191662,3.56857169 0.0938482837,3.6146726 C0.0675049058,3.66077351 0.0477473724,3.7035815 0.0345756835,3.74309657 C0.0214039945,3.78261164 0.0115252278,3.82541963 0.00493938335,3.87152054 C-0.00164646112,3.91762145 -0.00164646112,3.96372236 0.00493938335,4.00982327 C0.0115252278,4.05592418 0.0214039945,4.10202509 0.0345756835,4.148126 C0.0477473724,4.19422692 0.0675049058,4.2370349 0.0938482837,4.27654997 L0.172878417,4.39509517 L3.31432623,7.51678545 C3.43287143,7.64850234 3.58105293,7.71436078 3.75887073,7.71436078 C3.93668853,7.71436078 4.08487003,7.64850234 4.20341523,7.51678545 L4.28244536,7.43775532 L10.5850985,1.09558709 C10.7036437,0.977041894 10.7629163,0.828860393 10.7629163,0.651042593 C10.7629163,0.473224792 10.7036437,0.325043291 10.5850985,0.206498091 C10.3480081,-0.0305923098 10.0911602,-0.0635215321 9.81455472,0.107710424 C9.76186796,0.134053802 9.71576705,0.166983024 9.67625198,0.206498091 Z" id="Icon-Shape"></path>
                        </g>
                    </g>
                </g>
            </g>
        </g>
    </g>
</svg>