<?xml version="1.0" encoding="UTF-8"?>
<svg width="23px" height="18px" viewBox="0 0 23 18" version="1.1" xmlns="http://www.w3.org/2000/svg" xmlns:xlink="http://www.w3.org/1999/xlink">
    <!-- Generator: sketchtool 52.1 (67048) - http://www.bohemiancoding.com/sketch -->
    <title>7CD201F4-ED3F-47E4-8E16-89900E459A67</title>
    <desc>Created with sketchtool.</desc>
    <g id="PASO-2" stroke="none" stroke-width="1" fill="none" fill-rule="evenodd">
        <g id="Desktop-26-4" transform="translate(-296.000000, -540.000000)" fill="#FF5964">
            <g id="Atención-premium" transform="translate(296.000000, 540.000000)">
                <g id="Atención-premium-SI">
                    <path d="M12.2517767,14.0391355 C12.2517767,14.4348959 11.9310261,14.7556464 11.5352658,14.7556464 C11.1397853,14.7556464 10.8187549,14.4348959 10.8187549,14.0391355 C10.8187549,13.6433752 11.1397853,13.3226246 11.5352658,13.3226246 C11.9310261,13.3226246 12.2517767,13.6433752 12.2517767,14.0391355 Z" id="Path"></path>
                    <path d="M2.86576374,17.6214102 L20.0617456,17.6214102 C20.4575058,17.6214102 20.7782565,17.3006595 20.7782565,16.9051791 L20.7782565,14.1085475 L22.9482209,3.00346818 C23.0036385,2.71966266 22.8830072,2.43025946 22.6423043,2.26988419 C22.4016015,2.10950884 22.088128,2.10950884 21.847425,2.26988419 L15.9949864,6.17150989 L12.0936405,0.319071262 C11.9606942,0.119791667 11.7370644,0 11.497481,0 C11.2578977,0 11.0342679,0.119791667 10.9013215,0.319071262 L6.99969576,6.17123002 L1.14753699,2.26988419 C0.90739385,2.10978871 0.59503995,2.10922897 0.354336997,2.2684847 C0.113914056,2.42774042 -0.00755696885,2.71574427 0.0461813489,2.99926986 L2.14925284,14.1063084 L2.14925284,16.9051791 C2.14925284,17.3006595 2.47000339,17.6214102 2.86576374,17.6214102 Z M6.80097597,7.76126846 C7.13040304,7.98069993 7.57514358,7.89169587 7.79457504,7.56254868 L11.497481,2.00818976 L15.200387,7.56254868 C15.4198184,7.89169587 15.864559,7.98069993 16.1937062,7.76126846 L21.2120814,4.41577831 L19.4717435,13.3226246 L14.7595649,13.3226246 C14.3638045,13.3226246 14.043054,13.6433752 14.043054,14.0391355 C14.043054,14.4348959 14.3638045,14.7556464 14.7595649,14.7556464 L19.3452347,14.7556464 L19.3452347,16.1886682 L3.58227465,16.1886682 L3.58227465,14.7556464 L8.31124661,14.7556464 C8.70700689,14.7556464 9.02775751,14.4348959 9.02775751,14.0391355 C9.02775751,13.6433752 8.70700689,13.3226246 8.31124661,13.3226246 L3.45940421,13.3226246 L1.77112539,4.40794147 L6.80097597,7.76126846 Z" id="Shape" fill-rule="nonzero"></path>
                </g>
            </g>
        </g>
    </g>
</svg>