<?xml version="1.0" encoding="UTF-8"?>
<svg width="258px" height="36px" viewBox="0 0 258 36" version="1.1" xmlns="http://www.w3.org/2000/svg" xmlns:xlink="http://www.w3.org/1999/xlink">
    <!-- Generator: sketchtool 52.1 (67048) - http://www.bohemiancoding.com/sketch -->
    <title>683094F4-BA74-4378-8738-ED4DA07A9AE9</title>
    <desc>Created with sketchtool.</desc>
    <defs>
        <polygon id="path-1" points="0.143262987 0.535721175 32.0621314 0.535721175 32.0621314 36.2946247 0.143262987 36.2946247"></polygon>
        <polygon id="path-3" points="0.143262987 0.535721175 12.3166959 0.535721175 32.0621314 0.535721175 32.0621314 36.2946247 0.143262987 36.2946247"></polygon>
    </defs>
    <g id="Landing" stroke="none" stroke-width="1" fill="none" fill-rule="evenodd">
        <g id="Landing-003" transform="translate(-134.000000, -51.000000)">
            <g id="PhantomX-Logo" transform="translate(134.000000, 50.000000)">
                <path d="M18.8491777,13.2447626 C18.8491777,8.74092964 15.6460926,5.49091098 11.1900962,5.49091098 L2.60171044,5.49091098 L2.60171044,20.9531037 L11.1900962,20.9531037 C15.6460926,20.9531037 18.8491777,17.7019473 18.8491777,13.2447626 M21.3100707,13.2447626 C21.3100707,18.9563305 17.0389114,23.2741393 11.1900962,23.2741393 L2.60171044,23.2741393 L2.60171044,35.6717687 L0.141954909,35.6717687 L0.141954909,3.16930654 L11.1900962,3.16930654 C17.0389114,3.16930654 21.3100707,7.48711533 21.3100707,13.2447626" id="Fill-1" fill="#FFFFFF"></path>
                <path d="M18.8491777,13.2447626 C18.8491777,8.74092964 15.6460926,5.49091098 11.1900962,5.49091098 L2.60171044,5.49091098 L2.60171044,20.9531037 L11.1900962,20.9531037 C15.6460926,20.9531037 18.8491777,17.7019473 18.8491777,13.2447626 Z M21.3100707,13.2447626 C21.3100707,18.9563305 17.0389114,23.2741393 11.1900962,23.2741393 L2.60171044,23.2741393 L2.60171044,35.6717687 L0.141954909,35.6717687 L0.141954909,3.16930654 L11.1900962,3.16930654 C17.0389114,3.16930654 21.3100707,7.48711533 21.3100707,13.2447626 Z" id="Stroke-3" stroke="#FFFFFF" stroke-width="0.1"></path>
                <path d="M51.2089822,21.2313436 L51.2089822,35.6718256 L48.8413608,35.6718256 L48.8413608,21.2313436 C48.8413608,16.9596142 46.3804678,14.1732337 42.0177431,14.1732337 C37.4679062,14.1732337 33.8940094,17.1450694 33.8940094,23.4135721 L33.8940094,35.6718256 L31.5724552,35.6718256 L31.5724552,3.16936343 L33.8940094,3.16936343 L33.8940094,16.8668865 C35.6576399,13.4308437 38.6286834,11.9449258 42.2037176,11.9449258 C47.7272195,11.9449258 51.2089822,15.6130722 51.2089822,21.2313436" id="Fill-5" fill="#FFFFFF"></path>
                <path d="M51.2089822,21.2313436 L51.2089822,35.6718256 L48.8413608,35.6718256 L48.8413608,21.2313436 C48.8413608,16.9596142 46.3804678,14.1732337 42.0177431,14.1732337 C37.4679062,14.1732337 33.8940094,17.1450694 33.8940094,23.4135721 L33.8940094,35.6718256 L31.5724552,35.6718256 L31.5724552,3.16936343 L33.8940094,3.16936343 L33.8940094,16.8668865 C35.6576399,13.4308437 38.6286834,11.9449258 42.2037176,11.9449258 C47.7272195,11.9449258 51.2089822,15.6130722 51.2089822,21.2313436 Z" id="Stroke-7" stroke="#FFFFFF" stroke-width="0.1"></path>
                <path d="M82.8254001,24.0635189 C82.8254001,18.5385441 78.5542408,14.1735182 73.0307389,14.1735182 C67.5060996,14.1735182 63.1900106,18.5385441 63.1900106,24.0635189 C63.1900106,29.5890627 67.5060996,33.9535197 73.0307389,33.9535197 C78.5542408,33.9535197 82.8254001,29.5890627 82.8254001,24.0635189 Z M85.1924528,12.4554967 L85.1924528,35.6715411 L82.8254001,35.6715411 L82.8254001,30.4253181 C80.8757951,33.9074403 77.3007608,36.1829654 72.8453331,36.1829654 C66.253757,36.1829654 60.8223893,30.9361735 60.8223893,24.0635189 C60.8223893,17.1914333 66.253757,11.9446414 72.8453331,11.9446414 C77.3007608,11.9446414 80.8757951,14.2195975 82.8254001,17.7022886 L82.8254001,12.4554967 L85.1924528,12.4554967 Z" id="Fill-9" fill="#FFFFFF"></path>
                <path d="M82.8254001,24.0635189 C82.8254001,18.5385441 78.5542408,14.1735182 73.0307389,14.1735182 C67.5060996,14.1735182 63.1900106,18.5385441 63.1900106,24.0635189 C63.1900106,29.5890627 67.5060996,33.9535197 73.0307389,33.9535197 C78.5542408,33.9535197 82.8254001,29.5890627 82.8254001,24.0635189 Z M85.1924528,12.4554967 L85.1924528,35.6715411 L82.8254001,35.6715411 L82.8254001,30.4253181 C80.8757951,33.9074403 77.3007608,36.1829654 72.8453331,36.1829654 C66.253757,36.1829654 60.8223893,30.9361735 60.8223893,24.0635189 C60.8223893,17.1914333 66.253757,11.9446414 72.8453331,11.9446414 C77.3007608,11.9446414 80.8757951,14.2195975 82.8254001,17.7022886 L82.8254001,12.4554967 L85.1924528,12.4554967 Z" id="Stroke-11" stroke="#FFFFFF" stroke-width="0.1"></path>
                <path d="M116.62483,21.2313436 L116.62483,35.6718256 L114.25664,35.6718256 L114.25664,21.2313436 C114.25664,16.9596142 111.796315,14.1732337 107.433591,14.1732337 C102.883754,14.1732337 99.3098571,17.1450694 99.3098571,23.4135721 L99.3098571,35.6718256 L96.9883028,35.6718256 L96.9883028,12.4557812 L99.3098571,12.4557812 L99.3098571,16.8668865 C101.073488,13.4308437 104.043962,11.9449258 107.619565,11.9449258 C113.142498,11.9449258 116.62483,15.6130722 116.62483,21.2313436" id="Fill-13" fill="#FFFFFF"></path>
                <path d="M116.62483,21.2313436 L116.62483,35.6718256 L114.25664,35.6718256 L114.25664,21.2313436 C114.25664,16.9596142 111.796315,14.1732337 107.433591,14.1732337 C102.883754,14.1732337 99.3098571,17.1450694 99.3098571,23.4135721 L99.3098571,35.6718256 L96.9883028,35.6718256 L96.9883028,12.4557812 L99.3098571,12.4557812 L99.3098571,16.8668865 C101.073488,13.4308437 104.043962,11.9449258 107.619565,11.9449258 C113.142498,11.9449258 116.62483,15.6130722 116.62483,21.2313436 Z" id="Stroke-15" stroke="#FFFFFF" stroke-width="0.1"></path>
                <path d="M132.782836,14.7305667 L132.782836,29.82128 C132.782836,33.9075541 134.964483,34.0002818 139.699157,33.582154 L139.699157,35.6716549 C133.619437,36.6000691 130.415783,35.115289 130.415783,29.82128 L130.415783,14.7305667 L125.309729,14.7305667 L125.309729,12.4556105 L130.415783,12.4556105 L130.415783,6.65188386 L132.782836,5.95500431 L132.782836,12.4556105 L139.699157,12.4556105 L139.699157,14.7305667 L132.782836,14.7305667 Z" id="Fill-17" fill="#FFFFFF"></path>
                <path d="M132.782836,14.7305667 L132.782836,29.82128 C132.782836,33.9075541 134.964483,34.0002818 139.699157,33.582154 L139.699157,35.6716549 C133.619437,36.6000691 130.415783,35.115289 130.415783,29.82128 L130.415783,14.7305667 L125.309729,14.7305667 L125.309729,12.4556105 L130.415783,12.4556105 L130.415783,6.65188386 L132.782836,5.95500431 L132.782836,12.4556105 L139.699157,12.4556105 L139.699157,14.7305667 L132.782836,14.7305667 Z" id="Stroke-19" stroke="#FFFFFF" stroke-width="0.1"></path>
                <path d="M168.947669,24.0635189 C168.947669,18.5385441 164.67651,14.1735182 159.153008,14.1735182 C153.628368,14.1735182 149.312279,18.5385441 149.312279,24.0635189 C149.312279,29.5890627 153.628368,33.9535197 159.153008,33.9535197 C164.67651,33.9535197 168.947669,29.5890627 168.947669,24.0635189 M146.944658,24.0635189 C146.944658,17.1914333 152.376026,11.9446414 159.153008,11.9446414 C165.883923,11.9446414 171.314722,17.1914333 171.314722,24.0635189 C171.314722,30.9361735 165.883923,36.1829654 159.153008,36.1829654 C152.376026,36.1829654 146.944658,30.9361735 146.944658,24.0635189" id="Fill-21" fill="#FFFFFF"></path>
                <path d="M168.947669,24.0635189 C168.947669,18.5385441 164.67651,14.1735182 159.153008,14.1735182 C153.628368,14.1735182 149.312279,18.5385441 149.312279,24.0635189 C149.312279,29.5890627 153.628368,33.9535197 159.153008,33.9535197 C164.67651,33.9535197 168.947669,29.5890627 168.947669,24.0635189 Z M146.944658,24.0635189 C146.944658,17.1914333 152.376026,11.9446414 159.153008,11.9446414 C165.883923,11.9446414 171.314722,17.1914333 171.314722,24.0635189 C171.314722,30.9361735 165.883923,36.1829654 159.153008,36.1829654 C152.376026,36.1829654 146.944658,30.9361735 146.944658,24.0635189 Z" id="Stroke-23" stroke="#FFFFFF" stroke-width="0.1"></path>
                <path d="M214.769019,20.95299 L214.769019,35.6716549 L212.447464,35.6716549 L212.447464,20.95299 C212.447464,16.5418846 209.895006,14.1736319 206.273336,14.1736319 C202.374126,14.1736319 199.310379,16.7734193 199.310379,22.7170908 L199.310379,35.6716549 L196.989963,35.6716549 L196.989963,20.95299 C196.989963,16.5418846 194.622341,14.1736319 191.048444,14.1736319 C187.242506,14.1736319 183.852877,16.7734193 183.852877,22.7170908 L183.852877,35.6716549 L181.531892,35.6716549 L181.531892,12.4556105 L183.852877,12.4556105 L183.852877,16.449157 C185.570441,13.2446488 188.35551,11.9447551 191.327122,11.9447551 C194.715044,11.9447551 197.360774,13.6166972 198.568187,16.6806917 C200.238546,13.430673 203.210727,11.9447551 206.319972,11.9447551 C211.240052,11.9447551 214.769019,15.1481255 214.769019,20.95299" id="Fill-25" fill="#FFFFFF"></path>
                <path d="M214.769019,20.95299 L214.769019,35.6716549 L212.447464,35.6716549 L212.447464,20.95299 C212.447464,16.5418846 209.895006,14.1736319 206.273336,14.1736319 C202.374126,14.1736319 199.310379,16.7734193 199.310379,22.7170908 L199.310379,35.6716549 L196.989963,35.6716549 L196.989963,20.95299 C196.989963,16.5418846 194.622341,14.1736319 191.048444,14.1736319 C187.242506,14.1736319 183.852877,16.7734193 183.852877,22.7170908 L183.852877,35.6716549 L181.531892,35.6716549 L181.531892,12.4556105 L183.852877,12.4556105 L183.852877,16.449157 C185.570441,13.2446488 188.35551,11.9447551 191.327122,11.9447551 C194.715044,11.9447551 197.360774,13.6166972 198.568187,16.6806917 C200.238546,13.430673 203.210727,11.9447551 206.319972,11.9447551 C211.240052,11.9447551 214.769019,15.1481255 214.769019,20.95299 Z" id="Stroke-27" stroke="#FFFFFF" stroke-width="0.1"></path>
                <g id="ICONO" transform="translate(224.284315, 0.000000)">
                    <g id="Group-31" transform="translate(0.758989, 0.638892)">
                        <mask id="mask-2" fill="white">
                            <use xlink:href="#path-1"></use>
                        </mask>
                        <g id="Clip-30"></g>
                        <path d="M16.8726038,28.0977313 L21.949498,19.6338691 L32.0621314,36.2946872 L21.8479183,36.2946872 L16.8726038,28.0977313 Z M10.1333842,16.9946974 L0.143262987,0.535721175 L10.357476,0.535721175 L15.2572422,8.60820933 L10.1333842,16.9946974 Z" id="Combined-Shape" fill="#171D49" mask="url(#mask-2)"></path>
                    </g>
                    <g id="Group-36" transform="translate(0.758989, 0.638892)">
                        <mask id="mask-4" fill="white">
                            <use xlink:href="#path-3"></use>
                        </mask>
                        <g id="Clip-35"></g>
                        <polygon id="Fill-34" fill="#FFFFFF" mask="url(#mask-4)" points="0.143262987 36.2946872 10.357476 36.2946872 32.0621314 0.535721175 21.8479183 0.535721175"></polygon>
                    </g>
                </g>
            </g>
        </g>
    </g>
</svg>