<?xml version="1.0" encoding="UTF-8"?>
<svg width="20px" height="20px" viewBox="0 0 20 20" version="1.1" xmlns="http://www.w3.org/2000/svg" xmlns:xlink="http://www.w3.org/1999/xlink">
    <!-- Generator: sketchtool 52.1 (67048) - http://www.bohemiancoding.com/sketch -->
    <title>877DA49D-1726-4C28-A576-93296CA33C18</title>
    <desc>Created with sketchtool.</desc>
    <g id="Agenda-5---Prop-2" stroke="none" stroke-width="1" fill="none" fill-rule="evenodd">
        <g id="crm-020" transform="translate(-1443.000000, -2452.000000)" fill="#3962E6" fill-rule="nonzero">
            <g id="Group-10" transform="translate(160.000000, 2355.000000)">
                <g id="Citas-prereservadas" transform="translate(30.000000, 91.000000)">
                    <path d="M1263,6 C1257.48,6 1253,10.48 1253,16 C1253,21.52 1257.48,26 1263,26 C1268.52,26 1273,21.52 1273,16 C1273,10.48 1268.52,6 1263,6 Z M1263,24 C1258.59,24 1255,20.41 1255,16 C1255,11.59 1258.59,8 1263,8 C1267.41,8 1271,11.59 1271,16 C1271,20.41 1267.41,24 1263,24 Z M1266.88,12.29 L1261,18.17 L1259.12,16.29 C1258.73064,15.9006393 1258.09936,15.9006393 1257.71,16.29 C1257.32064,16.6793607 1257.32064,17.3106393 1257.71,17.7 L1260.3,20.29 C1260.69,20.68 1261.32,20.68 1261.71,20.29 L1268.3,13.7 C1268.48723,13.5131554 1268.59244,13.2595095 1268.59244,12.995 C1268.59244,12.7304905 1268.48723,12.4768446 1268.3,12.29 C1267.91,11.9 1267.27,11.9 1266.88,12.29 Z" id="Agendar-icon"></path>
                </g>
            </g>
        </g>
    </g>
</svg>