<?xml version="1.0" encoding="UTF-8"?>
<svg width="14px" height="14px" viewBox="0 0 14 14" version="1.1" xmlns="http://www.w3.org/2000/svg" xmlns:xlink="http://www.w3.org/1999/xlink">
    <title>03A57944-1084-459B-9421-D91B75DF63C8</title>
    <g id="Laboratorio-a-Domicilio***" stroke="none" stroke-width="1" fill="none" fill-rule="evenodd">
        <g id="04" transform="translate(-1206.000000, -447.000000)" fill="#3962E6" fill-rule="nonzero">
            <g id="Tabla-/-registros-/-pendientes-Copy-9" transform="translate(138.000000, 443.000000)">
                <g id="Atender" transform="translate(1068.000000, 4.000000)">
                    <path d="M12.8735517,9.20275862 C12.0113793,9.20275862 11.1668966,9.06813793 10.3665172,8.80403448 C9.97589655,8.66941379 9.53231034,8.77313793 9.27558621,9.03503448 L7.68882759,10.2333793 C5.86813793,9.26162069 4.70289655,8.09710345 3.74437931,6.28965517 L4.91034483,4.74041379 C5.20386207,4.44689655 5.30906897,4.01727586 5.18327586,3.61489655 C4.91696552,2.80937931 4.78162069,1.96413793 4.78162069,1.10344828 C4.78162069,0.495068966 4.28655172,0 3.67817241,0 L1.10344828,0 C0.495068966,0 0,0.495068966 0,1.10344828 C0,8.20155172 5.77544828,13.977 12.8735517,13.977 C13.481931,13.977 13.977,13.481931 13.977,12.8735517 L13.977,10.3062069 C13.977,9.69782759 13.481931,9.20275862 12.8735517,9.20275862 Z" id="Path"></path>
                </g>
            </g>
        </g>
    </g>
</svg>