<?xml version="1.0" encoding="UTF-8"?>
<svg width="28px" height="28px" viewBox="0 0 28 28" version="1.1" xmlns="http://www.w3.org/2000/svg" xmlns:xlink="http://www.w3.org/1999/xlink">
    <!-- Generator: sketchtool 52.1 (67048) - http://www.bohemiancoding.com/sketch -->
    <title>902DB675-68D9-4E7C-930F-AFBB6DCFF9C7</title>
    <desc>Created with sketchtool.</desc>
    <g id="*CRM" stroke="none" stroke-width="1" fill="none" fill-rule="evenodd">
        <g id="Demanda-Inducida-006" transform="translate(-1299.000000, -334.000000)" fill="#8B97A3" fill-rule="nonzero">
            <g id="Ausentismo" transform="translate(1299.000000, 334.000000)">
                <path d="M14,28 C6.2680135,28 0,21.7319865 0,14 C0,6.2680135 6.2680135,0 14,0 C21.7319865,0 28,6.2680135 28,14 C28,21.7319865 21.7319865,28 14,28 Z M14,23.1304348 C19.0425999,23.1304348 23.1304348,19.0425999 23.1304348,14 C23.1304348,8.95740011 19.0425999,4.86956522 14,4.86956522 C8.95740011,4.86956522 4.86956522,8.95740011 4.86956522,14 C4.86956522,19.0425999 8.95740011,23.1304348 14,23.1304348 Z" id="Oval" fill-opacity="0.253141984"></path>
                <path d="M28,14 L23.1304348,14 C23.1304348,8.95740011 19.0425999,4.86956522 14,4.86956522 L14,0 C21.7319865,0 28,6.2680135 28,14 Z" id="Oval-Copy"></path>
            </g>
        </g>
    </g>
</svg>