<?xml version="1.0" encoding="UTF-8"?>
<svg width="28px" height="28px" viewBox="0 0 28 28" version="1.1" xmlns="http://www.w3.org/2000/svg" xmlns:xlink="http://www.w3.org/1999/xlink">
    <!-- Generator: sketchtool 52.1 (67048) - http://www.bohemiancoding.com/sketch -->
    <title>9B5F31D6-0C95-43AD-89D7-BADB1D055A62</title>
    <desc>Created with sketchtool.</desc>
    <g id="*CRM" stroke="none" stroke-width="1" fill="none" fill-rule="evenodd">
        <g id="Demanda-Inducida-006" transform="translate(-1378.000000, -334.000000)" fill-rule="nonzero">
            <g id="Ausentismo" transform="translate(1378.000000, 334.000000)">
                <path d="M14,28 C6.2680135,28 0,21.7319865 0,14 C0,6.2680135 6.2680135,0 14,0 C21.7319865,0 28,6.2680135 28,14 C28,21.7319865 21.7319865,28 14,28 Z M14,23.1304348 C19.0425999,23.1304348 23.1304348,19.0425999 23.1304348,14 C23.1304348,8.95740011 19.0425999,4.86956522 14,4.86956522 C8.95740011,4.86956522 4.86956522,8.95740011 4.86956522,14 C4.86956522,19.0425999 8.95740011,23.1304348 14,23.1304348 Z" id="Oval" fill="#BDCBF8"></path>
                <path d="M14,28 L14,23.1636364 C19.0609366,23.1636364 23.1636364,19.0609366 23.1636364,14 C23.1636364,8.93906338 19.0609366,4.83636364 14,4.83636364 L14,0 C21.7319865,0 28,6.2680135 28,14 C28,21.7319865 21.7319865,28 14,28 Z" id="Oval" fill="#3962E6"></path>
                <path d="M7,35 L7,30.1636364 C12.0609366,30.1636364 16.1636364,26.0609366 16.1636364,21 C16.1636364,15.9390634 12.0609366,11.8363636 7,11.8363636 L7,7 C14.7319865,7 21,13.2680135 21,21 C21,28.7319865 14.7319865,35 7,35 Z" id="Oval-Copy" fill="#3962E6" transform="translate(14.000000, 21.000000) rotate(-270.000000) translate(-14.000000, -21.000000) "></path>
            </g>
        </g>
    </g>
</svg>