<?xml version="1.0" encoding="UTF-8"?>
<svg width="29px" height="19px" viewBox="0 0 29 19" version="1.1" xmlns="http://www.w3.org/2000/svg" xmlns:xlink="http://www.w3.org/1999/xlink">
    <title>7176AB7E-1493-4664-AD4C-BB336C5C4BF2</title>
    <g id="Paso-2" stroke="none" stroke-width="1" fill="none" fill-rule="evenodd">
        <g id="Ajustes-001" transform="translate(-440.000000, -541.000000)" fill="#3962E6" fill-rule="nonzero" stroke="#3962E6" stroke-width="0.3">
            <g id="Autorizacion-empresa" transform="translate(441.000000, 542.000000)">
                <path d="M21.3187676,11.5704492 C20.7888926,10.4657168 18.89325,8.93230664 17.0617852,7.45068164 C16.0402676,6.62491406 15.0750176,5.84418164 14.4596602,5.22882422 C14.3055176,5.07357422 14.0749102,5.02405664 13.8713027,5.09719922 C13.4921953,5.2344668 13.2581602,5.34019922 13.0736953,5.42230664 C12.7924629,5.54828906 12.6979629,5.59105664 12.3188027,5.62928906 C12.1511602,5.64616406 12.0004453,5.73618164 11.9070527,5.87566406 C11.1116602,7.06477148 10.2881602,6.96352148 9.73803516,6.77905664 C9.56253516,6.72057422 9.53105273,6.64516406 9.51417773,6.57318164 C9.39605273,6.07932422 9.98894531,4.92955664 10.7572852,4.16116406 C12.5854277,2.33191406 13.5281602,1.87402148 15.5194102,2.76391406 C17.7783926,3.77414648 20.0419102,4.56505664 20.0644277,4.57291406 C20.3603203,4.67527148 20.6786777,4.52002148 20.7810352,4.22639648 C20.8822852,3.93277148 20.7281426,3.61214648 20.4345176,3.50978906 C20.412,3.50193164 18.1935176,2.72678906 15.9795176,1.73564648 C13.3999102,0.582503906 11.984625,1.34187891 9.963,3.36466406 C9.1935,4.13416406 8.14835742,5.69114648 8.41835742,6.83305664 C8.53421484,7.31905664 8.87625,7.67907422 9.38471484,7.84666406 C10.6593574,8.26743164 11.8225723,7.86464648 12.6888398,6.71493164 C13.0465898,6.65982422 13.2412324,6.57882422 13.5336973,6.44719922 C13.6394297,6.39994922 13.7631973,6.3448418 13.9274648,6.27844922 C14.5709824,6.88257422 15.4394648,7.58568164 16.3540898,8.32480664 C18.0078398,9.66241406 19.8832324,11.1789492 20.3051074,12.0564492 C20.51325,12.4895566 20.2893398,12.7719492 20.1374648,12.9013066 C19.9147148,13.0925742 19.6098574,13.1533242 19.4444824,13.0374141 C19.2622324,12.9125391 19.024875,12.9046816 18.8369824,13.0171641 C18.6479824,13.1296465 18.54225,13.3422715 18.565875,13.5605391 C18.6041074,13.9182891 18.2767324,14.1230566 18.1349824,14.1939316 C17.7749648,14.3761816 17.3992324,14.3446992 17.2585898,14.2141816 C17.1010723,14.0679492 16.8749473,14.0251816 16.6747148,14.0994316 C16.4744824,14.1747891 16.3349473,14.3593066 16.3146973,14.5730391 C16.2809473,14.9420215 16.0075723,15.2963965 15.6509297,15.4347715 C15.4788047,15.5000039 15.2290547,15.5393965 15.0051973,15.3346289 C14.8657148,15.2086465 14.6721797,15.1602363 14.4910898,15.2041113 C14.3077324,15.2490938 14.1603398,15.3818789 14.0962148,15.5584863 C14.0748574,15.6147539 14.0264473,15.7497539 13.4999473,15.7497539 C13.1253223,15.7497539 12.4514297,15.4966289 12.1218398,15.2783613 C11.7269648,15.0184863 9.25082227,13.1712539 7.11223242,11.3802363 C6.81185742,11.1271113 6.29210742,10.5848437 5.83310742,10.1055938 C5.42583984,9.68034375 5.05348242,9.29448633 4.86221484,9.13248633 C4.62258984,8.92998633 4.26821484,8.96036133 4.06908984,9.19887891 C3.86885742,9.43623633 3.89807227,9.79177148 4.13548242,9.99200391 C4.309875,10.1393965 4.647375,10.4959863 5.01973242,10.8841113 C5.5215,11.4083438 6.04008984,11.9506113 6.388875,12.2431289 C8.48364258,13.9970215 11.0013926,15.8903965 11.5031074,16.2199863 C11.917125,16.4922539 12.8092324,16.8747363 13.5,16.8747363 C14.0546074,16.8747363 14.4810176,16.7475938 14.7768574,16.4990039 C15.1728398,16.6531465 15.622875,16.6542539 16.0559824,16.4855039 C16.567875,16.2874863 16.9885898,15.8881289 17.2271074,15.4043965 C17.6703398,15.4988965 18.17775,15.4325039 18.6389648,15.2007891 C19.0901074,14.9735566 19.4163223,14.6259316 19.5783223,14.2197715 C20.0260898,14.2433965 20.4873047,14.0847715 20.8686797,13.7573965 C21.5145176,13.2050566 21.6922324,12.3455918 21.3187676,11.5704492 Z" id="Path"></path>
                <path d="M11.2499824,2.24980664 L6.18748242,2.24980664 C5.87698242,2.24980664 5.62496484,2.50182422 5.62496484,2.81232422 C5.62496484,3.12282422 5.87698242,3.3748418 6.18748242,3.3748418 L11.2499824,3.3748418 C11.5604824,3.3748418 11.8125,3.12282422 11.8125,2.81232422 C11.8125,2.50182422 11.5604824,2.24980664 11.2499824,2.24980664 Z" id="Path"></path>
                <path d="M22.966875,10.3734316 C22.7924824,10.1158242 22.44375,10.0449492 22.1861426,10.2204492 L20.5414102,11.3251816 C20.2838027,11.4984141 20.2151426,11.8483066 20.3884277,12.1059141 C20.4975352,12.2668066 20.6753027,12.3545566 20.8564453,12.3545566 C20.9633379,12.3545566 21.0724453,12.3241816 21.1692129,12.2589492 L22.8139453,11.1542168 C23.0715,10.9809316 23.1401074,10.6310918 22.966875,10.3734316 Z" id="Path"></path>
                <path d="M19.4748574,13.0577168 C19.072125,12.7404668 17.2709824,10.8966094 16.1572324,9.73560937 C15.9423398,9.5105918 15.58575,9.50273437 15.3618398,9.71873438 C15.1368223,9.93362695 15.1300723,10.2902168 15.3449648,10.514127 C15.6341074,10.8156094 18.1844473,13.474002 18.7773398,13.9420195 C18.8796973,14.0230195 19.0034648,14.0624121 19.1249648,14.0624121 C19.2903398,14.0624121 19.4557148,13.9881621 19.5681973,13.8475195 C19.760625,13.6044668 19.7190176,13.2500918 19.4748574,13.0577168 Z" id="Path"></path>
                <path d="M17.2271074,14.1860742 C16.5532148,13.6471816 14.860125,11.8483066 14.4775898,11.4320742 C14.2660723,11.2025742 13.9116973,11.1890742 13.6821973,11.3983242 C13.4538047,11.6086816 13.4380898,11.9653242 13.6484473,12.1937168 C13.6686973,12.2150742 15.6892148,14.3964844 16.5239473,15.0647344 C16.6274648,15.1468418 16.7523398,15.1873418 16.8749473,15.1873418 C17.0392148,15.1873418 17.2034297,15.1141992 17.3148047,14.9769844 C17.5083926,14.7339316 17.469,14.3795566 17.2271074,14.1860742 Z" id="Path"></path>
                <path d="M14.988375,15.3189668 C14.1862324,14.6428594 12.544875,12.8957168 12.22425,12.5525742 C12.011625,12.3253418 11.6549824,12.3129492 11.4288574,12.5255742 C11.201625,12.7381992 11.1903398,13.0936816 11.4018574,13.3209668 C11.863125,13.8148242 13.4336074,15.4798594 14.26275,16.1795918 C14.3684824,16.2684492 14.4967324,16.3123242 14.6249824,16.3123242 C14.7847148,16.3123242 14.9445,16.2437168 15.055875,16.1120918 C15.2561074,15.8735742 15.2257324,15.5191992 14.988375,15.3189668 Z" id="Path"></path>
                <path d="M6.5745,1.2789668 C5.61035742,0.365449219 1.755,0.0695566406 0.596267578,0.00094921875 C0.436535156,-0.00690820312 0.289142578,0.0459316406 0.176660156,0.152824219 C0.064125,0.258556641 0,0.407056641 0,0.562306641 L0,10.6873066 C0,10.9978066 0.252017578,11.2498242 0.562517578,11.2498242 L3.93751758,11.2498242 C4.18051758,11.2498242 4.39651758,11.0934668 4.471875,10.8616992 C4.55398242,10.6096816 6.49239258,4.6607168 6.74773242,1.73569922 C6.76239258,1.56468164 6.699375,1.39593164 6.5745,1.2789668 Z M3.526875,10.1248418 L1.12498242,10.1248418 L1.12498242,1.16532422 C2.932875,1.30818164 4.883625,1.61868164 5.592375,1.96293164 C5.29426758,4.42668164 3.945375,8.80405664 3.526875,10.1248418 Z" id="Shape"></path>
                <path d="M26.4374824,1.12482422 C22.0207148,1.12482422 19.5704648,2.25544922 19.4681074,2.30269922 C19.321875,2.37130664 19.2127148,2.49844922 19.1677324,2.6525918 C19.12275,2.80673438 19.1452148,2.97210938 19.2295898,3.10932422 C19.9248398,4.2287168 22.1017148,10.4454668 22.5202148,11.9619492 C22.5877148,12.2060566 22.8093574,12.3748066 23.0624824,12.3748066 L26.4374824,12.3748066 C26.7479824,12.3748066 27,12.1227891 27,11.8122891 L27,1.68728906 C27,1.37568164 26.7479824,1.12482422 26.4374824,1.12482422 Z M25.8750176,11.2498242 L23.48325,11.2498242 C22.95,9.51280664 21.3749824,4.98355664 20.496375,3.1115918 C21.3547324,2.82023438 23.1986426,2.31957422 25.8750176,2.25660938 L25.8750176,11.2498242 Z" id="Shape"></path>
            </g>
        </g>
    </g>
</svg>