<?xml version="1.0" encoding="UTF-8"?>
<svg width="17px" height="21px" viewBox="0 0 17 21" version="1.1" xmlns="http://www.w3.org/2000/svg" xmlns:xlink="http://www.w3.org/1999/xlink">
    <title>A9AF06B7-54E7-4AF9-812E-8ABAB78617E7</title>
    <g id="Paso-2" stroke="none" stroke-width="1" fill="none" fill-rule="evenodd">
        <g id="Ajustes-001" transform="translate(-410.000000, -538.000000)" fill="#3962E6" fill-rule="nonzero">
            <g id="Autorizacion-ejecutivo-lider" transform="translate(410.000000, 538.000000)">
                <path d="M16.5147523,3.26250463 L8.80178935,0.0601689815 C8.60857176,-0.0200300926 8.39138889,-0.0200694444 8.19821065,0.0601689815 L0.485247685,3.26250463 C0.191486111,3.38449537 0,3.67129167 0,3.98937269 L0,7.88225463 C0,13.2424884 3.23979861,18.0641528 8.2025787,20.0897894 C8.39319907,20.167588 8.60676157,20.167588 8.7974213,20.0897894 C13.7601227,18.0641921 17,13.2425278 17,7.88225463 L17,3.98937269 C17,3.67129167 16.8085532,3.38449537 16.5147523,3.26250463 Z M15.4259259,7.88225463 C15.4259259,12.4390023 12.75,16.6337917 8.5,18.5062315 C4.36356944,16.6838079 1.57407407,12.5624884 1.57407407,7.88225463 L1.57407407,4.51479861 L8.5,1.63920139 L15.4259259,4.51479861 L15.4259259,7.88225463 Z M7.63008796,10.5351204 L11.0129306,7.15231713 C11.3202685,6.84497917 11.818581,6.84493981 12.1259583,7.15231713 C12.4333356,7.45969444 12.4332963,7.95800694 12.125919,8.26534491 L8.18660185,12.204662 C7.87918519,12.5120787 7.38087269,12.5119606 7.07357407,12.204662 L4.87404167,10.0051296 C4.56666435,9.69775231 4.56666435,9.19943981 4.87404167,8.89210185 C5.18141898,8.58476389 5.67973148,8.58472454 5.98706944,8.89210185 L7.63008796,10.5351204 Z" id="Shape"></path>
            </g>
        </g>
    </g>
</svg>