<?xml version="1.0" encoding="UTF-8"?>
<svg width="23px" height="23px" viewBox="0 0 23 23" version="1.1" xmlns="http://www.w3.org/2000/svg" xmlns:xlink="http://www.w3.org/1999/xlink">
    <title>41F4B88B-EF27-41E3-8AA5-1CAA66F4D8BA</title>
    <g id="Paso-2" stroke="none" stroke-width="1" fill="none" fill-rule="evenodd">
        <g id="Ajustes-001" transform="translate(-406.000000, -537.000000)" fill="#3962E6" fill-rule="nonzero" stroke="#3962E6">
            <g id="Autorizacion-ejecutivo-lider" transform="translate(407.000000, 538.000000)">
                <path d="M20.5066932,16.1220989 L17.4894463,13.104852 C18.2040616,11.6994472 18.2126964,10.0244426 17.5147113,8.61280156 L17.5147113,1.41180098 C17.5147113,0.644576947 16.8906021,0.0204678363 16.1233781,0.0204678363 L5.23800712,0.0204678363 C4.47078309,0.0204678363 3.84667398,0.644576947 3.84667398,1.41180098 L3.84667398,2.63955136 L1.39133314,2.63955136 C0.624109111,2.63955136 2.32692358e-15,3.26366043 2.32692358e-15,4.0308845 L2.32692358e-15,19.5813231 C2.32692358e-15,20.3485472 0.624109111,20.9726562 1.39133314,20.9726562 L13.5044545,20.9726562 C14.2716786,20.9726562 14.8957876,20.3485472 14.8957876,19.5813231 L14.8957876,18.3537326 L16.1233781,18.3537326 C16.7281387,18.3537326 17.2436723,17.9658032 17.4350786,17.425964 L18.3188733,18.3097588 C18.6111796,18.6020651 18.9995888,18.7629294 19.4127832,18.7629294 C19.8259777,18.7629294 20.2145468,18.6019052 20.5066932,18.3097588 C21.1098547,17.7065972 21.1098547,16.7252604 20.5066932,16.1220989 Z M4.66522753,1.41180098 C4.66522753,1.09582875 4.92219483,0.838861497 5.23800712,0.838861497 L16.1233781,0.838861497 C16.4393503,0.838861497 16.6963176,1.09582875 16.6963176,1.41180098 L16.6963176,7.42854532 C16.6547423,7.38377193 16.6125274,7.33947826 16.5688733,7.29582418 C16.0760462,6.80315697 15.5051855,6.43505575 14.8957876,6.19120068 L14.8957876,4.0308845 C14.8957876,3.26366043 14.2716786,2.63955136 13.5044545,2.63955136 L4.66522753,2.63955136 L4.66522753,1.41180098 Z M4.67800964,2.67181046 L4.66433774,2.67181046 C4.66941594,2.65891976 4.67371274,2.66009166 4.67800964,2.67181046 Z M3.90623743,2.671682 L3.89334683,2.671682 C3.89764373,2.6607445 3.90194053,2.659182 3.90623743,2.671682 Z M14.0772341,19.5813231 C14.0772341,19.8972953 13.8202668,20.1542626 13.5044545,20.1542626 L1.39133314,20.1542626 C1.07536092,20.1542626 0.818393661,19.8972953 0.818393661,19.5813231 L0.818393661,4.0308845 C0.818393661,3.71491228 1.07536092,3.45794498 1.39133314,3.45794498 L13.5044545,3.45794498 C13.8202668,3.45794498 14.0772341,3.71491228 14.0772341,4.0308845 L14.0772341,5.94270833 C12.4743467,5.60243056 10.7353801,6.05320268 9.49275858,7.29582418 C9.14416574,7.64441705 8.85809576,8.0321866 8.63406891,8.44506121 L2.61908353,8.44506121 C2.39297788,8.44506121 2.2098867,8.62815243 2.2098867,8.85425804 C2.2098867,9.08020375 2.39297788,9.26345487 2.61908353,9.26345487 L8.2808388,9.26345487 C8.05425346,9.95280517 7.98101701,10.6818119 8.06128928,11.396907 L2.61908353,11.396907 C2.39297788,11.396907 2.2098867,11.5801581 2.2098867,11.8061038 C2.2098867,12.0320495 2.39297788,12.2153006 2.61908353,12.2153006 L8.22279332,12.2153006 C8.4484192,13.005551 8.87152778,13.750868 9.49275858,14.3720989 C10.4681789,15.3475192 11.7494975,15.8352293 13.030816,15.8352293 C13.3816475,15.8352293 13.7326389,15.7982913 14.0772341,15.7252147 L14.0772341,19.5813231 Z M10.0714547,13.7932429 C8.43962446,12.1614127 8.43962446,9.50635049 10.0714547,7.87452027 C10.8872899,7.05868513 11.9591328,6.65076754 13.030816,6.65076754 C14.1024991,6.65076754 15.1743421,7.05868513 15.9901773,7.87452027 C17.6220075,9.50635049 17.6220075,12.1615726 15.9901773,13.7932429 C14.358347,15.4250731 11.7032849,15.4250731 10.0714547,13.7932429 Z M16.6963176,16.9623995 C16.6963176,17.2782118 16.4393503,17.5351791 16.1233781,17.5351791 L14.8957876,17.5351791 L14.8957876,15.4767224 C15.033146,15.4217151 15.1685855,15.3603116 15.3016265,15.2926718 L16.6963176,16.687203 L16.6963176,16.9623995 Z M19.9279971,17.7310627 C19.7903189,17.8687408 19.6073876,17.9445358 19.4127832,17.9445358 C19.2181789,17.9445358 19.0352476,17.8687408 18.8977293,17.7310627 L16.0160819,14.8495751 C16.2089273,14.7059805 16.3939373,14.5470349 16.5688733,14.3720989 C16.7438094,14.1971628 16.9029148,14.0121528 17.0465095,13.8193074 L19.9279971,16.7007949 C20.2119883,16.9847862 20.2119883,17.4470714 19.9279971,17.7310627 L19.9279971,17.7310627 Z" id="Shape" stroke-width="0.3"></path>
                <path d="M2.61908353,15.1562729 L8.34496072,15.1562729 C8.57106633,15.1562729 8.75415751,14.9730217 8.75415751,14.747076 C8.75415751,14.5211303 8.57106633,14.3378792 8.34496072,14.3378792 L2.61908353,14.3378792 C2.39297788,14.3378792 2.2098867,14.5211303 2.2098867,14.747076 C2.2098867,14.9730217 2.39297788,15.1562729 2.61908353,15.1562729 L2.61908353,15.1562729 Z" id="Path" stroke-width="0.3"></path>
                <path d="M10.481451,17.289725 C10.373835,17.289725 10.2682977,17.3335389 10.1921829,17.4096537 C10.1155885,17.4857685 10.0722542,17.5913057 10.0722542,17.6989218 C10.0722542,17.8065378 10.1155885,17.9120751 10.1921829,17.9881899 C10.2682977,18.0643046 10.3733553,18.1081186 10.481451,18.1081186 C10.5890671,18.1081186 10.6946043,18.0643046 10.7707191,17.9881899 C10.8468339,17.9120751 10.8906479,17.8065378 10.8906479,17.6989218 C10.8906479,17.5913057 10.8468339,17.4857685 10.7707191,17.4096537 C10.6946043,17.3335389 10.5890671,17.289725 10.481451,17.289725 Z" id="Path" stroke-width="0.3"></path>
                <path d="M8.83666851,17.289725 L2.61908353,17.289725 C2.39297788,17.289725 2.2098867,17.4729761 2.2098867,17.6989218 C2.2098867,17.9248675 2.39297788,18.1081186 2.61908353,18.1081186 L8.83666851,18.1081186 C9.06277412,18.1081186 9.24602524,17.9248675 9.24602524,17.6989218 C9.24602524,17.4729761 9.06277412,17.289725 8.83666851,17.289725 L8.83666851,17.289725 Z" id="Path" stroke-width="0.3"></path>
                <path d="M2.61908353,6.32248265 L8.82595487,6.32248265 C9.05206048,6.32248265 9.2353116,6.13923153 9.2353116,5.91328582 C9.2353116,5.68734011 9.05206048,5.50408899 8.82595487,5.50408899 L2.61908353,5.50408899 C2.39297788,5.50408899 2.2098867,5.68734011 2.2098867,5.91328582 C2.2098867,6.13923153 2.39297788,6.32248265 2.61908353,6.32248265 Z" id="Path" stroke-width="0.3"></path>
                <path d="M12.2964075,12.8114226 C12.2894832,12.8114226 12.2817894,12.8114226 12.2756344,12.8106533 C12.1656136,12.8044982 12.0648253,12.7521807 11.9963508,12.6667799 L10.4575986,10.7433396 C10.3252659,10.5771544 10.3514247,10.3355703 10.5176099,10.2024682 C10.6845646,10.0701355 10.9261487,10.097833 11.0584813,10.2624795 L12.327952,11.8504719 L14.7168648,9.46155898 C14.8668932,9.31153064 15.1107854,9.31153064 15.2608137,9.46155898 C15.4108421,9.61158733 15.4108421,9.85547956 15.2608137,10.0055079 L12.5679973,12.6983243 C12.4964453,12.7714151 12.3979652,12.8114226 12.2964075,12.8114226 L12.2964075,12.8114226 Z" id="Path" stroke-width="0.5"></path>
            </g>
        </g>
    </g>
</svg>