<?xml version="1.0" encoding="UTF-8"?>
<svg width="23px" height="23px" viewBox="0 0 23 23" version="1.1" xmlns="http://www.w3.org/2000/svg" xmlns:xlink="http://www.w3.org/1999/xlink">
    <!-- Generator: sketchtool 52.1 (67048) - http://www.bohemiancoding.com/sketch -->
    <title>0166689E-DE1D-4A4F-A3DE-FB3E39074A58</title>
    <desc>Created with sketchtool.</desc>
    <g id="PREDICCIÓN-2" stroke="none" stroke-width="1" fill="none" fill-rule="evenodd">
        <g id="productividad-0002" transform="translate(-1430.000000, -1046.000000)" fill="#FF5964" fill-rule="nonzero">
            <g id="Group-7-Copy" transform="translate(1430.000000, 1046.000000)">
                <g id="bajo">
                    <path d="M5.17987735,19.060547 C6.89026365,20.4905145 9.09301066,21.3511695 11.4967762,21.3511695 C16.9368054,21.3452992 21.3452992,16.9368054 21.3511695,11.4967762 C21.3511695,9.33108219 20.6525526,7.32856035 19.4683871,5.70227872 L5.17987735,19.060547 Z M3.9732003,17.8614455 L18.3526285,4.41817798 C16.5789034,2.69992518 14.161342,1.64238285 11.4967762,1.64238285 C6.054341,1.64238285 1.64238285,6.054341 1.64238285,11.4967762 C1.64238285,13.9229809 2.51918124,16.1443966 3.9732003,17.8614455 Z M11.4967762,1.0658141e-14 C17.843477,0.00678451883 22.9868159,5.15012343 22.9935523,11.4967762 C22.9935523,17.8462678 17.8462678,22.9935523 11.4967762,22.9935523 C5.14728452,22.9935523 -7.85149723e-13,17.8462678 -7.85149723e-13,11.4967762 C-7.85149723e-13,5.14728452 5.14728452,1.0658141e-14 11.4967762,1.0658141e-14 Z" id="Combined-Shape"></path>
                </g>
            </g>
        </g>
    </g>
</svg>