<?xml version="1.0" encoding="UTF-8"?>
<svg width="25px" height="17px" viewBox="0 0 25 17" version="1.1" xmlns="http://www.w3.org/2000/svg" xmlns:xlink="http://www.w3.org/1999/xlink">
    <!-- Generator: sketchtool 52.1 (67048) - http://www.bohemiancoding.com/sketch -->
    <title>F9B24211-A14D-4AF9-B381-1D8035E8C4EB</title>
    <desc>Created with sketchtool.</desc>
    <g id="Parte-2---Seguridad" stroke="none" stroke-width="1" fill="none" fill-rule="evenodd">
        <g id="Usuarios-014" transform="translate(-1225.000000, -682.000000)">
            <g id="Group-7" transform="translate(1225.000000, 679.000000)">
                <g id="ecuador" transform="translate(0.000000, 3.000000)">
                    <path d="M0.77521875,12.1290313 L0.77521875,8.84071875 L8.57646875,8.84071875 L8.57646875,9.994875 C8.57646875,10.7320625 9.17621875,11.3317813 9.91340625,11.3317813 L12.1280312,11.3317813 L12.1280312,12.1290313 L0.77521875,12.1290313 Z" id="Path" fill="#164FCE"></path>
                    <path d="M0.80646875,8.87196875 L0.80646875,12.0977813 L12.0967812,12.0977813 L12.0967812,11.3630313 L9.91340625,11.3630313 C9.159,11.3630313 8.54521875,10.7492813 8.54521875,9.994875 L8.54521875,8.87196875 L0.80646875,8.87196875 Z" id="Path" fill="#164FCE"></path>
                    <path d="M12.8719687,12.1290313 L12.8719687,11.3317813 L15.0865937,11.3317813 C15.8237812,11.3317813 16.4235,10.7320625 16.4235,9.994875 L16.4235,8.84071875 L24.2247812,8.84071875 L24.2247812,12.1290313 L12.8719687,12.1290313 Z" id="Path" fill="#164FCE"></path>
                    <path d="M24.1935312,12.0977813 L24.1935312,8.87196875 L16.4547812,8.87196875 L16.4547812,9.994875 C16.4547812,10.7493125 15.8410312,11.3630313 15.086625,11.3630313 L12.90325,11.3630313 L12.90325,12.0977813 L24.1935312,12.0977813 Z" id="Path" fill="#164FCE"></path>
                    <rect id="Rectangle" fill="#ED1F34" x="0.80646875" y="12.90425" width="23.3870938" height="3.2258125"></rect>
                    <path d="M16.4235312,8.09678125 L16.4235312,7.1331875 C16.4235312,6.92809375 16.2566875,6.76121875 16.0515937,6.76121875 L14.4405937,6.76121875 L14.431375,6.74678125 C14.1215625,6.2615 13.6812187,5.8988125 13.1914375,5.7255625 L13.152,5.711625 L13.4426562,5.31028125 L16.0515625,5.31028125 C16.2566562,5.31028125 16.4235,5.14340625 16.4235,4.9383125 C16.4235,4.73321875 16.2566562,4.56634375 16.0515625,4.56634375 L13.2526875,4.56634375 C13.1337812,4.56634375 13.0211562,4.62384375 12.951375,4.7201875 L12.5,5.3435 L12.0485938,4.72015625 C11.978875,4.6238125 11.86625,4.5663125 11.7473125,4.5663125 L8.9484375,4.5663125 C8.74334375,4.5663125 8.57646875,4.7331875 8.57646875,4.93828125 C8.57646875,5.143375 8.74334375,5.31025 8.9484375,5.31025 L11.5573125,5.31025 L11.8479687,5.71159375 L11.8085625,5.72553125 C11.3187187,5.8988125 10.878375,6.2615 10.568625,6.74675 L10.5594062,6.7611875 L8.9484375,6.7611875 C8.74334375,6.7611875 8.57646875,6.9280625 8.57646875,7.13315625 L8.57646875,8.09675 L0.77521875,8.09678125 L0.77521875,0.77621875 L2.016125,0.77621875 C2.22121875,0.77621875 2.38809375,0.60934375 2.38809375,0.40425 L2.38809375,0.373 L3.25703125,0.373 L3.25703125,0.40425 C3.25703125,0.60934375 3.42390625,0.77621875 3.629,0.77621875 L24.22475,0.77621875 L24.22475,8.09678125 L16.4235312,8.09678125 Z" id="Path" fill="#FFE000"></path>
                    <path d="M2.016125,0.80746875 L0.80646875,0.80746875 L0.80646875,8.06553125 L8.54521875,8.06553125 L8.54521875,7.1331875 C8.54521875,6.9104375 8.72575,6.72996875 8.9484375,6.72996875 L10.5422812,6.72996875 C10.8533125,6.24271875 11.291625,5.87528125 11.7981562,5.69609375 L11.541375,5.34153125 L8.9484375,5.34153125 C8.72575,5.34153125 8.54521875,5.1610625 8.54521875,4.9383125 C8.54521875,4.71559375 8.72575,4.53509375 8.9484375,4.53509375 L11.7473125,4.53509375 C11.876625,4.53509375 11.9980625,4.59709375 12.0739062,4.701875 L12.5,5.29021875 L12.9260937,4.7018125 C13.0019375,4.5970625 13.123375,4.53503125 13.2526875,4.53503125 L16.0515625,4.53503125 C16.2742187,4.53503125 16.45475,4.71553125 16.45475,4.93825 C16.45475,5.161 16.2742187,5.34146875 16.0515625,5.34146875 L13.4585937,5.34146875 L13.2018125,5.69603125 C13.7083437,5.87521875 14.146625,6.24271875 14.4576875,6.72990625 L16.0515625,6.72990625 C16.2742187,6.72990625 16.45475,6.910375 16.45475,7.133125 L16.45475,8.06546875 L24.1935312,8.06553125 L24.1935312,0.80746875 L3.62903125,0.80746875 C3.40634375,0.80746875 3.2258125,0.627 3.2258125,0.40425 L2.41934375,0.40425 C2.41934375,0.62696875 2.2388125,0.80746875 2.016125,0.80746875 Z" id="Path" fill="#FFE000"></path>
                    <path d="M24.5967812,0.001 L3.62903125,0.001 C3.40634375,0.001 3.2258125,0.18146875 3.2258125,0.40421875 C3.2258125,0.62696875 3.40634375,0.8074375 3.62903125,0.8074375 L24.1935312,0.8074375 L24.1935312,8.0655 L16.4547812,8.0655 L16.4547812,7.13315625 C16.4547812,6.91040625 16.27425,6.7299375 16.0515937,6.7299375 L14.4577187,6.7299375 C14.1466875,6.2426875 13.708375,5.87525 13.2018437,5.6960625 L13.458625,5.3415 L16.0515937,5.3415 C16.27425,5.3415 16.4547812,5.16103125 16.4547812,4.93828125 C16.4547812,4.7155625 16.27425,4.5350625 16.0515937,4.5350625 L13.2527187,4.5350625 C13.1234062,4.5350625 13.0019687,4.5970625 12.926125,4.70184375 L12.5,5.29021875 L12.0739062,4.7018125 C11.9980625,4.5970625 11.876625,4.53503125 11.7473125,4.53503125 L8.9484375,4.53503125 C8.72575,4.53503125 8.54521875,4.71553125 8.54521875,4.93825 C8.54521875,5.161 8.72575,5.34146875 8.9484375,5.34146875 L11.5414062,5.34146875 L11.7981875,5.69603125 C11.291625,5.87521875 10.8533437,6.24271875 10.5423125,6.72990625 L8.9484375,6.72990625 C8.72575,6.72990625 8.54521875,6.910375 8.54521875,7.133125 L8.54521875,8.06546875 L0.80646875,8.06546875 L0.80646875,0.80746875 L2.016125,0.80746875 C2.2388125,0.80746875 2.41934375,0.627 2.41934375,0.40425 C2.41934375,0.1815 2.2388125,0.00103125 2.016125,0.00103125 L0.40321875,0.00103125 C0.18053125,0.001 0,0.1815 0,0.40425 L0,16.5332813 C0,16.7560313 0.18053125,16.9365 0.40321875,16.9365 L24.59675,16.9365 C24.8194375,16.9365 24.9999687,16.7560313 24.9999687,16.5332813 L24.9999687,0.40425 C25,0.1815 24.8194687,0.001 24.5967812,0.001 Z M12.5,6.3809375 C13.406625,6.3809375 14.1441875,7.3175625 14.1441875,8.46875 C14.1441875,9.6199375 13.406625,10.5565625 12.5,10.5565625 C11.593375,10.5565625 10.8558125,9.6199375 10.8558125,8.46875 C10.8558125,7.3175625 11.593375,6.3809375 12.5,6.3809375 Z M15.6483437,9.994875 C15.6483437,10.3045938 15.3963437,10.556625 15.0865937,10.556625 L14.1945,10.556625 C14.6599375,10.0294688 14.950625,9.28871875 14.950625,8.46875 C14.950625,8.1425625 14.904,7.8291875 14.819375,7.536375 L15.64825,7.536375 L15.64825,9.994875 L15.6483437,9.994875 Z M15.0865937,11.3630625 C15.8410312,11.3630625 16.45475,10.7492812 16.45475,9.994875 L16.45475,8.87196875 L24.1935312,8.87196875 L24.1935312,12.0977813 L12.9032187,12.0977813 L12.9032187,11.3630313 L15.0865937,11.3630625 Z M10.0493437,8.46875 C10.0493437,9.288625 10.34,10.0294375 10.8054688,10.556625 L9.913375,10.556625 C9.60365625,10.556625 9.351625,10.3045938 9.351625,9.994875 L9.351625,7.536375 L10.1805,7.536375 C10.0959687,7.8291875 10.0493437,8.1425625 10.0493437,8.46875 Z M9.91340625,11.3630625 L12.0967813,11.3630625 L12.0967813,12.0977813 L0.80646875,12.0977813 L0.80646875,8.87196875 L8.54521875,8.87196875 L8.54521875,9.994875 C8.54521875,10.7493125 9.15896875,11.3630625 9.91340625,11.3630625 Z M0.80646875,16.1300625 L0.80646875,12.90425 L24.1935625,12.90425 L24.1935625,16.1300625 L0.80646875,16.1300625 Z" id="Shape" fill="#1D0436" fill-rule="nonzero"></path>
                    <path d="M9.35165625,9.994875 C9.35165625,10.3045938 9.60365625,10.556625 9.91340625,10.556625 L10.8055,10.556625 C10.3400625,10.0294688 10.049375,9.28871875 10.049375,8.46875 C10.049375,8.1425625 10.096,7.8291875 10.180625,7.536375 L9.35175,7.536375 L9.35175,9.994875 L9.35165625,9.994875 Z" id="Path" fill="#FFE000"></path>
                    <path d="M14.9506562,8.46875 C14.9506562,9.288625 14.66,10.0294375 14.1945313,10.556625 L15.086625,10.556625 C15.3963437,10.556625 15.648375,10.3045938 15.648375,9.994875 L15.648375,7.536375 L14.8195,7.536375 C14.9040312,7.8291875 14.9506562,8.1425625 14.9506562,8.46875 Z" id="Path" fill="#FFE000"></path>
                    <path d="M12.5,10.5878125 C11.5761562,10.5878125 10.8245625,9.63721875 10.8245625,8.46875 C10.8245625,7.3003125 11.5761562,6.3496875 12.5,6.3496875 C13.4238437,6.3496875 14.1754375,7.30028125 14.1754375,8.46875 C14.1754375,9.63721875 13.4238437,10.5878125 12.5,10.5878125 Z" id="Path" fill="#3DB4EA"></path>
                    <path d="M10.8558125,8.46875 C10.8558125,9.6199375 11.5934063,10.5565625 12.5,10.5565625 C13.4065938,10.5565625 14.1441875,9.6199375 14.1441875,8.46875 C14.1441875,7.3175625 13.406625,6.3809375 12.5,6.3809375 C11.593375,6.3809375 10.8558125,7.3175625 10.8558125,8.46875 Z" id="Path" fill="#3DB4EA"></path>
                </g>
            </g>
        </g>
    </g>
</svg>