<?xml version="1.0" encoding="utf-8"?>
<!-- Generator: Adobe Illustrator 24.0.2, SVG Export Plug-In . SVG Version: 6.00 Build 0)  -->
<svg version="1.1" id="Capa_1" xmlns="http://www.w3.org/2000/svg" xmlns:xlink="http://www.w3.org/1999/xlink" x="0px" y="0px"
	 viewBox="0 0 141 146" style="enable-background:new 0 0 141 146;" xml:space="preserve">
<style type="text/css">
	.st0{fill:#F0F3F4;}
</style>
<path class="st0" d="M13.3,126.4v-89c0-2.4,0.9-4.5,2.6-6.3s3.8-2.6,6.2-2.6h8.8v-6.7c0-3.1,1.1-5.7,3.2-7.9
	c2.2-2.2,4.7-3.3,7.8-3.3h4.4c3,0,5.6,1.1,7.8,3.3s3.2,4.8,3.2,7.9v6.7h26.4v-6.7c0-3.1,1.1-5.7,3.2-7.9c2.2-2.2,4.7-3.3,7.8-3.3
	h4.4c3,0,5.6,1.1,7.8,3.3c2.2,2.2,3.2,4.8,3.2,7.9v6.7h8.8c2.4,0,4.4,0.9,6.2,2.6c1.7,1.8,2.6,3.8,2.6,6.3v88.9
	c0,2.4-0.9,4.5-2.6,6.3s-3.8,2.6-6.2,2.6H22.1c-2.4,0-4.4-0.9-6.2-2.6C14.2,130.8,13.3,128.8,13.3,126.4z M22.1,126.4h96.8V55.2
	H22.1V126.4z M39.7,41.9c0,0.6,0.2,1.2,0.6,1.6c0.4,0.4,0.9,0.6,1.6,0.6h4.4c0.6,0,1.2-0.2,1.6-0.6c0.4-0.4,0.6-0.9,0.6-1.6v-20
	c0-0.6-0.2-1.2-0.6-1.6c-0.4-0.4-0.9-0.6-1.6-0.6h-4.4c-0.6,0-1.2,0.2-1.6,0.6c-0.4,0.4-0.6,1-0.6,1.6V41.9z M92.5,41.9
	c0,0.6,0.2,1.2,0.6,1.6c0.4,0.4,0.9,0.6,1.6,0.6h4.4c0.6,0,1.2-0.2,1.6-0.6c0.4-0.4,0.6-0.9,0.6-1.6v-20c0-0.6-0.2-1.2-0.6-1.6
	s-0.9-0.6-1.6-0.6h-4.4c-0.6,0-1.2,0.2-1.6,0.6s-0.6,1-0.6,1.6V41.9z"/>
</svg>
