<?xml version="1.0" encoding="UTF-8"?>
<svg width="17px" height="17px" viewBox="0 0 17 17" version="1.1" xmlns="http://www.w3.org/2000/svg" xmlns:xlink="http://www.w3.org/1999/xlink">
    <!-- Generator: sketchtool 52.1 (67048) - http://www.bohemiancoding.com/sketch -->
    <title>A1518371-9C1E-4581-AD05-AC11366F2997</title>
    <desc>Created with sketchtool.</desc>
    <g id="*CRM" stroke="none" stroke-width="1" fill="none" fill-rule="evenodd">
        <g id="Demanda-Inducida-001" transform="translate(-661.000000, -332.000000)" fill="#FB9A0E">
            <g id="Group-12" transform="translate(638.000000, 330.000000)">
                <g id="Carcinoma" transform="translate(23.000000, 2.000000)">
                    <path d="M8.4834308,10.0077973 C9.30569396,10.0077973 9.97465887,9.33883236 9.97465887,8.5165692 C9.97465887,7.69430604 9.30569396,7.02534113 8.4834308,7.02534113 C7.66116764,7.02534113 6.99220273,7.69430604 6.99220273,8.5165692 C6.99220273,9.33883236 7.66116764,10.0077973 8.4834308,10.0077973 Z M8.4834308,8.01949318 C8.75751852,8.01949318 8.98050682,8.24248148 8.98050682,8.5165692 C8.98050682,8.79065692 8.75751852,9.01364522 8.4834308,9.01364522 C8.20934308,9.01364522 7.98635478,8.79065692 7.98635478,8.5165692 C7.98635478,8.24248148 8.20934308,8.01949318 8.4834308,8.01949318 Z" id="Shape" fill-rule="nonzero"></path>
                    <circle id="Oval" cx="5.50097466" cy="8.5165692" r="1"></circle>
                    <circle id="Oval" cx="8.4834308" cy="5.53411306" r="1"></circle>
                    <circle id="Oval" cx="11.4658869" cy="8.5165692" r="1"></circle>
                    <circle id="Oval" cx="8.4834308" cy="11.4990253" r="1"></circle>
                    <path d="M0.145610136,9.86222027 C0.339701754,10.0563119 0.654450292,10.056345 0.848575049,9.86222027 L1.69711696,9.01364522 L3.0667271,9.01364522 C3.19381287,9.6281306 3.55200585,10.1762066 4.06651267,10.5408947 C4.02876803,10.6923704 4.00974659,10.8464308 4.00974659,11.0019493 C4.00974659,11.3701501 4.1107193,11.7150877 4.28588889,12.0111462 L3.30678168,12.9902534 L2.10674074,12.9902534 C1.83222222,12.9902534 1.60966472,13.2128109 1.60966472,13.4873294 C1.60966472,13.761848 1.83222222,13.9844055 2.10674074,13.9844055 L3.01559454,13.9844055 L3.01559454,14.8932924 C3.01559454,15.1678109 3.23815205,15.3903684 3.51267057,15.3903684 C3.78718908,15.3903684 4.00974659,15.1678109 4.00974659,14.8932924 L4.00974659,13.6932515 L4.9888538,12.7141111 C5.28491228,12.8892807 5.6298499,12.9902534 5.99805068,12.9902534 C6.1535692,12.9902534 6.30759649,12.971232 6.45910526,12.9334873 C6.82379337,13.4479942 7.3718694,13.8062203 7.98635478,13.9332729 L7.98635478,15.302883 L7.13781287,16.151425 C6.94368811,16.3455497 6.94368811,16.6602651 7.13781287,16.8543899 C7.33190448,17.0485146 7.64665302,17.0485146 7.84077778,16.8543899 L8.4834308,16.2117368 L9.12611696,16.854423 C9.32020858,17.0485146 9.63495712,17.0485478 9.82908187,16.854423 C10.0232066,16.6602982 10.0232066,16.3455828 9.82908187,16.1514581 L8.98050682,15.302883 L8.98050682,13.9332729 C9.5949922,13.8061871 10.1430682,13.4479942 10.5077563,12.9334873 C10.6592651,12.971232 10.8132924,12.9902534 10.9688109,12.9902534 C11.3370117,12.9902534 11.6819493,12.8892807 11.9780078,12.7141111 L12.957115,13.6932183 L12.957115,14.8932593 C12.957115,15.1677778 13.1796725,15.3903353 13.454191,15.3903353 C13.7287096,15.3903353 13.9512671,15.1677778 13.9512671,14.8932593 L13.9512671,13.9844055 L14.8601209,13.9844055 C15.1346394,13.9844055 15.3571969,13.761848 15.3571969,13.4873294 C15.3571969,13.2128109 15.1346394,12.9902534 14.8601209,12.9902534 L13.6600468,12.9902534 L12.6809396,12.0111462 C12.8561423,11.7150877 12.957115,11.3701501 12.957115,11.0019493 C12.957115,10.8464308 12.9380936,10.6923704 12.9003489,10.5408947 C13.4148558,10.1762066 13.7730487,9.6281306 13.9001345,9.01364522 L15.2697446,9.01364522 L16.1183197,9.86222027 C16.3124113,10.0563119 16.6271598,10.056345 16.8212846,9.86222027 C17.0154094,9.66809552 17.0154094,9.35338012 16.8212846,9.15925536 L16.1785984,8.5165692 L16.8212515,7.87391618 C17.0153762,7.67979142 17.0153762,7.36507602 16.8212515,7.17095127 C16.6271598,6.97682651 16.3124113,6.97682651 16.1182865,7.17095127 L15.2697446,8.01949318 L13.9001345,8.01949318 C13.7730487,7.4050078 13.4148558,6.85693177 12.9003489,6.49224366 C12.9380936,6.34073489 12.957115,6.1867076 12.957115,6.03118908 C12.957115,5.6629883 12.8561423,5.31805068 12.6809727,5.0219922 L13.6600799,4.04288499 L14.860154,4.04288499 C15.1346725,4.04288499 15.35723,3.82032749 15.35723,3.54580897 C15.35723,3.27129045 15.1346725,3.04873294 14.860154,3.04873294 L13.9512671,3.04873294 L13.9512671,2.13987914 C13.9512671,1.86536062 13.7287096,1.64280312 13.454191,1.64280312 C13.1796725,1.64280312 12.957115,1.86536062 12.957115,2.13987914 L12.957115,3.33992008 L11.9780078,4.31902729 C11.6819493,4.1438577 11.3370117,4.04288499 10.9688109,4.04288499 C10.8132924,4.04288499 10.6592651,4.06190643 10.5077563,4.09965107 C10.1430682,3.58514425 9.5949922,3.22695127 8.98050682,3.0998655 L8.98050682,1.73025536 L9.82904873,0.88171345 C10.0231735,0.687588694 10.0231735,0.372873294 9.82904873,0.178748538 C9.63495712,-0.0153762183 9.32020858,-0.0153762183 9.12608382,0.178748538 L8.4834308,0.821401559 L7.84077778,0.1787154 C7.64668616,-0.0154093567 7.33193762,-0.0154093567 7.13781287,0.1787154 C6.94368811,0.372840156 6.94368811,0.687555556 7.13781287,0.881680312 L7.98635478,1.73025536 L7.98635478,3.0998655 C7.3718694,3.22695127 6.82379337,3.58514425 6.45910526,4.09965107 C6.30759649,4.06190643 6.1535692,4.04288499 5.99805068,4.04288499 C5.6298499,4.04288499 5.28491228,4.1438577 4.9888538,4.31902729 L4.00974659,3.33992008 L4.00974659,2.13987914 C4.00974659,1.86536062 3.78718908,1.64280312 3.51267057,1.64280312 C3.23815205,1.64280312 3.01559454,1.86536062 3.01559454,2.13987914 L3.01559454,3.04873294 L2.10674074,3.04873294 C1.83222222,3.04873294 1.60966472,3.27129045 1.60966472,3.54580897 C1.60966472,3.82032749 1.83222222,4.04288499 2.10674074,4.04288499 L3.30681481,4.04288499 L4.28592203,5.0219922 C4.1107193,5.31805068 4.00974659,5.6629883 4.00974659,6.03118908 C4.00974659,6.1867076 4.02876803,6.34076803 4.06651267,6.49224366 C3.55200585,6.85693177 3.19381287,7.4050078 3.0667271,8.01949318 L1.69711696,8.01949318 L0.84854191,7.17091813 C0.654450292,6.97679337 0.339701754,6.97679337 0.145576998,7.17091813 C-0.0485477583,7.36504288 -0.0485477583,7.67975828 0.145576998,7.87388304 L0.788263158,8.5165692 L0.145610136,9.15922222 C-0.0485146199,9.35334698 -0.0485146199,9.66809552 0.145610136,9.86222027 Z M4.88453411,7.16326316 C5.14231774,7.04548928 5.25011696,6.73557895 5.11961793,6.48296491 C5.04283626,6.33437232 5.00389864,6.18236647 5.00389864,6.03118908 C5.00389864,5.48583041 5.44831774,5.03703704 5.99805068,5.03703704 C6.14922807,5.03703704 6.30120078,5.07597466 6.44985965,5.15275634 C6.70161209,5.28282456 7.01198635,5.1762846 7.13012476,4.91767251 C7.37292982,4.38626511 7.90410526,4.04288499 8.4834308,4.04288499 C9.06275634,4.04288499 9.59393177,4.38626511 9.83673684,4.91770565 C9.95451072,5.17548928 10.2643879,5.28325536 10.5170019,5.15278947 C10.6656608,5.07597466 10.8176667,5.03703704 10.9688109,5.03703704 C11.520499,5.03703704 11.962963,5.48828265 11.962963,6.03118908 C11.962963,6.18236647 11.9240253,6.33437232 11.8472437,6.48299805 C11.7848109,6.60382066 11.7746374,6.74495712 11.8190429,6.87350097 C11.8634483,7.00204483 11.9585887,7.10676218 12.0822943,7.1632963 C12.6137349,7.40606823 12.957115,7.93724366 12.957115,8.5165692 C12.957115,9.09589474 12.6137349,9.62707018 12.0823275,9.86987524 C11.9586218,9.92637622 11.8634815,10.0311267 11.819076,10.1596706 C11.7746374,10.2882144 11.7848441,10.4293509 11.8472768,10.5501735 C11.9240253,10.6987661 11.962963,10.8507719 11.962963,11.0019493 C11.962963,11.5474405 11.5184776,11.9961014 10.9688109,11.9961014 C10.8176335,11.9961014 10.6656608,11.9571637 10.5170351,11.8803821 C10.2652164,11.7503138 9.95490838,11.8568207 9.83673684,12.1154659 C9.59393177,12.6468733 9.06275634,12.9902534 8.4834308,12.9902534 C7.90410526,12.9902534 7.37292982,12.6468733 7.13012476,12.1154327 C7.01188694,11.8566218 6.70141326,11.7504133 6.44982651,11.8803489 C6.30120078,11.9571637 6.14922807,11.9961014 5.99805068,11.9961014 C5.45265887,11.9961014 5.00389864,11.5516823 5.00389864,11.0019493 C5.00389864,10.8507719 5.04283626,10.6987661 5.11961793,10.5501404 C5.2497193,10.2983216 5.14311306,9.98798051 4.88453411,9.86984211 C4.35312671,9.62707018 4.00974659,9.09589474 4.00974659,8.5165692 C4.00974659,7.93724366 4.35312671,7.40606823 4.88453411,7.16326316 Z" id="Shape" fill-rule="nonzero"></path>
                </g>
            </g>
        </g>
    </g>
</svg>