<?xml version="1.0" encoding="UTF-8"?>
<svg width="21px" height="21px" viewBox="0 0 21 21" version="1.1" xmlns="http://www.w3.org/2000/svg" xmlns:xlink="http://www.w3.org/1999/xlink">
    <!-- Generator: sketchtool 52.1 (67048) - http://www.bohemiancoding.com/sketch -->
    <title>84201C6C-6BBA-4765-9947-26D8BACF2F7D</title>
    <desc>Created with sketchtool.</desc>
    <g id="Agenda-10---Prop-3" stroke="none" stroke-width="1" fill="none" fill-rule="evenodd">
        <g id="agenda-0058" transform="translate(-753.000000, -550.000000)">
            <g id="Group-2" transform="translate(458.000000, 414.000000)">
                <g id="Centros-icon" transform="translate(294.280264, 135.278296)">
                    <g id="Icon" transform="translate(1.390132, 1.391312)" fill="#3962E6" fill-rule="nonzero">
                        <path d="M10.1943018,13.9131158 L9.26754708,13.9131158 C8.75571459,13.9131158 8.34079237,14.3283901 8.34079237,14.8406569 C8.34079237,15.3529237 8.75571459,15.768198 9.26754708,15.768198 L10.1943018,15.768198 C10.7061343,15.768198 11.1210565,15.3529237 11.1210565,14.8406569 C11.1210565,14.3283901 10.7061343,13.9131158 10.1943018,13.9131158 Z M10.1943018,10.2029516 L9.26754708,10.2029516 C8.75571459,10.2029516 8.34079237,10.6182259 8.34079237,11.1304927 C8.34079237,11.6427595 8.75571459,12.0580337 9.26754708,12.0580337 L10.1943018,12.0580337 C10.7061343,12.0580337 11.1210565,11.6427595 11.1210565,11.1304927 C11.1210565,10.6182259 10.7061343,10.2029516 10.1943018,10.2029516 Z M5.56052825,13.9131158 L4.63377354,13.9131158 C4.12194105,13.9131158 3.70701883,14.3283901 3.70701883,14.8406569 C3.70701883,15.3529237 4.12194105,15.768198 4.63377354,15.768198 L5.56052825,15.768198 C6.07236074,15.768198 6.48728295,15.3529237 6.48728295,14.8406569 C6.48728295,14.3283901 6.07236074,13.9131158 5.56052825,13.9131158 Z M5.56052825,10.2029516 L4.63377354,10.2029516 C4.12194105,10.2029516 3.70701883,10.6182259 3.70701883,11.1304927 C3.70701883,11.6427595 4.12194105,12.0580337 4.63377354,12.0580337 L5.56052825,12.0580337 C6.07236074,12.0580337 6.48728295,11.6427595 6.48728295,11.1304927 C6.48728295,10.6182259 6.07236074,10.2029516 5.56052825,10.2029516 Z M18.5350942,4.63770528 L15.75483,4.63770528 L15.75483,0.927541056 C15.75483,0.415274276 15.3399078,0 14.8280753,0 L4.63377354,0 C4.12194105,0 3.70701883,0.415274276 3.70701883,0.927541056 L3.70701883,4.63770528 L0.926754708,4.63770528 C0.414922216,4.63770528 0,5.05297956 0,5.56524634 L0,18.5508211 C0,19.0630879 0.414922216,19.4783622 0.926754708,19.4783622 L18.5350942,19.4783622 C19.0469266,19.4783622 19.4618489,19.0630879 19.4618489,18.5508211 L19.4618489,5.56524634 C19.4618489,5.05297956 19.0469266,4.63770528 18.5350942,4.63770528 Z M17.6083394,17.6232801 L1.85350942,17.6232801 L1.85350942,6.49278739 L4.63377354,6.49278739 C5.14560603,6.49278739 5.56052825,6.07751312 5.56052825,5.56524634 L5.56052825,1.85508211 L13.9013206,1.85508211 L13.9013206,5.56524634 C13.9013206,6.07751312 14.3162428,6.49278739 14.8280753,6.49278739 L17.6083394,6.49278739 L17.6083394,17.6232801 Z M13.9013206,10.2029516 C13.3894881,10.2029516 12.9745659,10.6182259 12.9745659,11.1304927 C12.9745659,11.6427595 13.3894881,12.0580337 13.9013206,12.0580337 L14.8280753,12.0580337 C15.3399078,12.0580337 15.75483,11.6427595 15.75483,11.1304927 C15.75483,10.6182259 15.3399078,10.2029516 14.8280753,10.2029516 L13.9013206,10.2029516 Z M11.1210565,5.10147581 L10.6576791,5.10147581 L10.6576791,4.63770528 C10.6576791,4.1254385 10.2427569,3.71016423 9.73092443,3.71016423 C9.21909194,3.71016423 8.80416972,4.1254385 8.80416972,4.63770528 L8.80416972,5.10147581 L8.34079237,5.10147581 C7.82895988,5.10147581 7.41403766,5.51675009 7.41403766,6.02901687 C7.41403766,6.54128365 7.82895988,6.95655792 8.34079237,6.95655792 L8.80416972,6.95655792 L8.80416972,7.42032845 C8.80416972,7.93259523 9.21909194,8.34786951 9.73092443,8.34786951 C10.2427569,8.34786951 10.6576791,7.93259523 10.6576791,7.42032845 L10.6576791,6.95655792 L11.1210565,6.95655792 C11.632889,6.95655792 12.0478112,6.54128365 12.0478112,6.02901687 C12.0478112,5.51675009 11.632889,5.10147581 11.1210565,5.10147581 Z M14.8280753,13.9131158 L13.9013206,13.9131158 C13.3894881,13.9131158 12.9745659,14.3283901 12.9745659,14.8406569 C12.9745659,15.3529237 13.3894881,15.768198 13.9013206,15.768198 L14.8280753,15.768198 C15.3399078,15.768198 15.75483,15.3529237 15.75483,14.8406569 C15.75483,14.3283901 15.3399078,13.9131158 14.8280753,13.9131158 Z" id="Icon-Shape"></path>
                    </g>
                    <rect id="ViewBox" x="0" y="0" width="22.242113" height="22.2609854"></rect>
                </g>
            </g>
        </g>
    </g>
</svg>