<?xml version="1.0" encoding="UTF-8"?>
<svg width="28px" height="28px" viewBox="0 0 28 28" version="1.1" xmlns="http://www.w3.org/2000/svg" xmlns:xlink="http://www.w3.org/1999/xlink">
    <!-- Generator: sketchtool 52.1 (67048) - http://www.bohemiancoding.com/sketch -->
    <title>4FCA9792-4B2A-48CA-BA31-B15DE60C31EF</title>
    <desc>Created with sketchtool.</desc>
    <g id="Agenda-1" stroke="none" stroke-width="1" fill="none" fill-rule="evenodd">
        <g id="Agenda-10" transform="translate(-1611.000000, -388.000000)">
            <g id="Centros-icon" transform="translate(1609.000000, 386.000000)">
                <g id="Icon" transform="translate(2.000000, 2.000000)" fill="#CED8E1" fill-rule="nonzero">
                    <path d="M14.6666667,20 L13.3333333,20 C12.5969537,20 12,20.5969537 12,21.3333333 C12,22.069713 12.5969537,22.6666667 13.3333333,22.6666667 L14.6666667,22.6666667 C15.4030463,22.6666667 16,22.069713 16,21.3333333 C16,20.5969537 15.4030463,20 14.6666667,20 Z M14.6666667,14.6666667 L13.3333333,14.6666667 C12.5969537,14.6666667 12,15.2636203 12,16 C12,16.7363797 12.5969537,17.3333333 13.3333333,17.3333333 L14.6666667,17.3333333 C15.4030463,17.3333333 16,16.7363797 16,16 C16,15.2636203 15.4030463,14.6666667 14.6666667,14.6666667 Z M8,20 L6.66666667,20 C5.930287,20 5.33333333,20.5969537 5.33333333,21.3333333 C5.33333333,22.069713 5.930287,22.6666667 6.66666667,22.6666667 L8,22.6666667 C8.73637967,22.6666667 9.33333333,22.069713 9.33333333,21.3333333 C9.33333333,20.5969537 8.73637967,20 8,20 Z M8,14.6666667 L6.66666667,14.6666667 C5.930287,14.6666667 5.33333333,15.2636203 5.33333333,16 C5.33333333,16.7363797 5.930287,17.3333333 6.66666667,17.3333333 L8,17.3333333 C8.73637967,17.3333333 9.33333333,16.7363797 9.33333333,16 C9.33333333,15.2636203 8.73637967,14.6666667 8,14.6666667 Z M26.6666667,6.66666667 L22.6666667,6.66666667 L22.6666667,1.33333333 C22.6666667,0.596953667 22.069713,0 21.3333333,0 L6.66666667,0 C5.930287,0 5.33333333,0.596953667 5.33333333,1.33333333 L5.33333333,6.66666667 L1.33333333,6.66666667 C0.596953667,6.66666667 0,7.26362033 0,8 L0,26.6666667 C0,27.4030463 0.596953667,28 1.33333333,28 L26.6666667,28 C27.4030463,28 28,27.4030463 28,26.6666667 L28,8 C28,7.26362033 27.4030463,6.66666667 26.6666667,6.66666667 Z M25.3333333,25.3333333 L2.66666667,25.3333333 L2.66666667,9.33333333 L6.66666667,9.33333333 C7.40304633,9.33333333 8,8.73637967 8,8 L8,2.66666667 L20,2.66666667 L20,8 C20,8.73637967 20.5969537,9.33333333 21.3333333,9.33333333 L25.3333333,9.33333333 L25.3333333,25.3333333 Z M20,14.6666667 C19.2636203,14.6666667 18.6666667,15.2636203 18.6666667,16 C18.6666667,16.7363797 19.2636203,17.3333333 20,17.3333333 L21.3333333,17.3333333 C22.069713,17.3333333 22.6666667,16.7363797 22.6666667,16 C22.6666667,15.2636203 22.069713,14.6666667 21.3333333,14.6666667 L20,14.6666667 Z M16,7.33333333 L15.3333333,7.33333333 L15.3333333,6.66666667 C15.3333333,5.930287 14.7363797,5.33333333 14,5.33333333 C13.2636203,5.33333333 12.6666667,5.930287 12.6666667,6.66666667 L12.6666667,7.33333333 L12,7.33333333 C11.2636203,7.33333333 10.6666667,7.930287 10.6666667,8.66666667 C10.6666667,9.40304633 11.2636203,10 12,10 L12.6666667,10 L12.6666667,10.6666667 C12.6666667,11.4030463 13.2636203,12 14,12 C14.7363797,12 15.3333333,11.4030463 15.3333333,10.6666667 L15.3333333,10 L16,10 C16.7363797,10 17.3333333,9.40304633 17.3333333,8.66666667 C17.3333333,7.930287 16.7363797,7.33333333 16,7.33333333 Z M21.3333333,20 L20,20 C19.2636203,20 18.6666667,20.5969537 18.6666667,21.3333333 C18.6666667,22.069713 19.2636203,22.6666667 20,22.6666667 L21.3333333,22.6666667 C22.069713,22.6666667 22.6666667,22.069713 22.6666667,21.3333333 C22.6666667,20.5969537 22.069713,20 21.3333333,20 Z" id="Icon-Shape"></path>
                </g>
                <rect id="ViewBox" x="0" y="0" width="32" height="32"></rect>
            </g>
        </g>
    </g>
</svg>