<?xml version="1.0" encoding="UTF-8"?>
<svg width="29px" height="31px" viewBox="0 0 29 31" version="1.1" xmlns="http://www.w3.org/2000/svg" xmlns:xlink="http://www.w3.org/1999/xlink">
    <!-- Generator: sketchtool 52.1 (67048) - http://www.bohemiancoding.com/sketch -->
    <title>A878A262-F532-4E2A-A3A2-9E39F8B0A75D</title>
    <desc>Created with sketchtool.</desc>
    <g id="Agenda-1" stroke="none" stroke-width="1" fill="none" fill-rule="evenodd">
        <g id="Agenda-7" transform="translate(-1424.000000, -386.000000)" fill="#CED8E1" fill-rule="nonzero">
            <g id="Acciones" transform="translate(1315.000000, 385.000000)">
                <g id="Citas-icon" transform="translate(107.000000, 0.000000)">
                    <path d="M16.5,26.125 C17.2593915,26.125 17.875,25.5093915 17.875,24.75 C17.875,23.9906085 17.2593915,23.375 16.5,23.375 C15.7406085,23.375 15.125,23.9906085 15.125,24.75 C15.125,25.5093915 15.7406085,26.125 16.5,26.125 Z M23.375,26.125 C24.1343915,26.125 24.75,25.5093915 24.75,24.75 C24.75,23.9906085 24.1343915,23.375 23.375,23.375 C22.6156085,23.375 22,23.9906085 22,24.75 C22,25.5093915 22.6156085,26.125 23.375,26.125 Z M23.375,20.625 C24.1343915,20.625 24.75,20.0093915 24.75,19.25 C24.75,18.4906085 24.1343915,17.875 23.375,17.875 C22.6156085,17.875 22,18.4906085 22,19.25 C22,20.0093915 22.6156085,20.625 23.375,20.625 Z M16.5,20.625 C17.2593915,20.625 17.875,20.0093915 17.875,19.25 C17.875,18.4906085 17.2593915,17.875 16.5,17.875 C15.7406085,17.875 15.125,18.4906085 15.125,19.25 C15.125,20.0093915 15.7406085,20.625 16.5,20.625 Z M26.125,4.125 L24.75,4.125 L24.75,2.75 C24.75,1.99060847 24.1343915,1.375 23.375,1.375 C22.6156085,1.375 22,1.99060847 22,2.75 L22,4.125 L11,4.125 L11,2.75 C11,1.99060847 10.3843915,1.375 9.625,1.375 C8.86560847,1.375 8.25,1.99060847 8.25,2.75 L8.25,4.125 L6.875,4.125 C4.59682541,4.125 2.75,5.97182541 2.75,8.25 L2.75,27.5 C2.75,29.7781746 4.59682541,31.625 6.875,31.625 L26.125,31.625 C28.4031746,31.625 30.25,29.7781746 30.25,27.5 L30.25,8.25 C30.25,5.97182541 28.4031746,4.125 26.125,4.125 Z M27.5,27.5 C27.5,28.2593915 26.8843915,28.875 26.125,28.875 L6.875,28.875 C6.11560847,28.875 5.5,28.2593915 5.5,27.5 L5.5,15.125 L27.5,15.125 L27.5,27.5 Z M27.5,12.375 L5.5,12.375 L5.5,8.25 C5.5,7.49060847 6.11560847,6.875 6.875,6.875 L8.25,6.875 L8.25,8.25 C8.25,9.00939153 8.86560847,9.625 9.625,9.625 C10.3843915,9.625 11,9.00939153 11,8.25 L11,6.875 L22,6.875 L22,8.25 C22,9.00939153 22.6156085,9.625 23.375,9.625 C24.1343915,9.625 24.75,9.00939153 24.75,8.25 L24.75,6.875 L26.125,6.875 C26.8843915,6.875 27.5,7.49060847 27.5,8.25 L27.5,12.375 Z M9.625,20.625 C10.3843915,20.625 11,20.0093915 11,19.25 C11,18.4906085 10.3843915,17.875 9.625,17.875 C8.86560847,17.875 8.25,18.4906085 8.25,19.25 C8.25,20.0093915 8.86560847,20.625 9.625,20.625 Z M9.625,26.125 C10.3843915,26.125 11,25.5093915 11,24.75 C11,23.9906085 10.3843915,23.375 9.625,23.375 C8.86560847,23.375 8.25,23.9906085 8.25,24.75 C8.25,25.5093915 8.86560847,26.125 9.625,26.125 Z" id="Citas-Icon"></path>
                </g>
            </g>
        </g>
    </g>
</svg>