<?xml version="1.0" encoding="UTF-8"?>
<svg width="20px" height="20px" viewBox="0 0 20 20" version="1.1" xmlns="http://www.w3.org/2000/svg" xmlns:xlink="http://www.w3.org/1999/xlink">
    <!-- Generator: sketchtool 52.1 (67048) - http://www.bohemiancoding.com/sketch -->
    <title>6DABB5F4-BB0A-4A42-BA64-24DCEA4B5B07</title>
    <desc>Created with sketchtool.</desc>
    <g id="Agenda-1" stroke="none" stroke-width="1" fill="none" fill-rule="evenodd">
        <g id="Agenda-10" transform="translate(-1020.000000, -1659.000000)" fill="#3962E6" fill-rule="nonzero">
            <g id="Citas-inasistidas-icon" transform="translate(1020.000000, 1659.000000)">
                <path d="M9.6615276,5.02365825 L12.9856657,5.02365825 L12.9856657,6.01890918 C12.9856657,6.5685711 13.4312547,7.01416012 13.9809167,7.01416012 C14.5305786,7.01416012 14.9761676,6.5685711 14.9761676,6.01890918 L14.9761676,5.02365825 L15.9714185,5.02365825 C16.5210804,5.02365825 16.9666695,5.46924727 16.9666695,6.01890918 L16.9666695,9.00466199 L15.6330332,9.00466199 C15.0833713,9.00466199 14.6377823,9.45025101 14.6377823,9.99991292 C14.6377823,10.5495748 15.0833713,10.9951639 15.6330332,10.9951639 L16.9666695,10.9951639 L16.9666695,12.3288001 C16.9666695,12.878462 17.4122585,13.324051 17.9619204,13.324051 C18.5115823,13.324051 18.9571713,12.878462 18.9571713,12.3288001 L18.9571713,6.01890918 C18.9571713,4.36992344 17.6204043,3.03315638 15.9714185,3.03315638 L14.9761676,3.03315638 L14.9761676,2.03790545 C14.9761676,1.48824353 14.5305786,1.04265451 13.9809167,1.04265451 C13.4312547,1.04265451 12.9856657,1.48824353 12.9856657,2.03790545 L12.9856657,3.03315638 L9.6615276,3.03315638 C9.11186569,3.03315638 8.66627667,3.4787454 8.66627667,4.02840732 C8.66627667,4.57806923 9.11186569,5.02365825 9.6615276,5.02365825 Z M19.6637995,18.2505432 L18.071398,16.6581417 L1.74928268,0.33602635 C1.49682875,0.0835724224 1.12886913,-0.0150220596 0.784010654,0.0773824912 C0.439152176,0.169787042 0.169787042,0.439152176 0.0773824912,0.784010654 C-0.0150220596,1.12886913 0.0835724224,1.49682875 0.33602635,1.74928268 L2.23695563,3.64025945 C1.48792074,4.20202747 1.04577939,5.08262567 1.04265451,6.01890918 L1.04265451,15.9714185 C1.04265451,17.6204043 2.37942158,18.9571713 4.02840732,18.9571713 L15.9714185,18.9571713 C16.4162756,18.954535 16.8549216,18.8525243 17.2552922,18.658596 L18.2505432,19.653847 C18.437418,19.8422606 18.6918001,19.9482405 18.9571713,19.9482405 C19.2225426,19.9482405 19.4769246,19.8422606 19.6637995,19.653847 C20.0496818,19.2656618 20.0496818,18.6387283 19.6637995,18.2505432 Z M3.03315638,6.01890918 C3.03749529,5.60353281 3.29936198,5.23453883 3.690022,5.09332581 L7.60135817,9.00466199 L3.03315638,9.00466199 L3.03315638,6.01890918 Z M4.02840732,16.9666695 C3.4787454,16.9666695 3.03315638,16.5210804 3.03315638,15.9714185 L3.03315638,10.9951639 L9.59186004,10.9951639 L15.5633656,16.9666695 L4.02840732,16.9666695 Z"></path>
            </g>
        </g>
    </g>
</svg>