<?xml version="1.0" encoding="UTF-8"?>
<svg width="21px" height="23px" viewBox="0 0 21 23" version="1.1" xmlns="http://www.w3.org/2000/svg" xmlns:xlink="http://www.w3.org/1999/xlink">
    <!-- Generator: sketchtool 52.1 (67048) - http://www.bohemiancoding.com/sketch -->
    <title>5E81E069-9972-416C-8D85-88B1310B4E00</title>
    <desc>Created with sketchtool.</desc>
    <g id="Parte-1-+" stroke="none" stroke-width="1" fill="none" fill-rule="evenodd">
        <g id="Mod-Plani-01" transform="translate(-1250.000000, -387.000000)" fill="#3962E6">
            <g id="Button/secondary/blue" transform="translate(1235.000000, 374.000000)">
                <g id="clean-icon" transform="translate(15.000000, 13.000000)">
                    <g id="Icon">
                        <path d="M16.8574219,14.2734375 L13.7402344,14.2734375 C13.3098406,14.2734375 12.9609375,13.9245344 12.9609375,13.4941406 L12.9609375,13.4941406 C12.9609375,13.0637468 13.3098406,12.7148438 13.7402344,12.7148438 L16.8574219,12.7148438 C17.2878157,12.7148438 17.6367188,13.0637468 17.6367188,13.4941406 L17.6367188,13.4941406 C17.6367188,13.9245344 17.2878157,14.2734375 16.8574219,14.2734375 Z" id="Icon-Path"></path>
                        <path d="M19.9746094,20.5078125 L16.8574219,20.5078125 C16.4270281,20.5078125 16.078125,20.1589094 16.078125,19.7285156 L16.078125,19.7285156 C16.078125,19.2981218 16.4270281,18.9492188 16.8574219,18.9492188 L19.9746094,18.9492188 C20.4050032,18.9492188 20.7539062,19.2981218 20.7539062,19.7285156 L20.7539062,19.7285156 C20.7539062,20.1589094 20.4050032,20.5078125 19.9746094,20.5078125 Z" id="Icon-Path"></path>
                        <path d="M18.4160156,17.390625 L15.2988281,17.390625 C14.8684343,17.390625 14.5195312,17.0417219 14.5195312,16.6113281 L14.5195312,16.6113281 C14.5195312,16.1809343 14.8684343,15.8320312 15.2988281,15.8320312 L18.4160156,15.8320312 C18.8464094,15.8320312 19.1953125,16.1809343 19.1953125,16.6113281 L19.1953125,16.6113281 C19.1953125,17.0417219 18.8464094,17.390625 18.4160156,17.390625 Z" id="Icon-Path"></path>
                        <path d="M10.6253848,14.2734375 C10.6142143,12.9359602 9.90336818,11.7020331 8.75195508,11.0214316 L14.130413,1.69978862 C14.3453666,1.32724314 14.2178158,0.850988624 13.8454395,0.635742188 L13.8454395,0.635742188 C13.4733675,0.420671671 12.9973944,0.547946516 12.7823239,0.920018508 C12.7822476,0.920150422 12.7821714,0.920282359 12.7820953,0.920414318 L7.26661523,10.4751445 C5.79412471,10.1461948 4.25533929,10.5873152 3.18076172,11.6464277 C0.263074219,14.4604688 0.489070312,21.039293 0.499980469,21.3182813 C0.516720682,21.736455 0.860768786,22.0667412 1.27927734,22.0664063 L12.9617168,22.0664063 C13.2971499,22.0664063 13.5949495,21.8517644 13.7010227,21.5335447 C13.807096,21.2153249 13.6976414,20.8649317 13.4292949,20.6636719 C10.670584,18.5938594 10.6253848,14.3155195 10.6253848,14.2734375 Z M6.67201172,11.933209 C7.96774596,11.9474443 9.02306589,12.9783895 9.06757031,14.2734375 C9.06757031,14.3030508 9.06912891,14.4355312 9.08081836,14.6389277 L4.4829668,12.5940527 C5.09474349,12.0895782 5.88328259,11.8515286 6.67201172,11.933209 Z M9.41513672,20.5078125 C8.79223619,19.8735559 8.39518336,19.0520673 8.28515625,18.1699219 L6.7265625,18.1699219 C6.78237615,18.9993109 7.04144753,19.802218 7.48092187,20.5078125 L5.74854492,20.5078125 C5.42805911,19.4964555 5.23307239,18.449547 5.16796875,17.390625 L3.609375,17.390625 C3.65963022,18.4463775 3.83356302,19.4925899 4.12760742,20.5078125 L2.05078125,20.5078125 C2.07493945,19.0770234 2.27677734,15.9161953 3.45585352,13.8424863 L9.32629687,16.4531309 C9.60834796,17.9176701 10.2096776,19.3020587 11.0875078,20.5078125 L9.41513672,20.5078125 Z" id="Icon-Shape" fill-rule="nonzero"></path>
                    </g>
                </g>
            </g>
        </g>
    </g>
</svg>