<?xml version="1.0" encoding="UTF-8"?>
<svg width="23px" height="23px" viewBox="0 0 23 23" version="1.1" xmlns="http://www.w3.org/2000/svg" xmlns:xlink="http://www.w3.org/1999/xlink">
    <title>D5BBC06E-02B4-4B19-A7D5-DA3FB78FC742</title>
    <g id="Paso-2" stroke="none" stroke-width="1" fill="none" fill-rule="evenodd">
        <g id="Ajustes-001" transform="translate(-481.000000, -537.000000)" fill="#3962E6" fill-rule="nonzero" stroke="#3962E6" stroke-width="0.5">
            <g id="Cobertura-por-carencia" transform="translate(482.000000, 538.000000)">
                <path d="M9.83568516,19.5525 L0.486035156,19.5525 C0.349167656,19.5525 0.220298906,19.4893987 0.135867656,19.38186 C0.0514364062,19.2734325 0.0212189062,19.1338987 0.0541026562,19.0005862 L0.534027656,17.0719987 C0.775767656,16.1130375 1.47699141,15.3576 2.40840141,15.0509812 L5.97939891,13.860945 C6.50909391,13.6396462 6.83970891,12.8415487 6.87348141,11.6648437 C6.46465641,11.2933463 5.58746016,10.3868212 5.58746016,9.45718875 C5.58746016,9.1310175 5.47814391,9.06436125 5.47725516,9.0634725 C5.34216516,9.02703375 5.27106516,8.94349125 5.21862891,8.812845 C5.17419141,8.7008625 4.78758516,7.7090175 4.78758516,7.0389 C4.78758516,7.00335 4.79202891,6.9678 4.80091641,6.93313875 C4.85690766,6.7029525 4.99199766,6.4718775 5.19552141,6.331455 C5.20085391,6.224805 5.20707516,6.10660125 5.21418516,5.97506625 C5.23640391,5.53602375 5.26751016,4.9503375 5.26751016,4.2215625 C5.26751016,2.5542675 7.30630266,2.36810571e-15 9.81791016,2.36810571e-15 C12.0904439,2.36810571e-15 13.1907164,1.2104775 13.3729102,1.9925775 C13.9283789,2.300085 14.4127477,2.80756125 14.4127477,4.2215625 L14.4127477,6.33412125 C14.6331577,6.4860975 14.7691364,6.729615 14.8260164,6.89758875 C14.8411252,6.942915 14.8482352,6.9909075 14.8482352,7.0389 C14.8482352,7.284195 14.6491552,7.50105 14.4038602,7.50105 C14.1807839,7.50105 13.9968127,7.35174 13.9648177,7.14110625 C13.9479314,7.11 13.9266014,7.07889375 13.9123814,7.06822875 C13.6679752,7.06822875 13.5231089,6.8842575 13.5231089,6.6389625 L13.5231089,4.2215625 C13.5231089,3.06174375 13.1507227,2.8742175 12.9285352,2.76312375 C12.7943339,2.69469 12.5108227,2.55249 12.5108227,2.2129875 C12.4948252,1.94547375 11.7464977,0.88875 9.81791016,0.88875 C7.70268516,0.88875 6.15626016,3.0804075 6.15626016,4.2215625 C6.15626016,4.96989 6.12515391,5.570685 6.10026891,6.02128125 C6.08782641,6.27813 6.07627266,6.48520875 6.07627266,6.6389625 C6.07627266,6.86914875 5.90118891,7.0584525 5.67722391,7.08156 C5.69144391,7.4459475 5.87363766,8.01741375 5.99006391,8.336475 C6.22824891,8.5053375 6.47621016,8.8501725 6.47621016,9.4563 C6.47621016,9.957555 7.06100766,10.6712213 7.60492266,11.1227063 C7.70624016,11.2071375 7.76489766,11.3324513 7.76489766,11.464875 C7.76489766,13.1517225 7.24142391,14.29821 6.29046141,14.692815 L2.68835766,15.8952937 C2.04490266,16.107705 1.56231141,16.6285125 1.39611516,17.2888538 L1.05483516,18.66375 L9.83568516,18.66375 C10.0809802,18.66375 10.2800602,18.86283 10.2800602,19.108125 C10.2800602,19.35342 10.0809802,19.5525 9.83568516,19.5525 L9.83568516,19.5525 Z" id="Path"></path>
                <path d="M16.0391602,21.33 C15.9805027,21.33 15.9218452,21.3184462 15.8667427,21.29445 C15.6552202,21.2064637 10.7066602,19.0672425 10.7066602,14.69637 L10.7066602,10.9822837 C10.7066602,10.7920912 10.8284189,10.62234 11.0088352,10.5610162 L15.8969602,8.9106075 C15.9893902,8.87950125 16.0898189,8.87950125 16.1813602,8.9106075 L21.0694852,10.5610162 C21.2499014,10.6214512 21.3716602,10.7912025 21.3716602,10.9822837 L21.3716602,14.69637 C21.3716602,19.0672425 16.4231002,21.2064637 16.2115777,21.2953387 C16.1564752,21.3184462 16.0978177,21.33 16.0391602,21.33 L16.0391602,21.33 Z M11.5954102,11.301345 L11.5954102,14.69637 C11.5954102,18.0602887 15.1992914,19.9915425 16.0391602,20.3968125 C16.8781402,19.9906537 20.4829102,18.05229 20.4829102,14.69637 L20.4829102,11.301345 L16.0391602,9.801135 L11.5954102,11.301345 Z" id="Shape"></path>
                <path d="M15.5947852,16.88625 C15.5867864,16.88625 15.5778989,16.88625 15.5707889,16.8853612 C15.4436977,16.8782512 15.3272714,16.8178162 15.2481727,16.719165 L13.4706727,14.49729 C13.3178077,14.30532 13.3480252,14.0262525 13.5399952,13.8724987 C13.7328539,13.7196337 14.0119214,13.7516287 14.1647864,13.9418212 L15.6312239,15.7762012 L18.3907927,13.0166325 C18.5640989,12.8433262 18.8458327,12.8433262 19.0191389,13.0166325 C19.1924452,13.1899387 19.1924452,13.4716725 19.0191389,13.6449787 L15.9085139,16.7556037 C15.8258602,16.840035 15.7121002,16.88625 15.5947852,16.88625 L15.5947852,16.88625 Z" id="Path"></path>
            </g>
        </g>
    </g>
</svg>