<?xml version="1.0" encoding="UTF-8"?>
<svg width="19px" height="4px" viewBox="0 0 19 4" version="1.1" xmlns="http://www.w3.org/2000/svg" xmlns:xlink="http://www.w3.org/1999/xlink">
    <!-- Generator: sketchtool 52.1 (67048) - http://www.bohemiancoding.com/sketch -->
    <title>23770DF2-4FCF-4947-A86D-B9A69A93C3EC</title>
    <desc>Created with sketchtool.</desc>
    <g id="PASO-2" stroke="none" stroke-width="1" fill="none" fill-rule="evenodd">
        <g id="Desktop-26-(1)" transform="translate(-705.000000, -936.000000)" fill="#8B97A3">
            <g id="Beneficio-01-Copy" transform="translate(696.000000, 920.000000)">
                <g id="Convenio-Manual-Copy-5">
                    <g id="Group" transform="translate(9.000000, 16.000000)">
                        <path d="M1.86853002,3.73706004 C0.836569386,3.73706004 -1.73194792e-13,2.90049066 -1.73194792e-13,1.86853002 C-1.73194792e-13,0.836569386 0.836569386,-2.66453526e-15 1.86853002,-2.66453526e-15 C2.90049066,-2.66453526e-15 3.73706004,0.836569386 3.73706004,1.86853002 C3.73706004,2.90049066 2.90049066,3.73706004 1.86853002,3.73706004 Z M9.5,3.73706004 C8.46803937,3.73706004 7.63146998,2.90049066 7.63146998,1.86853002 C7.63146998,0.836569386 8.46803937,-2.66453526e-15 9.5,-2.66453526e-15 C10.5319606,-2.66453526e-15 11.36853,0.836569386 11.36853,1.86853002 C11.36853,2.90049066 10.5319606,3.73706004 9.5,3.73706004 Z M17.13147,3.73706004 C16.0995093,3.73706004 15.26294,2.90049066 15.26294,1.86853002 C15.26294,0.836569386 16.0995093,-2.66453526e-15 17.13147,-2.66453526e-15 C18.1634306,-2.66453526e-15 19,0.836569386 19,1.86853002 C19,2.90049066 18.1634306,3.73706004 17.13147,3.73706004 Z" id="Combined-Shape"></path>
                    </g>
                </g>
            </g>
        </g>
    </g>
</svg>