<?xml version="1.0" encoding="UTF-8"?>
<svg width="17px" height="17px" viewBox="0 0 17 17" version="1.1" xmlns="http://www.w3.org/2000/svg" xmlns:xlink="http://www.w3.org/1999/xlink">
    <!-- Generator: sketchtool 52.1 (67048) - http://www.bohemiancoding.com/sketch -->
    <title>8814FA4D-0683-4C08-B386-F81DF4B0283F</title>
    <desc>Created with sketchtool.</desc>
    <g id="Agenda-7---CRM" stroke="none" stroke-width="1" fill="none" fill-rule="evenodd">
        <g id="crm-examenes-003" transform="translate(-963.000000, -784.000000)" fill="#2FCC71" fill-rule="nonzero">
            <g id="Group-3" transform="translate(339.000000, 165.000000)">
                <g id="Group-7" transform="translate(62.000000, 221.000000)">
                    <g id="Group-2" transform="translate(27.180543, 51.093750)">
                        <g id="Iconos-Copy-5" transform="translate(249.541628, 347.200000)">
                            <g id="Completo-icon" transform="translate(285.533209, 0.000000)">
                                <g id="Icon">
                                    <path d="M7.99812909,0 C3.58316183,0 0,3.584 0,8 C0,12.416 3.58316183,16 7.99812909,16 C12.4130964,16 15.9962582,12.416 15.9962582,8 C15.9962582,3.584 12.4130964,0 7.99812909,0 Z M7.99812909,14.4 C4.47095416,14.4 1.59962582,11.528 1.59962582,8 C1.59962582,4.472 4.47095416,1.6 7.99812909,1.6 C11.525304,1.6 14.3966324,4.472 14.3966324,8 C14.3966324,11.528 11.525304,14.4 7.99812909,14.4 Z M11.1014032,5.032 L6.39850327,9.736 L4.894855,8.232 C4.58343925,7.9205114 4.07853456,7.9205114 3.7671188,8.232 C3.45570305,8.5434886 3.45570305,9.0485114 3.7671188,9.36 L5.83863424,11.432 C6.15056127,11.744 6.65444341,11.744 6.96637044,11.432 L12.2371375,6.16 C12.386885,6.01052432 12.471038,5.80760758 12.471038,5.596 C12.471038,5.38439242 12.386885,5.18147568 12.2371375,5.032 C11.9252105,4.72 11.4133302,4.72 11.1014032,5.032 Z" id="Icon-Shape"></path>
                                </g>
                            </g>
                        </g>
                    </g>
                </g>
            </g>
        </g>
    </g>
</svg>