<?xml version="1.0" encoding="UTF-8"?>
<svg width="26px" height="26px" viewBox="0 0 26 26" version="1.1" xmlns="http://www.w3.org/2000/svg" xmlns:xlink="http://www.w3.org/1999/xlink">
    <!-- Generator: sketchtool 52.1 (67048) - http://www.bohemiancoding.com/sketch -->
    <title>A3ED6687-787E-4562-90AE-B743F484B7D4</title>
    <desc>Created with sketchtool.</desc>
    <g id="*CRM" stroke="none" stroke-width="1" fill="none" fill-rule="evenodd">
        <g id="Demanda-Inducida-012" transform="translate(-154.000000, -169.000000)" fill="#3962E6">
            <g id="consulta" transform="translate(154.000000, 169.000000)">
                <path d="M24.4144062,1.15507031 C24.2123477,0.4875 23.5916484,0 22.8589766,0 L22.2496016,0 C21.3535664,0 20.6246016,0.728964844 20.6246016,1.625 C20.6246016,2.52103516 21.3535664,3.25 22.2496016,3.25 L22.8589766,3.25 C23.55275,3.25 24.1460781,2.81282422 24.378707,2.19964063 C24.7328047,2.3391875 24.984375,2.68383984 24.984375,3.08689062 L24.984375,8.96537891 C21.1258633,11.6723242 16.0460117,11.6723242 12.1875,8.96537891 L12.1875,3.08689062 C12.1875,2.68038672 12.4434883,2.33339844 12.8023594,2.19623828 C13.034125,2.81125 13.6283672,3.25 14.3234609,3.25 L14.9328359,3.25 C15.8288711,3.25 16.5578359,2.52103516 16.5578359,1.625 C16.5578359,0.728964844 15.8288711,0 14.9328359,0 L14.3234609,0 C13.5915,0 12.9712578,0.486535156 12.7685898,1.15308984 C11.8602656,1.32798047 11.171875,2.12834375 11.171875,3.08689062 L11.171875,9.32628125 C11.171875,10.4202109 11.6980195,11.4602109 12.5793789,12.1082305 L18.2851094,16.303625 C18.3745859,16.3694375 18.4802617,16.402293 18.5859375,16.402293 C18.6916133,16.402293 18.7972891,16.3694375 18.8867656,16.303625 L24.5924961,12.1082305 C25.4738555,11.4602109 26,10.4202617 26,9.32628125 L26,3.08689062 C26,2.13225391 25.3172461,1.33427734 24.4144062,1.15507031 Z M22.8589766,2.234375 L22.2496016,2.234375 C21.913582,2.234375 21.6402266,1.96101953 21.6402266,1.625 C21.6402266,1.28898047 21.913582,1.015625 22.2496016,1.015625 L22.8589766,1.015625 C23.1949961,1.015625 23.4683516,1.28898047 23.4683516,1.625 C23.4683516,1.96101953 23.1949961,2.234375 22.8589766,2.234375 Z M14.3234609,1.015625 L14.9328359,1.015625 C15.2688555,1.015625 15.5422109,1.28898047 15.5422109,1.625 C15.5422109,1.96101953 15.2688555,2.234375 14.9328359,2.234375 L14.3234609,2.234375 C13.9874414,2.234375 13.7140859,1.96101953 13.7140859,1.625 C13.7140859,1.28898047 13.9874414,1.015625 14.3234609,1.015625 Z M23.9908906,11.2899922 L18.5859375,15.2642344 L13.1809844,11.2899922 C12.83425,11.0350195 12.5656172,10.6939727 12.3955508,10.3083906 C14.2666367,11.4182148 16.3839609,11.9997109 18.5858867,11.9997109 C20.7878125,11.9997109 22.9051367,11.4182656 24.7762227,10.3083906 C24.606207,10.6939727 24.337625,11.0350195 23.9908906,11.2899922 Z" id="Shape" fill-rule="nonzero"></path>
                <path d="M13.4720117,16.1530586 C13.2021094,14.066 11.4438086,12.4921875 9.38208984,12.4921875 C8.42222266,12.4921875 7.48896484,12.8398867 6.75390625,13.4596211 C6.01884766,12.8398867 5.08558984,12.4921875 4.12572266,12.4921875 C1.85077344,12.4921875 0,14.3847031 0,16.7108398 C0,18.0415117 1.10114063,19.8111875 3.27280078,21.9705586 C4.83970703,23.5286289 6.38061328,24.7108672 6.44546094,24.7604297 C6.53646094,24.83 6.64518359,24.8648359 6.75390625,24.8648359 C6.86262891,24.8648359 6.97130078,24.83 7.06235156,24.7604297 C7.18397266,24.6674492 10.0621016,22.4562812 11.9266367,20.1004375 C12.1006641,19.8805547 12.0634922,19.5611914 11.8436094,19.3871641 C11.623625,19.2129844 11.3042617,19.2503086 11.1302852,19.4701914 C9.69048438,21.2893281 7.54314844,23.0772344 6.75212891,23.7116445 C4.90013672,22.2417813 1.015625,18.7382812 1.015625,16.7108398 C1.015625,14.944668 2.41078906,13.5078125 4.12572266,13.5078125 C4.98651563,13.5078125 5.78733594,13.8620117 6.38066406,14.505207 C6.47684375,14.6094102 6.612125,14.6686719 6.75390625,14.6686719 C6.8956875,14.6686719 7.03101953,14.6094102 7.12714844,14.505207 C7.72047656,13.8620117 8.52134766,13.5078125 9.38208984,13.5078125 C10.9348789,13.5078125 12.2601172,14.7010195 12.4647656,16.2832617 C12.5007188,16.5614414 12.7555391,16.7580156 13.0335156,16.7217578 C13.3116445,16.6858047 13.5079648,16.4311367 13.4720117,16.1530586 Z" id="Path"></path>
                <path d="M7.11292969,17.8252344 C7.01847656,17.7307812 6.88746094,17.6764453 6.75390625,17.6764453 C6.62035156,17.6764453 6.48933594,17.7307812 6.39488281,17.8252344 C6.30042969,17.9196875 6.24609375,18.0507031 6.24609375,18.1842578 C6.24609375,18.3178125 6.30042969,18.4488281 6.39488281,18.5432812 C6.48933594,18.6376836 6.62035156,18.6920703 6.75390625,18.6920703 C6.88746094,18.6920703 7.01847656,18.6377344 7.11292969,18.5432812 C7.20738281,18.4488281 7.26171875,18.3178125 7.26171875,18.1842578 C7.26171875,18.0507031 7.20738281,17.9196875 7.11292969,17.8252344 Z" id="Path"></path>
                <path d="M18.5859375,19.2799648 C18.3054727,19.2799648 18.078125,19.5073633 18.078125,19.7877773 L18.078125,23.7148438 C18.078125,24.4148633 17.5086133,24.984375 16.8085938,24.984375 C16.1085742,24.984375 15.5390625,24.4148633 15.5390625,23.7148438 L15.5390625,19.7454258 C15.5390625,18.6020352 14.6088516,17.671875 13.4655117,17.671875 L9.44734375,17.671875 C9.20658984,16.4040195 8.09077344,15.4421211 6.75390625,15.4421211 C5.24184375,15.4421211 4.01171875,16.6722969 4.01171875,18.1843086 C4.01171875,19.6963203 5.24184375,20.9264961 6.75390625,20.9264961 C8.09402344,20.9264961 9.21192187,19.9599258 9.44901953,18.6875 L13.4655117,18.6875 C14.0488867,18.6875 14.5234375,19.1621016 14.5234375,19.7454258 L14.5234375,23.7148438 C14.5234375,24.9748789 15.5485586,26 16.8085938,26 C18.0686289,26 19.09375,24.9748789 19.09375,23.7148438 L19.09375,19.7877773 C19.09375,19.5073633 18.8664023,19.2799648 18.5859375,19.2799648 Z M6.75390625,19.9108711 C5.80185937,19.9108711 5.02734375,19.1363555 5.02734375,18.1843086 C5.02734375,17.2322617 5.80185937,16.4577461 6.75390625,16.4577461 C7.70595312,16.4577461 8.48046875,17.2322617 8.48046875,18.1843086 C8.48046875,19.1363555 7.70595312,19.9108711 6.75390625,19.9108711 Z" id="Shape" fill-rule="nonzero"></path>
                <path d="M18.9449609,17.3636328 C18.8505078,17.2691797 18.7194922,17.2148438 18.5859375,17.2148438 C18.4523828,17.2148438 18.3213672,17.2691289 18.2269141,17.3636328 C18.1324609,17.4580859 18.078125,17.5891016 18.078125,17.7226562 C18.078125,17.8562109 18.1324609,17.9872266 18.2269141,18.0816289 C18.3213672,18.176082 18.4523828,18.2304688 18.5859375,18.2304688 C18.7194922,18.2304688 18.8505078,18.1761328 18.9449609,18.0816289 C19.0394141,17.9872266 19.09375,17.8562109 19.09375,17.7226562 C19.09375,17.5891016 19.0394141,17.4580859 18.9449609,17.3636328 Z" id="Path"></path>
            </g>
        </g>
    </g>
</svg>