<?xml version="1.0" encoding="UTF-8"?>
<svg width="19px" height="21px" viewBox="0 0 19 21" version="1.1" xmlns="http://www.w3.org/2000/svg" xmlns:xlink="http://www.w3.org/1999/xlink">
    <!-- Generator: Sketch 52.1 (67048) - http://www.bohemiancoding.com/sketch -->
    <title>uil-home-alt</title>
    <desc>Created with Sketch.</desc>
    <g id="Parte-1-+" stroke="none" stroke-width="1" fill="none" fill-rule="evenodd">
        <g id="Nuevos-Reg-01" transform="translate(-756.000000, -795.000000)">
            <g id="uil-home-alt" transform="translate(754.000000, 794.000000)">
                <g id="Icon" transform="translate(2.666667, 1.777778)" fill="#3962E6" fill-rule="nonzero">
                    <path d="M16.962963,6.07407407 L11.0740741,0.911481481 C9.95636039,-0.0882320294 8.26586183,-0.0882320294 7.14814815,0.911481481 L1.25925926,6.07407407 C0.62860278,6.63810226 0.271052199,7.44616658 0.277777778,8.29222222 L0.277777778,16.8703704 C0.277777778,18.4965421 1.59605046,19.8148148 3.22222222,19.8148148 L15,19.8148148 C16.6261718,19.8148148 17.9444444,18.4965421 17.9444444,16.8703704 L17.9444444,8.28240741 C17.9483496,7.43976666 17.5910451,6.63583155 16.962963,6.07407407 Z M11.0740741,17.8518519 L7.14814815,17.8518519 L7.14814815,12.9444444 C7.14814815,12.4023872 7.58757238,11.962963 8.12962963,11.962963 L10.0925926,11.962963 C10.6346498,11.962963 11.0740741,12.4023872 11.0740741,12.9444444 L11.0740741,17.8518519 Z M15.9814815,16.8703704 C15.9814815,17.4124276 15.5420573,17.8518519 15,17.8518519 L13.037037,17.8518519 L13.037037,12.9444444 C13.037037,11.3182727 11.7187644,10 10.0925926,10 L8.12962963,10 C6.50345787,10 5.18518519,11.3182727 5.18518519,12.9444444 L5.18518519,17.8518519 L3.22222222,17.8518519 C2.68016497,17.8518519 2.24074074,17.4124276 2.24074074,16.8703704 L2.24074074,8.28240741 C2.24109772,8.00049928 2.36265619,7.73235559 2.57444444,7.5462963 L8.46333333,2.39351852 C8.83384874,2.06801424 9.38837349,2.06801424 9.75888889,2.39351852 L15.6477778,7.5462963 C15.859566,7.73235559 15.9811245,8.00049928 15.9814815,8.28240741 L15.9814815,16.8703704 Z" id="Icon-Shape"></path>
                </g>
                <rect id="ViewBox" x="0" y="0" width="23.5555556" height="23.5555556"></rect>
            </g>
        </g>
    </g>
</svg>