<?xml version="1.0" encoding="UTF-8"?>
<svg width="20px" height="20px" viewBox="0 0 20 20" version="1.1" xmlns="http://www.w3.org/2000/svg" xmlns:xlink="http://www.w3.org/1999/xlink">
    <title>C599C5C1-EEF6-4BA0-AE08-9E931F87DE0D</title>
    <g id="Laboratorio-a-Domicilio***" stroke="none" stroke-width="1" fill="none" fill-rule="evenodd">
        <g id="06" transform="translate(-411.000000, -377.000000)" fill="#3962E6" fill-rule="nonzero">
            <g id="contract-3" transform="translate(411.000000, 377.000000)">
                <path d="M19.4840234,6.29402344 C18.7986719,5.60863281 17.6834766,5.60867187 16.9978906,6.29417969 C16.7870313,6.50523437 15.4407422,7.85261719 15.2350781,8.05847656 L15.2350781,3.41507812 C15.2350781,2.94554688 15.0522266,2.50414062 14.7201953,2.17214844 L13.0629688,0.51484375 C12.7309766,0.1828125 12.2895313,0 11.82,0 L1.75851563,0 C0.789257813,0 0.000703125001,0.788554688 0.000703125001,1.7578125 L0.000703125001,18.2421875 C0.000703125001,19.2114453 0.789257813,20 1.75851563,20 L13.4772656,20 C14.4465234,20 15.2350781,19.2114453 15.2350781,18.2421875 L15.2350781,13.0324609 L19.4839844,8.77996094 C20.1709766,8.09300781 20.1711328,6.98105469 19.4840234,6.29402344 Z M11.7194922,1.171875 C11.8301953,1.171875 12.0435156,1.15269531 12.2343359,1.34347656 L13.8916016,3.00078125 C14.0775391,3.18675781 14.0632422,3.39054688 14.0632422,3.515625 L11.7194922,3.515625 L11.7194922,1.171875 Z M14.0632031,18.2421875 C14.0632031,18.5652734 13.8003906,18.828125 13.4772656,18.828125 L1.75851563,18.828125 C1.43542969,18.828125 1.17257813,18.5652734 1.17257813,18.2421875 L1.17257813,1.7578125 C1.17257813,1.43472656 1.43542969,1.171875 1.75851563,1.171875 L10.5475781,1.171875 L10.5475781,4.1015625 C10.5475781,4.42515625 10.8099219,4.6875 11.1335156,4.6875 L14.0632031,4.6875 L14.0632031,9.23136719 C14.0632031,9.23136719 12.3345313,10.9615234 12.3344531,10.9615625 L11.5062109,11.7898438 C11.4419141,11.8541406 11.3933984,11.9325781 11.3646484,12.0188672 L10.5359766,14.5048047 C10.4657813,14.7153516 10.5205859,14.9475 10.6775391,15.1044141 C10.8346875,15.2615625 11.0669141,15.3160938 11.2771484,15.2459766 L13.7630859,14.4173437 C13.849375,14.3885938 13.9278125,14.3401172 13.9921094,14.2757812 L14.0632031,14.2046875 L14.0632031,18.2421875 Z M12.7491406,12.2041797 L13.5777734,13.0328125 L13.26125,13.3493359 L12.0183203,13.7636328 L12.4326172,12.5206641 L12.7491406,12.2041797 Z M14.40625,12.2039844 L13.5776172,11.3753516 C14.0188672,10.93375 15.9785938,8.97234375 16.3942188,8.55636719 L17.2228516,9.385 L14.40625,12.2039844 Z M18.6551953,7.95148437 L18.0511719,8.55601562 L17.2225391,7.72738281 L17.8267578,7.12265625 C18.0553516,6.89417969 18.4269922,6.89421875 18.6554297,7.12265625 C18.8838281,7.35117187 18.8850391,7.72160156 18.6551953,7.95148437 Z" id="Shape"></path>
                <path d="M11.1335156,5.859375 L2.93039063,5.859375 C2.60679688,5.859375 2.34445313,6.12171875 2.34445313,6.4453125 C2.34445313,6.76890625 2.60679688,7.03125 2.93039063,7.03125 L11.1335156,7.03125 C11.4571094,7.03125 11.7194531,6.76890625 11.7194531,6.4453125 C11.7194531,6.12171875 11.4571094,5.859375 11.1335156,5.859375 Z" id="Path"></path>
                <path d="M8.78976563,8.203125 L2.93039063,8.203125 C2.60679688,8.203125 2.34445313,8.46546875 2.34445313,8.7890625 C2.34445313,9.11265625 2.60679688,9.375 2.93039063,9.375 L8.78976563,9.375 C9.11335938,9.375 9.37570313,9.11265625 9.37570313,8.7890625 C9.37570313,8.46546875 9.11335938,8.203125 8.78976563,8.203125 Z" id="Path"></path>
                <path d="M8.78976563,10.546875 L2.93039063,10.546875 C2.60679688,10.546875 2.34445313,10.8092187 2.34445313,11.1328125 C2.34445313,11.4564062 2.60679688,11.71875 2.93039063,11.71875 L8.78976563,11.71875 C9.11335938,11.71875 9.37570313,11.4564062 9.37570313,11.1328125 C9.37570313,10.8092187 9.11335938,10.546875 8.78976563,10.546875 Z" id="Path"></path>
                <path d="M8.78976563,12.890625 L2.93039063,12.890625 C2.60679688,12.890625 2.34445313,13.1529687 2.34445313,13.4765625 C2.34445313,13.8001562 2.60679688,14.0625 2.93039063,14.0625 L8.78976563,14.0625 C9.11335938,14.0625 9.37570313,13.8001562 9.37570313,13.4765625 C9.37570313,13.1529687 9.11335938,12.890625 8.78976563,12.890625 Z" id="Path"></path>
                <path d="M11.1335156,16.484375 L7.61789063,16.484375 C7.29429688,16.484375 7.03195313,16.7467187 7.03195313,17.0703125 C7.03195313,17.3939063 7.29429688,17.65625 7.61789063,17.65625 L11.1335156,17.65625 C11.4571094,17.65625 11.7194531,17.3939063 11.7194531,17.0703125 C11.7194531,16.7467187 11.4571094,16.484375 11.1335156,16.484375 Z" id="Path"></path>
            </g>
        </g>
    </g>
</svg>