<?xml version="1.0" encoding="UTF-8"?>
<svg width="39px" height="39px" viewBox="0 0 39 39" version="1.1" xmlns="http://www.w3.org/2000/svg" xmlns:xlink="http://www.w3.org/1999/xlink">
    <!-- Generator: sketchtool 52.1 (67048) - http://www.bohemiancoding.com/sketch -->
    <title>8432946B-BC14-49F0-83C1-CB7E022B3075</title>
    <desc>Created with sketchtool.</desc>
    <g id="Agenda-3" stroke="none" stroke-width="1" fill="none" fill-rule="evenodd">
        <g id="agenda-0029" transform="translate(-1072.000000, -1387.000000)">
            <g id="Group-11" transform="translate(1072.000000, 1387.000000)">
                <g id="Group-24" fill="#3962E6">
                    <circle id="Oval" cx="19.5" cy="19.5" r="19.5"></circle>
                </g>
                <g id="pin" transform="translate(12.000000, 9.000000)" fill="#FFFFFF" fill-rule="nonzero">
                    <path d="M7.5,0 C3.3645,0 0,3.3645 0,7.5 C0,8.89725 0.387041667,10.2608333 1.11954167,11.4438333 L7.07308333,21.037875 C7.187125,21.2216667 7.38804167,21.3333333 7.604125,21.3333333 C7.60579167,21.3333333 7.60741667,21.3333333 7.60908333,21.3333333 C7.82704167,21.331625 8.028375,21.2165 8.14033333,21.0295 L13.942125,11.3425 C14.6342083,10.1845 15,8.85579167 15,7.5 C15,3.3645 11.6355,0 7.5,0 Z M12.8694167,10.70075 L7.59466667,19.50775 L2.18195833,10.78525 C1.57225,9.80058333 1.24166667,8.66458333 1.24166667,7.5 C1.24166667,4.05375 4.05375,1.24166667 7.5,1.24166667 C10.94625,1.24166667 13.7541667,4.05375 13.7541667,7.5 C13.7541667,8.63004167 13.445375,9.737 12.8694167,10.70075 Z" id="Shape"></path>
                    <path d="M7.5,3.75 C5.43225,3.75 3.75,5.43225 3.75,7.5 C3.75,9.55454167 5.404875,11.25 7.5,11.25 C9.62095833,11.25 11.25,9.53195833 11.25,7.5 C11.25,5.43225 9.56775,3.75 7.5,3.75 Z M7.5,10.0083333 C6.11429167,10.0083333 4.99166667,8.88195833 4.99166667,7.5 C4.99166667,6.1215 6.1215,4.99166667 7.5,4.99166667 C8.8785,4.99166667 10.0041667,6.1215 10.0041667,7.5 C10.0041667,8.86179167 8.90766667,10.0083333 7.5,10.0083333 Z" id="Shape"></path>
                </g>
            </g>
        </g>
    </g>
</svg>