<?xml version="1.0" encoding="UTF-8"?>
<svg width="15px" height="15px" viewBox="0 0 15 15" version="1.1" xmlns="http://www.w3.org/2000/svg" xmlns:xlink="http://www.w3.org/1999/xlink">
    <!-- Generator: sketchtool 52.1 (67048) - http://www.bohemiancoding.com/sketch -->
    <title>57EB82A9-024A-4E65-A349-ADB10A6B94A5@1.5x</title>
    <desc>Created with sketchtool.</desc>
    <g id="*Ajustes" stroke="none" stroke-width="1" fill="none" fill-rule="evenodd" stroke-linecap="round" stroke-linejoin="round">
        <g id="Ajustes-053" transform="translate(-176.000000, -430.000000)" fill="#FFFFFF" fill-rule="nonzero">
            <g id="Copiar-icon-2" transform="translate(175.000000, 429.000000)">
                <g id="Icon" transform="translate(0.750000, 0.750000)">
                    <g id="Icon-Group" transform="translate(0.500000, 0.500000)">
                        <path d="M7.375,6.025 C6.62941559,6.025 6.025,6.62941559 6.025,7.375 L6.025,11.5 C6.025,12.2455844 6.62941559,12.85 7.375,12.85 L11.5,12.85 C12.2455844,12.85 12.85,12.2455844 12.85,11.5 L12.85,7.375 C12.85,6.62941559 12.2455844,6.025 11.5,6.025 L7.375,6.025 Z M7.375,4.725 L11.5,4.725 C12.9635546,4.725 14.15,5.91144541 14.15,7.375 L14.15,11.5 C14.15,12.9635546 12.9635546,14.15 11.5,14.15 L7.375,14.15 C5.91144541,14.15 4.725,12.9635546 4.725,11.5 L4.725,7.375 C4.725,5.91144541 5.91144541,4.725 7.375,4.725 Z" id="Icon-Rectangle"></path>
                        <path d="M2.875,8.475 C3.23398509,8.475 3.525,8.76601491 3.525,9.125 C3.525,9.48398509 3.23398509,9.775 2.875,9.775 L2.25,9.775 C1.20065898,9.775 0.35,8.92434102 0.35,7.875 L0.35,2.25 C0.35,1.20065898 1.20065898,0.35 2.25,0.35 L7.875,0.35 C8.92434102,0.35 9.775,1.20065898 9.775,2.25 L9.775,2.875 C9.775,3.23398509 9.48398509,3.525 9.125,3.525 C8.76601491,3.525 8.475,3.23398509 8.475,2.875 L8.475,2.25 C8.475,1.91862915 8.20637085,1.65 7.875,1.65 L2.25,1.65 C1.91862915,1.65 1.65,1.91862915 1.65,2.25 L1.65,7.875 C1.65,8.20637085 1.91862915,8.475 2.25,8.475 L2.875,8.475 Z" id="Icon-Path"></path>
                    </g>
                </g>
            </g>
        </g>
    </g>
</svg>