<?xml version="1.0" encoding="UTF-8"?>
<svg width="15px" height="15px" viewBox="0 0 15 15" version="1.1" xmlns="http://www.w3.org/2000/svg" xmlns:xlink="http://www.w3.org/1999/xlink">
    <!-- Generator: sketchtool 52.1 (67048) - http://www.bohemiancoding.com/sketch -->
    <title>9110B0D3-67FC-40DA-82D0-118BD7596569@1.5x</title>
    <desc>Created with sketchtool.</desc>
    <g id="*Ajustes" stroke="none" stroke-width="1" fill="none" fill-rule="evenodd" stroke-linecap="round" stroke-linejoin="round">
        <g id="Ajustes-053" transform="translate(-176.000000, -592.000000)" fill="#3962E6" fill-rule="nonzero">
            <g id="Copiar-icon" transform="translate(176.000000, 592.000000)">
                <g id="Icon" transform="translate(0.750000, 0.750000)">
                    <g id="Icon-Group" transform="translate(0.500000, 0.500000)">
                        <path d="M6.375,5.025 C5.62941559,5.025 5.025,5.62941559 5.025,6.375 L5.025,10.5 C5.025,11.2455844 5.62941559,11.85 6.375,11.85 L10.5,11.85 C11.2455844,11.85 11.85,11.2455844 11.85,10.5 L11.85,6.375 C11.85,5.62941559 11.2455844,5.025 10.5,5.025 L6.375,5.025 Z M6.375,3.725 L10.5,3.725 C11.9635546,3.725 13.15,4.91144541 13.15,6.375 L13.15,10.5 C13.15,11.9635546 11.9635546,13.15 10.5,13.15 L6.375,13.15 C4.91144541,13.15 3.725,11.9635546 3.725,10.5 L3.725,6.375 C3.725,4.91144541 4.91144541,3.725 6.375,3.725 Z" id="Icon-Rectangle"></path>
                        <path d="M1.875,7.475 C2.23398509,7.475 2.525,7.76601491 2.525,8.125 C2.525,8.48398509 2.23398509,8.775 1.875,8.775 L1.25,8.775 C0.200658975,8.775 -0.65,7.92434102 -0.65,6.875 L-0.65,1.25 C-0.65,0.200658975 0.200658975,-0.65 1.25,-0.65 L6.875,-0.65 C7.92434102,-0.65 8.775,0.200658975 8.775,1.25 L8.775,1.875 C8.775,2.23398509 8.48398509,2.525 8.125,2.525 C7.76601491,2.525 7.475,2.23398509 7.475,1.875 L7.475,1.25 C7.475,0.91862915 7.20637085,0.65 6.875,0.65 L1.25,0.65 C0.91862915,0.65 0.65,0.91862915 0.65,1.25 L0.65,6.875 C0.65,7.20637085 0.91862915,7.475 1.25,7.475 L1.875,7.475 Z" id="Icon-Path"></path>
                    </g>
                </g>
            </g>
        </g>
    </g>
</svg>