<?xml version="1.0" encoding="UTF-8"?>
<svg width="17px" height="12px" viewBox="0 0 17 12" version="1.1" xmlns="http://www.w3.org/2000/svg" xmlns:xlink="http://www.w3.org/1999/xlink">
    <!-- Generator: sketchtool 52.1 (67048) - http://www.bohemiancoding.com/sketch -->
    <title>0EFC551A-8EC5-42BB-B1FD-1AB90B1A8455</title>
    <desc>Created with sketchtool.</desc>
    <g id="*Ajustes" stroke="none" stroke-width="1" fill="none" fill-rule="evenodd">
        <g id="Ajustes-012" transform="translate(-77.000000, -829.000000)" fill="#CED8E1" fill-rule="nonzero">
            <g id="Correo-2-Copy-2" transform="translate(77.000000, 829.000000)">
                <path d="M15.6499896,0.9 L1.35001036,0.9 C1.04624299,0.9 0.8,1.14400483 0.8,1.44497924 L0.8,11.2549888 C0.8,11.5559952 1.04624299,11.8 1.35001036,11.8 L15.6499896,11.8 C15.953757,11.8 16.2,11.5559952 16.2,11.2549888 L16.2,1.44497924 C16.2,1.14400483 15.953757,0.9 15.6499896,0.9 Z M14.5819351,2.07949791 L8.49789749,6.75927824 L2.41389121,2.07949791 L14.5819351,2.07949791 Z M14.9246757,10.648546 L2.07111925,10.648546 L2.07111925,3.5 L8.17175732,8.10154124 C8.36412134,8.24925045 8.63170502,8.24925045 8.82406904,8.10154124 L14.9246757,3.41655689 L14.9246757,10.648546 Z" id="Shape"></path>
            </g>
        </g>
    </g>
</svg>