<?xml version="1.0" encoding="UTF-8"?>
<svg width="30px" height="26px" viewBox="0 0 30 26" version="1.1" xmlns="http://www.w3.org/2000/svg" xmlns:xlink="http://www.w3.org/1999/xlink">
    <!-- Generator: sketchtool 52.1 (67048) - http://www.bohemiancoding.com/sketch -->
    <title>9EC1A3EA-6CDA-4BC9-8279-6FD5B98CAC85</title>
    <desc>Created with sketchtool.</desc>
    <g id="Agenda-1" stroke="none" stroke-width="1" fill="none" fill-rule="evenodd">
        <g id="Agenda-10" transform="translate(-1524.000000, -390.000000)" fill="#CED8E1" fill-rule="nonzero">
            <g id="Cotizador-icon" transform="translate(1524.000000, 390.000000)">
                <g id="Icon">
                    <path d="M26.3997394,20.8870391 C27.8516996,18.5078488 27.5149994,15.4484902 25.5803711,13.4420136 C23.6457428,11.4355371 20.6006894,10.9875505 18.1701578,12.3518271 C15.7396261,13.7161037 14.5360809,16.5488623 15.2413005,19.2454157 C15.94652,21.9419691 18.3827976,23.8228183 21.1700426,23.8225093 C22.2956126,23.8172406 23.3987094,23.5069946 24.3620101,22.9247684 L26.8129852,25.3899933 C27.0805499,25.6597611 27.4447703,25.8115017 27.8247249,25.8115017 C28.2046796,25.8115017 28.5689,25.6597611 28.8364647,25.3899933 C29.1062325,25.1224286 29.257973,24.7582082 29.257973,24.3782536 C29.257973,23.998299 29.1062325,23.6340786 28.8364647,23.3665139 L26.3997394,20.8870391 Z M23.5497684,20.0747973 C22.2452689,21.3179278 20.1945652,21.3179278 18.8900657,20.0747973 C17.6093973,18.7855464 17.6093973,16.7043456 18.8900657,15.4150947 C19.5075648,14.7963967 20.3457933,14.4487148 21.219917,14.4487148 C22.0940408,14.4487148 22.9322693,14.7963967 23.5497684,15.4150947 C24.8304367,16.7043456 24.8304367,18.7855464 23.5497684,20.0747973 Z M24.9747539,0.125 L5.02495657,0.125 C2.66396325,0.125 0.75,2.03896325 0.75,4.39995657 L0.75,17.2248263 C0.75,19.5858196 2.66396325,21.4997829 5.02495657,21.4997829 L10.7248987,21.4997829 C11.5118964,21.4997829 12.1498842,20.8617951 12.1498842,20.0747973 C12.1498842,19.2877996 11.5118964,18.6498118 10.7248987,18.6498118 L5.02495657,18.6498118 C4.2379588,18.6498118 3.59997105,18.0118241 3.59997105,17.2248263 L3.59997105,8.67491314 L26.3997394,8.67491314 L26.3997394,10.0998987 C26.3997394,10.8868964 27.0377272,11.5248842 27.8247249,11.5248842 C28.6117227,11.5248842 29.2497105,10.8868964 29.2497105,10.0998987 L29.2497105,4.39995657 C29.2497105,2.03896325 27.3357472,0.125 24.9747539,0.125 Z M26.3997394,5.82494209 L3.59997105,5.82494209 L3.59997105,4.39995657 C3.59997105,3.6129588 4.2379588,2.97497105 5.02495657,2.97497105 L24.9747539,2.97497105 C25.7617517,2.97497105 26.3997394,3.6129588 26.3997394,4.39995657 L26.3997394,5.82494209 Z M12.1498842,11.5248842 L7.87492762,11.5248842 C7.08792984,11.5248842 6.44994209,12.1628719 6.44994209,12.9498697 C6.44994209,13.7368675 7.08792984,14.3748552 7.87492762,14.3748552 L12.1498842,14.3748552 C12.936882,14.3748552 13.5748697,13.7368675 13.5748697,12.9498697 C13.5748697,12.1628719 12.936882,11.5248842 12.1498842,11.5248842 Z" id="Icon-Shape"></path>
                </g>
            </g>
        </g>
    </g>
</svg>