<?xml version="1.0" encoding="UTF-8"?>
<svg width="20px" height="20px" viewBox="0 0 20 20" version="1.1" xmlns="http://www.w3.org/2000/svg" xmlns:xlink="http://www.w3.org/1999/xlink">
    <!-- Generator: sketchtool 52.1 (67048) - http://www.bohemiancoding.com/sketch -->
    <title>C53D6EE7-D63F-4115-A282-D49A2E848C90</title>
    <desc>Created with sketchtool.</desc>
    <g id="Parte-2---Seguridad" stroke="none" stroke-width="1" fill="none" fill-rule="evenodd">
        <g id="Usuarios-013" transform="translate(-1804.000000, -1134.000000)">
            <g id="Delete-Copy-4" transform="translate(1804.000000, 1134.000000)">
                <circle id="Oval" fill="#8B97A3" cx="10" cy="10" r="10"></circle>
                <path d="M13.7955439,6.18947368 C13.6697248,6.06315789 13.5124509,6 13.3237221,6 C13.1349934,6 12.9777195,6.06315789 12.8519004,6.18947368 L10,9.05263158 L7.14809961,6.18947368 C7.02228047,6.06315789 6.86500655,6 6.67627785,6 C6.48754915,6 6.33027523,6.06315789 6.20445609,6.18947368 C6.07863696,6.31578947 6.01572739,6.47368421 6.01572739,6.66315789 C6.01572739,6.85263158 6.07863696,7.01052632 6.20445609,7.13684211 L9.05635649,10 L6.20445609,12.8631579 C6.12057667,12.9473684 6.06116208,13.045614 6.02621232,13.1578947 C5.99126256,13.2701754 5.99126256,13.3859649 6.02621232,13.5052632 C6.06116208,13.6245614 6.12057667,13.7263158 6.20445609,13.8105263 C6.33027523,13.9368421 6.48754915,14 6.67627785,14 C6.86500655,14 7.02228047,13.9368421 7.14809961,13.8105263 L10,10.9473684 L12.8519004,13.8105263 C12.9777195,13.9368421 13.1349934,14 13.3237221,14 C13.5124509,14 13.6697248,13.9368421 13.7955439,13.8105263 C13.8794233,13.7263158 13.9388379,13.6245614 13.9737877,13.5052632 C14.0087374,13.3859649 14.0087374,13.2701754 13.9737877,13.1578947 C13.9388379,13.045614 13.8794233,12.9473684 13.7955439,12.8631579 L10.9436435,10 L13.7955439,7.13684211 C13.921363,7.01052632 13.9842726,6.85263158 13.9842726,6.66315789 C13.9842726,6.47368421 13.921363,6.31578947 13.7955439,6.18947368 Z" id="Icon-Path" fill="#FFFFFF"></path>
            </g>
        </g>
    </g>
</svg>