<?xml version="1.0" encoding="UTF-8"?>
<svg width="21px" height="22px" viewBox="0 0 21 22" version="1.1" xmlns="http://www.w3.org/2000/svg" xmlns:xlink="http://www.w3.org/1999/xlink">
    <!-- Generator: sketchtool 52.1 (67048) - http://www.bohemiancoding.com/sketch -->
    <title>7DF02363-77EA-4FE8-A1C9-CD73BA4652B3</title>
    <desc>Created with sketchtool.</desc>
    <g id="Agenda-1" stroke="none" stroke-width="1" fill="none" fill-rule="evenodd">
        <g id="Agenda-11---Beneficios" transform="translate(-1774.000000, -622.000000)" fill="#CED8E1" fill-rule="nonzero">
            <g id="Convenio-tabla" transform="translate(535.000000, 612.500000)">
                <g id="Detalle-icon" transform="translate(1239.115385, 10.115385)">
                    <path d="M2.50961538,5.88461538 C2.50961538,6.50593573 3.01329504,7.00961538 3.63461538,7.00961538 C4.25593573,7.00961538 4.75961538,6.50593573 4.75961538,5.88461538 L4.75961538,4.75961538 L5.88461538,4.75961538 C6.50593573,4.75961538 7.00961538,4.25593573 7.00961538,3.63461538 C7.00961538,3.01329504 6.50593573,2.50961538 5.88461538,2.50961538 L4.75961538,2.50961538 L4.75961538,1.38461538 C4.75961538,0.763295041 4.25593573,0.259615385 3.63461538,0.259615385 C3.01329504,0.259615385 2.50961538,0.763295041 2.50961538,1.38461538 L2.50961538,2.50961538 L1.38461538,2.50961538 C0.763295041,2.50961538 0.259615385,3.01329504 0.259615385,3.63461538 C0.259615385,4.25593573 0.763295041,4.75961538 1.38461538,4.75961538 L2.50961538,4.75961538 L2.50961538,5.88461538 Z M17.1346154,2.50961538 L10.3846154,2.50961538 C9.76329504,2.50961538 9.25961538,3.01329504 9.25961538,3.63461538 C9.25961538,4.25593573 9.76329504,4.75961538 10.3846154,4.75961538 L17.1346154,4.75961538 C17.7559357,4.75961538 18.2596154,5.26329504 18.2596154,5.88461538 L18.2596154,16.8196154 L16.4933654,15.1883654 C16.2858895,14.994117 16.0125796,14.8855969 15.7283654,14.8846154 L5.88461538,14.8846154 C5.26329504,14.8846154 4.75961538,14.3809357 4.75961538,13.7596154 L4.75961538,10.3846154 C4.75961538,9.76329504 4.25593573,9.25961538 3.63461538,9.25961538 C3.01329504,9.25961538 2.50961538,9.76329504 2.50961538,10.3846154 L2.50961538,13.7596154 C2.50961538,14.654721 2.86519472,15.5131655 3.49813,16.1461008 C4.13106528,16.779036 4.98950973,17.1346154 5.88461538,17.1346154 L15.2896154,17.1346154 L18.6646154,20.2058654 C18.8606105,20.3898952 19.1160304,20.4976505 19.3846154,20.5096154 C19.5389147,20.5079339 19.6915385,20.4774091 19.8346154,20.4196154 C20.2459027,20.2401181 20.511178,19.8333626 20.5096154,19.3846154 L20.5096154,5.88461538 C20.5096154,4.02065435 18.9985764,2.50961538 17.1346154,2.50961538 Z" id="Icon-Shape"></path>
                </g>
            </g>
        </g>
    </g>
</svg>