<?xml version="1.0" encoding="UTF-8"?>
<svg width="12px" height="19px" viewBox="0 0 12 19" version="1.1" xmlns="http://www.w3.org/2000/svg" xmlns:xlink="http://www.w3.org/1999/xlink">
    <!-- Generator: sketchtool 52.1 (67048) - http://www.bohemiancoding.com/sketch -->
    <title>34245B01-8CDB-4739-BF45-6B7C505BA4C1</title>
    <desc>Created with sketchtool.</desc>
    <g id="*CRM" stroke="none" stroke-width="1" fill="none" fill-rule="evenodd">
        <g id="Demanda-Inducida-001" transform="translate(-740.000000, -331.000000)" fill="#FF5964">
            <g id="Group-12" transform="translate(638.000000, 330.000000)">
                <g id="Group" transform="translate(83.000000, 1.000000)">
                    <g id="diabetes" transform="translate(19.000000, -0.000000)">
                        <path d="M5.29411765,14.5411765 L6.70588235,14.5411765 C6.90081176,14.5411765 7.05882353,14.3831294 7.05882353,14.1882353 L7.05882353,13.1294118 L8.11764706,13.1294118 C8.31257647,13.1294118 8.47058824,12.9713647 8.47058824,12.7764706 L8.47058824,11.3647059 C8.47058824,11.1698118 8.31257647,11.0117647 8.11764706,11.0117647 L7.05882353,11.0117647 L7.05882353,9.95294118 C7.05882353,9.75804706 6.90081176,9.6 6.70588235,9.6 L5.29411765,9.6 C5.09918824,9.6 4.94117647,9.75804706 4.94117647,9.95294118 L4.94117647,11.0117647 L3.88235294,11.0117647 C3.68742353,11.0117647 3.52941176,11.1698118 3.52941176,11.3647059 L3.52941176,12.7764706 C3.52941176,12.9713647 3.68742353,13.1294118 3.88235294,13.1294118 L4.94117647,13.1294118 L4.94117647,14.1882353 C4.94117647,14.3831294 5.09918824,14.5411765 5.29411765,14.5411765 Z M4.23529412,12.4235294 L4.23529412,11.7176471 L5.29411765,11.7176471 C5.48904706,11.7176471 5.64705882,11.5596 5.64705882,11.3647059 L5.64705882,10.3058824 L6.35294118,10.3058824 L6.35294118,11.3647059 C6.35294118,11.5596 6.51095294,11.7176471 6.70588235,11.7176471 L7.76470588,11.7176471 L7.76470588,12.4235294 L6.70588235,12.4235294 C6.51095294,12.4235294 6.35294118,12.5815765 6.35294118,12.7764706 L6.35294118,13.8352941 L5.64705882,13.8352941 L5.64705882,12.7764706 C5.64705882,12.5815765 5.48904706,12.4235294 5.29411765,12.4235294 L4.23529412,12.4235294 Z" id="Shape" fill-rule="nonzero"></path>
                        <circle id="Oval" cx="9.98823529" cy="16.0588235" r="1"></circle>
                        <path d="M10.7776235,15.1032706 C10.9482353,15.1973647 11.163,15.1353882 11.2571294,14.9647059 C11.7431294,14.0836235 12,13.0828941 12,12.0705882 C12,9.10828235 10.5165529,7.51358824 9.08195294,5.97137647 C7.67851765,4.46269412 6.35294118,3.03769412 6.35294118,0.352941176 C6.35294118,0.158047059 6.19492941,0 6,0 C5.80507059,0 5.64705882,0.158047059 5.64705882,0.352941176 C5.64705882,3.03769412 4.32148235,4.46269412 2.91804706,5.97137647 C1.48344706,7.51358824 0,9.10828235 0,12.0705882 C0,15.3789882 2.6916,18.0705882 6,18.0705882 C7.01223529,18.0705882 8.013,17.8137176 8.89408235,17.3277529 C9.06476471,17.2335882 9.12681176,17.0189294 9.03268235,16.8482118 C8.93855294,16.6775647 8.72382353,16.6156235 8.55317647,16.7096118 C7.77617647,17.1381882 6.89332941,17.3647059 6,17.3647059 C3.08082353,17.3647059 0.705882353,14.9897647 0.705882353,12.0705882 C0.705882353,9.38583529 2.03145882,7.96083529 3.43489412,6.45215294 C4.44307059,5.36837647 5.47538824,4.25862353 6,2.66650588 C6.52461176,4.25858824 7.55692941,5.36837647 8.56510588,6.45215294 C9.96854118,7.96083529 11.2941176,9.38583529 11.2941176,12.0705882 C11.2941176,12.9639882 11.0676,13.8468353 10.6390235,14.6237647 C10.5448941,14.7944471 10.6069412,15.0091412 10.7776235,15.1032706 Z" id="Path"></path>
                    </g>
                </g>
            </g>
        </g>
    </g>
</svg>