<?xml version="1.0" encoding="UTF-8"?>
<svg width="28px" height="28px" viewBox="0 0 28 28" version="1.1" xmlns="http://www.w3.org/2000/svg" xmlns:xlink="http://www.w3.org/1999/xlink">
    <!-- Generator: sketchtool 52.1 (67048) - http://www.bohemiancoding.com/sketch -->
    <title>1EC15B8A-2C05-4AB5-8691-CF59EC140D8F</title>
    <desc>Created with sketchtool.</desc>
    <g id="*CRM" stroke="none" stroke-width="1" fill="none" fill-rule="evenodd">
        <g id="Demanda-Inducida-012" transform="translate(-153.000000, -218.000000)" fill="#3962E6">
            <g id="dispensario" transform="translate(153.000000, 218.000000)">
                <path d="M14,25.2903226 L24.8387097,25.2903226 C25.088,25.2903226 25.2903226,25.088 25.2903226,24.8387097 L25.2903226,14 C25.2903226,13.7507097 25.088,13.5483871 24.8387097,13.5483871 L14,13.5483871 C13.7507097,13.5483871 13.5483871,13.7507097 13.5483871,14 L13.5483871,24.8387097 C13.5483871,25.088 13.7507097,25.2903226 14,25.2903226 Z M14.4516129,24.3870968 L14.4516129,23.483871 L24.3870968,23.483871 L24.3870968,24.3870968 L14.4516129,24.3870968 Z M17.1612903,18.0645161 L16.2580645,18.0645161 L16.2580645,16.2580645 L17.1612903,16.2580645 L17.1612903,18.0645161 Z M24.3870968,18.9677419 L24.3870968,22.5806452 L23.483871,22.5806452 L23.483871,20.3225806 C23.483871,20.0732903 23.2815484,19.8709677 23.0322581,19.8709677 L20.3225806,19.8709677 C20.0732903,19.8709677 19.8709677,20.0732903 19.8709677,20.3225806 L19.8709677,22.5806452 L18.9677419,22.5806452 L18.9677419,20.3225806 C18.9677419,20.0732903 18.7654194,19.8709677 18.516129,19.8709677 L15.8064516,19.8709677 C15.5571613,19.8709677 15.3548387,20.0732903 15.3548387,20.3225806 L15.3548387,22.5806452 L14.4516129,22.5806452 L14.4516129,18.9677419 L24.3870968,18.9677419 Z M22.5806452,18.0645161 L21.6774194,18.0645161 L21.6774194,16.2580645 L22.5806452,16.2580645 L22.5806452,18.0645161 Z M20.7741935,18.0645161 L19.8709677,18.0645161 L19.8709677,16.2580645 L20.7741935,16.2580645 L20.7741935,18.0645161 Z M22.5806452,22.5806452 L20.7741935,22.5806452 L20.7741935,20.7741935 L22.5806452,20.7741935 L22.5806452,22.5806452 Z M18.0645161,22.5806452 L16.2580645,22.5806452 L16.2580645,20.7741935 L18.0645161,20.7741935 L18.0645161,22.5806452 Z M24.3870968,14.4516129 L24.3870968,18.0645161 L23.483871,18.0645161 L23.483871,15.8064516 C23.483871,15.5571613 23.2815484,15.3548387 23.0322581,15.3548387 L19.4193548,15.3548387 C19.1700645,15.3548387 18.9677419,15.5571613 18.9677419,15.8064516 L18.9677419,18.0645161 L18.0645161,18.0645161 L18.0645161,15.8064516 C18.0645161,15.5571613 17.8621935,15.3548387 17.6129032,15.3548387 L15.8064516,15.3548387 C15.5571613,15.3548387 15.3548387,15.5571613 15.3548387,15.8064516 L15.3548387,18.0645161 L14.4516129,18.0645161 L14.4516129,14.4516129 L24.3870968,14.4516129 Z" id="Shape" fill-rule="nonzero"></path>
                <polygon id="Path" points="9.03225806 20.7741935 9.93548387 20.7741935 9.93548387 22.5806452 9.03225806 22.5806452"></polygon>
                <polygon id="Path" points="5.41935484 20.7741935 6.32258065 20.7741935 6.32258065 22.5806452 5.41935484 22.5806452"></polygon>
                <path d="M12.6451613,6.32258065 L12.6451613,7.67741935 C12.6451613,7.92670968 12.8474839,8.12903226 13.0967742,8.12903226 L14.9032258,8.12903226 C15.1525161,8.12903226 15.3548387,7.92670968 15.3548387,7.67741935 L15.3548387,6.32258065 L16.7096774,6.32258065 C16.9589677,6.32258065 17.1612903,6.12025806 17.1612903,5.87096774 L17.1612903,4.06451613 C17.1612903,3.81522581 16.9589677,3.61290323 16.7096774,3.61290323 L15.3548387,3.61290323 L15.3548387,2.25806452 C15.3548387,2.00877419 15.1525161,1.80645161 14.9032258,1.80645161 L13.0967742,1.80645161 C12.8474839,1.80645161 12.6451613,2.00877419 12.6451613,2.25806452 L12.6451613,3.61290323 L11.2903226,3.61290323 C11.0410323,3.61290323 10.8387097,3.81522581 10.8387097,4.06451613 L10.8387097,5.87096774 C10.8387097,6.12025806 11.0410323,6.32258065 11.2903226,6.32258065 L12.6451613,6.32258065 Z M11.7419355,4.51612903 L13.0967742,4.51612903 C13.3460645,4.51612903 13.5483871,4.31380645 13.5483871,4.06451613 L13.5483871,2.70967742 L14.4516129,2.70967742 L14.4516129,4.06451613 C14.4516129,4.31380645 14.6539355,4.51612903 14.9032258,4.51612903 L16.2580645,4.51612903 L16.2580645,5.41935484 L14.9032258,5.41935484 C14.6539355,5.41935484 14.4516129,5.62167742 14.4516129,5.87096774 L14.4516129,7.22580645 L13.5483871,7.22580645 L13.5483871,5.87096774 C13.5483871,5.62167742 13.3460645,5.41935484 13.0967742,5.41935484 L11.7419355,5.41935484 L11.7419355,4.51612903 Z" id="Shape" fill-rule="nonzero"></path>
                <path d="M27.5483871,4.51612903 L18.9447097,4.51612903 C18.7157419,1.988 16.5868387,0 14,0 C11.4131613,0 9.28425806,1.988 9.05529032,4.51612903 L0.451612903,4.51612903 C0.202322581,4.51612903 0,4.71845161 0,4.96774194 L0,11.2903226 C0,11.5396129 0.202322581,11.7419355 0.451612903,11.7419355 L0.903225806,11.7419355 L0.903225806,27.5483871 C0.903225806,27.7976774 1.10554839,28 1.35483871,28 L26.6451613,28 C26.8944516,28 27.0967742,27.7976774 27.0967742,27.5483871 L27.0967742,11.7419355 L27.5483871,11.7419355 C27.7976774,11.7419355 28,11.5396129 28,11.2903226 L28,4.96774194 C28,4.71845161 27.7976774,4.51612903 27.5483871,4.51612903 Z M14,0.903225806 C16.2409032,0.903225806 18.0645161,2.72683871 18.0645161,4.96774194 C18.0645161,7.20864516 16.2409032,9.03225806 14,9.03225806 C11.7590968,9.03225806 9.93548387,7.20864516 9.93548387,4.96774194 C9.93548387,2.72683871 11.7590968,0.903225806 14,0.903225806 Z M11.7419355,27.0967742 L8.12903226,27.0967742 L8.12903226,16.2580645 L11.7419355,16.2580645 L11.7419355,27.0967742 Z M7.22580645,27.0967742 L3.61290323,27.0967742 L3.61290323,16.2580645 L7.22580645,16.2580645 L7.22580645,27.0967742 Z M26.1935484,27.0967742 L12.6451613,27.0967742 L12.6451613,15.8064516 C12.6451613,15.5571613 12.4428387,15.3548387 12.1935484,15.3548387 L3.16129032,15.3548387 C2.912,15.3548387 2.70967742,15.5571613 2.70967742,15.8064516 L2.70967742,27.0967742 L1.80645161,27.0967742 L1.80645161,11.7419355 L26.1935484,11.7419355 L26.1935484,27.0967742 Z M27.0967742,10.8387097 L26.6451613,10.8387097 L1.35483871,10.8387097 L0.903225806,10.8387097 L0.903225806,5.41935484 L9.05529032,5.41935484 C9.28425806,7.94748387 11.4131613,9.93548387 14,9.93548387 C16.5868387,9.93548387 18.7157419,7.94748387 18.9447097,5.41935484 L27.0967742,5.41935484 L27.0967742,10.8387097 Z" id="Shape" fill-rule="nonzero"></path>
            </g>
        </g>
    </g>
</svg>