<?xml version="1.0" encoding="UTF-8"?>
<svg width="30px" height="28px" viewBox="0 0 30 28" version="1.1" xmlns="http://www.w3.org/2000/svg" xmlns:xlink="http://www.w3.org/1999/xlink">
    <!-- Generator: sketchtool 52.1 (67048) - http://www.bohemiancoding.com/sketch -->
    <title>977F8996-B5AC-4458-9B49-A3D2F773C660</title>
    <desc>Created with sketchtool.</desc>
    <defs>
        <polygon id="path-1" points="0 0.156015271 29.8871667 0.156015271 29.8871667 27.8333051 0 27.8333051"></polygon>
    </defs>
    <g id="PASO-2" stroke="none" stroke-width="1" fill="none" fill-rule="evenodd">
        <g id="Desktop-26-(1)" transform="translate(-825.000000, -479.000000)">
            <g id="DX" transform="translate(825.000000, 479.000000)">
                <g>
                    <g id="Group-3" transform="translate(0.000000, 0.010667)">
                        <mask id="mask-2" fill="white">
                            <use xlink:href="#path-1"></use>
                        </mask>
                        <g id="Clip-2"></g>
                        <path d="M18.4077667,4.33246667 C18.4077667,3.5668 18.4602667,2.89796667 18.3787667,2.24596667 C18.3511,2.0243 17.9896,1.6773 17.7741,1.67246667 C15.8871,1.62896667 13.9984333,1.6338 12.1112667,1.67446667 C11.8991,1.67913333 11.5334333,1.9783 11.5139333,2.16896667 C11.4417667,2.8733 11.4852667,3.58946667 11.4852667,4.33246667 L18.4077667,4.33246667 Z M25.2131,15.3366333 C25.2144333,12.4756333 25.2187667,9.61463333 25.2179333,6.75363333 C25.2179333,6.66296667 25.2152667,6.5723 25.2111,6.4818 C25.1956,6.14446667 24.9147667,5.87996667 24.5771,5.87996667 L5.3666,5.87996667 C5.0161,5.87996667 4.7321,6.16396667 4.7321,6.5143 L4.7321,22.4986333 C4.7321,22.8489667 5.0161,23.1329667 5.3666,23.1329667 L24.5856,23.1329667 C24.9361,23.1329667 25.2201,22.8486333 25.2201,22.4983 L25.2201,22.1276333 C25.2201,19.4546333 25.2191,19.6149667 25.2216,16.9419667 L25.2131,15.3366333 Z M26.6811,16.8709667 C26.6864333,19.9839667 26.6897667,20.2636333 26.6891,23.3768 C26.6889333,24.4746333 26.5154333,24.6509667 25.4446,24.6508 C18.4727667,24.6506333 11.5007667,24.6486333 4.52893333,24.6453 C3.34126667,24.6448 3.20876667,24.5091333 3.2076,23.2856333 C3.20293333,18.0634667 3.19976667,22.5081333 3.19943333,17.2861333 C3.19926667,13.3696333 3.2011,9.45296667 3.2091,5.53646667 C3.2111,4.5433 3.38743333,4.3753 4.38243333,4.37196667 C5.93793333,4.3668 7.49343333,4.37196667 9.04893333,4.36713333 C9.14093333,4.36696667 9.2331,4.36413333 9.3251,4.35996667 C9.6626,4.34446667 9.92726667,4.0638 9.92726667,3.7258 L9.92726667,3.29446667 C9.92726667,2.94413333 9.64226667,2.6603 9.2921,2.66013333 C7.44593333,2.65946667 5.64026667,2.65613333 3.83893333,2.66063333 C2.5306,2.66396667 1.47126667,3.72463333 1.4706,5.0328 C1.46543333,14.7891333 1.46543333,14.8786333 1.4711,24.6349667 C1.47176667,25.8489667 1.98743333,26.3483 3.20826667,26.3489667 C11.0136,26.3528 18.8189333,26.3526333 26.6242667,26.3494667 C27.9124333,26.3489667 28.4181,25.8676333 28.4186,24.6076333 C28.4239333,14.6358 28.4236,14.3306333 28.4181,4.3588 C28.4172667,3.1658 27.8879333,2.6663 26.6584333,2.66213333 C24.6307667,2.65513333 22.6029333,2.65846667 20.5752667,2.66263333 C20.5731,2.66263333 20.5709333,2.66263333 20.5689333,2.6628 C20.2301,2.66463333 19.9612667,2.95163333 19.9612667,3.29046667 L19.9612667,3.73663333 C19.9612667,4.08713333 20.2466,4.3713 20.5971,4.37113333 C22.2416,4.37063333 23.8386,4.36846667 25.4356,4.37246667 C26.5236,4.3753 26.6794333,4.52996667 26.6811,5.64046667 C26.6856,9.02913333 26.6824333,12.4179667 26.6821,15.8066333 L26.6811,16.8709667 Z M29.8826,18.2533 C29.8826,23.1114667 29.8849333,19.4696333 29.8816,24.3279667 C29.8797667,26.7648 28.8091,27.8324667 26.3804333,27.8326333 C18.7182667,27.8333 11.0562667,27.8338 3.39393333,27.8324667 C1.13626667,27.8319667 0.00326666667,26.7228 0.0021,24.4629667 C-0.00256666667,14.5799667 0.0006,14.3638 0.0102666667,4.4808 C0.0124333333,2.29946667 1.1756,1.17246667 3.38026667,1.16913333 C5.46243333,1.16596667 7.5446,1.18146667 9.62643333,1.15346667 C9.91576667,1.14946667 10.2781,1.1643 10.6114333,1.1643 C11.1114333,1.1643 11.2781,0.1933 12.1297667,0.1933 C13.9879333,0.1933 15.8509333,0.108966667 17.7071,0.193966667 C18.2871,0.2208 18.6114333,0.330966667 18.7781,0.497633333 C18.9972667,0.7168 18.9849333,1.14863333 19.2781,1.1523 C21.3597667,1.1783 24.4604333,1.16113333 26.5426,1.1668 C28.7236,1.1728 29.8869333,2.34113333 29.8871,4.5123 C29.8874333,9.48146667 29.8871,13.2839667 29.8871,18.2533 L29.8826,18.2533 Z" id="Fill-1" fill="#3962E6" mask="url(#mask-2)"></path>
                    </g>
                    <path d="M11.52365,10.71715 C11.4124833,10.71715 11.3219833,10.80765 11.3219833,10.9188167 L11.3219833,17.59415 C11.3219833,17.7054833 11.4124833,17.7959833 11.52365,17.7959833 L18.19915,17.7959833 C18.3103167,17.7959833 18.4008167,17.7054833 18.4008167,17.59415 L18.4008167,10.9188167 C18.4008167,10.80765 18.3103167,10.71715 18.19915,10.71715 L11.52365,10.71715 Z M18.19915,19.17315 L11.52365,19.17315 C10.6529833,19.17315 9.94465,18.4648167 9.94465,17.59415 L9.94465,10.9188167 C9.94465,10.0483167 10.6529833,9.33998333 11.52365,9.33998333 L18.19915,9.33998333 C19.06965,9.33998333 19.7779833,10.0483167 19.7779833,10.9188167 L19.7779833,17.59415 C19.7779833,18.4648167 19.06965,19.17315 18.19915,19.17315 Z" id="Fill-4" fill="#3962E6"></path>
                    <path d="M16.9377167,12.5732667 C16.82955,12.4687667 16.6578833,12.4687667 16.5497167,12.5732667 L13.95455,15.1684333 L13.0348833,14.2487667 C12.9277167,14.1379333 12.75105,14.1347667 12.64005,14.2419333 C12.52905,14.3491 12.52605,14.5259333 12.6332167,14.6367667 C12.63555,14.6392667 12.6377167,14.6414333 12.64005,14.6436 L13.75705,15.7607667 C13.86605,15.8697667 14.0428833,15.8697667 14.1518833,15.7607667 L16.94455,12.9681 C17.0517167,12.8572667 17.04855,12.6804333 16.9377167,12.5732667" id="Fill-6" fill="#3962E6"></path>
                    <path d="M13.9545667,16.23555 C13.7820667,16.23555 13.6100667,16.17005 13.4787333,16.0392167 L12.3432333,14.9027167 C12.0925667,14.64355 12.0999,14.2168833 12.3664,13.95905 C12.6339,13.7013833 13.0600667,13.7088833 13.3179,13.9753833 L13.9545667,14.61205 L16.2714,12.29505 C16.5380667,12.0373833 16.9489,12.0372167 17.2110667,12.29005 L17.2112333,12.2902167 C17.3404,12.4152167 17.4132333,12.5828833 17.4164,12.76255 C17.4195667,12.9422167 17.3524,13.1123833 17.2272333,13.24155 L14.4302333,16.0388833 C14.2990667,16.17005 14.1267333,16.23555 13.9545667,16.23555 Z" id="Fill-8" fill="#3962E6"></path>
                </g>
            </g>
        </g>
    </g>
</svg>