<?xml version="1.0" encoding="UTF-8"?>
<svg width="20px" height="20px" viewBox="0 0 20 20" version="1.1" xmlns="http://www.w3.org/2000/svg" xmlns:xlink="http://www.w3.org/1999/xlink">
    <!-- Generator: sketchtool 52.1 (67048) - http://www.bohemiancoding.com/sketch -->
    <title>66D34351-7117-451A-9304-E371341DDAC3</title>
    <desc>Created with sketchtool.</desc>
    <g id="Facturación-2.0-Web*" stroke="none" stroke-width="1" fill="none" fill-rule="evenodd">
        <g id="Desktop-26-(1)" transform="translate(-816.000000, -288.000000)" fill="#3962E6">
            <g id="Group-4" transform="translate(592.000000, 277.000000)">
                <g id="Datos-factura-boton-Copy-2" transform="translate(211.000000, 0.000000)">
                    <g id="Editar-icon" transform="translate(13.000000, 11.000000)">
                        <path d="M19.4262366,18.6622043 L0.606827957,18.6622043 C0.29655914,18.6622043 0.0450537634,18.9137097 0.0450537634,19.2239785 C0.0450537634,19.5342473 0.29655914,19.7857527 0.606827957,19.7857527 L19.4262366,19.7857527 C19.7365054,19.7857527 19.9880108,19.5342473 19.9880108,19.2239785 C19.9880108,18.9137097 19.7365054,18.6622043 19.4262366,18.6622043 Z" id="Path"></path>
                        <path d="M18.5160494,2.37680312 L16.4768681,0.339701105 C16.0238791,-0.112833008 15.287102,-0.112508122 14.8344379,0.340350877 L3.93213125,11.2476283 C3.59145549,11.5879792 3.33128655,12.0093567 3.17979207,12.4663093 L3.17007797,12.495614 L2.22222222,16.6336582 L6.36403509,15.6876218 L6.39327485,15.6779402 C6.8505848,15.5267057 7.27235218,15.2669266 7.6134178,14.9262833 L18.5167641,4.0179987 C18.7359324,3.79870045 18.8565627,3.50721248 18.8564327,3.19723847 C18.8562703,2.88732943 18.7354126,2.59593892 18.5160494,2.37680312 Z M3.95087719,14.9060754 L4.3380117,13.2158869 L5.64301494,14.5195582 L3.95087719,14.9060754 Z M6.83167641,13.8705328 L4.98820663,12.0289474 L13.9999675,3.01309292 L15.8434373,4.85467836 L6.83167641,13.8705328 Z M16.7619558,3.93576998 L14.9184535,2.09418454 L15.6560429,1.35627031 L17.4995452,3.19785575 L16.7619558,3.93576998 Z" id="Shape" fill-rule="nonzero"></path>
                    </g>
                </g>
            </g>
        </g>
    </g>
</svg>