<?xml version="1.0" encoding="UTF-8"?>
<svg width="15px" height="15px" viewBox="0 0 15 15" version="1.1" xmlns="http://www.w3.org/2000/svg" xmlns:xlink="http://www.w3.org/1999/xlink">
    <!-- Generator: sketchtool 52.1 (67048) - http://www.bohemiancoding.com/sketch -->
    <title>672D6166-3438-485B-9B2C-7C00D4D4910B@1,5x</title>
    <desc>Created with sketchtool.</desc>
    <g id="Parte-2---Seguridad" stroke="none" stroke-width="1" fill="none" fill-rule="evenodd">
        <g id="Usuarios-014" transform="translate(-1747.000000, -1185.000000)" stroke="#B9B9B9">
            <g id="Eliminar-Copy-3" transform="translate(1745.000000, 1183.000000)">
                <g id="Group-2" transform="translate(3.000000, 3.000000)">
                    <circle id="Oval" cx="6.5" cy="6.5" r="6.5"></circle>
                    <g id="cancel" transform="translate(6.500000, 6.500000) scale(-1, 1) translate(-6.500000, -6.500000) translate(4.000000, 4.000000)" fill="#B9B9B9" stroke-width="0.2">
                        <path d="M2.87217072,2.50000183 L4.92292743,0.44923861 C5.02569086,0.346465098 5.02569086,0.179843882 4.92292743,0.0770801346 C4.82015425,-0.0256933782 4.6535238,-0.0256933782 4.55076037,0.0770801346 L2.4999939,2.12784336 L0.449237184,0.0770801346 C0.346463998,-0.0256933782 0.179843311,-0.0256933782 0.0770798899,0.0770801346 C-0.025683531,0.179853647 -0.0256932966,0.346474863 0.0770798899,0.44923861 L2.1278366,2.50000183 L0.0770798899,4.55076505 C-0.0256932966,4.65353856 -0.0256932966,4.82015978 0.0770798899,4.92292353 C0.179853077,5.02569704 0.346473763,5.02568727 0.449237184,4.92292353 L2.4999939,2.87216031 L4.55074084,4.92292353 C4.65351403,5.02569704 4.82014448,5.02568727 4.9229079,4.92292353 C5.02567132,4.82015001 5.02567132,4.6535288 4.9229079,4.55076505 L2.87217072,2.50000183 Z" id="Path"></path>
                    </g>
                </g>
            </g>
        </g>
    </g>
</svg>