<?xml version="1.0" encoding="UTF-8"?>
<svg width="16px" height="17px" viewBox="0 0 16 17" version="1.1" xmlns="http://www.w3.org/2000/svg" xmlns:xlink="http://www.w3.org/1999/xlink">
    <!-- Generator: sketchtool 52.1 (67048) - http://www.bohemiancoding.com/sketch -->
    <title>42E9CA2E-6F47-4130-906B-4B9ACF172DEE</title>
    <desc>Created with sketchtool.</desc>
    <g id="Agenda-6" stroke="none" stroke-width="1" fill="none" fill-rule="evenodd">
        <g id="Sobrecupos-000--opcion2" transform="translate(-859.000000, -504.000000)" fill="#FB9A0E" fill-rule="nonzero">
            <path d="M864.930556,517.555556 C865.398463,517.555556 865.777778,517.176241 865.777778,516.708333 L865.777778,511.625 C865.777778,511.157092 865.398463,510.777778 864.930556,510.777778 C864.462648,510.777778 864.083333,511.157092 864.083333,511.625 L864.083333,516.708333 C864.083333,517.176241 864.462648,517.555556 864.930556,517.555556 Z M873.402778,507.388889 L870.013889,507.388889 L870.013889,506.541667 C870.013889,505.137943 868.875946,504 867.472222,504 L865.777778,504 C864.374054,504 863.236111,505.137943 863.236111,506.541667 L863.236111,507.388889 L859.847222,507.388889 C859.379314,507.388889 859,507.768203 859,508.236111 C859,508.704019 859.379314,509.083333 859.847222,509.083333 L860.694444,509.083333 L860.694444,518.402778 C860.694444,519.806502 861.832387,520.944444 863.236111,520.944444 L870.013889,520.944444 C871.417613,520.944444 872.555556,519.806502 872.555556,518.402778 L872.555556,509.083333 L873.402778,509.083333 C873.870686,509.083333 874.25,508.704019 874.25,508.236111 C874.25,507.768203 873.870686,507.388889 873.402778,507.388889 Z M864.930556,506.541667 C864.930556,506.073759 865.30987,505.694444 865.777778,505.694444 L867.472222,505.694444 C867.94013,505.694444 868.319444,506.073759 868.319444,506.541667 L868.319444,507.388889 L864.930556,507.388889 L864.930556,506.541667 Z M870.861111,518.402778 C870.861111,518.870686 870.481797,519.25 870.013889,519.25 L863.236111,519.25 C862.768203,519.25 862.388889,518.870686 862.388889,518.402778 L862.388889,509.083333 L870.861111,509.083333 L870.861111,518.402778 Z M868.319444,517.555556 C868.787352,517.555556 869.166667,517.176241 869.166667,516.708333 L869.166667,511.625 C869.166667,511.157092 868.787352,510.777778 868.319444,510.777778 C867.851537,510.777778 867.472222,511.157092 867.472222,511.625 L867.472222,516.708333 C867.472222,517.176241 867.851537,517.555556 868.319444,517.555556 Z" id="Eliminar-icon"></path>
        </g>
    </g>
</svg>