<?xml version="1.0" encoding="UTF-8"?>
<svg width="22px" height="20px" viewBox="0 0 22 20" version="1.1" xmlns="http://www.w3.org/2000/svg" xmlns:xlink="http://www.w3.org/1999/xlink">
    <!-- Generator: sketchtool 52.1 (67048) - http://www.bohemiancoding.com/sketch -->
    <title>6AFC691A-441B-471E-8F81-42F8B014093C</title>
    <desc>Created with sketchtool.</desc>
    <g id="Agenda-6---Prop-2" stroke="none" stroke-width="1" fill="none" fill-rule="evenodd">
        <g id="crm-examenes-002" transform="translate(-1424.000000, -683.000000)">
            <g id="Group-Copy-2" transform="translate(180.000000, 669.000000)">
                <g id="examenes-lista-2" transform="translate(8.697186, 11.000000)">
                    <g id="Enviar-icon-Copy" transform="translate(1233.302814, 0.000000)">
                        <g id="Icon" transform="translate(1.925926, 2.888889)" fill="#2FCC71" fill-rule="nonzero">
                            <path d="M16.4907407,4.69444444 L17.5740741,4.69444444 L17.5740741,5.77777778 C17.5740741,6.37608626 18.0590989,6.86111111 18.6574074,6.86111111 C19.2557159,6.86111111 19.7407407,6.37608626 19.7407407,5.77777778 L19.7407407,4.69444444 L20.8240741,4.69444444 C21.4223826,4.69444444 21.9074074,4.20941959 21.9074074,3.61111111 C21.9074074,3.01280263 21.4223826,2.52777778 20.8240741,2.52777778 L19.7407407,2.52777778 L19.7407407,1.44444444 C19.7407407,0.846135965 19.2557159,0.361111111 18.6574074,0.361111111 C18.0590989,0.361111111 17.5740741,0.846135965 17.5740741,1.44444444 L17.5740741,2.52777778 L16.4907407,2.52777778 C15.8924323,2.52777778 15.4074074,3.01280263 15.4074074,3.61111111 C15.4074074,4.20941959 15.8924323,4.69444444 16.4907407,4.69444444 Z M20.8240741,9.02777778 C20.2257656,9.02777778 19.7407407,9.51280263 19.7407407,10.1111111 L19.7407407,16.6111111 C19.7407407,17.2094196 19.2557159,17.6944444 18.6574074,17.6944444 L3.49074074,17.6944444 C2.89243226,17.6944444 2.40740741,17.2094196 2.40740741,16.6111111 L2.40740741,6.22194444 L8.77740741,12.6027778 C10.0462834,13.8700757 12.1018647,13.8700757 13.3707407,12.6027778 L16.0465741,9.92694444 C16.4713731,9.50214542 16.4713731,8.81341015 16.046574,8.38861114 C15.621775,7.96381213 14.9330398,7.96381212 14.5082407,8.38861111 L11.8324074,11.0644444 C11.4111603,11.4773492 10.7369879,11.4773492 10.3157407,11.0644444 L3.93490741,4.69444444 L12.1574074,4.69444444 C12.7557159,4.69444444 13.2407407,4.20941959 13.2407407,3.61111111 C13.2407407,3.01280263 12.7557159,2.52777778 12.1574074,2.52777778 L3.49074074,2.52777778 C1.6958153,2.52777778 0.240740741,3.98285234 0.240740741,5.77777778 L0.240740741,16.6111111 C0.240740741,18.4060365 1.6958153,19.8611111 3.49074074,19.8611111 L18.6574074,19.8611111 C20.4523328,19.8611111 21.9074074,18.4060365 21.9074074,16.6111111 L21.9074074,10.1111111 C21.9074074,9.51280263 21.4223826,9.02777778 20.8240741,9.02777778 Z" id="Icon-Shape"></path>
                        </g>
                        <rect id="ViewBox" x="0" y="0" width="26" height="26"></rect>
                    </g>
                </g>
            </g>
        </g>
    </g>
</svg>