<?xml version="1.0" encoding="UTF-8"?>
<svg width="27px" height="27px" viewBox="0 0 27 27" version="1.1" xmlns="http://www.w3.org/2000/svg" xmlns:xlink="http://www.w3.org/1999/xlink">
    <!-- Generator: sketchtool 52.1 (67048) - http://www.bohemiancoding.com/sketch -->
    <title>5DF78E44-096F-42EB-B8ED-8890F637456C</title>
    <desc>Created with sketchtool.</desc>
    <g id="Parte-1-+" stroke="none" stroke-width="1" fill="none" fill-rule="evenodd">
        <g id="Profesionales-012" transform="translate(-947.000000, -441.000000)" fill="#FF5964">
            <g id="Error-icon" transform="translate(947.000000, 441.000000)">
                <g id="Icon">
                    <g id="Icon-Group">
                        <path d="M22.5399812,3.91633412 C17.4013412,-1.22065412 9.03350118,-1.22230588 3.89486118,3.91633412 C-1.24377882,9.05662588 -1.24212706,17.4228141 3.89486118,22.5631059 C9.03350118,27.7000941 17.3996894,27.7017459 22.5399812,22.5631059 C27.6802729,17.4211624 27.6786212,9.05662588 22.5399812,3.91633412 Z M5.92488,20.5330871 C1.89622588,16.5060847 1.89292235,9.95683765 5.91331765,5.93644235 C9.93371294,1.91439529 16.48296,1.91935059 20.5116141,5.94635294 C24.5386165,9.97335529 24.5402682,16.5242541 20.5215247,20.5446494 C16.4978259,24.5650447 9.95023059,24.5600894 5.92488,20.5330871 Z" id="Icon-Shape"></path>
                        <path d="M16.7885365,18.2734729 C16.5529629,18.2807943 16.323563,18.1974299 16.1476518,18.0405741 L13.2289835,15.1252094 L10.4292424,17.9249506 C10.2343258,18.0892315 9.98529729,18.1751846 9.73054588,18.1661082 C9.35287878,18.1614988 8.99332804,18.0034872 8.73453176,17.7283906 C8.36949176,17.3650024 8.28855529,17.0049176 8.28690353,16.7703671 C8.27337381,16.5281878 8.35654899,16.2905445 8.51815059,16.1096612 L11.3657929,13.2603671 L8.59082824,10.4887059 C8.33976,10.2359859 8.12998588,9.45304941 8.78904,8.79564706 C9.16068706,8.424 9.52572706,8.34636706 9.76853647,8.34636706 C10.0708094,8.34636706 10.2971012,8.46529412 10.4077694,8.57926588 L13.2289835,11.3971765 L16.0303765,8.59578353 C16.2258788,8.43139351 16.475458,8.3454535 16.7307247,8.35462588 C17.1092965,8.35883463 17.4697073,8.5175586 17.7283906,8.79399529 C18.3527576,9.42001412 18.2272235,10.1319247 17.9447718,10.4127247 L15.0938259,13.2636706 L17.9629412,16.1311341 C18.0736094,16.2434541 18.2040988,16.4945224 18.2040988,16.8314824 C18.2005761,17.2089051 18.042348,17.5683517 17.7663812,17.8258447 C17.3947341,18.19584 17.0313459,18.2734729 16.7885365,18.2734729 Z" id="Icon-Path"></path>
                    </g>
                </g>
            </g>
        </g>
    </g>
</svg>