<?xml version="1.0" encoding="UTF-8"?>
<svg width="19px" height="20px" viewBox="0 0 19 20" version="1.1" xmlns="http://www.w3.org/2000/svg" xmlns:xlink="http://www.w3.org/1999/xlink">
    <!-- Generator: sketchtool 52.1 (67048) - http://www.bohemiancoding.com/sketch -->
    <title>757082D8-CA93-47E7-B0F9-2AB8795B454A</title>
    <desc>Created with sketchtool.</desc>
    <g id="Agenda-10---Prop-3" stroke="none" stroke-width="1" fill="none" fill-rule="evenodd">
        <g id="agenda-0059" transform="translate(-754.000000, -898.000000)">
            <g id="Group-2" transform="translate(458.000000, 414.000000)">
                <g id="Especialidades-icon" transform="translate(294.280264, 482.892144)">
                    <g id="Icon" transform="translate(1.710932, 1.712383)" fill="#2AB7CA" fill-rule="nonzero">
                        <path d="M7.55661531,14.0558145 L8.48337002,14.0558145 L8.48337002,14.9833555 C8.48337002,15.4956223 8.89829223,15.9108966 9.41012472,15.9108966 C9.92195722,15.9108966 10.3368794,15.4956223 10.3368794,14.9833555 L10.3368794,14.0558145 L11.2636341,14.0558145 C11.7754666,14.0558145 12.1903888,13.6405402 12.1903888,13.1282734 C12.1903888,12.6160066 11.7754666,12.2007324 11.2636341,12.2007324 L10.3368794,12.2007324 L10.3368794,11.2731913 C10.3368794,10.7609245 9.92195722,10.3456502 9.41012472,10.3456502 C8.89829223,10.3456502 8.48337002,10.7609245 8.48337002,11.2731913 L8.48337002,12.2007324 L7.55661531,12.2007324 C7.04478282,12.2007324 6.6298606,12.6160066 6.6298606,13.1282734 C6.6298606,13.6405402 7.04478282,14.0558145 7.55661531,14.0558145 Z M15.8974077,3.85286285 L14.0438983,3.85286285 L14.0438983,2.92532179 C14.0438983,1.38852145 12.7991316,0.142698624 11.2636341,0.142698624 L7.55661531,0.142698624 C6.02111783,0.142698624 4.77635119,1.38852145 4.77635119,2.92532179 L4.77635119,3.85286285 L2.92284177,3.85286285 C1.38734429,3.85286285 0.142577647,5.09868568 0.142577647,6.63548602 L0.142577647,15.9108966 C0.142577647,17.4476969 1.38734429,18.6935198 2.92284177,18.6935198 L15.8974077,18.6935198 C17.4329052,18.6935198 18.6776718,17.4476969 18.6776718,15.9108966 L18.6776718,6.63548602 C18.6776718,5.09868568 17.4329052,3.85286285 15.8974077,3.85286285 Z M6.6298606,2.92532179 C6.6298606,2.41305501 7.04478282,1.99778074 7.55661531,1.99778074 L11.2636341,1.99778074 C11.7754666,1.99778074 12.1903888,2.41305501 12.1903888,2.92532179 L12.1903888,3.85286285 L6.6298606,3.85286285 L6.6298606,2.92532179 Z M16.8241624,15.9108966 C16.8241624,16.4231634 16.4092402,16.8384376 15.8974077,16.8384376 L2.92284177,16.8384376 C2.41100928,16.8384376 1.99608706,16.4231634 1.99608706,15.9108966 L1.99608706,9.41810919 L16.8241624,9.41810919 L16.8241624,15.9108966 Z M16.8241624,7.56302708 L1.99608706,7.56302708 L1.99608706,6.63548602 C1.99608706,6.12321924 2.41100928,5.70794496 2.92284177,5.70794496 L15.8974077,5.70794496 C16.4092402,5.70794496 16.8241624,6.12321924 16.8241624,6.63548602 L16.8241624,7.56302708 Z" id="Icon-Shape"></path>
                    </g>
                    <rect id="ViewBox" x="0" y="0" width="22.242113" height="22.2609854"></rect>
                </g>
            </g>
        </g>
    </g>
</svg>