<?xml version="1.0" encoding="UTF-8"?>
<svg width="21px" height="27px" viewBox="0 0 21 27" version="1.1" xmlns="http://www.w3.org/2000/svg" xmlns:xlink="http://www.w3.org/1999/xlink">
    <!-- Generator: sketchtool 52.1 (67048) - http://www.bohemiancoding.com/sketch -->
    <title>A88E1F41-4BBC-46BE-A538-3DEF3E68F39D</title>
    <desc>Created with sketchtool.</desc>
    <g id="Agenda-1" stroke="none" stroke-width="1" fill="none" fill-rule="evenodd">
        <g id="Agenda-10" transform="translate(-1572.000000, -388.000000)">
            <g id="Examenes-icon" transform="translate(1568.000000, 387.000000)">
                <g id="Icon" transform="translate(4.000000, 1.000000)" fill="#CED8E1" fill-rule="nonzero">
                    <path d="M7.11666667,15.5904167 C6.66217101,15.1047954 5.90066869,15.0777918 5.41291667,15.53 C2.52332987,18.0752596 0.857266695,21.7326859 0.833333333,25.5833333 C0.833333333,26.2506774 1.37432259,26.7916667 2.04166667,26.7916667 C2.70901074,26.7916667 3.25,26.2506774 3.25,25.5833333 C3.26678264,22.4012829 4.65376574,19.3807419 7.05625,17.2941667 C7.54187126,16.839671 7.56887489,16.0781687 7.11666667,15.5904167 Z M19.4054167,21.1970833 C18.9552922,19.8947388 18.3028537,18.6714167 17.4720833,17.5720833 C16.2289734,15.9615636 14.7113952,14.5830627 12.9891667,13.5 C15.6958333,11.7720833 20.1666667,7.94166667 20.1666667,1.41666667 C20.1666667,0.749322594 19.6256774,0.208333333 18.9583333,0.208333333 C18.2909893,0.208333333 17.75,0.749322594 17.75,1.41666667 C17.75,7.94166667 12.20375,11.28875 10.5,12.15875 C9.32702596,11.533591 8.23536433,10.7665871 7.24958333,9.875 L10.5,9.875 C11.1673441,9.875 11.7083333,9.33401074 11.7083333,8.66666667 C11.7083333,7.99932259 11.1673441,7.45833333 10.5,7.45833333 L5.12291667,7.45833333 C4.62531961,6.70378176 4.21966636,5.89247526 3.91458333,5.04166667 L14.125,5.04166667 C14.7923441,5.04166667 15.3333333,4.50067741 15.3333333,3.83333333 C15.3333333,3.16598926 14.7923441,2.625 14.125,2.625 L3.3225,2.625 C3.2735476,2.22409276 3.2493351,1.82055095 3.25,1.41666667 C3.25,0.749322594 2.70901074,0.208333333 2.04166667,0.208333333 C1.37432259,0.208333333 0.833333333,0.749322594 0.833333333,1.41666667 C0.833333333,10.56375 9.65416667,14.4545833 10.02875,14.6116667 C11.3881152,15.2648452 12.6457451,16.1114051 13.7625,17.125 L10.5,17.125 C9.83265593,17.125 9.29166667,17.6659893 9.29166667,18.3333333 C9.29166667,19.0006774 9.83265593,19.5416667 10.5,19.5416667 L15.8529167,19.5416667 C16.3538314,20.2942993 16.7596927,21.106022 17.06125,21.9583333 L6.875,21.9583333 C6.20765593,21.9583333 5.66666667,22.4993226 5.66666667,23.1666667 C5.66666667,23.8340107 6.20765593,24.375 6.875,24.375 L17.6775,24.375 C17.726092,24.7759399 17.7503032,25.1794597 17.75,25.5833333 C17.75,26.2506774 18.2909893,26.7916667 18.9583333,26.7916667 C19.6256774,26.7916667 20.1666667,26.2506774 20.1666667,25.5833333 C20.1710072,24.6943728 20.0819067,23.8074178 19.9008333,22.9370833 C19.7830865,22.3446244 19.6174026,21.7627103 19.4054167,21.1970833 Z" id="Icon-Shape"></path>
                </g>
                <rect id="ViewBox" x="0" y="0" width="29" height="29"></rect>
            </g>
        </g>
    </g>
</svg>