<?xml version="1.0" encoding="UTF-8"?>
<svg width="26px" height="28px" viewBox="0 0 26 28" version="1.1" xmlns="http://www.w3.org/2000/svg" xmlns:xlink="http://www.w3.org/1999/xlink">
    <!-- Generator: sketchtool 52.1 (67048) - http://www.bohemiancoding.com/sketch -->
    <title>3F092AE7-EF87-40D8-915D-9AC545FAFDF5</title>
    <desc>Created with sketchtool.</desc>
    <g id="*CRM" stroke="none" stroke-width="1" fill="none" fill-rule="evenodd">
        <g id="Demanda-Inducida-012" transform="translate(-154.000000, -272.000000)" fill="#3962E6">
            <g id="farmacia_domicilio" transform="translate(154.000000, 272.000000)">
                <path d="M5.99029176,6.86889534 C5.69157807,6.86889534 5.44914378,7.11313436 5.44914378,7.41407172 C5.44914378,7.71500909 5.69157807,7.95924811 5.99029176,7.95924811 C6.28900545,7.95924811 6.53143975,7.71500909 6.53143975,7.41407172 C6.53143975,7.11313436 6.28900545,6.86889534 5.99029176,6.86889534 Z" id="Path"></path>
                <path d="M10.8603531,17.0631486 L9.23701734,17.0631486 L9.23701734,15.4277284 C9.23701734,15.126682 8.99469128,14.882552 8.69586936,14.882552 C8.39704744,14.882552 8.15477548,15.126682 8.15477548,15.4277284 L8.15477548,17.0631486 L6.53143975,17.0631486 C6.23261783,17.0631486 5.99029176,17.3072785 5.99029176,17.6082704 C5.99029176,17.9092623 6.23261783,18.1534468 6.53143975,18.1534468 L8.15477548,18.1534468 L8.15477548,19.7888669 C8.15477548,20.0899133 8.39710155,20.3340433 8.69586936,20.3340433 C8.99463716,20.3340433 9.23701734,20.0899133 9.23701734,19.7888669 L9.23701734,18.1534468 L10.8603531,18.1534468 C11.159175,18.1534468 11.4015011,17.9093168 11.4015011,17.6082704 C11.4015011,17.307224 11.1592291,17.0631486 10.8603531,17.0631486 Z" id="Path"></path>
                <path d="M25.4652338,17.5538073 C24.2690261,15.466545 21.6241112,14.7522004 19.5518932,15.9575854 L17.3538584,17.236024 L17.3538584,12.5019303 C17.3538584,11.9166835 17.1617508,11.3359071 16.8127645,10.8665102 L14.1071869,7.23230992 L14.1071869,5.68477223 C14.7369749,5.45972342 15.1894287,4.85381439 15.1894287,4.14306793 L15.1894287,1.63542012 C15.1893205,0.733643861 14.4610977,0 13.5659848,0 L3.82580804,0 C2.93069516,0 2.20241819,0.733643861 2.20241819,1.63542012 L2.20241819,4.14312245 C2.20241819,4.85375987 2.65487203,5.45977794 3.28466005,5.68482675 L3.28466005,7.23236443 L0.578866002,10.8667828 C0.23004201,11.3359616 0.0379344739,11.9166835 0.0379344739,12.5019303 L0.0379344739,23.0598162 C0.0379344739,24.562813 1.2516753,25.7855346 2.74351207,25.7855346 L11.4398685,25.7855346 C12.6531764,27.834471 15.2694104,28.5201938 17.3201989,27.3272389 L23.8808607,23.5111677 C25.9347879,22.3162501 26.6674481,19.6524638 25.4652338,17.5538073 Z M3.28466005,1.63542012 C3.28466005,1.33480986 3.52741904,1.09024373 3.82575393,1.09024373 L13.5659307,1.09024373 C13.8643197,1.09024373 14.1070787,1.33480986 14.1070787,1.63542012 L14.1070787,4.14312245 C14.1070787,4.44373271 13.8643197,4.68824432 13.5659307,4.68824432 L3.82580804,4.68824432 C3.52741904,4.68824432 3.28471417,4.44367819 3.28471417,4.14312245 L3.28471417,1.63542012 L3.28466005,1.63542012 Z M1.44491924,11.5206128 L4.25867232,7.74112304 C4.32891333,7.64680752 4.36690192,7.53199338 4.36690192,7.41401721 L4.36690192,5.77859709 L13.0248368,5.77859709 L13.0248368,6.86889534 L8.15477548,6.86889534 C7.85595356,6.86889534 7.6136275,7.11302532 7.6136275,7.41407172 C7.6136275,7.71511812 7.85595356,7.95924811 8.15477548,7.95924811 L13.2954108,7.95924811 L15.9466571,11.5204493 C16.1199327,11.7535122 16.227567,12.0323699 16.26009,12.3204411 L1.13170279,12.3204411 C1.16417167,12.0323154 1.271806,11.7534577 1.44491924,11.5206128 Z M2.74356618,24.6952363 C1.8484533,24.6952363 1.12023045,23.9615925 1.12023045,23.0598162 L1.12023045,22.5092426 L10.9515365,22.5092426 C10.7799385,23.2160637 10.7810749,23.971024 10.9775657,24.6952908 L2.74356618,24.6952908 L2.74356618,24.6952363 Z M11.3759589,21.4243416 L1.12017633,21.4243416 L1.12017633,13.4106303 L16.2715624,13.4106303 L16.2715624,17.8654301 L12.9911774,19.7736565 C12.3072205,20.1716898 11.7543837,20.7382916 11.3759589,21.4243416 Z M16.7791592,26.3829934 C15.2262268,27.2864051 13.2418371,26.7521323 12.3445055,25.1865493 C11.4428989,23.6058649 11.989296,21.615753 13.5324336,20.717793 L16.4696225,19.0093192 L19.7163481,24.6745196 L16.7791592,26.3829934 Z M23.3397127,22.5669767 L20.6536164,24.1293977 L17.4068367,18.4640883 L20.0929871,16.9018309 C21.6469477,15.9980374 23.6306339,16.5332371 24.5279655,18.0988746 C25.4292474,19.6723627 24.8811727,21.6702161 23.3397127,22.5669767 Z" id="Shape" fill-rule="nonzero"></path>
            </g>
        </g>
    </g>
</svg>