<?xml version="1.0" encoding="UTF-8"?>
<svg width="22px" height="23px" viewBox="0 0 22 23" version="1.1" xmlns="http://www.w3.org/2000/svg" xmlns:xlink="http://www.w3.org/1999/xlink">
    <!-- Generator: sketchtool 52.1 (67048) - http://www.bohemiancoding.com/sketch -->
    <title>C34DA6CE-0174-404A-B506-70684A216070</title>
    <desc>Created with sketchtool.</desc>
    <g id="*CRM" stroke="none" stroke-width="1" fill="none" fill-rule="evenodd">
        <g id="Demanda-Inducida-001" transform="translate(-509.000000, -866.000000)" fill="#3962E6">
            <g id="Group-9" transform="translate(488.000000, 840.000000)">
                <g id="farmacia" transform="translate(21.000000, 26.000000)">
                    <path d="M4.84199308,5.55217426 C4.6005408,5.55217426 4.40457953,5.7495943 4.40457953,5.99284399 C4.40457953,6.23609369 4.6005408,6.43351373 4.84199308,6.43351373 C5.08344537,6.43351373 5.27940664,6.23609369 5.27940664,5.99284399 C5.27940664,5.7495943 5.08344537,5.55217426 4.84199308,5.55217426 Z" id="Path"></path>
                    <path d="M8.77849637,13.7922576 L7.46634319,13.7922576 L7.46634319,12.4703366 C7.46634319,12.2269987 7.2704694,12.0296668 7.02892963,12.0296668 C6.78738987,12.0296668 6.59155982,12.2269987 6.59155982,12.4703366 L6.59155982,13.7922576 L5.27940664,13.7922576 C5.03786687,13.7922576 4.84199308,13.9895895 4.84199308,14.2328833 C4.84199308,14.4761771 5.03786687,14.673553 5.27940664,14.673553 L6.59155982,14.673553 L6.59155982,15.9954741 C6.59155982,16.2388119 6.78743361,16.4361438 7.02892963,16.4361438 C7.27042566,16.4361438 7.46634319,16.2388119 7.46634319,15.9954741 L7.46634319,14.673553 L8.77849637,14.673553 C9.02003613,14.673553 9.21590992,14.4762211 9.21590992,14.2328833 C9.21590992,13.9895455 9.02007988,13.7922576 8.77849637,13.7922576 Z" id="Path"></path>
                    <path d="M20.5837196,14.1888604 C19.6168169,12.5017122 17.4789144,11.9243027 15.8039267,12.8986235 L14.0272403,13.931994 L14.0272403,10.1053943 C14.0272403,9.63233533 13.8719585,9.16288987 13.5898705,8.78347322 L11.402934,5.8459247 L11.402934,4.59503959 C11.9119959,4.41313113 12.2777173,3.92337078 12.2777173,3.34886965 L12.2777173,1.32192107 C12.2776298,0.593009262 11.6890024,0 10.9654767,0 L3.09242635,0 C2.36890059,0 1.78022943,0.593009262 1.78022943,1.32192107 L1.78022943,3.34891372 C1.78022943,3.92332672 2.1459509,4.41317519 2.65501279,4.59508366 L2.65501279,5.84596877 L0.467901279,8.78369356 C0.185944502,9.16293393 0.0306626902,9.63233533 0.0306626902,10.1053943 L0.0306626902,18.6394044 C0.0306626902,19.8542868 1.01173755,20.8426209 2.21759924,20.8426209 L9.24692254,20.8426209 C10.2276475,22.4987899 12.342367,23.0530643 14.0000332,22.0887908 L19.3030602,19.0042349 C20.9632633,18.0383749 21.5554775,15.8852185 20.5837196,14.1888604 Z M2.65501279,1.32192107 C2.65501279,1.07893578 2.85123651,0.881251336 3.09238261,0.881251336 L10.9654329,0.881251336 C11.2066228,0.881251336 11.4028465,1.07893578 11.4028465,1.32192107 L11.4028465,3.34891372 C11.4028465,3.59189901 11.2066228,3.78953939 10.9654329,3.78953939 L3.09242635,3.78953939 C2.85123651,3.78953939 2.65505654,3.59185494 2.65505654,3.34891372 L2.65505654,1.32192107 L2.65501279,1.32192107 Z M1.16793793,9.31218877 L3.44231345,6.25720177 C3.49908973,6.1809659 3.52979616,6.08816086 3.52979616,5.99279993 L3.52979616,4.67087886 L10.5280631,4.67087886 L10.5280631,5.55217426 L6.59155982,5.55217426 C6.35002006,5.55217426 6.15414627,5.74950617 6.15414627,5.99284399 C6.15414627,6.23618182 6.35002006,6.43351373 6.59155982,6.43351373 L10.7467699,6.43351373 L12.8897901,9.31205657 C13.0298499,9.50044288 13.1168515,9.72584545 13.14314,9.95869534 L0.914762967,9.95869534 C0.94100778,9.72580139 1.02800934,9.50039882 1.16793793,9.31218877 Z M2.21764298,19.9613255 C1.49411722,19.9613255 0.905489799,19.3683162 0.905489799,18.6394044 L0.905489799,18.194372 L8.85220055,18.194372 C8.71349672,18.7657003 8.71441528,19.3759398 8.87324015,19.9613695 L2.21764298,19.9613695 L2.21764298,19.9613255 Z M9.195264,17.3174392 L0.905446058,17.3174392 L0.905446058,10.8399026 L13.1524132,10.8399026 L13.1524132,14.4407472 L10.500856,15.9831794 C9.94800899,16.3049124 9.5011473,16.7629004 9.195264,17.3174392 Z M13.5627071,21.3255508 C12.3074614,22.0557846 10.7034659,21.6239283 9.97814678,20.358457 C9.24937206,19.0807792 9.69102853,17.4721584 10.938357,16.7463313 L13.3125066,15.3653605 L15.9368567,19.94458 L13.5627071,21.3255508 Z M18.8656466,18.2410389 L16.694457,19.5039543 L14.0700631,14.9246466 L16.2412965,13.6618635 C17.4973733,12.9313212 19.1008001,13.3639266 19.8261193,14.629442 C20.5546316,15.901303 20.1116191,17.5161813 18.8656466,18.2410389 Z" id="Shape" fill-rule="nonzero"></path>
                </g>
            </g>
        </g>
    </g>
</svg>