<?xml version="1.0" encoding="UTF-8"?>
<svg width="27px" height="27px" viewBox="0 0 27 27" version="1.1" xmlns="http://www.w3.org/2000/svg" xmlns:xlink="http://www.w3.org/1999/xlink">
    <!-- Generator: sketchtool 52.1 (67048) - http://www.bohemiancoding.com/sketch -->
    <title>2283FC02-5D1F-4A6E-AD6E-10E4E1A7FE9E</title>
    <desc>Created with sketchtool.</desc>
    <g id="*CRM" stroke="none" stroke-width="1" fill="none" fill-rule="evenodd">
        <g id="Demanda-Inducida-012" transform="translate(-153.000000, -323.000000)" fill="#3962E6">
            <g id="farmacia" transform="translate(153.000000, 323.000000)">
                <path d="M27,4.42916016 C27,3.55682813 26.2903008,2.84712891 25.4179688,2.84712891 L21.0146484,2.84712891 C20.7233965,2.84712891 20.4873047,3.0832207 20.4873047,3.37447266 C20.4873047,3.66572461 20.7233965,3.90181641 21.0146484,3.90181641 L25.4179688,3.90181641 C25.7087461,3.90181641 25.9453125,4.13838281 25.9453125,4.42916016 L25.9453125,7.59654492 L1.0546875,7.59654492 L1.0546875,4.42916016 C1.0546875,4.13838281 1.29125391,3.90181641 1.58203125,3.90181641 L8.15189063,3.90181641 C8.44314258,3.90181641 8.67923438,3.66572461 8.67923438,3.37447266 C8.67923438,3.0832207 8.44314258,2.84712891 8.15189063,2.84712891 L1.58203125,2.84712891 C0.709699219,2.84712891 0,3.55682813 0,4.42916016 L0,8.12388867 C0,8.13084961 0.000791015625,8.13754688 0.0010546875,8.14445508 C0.000791015625,8.15131055 0,8.15806055 0,8.16502148 L0,10.0074023 C0,10.9069453 0.467332031,11.6989102 1.17149414,12.1548516 C1.16411133,12.1899727 1.16015625,12.2263066 1.16015625,12.2635898 L1.16015625,25.9448906 L0.52734375,25.9448906 C0.236091797,25.9448906 0,26.1809824 0,26.4722344 C0,26.7634863 0.236091797,26.9995781 0.52734375,26.9995781 L26.4726562,26.9995781 C26.7639082,26.9995781 27,26.7634863 27,26.4722344 C27,26.1809824 26.7639082,25.9448906 26.4726562,25.9448906 L25.8398438,25.9448906 L25.8398438,12.2634844 C25.8398438,12.2262012 25.8358359,12.1898672 25.8285059,12.1547461 C26.532668,11.6988047 27,10.9068398 27,10.0072969 L27,8.16491602 C27,8.15795508 26.999209,8.15125781 26.9989453,8.14434961 C26.999209,8.13749414 27,8.13074414 27,8.1237832 L27,4.42916016 Z M18.3515098,8.65117969 L21.6210937,8.65117969 L21.6210937,10.0072969 C21.6210937,10.8357539 20.9470957,11.509752 20.1186387,11.509752 L19.8539648,11.509752 C19.0255078,11.509752 18.3515098,10.8357539 18.3515098,10.0072969 L18.3515098,8.65117969 Z M14.027291,8.65117969 L17.296875,8.65117969 L17.296875,10.0072969 C17.296875,10.8357539 16.622877,11.509752 15.7944199,11.509752 L15.5297461,11.509752 C14.7012891,11.509752 14.027291,10.8357539 14.027291,10.0072969 L14.027291,8.65117969 Z M9.70307227,8.65117969 L12.9726563,8.65117969 L12.9726563,10.0072969 C12.9726563,10.8357539 12.2986582,11.509752 11.4702012,11.509752 L11.2055273,11.509752 C10.3770703,11.509752 9.70307227,10.8357539 9.70307227,10.0072969 L9.70307227,8.65117969 Z M5.37885352,8.65117969 L8.6484375,8.65117969 L8.6484375,10.0072969 C8.6484375,10.8357539 7.97443945,11.509752 7.14598242,11.509752 L6.88130859,11.509752 C6.05285156,11.509752 5.37885352,10.8357539 5.37885352,10.0072969 L5.37885352,8.65117969 Z M1.0546875,10.0072969 L1.0546875,8.65117969 L4.32421875,8.65117969 L4.32421875,10.0072969 C4.32421875,10.8357539 3.6502207,11.509752 2.82176367,11.509752 L2.55708984,11.509752 C1.72868555,11.509752 1.0546875,10.8357539 1.0546875,10.0072969 Z M12.234375,25.9447852 L5.0625,25.9447852 L5.0625,15.6088477 L12.234375,15.6088477 L12.234375,25.9447852 Z M24.7851563,22.1479102 L16.453125,22.1479102 L16.453125,15.6088477 L24.7851563,15.6088477 L24.7851563,22.1479102 Z M24.7854727,14.5541602 L24.7851563,14.5541602 L15.9257812,14.5541602 C15.6345293,14.5541602 15.3984375,14.790252 15.3984375,15.0815039 L15.3984375,22.6752539 C15.3984375,22.9665059 15.6345293,23.2025977 15.9257812,23.2025977 L24.7851563,23.2025977 L24.7851563,25.9447852 L13.2890625,25.9447852 L13.2890625,15.0815039 C13.2890625,14.790252 13.0529707,14.5541602 12.7617188,14.5541602 L4.53515625,14.5541602 C4.2439043,14.5541602 4.0078125,14.790252 4.0078125,15.0815039 L4.0078125,25.9447852 L2.21484375,25.9447852 L2.21484375,12.5408672 C2.3269043,12.5559492 2.44102148,12.5644395 2.55714258,12.5644395 L2.82181641,12.5644395 C3.64816406,12.5644395 4.38380859,12.1700918 4.85161523,11.5600605 C5.31936914,12.1700918 6.05501367,12.5644395 6.88141406,12.5644395 L7.14608789,12.5644395 C7.97243555,12.5644395 8.70808008,12.1700918 9.17588672,11.5600605 C9.64364062,12.1700918 10.3792852,12.5644395 11.2056855,12.5644395 L11.4703594,12.5644395 C12.296707,12.5644395 13.0323516,12.1700918 13.5001582,11.5600605 C13.9679121,12.1700918 14.7035566,12.5644395 15.529957,12.5644395 L15.7946309,12.5644395 C16.6209785,12.5644395 17.356623,12.1700918 17.8244297,11.5600605 C18.2921836,12.1700918 19.0278281,12.5644395 19.8542285,12.5644395 L20.1189023,12.5644395 C20.94525,12.5644395 21.6808945,12.1700918 22.1487012,11.5600605 C22.6164551,12.1700918 23.3520996,12.5644395 24.1785,12.5644395 L24.4431738,12.5644395 C24.5592949,12.5644395 24.6734121,12.5559492 24.7854727,12.5408672 L24.7854727,14.5541602 Z M25.9452598,10.0072969 C25.9453125,10.8357539 25.2713145,11.509752 24.4428574,11.509752 L24.1781836,11.509752 C23.3497266,11.509752 22.6757285,10.8357539 22.6757285,10.0072969 L22.6757285,8.65117969 L25.9452598,8.65117969 L25.9452598,10.0072969 Z" id="Shape" fill-rule="nonzero"></path>
                <path d="M10.919707,20.4039844 C10.8216211,20.3058984 10.6855664,20.2494727 10.546875,20.2494727 C10.4081836,20.2494727 10.2721289,20.3058984 10.174043,20.4039844 C10.075957,20.5020703 10.0195312,20.638125 10.0195312,20.7768164 C10.0195312,20.9155078 10.075957,21.0515625 10.174043,21.1496484 C10.2721289,21.2477344 10.4081836,21.3041602 10.546875,21.3041602 C10.6855664,21.3041602 10.8216211,21.2477344 10.919707,21.1496484 C11.017793,21.0515625 11.0742188,20.9155078 11.0742188,20.7768164 C11.0742188,20.638125 11.017793,20.5020703 10.919707,20.4039844 Z" id="Path"></path>
                <path d="M16.1591309,0.609873047 C15.3465469,-0.202658203 14.0243906,-0.202710938 13.2118066,0.609873047 L10.8409219,2.98075781 C10.4472598,3.37436719 10.2304688,3.89775586 10.2304688,4.45441992 C10.2304688,5.01108398 10.4472598,5.53447266 10.8408691,5.92808203 C11.2471875,6.33440039 11.7808594,6.5375332 12.314584,6.5375332 C12.8482559,6.5375332 13.3819277,6.33434766 13.7882461,5.92808203 L14.973293,4.74298242 C14.9733984,4.74287695 14.9735566,4.74277148 14.9737148,4.74261328 C14.973873,4.74245508 14.9739258,4.74234961 14.974084,4.74219141 L16.1591309,3.55714453 C16.5527402,3.16358789 16.7695312,2.64019922 16.7695312,2.08353516 C16.7695312,1.52687109 16.5527402,1.00353516 16.1591309,0.609873047 Z M13.0424238,5.1823125 C12.6411152,5.58372656 11.9880527,5.58367383 11.5866914,5.1823125 C11.392207,4.98793359 11.2851562,4.72937695 11.2851562,4.45441992 C11.2851562,4.17946289 11.392207,3.92101172 11.5866914,3.72658008 L12.3992227,2.91404883 L13.8549551,4.36978125 L13.0424238,5.1823125 Z M15.4133086,2.81142773 L14.6007773,3.62395898 L13.1450449,2.16822656 L13.9575762,1.35564258 C14.1582305,1.15493555 14.4218496,1.05463477 14.6854687,1.05463477 C14.9490879,1.05463477 15.2126543,1.15498828 15.4133086,1.35564258 C15.607793,1.55007422 15.7148438,1.80857813 15.7148438,2.08353516 C15.7148438,2.35849219 15.607793,2.61699609 15.4133086,2.81142773 Z" id="Shape" fill-rule="nonzero"></path>
                <path d="M22.5422051,18.3470801 L21.1408418,18.3470801 L21.1408418,16.9457168 C21.1408418,16.6544648 20.90475,16.418373 20.613498,16.418373 C20.3222461,16.418373 20.0861543,16.6544648 20.0861543,16.9457168 L20.0861543,18.3470801 L18.684791,18.3470801 C18.3935391,18.3470801 18.1574473,18.5831719 18.1574473,18.8744238 C18.1574473,19.1656758 18.3935391,19.4017676 18.684791,19.4017676 L20.0861543,19.4017676 L20.0861543,20.8031309 C20.0861543,21.0943828 20.3222461,21.3304746 20.613498,21.3304746 C20.90475,21.3304746 21.1408418,21.0943828 21.1408418,20.8031309 L21.1408418,19.4017676 L22.5422051,19.4017676 C22.833457,19.4017676 23.0695488,19.1656758 23.0695488,18.8744238 C23.0695488,18.5831719 22.833457,18.3470801 22.5422051,18.3470801 Z" id="Path"></path>
                <path d="M7.06640625,17.0502363 C6.7751543,17.0502363 6.5390625,17.2863281 6.5390625,17.5775801 L6.5390625,21.9720937 C6.5390625,22.2633457 6.7751543,22.4994375 7.06640625,22.4994375 C7.3576582,22.4994375 7.59375,22.2633457 7.59375,21.9720937 L7.59375,17.5775801 C7.59375,17.2863281 7.3576582,17.0502363 7.06640625,17.0502363 Z" id="Path"></path>
                <path d="M7.43923828,23.6028516 C7.34115234,23.5047656 7.20509766,23.4488672 7.06640625,23.4488672 C6.92771484,23.4488672 6.79166016,23.5047656 6.69357422,23.6028516 C6.59548828,23.7014648 6.5390625,23.8369922 6.5390625,23.9762109 C6.5390625,24.1149023 6.59548828,24.250957 6.69357422,24.349043 C6.79166016,24.4471289 6.92771484,24.5035547 7.06640625,24.5035547 C7.20509766,24.5035547 7.34115234,24.4471289 7.43923828,24.349043 C7.53732422,24.2504297 7.59375,24.1149023 7.59375,23.9762109 C7.59375,23.8369922 7.53732422,23.7014648 7.43923828,23.6028516 Z" id="Path"></path>
            </g>
        </g>
    </g>
</svg>