<?xml version="1.0" encoding="UTF-8"?>
<svg width="23px" height="23px" viewBox="0 0 23 23" version="1.1" xmlns="http://www.w3.org/2000/svg" xmlns:xlink="http://www.w3.org/1999/xlink">
    <!-- Generator: sketchtool 52.1 (67048) - http://www.bohemiancoding.com/sketch -->
    <title>5F72D3DB-AC36-40ED-8ABD-59D0E5678304</title>
    <desc>Created with sketchtool.</desc>
    <g id="Facturación-2.0-Web*" stroke="none" stroke-width="1" fill="none" fill-rule="evenodd">
        <g id="Desktop-06" transform="translate(-1281.000000, -128.000000)" fill="#3962E6" fill-rule="nonzero">
            <g id="Finalizar-turno" transform="translate(1281.000000, 128.000000)">
                <path d="M11.4160152,0 C5.12133333,0 0,5.12098485 0,11.4160152 C0,17.7110455 5.12098485,22.8320303 11.4160152,22.8320303 C17.7110455,22.8320303 22.8320303,17.7110455 22.8320303,11.4160152 C22.8320303,5.12098485 17.710697,0 11.4160152,0 Z M2.09090909,11.4160152 C2.09090909,6.27412121 6.27412121,2.09090909 11.4160152,2.09090909 C13.7327424,2.09090909 15.8536212,2.94225758 17.4862727,4.34630303 L4.34630303,17.4862727 C2.94225758,15.8536212 2.09090909,13.7327424 2.09090909,11.4160152 Z M11.4160152,20.7411212 C9.34322727,20.7411212 7.42690909,20.0605303 5.87684848,18.9122727 L18.9119242,5.87719697 C20.0601818,7.42725758 20.7407727,9.34357576 20.7407727,11.4163636 C20.7411212,16.5579091 16.5579091,20.7411212 11.4160152,20.7411212 Z" id="Shape"></path>
            </g>
        </g>
    </g>
</svg>