<?xml version="1.0" encoding="UTF-8"?>
<svg width="11px" height="12px" viewBox="0 0 11 12" version="1.1" xmlns="http://www.w3.org/2000/svg" xmlns:xlink="http://www.w3.org/1999/xlink">
    <!-- Generator: sketchtool 52.1 (67048) - http://www.bohemiancoding.com/sketch -->
    <title>7AA2BF47-493F-43E4-9898-3468B088CD27</title>
    <desc>Created with sketchtool.</desc>
    <g id="Parte-1-+" stroke="none" stroke-width="1" fill="none" fill-rule="evenodd">
        <g id="Mod-Plani-17" transform="translate(-768.000000, -1349.000000)" fill="#DBE0E4">
            <g id="Pages" transform="translate(768.000000, 1339.000000)">
                <g id="First/page/arrow/grey">
                    <path d="M1,10 L1.2,10 C1.75228475,10 2.2,10.4477153 2.2,11 L2.2,20 C2.2,20.5522847 1.75228475,21 1.2,21 L1,21 C0.44771525,21 3.63776698e-13,20.5522847 3.63709063e-13,20 L3.63709063e-13,11 C3.63641427e-13,10.4477153 0.44771525,10 1,10 Z M10.292444,11.712444 L6.41244403,15.592444 L10.292444,19.472444 C10.5443163,19.7243163 10.6426836,20.0914281 10.550492,20.4354919 C10.4583003,20.7795558 10.1895558,21.0483003 9.84549195,21.140492 C9.50142806,21.2326836 9.13431627,21.1343163 8.88244403,20.882444 L4.29244403,16.292444 C4.10521594,16.1055994 4,15.8519535 4,15.587444 C4,15.3229346 4.10521594,15.0692886 4.29244403,14.882444 L8.88244403,10.292444 C9.06928863,10.1052159 9.32293456,10 9.58744403,10 C9.8519535,10 10.1055994,10.1052159 10.292444,10.292444 C10.672444,10.682444 10.682444,11.322444 10.292444,11.712444 Z"></path>
                </g>
            </g>
        </g>
    </g>
</svg>