<?xml version="1.0" encoding="UTF-8"?>
<svg width="23px" height="22px" viewBox="0 0 23 22" version="1.1" xmlns="http://www.w3.org/2000/svg" xmlns:xlink="http://www.w3.org/1999/xlink">
    <!-- Generator: sketchtool 52.1 (67048) - http://www.bohemiancoding.com/sketch -->
    <title>9A17F3CD-241B-4196-A92D-FDA67498089A</title>
    <desc>Created with sketchtool.</desc>
    <g id="Agenda-1" stroke="none" stroke-width="1" fill="none" fill-rule="evenodd">
        <g id="agenda-0000" transform="translate(-328.000000, -323.000000)" fill="#3962E6" fill-rule="nonzero">
            <g id="Btn-grupo-familiar" transform="translate(319.000000, 315.000000)">
                <g id="love" transform="translate(9.000000, 8.000000)">
                    <path d="M22.0623008,13.9951855 L19.4228262,12.9393867 C19.408541,12.9336816 19.395334,12.9264043 19.3819473,12.9193965 C21.2050117,12.5045879 22.0684102,11.8109043 22.1067285,11.7795039 C22.197875,11.7047988 22.2433809,11.5879121 22.2267148,11.47125 C22.2228965,11.4445664 21.8451484,8.76987305 21.8451484,6.12985937 C21.8451484,3.60929297 19.7945098,1.5586543 17.2739434,1.5586543 C14.753377,1.5586543 12.7027832,3.60924805 12.7027832,6.12985937 C12.7027832,6.82048828 12.6714277,7.66519922 12.6203965,8.46485352 L11.8848906,8.83262891 L9.72594531,7.75320117 C9.71974609,7.75010156 9.71323242,7.74785547 9.70689844,7.74516016 C9.80958984,7.4458457 9.87674805,7.13022461 9.90141016,6.80269922 C10.3530098,6.66317188 10.6820625,6.24175977 10.6820625,5.74492383 C10.6820625,5.41030078 10.5325625,5.11013281 10.297127,4.90699609 L10.297127,2.66539453 C10.297127,2.04614648 9.98424609,1.46674414 9.47114844,1.11859961 C9.29730078,0.472623047 8.71691016,0.0188671875 8.03553516,0.0188671875 L4.95605078,0.0188671875 C3.28450781,0.0188671875 1.92458789,1.37878711 1.92458789,3.05033008 L1.92458789,4.90695117 C1.68915234,5.11004297 1.53965234,5.41025586 1.53965234,5.74487891 C1.53965234,6.24171484 1.86870508,6.66312695 2.32030469,6.8026543 C2.40538672,7.93374219 2.98829297,8.92754883 3.84926562,9.56714648 L3.84926562,10.498377 L1.06303125,11.3342383 C0.427207031,11.5250215 0,12.099168 0,12.7630234 L0,16.5230293 C0,16.7090957 0.150847656,16.8599434 0.336914063,16.8599434 L0.384935547,16.8599434 L0.384935547,20.7573203 C0.384935547,20.9433867 0.535783203,21.0942344 0.721849609,21.0942344 C0.907916016,21.0942344 1.05876367,20.9433867 1.05876367,20.7573203 L1.05876367,16.8599434 L2.30961328,16.8599434 L2.30961328,20.7573203 C2.30961328,20.9433867 2.46046094,21.0942344 2.64652734,21.0942344 C2.83259375,21.0942344 2.98344141,20.9433867 2.98344141,20.7573203 L2.98344141,14.9480234 C2.98344141,14.6525273 2.89678711,14.366375 2.73291211,14.1205625 L2.15701367,13.2567148 C2.0537832,13.1018691 1.84458203,13.0600918 1.68982617,13.1632324 C1.53498047,13.266418 1.4931582,13.4756191 1.59638867,13.6304648 L2.17228711,14.4943574 C2.26213086,14.629123 2.3096582,14.7859902 2.3096582,14.9480234 L2.3096582,16.1861152 L0.721849609,16.1861152 L0.673828125,16.1861152 L0.673828125,12.7630234 C0.673828125,12.3990215 0.908050781,12.0842539 1.25673438,11.9796309 L2.41333789,11.6326543 C2.81610742,13.3191113 4.34574219,14.5503301 6.11094727,14.5503301 C6.74510938,14.5503301 7.36098828,14.393957 7.91249414,14.0963945 C8.11405859,14.3713613 8.4391582,14.5503301 8.80545117,14.5503301 L8.85347266,14.5503301 L8.85347266,14.5983516 C8.85347266,15.7278223 9.47483203,16.7143066 10.3932148,17.2358047 L10.3932148,17.785334 C10.3932148,17.805998 10.3800078,17.8243262 10.360377,17.8308848 L9.10359766,18.2498262 C8.49351367,18.4531875 8.08360156,19.0218984 8.08360156,19.665 L8.08360156,20.7573203 C8.08360156,20.9433867 8.23444922,21.0942344 8.42051563,21.0942344 C8.60658203,21.0942344 8.75742969,20.9433867 8.75742969,20.7573203 L8.75742969,19.665 C8.75742969,19.3124082 8.98217383,19.0005605 9.31666211,18.8891094 L9.68623438,18.7658887 C10.1751641,19.4950605 10.997459,19.9394727 11.8848906,19.9394727 C12.7732656,19.9394727 13.5947969,19.4953301 14.0836367,18.7659336 L14.4531191,18.8891094 C14.7876074,19.0006055 15.0123516,19.3124082 15.0123516,19.665 L15.0123516,20.7573203 C15.0123516,20.9433867 15.1631992,21.0942344 15.3492656,21.0942344 C15.535332,21.0942344 15.6861797,20.9433867 15.6861797,20.7573203 L15.6861797,19.665 C15.6861797,19.0218984 15.2762676,18.4531875 14.6661836,18.2498711 L13.4094043,17.8309297 C13.3897734,17.8243711 13.3765664,17.8060879 13.3765664,17.7853789 L13.3765664,17.2358496 C14.0641855,16.8453887 14.5846504,16.1942012 14.8029707,15.4173672 C15.4396484,16.0835586 16.328877,16.4750977 17.2738984,16.4750977 C18.7658438,16.4750977 20.0749121,15.5106699 20.5258379,14.106457 L21.8119063,14.6208574 C22.124248,14.7457852 22.3260371,15.0438867 22.3260371,15.3802168 L22.3260371,16.9560312 L22.2780156,16.9560312 L21.0751875,16.9560312 L21.0751875,16.5230742 C21.0751875,16.3370078 20.9243398,16.1861602 20.7382734,16.1861602 C20.552207,16.1861602 20.4013594,16.3370078 20.4013594,16.5230742 L20.4013594,20.7573652 C20.4013594,20.9434316 20.552207,21.0942793 20.7382734,21.0942793 C20.9243398,21.0942793 21.0751875,20.9434316 21.0751875,20.7573652 L21.0751875,17.6298594 L21.9411016,17.6298594 L21.9411016,20.7573652 C21.9411016,20.9434316 22.0919492,21.0942793 22.2780156,21.0942793 C22.464082,21.0942793 22.6149297,20.9434316 22.6149297,20.7573652 L22.6149297,17.6298594 L22.6629512,17.6298594 C22.7523008,17.6298594 22.8379668,17.5943711 22.9011719,17.5312109 C22.964377,17.4680059 22.9998652,17.3823398 22.9998652,17.2929453 L22.9998652,15.3802168 C23,14.7666738 22.6319551,14.2230293 22.0623008,13.9951855 Z M13.3766562,6.12981445 C13.3766562,3.98079688 15.1250156,2.2324375 17.2740332,2.2324375 C19.4230508,2.2324375 21.1713652,3.98079688 21.1713652,6.12981445 C21.1713652,8.39221484 21.4438164,10.6792324 21.5323574,11.3622695 C21.2304375,11.559791 20.4574219,11.9948145 19.1506895,12.2806973 L19.1506895,11.7445547 C19.3296582,11.6431211 19.5009902,11.5273574 19.6620801,11.3971738 C20.3250371,10.8613008 20.7935273,10.110791 20.9811211,9.28395898 C21.0436523,9.00845313 21.0753672,8.72432227 21.0753672,8.43947266 C21.0753672,6.53518945 19.6981973,6.26179492 18.3663535,5.99738477 C17.5189023,5.82915234 16.6426113,5.65516992 15.9447949,5.09692578 C15.8436758,5.01602148 15.7051367,5.00025391 15.5883848,5.05636133 C15.4716328,5.11246875 15.3974219,5.23047852 15.3974219,5.3600332 C15.3974219,5.36897266 15.3827324,6.25546094 14.1128809,6.57292383 C13.9323398,6.61807031 13.8225957,6.80099219 13.8677422,6.9815332 C13.9128438,7.16207422 14.0958105,7.27172852 14.2763066,7.22667187 C15.3391582,6.96095898 15.7727441,6.36471094 15.9495566,5.91675 C16.680166,6.34970703 17.4985977,6.51214453 18.2351367,6.65836523 C19.658666,6.94096875 20.4015391,7.14855273 20.4015391,8.43951758 C20.4015391,8.6742793 20.3754395,8.90823242 20.3240039,9.1349082 C20.1696973,9.81475586 19.7842227,10.4320723 19.2384668,10.8732051 C18.6769434,11.3270957 17.9976348,11.5669785 17.2740332,11.5669785 C16.6144004,11.5669785 15.9866172,11.3646504 15.4538438,10.9823203 C15.2586582,10.4495918 14.9451484,9.96218945 14.5314629,9.56058789 L14.5314629,8.05458203 C14.5314629,7.93778516 14.470998,7.82934375 14.3716758,7.76798047 C14.2723535,7.70661719 14.1483691,7.70100195 14.0438809,7.75324609 L13.3164609,8.11693359 C13.3563516,7.41529883 13.3766562,6.74820898 13.3766562,6.12981445 Z M13.8576348,8.59961914 L13.8576348,9.81893359 L12.6382754,9.20929883 L13.8576348,8.59961914 Z M9.91223633,8.59961914 L11.1315508,9.20929883 L9.91223633,9.81893359 L9.91223633,8.59961914 Z M8.08360156,12.2887383 L8.08360156,12.6087168 C7.84237109,12.8170195 7.69866602,13.1218594 7.69866602,13.4435 C7.21881055,13.727002 6.67368359,13.876502 6.11090234,13.876502 C4.64537109,13.876502 3.37745117,12.8451855 3.06025781,11.4385918 L3.89261523,11.1888711 C4.09795313,12.2260273 5.0144043,13.0105879 6.11094727,13.0105879 C6.98166797,13.0105879 7.73851172,12.5156836 8.11630469,11.792666 C8.09469727,11.9562715 8.08360156,12.1219434 8.08360156,12.2887383 Z M4.52318359,10.748457 L4.52318359,9.9680293 C5.00663281,10.191291 5.5444375,10.3160391 6.11094727,10.3160391 C6.67741211,10.3160391 7.21526172,10.1912461 7.69871094,9.96807422 L7.69871094,10.7489512 C7.69871094,11.6244336 6.98647461,12.3367148 6.11094727,12.3367148 C5.23690234,12.3367148 4.5256543,11.6267695 4.52327344,10.7532637 C4.52327344,10.7516465 4.52318359,10.7500293 4.52318359,10.748457 Z M6.11094727,9.64221094 C4.38639648,9.64221094 2.98344141,8.23925586 2.98344141,6.51475 C2.98344141,6.32868359 2.83259375,6.17783594 2.64652734,6.17783594 C2.4078125,6.17783594 2.21357031,5.98359375 2.21357031,5.74487891 C2.21357031,5.50616406 2.40776758,5.31192188 2.64652734,5.31192188 L3.41639844,5.31192188 C3.56140625,5.31192188 3.69015234,5.2191582 3.73601758,5.0815625 L4.04525977,4.15383594 C4.81948828,4.13636133 7.21961914,4.02751563 8.57118359,3.35171094 C8.73761914,3.2684707 8.8050918,3.06614258 8.72185156,2.89970703 C8.63865625,2.73327148 8.43632812,2.66579883 8.26984766,2.74903906 C6.81972461,3.47407813 3.83125195,3.48333203 3.80124414,3.48333203 C3.65623633,3.48337695 3.52749023,3.57614063 3.48166992,3.71373633 L3.17355078,4.63813867 L2.64652734,4.63813867 C2.63044531,4.63813867 2.61445312,4.63867773 2.59850586,4.63935156 L2.59850586,3.05033008 C2.59850586,1.75033594 3.65614648,0.692695313 4.95614062,0.692695313 L8.035625,0.692695313 C8.43794531,0.692695313 8.7759375,0.982666016 8.83941211,1.38211133 C8.85553906,1.48363477 8.91712695,1.5722207 9.00665625,1.62271289 C9.38705469,1.83725977 9.62338867,2.23675 9.62338867,2.66534961 L9.62338867,4.63926172 C9.60744141,4.63854297 9.59149414,4.63804883 9.57536719,4.63804883 L9.19043164,4.63804883 C9.00436523,4.63804883 8.85351758,4.78889648 8.85351758,4.97496289 C8.85351758,5.1610293 9.00436523,5.31187695 9.19043164,5.31187695 L9.57536719,5.31187695 C9.81408203,5.31187695 10.0083242,5.50607422 10.0083242,5.74483398 C10.0083242,5.98359375 9.81412695,6.17779102 9.57536719,6.17779102 C9.38930078,6.17779102 9.23845312,6.32863867 9.23845312,6.51470508 C9.23845312,8.23921094 7.83549805,9.64221094 6.11094727,9.64221094 Z M8.37249414,10.749041 L8.37249414,9.56714648 C8.70765625,9.31814453 9.0005918,9.01568555 9.2384082,8.67194336 L9.2384082,9.56054297 C8.86110937,9.92683594 8.56700586,10.3644199 8.37011328,10.842748 C8.37141602,10.8116172 8.37249414,10.7804414 8.37249414,10.749041 Z M13.4113359,18.5417734 C13.040416,18.9949004 12.4832051,19.2655996 11.8849355,19.2655996 C11.2873848,19.2655996 10.7298145,18.9947207 10.3587598,18.5417285 L10.5734863,18.470168 C10.8687129,18.3717891 11.0670879,18.0965527 11.0670879,17.7853789 L11.0670879,17.5168359 C11.3274551,17.5899238 11.6015684,17.6298594 11.8849805,17.6298594 C12.1683926,17.6298594 12.4425059,17.5899238 12.702873,17.5168359 L12.702873,17.7853789 C12.7028281,18.0965078 12.9011582,18.3717441 13.1964297,18.470123 L13.4113359,18.5417734 Z M14.5795293,13.876502 C14.3934629,13.876502 14.2426152,14.0273496 14.2426152,14.213416 L14.2426152,14.5483984 C14.2426152,14.5513184 14.2425703,14.5542383 14.2426152,14.5571582 L14.2426152,14.5983516 C14.2425703,15.8983457 13.1849297,16.9559863 11.8849355,16.9559863 C10.5849414,16.9559863 9.5273457,15.8983457 9.5273457,14.5983516 L9.5273457,14.213416 C9.5273457,14.0273496 9.37649805,13.876502 9.19043164,13.876502 L8.80549609,13.876502 C8.56678125,13.876502 8.37253906,13.6823047 8.37253906,13.4435449 C8.37253906,13.2899121 8.45384766,13.1508789 8.59000586,13.0716367 C8.62041797,13.0539375 8.64687695,13.0315215 8.66978711,13.0061855 C9.50263867,12.9820625 12.2023984,12.8253301 13.9767676,11.8113984 C14.1383066,11.719084 14.194459,11.5132969 14.1021445,11.3517129 C14.0098301,11.1901289 13.8039531,11.1340215 13.642459,11.2263359 C12.0880723,12.1145312 9.64558008,12.292377 8.75747461,12.3279102 L8.75747461,12.2887383 C8.75747461,11.662123 8.94722461,11.0552734 9.29105664,10.5436582 C9.31796484,10.5862891 9.35394727,10.6233047 9.39824023,10.6506621 C9.45237109,10.684084 9.5137793,10.7009746 9.57536719,10.7009746 C9.62684766,10.7009746 9.67846289,10.6891602 9.72603516,10.6653965 L11.8849805,9.58592383 L14.0439258,10.6653965 C14.091498,10.6891602 14.1431133,10.7009746 14.1945937,10.7009746 C14.2562266,10.7009746 14.3176348,10.684084 14.3717207,10.6506621 C14.4159688,10.6233047 14.4519512,10.5862441 14.4788594,10.5436582 C14.8226914,11.0552734 15.0124414,11.662123 15.0124414,12.2887383 L15.0124414,12.7804531 C15.0124414,12.9003945 15.0761855,13.0113066 15.1799102,13.0716367 C15.3161133,13.1509238 15.3974219,13.2899121 15.3974219,13.4435449 C15.3974219,13.6822598 15.2031797,13.876502 14.9644648,13.876502 L14.5795293,13.876502 Z M17.2740332,15.8011797 C16.3412754,15.8011797 15.4759004,15.3263105 14.9721465,14.5501504 C15.5788613,14.5459727 16.0712051,14.051248 16.0712051,13.4435898 C16.0712051,13.1219492 15.9275,12.8170645 15.6862695,12.6087617 L15.6862695,12.2887832 C15.6862695,12.1531641 15.6789473,12.0183086 15.6646172,11.8847109 C16.1641934,12.1189336 16.7096348,12.2407168 17.2740332,12.2407168 C17.6848437,12.2407168 18.0911172,12.1726602 18.4768613,12.0440039 L18.4768613,12.5373809 C18.4768613,12.9925742 18.7499414,13.3959727 19.1725664,13.5650137 L19.8990879,13.8556133 C19.5508984,15.0068711 18.4875977,15.8011797 17.2740332,15.8011797 Z" id="Shape"></path>
                </g>
            </g>
        </g>
    </g>
</svg>