<?xml version="1.0" encoding="UTF-8"?>
<svg width="28px" height="33px" viewBox="0 0 28 33" version="1.1" xmlns="http://www.w3.org/2000/svg" xmlns:xlink="http://www.w3.org/1999/xlink">
    <!-- Generator: sketchtool 52.1 (67048) - http://www.bohemiancoding.com/sketch -->
    <title>0FD3E986-7B7C-4072-8595-D96D2F1CD124</title>
    <desc>Created with sketchtool.</desc>
    <g id="*CRM" stroke="none" stroke-width="1" fill="none" fill-rule="evenodd">
        <g id="Demanda-Inducida-012" transform="translate(-865.000000, -217.000000)" fill="#FB9A0E">
            <g id="Paciente-2" transform="translate(865.000000, 217.000000)">
                <path d="M17.1691523,15.9010864 C17.2380412,15.5724609 17.2992757,15.2295473 17.3457119,14.8585679 C17.6074897,12.764856 16.9966749,10.8226996 16.2934979,9.36939918 C17.3375473,6.75672428 17.3497942,3.69754733 17.3497942,3.56844444 L17.3497942,3.12602469 L13.4654815,2.57083128 L13.2072757,0.506716049 L12.7572016,0.506716049 C7.54307819,0.506716049 0,3.41382716 0,8.6713251 C0,13.0011193 1.77120988,14.917251 2.49786008,15.5204115 C2.34528395,16.4144362 2.40600823,17.266107 2.54582716,17.8815144 C2.47846914,18.4979424 2.04115226,22.6976132 2.04115226,27.0416955 C2.04115226,32.0864033 6.08263374,32.1445761 6.12345679,32.1445761 L7.14403292,32.1445761 L7.65432099,32.1445761 L12.7572016,32.1445761 L13.2674897,32.1445761 L21.9423868,32.1445761 C23.3543539,32.1445761 26.0246914,31.2913745 26.0246914,28.0622716 L26.0272428,27.5290206 C26.0517366,23.898321 26.0818436,18.934749 17.1691523,15.9010864 Z M1.02057613,8.6713251 C1.02057613,4.07975309 8.03244444,1.69568724 12.3076379,1.53596708 L12.761284,5.16258436 L13.7736955,5.03603292 L13.5966255,3.62100412 L16.3154403,4.00933333 C16.2786996,4.79619753 16.1409218,6.51433745 15.6336955,8.16562963 C15.1392263,7.36243621 14.7213004,6.86337449 14.6748642,6.80928395 L13.8997366,7.47316872 C13.928823,7.50684774 16.8078683,10.9293498 16.3327901,14.7325267 C15.9041481,18.160642 14.3579753,19.8986831 11.7361152,19.8986831 C9.60260082,19.8986831 7.40479012,18.3121975 7.01748148,18.0192922 L6.11835391,12.1713909 C6.11376132,12.1402634 5.71624691,9.04434568 7.26752263,8.65601646 C8.88462551,8.2523786 9.71537449,9.85366255 9.7490535,9.92051029 L10.6619588,9.46380247 C10.2455638,8.63101235 8.94381893,7.18434568 7.02003292,7.6665679 C4.97479835,8.17736626 4.99214815,10.9334321 5.06971193,11.9443128 C3.8868642,12.550535 3.18521811,13.452214 2.80454321,14.4090041 C2.12586008,13.6798025 1.02057613,11.9861564 1.02057613,8.6713251 Z M16.7655144,21.6316214 L14.0752757,20.4360165 C14.7366091,20.1318848 15.3673251,19.6603786 15.902107,18.9434239 C16.4343374,19.9298107 16.6680494,20.9478354 16.7655144,21.6316214 Z M13.2674897,21.193284 L13.2674897,23.4701893 L12.2469136,23.4701893 L12.2469136,21.2876872 L12.7862881,20.9794733 L13.2674897,21.193284 Z M10.9426173,20.8570041 L9.69547325,21.5698765 L9.69547325,20.5702222 C10.0960494,20.6988148 10.5149959,20.7978107 10.9426173,20.8570041 Z M6.00813169,18.167786 L3.50261728,17.4518519 C3.37198354,16.6420247 3.19185185,14.2850041 5.2166749,13.0225514 L6.00813169,18.167786 Z M7.18026337,31.124 L6.12345679,31.124 C5.99843621,31.124 3.0617284,31.0775638 3.0617284,27.0416955 C3.0617284,23.4166091 3.37045267,19.8869465 3.5061893,18.5142716 L6.19744856,19.2832757 L8.15440329,28.5791934 C7.47725103,29.4395391 7.25272428,30.504 7.18026337,31.124 Z M12.2469136,31.124 L8.20798354,31.124 C8.29779424,30.481037 8.57130864,29.3854486 9.40665021,28.7639177 C10.0858436,28.2587325 11.0421235,28.1546337 12.2469136,28.4516214 L12.2469136,31.124 Z M25.0066667,27.5223868 L25.0041152,28.0622716 C25.0041152,31.0193909 22.2541728,31.1219588 21.9423868,31.124 L13.2674897,31.124 L13.2674897,28.4500905 L22.079144,26.0022387 L21.8061399,25.0184033 L20.7595391,25.3092675 L19.3756379,19.7741728 L18.3861893,20.0211523 L19.7767243,25.5827819 L12.7520988,27.5341235 C11.2426667,27.1110947 9.99399177,27.1988642 9.03311934,27.7948807 L7.27109465,19.4246255 C7.65432099,19.6624198 8.13297119,19.9298107 8.67540741,20.174749 L8.67540741,23.3288395 L11.2268477,21.8704362 L11.2268477,24.4902551 L14.2885761,24.4902551 L14.2885761,21.6464198 L17.8605926,23.2344362 L17.8605926,22.4491029 C17.8605926,22.3444938 17.8437531,20.0119671 16.502716,17.9453004 C16.6552922,17.6289218 16.7889877,17.2727407 16.9099259,16.890535 C25.055144,19.6884444 25.0306502,24.0279342 25.0066667,27.5223868 Z" id="Shape" fill-rule="nonzero"></path>
                <path d="M13.7262387,16.5032263 C13.6762305,16.5777284 13.5746831,16.5991605 13.5006914,16.548642 L12.9888724,16.2077695 C12.5209383,15.8954733 11.8927737,15.9577284 11.4957695,16.3557531 L10.3552757,17.4957366 L11.076823,18.217284 L12.2178272,17.0767901 C12.2714074,17.0226996 12.3581564,17.0135144 12.4224527,17.0568889 L12.9342716,17.3977613 C13.1980905,17.5733004 13.5129383,17.6350453 13.8226831,17.5738107 C14.132428,17.5115556 14.3998189,17.3324444 14.575358,17.0696461 L15.2229136,16.0990782 L14.3737942,15.5331687 L13.7262387,16.5032263 Z" id="Path"></path>
                <polygon id="Path" points="23.1783045 15.6153251 22.2245761 13.7078683 19.29093 14.2946996 19.490963 15.2953745 21.6601975 14.8616296 22.7476214 17.0364774 26.7880823 14.7274239 26.2818765 13.8415638"></polygon>
                <polygon id="Path" points="22.312856 8.83053498 20.4651029 12.5255309 21.3785185 12.9817284 22.5924938 10.5537778 23.9519012 11.9131852 27.3723621 9.06373663 26.7181728 8.27942387 24.015177 10.532856"></polygon>
                <polygon id="Path" points="22.165893 5.02378601 23.6375638 6.49545679 25.9808066 1.22418107 25.048 0.80982716 23.3089383 4.72373663 21.7193909 3.1341893 19.6032263 9.48268313 18.0881811 8.72541564 17.6319835 9.63832099 20.1992428 10.9216955"></polygon>
                <polygon id="Path" points="7.88241975 11.787144 7.42622222 12.7000494 8.95045267 13.4619095 8.25033745 14.511572 9.09945679 15.0779918 10.4404938 13.0659259"></polygon>
                <polygon id="Path" points="12.6582058 12.0678025 14.6371029 12.7270947 14.9596049 11.7595885 13.8767737 11.3983045 14.2727572 9.81539095 13.2827984 9.56841152"></polygon>
                <path d="M11.8223539,8.95453498 L12.6714733,8.38862551 C11.5544527,6.71283951 9.40001646,6.15815638 9.3086749,6.1357037 L9.0606749,7.12515226 C9.07904527,7.12974486 10.9273086,7.61196708 11.8223539,8.95453498 Z" id="Path"></path>
                <path d="M13.6282634,6.77968724 C12.534716,5.68613992 10.9446584,5.14778601 10.8773004,5.12584362 L10.5542881,6.09334979 C10.5685761,6.09845267 11.9815638,6.5760823 12.9062058,7.50123457 L13.6282634,6.77968724 Z" id="Path"></path>
            </g>
        </g>
    </g>
</svg>