<?xml version="1.0" encoding="UTF-8"?>
<svg width="28px" height="29px" viewBox="0 0 28 29" version="1.1" xmlns="http://www.w3.org/2000/svg" xmlns:xlink="http://www.w3.org/1999/xlink">
    <!-- Generator: sketchtool 52.1 (67048) - http://www.bohemiancoding.com/sketch -->
    <title>30138D64-4DD6-48BB-B79E-7872D3F4BA59</title>
    <desc>Created with sketchtool.</desc>
    <g id="*CRM" stroke="none" stroke-width="1" fill="none" fill-rule="evenodd">
        <g id="Demanda-Inducida-012" transform="translate(-865.000000, -167.000000)" fill="#3962E6">
            <g id="Paciente-1" transform="translate(865.000000, 167.000000)">
                <polygon id="Path" points="6.32258065 22.1263226 5.41935484 22.1263226 5.41935484 23.0295484 4.51612903 23.0295484 4.51612903 23.9327742 5.41935484 23.9327742 5.41935484 24.836 6.32258065 24.836 6.32258065 23.9327742 7.22580645 23.9327742 7.22580645 23.0295484 6.32258065 23.0295484"></polygon>
                <path d="M27.0990323,13.067871 L27.0895484,13.0154839 C26.978,12.3836774 26.5864516,12.1831613 26.3330968,12.1203871 L25.4574194,11.7712903 L25.3788387,11.7478065 C25.2623226,11.7243226 25.1412903,11.7306452 25.0202581,11.751871 C24.6792903,11.4809032 23.7309032,10.8807097 22.4374839,11.3106452 C20.9010968,11.8227742 19.9870323,14.8810968 19.888129,15.2279355 L19.8768387,15.2794194 C19.8745806,15.2925161 19.7273548,16.1519355 19.255871,17.1188387 C17.0605806,16.6952258 16.7674839,15.0111613 16.7309032,14.56 C18.4912903,13.9665806 19.2658065,12.7115484 19.6049677,11.7297419 C20.4124516,11.6606452 21.677871,11.1345161 21.677871,9.48070968 C21.677871,8.85567742 21.4949677,8.39412903 21.2262581,8.05496774 L21.2262581,4.51341935 C21.2262581,4.34722581 21.1494839,0.448903226 14.4520645,0.448903226 C7.75464516,0.448903226 7.67787097,4.34722581 7.67787097,4.51341935 L7.67787097,8.05541935 C7.40916129,8.39458065 7.22625806,8.85612903 7.22625806,9.48116129 C7.22625806,11.1349677 8.49122581,11.6610968 9.29916129,11.7301935 C9.63922581,12.7142581 10.4164516,13.9733548 12.185871,14.5645161 C12.1560645,14.8580645 12.0083871,15.666 11.2903226,16.3104516 L11.2903226,15.352129 L0.451612903,15.352129 L0.451612903,19.4166452 L1.26858065,19.4166452 C0.467870968,20.0949677 0,21.117871 0,22.3652258 L0,28.4489032 L11.7419355,28.4489032 L20.3225806,28.4489032 L20.3225806,24.743871 C22.2609032,27.762 24.0678065,27.9810323 24.351871,27.9959355 C24.3893548,28 24.4598065,28.0054194 24.5569032,28.0054194 C24.9389677,28.0054194 25.7256774,27.9169032 26.4572903,27.2819355 C27.4810968,26.3945161 28,24.8116129 28,22.5779355 C28,18.1923226 27.322129,14.3355484 27.0990323,13.067871 Z M22.7233548,12.1673548 C23.371871,11.9514839 23.8867097,12.118129 24.1969677,12.2865806 C24.0339355,12.507871 23.9350323,12.7639355 23.9350323,13.0091613 L23.9350323,13.0936129 C23.5416774,13.0936129 23.189871,13.3180645 23.016,13.6793548 C22.848,14.0289032 22.8918065,14.4321935 23.122129,14.7194194 L23.9300645,15.7965161 C23.8889677,15.9649677 23.5674194,16.2549032 22.5801935,16.2549032 C22.1177419,16.2549032 22.0165806,16.0828387 21.946129,15.1714839 C21.9118065,14.7284516 21.8562581,14.0718065 21.4263226,13.7457419 C21.8002581,12.9892903 22.2613548,12.3218065 22.7233548,12.1673548 Z M20.7633548,15.4528387 C20.8243226,15.2428387 20.9015484,15.0070968 20.9927742,14.7609677 C21.0121935,14.8747742 21.0298065,15.0274194 21.0465161,15.2410323 C21.1020645,15.9581935 21.1946452,17.1585806 22.5806452,17.1585806 C23.430129,17.1585806 23.9589677,16.9702581 24.2895484,16.7340645 L23.5190968,20.8432903 C23.1614194,20.8721935 22.5381935,20.7972258 22.0531613,20.0696774 C21.5563871,19.3245161 20.588129,18.9465161 19.1501935,18.9424516 C20.361871,17.5130968 20.7177419,15.7120645 20.7633548,15.4528387 Z M19.8357419,10.7763871 C19.8682581,10.5406452 19.8709677,10.3920645 19.8709677,10.3843871 L19.8709677,8.19677419 C20.2729032,8.31509677 20.7741935,8.63167742 20.7741935,9.48116129 C20.7741935,10.3554839 20.2421935,10.6666452 19.8357419,10.7763871 Z M8.12903226,9.48116129 C8.12903226,8.63167742 8.63032258,8.31509677 9.03225806,8.19677419 L9.03225806,10.3843871 C9.03225806,10.3925161 9.03496774,10.5406452 9.06748387,10.7763871 C8.66058065,10.6661935 8.12903226,10.3550323 8.12903226,9.48116129 Z M9.93548387,10.3843871 L9.93548387,5.99922581 C10.0650968,5.82445161 10.4570968,5.41664516 11.2903226,5.41664516 C12.4310968,5.41664516 13.2223226,6.18122581 13.2290968,6.18754839 L13.8676774,5.54896774 C13.8252258,5.50651613 12.8145161,4.51341935 11.2903226,4.51341935 C9.67490323,4.51341935 9.1036129,5.61941935 9.07967742,5.6663871 L9.03225806,5.76167742 L9.03225806,7.27006452 C8.8863871,7.29851613 8.73374194,7.34096774 8.58064516,7.40103226 L8.58064516,4.51703226 C8.58290323,4.38787097 8.70122581,1.35212903 14.4516129,1.35212903 C20.202,1.35212903 20.3203226,4.38787097 20.3225806,4.51341935 L20.3225806,7.40103226 C20.1694839,7.34096774 20.0168387,7.29851613 19.8709677,7.27006452 L19.8709677,5.86825806 L18.9677419,5.86825806 L18.9677419,10.3843871 C18.9677419,10.5320645 18.9162581,13.9972903 14.4516129,13.9972903 C10.0127097,13.9972903 9.9363871,10.5302581 9.93548387,10.3843871 Z M14.4516129,14.9005161 C14.966,14.9005161 15.4311613,14.8585161 15.8525161,14.784 C15.9139355,15.2130323 16.1018065,15.982129 16.6749032,16.6762581 C16.5123226,16.945871 15.9590968,17.6101935 14.4516129,17.6101935 C12.9025806,17.6101935 12.3656129,16.9192258 12.2183871,16.6604516 C12.8154194,15.9712903 13.006,15.2134839 13.0669677,14.7871613 C13.4838065,14.859871 13.944,14.9005161 14.4516129,14.9005161 Z M1.35483871,18.5134194 L1.35483871,16.2553548 L10.3870968,16.2553548 L10.3870968,18.5134194 L7.3883871,18.5134194 L3.94529032,18.5134194 L1.35483871,18.5134194 Z M7.3883871,19.4166452 C8.33,19.4166452 9.27612903,19.7237419 9.93954839,20.319871 L1.61812903,20.319871 C2.1456129,19.7418065 2.94270968,19.4166452 3.94529032,19.4166452 L7.3883871,19.4166452 Z M1.08658065,21.2230968 L3.66258065,21.2230968 C3.07548387,21.7975484 2.70967742,22.5969032 2.70967742,23.4811613 C2.70967742,24.3654194 3.07548387,25.1647742 3.66258065,25.7392258 L0.903225806,25.7392258 L0.903225806,22.3652258 C0.903225806,21.9452258 0.967806452,21.5640645 1.08658065,21.2230968 Z M3.61290323,23.4811613 C3.61290323,22.2360645 4.62587097,21.2230968 5.87096774,21.2230968 C7.11606452,21.2230968 8.12903226,22.2360645 8.12903226,23.4811613 C8.12903226,24.7262581 7.11606452,25.7392258 5.87096774,25.7392258 C4.62587097,25.7392258 3.61290323,24.7258065 3.61290323,23.4811613 Z M9.03225806,23.4811613 C9.03225806,22.5969032 8.66645161,21.7975484 8.07935484,21.2230968 L10.6007097,21.2230968 C10.7501935,21.5590968 10.8387097,21.9384516 10.8387097,22.3652258 L10.8387097,25.7392258 L8.07935484,25.7392258 C8.66645161,25.1647742 9.03225806,24.3654194 9.03225806,23.4811613 Z M0.903225806,27.5456774 L0.903225806,26.6424516 L10.8387097,26.6424516 L10.8387097,27.5456774 L0.903225806,27.5456774 Z M19.4193548,27.5456774 L11.7419355,27.5456774 L11.7419355,22.3652258 C11.7419355,21.1558065 11.172,20.112129 10.2470968,19.4166452 L11.2903226,19.4166452 L11.2903226,17.421871 C11.3765806,17.3712903 11.457871,17.3184516 11.536,17.2642581 C11.880129,17.757871 12.6939355,18.5129677 14.4516129,18.5129677 C16.1709032,18.5129677 16.9847097,17.7912903 17.3419355,17.2976774 C17.7185806,17.5672903 18.1896129,17.794 18.7767097,17.9416774 C18.6078065,18.1864516 18.4172258,18.4253548 18.1972903,18.6452903 C18.06,18.7825806 17.696,19.1465806 17.8757419,19.5408387 C17.9371613,19.675871 18.1065161,19.8971613 18.5486452,19.8669032 C19.9761935,19.7652903 20.9281935,20.0087097 21.302129,20.5700645 C21.6042581,21.0234839 21.9632903,21.3143226 22.3272903,21.4945161 L20.3266452,22.9234194 C20.3252903,22.9211613 20.3243871,22.9193548 20.3234839,22.9170968 L20.3234839,20.7710323 L19.4202581,20.7710323 L19.4202581,27.5456774 L19.4193548,27.5456774 Z M25.8810323,26.5864516 C25.2045161,27.1848387 24.4774194,27.1017419 24.4507742,27.0985806 L24.3947742,27.0940645 C24.3762581,27.0936129 22.6529032,26.983871 20.7606452,23.7232258 L23.3217419,21.8937419 L23.0394839,23.3980645 L23.9273548,23.5642581 L25.3187742,16.1433548 L23.836129,14.1670968 C23.8270968,14.1558065 23.8036129,14.1264516 23.8302581,14.0713548 C23.836129,14.0591613 23.8690968,13.9972903 23.9350323,13.9972903 L24.8382581,13.9972903 L24.8382581,13.0096129 C24.8382581,12.9378065 24.9055484,12.8086452 25.018,12.7165161 C25.0866452,12.6600645 25.1467097,12.6374839 25.1810323,12.6334194 L26.0309677,12.972129 L26.1095484,12.9956129 C26.1280645,12.9992258 26.1709677,13.0078065 26.199871,13.1717419 L26.2093548,13.224129 C26.4288387,14.4723871 27.0967742,18.2713548 27.0967742,22.5779355 C27.0967742,24.4977419 26.6763226,25.8837419 25.8810323,26.5864516 Z" id="Shape" fill-rule="nonzero"></path>
                <path d="M1.73103226,7.56316129 L1.03554839,8.25864516 L1.67412903,8.89722581 L2.3696129,8.20174194 C2.60625806,8.35845161 2.8736129,8.4736129 3.16129032,8.53232258 L3.16129032,9.48116129 L4.06451613,9.48116129 L4.06451613,8.53232258 C4.35219355,8.4736129 4.61954839,8.35890323 4.85619355,8.20174194 L5.55167742,8.89722581 L6.19025806,8.25864516 L5.49477419,7.56316129 C5.65193548,7.32651613 5.76664516,7.05916129 5.82535484,6.77148387 L6.77419355,6.77148387 L6.77419355,5.86825806 L5.82535484,5.86825806 C5.76664516,5.58058065 5.65193548,5.31322581 5.49477419,5.07658065 L6.19025806,4.38109677 L5.55167742,3.74251613 L4.85619355,4.438 C4.61954839,4.28083871 4.35219355,4.16612903 4.06451613,4.10741935 L4.06451613,3.15858065 L3.16129032,3.15858065 L3.16129032,4.10741935 C2.8736129,4.16612903 2.60625806,4.28083871 2.3696129,4.438 L1.67412903,3.74251613 L1.03554839,4.38109677 L1.73103226,5.07658065 C1.57387097,5.31322581 1.45916129,5.58058065 1.40045161,5.86825806 L0.451612903,5.86825806 L0.451612903,6.77148387 L1.40045161,6.77148387 C1.45916129,7.05916129 1.57387097,7.32606452 1.73103226,7.56316129 Z M3.61290323,4.96503226 C4.35987097,4.96503226 4.96774194,5.57290323 4.96774194,6.31987097 C4.96774194,7.06683871 4.35987097,7.67470968 3.61290323,7.67470968 C2.86593548,7.67470968 2.25806452,7.06683871 2.25806452,6.31987097 C2.25806452,5.57290323 2.86593548,4.96503226 3.61290323,4.96503226 Z" id="Shape" fill-rule="nonzero"></path>
                <path d="M5.64516129,10.836 C4.77354839,10.836 4.06451613,11.5450323 4.06451613,12.4166452 C4.06451613,13.2882581 4.77354839,13.9972903 5.64516129,13.9972903 C6.51677419,13.9972903 7.22580645,13.2882581 7.22580645,12.4166452 C7.22580645,11.5450323 6.51677419,10.836 5.64516129,10.836 Z M5.64516129,13.0940645 C5.27167742,13.0940645 4.96774194,12.790129 4.96774194,12.4166452 C4.96774194,12.0431613 5.27167742,11.7392258 5.64516129,11.7392258 C6.01864516,11.7392258 6.32258065,12.0431613 6.32258065,12.4166452 C6.32258065,12.790129 6.01864516,13.0940645 5.64516129,13.0940645 Z" id="Shape" fill-rule="nonzero"></path>
                <path d="M15.4022581,6.07012903 L16.2101935,5.66593548 C15.6809032,4.60780645 14.2050323,4.1056129 14.1427097,4.08483871 L13.8568387,4.94154839 C14.1847097,5.05083871 15.1005806,5.46632258 15.4022581,6.07012903 Z" id="Path"></path>
                <path d="M17.6603226,6.07012903 L18.4682581,5.66593548 C17.9389677,4.60780645 16.4630968,4.1056129 16.4007742,4.08483871 L16.1149032,4.94154839 C16.4427742,5.05083871 17.3586452,5.46632258 17.6603226,6.07012903 Z" id="Path"></path>
                <polygon id="Path" points="13.2837419 8.57793548 11.6096129 6.90380645 10.9710323 7.5423871 12.0065806 8.57793548 10.9710323 9.61348387 11.6096129 10.2520645"></polygon>
                <polygon id="Path" points="17.2936129 6.90380645 15.6194839 8.57793548 17.2936129 10.2520645 17.9321935 9.61348387 16.8966452 8.57793548 17.9321935 7.5423871"></polygon>
                <path d="M15.4483226,12.0585161 C15.5603226,11.9465161 15.7472903,11.7595484 15.7987742,11.7387742 C15.9609032,11.7595484 16.458129,12.1271613 16.8424516,12.510129 L17.4810323,11.8710968 C17.169871,11.5599355 16.3831613,10.8355484 15.8069032,10.8355484 C15.394129,10.8355484 15.083871,11.1458065 14.8101935,11.4194839 C14.6981935,11.5314839 14.5112258,11.7184516 14.4714839,11.7405806 C14.3929032,11.718 14.2059355,11.5310323 14.0943871,11.4194839 C13.8207097,11.1458065 13.5104516,10.8355484 13.0976774,10.8355484 C12.5214194,10.8355484 11.7347097,11.5599355 11.4235484,11.8710968 L12.062129,12.510129 C12.4464516,12.1267097 12.9436774,11.7590968 13.0787097,11.7369677 C13.1572903,11.7595484 13.3442581,11.9465161 13.4558065,12.0580645 C13.7294839,12.3317419 14.0397419,12.642 14.4525161,12.642 C14.8652903,12.642 15.1746452,12.3321935 15.4483226,12.0585161 Z" id="Path"></path>
                <path d="M23.2418065,9.90974194 L23.9255484,9.226 C24.200129,9.38812903 24.5108387,9.48116129 24.8382581,9.48116129 C25.1656774,9.48116129 25.4763871,9.38812903 25.7509677,9.226 L26.4347097,9.90974194 L27.0732903,9.27116129 L26.3895484,8.58741935 C26.552129,8.31283871 26.6451613,8.00167742 26.6451613,7.67470968 C26.6451613,7.34774194 26.552129,7.03658065 26.39,6.76154839 L27.0737419,6.07780645 L26.4351613,5.43922581 L25.7509677,6.12341935 C25.1882581,5.79283871 24.4887097,5.79283871 23.9255484,6.12341935 L23.2413548,5.43922581 L22.6027742,6.07780645 L23.2865161,6.76154839 C23.1252903,7.03612903 23.0322581,7.34729032 23.0322581,7.67470968 C23.0322581,8.00212903 23.1252903,8.31283871 23.2874194,8.58741935 L22.6036774,9.27116129 L23.2418065,9.90974194 Z M25.4772903,7.03567742 C25.648,7.2063871 25.7419355,7.43309677 25.7419355,7.67470968 C25.7419355,7.91632258 25.648,8.14258065 25.4772903,8.31329032 C25.135871,8.65470968 24.5415484,8.65470968 24.200129,8.31329032 C24.0294194,8.14258065 23.9354839,7.91587097 23.9354839,7.67470968 C23.9354839,7.43354839 24.0294194,7.2063871 24.200129,7.03567742 C24.3762581,6.85954839 24.6074839,6.77193548 24.8387097,6.77193548 C25.0699355,6.77193548 25.3011613,6.85954839 25.4772903,7.03567742 Z" id="Shape" fill-rule="nonzero"></path>
            </g>
        </g>
    </g>
</svg>