<?xml version="1.0" encoding="UTF-8"?>
<svg width="30px" height="31px" viewBox="0 0 30 31" version="1.1" xmlns="http://www.w3.org/2000/svg" xmlns:xlink="http://www.w3.org/1999/xlink">
    <!-- Generator: sketchtool 52.1 (67048) - http://www.bohemiancoding.com/sketch -->
    <title>0B632FA8-0F91-4652-8FC7-DE9F423BC775</title>
    <desc>Created with sketchtool.</desc>
    <g id="*CRM" stroke="none" stroke-width="1" fill="none" fill-rule="evenodd">
        <g id="Demanda-Inducida-001" transform="translate(-867.000000, -342.000000)" fill="#2AB7CA">
            <g id="Grupo-paciente" transform="translate(867.000000, 342.000000)">
                <polygon id="Path" points="5.32258065 10.6495161 4.35483871 10.6495161 4.35483871 12.101129 2.90322581 12.101129 2.90322581 13.068871 4.35483871 13.068871 4.35483871 14.5204839 5.32258065 14.5204839 5.32258065 13.068871 6.77419355 13.068871 6.77419355 12.101129 5.32258065 12.101129"></polygon>
                <path d="M7.74193548,6.77854839 L1.93548387,6.77854839 L1.93548387,9.68177419 L7.74193548,9.68177419 L7.74193548,6.77854839 Z M6.77419355,8.71403226 L2.90322581,8.71403226 L2.90322581,7.74629032 L6.77419355,7.74629032 L6.77419355,8.71403226 Z" id="Shape" fill-rule="nonzero"></path>
                <path d="M26.8814516,22.3437097 C25.8633871,21.6653226 24.8869355,21.2656452 24.1025806,20.9443548 C22.7104839,20.3753226 21.9435484,20.0574194 21.8008065,18.8404839 C22.3775806,18.566129 22.8919355,18.1887097 23.3322581,17.696129 C23.7914516,17.1832258 24.138871,16.5875806 24.405,15.9609677 C25.2585484,15.8835484 26.5717742,15.3290323 26.6095161,13.6243548 L28.0882258,7.21645161 L28.0258065,7.07129032 C25.0219355,0.0633870968 17.4633871,0.484354839 17.4193548,0.488225806 C14.6932258,0.488225806 13.0645161,2.21032258 13.0645161,3.87532258 C13.0645161,3.92854839 13.0766129,3.97209677 13.08,4.02290323 C10.7675806,4.97467742 10.4690323,7.21306452 10.6519355,8.30951613 L12.101129,13.6330645 C12.1427419,15.3319355 13.4540323,15.8845161 14.306129,15.9614516 C14.5722581,16.5875806 14.9187097,17.1837097 15.3774194,17.696129 C15.8095161,18.1790323 16.3127419,18.551129 16.8759677,18.8245161 C16.7593548,19.3156452 16.4114516,20.0801613 15.3662903,20.3414516 C14.0191935,20.6782258 12.5675806,21.4906452 11.7609677,22.3896774 C11.4774194,22.0562903 10.9867742,21.7785484 10.1608065,21.7785484 C8.62983871,21.7785484 8.22532258,22.7279032 8.22532258,23.2301613 L8.22532258,28.068871 C8.22532258,28.1279032 8.20306452,29.5204839 6.28983871,29.5204839 C4.43467742,29.5204839 4.35725806,28.2135484 4.35435484,28.068871 L4.35435484,23.2301613 L5.32209677,23.2301613 L5.32209677,20.3269355 L5.80596774,20.3269355 L5.80596774,18.3914516 L7.74145161,18.3914516 C8.64580645,18.3914516 9.67693548,17.3603226 9.67693548,16.4559677 L9.67693548,4.84306452 L0,4.84306452 L0,16.4559677 C0,17.3603226 1.03112903,18.3914516 1.93548387,18.3914516 L1.93548387,20.3269355 L2.41935484,20.3269355 L2.41935484,23.2301613 L3.38709677,23.2301613 L3.38709677,28.068871 C3.38709677,28.9054839 3.99387097,30.4882258 6.29032258,30.4882258 C8.58677419,30.4882258 9.19354839,28.9054839 9.19354839,28.068871 L9.19306452,23.2437097 C9.19887097,23.1609677 9.27048387,22.7462903 10.1612903,22.7462903 C11.0520968,22.7462903 11.1237097,23.1609677 11.1290323,23.2301613 L11.1290323,26.1333871 L10.1612903,26.1333871 L10.1612903,30.4882258 L12.5806452,30.4882258 L13.0645161,30.4882258 L30,30.4882258 L30,30.0043548 C30,29.7764516 29.9646774,24.3991935 26.8814516,22.3437097 Z M8.70967742,5.81080645 L8.70967742,15.4882258 L0.967741935,15.4882258 L0.967741935,5.81080645 L8.70967742,5.81080645 Z M0.967741935,16.4559677 L8.70967742,16.4559677 C8.70967742,16.8270968 8.11306452,17.4237097 7.74193548,17.4237097 L5.80645161,17.4237097 L1.93548387,17.4237097 C1.56435484,17.4237097 0.967741935,16.8266129 0.967741935,16.4559677 Z M4.83870968,18.3914516 L4.83870968,19.3591935 L2.90322581,19.3591935 L2.90322581,18.3914516 L4.83870968,18.3914516 Z M4.35483871,20.3269355 L4.35483871,22.2624194 L3.38709677,22.2624194 L3.38709677,20.3269355 L4.35483871,20.3269355 Z M24.7751613,14.8974194 C25.0282258,13.9920968 25.143871,13.0833871 25.1893548,12.3009677 C25.4216129,12.4872581 25.6451613,12.8491935 25.6451613,13.5527419 C25.6451613,14.3951613 25.1845161,14.748871 24.7751613,14.8974194 Z M13.0645161,13.5527419 C13.0645161,12.8458065 13.286129,12.4843548 13.5203226,12.2980645 C13.5658065,13.0809677 13.6785484,13.9896774 13.9316129,14.8959677 C13.5227419,14.7469355 13.0645161,14.3927419 13.0645161,13.5527419 Z M16.1003226,17.0525806 C14.0409677,14.7546774 14.5079032,10.263871 14.516129,10.1724194 C14.5195161,10.061129 14.5896774,9.07354839 16.0848387,8.7 L15.8506452,7.76129032 C13.7206452,8.29403226 13.5614516,9.87096774 13.5493548,10.1317742 C13.5387097,10.2343548 13.5014516,10.6432258 13.4946774,11.2277419 C13.1941935,11.3279032 12.8743548,11.52 12.6154839,11.8412903 L11.6027419,8.12903226 C11.5669355,7.88032258 11.3429032,5.83645161 13.3683871,4.95 C13.7632258,5.55919355 14.4667742,5.81080645 15,5.81080645 L15,4.84306452 C14.8383871,4.84306452 14.0322581,4.7966129 14.0322581,3.87532258 C14.0322581,2.68596774 15.2990323,1.45596774 17.4508065,1.455 C17.7329032,1.4366129 24.3067742,1.09112903 27.0730645,7.30935484 L26.0424194,11.7745161 C25.7932258,11.4909677 25.4951613,11.3206452 25.215,11.2272581 C25.2072581,10.5958065 25.1646774,10.1690323 25.1583871,10.1119355 L25.1322581,9.87919355 L24.933871,9.75483871 C24.7708065,9.65322581 20.9158065,7.26193548 18.3870968,7.26193548 C17.4237097,7.26193548 17.096129,7.01709677 16.9862903,6.87096774 C16.8445161,6.68177419 16.9103226,6.44903226 16.9132258,6.43935484 L16.4516129,6.29467742 L15.9929032,6.14177419 C15.9691935,6.21241935 15.7756452,6.84677419 16.1966129,7.43032258 C16.578871,7.96112903 17.3158065,8.23016129 18.3870968,8.23016129 C20.3346774,8.23016129 23.3995161,9.96774194 24.2158065,10.4520968 C24.2816129,11.4058065 24.4016129,15.0498387 22.6112903,17.0506452 C21.8148387,17.94 20.7198387,18.3914516 19.3553226,18.3914516 C17.9912903,18.3914516 16.8962903,17.9409677 16.1003226,17.0525806 Z M19.3548387,19.3591935 C19.8953226,19.3591935 20.3990323,19.2929032 20.8712903,19.173871 C21.0464516,20.1590323 21.5670968,20.7256452 22.2580645,21.146129 L22.2580645,22.7448387 C22.2575806,22.803871 22.2382258,24.1979032 21.2903226,24.1979032 L19.8387097,24.1979032 L19.8387097,22.7462903 L18.8709677,22.7462903 L18.8709677,24.1979032 L17.4193548,24.1979032 C16.4714516,24.1979032 16.4520968,22.803871 16.4516129,22.7462903 L16.4516129,20.9337097 C17.216129,20.4808065 17.6109677,19.7743548 17.786129,19.1612903 C18.2729032,19.2895161 18.7940323,19.3591935 19.3548387,19.3591935 Z M12.0967742,29.5204839 L11.1290323,29.5204839 L11.1290323,27.101129 L12.0967742,27.101129 L12.0967742,29.5204839 Z M13.0645161,29.5204839 L13.0645161,26.1333871 L12.0967742,26.1333871 L12.0967742,23.7140323 C12.0967742,23.1256452 13.6354839,21.813871 15.483871,21.3130645 L15.483871,22.7462903 C15.483871,23.5829032 15.8883871,25.1656452 17.4193548,25.1656452 L19.3548387,25.1656452 L19.8387097,25.1656452 L21.2903226,25.1656452 C22.8212903,25.1656452 23.2258065,23.5829032 23.2258065,22.7462903 L23.2258065,21.6285484 C23.3922581,21.6996774 23.5625806,21.7698387 23.7358065,21.8404839 C24.5191935,22.1608065 25.4075806,22.5241935 26.3448387,23.148871 C28.5077419,24.5908065 28.9306452,28.2087097 29.0129032,29.5204839 L13.0645161,29.5204839 Z" id="Shape" fill-rule="nonzero"></path>
                <path d="M21.5806452,15.8758065 L21.0004839,15.1016129 C19.3877419,16.3108065 17.7769355,15.1504839 17.7082258,15.1006452 L17.1290323,15.8758065 C17.5824194,16.2154839 18.4340323,16.6127419 19.4172581,16.6127419 C20.1048387,16.6127419 20.8567742,16.4187097 21.5806452,15.8758065 Z" id="Path"></path>
                <path d="M18.1185484,11.2146774 C17.0501613,11.9269355 16.3775806,11.34 16.3054839,11.2708065 L15.6256452,11.9593548 C15.8854839,12.2196774 16.4201613,12.528871 17.1116129,12.528871 C17.5683871,12.528871 18.0948387,12.393871 18.6551613,12.0198387 L18.1185484,11.2146774 Z" id="Path"></path>
                <path d="M23.0104839,12.0198387 L22.473871,11.2146774 C21.4054839,11.9269355 20.7329032,11.34 20.6608065,11.2708065 L19.9809677,11.9593548 C20.2408065,12.2196774 20.7754839,12.528871 21.4669355,12.528871 C21.9237097,12.528871 22.4496774,12.393871 23.0104839,12.0198387 Z" id="Path"></path>
                <path d="M25.2522581,8.51225806 L26.0390323,7.94903226 C25.9345161,7.80241935 23.4280645,4.35919355 19.3548387,4.35919355 L19.3548387,5.32693548 C22.9219355,5.32693548 25.2290323,8.48032258 25.2522581,8.51225806 Z" id="Path"></path>
                <path d="M13.8159677,6.34596774 C13.7690323,6.36919355 12.6629032,6.93822581 12.1219355,8.56112903 L13.0393548,8.86741935 C13.4472581,7.64419355 14.22,7.2266129 14.2529032,7.20967742 L14.0322581,6.77854839 L13.8159677,6.34596774 Z" id="Path"></path>
            </g>
        </g>
    </g>
</svg>