<?xml version="1.0" encoding="UTF-8"?>
<svg width="28px" height="29px" viewBox="0 0 28 29" version="1.1" xmlns="http://www.w3.org/2000/svg" xmlns:xlink="http://www.w3.org/1999/xlink">
    <!-- Generator: sketchtool 52.1 (67048) - http://www.bohemiancoding.com/sketch -->
    <title>5B4087E1-A3A2-4AB0-8240-63DA6FAC8731</title>
    <desc>Created with sketchtool.</desc>
    <g id="*CRM" stroke="none" stroke-width="1" fill="none" fill-rule="evenodd">
        <g id="Demanda-Inducida-012" transform="translate(-865.000000, -270.000000)" fill="#2FCC71">
            <g id="Paciente-3" transform="translate(865.000000, 270.000000)">
                <polygon id="Path" points="4.96774194 9.93954839 4.06451613 9.93954839 4.06451613 11.2943871 2.70967742 11.2943871 2.70967742 12.1976129 4.06451613 12.1976129 4.06451613 13.5524516 4.96774194 13.5524516 4.96774194 12.1976129 6.32258065 12.1976129 6.32258065 11.2943871 4.96774194 11.2943871"></polygon>
                <path d="M7.22580645,6.32664516 L1.80645161,6.32664516 L1.80645161,9.03632258 L7.22580645,9.03632258 L7.22580645,6.32664516 Z M6.32258065,8.13309677 L2.70967742,8.13309677 L2.70967742,7.22987097 L6.32258065,7.22987097 L6.32258065,8.13309677 Z" id="Shape" fill-rule="nonzero"></path>
                <path d="M25.0893548,20.854129 C24.1391613,20.2209677 23.2278065,19.8479355 22.4957419,19.5480645 C21.1964516,19.0169677 20.4806452,18.7202581 20.3474194,17.5844516 C20.8857419,17.3283871 21.3658065,16.976129 21.7767742,16.5163871 C22.2053548,16.0376774 22.5296129,15.4817419 22.778,14.8969032 C23.5746452,14.8246452 24.8003226,14.3070968 24.8355484,12.7160645 L26.2156774,6.73535484 L26.1574194,6.59987097 C23.3538065,0.0591612903 16.2991613,0.452064516 16.2580645,0.455677419 C13.7136774,0.455677419 12.1935484,2.06296774 12.1935484,3.61696774 C12.1935484,3.66664516 12.2048387,3.70729032 12.208,3.75470968 C10.0497419,4.64303226 9.77109677,6.73219355 9.94180645,7.75554839 L11.2943871,12.7241935 C11.3332258,14.3098065 12.5570968,14.8255484 13.3523871,14.8973548 C13.6007742,15.4817419 13.924129,16.038129 14.3522581,16.5163871 C14.7555484,16.9670968 15.2252258,17.3143871 15.7509032,17.5695484 C15.6420645,18.0279355 15.3173548,18.7414839 14.341871,18.9853548 C13.0845806,19.2996774 11.7297419,20.0579355 10.9769032,20.8970323 C10.7122581,20.585871 10.2543226,20.3266452 9.48341935,20.3266452 C8.05451613,20.3266452 7.67696774,21.2127097 7.67696774,21.6814839 L7.67696774,26.1976129 C7.67696774,26.2527097 7.65619355,27.5524516 5.87051613,27.5524516 C4.13903226,27.5524516 4.06677419,26.3326452 4.06406452,26.1976129 L4.06406452,21.6814839 L4.96729032,21.6814839 L4.96729032,18.9718065 L5.41890323,18.9718065 L5.41890323,17.1653548 L7.22535484,17.1653548 C8.06941935,17.1653548 9.03180645,16.2029677 9.03180645,15.3589032 L9.03180645,4.52019355 L0,4.52019355 L0,15.3589032 C0,16.2029677 0.962387097,17.1653548 1.80645161,17.1653548 L1.80645161,18.9718065 L2.25806452,18.9718065 L2.25806452,21.6814839 L3.16129032,21.6814839 L3.16129032,26.1976129 C3.16129032,26.9784516 3.7276129,28.4556774 5.87096774,28.4556774 C8.01432258,28.4556774 8.58064516,26.9784516 8.58064516,26.1976129 L8.58019355,21.694129 C8.5856129,21.6169032 8.65245161,21.229871 9.48387097,21.229871 C10.3152903,21.229871 10.382129,21.6169032 10.3870968,21.6814839 L10.3870968,24.3911613 L9.48387097,24.3911613 L9.48387097,28.4556774 L11.7419355,28.4556774 L12.1935484,28.4556774 L28,28.4556774 L28,28.0040645 C28,27.7913548 27.9670323,22.7725806 25.0893548,20.854129 Z M8.12903226,5.42341935 L8.12903226,14.4556774 L0.903225806,14.4556774 L0.903225806,5.42341935 L8.12903226,5.42341935 Z M0.903225806,15.3589032 L8.12903226,15.3589032 C8.12903226,15.7052903 7.57219355,16.262129 7.22580645,16.262129 L5.41935484,16.262129 L1.80645161,16.262129 C1.46006452,16.262129 0.903225806,15.7048387 0.903225806,15.3589032 Z M4.51612903,17.1653548 L4.51612903,18.0685806 L2.70967742,18.0685806 L2.70967742,17.1653548 L4.51612903,17.1653548 Z M4.06451613,18.9718065 L4.06451613,20.7782581 L3.16129032,20.7782581 L3.16129032,18.9718065 L4.06451613,18.9718065 Z M23.1234839,13.9042581 C23.3596774,13.0592903 23.4676129,12.2111613 23.5100645,11.4809032 C23.7268387,11.6547742 23.9354839,11.9925806 23.9354839,12.6492258 C23.9354839,13.4354839 23.5055484,13.7656129 23.1234839,13.9042581 Z M12.1935484,12.6492258 C12.1935484,11.9894194 12.4003871,11.6520645 12.6189677,11.4781935 C12.6614194,12.2089032 12.7666452,13.0570323 13.0028387,13.9029032 C12.6212258,13.7638065 12.1935484,13.4332258 12.1935484,12.6492258 Z M15.0269677,15.9157419 C13.1049032,13.7710323 13.5407097,9.5796129 13.5483871,9.49425806 C13.5515484,9.3903871 13.6170323,8.46864516 15.0125161,8.12 L14.7939355,7.24387097 C12.8059355,7.74109677 12.6573548,9.21290323 12.6460645,9.45632258 C12.636129,9.55206452 12.6013548,9.93367742 12.5950323,10.4792258 C12.3145806,10.5727097 12.0160645,10.752 11.7744516,11.051871 L10.8292258,7.58709677 C10.7958065,7.35496774 10.5867097,5.44735484 12.4771613,4.62 C12.8456774,5.18858065 13.5023226,5.42341935 14,5.42341935 L14,4.52019355 C13.8491613,4.52019355 13.0967742,4.47683871 13.0967742,3.61696774 C13.0967742,2.50690323 14.2790968,1.35890323 16.2874194,1.358 C16.5507097,1.34083871 22.6863226,1.0183871 25.2681935,6.82206452 L24.3062581,10.9895484 C24.0736774,10.7249032 23.7954839,10.5659355 23.534,10.4787742 C23.5267742,9.88941935 23.4870323,9.49109677 23.4811613,9.43780645 L23.4567742,9.22058065 L23.2716129,9.10451613 C23.1194194,9.00967742 19.5214194,6.77780645 17.1612903,6.77780645 C16.262129,6.77780645 15.9563871,6.54929032 15.853871,6.41290323 C15.7215484,6.23632258 15.7829677,6.01909677 15.7856774,6.01006452 L15.3548387,5.87503226 L14.9267097,5.73232258 C14.9045806,5.79825806 14.7239355,6.39032258 15.1168387,6.93496774 C15.4736129,7.4303871 16.1614194,7.68148387 17.1612903,7.68148387 C18.9790323,7.68148387 21.8395484,9.30322581 22.6014194,9.75529032 C22.6628387,10.6454194 22.7748387,14.0465161 21.103871,15.9139355 C20.3605161,16.744 19.3385161,17.1653548 18.0649677,17.1653548 C16.791871,17.1653548 15.769871,16.7449032 15.0269677,15.9157419 Z M18.0645161,18.0685806 C18.5689677,18.0685806 19.0390968,18.0067097 19.479871,17.8956129 C19.6433548,18.8150968 20.1292903,19.3439355 20.7741935,19.7363871 L20.7741935,21.2285161 C20.7737419,21.2836129 20.7556774,22.5847097 19.8709677,22.5847097 L18.516129,22.5847097 L18.516129,21.229871 L17.6129032,21.229871 L17.6129032,22.5847097 L16.2580645,22.5847097 C15.3733548,22.5847097 15.3552903,21.2836129 15.3548387,21.229871 L15.3548387,19.538129 C16.0683871,19.1154194 16.4369032,18.4560645 16.6003871,17.883871 C17.0547097,18.0035484 17.5410968,18.0685806 18.0645161,18.0685806 Z M11.2903226,27.5524516 L10.3870968,27.5524516 L10.3870968,25.2943871 L11.2903226,25.2943871 L11.2903226,27.5524516 Z M12.1935484,27.5524516 L12.1935484,24.3911613 L11.2903226,24.3911613 L11.2903226,22.1330968 C11.2903226,21.5839355 12.7264516,20.3596129 14.4516129,19.8921935 L14.4516129,21.229871 C14.4516129,22.0107097 14.8291613,23.4879355 16.2580645,23.4879355 L18.0645161,23.4879355 L18.516129,23.4879355 L19.8709677,23.4879355 C21.299871,23.4879355 21.6774194,22.0107097 21.6774194,21.229871 L21.6774194,20.1866452 C21.8327742,20.2530323 21.9917419,20.3185161 22.1534194,20.3844516 C22.8845806,20.6834194 23.7137419,21.0225806 24.5885161,21.6056129 C26.6072258,22.9514194 27.0019355,26.328129 27.0787097,27.5524516 L12.1935484,27.5524516 Z" id="Shape" fill-rule="nonzero"></path>
                <path d="M20.1419355,14.8174194 L19.6004516,14.0948387 C18.0952258,15.2234194 16.5918065,14.1404516 16.5276774,14.0939355 L15.9870968,14.8174194 C16.4102581,15.1344516 17.2050968,15.5052258 18.1227742,15.5052258 C18.7645161,15.5052258 19.4663226,15.324129 20.1419355,14.8174194 Z" id="Path"></path>
                <path d="M16.9106452,10.4670323 C15.9134839,11.1318065 15.2857419,10.584 15.2184516,10.5194194 L14.5839355,11.1620645 C14.8264516,11.4050323 15.3254839,11.6936129 15.9708387,11.6936129 C16.3971613,11.6936129 16.8885161,11.5676129 17.4114839,11.2185161 L16.9106452,10.4670323 Z" id="Path"></path>
                <path d="M21.4764516,11.2185161 L20.9756129,10.4670323 C19.9784516,11.1318065 19.3507097,10.584 19.2834194,10.5194194 L18.6489032,11.1620645 C18.8914194,11.4050323 19.3904516,11.6936129 20.0358065,11.6936129 C20.462129,11.6936129 20.9530323,11.5676129 21.4764516,11.2185161 Z" id="Path"></path>
                <path d="M23.5687742,7.94477419 L24.3030968,7.41909677 C24.2055484,7.28225806 21.8661935,4.06858065 18.0645161,4.06858065 L18.0645161,4.97180645 C21.3938065,4.97180645 23.5470968,7.91496774 23.5687742,7.94477419 Z" id="Path"></path>
                <path d="M12.8949032,5.92290323 C12.8510968,5.94458065 11.8187097,6.47567742 11.3138065,7.9903871 L12.1700645,8.27625806 C12.5507742,7.13458065 13.272,6.74483871 13.3027097,6.72903226 L13.0967742,6.32664516 L12.8949032,5.92290323 Z" id="Path"></path>
            </g>
        </g>
    </g>
</svg>