<?xml version="1.0" encoding="UTF-8"?>
<svg width="28px" height="28px" viewBox="0 0 28 28" version="1.1" xmlns="http://www.w3.org/2000/svg" xmlns:xlink="http://www.w3.org/1999/xlink">
    <!-- Generator: sketchtool 52.1 (67048) - http://www.bohemiancoding.com/sketch -->
    <title>F5C1BB43-FD95-4FE0-AFC1-EC3AA1B6CF0B</title>
    <desc>Created with sketchtool.</desc>
    <g id="*CRM" stroke="none" stroke-width="1" fill="none" fill-rule="evenodd">
        <g id="Demanda-Inducida-012" transform="translate(-865.000000, -324.000000)" fill="#FF5964">
            <g id="Paciente-4" transform="translate(865.000000, 324.000000)">
                <path d="M13.0967742,13.9968387 C13.0967742,13.9137419 13.0809677,13.1730968 12.5286452,12.7752258 C12.1696129,12.5164516 11.7053548,12.479871 11.1471613,12.6654839 L11.4330323,13.5217419 C11.5825161,13.4729677 11.8543871,13.403871 11.9989032,13.5068387 C12.1416129,13.608 12.1917419,13.8830323 12.1935484,13.9968387 C12.1935484,14.4231613 11.298,14.4484516 11.2925806,14.4484516 C11.065871,14.4457419 9.93548387,14.3685161 9.93548387,13.0936129 C9.93548387,11.8187097 11.065871,11.7414839 11.2925806,11.7387742 L11.2903226,10.8355484 C10.5094839,10.8355484 9.03225806,11.3074839 9.03225806,13.0936129 C9.03225806,14.8797419 10.5094839,15.3516774 11.2903226,15.3516774 C11.9149032,15.3516774 13.0967742,15.0685161 13.0967742,13.9968387 Z" id="Path"></path>
                <path d="M18.3996129,12.7752258 C18.0410323,12.5164516 17.575871,12.479871 17.018129,12.6654839 L17.304,13.5217419 C17.4534839,13.4729677 17.7253548,13.403871 17.869871,13.5068387 C18.0125806,13.608 18.0627097,13.8830323 18.0645161,13.9968387 C18.0645161,14.4231613 17.1689677,14.4484516 17.1635484,14.4484516 C16.9368387,14.4457419 15.8064516,14.3685161 15.8064516,13.0936129 C15.8064516,11.8187097 16.9368387,11.7414839 17.1635484,11.7387742 L17.1612903,10.8355484 C16.3804516,10.8355484 14.9032258,11.3074839 14.9032258,13.0936129 C14.9032258,14.8797419 16.3804516,15.3516774 17.1612903,15.3516774 C17.785871,15.3516774 18.9677419,15.0685161 18.9677419,13.9968387 C18.9677419,13.9141935 18.9519355,13.1730968 18.3996129,12.7752258 Z" id="Path"></path>
                <polygon id="Path" points="14 17.1337419 12.6451613 16.682129 11.1476129 17.1816129 11.4330323 18.037871 12.6451613 17.634129 14 18.0857419 15.3548387 17.634129 16.5669677 18.037871 16.8523871 17.1816129 15.3548387 16.682129"></polygon>
                <polygon id="Path" points="16.2580645 8.12587097 17.1612903 8.12587097 17.1612903 7.22264516 18.0645161 7.22264516 18.0645161 6.31941935 17.1612903 6.31941935 17.1612903 5.41619355 16.2580645 5.41619355 16.2580645 6.31941935 15.3548387 6.31941935 15.3548387 7.22264516 16.2580645 7.22264516"></polygon>
                <polygon id="Path" points="18.0645161 3.15812903 18.9677419 3.15812903 18.9677419 2.25490323 19.8709677 2.25490323 19.8709677 1.35167742 18.9677419 1.35167742 18.9677419 0.448451613 18.0645161 0.448451613 18.0645161 1.35167742 17.1612903 1.35167742 17.1612903 2.25490323 18.0645161 2.25490323"></polygon>
                <polygon id="Path" points="5.41935484 4.51296774 6.32258065 4.51296774 6.32258065 3.15812903 7.67741935 3.15812903 7.67741935 2.25490323 6.32258065 2.25490323 6.32258065 0.900064516 5.41935484 0.900064516 5.41935484 2.25490323 4.06451613 2.25490323 4.06451613 3.15812903 5.41935484 3.15812903"></polygon>
                <path d="M28,4.06135484 C28,1.42754839 21.9190323,1.35167742 21.2258065,1.35167742 L21.2258065,2.25490323 C23.1415484,2.25490323 27.0967742,2.69658065 27.0967742,4.06135484 C27.0967742,4.97090323 24.2890968,5.59774194 21.1327742,5.79825806 C20.1193548,4.73832258 18.0839355,3.60974194 14,3.60974194 C9.93774194,3.60974194 7.90187097,4.72612903 6.88303226,5.78154839 C3.48148387,5.5123871 0.903225806,4.62767742 0.903225806,3.60974194 C0.903225806,2.28064516 2.63696774,2.25535484 2.71103226,2.25490323 L2.70967742,1.35167742 C1.77258065,1.35167742 0,1.8236129 0,3.60974194 C0,5.48890323 3.21909677,6.33025806 6.24174194,6.63148387 C5.94051613,7.1643871 5.88090323,7.56767742 5.87458065,7.61825806 L5.87096774,11.667871 C5.60225806,12.0070323 5.41935484,12.4685806 5.41935484,13.0936129 C5.41935484,14.5970323 6.46483871,15.1674194 7.26148387,15.3110323 C7.39154839,16.2847097 8.00077419,18.7324516 10.8387097,19.8036774 L10.8387097,20.3334194 C4.16658065,20.6292258 2.73270968,27.3867097 2.71870968,27.4567097 L2.61032258,27.9968387 L14,27.9968387 L25.3896774,27.9968387 L25.2817419,27.4567097 C25.2672903,27.3867097 23.8334194,20.6292258 17.1612903,20.333871 L17.1612903,19.804129 C19.9987742,18.7329032 20.6084516,16.2847097 20.7385161,15.3114839 C21.5351613,15.167871 22.5806452,14.5970323 22.5806452,13.0936129 C22.5806452,12.4685806 22.3977419,12.0070323 22.1290323,11.667871 L22.1290323,7.67425806 L22.1254194,7.61825806 C22.1190968,7.56858065 22.0612903,7.18154839 21.7772258,6.66625806 C24.550129,6.45625806 28,5.838 28,4.06135484 Z M6.32258065,13.0936129 C6.32258065,12.244129 6.82387097,11.9275484 7.22580645,11.8092258 L7.22580645,14.378 C6.82387097,14.2596774 6.32258065,13.9430968 6.32258065,13.0936129 Z M10.3157419,21.2736774 C10.5289032,21.2506452 10.7479355,21.2352903 10.9741935,21.2276129 C11.2171613,21.7736129 11.7532258,22.4600645 12.6876129,22.8069032 L10.9475484,23.8009032 C10.6594194,23.3899355 10.1906452,22.5115484 10.3157419,21.2736774 Z M24.2543226,27.0936129 L21.1445161,27.0936129 L20.7656129,25.1986452 L19.88,25.376129 L20.2236774,27.0940645 L14,27.0940645 L7.77677419,27.0940645 L8.12045161,25.376129 L7.23483871,25.1986452 L6.85593548,27.0936129 L3.74567742,27.0936129 C4.15529032,25.7419355 5.558,22.2997419 9.39806452,21.4263226 C9.29012903,23.4463871 10.463871,24.6476774 10.5194194,24.7032258 L10.7632903,24.9470968 L14,23.0977419 L17.2367097,24.9470968 L17.4805806,24.7032258 C17.5365806,24.6476774 18.709871,23.4463871 18.6019355,21.4263226 C22.442,22.2997419 23.8447097,25.7419355 24.2543226,27.0936129 Z M17.0533548,23.8022581 L15.3123871,22.8073548 C16.2472258,22.4605161 16.7832903,21.7740645 17.0258065,21.2280645 C17.2520645,21.2357419 17.4710968,21.2510968 17.6842581,21.274129 C17.8107097,22.5156129 17.3423871,23.3912903 17.0533548,23.8022581 Z M16.2580645,20.7050968 C16.1808387,20.9394839 15.7066452,22.1263226 14,22.1263226 C12.2938065,22.1263226 11.8205161,20.9453548 11.7419355,20.7050968 L11.7419355,20.0773548 C12.395871,20.2309032 13.1428387,20.3194194 14,20.3194194 C14.8571613,20.3194194 15.604129,20.2304516 16.2580645,20.0773548 L16.2580645,20.7050968 Z M20.7741935,14.378 L20.7741935,11.8092258 C21.176129,11.9275484 21.6774194,12.244129 21.6774194,13.0936129 C21.6774194,13.9435484 21.1756774,14.260129 20.7741935,14.378 Z M21.2258065,7.70948387 L21.2258065,11.0134839 C21.0727097,10.9534194 20.9200645,10.9109677 20.7741935,10.8825161 L20.7741935,9.48070968 L19.8709677,9.48070968 L19.8709677,14.8987097 C19.8700645,15.0829677 19.7756774,19.4161935 14,19.4161935 C8.22432258,19.4161935 8.12993548,15.0829677 8.12903226,14.9000645 L8.12812903,9.506 C8.15025806,9.34116129 8.46232258,9.02909677 9.48387097,9.02909677 L9.48387097,8.12587097 C7.25154839,8.12587097 7.22580645,9.4256129 7.22580645,9.48070968 L7.22580645,10.8825161 C7.07993548,10.9109677 6.92729032,10.9534194 6.77419355,11.0134839 L6.77419355,7.70948387 C6.79225806,7.61509677 6.88754839,7.20774194 7.26780645,6.71412903 C7.89374194,6.75341935 8.49303226,6.77103226 9.03225806,6.77103226 L9.03225806,5.86780645 C8.74954839,5.86780645 8.47,5.86329032 8.19406452,5.85516129 C9.2223871,5.14883871 10.9850323,4.51296774 14,4.51296774 C17.0303226,4.51296774 18.7952258,5.14883871 19.8208387,5.85606452 C19.535871,5.86329032 19.2513548,5.86780645 18.9677419,5.86780645 L18.9677419,6.77103226 C19.3972258,6.77103226 20.0249677,6.76245161 20.7502581,6.72903226 C21.1138065,7.21090323 21.2072903,7.60877419 21.2258065,7.70948387 Z" id="Shape" fill-rule="nonzero"></path>
                <path d="M18.516129,10.3839355 L18.516129,9.48070968 C16.0286452,9.48070968 15.4171613,8.89 15.2699355,8.63664516 C15.0725806,8.29658065 15.2839355,7.91858065 15.2929677,7.90277419 L14.9032258,7.67425806 L14.5161935,7.44167742 C14.3323871,7.74787097 14.1183226,8.43612903 14.4800645,9.07516129 C14.9786452,9.95580645 16.2987097,10.3839355 18.516129,10.3839355 Z" id="Path"></path>
                <path d="M14.4516129,10.3839355 L14.4516129,9.48070968 C11.7026452,9.48070968 11.2307097,8.86290323 11.1512258,8.67367742 C10.9913548,8.29025806 11.4407097,7.71309677 11.6105161,7.54103226 L11.2903226,7.22264516 L10.9710323,6.90335484 C10.8603871,7.014 9.90070968,8.01432258 10.3166452,9.01825806 C10.6973548,9.93729032 12.0499355,10.3839355 14.4516129,10.3839355 Z" id="Path"></path>
            </g>
        </g>
    </g>
</svg>