<?xml version="1.0" encoding="UTF-8"?>
<svg width="30px" height="17px" viewBox="0 0 30 17" version="1.1" xmlns="http://www.w3.org/2000/svg" xmlns:xlink="http://www.w3.org/1999/xlink">
    <!-- Generator: sketchtool 52.1 (67048) - http://www.bohemiancoding.com/sketch -->
    <title>49817BD9-AD9B-46CB-A7C4-A5E162DA44AE</title>
    <desc>Created with sketchtool.</desc>
    <g id="*CRM" stroke="none" stroke-width="1" fill="none" fill-rule="evenodd">
        <g id="Demanda-Inducida-001" transform="translate(-813.000000, -331.000000)" fill="#2FCC71">
            <g id="Group-12" transform="translate(638.000000, 330.000000)">
                <g id="Group-2" transform="translate(155.000000, 1.000000)">
                    <g id="hipertension" transform="translate(20.000000, 0.000000)">
                        <polygon id="Path" points="0 7.70263675 1 7.70263675 1 8.70263675 0 8.70263675"></polygon>
                        <path d="M21.3720703,6.35888675 C21.0754394,5.9140625 20.5644531,5.6606445 20.0307617,5.69409181 C19.4970703,5.72729494 19.0214844,6.04199219 18.7822266,6.52026369 L18.2260742,7.63183594 C18.1511231,7.78149413 18.0063476,7.88403319 17.8400879,7.904541 C17.6738281,7.92504881 17.5083007,7.86083988 17.3994141,7.73364256 L16.1655274,6.29418944 C15.8740234,5.95605469 15.4477539,5.76440431 15.0014649,5.77050781 C14.5546875,5.77709963 14.1342774,5.98364256 13.8554687,6.33300781 L13.4155274,6.88232425 C13.3181152,7.001709 13.171875,7.07080075 13.0175781,7.06982425 C12.862793,7.06787113 12.7177734,6.9938965 12.6254882,6.86987306 L11.3706055,5.19726563 C11.0588379,4.78125 10.5537109,4.5563965 10.0358887,4.60302738 C9.51831056,4.64965819 9.06152344,4.96118163 8.82910156,5.4262695 L7.690918,7.70263675 L2,7.70263675 L2,8.70263675 L8.309082,8.70263675 L9.72363281,5.87353513 C9.80102537,5.71850588 9.95336912,5.61474613 10.1259766,5.59912113 C10.298584,5.58349613 10.4667969,5.65844725 10.5708007,5.79711913 L11.8256836,7.46997069 C12.1030274,7.84228513 12.5378418,8.06396488 13.0019531,8.06982425 L13.0258789,8.06982425 C13.4816894,8.07128906 13.9128418,7.8637695 14.1962891,7.50708006 L14.6362305,6.95776369 C14.7290039,6.84130863 14.8691406,6.77246094 15.0180664,6.77026369 C15.1679687,6.76318363 15.3120117,6.828125 15.40625,6.94482425 L16.6401367,8.3845215 C16.9245606,8.717041 17.340332,8.90844725 17.777832,8.90844725 C17.8395996,8.90820313 17.9011231,8.904541 17.9624024,8.89697263 C18.4614257,8.83618163 18.8964844,8.52880863 19.1206055,8.07910156 L19.6767578,6.96752931 C19.7565918,6.8081055 19.9150391,6.703125 20.0930176,6.69213869 C20.2707519,6.68090819 20.4411621,6.76538088 20.5400391,6.91381838 L21.7324219,8.70263675 L28,8.70263675 L28,7.70263675 L22.2675781,7.70263675 L21.3720703,6.35888675 Z" id="Path"></path>
                        <polygon id="Path" points="29 7.70263675 30 7.70263675 30 8.70263675 29 8.70263675"></polygon>
                        <path d="M7.03222656,6.487793 C6.2299805,4.80004881 6.75927738,2.78002931 8.28613281,1.70239256 C9.81274413,0.625 11.8935547,0.8029785 13.2148438,2.12426756 L15,3.90991213 L16.7851563,2.12426756 C18.1064453,0.8029785 20.1872559,0.625 21.7138672,1.70239256 C23.2407226,2.77978513 23.7700195,4.80004881 22.9677734,6.487793 L23.8710938,6.9174805 C24.8820801,4.79003906 24.2150879,2.2438965 22.2907715,0.885742188 C20.3664551,-0.472412125 17.7438965,-0.248046875 16.078125,1.41723631 L15,2.49536131 L13.921875,1.41723631 C12.2561035,-0.248046875 9.63354494,-0.472412125 7.7092285,0.885742188 C5.78491213,2.2438965 5.11767575,4.79003906 6.12890625,6.9174805 L7.03222656,6.487793 Z" id="Path"></path>
                        <polygon id="Path" points="15 15.4611816 9.3688965 9.29418944 8.6311035 9.96801756 15 16.9440918 21.3688965 9.96801756 20.6311035 9.29418944"></polygon>
                    </g>
                </g>
            </g>
        </g>
    </g>
</svg>