<?xml version="1.0" encoding="UTF-8"?>
<svg width="31px" height="25px" viewBox="0 0 31 25" version="1.1" xmlns="http://www.w3.org/2000/svg" xmlns:xlink="http://www.w3.org/1999/xlink">
    <!-- Generator: sketchtool 52.1 (67048) - http://www.bohemiancoding.com/sketch -->
    <title>84FD0951-482A-438B-B637-F9BA7184B24C</title>
    <desc>Created with sketchtool.</desc>
    <g id="Agenda-1" stroke="none" stroke-width="1" fill="none" fill-rule="evenodd">
        <g id="Agenda-10" transform="translate(-1475.000000, -390.000000)">
            <g id="Historial-icon" transform="translate(1474.000000, 386.000000)">
                <g id="Icon" transform="translate(1.000000, 4.000000)" fill="#CED8E1" fill-rule="nonzero">
                    <path d="M30.3225,10.25875 C30.0603837,9.93563674 29.6660591,9.74858532 29.25,9.75 L26.5,9.75 L26.5,8.375 C26.5,6.09682541 24.6531746,4.25 22.375,4.25 L13.74,4.25 L13.3,2.875 C12.7153615,1.22135106 11.1489417,0.118238508 9.395,0.125 L4.5,0.125 C2.22182541,0.125 0.375,1.97182541 0.375,4.25 L0.375,20.75 C0.375,23.0281746 2.22182541,24.875 4.5,24.875 L24.3,24.875 C26.2292981,24.8693794 27.8969918,23.5272287 28.315,21.64375 L30.625,11.4275 C30.7097325,11.0121151 30.5981157,10.5808684 30.3225,10.25875 Z M6.38375,21.0525 C6.23971304,21.6920848 5.66415734,22.1410183 5.00875,22.125 L4.5,22.125 C3.74060847,22.125 3.125,21.5093915 3.125,20.75 L3.125,4.25 C3.125,3.49060847 3.74060847,2.875 4.5,2.875 L9.395,2.875 C10.0112095,2.84283673 10.5733834,3.22511496 10.77,3.81 L11.5125,6.065 C11.6930811,6.60177796 12.1843082,6.97292734 12.75,7 L22.375,7 C23.1343915,7 23.75,7.61560847 23.75,8.375 L23.75,9.75 L10,9.75 C9.34459266,9.73398175 8.76903696,10.1829152 8.625,10.8225 L6.38375,21.0525 Z M25.63375,21.0525 C25.489713,21.6920848 24.9141573,22.1410183 24.25875,22.125 L8.91375,22.125 C8.98476479,21.9717986 9.03560568,21.8100321 9.065,21.64375 L11.1,12.5 L27.6,12.5 L25.63375,21.0525 Z" id="Icon-Shape"></path>
                </g>
                <rect id="ViewBox" x="0" y="0" width="33" height="33"></rect>
            </g>
        </g>
    </g>
</svg>