<?xml version="1.0" encoding="UTF-8"?>
<svg width="21px" height="22px" viewBox="0 0 21 22" version="1.1" xmlns="http://www.w3.org/2000/svg" xmlns:xlink="http://www.w3.org/1999/xlink">
    <!-- Generator: Sketch 52.1 (67048) - http://www.bohemiancoding.com/sketch -->
    <title>ic-round-access-time</title>
    <desc>Created with Sketch.</desc>
    <g id="Parte-1-+" stroke="none" stroke-width="1" fill="none" fill-rule="evenodd">
        <g id="Nuevos-Reg-01" transform="translate(-109.000000, -795.000000)">
            <g id="ic-round-access-time" transform="translate(107.000000, 794.000000)">
                <g id="Icon" transform="translate(1.666667, 0.833333)" fill="#3962E6" fill-rule="nonzero">
                    <path d="M10.8229167,0.416666667 C5.07291667,0.416666667 0.416666667,5.08333333 0.416666667,10.8333333 C0.416666667,16.5833333 5.07291667,21.25 10.8229167,21.25 C16.5833333,21.25 21.25,16.5833333 21.25,10.8333333 C21.25,5.08333333 16.5833333,0.416666667 10.8229167,0.416666667 Z M10.8333333,19.1666667 C6.22916667,19.1666667 2.5,15.4375 2.5,10.8333333 C2.5,6.22916667 6.22916667,2.5 10.8333333,2.5 C15.4375,2.5 19.1666667,6.22916667 19.1666667,10.8333333 C19.1666667,15.4375 15.4375,19.1666667 10.8333333,19.1666667 Z M10.6041667,5.625 L10.5416667,5.625 C10.125,5.625 9.79166667,5.95833333 9.79166667,6.375 L9.79166667,11.2916667 C9.79166667,11.65625 9.97916667,12 10.3020833,12.1875 L14.625,14.78125 C14.9791667,14.9895833 15.4375,14.8854167 15.6458333,14.53125 C15.7515178,14.3608338 15.783473,14.154808 15.7343762,13.9603848 C15.6852794,13.7659616 15.5593396,13.5998083 15.3854167,13.5 L11.3541667,11.1041667 L11.3541667,6.375 C11.3541667,5.95833333 11.0208333,5.625 10.6041667,5.625 Z" id="Icon-Shape"></path>
                </g>
                <rect id="ViewBox" x="0" y="0" width="25" height="25"></rect>
            </g>
        </g>
    </g>
</svg>