<?xml version="1.0" encoding="UTF-8"?>
<svg width="20px" height="20px" viewBox="0 0 20 20" version="1.1" xmlns="http://www.w3.org/2000/svg" xmlns:xlink="http://www.w3.org/1999/xlink">
    <!-- Generator: sketchtool 52.1 (67048) - http://www.bohemiancoding.com/sketch -->
    <title>00BE8B8A-D2D6-493C-8643-32E6DED3E00E</title>
    <desc>Created with sketchtool.</desc>
    <g id="Agenda-2" stroke="none" stroke-width="1" fill="none" fill-rule="evenodd">
        <g id="Agendamiento-0017---ATC" transform="translate(-1776.000000, -1209.000000)">
            <g id="ic-round-check-circle-outline-copy" transform="translate(1774.000000, 1207.000000)">
                <g id="Icon" transform="translate(2.000000, 2.000000)" fill="#CED8E1" fill-rule="nonzero">
                    <path d="M10,0 C4.48,0 0,4.48 0,10 C0,15.52 4.48,20 10,20 C15.52,20 20,15.52 20,10 C20,4.48 15.52,0 10,0 Z M10,18 C5.59,18 2,14.41 2,10 C2,5.59 5.59,2 10,2 C14.41,2 18,5.59 18,10 C18,14.41 14.41,18 10,18 Z M13.88,6.29 L8,12.17 L6.12,10.29 C5.73063925,9.90063925 5.09936075,9.90063925 4.71,10.29 C4.32063925,10.6793607 4.32063925,11.3106393 4.71,11.7 L7.3,14.29 C7.69,14.68 8.32,14.68 8.71,14.29 L15.3,7.7 C15.4872281,7.51315541 15.592444,7.25950947 15.592444,6.995 C15.592444,6.73049053 15.4872281,6.47684459 15.3,6.29 C14.91,5.9 14.27,5.9 13.88,6.29 Z" id="Icon-Shape"></path>
                </g>
                <rect id="ViewBox" x="0" y="0" width="24" height="24"></rect>
            </g>
        </g>
    </g>
</svg>