<?xml version="1.0" encoding="UTF-8"?>
<svg width="32px" height="32px" viewBox="0 0 32 32" version="1.1" xmlns="http://www.w3.org/2000/svg" xmlns:xlink="http://www.w3.org/1999/xlink">
    <title>D2FCD501-0E25-4F1C-9199-7C834725A47F</title>
    <defs>
        <rect id="path-1" x="0" y="0" width="977" height="820" rx="8.8935"></rect>
        <filter x="-0.7%" y="-0.7%" width="101.3%" height="101.6%" filterUnits="objectBoundingBox" id="filter-2">
            <feOffset dx="0" dy="1" in="SourceAlpha" result="shadowOffsetOuter1"></feOffset>
            <feGaussianBlur stdDeviation="2" in="shadowOffsetOuter1" result="shadowBlurOuter1"></feGaussianBlur>
            <feColorMatrix values="0 0 0 0 0   0 0 0 0 0   0 0 0 0 0  0 0 0 0.0950803895 0" type="matrix" in="shadowBlurOuter1"></feColorMatrix>
        </filter>
        <path d="M79,224 L899,224 L899,664.52 C899,668.098805 896.098805,671 892.52,671 L85.48,671 C81.9011948,671 79,668.098805 79,664.52 L79,224 L79,224 Z" id="path-3"></path>
        <filter x="-0.9%" y="-1.1%" width="101.7%" height="103.1%" filterUnits="objectBoundingBox" id="filter-4">
            <feOffset dx="0" dy="2" in="SourceAlpha" result="shadowOffsetOuter1"></feOffset>
            <feGaussianBlur stdDeviation="2" in="shadowOffsetOuter1" result="shadowBlurOuter1"></feGaussianBlur>
            <feComposite in="shadowBlurOuter1" in2="SourceAlpha" operator="out" result="shadowBlurOuter1"></feComposite>
            <feColorMatrix values="0 0 0 0 0   0 0 0 0 0   0 0 0 0 0  0 0 0 0.0875226449 0" type="matrix" in="shadowBlurOuter1"></feColorMatrix>
        </filter>
        <filter id="filter-5">
            <feColorMatrix in="SourceGraphic" type="matrix" values="0 0 0 0 0.223529 0 0 0 0 0.384314 0 0 0 0 0.901961 0 0 0 1.000000 0"></feColorMatrix>
        </filter>
    </defs>
    <g id="Kardex" stroke="none" stroke-width="1" fill="none" fill-rule="evenodd">
        <g id="Ajustes-009" transform="translate(-1033.000000, -391.000000)">
            <rect fill="#FFFFFF" x="0" y="0" width="1440" height="1067"></rect>
            <g id="Modal">
                <rect id="Opacidad-Bg" fill="#000000" opacity="0.6" x="0" y="0" width="1440" height="1089"></rect>
                <g id="Group-5" transform="translate(231.000000, 135.000000)">
                    <g id="White-Bg">
                        <use fill="black" fill-opacity="1" filter="url(#filter-2)" xlink:href="#path-1"></use>
                        <use fill="#FFFFFF" fill-rule="evenodd" xlink:href="#path-1"></use>
                    </g>
                    <g id="Rectangle-Copy-16">
                        <use fill="black" fill-opacity="1" filter="url(#filter-4)" xlink:href="#path-3"></use>
                        <path stroke="#DBE0E4" stroke-width="0.81" d="M898.595,224.405 L898.595,664.52 C898.595,666.197565 897.915032,667.716315 896.815674,668.815674 C895.716315,669.915032 894.197565,670.595 892.52,670.595 L892.52,670.595 L85.48,670.595 C83.8024351,670.595 82.2836851,669.915032 81.1843263,668.815674 C80.0849675,667.716315 79.405,666.197565 79.405,664.52 L79.405,664.52 L79.405,224.405 L898.595,224.405 Z" stroke-linejoin="square" fill="#FFFFFF" fill-rule="evenodd"></path>
                    </g>
                </g>
            </g>
            <path d="M318.306988,359 L1121.69301,359 C1124.58153,359 1125.62898,359.300755 1126.68498,359.86551 C1127.74098,360.430265 1128.56974,361.25902 1129.13449,362.31502 C1129.69925,363.37102 1130,364.418467 1130,367.306988 L1130,455 L1130,455 L310,455 L310,367.306988 C310,364.418467 310.300755,363.37102 310.86551,362.31502 C311.430265,361.25902 312.25902,360.430265 313.31502,359.86551 C314.37102,359.300755 315.418467,359 318.306988,359 Z" id="Shape" fill-opacity="0.22" fill="#DBE0E4"></path>
            <g filter="url(#filter-5)" id="Tools-/-Technology-/-printer-/-32">
                <g transform="translate(1033.000000, 391.000000)">
                    <path d="M25.2189982,18.1879996 C25.4263056,18.1879998 25.6251077,18.1055788 25.7716024,17.9588966 C25.918097,17.8122143 26.0002635,17.6133069 26,17.4059996 L26,15.7269997 C25.9988964,14.0012425 24.6007544,12.6022056 22.8749984,12.5999998 L21.6639985,12.5999998 L21.6639985,6.78099998 C21.6639985,6.3496656 21.3143329,6 20.8829986,6 L11.1169995,6 C10.6856652,6 10.3359996,6.3496656 10.3359996,6.78099998 L10.3359996,12.5999998 L9.1249997,12.5999998 C7.39924373,12.6022056 6.00110166,14.0012425 6,15.7269997 L6,21.3129995 C6.00220374,23.0379757 7.40002367,24.4357957 9.1249997,24.4379994 L10.3359996,24.4379994 L10.3359996,25.2189994 C10.3359996,25.4261335 10.4182833,25.6247839 10.5647492,25.7712498 C10.7112151,25.9177157 10.9098655,26 11.1169995,26 L20.8829986,26 C21.3143329,26 21.6639985,25.6503338 21.6639985,25.2189994 L21.6639985,24.4379994 L22.8749984,24.4379994 C24.5999744,24.4357957 25.9977943,23.0379757 26,21.3129995 C26,20.881389 25.6501087,20.5314995 25.2184982,20.5314995 C24.7868877,20.5314995 24.4369982,20.881389 24.4369982,21.3129995 C24.4364474,22.1756019 23.7376002,22.8748966 22.8749984,22.8759995 L21.6639985,22.8759995 L21.6639985,19.6329996 L22.0939985,19.6329996 C22.525609,19.6329996 22.8754984,19.2831101 22.8754984,18.8514996 C22.8754984,18.4198891 22.525609,18.0699996 22.0939985,18.0699996 L9.90599963,18.0699996 C9.47438914,18.0699996 9.1244997,18.4198891 9.1244997,18.8514996 C9.1244997,19.2831101 9.47438914,19.6329996 9.90599963,19.6329996 L10.3359996,19.6329996 L10.3359996,22.8749995 L9.1249997,22.8749995 C8.26278783,22.8738976 7.56410172,22.1752114 7.56299985,21.3129995 L7.56299985,15.7269997 C7.56355068,14.8643973 8.26239786,14.1651026 9.1249997,14.1639997 L22.8749984,14.1639997 C23.7376002,14.1651026 24.4364474,14.8643973 24.4369982,15.7269997 L24.4369982,17.4069996 C24.4369981,17.6143071 24.519419,17.8131092 24.6661013,17.9596039 C24.8127835,18.1060986 25.0116909,18.188265 25.2189982,18.1879996 Z M20.0999987,19.6329996 L20.0999987,24.4329994 L11.8999994,24.4329994 L11.8999994,19.6329996 L20.0999987,19.6329996 Z M11.8999994,7.56299995 L20.0999987,7.56299995 L20.0999987,12.5999998 L11.8999994,12.5999998 L11.8999994,7.56299995 Z M22.4449984,15.3359997 C22.8763328,15.3359997 23.2259984,15.6856653 23.2259984,16.1169997 C23.2259984,16.5483341 22.8763328,16.8979997 22.4449984,16.8979997 C22.0136641,16.8979997 21.6639985,16.5483341 21.6639985,16.1169997 C21.6639985,15.6856653 22.0136641,15.3359997 22.4449984,15.3359997 L22.4449984,15.3359997 Z M13.4609986,22.0939995 C13.4609986,21.6626651 13.8106649,21.3129995 14.2419992,21.3129995 L17.7579989,21.3129995 C18.1896094,21.3129995 18.5394988,21.662889 18.5394988,22.0944995 C18.5394988,22.52611 18.1896094,22.8759995 17.7579989,22.8759995 L14.2419992,22.8759995 C14.0346918,22.8759995 13.8358897,22.7935787 13.689395,22.6468964 C13.5429003,22.5002142 13.4607338,22.3013068 13.4609986,22.0939995 Z" id="printer" fill="#FFFFFF"></path>
                </g>
            </g>
        </g>
    </g>
</svg>