<?xml version="1.0" encoding="UTF-8"?>
<svg width="13px" height="8px" viewBox="0 0 13 8" version="1.1" xmlns="http://www.w3.org/2000/svg" xmlns:xlink="http://www.w3.org/1999/xlink">
    <!-- Generator: sketchtool 52.1 (67048) - http://www.bohemiancoding.com/sketch -->
    <title>0339A3B8-4980-4CA1-9905-A554B4425235</title>
    <desc>Created with sketchtool.</desc>
    <g id="Agenda-1" stroke="none" stroke-width="1" fill="none" fill-rule="evenodd">
        <g id="Agenda-11---Beneficios" transform="translate(-621.000000, -715.000000)" fill="#3962E6">
            <path d="M622.992196,715.354826 L627.50605,720.068936 L632.019904,715.354826 C632.312923,715.048807 632.740007,714.929293 633.140279,715.041304 C633.540551,715.153314 633.853199,715.479833 633.960451,715.897862 C634.067703,716.315892 633.953266,716.761924 633.660247,717.067943 L628.320405,722.644687 C628.103037,722.872165 627.807954,723 627.500233,723 C627.192512,723 626.89743,722.872165 626.680061,722.644687 L621.340219,717.067943 C621.122404,716.840931 621,716.532757 621,716.211385 C621,715.890012 621.122404,715.581838 621.340219,715.354826 C621.793931,714.893135 622.538484,714.880985 622.992196,715.354826 Z" id="Icon-Path" transform="translate(627.500000, 719.000000) rotate(-360.000000) translate(-627.500000, -719.000000) "></path>
        </g>
    </g>
</svg>