<?xml version="1.0" encoding="UTF-8"?>
<svg width="8px" height="13px" viewBox="0 0 8 13" version="1.1" xmlns="http://www.w3.org/2000/svg" xmlns:xlink="http://www.w3.org/1999/xlink">
    <title>7364D70B-C1E5-4B0E-9474-6092BEE28F44</title>
    <g id="AJUSTES" stroke="none" stroke-width="1" fill="none" fill-rule="evenodd">
        <g id="Ajustes-Mar-25---03" transform="translate(-56.000000, -400.000000)" fill="#3962E6">
            <g id="Group-8" transform="translate(55.996465, 392.000000)">
                <path d="M-0.198544685,11.3107584 L3.88313419,15.3924373 L7.96481306,11.3107584 C8.22977739,11.0457941 8.61597132,10.9423137 8.97791933,11.0392974 C9.33986734,11.1362811 9.62258092,11.4189947 9.71956459,11.7809427 C9.81654827,12.1428907 9.71306791,12.5290846 9.44810358,12.7940489 L4.61951955,17.622633 C4.42296294,17.819593 4.15613272,17.930278 3.87787429,17.930278 C3.59961586,17.930278 3.33278564,17.819593 3.13622903,17.622633 L-1.69235499,12.7940489 C-1.88931503,12.5974923 -2,12.3306621 -2,12.0524037 C-2,11.7741453 -1.88931503,11.507315 -1.69235499,11.3107584 C-1.28208315,10.9110064 -0.60881653,10.9004866 -0.198544685,11.3107584 Z" id="Icon-Path-Copy-5" transform="translate(3.877663, 14.466906) rotate(-270.000000) translate(-3.877663, -14.466906) "></path>
            </g>
        </g>
    </g>
</svg>