<?xml version="1.0" encoding="UTF-8"?>
<svg width="12px" height="7px" viewBox="0 0 12 7" version="1.1" xmlns="http://www.w3.org/2000/svg" xmlns:xlink="http://www.w3.org/1999/xlink">
    <!-- Generator: sketchtool 52.1 (67048) - http://www.bohemiancoding.com/sketch -->
    <title>538FEDD1-78C3-451D-AC64-202BEFFC8D70</title>
    <desc>Created with sketchtool.</desc>
    <g id="Agenda-5---Prop-2" stroke="none" stroke-width="1" fill="none" fill-rule="evenodd">
        <g id="crm-006" transform="translate(-320.000000, -855.000000)" fill="#3962E6">
            <g id="Historial" transform="translate(160.000000, 799.000000)">
                <g id="Group-2-Copy" transform="translate(0.000000, 38.000000)">
                    <path d="M162.460222,18.3002372 L166.274343,22.2890999 L170.088464,18.3002372 C170.336059,18.0412981 170.696938,17.9401709 171.03516,18.0349492 C171.373382,18.1297275 171.637563,18.4060122 171.72819,18.7597296 C171.818816,19.1134471 171.722119,19.490859 171.474523,19.7497982 L166.962457,24.4685815 C166.778785,24.6610627 166.529446,24.7692308 166.269428,24.7692308 C166.009409,24.7692308 165.76007,24.6610627 165.576398,24.4685815 L161.064332,19.7497982 C160.880283,19.5577112 160.776854,19.2969486 160.776854,19.0250177 C160.776854,18.7530868 160.880283,18.4923242 161.064332,18.3002372 C161.44771,17.9095754 162.076844,17.8992949 162.460222,18.3002372 Z" id="Icon-Path" transform="translate(166.269231, 21.384615) rotate(-180.000000) translate(-166.269231, -21.384615) "></path>
                </g>
            </g>
        </g>
    </g>
</svg>