<?xml version="1.0" encoding="UTF-8"?>
<svg width="30px" height="22px" viewBox="0 0 30 22" version="1.1" xmlns="http://www.w3.org/2000/svg" xmlns:xlink="http://www.w3.org/1999/xlink">
    <title>Kardex paciente 01</title>
    <defs>
        <filter id="filter-1">
            <feColorMatrix in="SourceGraphic" type="matrix" values="0 0 0 0 0.223529 0 0 0 0 0.384314 0 0 0 0 0.901961 0 0 0 1.000000 0"></feColorMatrix>
        </filter>
    </defs>
    <g id="2-Pago-de-Impuestos-o-Servicios" stroke="none" stroke-width="1" fill="none" fill-rule="evenodd">
        <g id="Kardex-paciente-01" transform="translate(-887.000000, -98.000000)" filter="url(#filter-1)">
            <g transform="translate(887.000000, 98.000000)">
                <path d="M27.2382422,0.017578125 L2.76175781,0.017578125 C1.21857422,0.017578125 -3.33066907e-15,1.27089844 -3.33066907e-15,2.77933594 L-3.33066907e-15,18.7832227 C-3.33066907e-15,20.3263477 1.25332031,21.5449219 2.76175781,21.5449219 L27.2382422,21.5449219 C28.7814258,21.5449219 30,20.2916016 30,18.7831641 L30,2.77933594 C30,1.23609375 28.7466797,0.017578125 27.2382422,0.017578125 Z M28.2421875,18.7831641 C28.2421875,19.3372266 27.7934766,19.7871094 27.2382422,19.7871094 L2.76175781,19.7871094 C2.20769531,19.7871094 1.7578125,19.3383984 1.7578125,18.7831641 L1.7578125,2.77933594 C1.7578125,2.22527344 2.20652344,1.77539063 2.76175781,1.77539063 L27.2382422,1.77539063 C27.7923047,1.77539063 28.2421875,2.22410156 28.2421875,2.77933594 L28.2421875,18.7831641 Z" id="Shape" fill="#000000" fill-rule="nonzero"></path>
                <path d="M11.7621094,12.9318164 C12.2728125,12.36 12.5840039,11.6064258 12.5840039,10.78125 C12.5840039,8.99888672 11.1339258,7.54880859 9.3515625,7.54880859 C7.56919922,7.54880859 6.11917969,8.99888672 6.11917969,10.78125 C6.11917969,11.6064258 6.43037109,12.36 6.94101562,12.9317578 C5.60255859,13.7477344 4.70701172,15.2214258 4.70701172,16.9003711 C4.70701172,17.3857617 5.10052734,17.7792773 5.58591797,17.7792773 L13.1171484,17.7792773 C13.6025391,17.7792773 13.9960547,17.3857617 13.9960547,16.9003711 C13.9960547,15.2214258 13.1005078,13.747793 11.7621094,12.9318164 L11.7621094,12.9318164 Z M9.3515625,9.30662109 C10.164668,9.30662109 10.8261914,9.96814453 10.8261914,10.78125 C10.8261914,11.5943555 10.164668,12.2558789 9.3515625,12.2558789 C8.53845703,12.2558789 7.87699219,11.5943555 7.87699219,10.78125 C7.87699219,9.96814453 8.53845703,9.30662109 9.3515625,9.30662109 Z M6.60158203,16.0215234 C6.97423828,14.8582031 8.06613281,14.0136914 9.3515625,14.0136914 C10.6369922,14.0136914 11.7288281,14.8581445 12.101543,16.0215234 L6.60158203,16.0215234 Z" id="Shape" fill="#000000" fill-rule="nonzero"></path>
                <path d="M24.414082,8.49023438 L17.8242188,8.49023438 C17.3388281,8.49023438 16.9453125,8.88375 16.9453125,9.36914062 C16.9453125,9.85453125 17.3388281,10.2480469 17.8242188,10.2480469 L24.414082,10.2480469 C24.8994727,10.2480469 25.2929883,9.85453125 25.2929883,9.36914062 C25.2929883,8.88375 24.8994727,8.49023438 24.414082,8.49023438 Z" id="Path" fill="#000000" fill-rule="nonzero"></path>
                <path d="M24.414082,3.78316406 L5.58591797,3.78316406 C5.10052734,3.78316406 4.70701172,4.17667969 4.70701172,4.66207031 C4.70701172,5.14746094 5.10052734,5.54097656 5.58591797,5.54097656 L24.414082,5.54097656 C24.8994727,5.54097656 25.2929883,5.14746094 25.2929883,4.66207031 C25.2929883,4.17667969 24.8994727,3.78316406 24.414082,3.78316406 Z" id="Path" fill="#000000" fill-rule="nonzero"></path>
                <path d="M24.414082,12.2558789 L17.8242188,12.2558789 C17.3388281,12.2558789 16.9453125,12.6493945 16.9453125,13.1347852 C16.9453125,13.6201758 17.3388281,14.0136914 17.8242188,14.0136914 L24.414082,14.0136914 C24.8994727,14.0136914 25.2929883,13.6201758 25.2929883,13.1347852 C25.2929883,12.6493945 24.8994727,12.2558789 24.414082,12.2558789 Z" id="Path" fill="#000000" fill-rule="nonzero"></path>
                <path d="M22.5312305,16.0215234 L17.8242188,16.0215234 C17.3388281,16.0215234 16.9453125,16.4150391 16.9453125,16.9004297 C16.9453125,17.3858203 17.3388281,17.7793359 17.8242188,17.7793359 L22.5312305,17.7793359 C23.0166211,17.7793359 23.4101367,17.3858203 23.4101367,16.9004297 C23.4101367,16.4150391 23.0166211,16.0215234 22.5312305,16.0215234 Z" id="Path" fill="#000000" fill-rule="nonzero"></path>
            </g>
        </g>
    </g>
</svg>