<?xml version="1.0" encoding="UTF-8"?>
<svg width="29px" height="29px" viewBox="0 0 29 29" version="1.1" xmlns="http://www.w3.org/2000/svg" xmlns:xlink="http://www.w3.org/1999/xlink">
    <title>33E43BEE-5F1D-48F1-AB65-44456DDFDDAB</title>
    <defs>
        <rect id="path-1" x="0" y="0" width="977" height="820" rx="8.8935"></rect>
        <filter x="-0.7%" y="-0.7%" width="101.3%" height="101.6%" filterUnits="objectBoundingBox" id="filter-2">
            <feOffset dx="0" dy="1" in="SourceAlpha" result="shadowOffsetOuter1"></feOffset>
            <feGaussianBlur stdDeviation="2" in="shadowOffsetOuter1" result="shadowBlurOuter1"></feGaussianBlur>
            <feColorMatrix values="0 0 0 0 0   0 0 0 0 0   0 0 0 0 0  0 0 0 0.0950803895 0" type="matrix" in="shadowBlurOuter1"></feColorMatrix>
        </filter>
        <path d="M79,224 L899,224 L899,664.52 C899,668.098805 896.098805,671 892.52,671 L85.48,671 C81.9011948,671 79,668.098805 79,664.52 L79,224 L79,224 Z" id="path-3"></path>
        <filter x="-0.9%" y="-1.1%" width="101.7%" height="103.1%" filterUnits="objectBoundingBox" id="filter-4">
            <feOffset dx="0" dy="2" in="SourceAlpha" result="shadowOffsetOuter1"></feOffset>
            <feGaussianBlur stdDeviation="2" in="shadowOffsetOuter1" result="shadowBlurOuter1"></feGaussianBlur>
            <feComposite in="shadowBlurOuter1" in2="SourceAlpha" operator="out" result="shadowBlurOuter1"></feComposite>
            <feColorMatrix values="0 0 0 0 0   0 0 0 0 0   0 0 0 0 0  0 0 0 0.0875226449 0" type="matrix" in="shadowBlurOuter1"></feColorMatrix>
        </filter>
        <filter id="filter-5">
            <feColorMatrix in="SourceGraphic" type="matrix" values="0 0 0 0 0.223529 0 0 0 0 0.384314 0 0 0 0 0.901961 0 0 0 1.000000 0"></feColorMatrix>
        </filter>
    </defs>
    <g id="Kardex" stroke="none" stroke-width="1" fill="none" fill-rule="evenodd">
        <g id="Ajustes-009" transform="translate(-1070.000000, -392.000000)">
            <rect fill="#FFFFFF" x="0" y="0" width="1440" height="1067"></rect>
            <g id="Modal">
                <rect id="Opacidad-Bg" fill="#000000" opacity="0.6" x="0" y="0" width="1440" height="1089"></rect>
                <g id="Group-5" transform="translate(231.000000, 135.000000)">
                    <g id="White-Bg">
                        <use fill="black" fill-opacity="1" filter="url(#filter-2)" xlink:href="#path-1"></use>
                        <use fill="#FFFFFF" fill-rule="evenodd" xlink:href="#path-1"></use>
                    </g>
                    <g id="Rectangle-Copy-16">
                        <use fill="black" fill-opacity="1" filter="url(#filter-4)" xlink:href="#path-3"></use>
                        <path stroke="#DBE0E4" stroke-width="0.81" d="M898.595,224.405 L898.595,664.52 C898.595,666.197565 897.915032,667.716315 896.815674,668.815674 C895.716315,669.915032 894.197565,670.595 892.52,670.595 L892.52,670.595 L85.48,670.595 C83.8024351,670.595 82.2836851,669.915032 81.1843263,668.815674 C80.0849675,667.716315 79.405,666.197565 79.405,664.52 L79.405,664.52 L79.405,224.405 L898.595,224.405 Z" stroke-linejoin="square" fill="#FFFFFF" fill-rule="evenodd"></path>
                    </g>
                </g>
            </g>
            <path d="M318.306988,359 L1121.69301,359 C1124.58153,359 1125.62898,359.300755 1126.68498,359.86551 C1127.74098,360.430265 1128.56974,361.25902 1129.13449,362.31502 C1129.69925,363.37102 1130,364.418467 1130,367.306988 L1130,455 L1130,455 L310,455 L310,367.306988 C310,364.418467 310.300755,363.37102 310.86551,362.31502 C311.430265,361.25902 312.25902,360.430265 313.31502,359.86551 C314.37102,359.300755 315.418467,359 318.306988,359 Z" id="Shape" fill-opacity="0.22" fill="#DBE0E4"></path>
            <g filter="url(#filter-5)" id="Organization-/-File-/-download-/-24">
                <g transform="translate(1070.000000, 392.000000)">
                    <path d="M21.4935116,23.5625 L8.41083548,23.5625 C6.76957694,23.5605029 5.43959679,22.2937284 5.4375,20.7304687 C5.4375,20.3393217 5.77040841,20.0222344 6.18107174,20.0222344 C6.59173507,20.0222344 6.92464347,20.3393217 6.92464347,20.7304687 C6.92516831,21.5125557 7.59067778,22.1464376 8.41178695,22.1469375 L21.4944631,22.1469375 C22.3152011,22.1464383 22.9805572,21.513108 22.9816065,20.731375 C22.9816065,20.340228 23.3145149,20.0231406 23.7251783,20.0231406 C24.1358416,20.0231406 24.46875,20.340228 24.46875,20.731375 C24.4661271,22.2949875 23.1351423,23.5615026 21.4935116,23.5625 Z M16.4906962,18.4458125 L20.6057925,14.5416875 C20.8760421,14.2632195 20.8678546,13.8313581 20.5872258,13.562365 C20.3065971,13.2933718 19.8532491,13.2828341 19.5591785,13.5384687 L15.4431307,17.4435 C15.1534302,17.7171976 14.686217,17.7171976 14.3965166,17.4435 L10.3527803,13.543 C10.0637658,13.2644673 9.59241185,13.2618299 9.29998172,13.5371094 C9.00755159,13.8123888 9.00478268,14.2613423 9.29379718,14.539875 L13.334679,18.4412812 L13.334679,18.4412812 C14.2058659,19.2686976 15.6157035,19.2686976 16.4868904,18.4412812 L16.4906962,18.4458125 Z M15.6952695,14.8208125 L15.6952695,6.14528122 C15.6952695,5.75438444 15.3625741,5.4375 14.9521735,5.4375 C14.541773,5.4375 14.2090775,5.75438444 14.2090775,6.14528122 L14.2090775,14.8180937 C14.2090775,15.2092408 14.5419859,15.5263281 14.9526493,15.5263281 C15.3633126,15.5263281 15.696221,15.2092408 15.696221,14.8180937 L15.6952695,14.8208125 Z" id="Copia_de_146-download-3" fill="#FFFFFF"></path>
                </g>
            </g>
        </g>
    </g>
</svg>