<?xml version="1.0" encoding="UTF-8"?>
<svg width="28px" height="28px" viewBox="0 0 28 28" version="1.1" xmlns="http://www.w3.org/2000/svg" xmlns:xlink="http://www.w3.org/1999/xlink">
    <!-- Generator: sketchtool 52.1 (67048) - http://www.bohemiancoding.com/sketch -->
    <title>D9B25A33-0C42-4A1B-BCE9-859ED99FAFCD</title>
    <desc>Created with sketchtool.</desc>
    <g id="*CRM" stroke="none" stroke-width="1" fill="none" fill-rule="evenodd">
        <g id="Demanda-Inducida-012" transform="translate(-152.000000, -377.000000)" fill="#3962E6">
            <g id="imagenes" transform="translate(152.000000, 377.000000)">
                <path d="M25.6666667,7.46666667 L2.33333333,7.46666667 C2.07561667,7.46666667 1.86666667,7.67561667 1.86666667,7.93333333 L1.86666667,20.0666667 C1.86666667,20.3243833 2.07561667,20.5333333 2.33333333,20.5333333 L5.397,20.5333333 C5.80189167,22.82735 5.58465833,25.187925 4.76793333,27.3695333 C4.67745833,27.6108583 4.79978333,27.8798333 5.04110833,27.9703083 C5.09343333,27.9899083 5.14885,28 5.20473333,28 L22.7952667,28 C23.0529833,27.9998833 23.261875,27.790875 23.2617583,27.5331583 C23.2617583,27.477275 23.2516667,27.4218583 23.2320667,27.3695333 C22.4153417,25.187925 22.1981083,22.82735 22.603,20.5333333 L25.6666667,20.5333333 C25.9243833,20.5333333 26.1333333,20.3243833 26.1333333,20.0666667 L26.1333333,7.93333333 C26.1333333,7.67561667 25.9243833,7.46666667 25.6666667,7.46666667 Z M5.86133333,27.0666667 C6.53881667,24.95815 6.70518333,22.7187917 6.34666667,20.5333333 L21.6533333,20.5333333 C21.2948167,22.7187917 21.4611833,24.95815 22.1386667,27.0666667 L5.86133333,27.0666667 Z M25.2,19.6 L22.7859333,19.6 L24.1859333,13.1656 L23.2736,12.9677333 L21.8306667,19.6 L6.16933333,19.6 L4.7278,12.9677333 L3.81546667,13.1656 L5.21546667,19.6 L2.8,19.6 L2.8,8.4 L13.5333333,8.4 L13.5333333,11.417 L13.0666667,11.7282667 L13.0666667,9.8084 C13.0666667,9.55068333 12.8577167,9.34173333 12.6,9.34173333 C11.2802667,9.33788333 10.0139083,9.86253333 9.08366667,10.7986667 C7.445025,12.4275083 6.526625,14.6444667 6.53333333,16.9549333 C6.52948333,17.6192333 6.91430833,18.2245 7.51753333,18.5028667 C7.74585,18.610375 7.99505,18.6663167 8.2474,18.6666667 C8.64634167,18.6657917 9.032275,18.5245083 9.33753333,18.2676667 L9.69313333,17.9718 C9.87145833,17.822875 10.0963917,17.7412667 10.3287333,17.7412667 L11.1402667,17.7412667 C12.203275,17.7399833 13.0648583,16.8788083 13.0666667,15.8158 L13.0666667,12.8496667 L14,12.2266667 L14.9333333,12.8487333 L14.9333333,15.806 C14.9340917,16.8697667 15.7959667,17.73205 16.8597333,17.7333333 L17.6712667,17.7333333 C17.9034917,17.7333917 18.1283667,17.814825 18.3068667,17.9634 L18.6624667,18.2592667 C18.9679,18.5161667 19.35395,18.65745 19.7530667,18.6582667 C20.0050667,18.6578583 20.2539167,18.6020917 20.482,18.4949333 C21.0854583,18.216275 21.4704583,17.6107167 21.4666667,16.9460667 C21.473025,14.6357167 20.554625,12.418875 18.9163333,10.7898 C17.9858583,9.854075 16.7196167,9.3296 15.4,9.33333333 C15.1422833,9.33333333 14.9333333,9.54228333 14.9333333,9.8 L14.9333333,11.7282667 L14.4666667,11.417 L14.4666667,8.4 L25.2,8.4 L25.2,19.6 Z M12.1333333,10.3012 L12.1333333,15.8158 C12.1322833,16.363725 11.68825,16.8076417 11.1402667,16.8084 L10.3287333,16.8084 C9.877875,16.808575 9.44136667,16.9665417 9.09486667,17.255 L8.73973333,17.5508667 C8.41055833,17.8253833 7.9212,17.7809917 7.64668333,17.4518167 C7.53036667,17.3123417 7.46666667,17.136525 7.46666667,16.9549333 C7.46071667,14.89215 8.28065,12.9128417 9.74353333,11.4585333 C10.3853167,10.8122 11.2282917,10.4039833 12.1333333,10.3012 Z M15.8666667,15.8069333 L15.8666667,10.2932667 C16.7715333,10.3959917 17.6143917,10.8038583 18.2564667,11.4496667 C19.7191167,12.90415 20.5389917,14.8833417 20.5333333,16.9460667 C20.5335083,17.3747 20.18625,17.7223083 19.7576167,17.7224833 C19.57585,17.7225417 19.3998583,17.6588417 19.2602667,17.5424667 L18.9046667,17.2461333 C18.55805,16.9582583 18.1218333,16.8004667 17.6712667,16.8 L16.8597333,16.8 C16.3115167,16.799475 15.8671917,16.35515 15.8666667,15.8069333 Z" id="Shape" fill-rule="nonzero"></path>
                <path d="M23.6665333,3.26666667 L17.7333333,3.26666667 L17.7333333,0.466666667 C17.7333333,0.20895 17.5243833,0 17.2666667,0 L10.7333333,0 C10.4756167,0 10.2666667,0.20895 10.2666667,0.466666667 L10.2666667,3.26666667 L4.33346667,3.26666667 C1.941625,3.27028333 0.00361666667,5.20829167 0,7.60013333 L0,9.8 L0.933333333,9.8 L0.933333333,7.60013333 C0.93695,5.72378333 2.45711667,4.20361667 4.33346667,4.2 L10.7333333,4.2 C10.99105,4.2 11.2,3.99105 11.2,3.73333333 L11.2,0.933333333 L16.8,0.933333333 L16.8,3.73333333 C16.8,3.99105 17.00895,4.2 17.2666667,4.2 L23.6665333,4.2 C25.5428833,4.20361667 27.06305,5.72378333 27.0666667,7.60013333 L27.0666667,9.8 L28,9.8 L28,7.60013333 C27.9963833,5.20829167 26.058375,3.27028333 23.6665333,3.26666667 Z" id="Path"></path>
                <polygon id="Path" points="10.8700667 12.7367333 10.0734667 13.5333333 8.86666667 13.5333333 8.86666667 14.4666667 9.8 14.4666667 9.8 15.4 10.7333333 15.4 10.7333333 14.1932 11.5299333 13.3966"></polygon>
                <polygon id="Path" points="17.9265333 13.5333333 17.1299333 12.7367333 16.4700667 13.3966 17.2666667 14.1932 17.2666667 15.4 18.2 15.4 18.2 14.4666667 19.1333333 14.4666667 19.1333333 13.5333333"></polygon>
            </g>
        </g>
    </g>
</svg>