<?xml version="1.0" encoding="UTF-8"?>
<svg width="21px" height="21px" viewBox="0 0 21 21" version="1.1" xmlns="http://www.w3.org/2000/svg" xmlns:xlink="http://www.w3.org/1999/xlink">
    <!-- Generator: Sketch 52.1 (67048) - http://www.bohemiancoding.com/sketch -->
    <title>Icon</title>
    <desc>Created with Sketch.</desc>
    <g id="PREDICCIÓN-2" stroke="none" stroke-width="1" fill="none" fill-rule="evenodd">
        <g id="caso-sin-presupuesto-02" transform="translate(-1255.000000, -940.000000)" fill="#FF5964" fill-rule="nonzero">
            <g id="Icon" transform="translate(1265.528571, 950.500000) rotate(-180.000000) translate(-1265.528571, -950.500000) translate(1255.028571, 940.000000)">
                <path d="M10.5142855,12.5470474 C9.81262089,12.5470474 9.24380934,13.1158589 9.24380934,13.8175235 C9.24380934,14.5191881 9.81262089,15.0879997 10.5142855,15.0879997 C11.2159501,15.0879997 11.7847617,14.5191881 11.7847617,13.8175235 C11.7847617,13.1158589 11.2159501,12.5470474 10.5142855,12.5470474 Z M10.5142855,11.022476 C11.0756172,11.022476 11.5306664,10.5674267 11.5306664,10.006095 L11.5306664,6.95695224 C11.5306664,6.39562055 11.0756172,5.94057131 10.5142855,5.94057131 C9.95295381,5.94057131 9.49790457,6.39562055 9.49790457,6.95695224 L9.49790457,10.006095 C9.49790457,10.5674267 9.95295381,11.022476 10.5142855,11.022476 Z M10.5142855,0.350476183 C4.90096861,0.350476183 0.350476183,4.90096861 0.350476183,10.5142855 C0.350476183,16.1276024 4.90096861,20.6780948 10.5142855,20.6780948 C16.1276024,20.6780948 20.6780948,16.1276024 20.6780948,10.5142855 C20.6719331,4.90352285 16.1250482,0.356637861 10.5142855,0.350476183 Z M10.5142855,18.645333 C6.02363199,18.645333 2.38323805,15.004939 2.38323805,10.5142855 C2.38323805,6.02363199 6.02363199,2.38323805 10.5142855,2.38323805 C15.004939,2.38323805 18.645333,6.02363199 18.645333,10.5142855 C18.639733,15.0026174 15.0026174,18.639733 10.5142855,18.645333 Z" id="Icon-Shape"></path>
            </g>
        </g>
    </g>
</svg>