<?xml version="1.0" encoding="UTF-8"?>
<svg width="21px" height="21px" viewBox="0 0 21 21" version="1.1" xmlns="http://www.w3.org/2000/svg" xmlns:xlink="http://www.w3.org/1999/xlink">
    <!-- Generator: sketchtool 52.1 (67048) - http://www.bohemiancoding.com/sketch -->
    <title>374CBC8B-02CD-4FEA-A3D2-724598CAECF1</title>
    <desc>Created with sketchtool.</desc>
    <g id="*Ajustes" stroke="none" stroke-width="1" fill="none" fill-rule="evenodd">
        <g id="Ajustes-022" transform="translate(-1569.000000, -677.000000)" fill="#3962E6" fill-rule="nonzero">
            <g id="Group-2" transform="translate(458.000000, 286.000000)">
                <g id="Info" transform="translate(1121.450000, 401.450000) rotate(-180.000000) translate(-1121.450000, -401.450000) translate(1111.000000, 391.000000)">
                    <path d="M10.45,13.4203333 C9.75262544,13.4203333 9.18729167,13.9856671 9.18729167,14.6830417 C9.18729167,15.3804162 9.75262544,15.94575 10.45,15.94575 C11.1473746,15.94575 11.7127083,15.3804162 11.7127083,14.6830417 C11.7127083,13.9856671 11.1473746,13.4203333 10.45,13.4203333 Z M10.45,11.9050833 C11.0078996,11.9050833 11.4601667,11.4528163 11.4601667,10.8949167 L11.4601667,5.96441667 C11.4601667,5.40651702 11.0078996,4.95425 10.45,4.95425 C9.89210036,4.95425 9.43983333,5.40651702 9.43983333,5.96441667 L9.43983333,10.8949167 C9.43983333,11.4528163 9.89210036,11.9050833 10.45,11.9050833 Z M10.45,0.348333333 C4.87100355,0.348333333 0.348333333,4.87100355 0.348333333,10.45 C0.348333333,16.0289964 4.87100355,20.5516667 10.45,20.5516667 C16.0289964,20.5516667 20.5516667,16.0289964 20.5516667,10.45 C20.5455427,4.87354217 16.0264578,0.354457338 10.45,0.348333333 Z M10.45,18.5313333 C5.98680284,18.5313333 2.36866667,14.9131972 2.36866667,10.45 C2.36866667,5.98680284 5.98680284,2.36866667 10.45,2.36866667 C14.9131972,2.36866667 18.5313333,5.98680284 18.5313333,10.45 C18.5257677,14.9108897 14.9108897,18.5257677 10.45,18.5313333 Z" id="Icon-Shape"></path>
                </g>
            </g>
        </g>
    </g>
</svg>