<?xml version="1.0" encoding="UTF-8"?>
<svg width="16px" height="16px" viewBox="0 0 16 16" version="1.1" xmlns="http://www.w3.org/2000/svg" xmlns:xlink="http://www.w3.org/1999/xlink">
    <!-- Generator: sketchtool 52.1 (67048) - http://www.bohemiancoding.com/sketch -->
    <title>790843D4-6349-441B-8C3A-1BF46659E48D</title>
    <desc>Created with sketchtool.</desc>
    <g id="PASO-2" stroke="none" stroke-width="1" fill="none" fill-rule="evenodd">
        <g id="Desktop-35" transform="translate(-614.000000, -301.000000)" fill="#CED8E1" fill-rule="nonzero">
            <g id="Group-8" transform="translate(612.000000, 301.000000)">
                <g id="Información" transform="translate(2.000000, 0.000000)">
                    <path d="M1.93333333,4.53333333 C1.93333333,5.01198012 2.32135322,5.4 2.8,5.4 C3.27864678,5.4 3.66666667,5.01198012 3.66666667,4.53333333 L3.66666667,3.66666667 L4.53333333,3.66666667 C5.01198012,3.66666667 5.4,3.27864678 5.4,2.8 C5.4,2.32135322 5.01198012,1.93333333 4.53333333,1.93333333 L3.66666667,1.93333333 L3.66666667,1.06666667 C3.66666667,0.588019883 3.27864678,0.2 2.8,0.2 C2.32135322,0.2 1.93333333,0.588019883 1.93333333,1.06666667 L1.93333333,1.93333333 L1.06666667,1.93333333 C0.588019883,1.93333333 0.2,2.32135322 0.2,2.8 C0.2,3.27864678 0.588019883,3.66666667 1.06666667,3.66666667 L1.93333333,3.66666667 L1.93333333,4.53333333 Z M13.2,1.93333333 L8,1.93333333 C7.52135322,1.93333333 7.13333333,2.21931211 7.13333333,2.69795889 C7.13333333,3.17660567 7.52135322,3.5048912 8,3.5048912 L13.2,3.5048912 C13.6786468,3.5048912 14.2829798,4.05468655 14.2829798,4.53333333 L14.2829798,13.1026026 L12.706,11.8459359 C12.5461667,11.6962927 12.3356169,11.6126921 12.1166667,11.6119359 L4.53333333,11.6119359 C4.05468655,11.6119359 3.45346391,11.0786468 3.45346391,10.6 L3.45346391,8 C3.45346391,7.52135322 3.17350249,7.13333333 2.6948557,7.13333333 C2.21620892,7.13333333 1.93333333,7.52135322 1.93333333,8 L1.93333333,10.6 C1.93333333,11.2895629 2.20726112,11.950883 2.6948557,12.4384776 C3.18245029,12.9260722 3.84377046,13.2 4.53333333,13.2 L11.7786667,13.2 L14.3786667,15.566 C14.5296555,15.7077711 14.7264234,15.7907826 14.9333333,15.8 C15.052201,15.7987046 15.1697778,15.7751892 15.28,15.7306667 C15.5968436,15.5923873 15.8012038,15.2790349 15.8,14.9333333 L15.8,4.53333333 C15.8,3.09739298 14.6359403,1.93333333 13.2,1.93333333 Z" id="Icon-Shape"></path>
                </g>
            </g>
        </g>
    </g>
</svg>