<?xml version="1.0" encoding="UTF-8"?>
<svg width="24px" height="24px" viewBox="0 0 24 24" version="1.1" xmlns="http://www.w3.org/2000/svg" xmlns:xlink="http://www.w3.org/1999/xlink">
    <!-- Generator: sketchtool 52.1 (67048) - http://www.bohemiancoding.com/sketch -->
    <title>A88D9CB6-6EB4-46A4-B5E4-730233A4AF22</title>
    <desc>Created with sketchtool.</desc>
    <g id="Facturación-2.0-Web*" stroke="none" stroke-width="1" fill="none" fill-rule="evenodd">
        <g id="Desktop-06" transform="translate(-1220.000000, -128.000000)" fill="#3962E6">
            <g id="Iniciar-turno" transform="translate(1220.000000, 128.000000)">
                <path d="M15.4699355,11.1778065 L10.6389677,7.66606452 C10.4616774,7.53754839 10.2263226,7.51819355 10.032,7.61806452 C9.83612903,7.71716129 9.71380645,7.91845161 9.71380645,8.136 L9.71380645,15.1571613 C9.71380645,15.3770323 9.83612903,15.5775484 10.032,15.6766452 C10.1148387,15.7184516 10.2054194,15.7393548 10.2967742,15.7393548 C10.416,15.7393548 10.5367742,15.7014194 10.6389677,15.6263226 L15.4699355,12.1176774 C15.6224516,12.0054194 15.7114839,11.832 15.7114839,11.6477419 C15.7122581,11.4603871 15.6209032,11.2877419 15.4699355,11.1778065 Z" id="Path"></path>
                <path d="M11.6330323,0.0015483871 C5.20722581,0.0015483871 0,5.20877419 0,11.6345806 C0,18.0580645 5.20722581,23.2637419 11.6330323,23.2637419 C18.0572903,23.2637419 23.2652903,18.0572903 23.2652903,11.6345806 C23.2660645,5.20877419 18.0572903,0.0015483871 11.6330323,0.0015483871 Z M11.6330323,21.3228387 C6.28180645,21.3228387 1.94322581,16.9865806 1.94322581,11.6345806 C1.94322581,6.28490323 6.28180645,1.94322581 11.6330323,1.94322581 C16.9834839,1.94322581 21.3212903,6.28412903 21.3212903,11.6345806 C21.3220645,16.9865806 16.9834839,21.3228387 11.6330323,21.3228387 Z" id="Shape" fill-rule="nonzero"></path>
            </g>
        </g>
    </g>
</svg>