<?xml version="1.0" encoding="UTF-8"?>
<svg width="24px" height="24px" viewBox="0 0 24 24" version="1.1" xmlns="http://www.w3.org/2000/svg" xmlns:xlink="http://www.w3.org/1999/xlink">
    <!-- Generator: sketchtool 52.1 (67048) - http://www.bohemiancoding.com/sketch -->
    <title>9516A642-16D7-4E88-9BE6-AF9624670AFD</title>
    <desc>Created with sketchtool.</desc>
    <g id="*CRM" stroke="none" stroke-width="1" fill="none" fill-rule="evenodd">
        <g id="Demanda-Inducida-001" transform="translate(-695.000000, -864.000000)" fill="#3962E6">
            <g id="Group-9" transform="translate(488.000000, 840.000000)">
                <g id="Laboratorio" transform="translate(207.000000, 24.000000)">
                    <path d="M8.89917106,13.479405 C8.71874307,13.2985143 8.42543193,13.2985143 8.24500394,13.479405 C8.06411332,13.6598329 8.06411332,13.9526815 8.24500394,14.1335721 C8.42543193,14.3140001 8.71874307,14.3140001 8.89917106,14.1335721 C9.08006168,13.9526815 9.08006168,13.6598329 8.89917106,13.479405 Z" id="Path"></path>
                    <path d="M23.2801608,3.02378804 L20.6626133,0.406379348 C20.126881,-0.128150136 19.2512038,-0.142676902 18.7004821,0.406749457 C18.1580878,0.94914375 18.1580415,1.82685652 18.7004821,2.36934334 L19.0275656,2.6964269 L16.8064971,4.91781929 C16.6548913,4.76621352 15.3187526,3.43007486 15.1707092,3.28198512 C14.9900036,3.10141834 14.6971088,3.10137208 14.5164495,3.28198512 C14.3357902,3.46264443 14.335744,3.75558546 14.5164495,3.93629103 L14.8434868,4.26332833 C14.6781408,4.42862813 6.97145992,12.1358179 6.38853872,12.7187853 C5.60853465,13.4987431 5.30994946,14.5709018 5.49088635,15.5794017 L4.64671467,16.4235734 C4.10566202,16.9646723 4.10566202,17.8449758 4.64666841,18.386121 L0.135506046,22.8971446 C-0.0451532609,23.0778501 -0.0451532609,23.3707912 0.135506046,23.5514505 C0.316211617,23.7321098 0.609106386,23.7321098 0.789811957,23.5514505 L5.30088179,19.0403806 C5.84193444,19.581387 6.7223305,19.5814333 7.26342942,19.0403344 L8.10773988,18.1960239 C9.15977385,18.3838541 10.2288328,18.037895 10.9681249,17.2985103 C12.7976185,15.4691556 17.5632768,10.7037285 19.4236282,8.8434697 L19.7506655,9.170507 C19.9313711,9.3511663 20.2242658,9.3511663 20.4049251,9.170507 C20.5855844,8.98984769 20.5856307,8.69690666 20.4049251,8.51620109 C20.2568354,8.36811135 18.9220384,7.03326807 18.769091,6.88036692 L20.9905296,4.65934463 L21.3171505,4.98596556 C21.859406,5.52965523 22.7394783,5.5285449 23.2802071,4.98642819 C23.8225088,4.44408016 23.8226476,3.56632113 23.2801608,3.02378804 Z M6.60916977,18.3859822 C6.42883431,18.5663177 6.13538438,18.5663177 5.95509518,18.3859822 C5.15774226,17.5886293 5.35172548,17.7825662 5.30092806,17.7317688 C5.12054633,17.5515259 5.12054633,17.2581222 5.30088179,17.0777868 L5.82999844,16.5486701 C5.96989952,16.8071448 6.14519226,17.0454022 6.34875204,17.2562717 C6.57909844,17.4948993 6.84566923,17.6985053 7.13824015,17.8568656 L6.60916977,18.3859822 Z M12.4976454,14.4606094 L12.1705618,14.1335258 C11.9899025,13.9529128 11.6969615,13.9529128 11.5163022,14.1335258 C11.3356429,14.3141851 11.3356429,14.6071262 11.5163022,14.7878317 L11.8433395,15.114869 L11.1891724,15.7689899 L10.2075053,14.7876004 C10.026846,14.6070336 9.73390496,14.6070336 9.55324565,14.7876929 C9.37258635,14.9683985 9.37267887,15.2613395 9.55333818,15.4419988 L10.5348664,16.4232033 L10.313819,16.6442044 C9.40386053,17.5542554 7.91121216,17.5502305 7.00851705,16.608674 C6.15208553,15.7154166 6.13728118,14.2784234 7.04275211,13.373045 L9.88051427,10.5349127 L13.1519513,13.8063035 L12.4976454,14.4606094 Z M18.7693223,8.18916379 L17.7318613,9.22657846 L16.7500555,8.24509647 C16.5693962,8.06448342 16.2764552,8.06452969 16.0957959,8.24518899 C15.9151365,8.42589457 15.9152291,8.7188356 16.0958884,8.8994949 L17.0775554,9.88083811 L16.4230645,10.5352828 L16.0958884,10.2081067 C15.9151828,10.0275399 15.622288,10.0274937 15.4416287,10.2081067 C15.2609694,10.388766 15.2609232,10.6817071 15.4416287,10.8624126 L15.7687586,11.1895887 L15.114684,11.8436171 L14.133387,10.8623201 C13.9527277,10.6817071 13.6597867,10.6817071 13.4791274,10.8623201 C13.2984681,11.0429794 13.2984681,11.3359204 13.4791274,11.516626 L14.4603781,12.4978767 L13.8060721,13.1521363 L10.5346351,9.88074558 L15.4977002,4.9176805 L18.7693223,8.18916379 Z M18.1148313,6.22615353 L17.4607105,5.57203268 L19.681779,3.35064029 L20.33627,4.00513125 L18.1148313,6.22615353 Z M22.6254848,4.33253865 C22.4480639,4.51037588 22.154799,4.51551114 21.9718728,4.33207602 C21.7497151,4.10991827 19.7069927,2.06719586 19.3547417,1.7149449 C19.1733885,1.53363791 19.1745913,1.24111325 19.3542791,1.06137921 C19.536974,0.879100679 19.8282495,0.880858696 20.00877,1.06096284 L22.6259012,3.67804769 C22.8056352,3.85778173 22.8078558,4.15012133 22.6254848,4.33253865 Z" id="Shape" fill-rule="nonzero"></path>
                </g>
            </g>
        </g>
    </g>
</svg>