<?xml version="1.0" encoding="UTF-8"?>
<svg width="28px" height="31px" viewBox="0 0 28 31" version="1.1" xmlns="http://www.w3.org/2000/svg" xmlns:xlink="http://www.w3.org/1999/xlink">
    <!-- Generator: sketchtool 52.1 (67048) - http://www.bohemiancoding.com/sketch -->
    <title>05DC265D-B7F3-4238-8EE6-0998E43F9596</title>
    <desc>Created with sketchtool.</desc>
    <g id="*CRM" stroke="none" stroke-width="1" fill="none" fill-rule="evenodd">
        <g id="Demanda-Inducida-012" transform="translate(-152.000000, -476.000000)" fill="#3962E6" fill-rule="nonzero">
            <g id="laborato" transform="translate(152.000000, 476.000000)">
                <path d="M27.8686293,21.6748362 C27.5410172,20.5205 27.0877069,19.4152241 26.5211293,18.3897241 C26.4002586,18.1710345 26.1250259,18.0915 25.9060948,18.212431 C25.6873448,18.3333017 25.607931,18.6085948 25.7288017,18.8274052 C26.262069,19.7926207 26.689069,20.8338103 26.9978534,21.9219483 C27.0839052,22.225181 27.0501121,22.5492931 26.9026293,22.8344828 L24.2185517,28.0251034 L21.4155345,28.0251034 L21.4155345,23.3100603 C21.4155345,22.2668793 20.6380517,21.4024397 19.6321638,21.2643707 L19.6321638,19.3967586 C19.6321638,19.3825172 19.6315,19.3682759 19.6301724,19.3541552 C19.6144828,19.1882069 19.2241724,15.359569 16.7315086,13.8339914 C16.7357328,13.7824569 16.7384483,13.7305603 16.7384483,13.6779397 C16.7384483,12.7897845 16.1226293,12.0431983 15.2956638,11.8415862 L15.2956638,10.9912069 C17.1560345,11.518319 21.6475,13.1478103 24.6579224,17.1703362 C24.7468103,17.2890948 24.8828276,17.3517328 25.0205948,17.3517328 C25.1149138,17.3517328 25.2100776,17.3224052 25.2914224,17.2615172 C25.4915259,17.1117414 25.5323793,16.8280603 25.3826034,16.6279569 C22.0684052,12.1996121 17.0721552,10.5266724 15.2956638,10.0524828 L15.2956638,8.06140517 C15.2956638,7.4782931 14.8474224,6.99843103 14.2774655,6.94689655 L14.2774655,6.17496552 C14.4730431,6.125 14.6178707,5.94812931 14.6178707,5.73698276 C14.6178707,5.52583621 14.4730431,5.34896552 14.2774655,5.299 L14.2774655,1.11963793 C14.2775259,0.50225 13.7752759,-5.68434189e-14 13.1579483,-5.68434189e-14 L12.4024914,-5.68434189e-14 C11.7851034,-5.68434189e-14 11.2828534,0.50225 11.2828534,1.11963793 L11.2828534,5.29906034 C11.0872759,5.34902586 10.9425086,5.52589655 10.9425086,5.7370431 C10.9425086,5.94818966 11.0872759,6.12506034 11.2828534,6.17502586 L11.2828534,6.9469569 C10.7129569,6.99849138 10.2647155,7.47835345 10.2647155,8.06146552 L10.2647155,10.2010517 C10.2647155,10.4510603 10.4673534,10.6536379 10.7173017,10.6536379 C10.96725,10.6536379 11.1698879,10.4510603 11.1698879,10.2010517 L11.1698879,9.76982759 C11.1698879,9.65155172 11.2660776,9.55530172 11.3843534,9.55530172 L14.1761466,9.55530172 C14.2944224,9.55530172 14.3906121,9.65155172 14.3906121,9.76982759 L14.3906121,11.843819 C13.5685948,12.048931 12.9577241,12.7932845 12.9577241,13.6778793 C12.9577241,14.5624741 13.5685948,15.3068879 14.3906121,15.512 L14.3906121,17.0250259 C14.3906121,17.1433017 14.2944224,17.2394914 14.1761466,17.2394914 L11.665681,17.2394914 C11.7033362,16.8466466 11.7019483,16.4492155 11.6589828,16.0539569 C11.592,15.4378362 11.4244224,14.8386724 11.1699483,14.2789741 L11.1699483,12.2419741 C11.1699483,11.9919655 10.9673103,11.7893879 10.7173621,11.7893879 C10.4674138,11.7893879 10.2647759,11.9919655 10.2647759,12.2419741 L10.2647759,12.8682931 C10.1758879,12.7658276 10.0841638,12.6656552 9.98791379,12.5693448 C8.87624138,11.4576724 7.3984569,10.8496983 5.82575,10.8632155 C4.25376724,10.8746207 2.78431034,11.5025086 1.68802586,12.6311379 C0.650155172,13.6997241 0.0686724138,15.1165603 0.0506293103,16.6205948 C0.0326465517,18.1251724 0.580517241,19.5551034 1.59340517,20.6470431 C2.72957759,21.8719224 4.29516379,22.5123017 5.87607759,22.5122414 C6.87369828,22.5122414 7.87735345,22.2572241 8.78282759,21.733069 L10.1609828,22.0108966 C10.4486466,22.0687672 10.7440948,21.9795776 10.9515,21.7722328 C11.1589655,21.5647672 11.2482155,21.2692586 11.1902241,20.9816552 L10.9445603,19.76275 C11.0809397,19.8209224 11.22975,19.8531466 11.3843534,19.8531466 L14.1761466,19.8531466 C14.7935345,19.8531466 15.2957845,19.3508966 15.2957845,18.7334483 L15.2957845,15.5142931 C15.7660517,15.3996379 16.1678276,15.1087759 16.427069,14.7156293 C18.3072328,16.0299397 18.6966379,19.1487414 18.7271121,19.4205948 L18.7271121,21.2445776 L17.5549138,21.2445776 C16.4160259,21.2445776 15.489431,22.1711121 15.489431,23.3100603 L15.489431,23.322431 L8.10931897,23.322431 C7.85937069,23.322431 7.65673276,23.5250086 7.65673276,23.7750172 L7.65673276,24.8652672 C7.65673276,25.1152759 7.85937069,25.3178534 8.10931897,25.3178534 C8.35926724,25.3178534 8.56190517,25.1152759 8.56190517,24.8652672 L8.56190517,24.2276034 L15.489431,24.2276034 L15.489431,28.0251034 L6.10098276,28.0251034 C5.48359483,28.0251034 4.98134483,28.5273534 4.98134483,29.1448017 L4.98134483,29.7769741 C4.98134483,30.3943017 5.48359483,30.8966121 6.10098276,30.8966121 L25.4929741,30.8966121 C26.1103017,30.8966121 26.6126121,30.3943621 26.6126121,29.7769741 L26.6126121,29.1448017 C26.6126121,28.5274138 26.1103621,28.0251034 25.4929741,28.0251034 L25.2375948,28.0251034 L27.7066638,23.250319 C27.9602931,22.7598966 28.0178017,22.2003793 27.8686293,21.6748362 Z M12.1879655,6.94176724 L12.1879655,6.18956897 L13.3723534,6.18956897 L13.3723534,6.94176724 L12.1879655,6.94176724 Z M12.402431,0.905172414 L13.1578879,0.905172414 C13.2761034,0.905172414 13.3723534,1.00136207 13.3723534,1.11963793 L13.3723534,5.28439655 L12.1879655,5.28439655 L12.1879655,1.11963793 C12.1879655,1.00136207 12.2842155,0.905172414 12.402431,0.905172414 Z M14.1760862,8.65018966 L11.3842931,8.65018966 C11.3109138,8.65018966 11.2393448,8.65773276 11.1698276,8.67131034 L11.1698276,8.06140517 C11.1698276,7.94312931 11.2660172,7.84693966 11.3842931,7.84693966 L14.1760862,7.84693966 C14.2943621,7.84693966 14.3905517,7.94312931 14.3905517,8.06140517 L14.3905517,8.67131034 C14.3210345,8.65773276 14.2494655,8.65018966 14.1760862,8.65018966 Z M14.8480259,12.69275 C14.9521207,12.69275 15.0523534,12.7092241 15.1466121,12.7392759 L13.9093621,13.9765259 C13.8793103,13.8822672 13.8628362,13.7820345 13.8628362,13.6779397 C13.8628362,13.1347155 14.3048017,12.69275 14.8480259,12.69275 Z M8.78976724,20.811181 C8.67680172,20.7884914 8.55937069,20.8096724 8.46149138,20.8704397 C6.46691379,22.1099224 3.8575431,21.7570862 2.2569569,20.0315259 C0.47787069,18.1135259 0.513112069,15.1399138 2.33727586,13.2618621 C3.26332759,12.3084138 4.50456034,11.7780431 5.83226724,11.7683879 C5.84457759,11.7683276 5.85688793,11.7682672 5.86919828,11.7682672 C7.18344828,11.7682672 8.4175,12.2792672 9.34777586,13.2095431 C10.9729828,14.8348103 11.2616121,17.3319397 10.0497069,19.2822241 C9.98887931,19.3801638 9.96769828,19.4975345 9.99044828,19.6105 L10.2935,21.1142328 L8.78976724,20.811181 Z M14.1760862,18.9480345 L11.3842931,18.9480345 C11.3361379,18.9480345 11.2910603,18.9316207 11.2544914,18.9037414 C11.3556897,18.6566897 11.4402328,18.403181 11.5067931,18.1447241 L14.1760862,18.1447241 C14.2494655,18.1447241 14.3210948,18.137181 14.3905517,18.1236034 L14.3905517,18.7335086 C14.3905517,18.8517845 14.2943621,18.9480345 14.1760862,18.9480345 Z M14.8480259,14.6631897 C14.743931,14.6631897 14.6436983,14.6467155 14.5493793,14.6166034 L15.7866897,13.3792931 C15.8167414,13.4735517 15.8332759,13.5737845 15.8332759,13.6778793 C15.8332759,14.2212241 15.3913103,14.6631897 14.8480259,14.6631897 Z M25.7074397,29.1448017 L25.7074397,29.7769741 C25.7074397,29.89525 25.61125,29.9914397 25.4929741,29.9914397 L6.1010431,29.9914397 C5.98276724,29.9914397 5.88657759,29.89525 5.88657759,29.7769741 L5.88657759,29.1448017 C5.88657759,29.0265259 5.98276724,28.9302759 6.1010431,28.9302759 L17.0353448,28.9302759 C17.2852931,28.9302759 17.487931,28.7276983 17.487931,28.4776897 C17.487931,28.227681 17.2852931,28.0251034 17.0353448,28.0251034 L16.3946638,28.0251034 L16.3946638,23.3100603 C16.3946638,22.6702241 16.9151379,22.14975 17.5549741,22.14975 L19.3501724,22.14975 C19.9899483,22.14975 20.5104828,22.6702241 20.5104828,23.3100603 L20.5104828,28.0251034 L19.076569,28.0251034 C18.8266207,28.0251034 18.6239828,28.227681 18.6239828,28.4776897 C18.6239828,28.7276983 18.8266207,28.9302759 19.076569,28.9302759 L25.4931552,28.9302759 C25.61125,28.9302759 25.7074397,29.0265259 25.7074397,29.1448017 Z" id="Shape"></path>
                <path d="M19.8796379,24.482681 C19.8796379,23.6957845 19.2394397,23.0555862 18.4524828,23.0555862 C17.6655259,23.0555862 17.0253879,23.6957845 17.0253879,24.482681 C17.0253879,25.2695776 17.6655862,25.9097759 18.4524828,25.9097759 C19.2393793,25.9097759 19.8796379,25.2695776 19.8796379,24.482681 Z M18.4524828,25.0046034 C18.1646379,25.0046034 17.9305603,24.7704655 17.9305603,24.482681 C17.9305603,24.1948966 18.1646983,23.9607586 18.4524828,23.9607586 C18.7402672,23.9607586 18.9744655,24.1948966 18.9744655,24.482681 C18.9744655,24.7704655 18.7403276,25.0046034 18.4524828,25.0046034 Z" id="Shape"></path>
                <path d="M7.91518966,15.9648879 C7.91518966,14.6871466 6.87568966,13.6476466 5.59794828,13.6476466 C4.3202069,13.6476466 3.2807069,14.6872069 3.2807069,15.9648879 C3.2807069,16.7624655 3.68417241,17.4898017 4.3457931,17.9136638 C4.3377069,17.9826379 4.33312069,18.0526379 4.33312069,18.1237845 C4.33312069,19.1144655 5.13908621,19.9203707 6.1297069,19.9203707 C7.12032759,19.9203707 7.9262931,19.1144655 7.9262931,18.1237845 C7.9262931,17.7477759 7.81000862,17.3985 7.61171552,17.1096897 C7.81006897,16.7619828 7.91518966,16.3707672 7.91518966,15.9648879 Z M4.18587931,15.9648879 C4.18587931,15.1862586 4.81931897,14.552819 5.59794828,14.552819 C6.37657759,14.552819 7.01001724,15.1862586 7.01001724,15.9648879 C7.01001724,16.1518966 6.97356897,16.3337155 6.90393103,16.5027414 C6.66937069,16.3902586 6.40681034,16.3271379 6.12976724,16.3271379 C5.54225,16.3271379 5.01972414,16.6106379 4.69175,17.0479569 C4.37427586,16.7833448 4.18587931,16.3904397 4.18587931,15.9648879 Z M6.1297069,19.0151379 C5.63813793,19.0151379 5.2382931,18.6152328 5.2382931,18.1237241 C5.2382931,17.6322155 5.63819828,17.2323103 6.1297069,17.2323103 C6.62121552,17.2323103 7.02112069,17.6322155 7.02112069,18.1237241 C7.02112069,18.6152328 6.62127586,19.0151379 6.1297069,19.0151379 Z" id="Shape"></path>
            </g>
        </g>
    </g>
</svg>