<?xml version="1.0" encoding="UTF-8"?>
<svg width="26px" height="26px" viewBox="0 0 26 26" version="1.1" xmlns="http://www.w3.org/2000/svg" xmlns:xlink="http://www.w3.org/1999/xlink">
    <!-- Generator: sketchtool 52.1 (67048) - http://www.bohemiancoding.com/sketch -->
    <title>26C5978E-1487-49AA-9A08-1BBB672D4A3F</title>
    <desc>Created with sketchtool.</desc>
    <g id="*CRM" stroke="none" stroke-width="1" fill="none" fill-rule="evenodd">
        <g id="Demanda-Inducida-012" transform="translate(-156.000000, -429.000000)" fill="#3962E6">
            <g id="laboratorio_domicilio" transform="translate(156.000000, 429.000000)">
                <path d="M9.64076865,14.6026887 C9.44530499,14.4067239 9.12755126,14.4067239 8.9320876,14.6026887 C8.73612276,14.7981524 8.73612276,15.1154049 8.9320876,15.3113698 C9.12755126,15.5068334 9.44530499,15.5068334 9.64076865,15.3113698 C9.83673349,15.1154049 9.83673349,14.7981524 9.64076865,14.6026887 Z" id="Path"></path>
                <path d="M25.2201742,3.27577038 L22.3844978,0.440244293 C21.8041211,-0.138829314 20.8554708,-0.154566644 20.2588556,0.440645245 C19.6712618,1.02823906 19.6712116,1.97909457 20.2588556,2.56678862 L20.6131961,2.92112914 L18.2070385,5.32763757 C18.0427989,5.16339798 16.5953154,3.71591444 16.4349349,3.55548388 C16.2391706,3.35986987 15.9218679,3.35981975 15.7261537,3.55548388 C15.5304394,3.75119813 15.5303893,4.06855092 15.7261537,4.26431529 L16.0804441,4.61860569 C15.9013192,4.79768047 7.55241491,13.147136 6.92091695,13.7786841 C6.07591253,14.6236384 5.75244524,15.7851436 5.94846021,16.8776852 L5.0339409,17.7922045 C4.44780053,18.378395 4.44780053,19.3320571 5.03389078,19.9182977 L0.146798217,24.8052399 C-0.0489160326,25.0010043 -0.0489160326,25.3183571 0.146798217,25.5140713 C0.342562585,25.7097856 0.659865251,25.7097856 0.85562962,25.5140713 L5.74262194,20.627079 C6.32876231,21.2131693 7.28252471,21.2132194 7.8687152,20.6270289 L8.78338487,19.7123592 C9.92308833,19.9158419 11.0812355,19.5410529 11.8821353,18.7400529 C13.8640867,16.7582519 19.0268832,11.5957059 21.0422639,9.58042551 L21.3965543,9.93471591 C21.5923186,10.1304302 21.9096213,10.1304302 22.1053356,9.93471591 C22.3010498,9.73900166 22.3010999,9.42164888 22.1053356,9.22588451 C21.944905,9.06545396 20.4988749,7.61937374 20.3331819,7.45373083 L22.7397404,5.04762335 L23.0935798,5.40146269 C23.6810232,5.99045983 24.6344348,5.98925698 25.2202243,5.40196388 C25.8077179,4.81442018 25.8078683,3.86351456 25.2201742,3.27577038 Z M7.15993392,19.9181474 C6.9645705,20.1135108 6.64666641,20.1135108 6.45135311,19.9181474 C5.58755411,19.0543484 5.7977026,19.2644468 5.74267206,19.2094162 C5.54725853,19.014153 5.54725853,18.6962991 5.74262194,18.5009356 L6.31583164,17.927726 C6.46739115,18.2077402 6.65729161,18.4658524 6.87781471,18.6942943 C7.12735664,18.9528075 7.41614166,19.1733807 7.7330935,19.3449377 L7.15993392,19.9181474 Z M13.5391158,15.6656602 L13.1847753,15.3113196 C12.9890611,15.1156555 12.6717083,15.1156555 12.475994,15.3113196 C12.2802798,15.5070339 12.2802798,15.8243867 12.475994,16.020151 L12.8302844,16.3744414 L12.1216034,17.0830724 L11.0581307,16.0199004 C10.8624165,15.8242864 10.5450637,15.8242864 10.3493495,16.0200007 C10.1536352,16.215765 10.1537354,16.5331178 10.3494497,16.7288321 L11.412772,17.7918035 L11.1733039,18.0312215 C10.1875156,19.0171101 8.57047984,19.0127497 7.59256014,17.9927301 C6.66475932,17.0250347 6.64872128,15.468292 7.62964811,14.4874654 L10.7038905,11.4128221 L14.2479472,14.9568288 L13.5391158,15.6656602 Z M20.3334325,8.87159411 L19.2095165,9.99546 L18.1458935,8.93218784 C17.9501792,8.73652371 17.6328264,8.73657383 17.4371122,8.93228808 C17.2413979,9.12805245 17.2414982,9.44540523 17.4372124,9.64111948 L18.5006851,10.7042413 L17.7916532,11.413223 L17.4372124,11.0587823 C17.241448,10.8631683 16.9241454,10.8631182 16.7284311,11.0587823 C16.5327169,11.2544965 16.5326668,11.5718493 16.7284311,11.7676137 L17.0828218,12.1220544 L16.374241,12.8305851 L15.3111693,11.7675135 C15.115455,11.5718493 14.7981022,11.5718493 14.602388,11.7675135 C14.4066737,11.9632277 14.4066737,12.2805805 14.602388,12.4763449 L15.6654096,13.5393664 L14.9565782,14.2481477 L11.4125214,10.704141 L16.7891752,5.32748721 L20.3334325,8.87159411 Z M19.6244006,6.74499966 L18.9157697,6.03636873 L21.3219273,3.62986031 L22.0309591,4.33889219 L19.6244006,6.74499966 Z M24.5109418,4.69358354 C24.3187359,4.88624054 24.0010323,4.89180374 23.8028622,4.69308235 C23.5621913,4.45241146 21.3492421,2.23946218 20.9676369,1.85785698 C20.7711708,1.66144107 20.7724739,1.34453935 20.9671357,1.14982748 C21.1650551,0.952359069 21.4806037,0.954263587 21.6761675,1.14937641 L24.5113929,3.98455166 C24.7061048,4.17926354 24.7085105,4.49596478 24.5109418,4.69358354 Z" id="Shape" fill-rule="nonzero"></path>
            </g>
        </g>
    </g>
</svg>