<?xml version="1.0" encoding="UTF-8"?>
<svg width="11px" height="12px" viewBox="0 0 11 12" version="1.1" xmlns="http://www.w3.org/2000/svg" xmlns:xlink="http://www.w3.org/1999/xlink">
    <!-- Generator: sketchtool 52.1 (67048) - http://www.bohemiancoding.com/sketch -->
    <title>7222D1B5-E0F8-48E4-BE8F-DBB0C3F5392E</title>
    <desc>Created with sketchtool.</desc>
    <g id="Parte-1-+" stroke="none" stroke-width="1" fill="none" fill-rule="evenodd">
        <g id="Mod-Plani-17" transform="translate(-1142.000000, -1349.000000)" fill="#DBE0E4">
            <g id="Pages" transform="translate(768.000000, 1339.000000)">
                <g id="Last/page/arrow/grey">
                    <path d="M375,10 L375.2,10 C375.752285,10 376.2,10.4477153 376.2,11 L376.2,20 C376.2,20.5522847 375.752285,21 375.2,21 L375,21 C374.447715,21 374,20.5522847 374,20 L374,11 C374,10.4477153 374.447715,10 375,10 Z M384.292444,11.712444 L380.412444,15.592444 L384.292444,19.472444 C384.544316,19.7243163 384.642684,20.0914281 384.550492,20.4354919 C384.4583,20.7795558 384.189556,21.0483003 383.845492,21.140492 C383.501428,21.2326836 383.134316,21.1343163 382.882444,20.882444 L378.292444,16.292444 C378.105216,16.1055994 378,15.8519535 378,15.587444 C378,15.3229346 378.105216,15.0692886 378.292444,14.882444 L382.882444,10.292444 C383.069289,10.1052159 383.322935,10 383.587444,10 C383.851954,10 384.105599,10.1052159 384.292444,10.292444 C384.672444,10.682444 384.682444,11.322444 384.292444,11.712444 Z" transform="translate(379.292244, 15.587244) rotate(-180.000000) translate(-379.292244, -15.587244) "></path>
                </g>
            </g>
        </g>
    </g>
</svg>