<?xml version="1.0" encoding="UTF-8"?>
<svg width="16px" height="16px" viewBox="0 0 16 16" version="1.1" xmlns="http://www.w3.org/2000/svg" xmlns:xlink="http://www.w3.org/1999/xlink">
    <!-- Generator: sketchtool 52.1 (67048) - http://www.bohemiancoding.com/sketch -->
    <title>BE5ACF54-FE34-4FD9-BDA8-79F5B4B8CA5B</title>
    <desc>Created with sketchtool.</desc>
    <g id="2.0-Web-(2)*" stroke="none" stroke-width="1" fill="none" fill-rule="evenodd">
        <g id="Desktop-76-1" transform="translate(-359.000000, -738.000000)" stroke="#3962E6">
            <g id="Less" transform="translate(367.000000, 746.000000) rotate(-315.000000) translate(-367.000000, -746.000000) translate(360.000000, 739.000000)">
                <path d="M14,7 C14,10.8661 10.8661,14 7,14 C3.1339,14 0,10.8661 0,7 C0,3.1339 3.1339,0 7,0 C10.8661,0 14,3.1339 14,7" id="Fill-1" stroke-width="1.5"></path>
                <path d="M4.68132656,9.91605781 C4.60292656,9.91605781 4.52452656,9.88604531 4.46480781,9.82632656 C4.34506406,9.70658281 4.34506406,9.51303281 4.46480781,9.39328906 L9.39328906,4.46480781 C9.51272656,4.34506406 9.70658281,4.34506406 9.82632656,4.46480781 C9.94576406,4.58424531 9.94576406,4.77810156 9.82632656,4.89784531 L4.89784531,9.82632656 C4.83812656,9.88604531 4.75972656,9.91605781 4.68132656,9.91605781" id="Fill-3" stroke-width="0.8" fill="#3962E6"></path>
            </g>
        </g>
    </g>
</svg>