<?xml version="1.0" encoding="UTF-8"?>
<svg width="24px" height="19px" viewBox="0 0 24 19" version="1.1" xmlns="http://www.w3.org/2000/svg" xmlns:xlink="http://www.w3.org/1999/xlink">
    <!-- Generator: sketchtool 52.1 (67048) - http://www.bohemiancoding.com/sketch -->
    <title>3BFCB1F5-8848-4F66-A638-7D34928136A2</title>
    <desc>Created with sketchtool.</desc>
    <defs>
        <polygon id="path-1" points="0 0.0921378161 23.4476181 0.0921378161 23.4476181 18.440678 0 18.440678"></polygon>
    </defs>
    <g id="*CRM" stroke="none" stroke-width="1" fill="none" fill-rule="evenodd">
        <g id="Demanda-Inducida-001" transform="translate(-903.000000, -330.000000)">
            <g id="Group-12" transform="translate(638.000000, 330.000000)">
                <g id="Lumbalgia" transform="translate(265.000000, -0.000000)">
                    <g id="Group-3" transform="translate(0.000000, 0.012678)">
                        <mask id="mask-2" fill="white">
                            <use xlink:href="#path-1"></use>
                        </mask>
                        <g id="Clip-2"></g>
                        <path d="M5.14890971,4.80301079 C4.77401911,5.02031741 4.44743051,5.20954391 4.10764006,5.40662866 C4.35459846,5.63671803 4.57965855,5.84616641 4.81372943,6.06410169 C4.91567704,5.68061941 5.02317781,5.27639137 5.14890971,4.80301079 M22.3970206,9.44335593 C22.6024875,9.39840678 22.7180561,9.30903236 22.7400592,9.1160339 C22.8579328,8.07885054 22.305865,7.28862558 21.4284659,7.12905085 C20.9657726,7.04491525 20.4820191,7.076453 20.0160777,7.05602157 C19.8835353,7.70595069 19.9082626,7.73738367 20.5016123,7.73738367 C20.6320592,7.73738367 20.7629251,7.73329738 20.8929529,7.74157473 C21.4288851,7.7757319 21.8530206,8.02646225 22.1001886,8.49198459 C22.2500191,8.77435747 22.2975877,9.1111094 22.3970206,9.44335593 M3.79634884,12.7211864 C3.78419476,12.8912388 3.77046903,13.0284961 3.7652302,13.1660678 C3.70739353,14.6828136 4.01784653,16.1428752 4.43726718,17.5876394 C4.48556918,17.7538151 4.58332573,17.7516148 4.70937196,17.7513005 C5.51950447,17.7492049 6.3295322,17.7489954 7.13966471,17.7482619 C7.28519938,17.7480524 7.43073405,17.7482619 7.60382496,17.7482619 C7.57343975,17.618339 7.55154145,17.5265547 7.53058613,17.4345609 C7.38190817,16.7814884 7.22820092,16.1296733 7.08769553,15.4748197 C7.03258305,15.2174884 7.13432111,15.0472265 7.33392049,15.002906 C7.54630262,14.955547 7.69801911,15.0824314 7.76025639,15.3507643 C7.92538428,16.0625116 8.10109461,16.771849 8.25480185,17.4860062 C8.30069399,17.6995408 8.39205917,17.7569584 8.60569861,17.7558059 C10.3129282,17.7464807 12.0202626,17.750567 13.7275969,17.750567 L13.9944629,17.750567 C13.9804228,17.6650693 13.9763365,17.6132049 13.9630299,17.5636456 C13.6434613,16.3700308 13.3272456,15.175473 12.9939513,13.985735 C12.9677572,13.892379 12.8316524,13.7903267 12.7283427,13.7640277 C10.2292117,13.1277196 7.68879877,12.7848906 5.11087581,12.7226533 C4.68537812,12.7123852 4.25935655,12.7211864 3.79634884,12.7211864 M3.31678644,8.51094915 C2.85053066,8.78923575 2.68749831,8.76723267 2.3573473,8.43718644 C1.80894669,7.88878582 1.26002219,7.34090909 0.710364253,6.79387057 C-0.4060302,5.68271495 -0.176883821,3.98376271 1.18898367,3.20380586 C2.50518706,2.45213867 3.82044746,1.69869029 5.12858305,0.932983051 C6.03647211,0.401661017 7.00754145,0.10964869 8.0590792,0.0975993837 C8.77365547,0.0895315871 9.48833652,0.0918366718 10.2029128,0.0953990755 C10.4581485,0.0966563945 10.613637,0.234228043 10.6137418,0.436132512 C10.6138465,0.636884438 10.4583581,0.767121726 10.2014459,0.779485362 C10.1405707,0.782419106 10.079486,0.780323575 10.018506,0.780428351 C9.40839199,0.781266564 8.79827797,0.785771957 8.18826872,0.782 C7.18545208,0.775608629 6.26876179,1.05735285 5.40739353,1.56384284 C4.11581263,2.32326348 2.81040123,3.0591094 1.51850601,3.81790139 C0.537482897,4.39396302 0.403473652,5.4887735 1.20302373,6.30665948 C1.73780339,6.853698 2.28033652,7.3931926 2.81480185,7.93142989 C3.28912542,7.45522034 3.74165547,7.00101387 4.25527026,6.4855131 C4.13058613,6.38241294 3.98243205,6.27648382 3.85387119,6.15054237 C3.43057381,5.73583667 3.01303914,5.31526348 2.5962379,4.89406163 C2.39328567,4.68911864 2.37400678,4.50146379 2.53001911,4.34807088 C2.68383112,4.19698305 2.88332573,4.21877658 3.0816678,4.40831741 C3.09424099,4.42047149 3.10639507,4.43293991 3.11875871,4.44519877 C3.58438582,4.9120832 3.58428105,4.91187365 4.14787427,4.58538983 C4.50977257,4.37583667 4.87659538,4.17435131 5.23094977,3.95285362 C5.3225245,3.89554083 5.40582188,3.78688752 5.44050293,3.68410169 C5.53490663,3.40413867 5.59819168,3.11380277 5.67960308,2.82933436 C5.75032727,2.58227119 5.91189276,2.47330354 6.11599753,2.52485362 C6.317902,2.57577504 6.4123057,2.75504777 6.34619168,3.00294915 C6.0504074,4.11347612 5.75462311,5.22400308 5.4451131,6.33075809 C5.38633344,6.54083513 5.41755686,6.64173498 5.6177849,6.75667488 C6.33634268,7.1690755 6.71123328,7.80695532 6.75450601,8.63573806 C6.76184037,8.77477658 6.75639199,8.91454854 6.75806841,9.05390139 C6.76288814,9.46012018 6.89804992,9.60334977 7.30028721,9.62943914 C7.81421633,9.66296764 8.19665085,10.0339815 8.22242589,10.5241263 C8.2500869,11.0515716 7.86377565,11.4921572 7.33559692,11.5283051 C7.19687273,11.5378398 7.05626256,11.5378398 6.91774792,11.5264191 C6.72296826,11.5103883 6.61483883,11.3828752 6.60729492,11.1992018 C6.59964622,11.010604 6.71165239,10.8869676 6.90087889,10.8578398 C7.01194206,10.8407612 7.12667242,10.8462096 7.23983112,10.8442188 C7.41512234,10.8409707 7.55196055,10.7536918 7.51885116,10.581963 C7.49915316,10.4799106 7.36283883,10.3389861 7.26235809,10.323584 C6.38223482,10.1886317 6.05690354,9.84171649 6.07398213,8.95425886 C6.08550755,8.3514792 5.94112542,7.83136826 5.43955994,7.45815408 C5.32231495,7.37077042 5.18715316,7.30434206 5.0536678,7.24231433 C4.79141202,7.12056394 4.57211464,7.13669954 4.36308536,7.38638213 C4.17595439,7.60987057 3.92899599,7.78338059 3.7021547,7.98455162 C4.38372635,8.53651464 4.43800062,9.21620031 4.38425023,9.93276733 C4.36444746,10.1976425 4.41987427,10.4611556 4.64084807,10.6120339 C4.81687273,10.7321079 5.04329492,10.8018891 5.25672481,10.8373035 C5.5363735,10.8838243 5.68808998,10.980114 5.68505146,11.1945917 C5.68180339,11.4117935 5.52799137,11.5300863 5.24918089,11.5360586 C4.85784037,11.5444407 4.51553529,11.4111649 4.17228721,11.143775 C4.08961849,11.4406071 4.01501757,11.7090447 3.92847211,12.019812 C6.9513812,11.9987519 9.89696518,12.3521633 12.8138404,13.0631772 C12.7679482,11.41347 13.4367371,9.94198767 13.778204,8.40208629 C13.8152949,8.23475809 13.8082749,8.11363636 13.6957448,7.97334052 C13.3115291,7.49440678 13.1348758,6.93448074 13.1291131,6.32457627 C13.1209405,5.47934361 13.1242934,4.63400616 13.1254459,3.78866872 C13.125865,3.5069245 13.2455199,3.35457935 13.4603119,3.34734977 C13.6847433,3.33991063 13.8109991,3.49592296 13.8117325,3.79537442 C13.8139328,4.60592604 13.8099513,5.41637288 13.8134089,6.22671495 C13.8187525,7.48675809 14.7120777,8.37809245 15.9756832,8.38259784 C16.9865676,8.38626502 17.9975569,8.38343606 19.0085461,8.38343606 L19.2621054,8.38343606 L19.2621054,6.47356857 L16.634204,6.47356857 C16.6282317,6.55309399 16.6180684,6.63586749 16.6162872,6.71874576 C16.6089529,7.0626225 16.494432,7.22586441 16.2598373,7.22177812 C16.0277572,7.21790139 15.9223519,7.05864099 15.9220376,6.70449615 C15.9211994,5.69361171 15.9256,4.68283205 15.9204659,3.67194761 C15.912922,2.22603082 14.9856493,1.08543297 13.5655076,0.829673344 C13.1336185,0.751929122 12.6800407,0.794887519 12.2364166,0.783047766 C12.1057602,0.779590139 11.9735322,0.789753467 11.8448666,0.772570108 C11.645372,0.745956857 11.5267649,0.624101695 11.5371378,0.41779661 C11.5466724,0.2263698 11.6638126,0.100009245 11.8549251,0.102523883 C12.4723735,0.110486903 13.1020807,0.0620801233 13.7043365,0.16633282 C15.4352456,0.465679507 16.5958558,1.88739291 16.6146108,3.64543914 C16.6213165,4.27273652 16.615449,4.90034823 16.6169159,5.52775039 C16.6170206,5.59533128 16.628127,5.66301695 16.6369282,5.76297381 C16.8448049,5.76297381 17.0425183,5.76318336 17.2403365,5.76297381 C17.920127,5.76224037 18.5999174,5.76066872 19.2797079,5.7607735 C19.7792826,5.7607735 19.9017664,5.86439753 19.9986847,6.39016641 C20.3124906,6.39016641 20.6326878,6.3897473 20.9528851,6.39027119 C22.5349066,6.39278582 23.6145245,7.61060401 23.4263458,9.17994761 C23.3618034,9.71902311 22.9945615,10.0624807 22.4288727,10.1576179 C22.2975877,10.4769769 22.2195291,10.7927735 22.0494767,11.047171 C21.854278,11.3390786 21.5077818,11.3609769 21.1404351,11.323886 L21.1404351,11.6178891 C21.1404351,12.3847488 21.141902,13.1516086 21.1395969,13.9184684 C21.1386539,14.202832 21.0174274,14.3485763 20.7970823,14.3449091 C20.5799852,14.3413467 20.4549867,14.1892111 20.4547772,13.9105054 C20.452996,12.4900493 20.4532055,11.0695932 20.4545676,9.64903236 C20.454882,9.35817257 20.5865861,9.19314946 20.8063026,9.19482589 C21.0260191,9.19639753 21.1380253,9.35104777 21.1401208,9.65940524 C21.1416924,9.89462866 21.1382348,10.1299569 21.1422163,10.3651803 C21.1449405,10.5251741 21.2220561,10.6625362 21.3878126,10.6289029 C21.4831593,10.6094145 21.6202071,10.4740431 21.6251316,10.3846687 C21.6477633,9.9767735 21.6576123,9.56416333 21.6198928,9.15804931 C21.577563,8.7013282 21.194919,8.40512481 20.7520284,8.42869954 C20.3402564,8.45059784 19.9955414,8.80118028 19.9809775,9.2408228 C19.966204,9.68486595 19.973224,10.1296425 19.9733288,10.5741048 C19.9736431,12.8485948 19.9747957,15.12298 19.9756339,17.39747 L19.9756339,17.7278305 L20.4538342,17.7278305 C20.4538342,17.1684284 20.4537294,16.6131125 20.453939,16.0576918 C20.4540438,15.9095378 20.4448234,15.7604407 20.4582348,15.6134391 C20.4775137,15.4026287 20.596959,15.2715532 20.8161516,15.2784684 C21.0235045,15.2848598 21.1359297,15.4141541 21.1370823,15.6176302 C21.1413781,16.4105794 21.1439975,17.2037381 21.1360345,17.9965824 C21.1334151,18.2682681 20.9664012,18.4228136 20.6833997,18.4335008 C20.3962071,18.444188 20.108281,18.4409399 19.8207741,18.4365393 C19.4373966,18.430567 19.2829559,18.2753929 19.282432,17.8915963 C19.2806508,16.4972296 19.2814891,15.1029676 19.2820129,13.7086009 C19.2825368,12.2271649 19.2837941,10.7457288 19.2841085,9.26429276 C19.2842133,9.21347612 19.2784505,9.16276425 19.2740499,9.08921109 C19.1815322,9.08365794 19.0972918,9.07422804 19.0129467,9.07422804 C18.1675045,9.07349461 17.3220622,9.06542681 16.4768296,9.07747612 C15.7740931,9.08763945 15.0799482,9.078 14.4417541,8.65061633 C14.4033011,8.76649923 14.3729159,8.84476733 14.3513319,8.9254453 C14.1258527,9.7664869 13.9069744,10.6093097 13.6760468,11.4486749 C13.4555969,12.2500062 13.459788,13.0459938 13.6780376,13.8473251 C14.0280961,15.1324099 14.3678866,16.4203236 14.7119729,17.7070847 C14.8495445,18.2220616 14.6904937,18.4370632 14.1637818,18.437168 C10.9303766,18.4382157 7.69697134,18.4380062 4.4635661,18.4373775 C4.03136271,18.4372727 3.91841356,18.3588998 3.82421941,17.9452419 C3.59465393,16.9359291 3.33816086,15.9308074 3.16108844,14.9120647 C2.9111963,13.47453 3.1134151,12.0627704 3.57495593,10.6890447 C3.74458921,10.1841263 3.71923328,9.67093066 3.67355069,9.16538367 C3.65364314,8.94430508 3.44796672,8.73999076 3.31678644,8.51094915" id="Fill-1" fill="#2AB7CA" mask="url(#mask-2)"></path>
                    </g>
                    <path d="M1.79631063,10.2524512 C1.5705171,10.2524512 1.34430447,10.2598903 1.11882527,10.2503556 C0.883916179,10.2405066 0.727799076,10.0964388 0.744772881,9.90385948 C0.764785208,9.67722773 0.90654792,9.56574545 1.13003636,9.56427858 C1.57303174,9.56144961 2.0161319,9.55841109 2.4590225,9.56490724 C2.71362958,9.5686792 2.86052635,9.70708906 2.85727827,9.91559445 C2.85413498,10.123576 2.71017196,10.2475267 2.4478114,10.2549658 C2.23081911,10.2611476 2.01351248,10.2563279 1.79631063,10.2563279 L1.79631063,10.2524512 Z" id="Fill-4" fill="#2AB7CA"></path>
                    <path d="M1.47830324,12.8472641 C1.39060524,12.7801023 1.25512912,12.7271901 1.2189812,12.6353011 C1.17853744,12.5320961 1.18000431,12.3500992 1.24590878,12.2778034 C1.58601356,11.9050083 1.94623544,11.5496062 2.3132678,11.2027957 C2.45157288,11.0721393 2.62623544,11.0931994 2.75888259,11.2319236 C2.89111063,11.3701239 2.90274083,11.5453103 2.77397042,11.6814151 C2.43292265,12.0419513 2.07762527,12.3893904 1.72169923,12.7354675 C1.67004438,12.785865 1.5836037,12.8005337 1.47830324,12.8472641" id="Fill-6" fill="#2AB7CA"></path>
                    <path d="M3.79632789,12.7338854 C4.25933559,12.7338854 4.68535716,12.7250841 5.11085485,12.7353522 C7.68877781,12.7975895 10.2291908,13.1404185 12.7283217,13.7767267 C12.8316314,13.8030256 12.9677362,13.905078 12.9939304,13.9983291 C13.3272247,15.188172 13.6434404,16.3827297 13.9630089,17.5763445 C13.9763156,17.6257991 13.9804018,17.6777683 13.9944419,17.7632659 L13.727576,17.7632659 C12.0202416,17.7632659 10.3129072,17.7591797 8.60567766,17.7685048 C8.39203821,17.7696573 8.30067304,17.7122398 8.25478089,17.4987051 C8.10107365,16.7845479 7.92536333,16.0752105 7.76023544,15.3634632 C7.69799815,15.0951304 7.54628166,14.9682459 7.33400431,15.0155002 C7.13430015,15.0599254 7.0325621,15.2301874 7.08767458,15.4874139 C7.22817997,16.1422675 7.38199199,16.7941874 7.53066995,17.447155 C7.55152049,17.5391488 7.5734188,17.6309331 7.60380401,17.7609609 C7.4307131,17.7609609 7.28517843,17.7607513 7.13964376,17.7609609 C6.32951125,17.7615895 5.51948351,17.7617991 4.709351,17.7639994 C4.58330478,17.7643137 4.485653,17.7664092 4.437351,17.6002336 C4.01782558,16.1554693 3.70737257,14.6955125 3.76520924,13.1787667 C3.77044807,13.0411951 3.78417381,12.9039378 3.79632789,12.7338854" id="Fill-8" fill="#FFFFFF"></path>
                    <path d="M22.3970311,9.45599199 C22.2975982,9.12374545 22.2500296,8.78709831 22.1001991,8.50462065 C21.8530311,8.03920308 21.4288955,7.78836795 20.8929633,7.75431556 C20.7629356,7.74603821 20.6320696,7.7501245 20.5016228,7.7501245 C19.908273,7.75001972 19.8835458,7.71858675 20.0159834,7.06865763 C20.4820296,7.08908906 20.9656783,7.05765609 21.4284764,7.14179168 C22.3057707,7.30126163 22.8578385,8.09159137 22.7399649,9.12866995 C22.7180666,9.32166841 22.6023932,9.41104284 22.3970311,9.45599199" id="Fill-10" fill="#FFFFFF"></path>
                    <path d="M5.14890971,4.81568875 C5.02317781,5.28906934 4.91567704,5.69329738 4.81372943,6.07677966 C4.57965855,5.85884438 4.35459846,5.64939599 4.10764006,5.41930663 C4.44743051,5.22222188 4.77401911,5.03299538 5.14890971,4.81568875" id="Fill-12" fill="#FFFFFF"></path>
                </g>
            </g>
        </g>
    </g>
</svg>