<?xml version="1.0" encoding="UTF-8"?>
<svg width="26px" height="20px" viewBox="0 0 26 20" version="1.1" xmlns="http://www.w3.org/2000/svg" xmlns:xlink="http://www.w3.org/1999/xlink">
    <!-- Generator: sketchtool 52.1 (67048) - http://www.bohemiancoding.com/sketch -->
    <title>AC820D18-FA33-42C1-BC70-C1ADB0B6AAEC</title>
    <desc>Created with sketchtool.</desc>
    <g id="Parte-1-+" stroke="none" stroke-width="1" fill="none" fill-rule="evenodd">
        <g id="Mod-Plani-16" transform="translate(-700.000000, -541.000000)" fill="#CED8E1" fill-rule="nonzero">
            <g id="Modal">
                <path d="M723,541 L703,541 C701.625,541 700.5125,542.125 700.5125,543.5 L700.5,558.5 C700.5,559.875 701.625,561 703,561 L723,561 C724.375,561 725.5,559.875 725.5,558.5 L725.5,543.5 C725.5,542.125 724.375,541 723,541 Z M721.75,558.5 L704.25,558.5 C703.5625,558.5 703,557.9375 703,557.25 L703,546 L711.675,551.425 C712.4875,551.9375 713.5125,551.9375 714.325,551.425 L723,546 L723,557.25 C723,557.9375 722.4375,558.5 721.75,558.5 Z M713,549.75 L703,543.5 L723,543.5 L713,549.75 Z" id="Mail-icon"></path>
            </g>
        </g>
    </g>
</svg>