<?xml version="1.0" encoding="UTF-8"?>
<svg width="23px" height="23px" viewBox="0 0 23 23" version="1.1" xmlns="http://www.w3.org/2000/svg" xmlns:xlink="http://www.w3.org/1999/xlink">
    <!-- Generator: sketchtool 52.1 (67048) - http://www.bohemiancoding.com/sketch -->
    <title>9389C147-6CED-4219-B9F2-8418A6A9CD86</title>
    <desc>Created with sketchtool.</desc>
    <g id="PREDICCIÓN-2" stroke="none" stroke-width="1" fill="none" fill-rule="evenodd">
        <g id="productividad-0002" transform="translate(-1430.000000, -895.000000)" fill="#FB9A0E">
            <g id="Group-5-Copy-4" transform="translate(1430.000000, 895.000000)">
                <g id="medio">
                    <path d="M11.4967762,0 C5.14728452,0 0,5.14728452 0,11.4967762 C0,17.8462678 5.14728452,22.9935523 11.4967762,22.9935523 C17.8462678,22.9935523 22.9935523,17.8462678 22.9935523,11.4967762 C22.9868159,5.15012343 17.843477,0.00678451883 11.4967762,0 Z M11.4967762,21.3511695 C6.054341,21.3511695 1.64238285,16.9392113 1.64238285,11.4967762 C1.64238285,6.054341 6.054341,1.64238285 11.4967762,1.64238285 C16.9392113,1.64238285 21.3511695,6.054341 21.3511695,11.4967762 C21.3452992,16.9368054 16.9368054,21.3452992 11.4967762,21.3511695 Z" id="Shape" fill-rule="nonzero"></path>
                    <rect id="Rectangle" x="5.8" y="10.5" width="12" height="2" rx="1"></rect>
                </g>
            </g>
        </g>
    </g>
</svg>