<?xml version="1.0" encoding="UTF-8"?>
<svg width="19px" height="23px" viewBox="0 0 19 23" version="1.1" xmlns="http://www.w3.org/2000/svg" xmlns:xlink="http://www.w3.org/1999/xlink">
    <!-- Generator: sketchtool 52.1 (67048) - http://www.bohemiancoding.com/sketch -->
    <title>D003B914-E5B5-4831-84FD-F690F13B6DA9</title>
    <desc>Created with sketchtool.</desc>
    <g id="*Ajustes" stroke="none" stroke-width="1" fill="none" fill-rule="evenodd">
        <g id="Ajustes-036" transform="translate(-1363.000000, -1212.000000)" fill="#3962E6" stroke="#3962E6" stroke-width="0.3">
            <g id="Group-2" transform="translate(459.000000, 324.000000)">
                <g id="Filtros-de-Búsqueda" transform="translate(0.000000, 615.000000)">
                    <g id="Btn-secundario-icono-Copy-2" transform="translate(893.000000, 266.000000)">
                        <g id="medico" transform="translate(11.000000, 7.000000)">
                            <path d="M9.49208333,12.69105 C6.63606667,12.59795 5.95111667,10.15265 5.8045,9.3632 C5.52955454,9.29949341 5.28457508,9.14388174 5.11005,8.92208333 C4.91080884,8.64753882 4.81838731,8.30982309 4.85006667,7.97208333 C4.8042954,7.60407559 4.91660042,7.23390631 5.15913333,6.95336667 C5.22682965,6.88396733 5.30466579,6.82524321 5.38998333,6.7792 C4.8591625,5.9222054 4.59772143,4.92564058 4.63948333,3.91843333 C4.97008333,1.5561 6.87388333,1.3262 7.47016667,1.3129 C7.74459376,0.99370717 8.087657,0.740712916 8.47368333,0.57285 C9.19678391,0.28117602 9.99600617,0.236644901 10.7470333,0.446183333 C12.2233333,0.831566667 13.20785,1.57066667 13.6749333,2.64321667 C14.3399333,4.16765 13.7566333,5.9223 13.4216,6.71016667 C13.5493736,6.75168692 13.6671281,6.81929875 13.7674,6.90871667 C14.0439215,7.18946066 14.1744773,7.58264881 14.1208,7.97303333 C14.1527765,8.3107515 14.060449,8.64853505 13.8611333,8.92303333 C13.6864244,9.14477767 13.4413677,9.30036743 13.1663667,9.36415 C13.01975,10.15265 12.3363833,12.59795 9.49208333,12.69105 Z M5.91913333,7.28555 C5.80682344,7.28031825 5.69695749,7.31944236 5.61323333,7.39448333 C5.49616381,7.55845996 5.44952932,7.76244313 5.48371667,7.961 C5.48504131,7.98213293 5.4842989,8.00334472 5.4815,8.02433333 C5.4642906,8.2060916 5.51123148,8.38814152 5.61418333,8.53891667 C5.74390931,8.68382328 5.92654926,8.77034896 6.12085,8.77895 C6.27011279,8.79659143 6.38641115,8.91672671 6.3992,9.06648333 C6.40965,9.18428333 6.69053333,11.9662 9.49271667,12.0580333 C12.2793833,11.9662 12.5615333,9.18428333 12.5719833,9.06585 C12.5850567,8.91633905 12.7012862,8.79653937 12.8503333,8.77895 C13.0446517,8.77042 13.2273178,8.68388192 13.357,8.53891667 C13.4604063,8.38739472 13.5073621,8.20439029 13.4896833,8.0218 C13.4870435,8.00143506 13.4863015,7.9808689 13.4874667,7.96036667 C13.5220628,7.75516473 13.4703844,7.54478457 13.34465,7.37896667 C13.2457327,7.30611941 13.1226657,7.27393614 13.00075,7.28903333 C12.8811695,7.3102474 12.7599904,7.26120231 12.6888273,7.16278816 C12.6176643,7.06437401 12.609055,6.93392985 12.6666667,6.82701667 C12.6783833,6.80485 13.8383333,4.60338333 13.0929,2.89243333 C12.7068833,2.0083 11.8642333,1.39111667 10.58775,1.05798333 C9.97423274,0.884362407 9.32059919,0.917750806 8.72796667,1.15298333 C8.39081658,1.29824354 8.09694305,1.52819358 7.87486667,1.82051667 C7.80983844,1.90896104 7.70332131,1.95699582 7.59398333,1.94718333 C7.51196667,1.94053333 5.57301667,1.81513333 5.26901667,3.98271667 C5.26901667,3.98271667 5.1813,5.70696667 6.18006667,6.75196667 C6.26909303,6.84503827 6.29288089,6.98275745 6.24023333,7.1003 C6.1915715,7.2212297 6.07036217,7.29687354 5.94035,7.28745 L5.91913333,7.28555 Z" id="Shape" fill-rule="nonzero"></path>
                            <path d="M12.94565,7.29315 C12.7758248,7.29329985 12.6361159,7.15945871 12.6289833,6.98978333 C12.6251833,6.90776667 12.5270167,4.99478333 11.09885,4.8108 C9.77854664,4.9784774 8.44765534,4.59295098 7.4214,3.74553333 C7.01765,4.04921667 6.08728333,4.9723 6.2662,6.94101667 C6.27110666,7.10828068 6.14502875,7.25049174 5.97838206,7.2656643 C5.81173537,7.28083686 5.66204782,7.16373322 5.63666667,6.99833333 C5.37415,4.11001667 7.22886667,3.10745 7.30771667,3.06628333 C7.42806716,3.00347481 7.57506316,3.02436506 7.67315,3.11821667 C8.58651431,3.9454938 9.81528985,4.33322995 11.03805,4.18 C11.0670443,4.17530997 11.0965096,4.17424624 11.1257667,4.17683333 C12.7357,4.34435 13.2274833,6.07398333 13.2623167,6.9635 C13.2690998,7.13796212 13.1333954,7.28499887 12.95895,7.2922 L12.94565,7.29315 Z" id="Path"></path>
                            <path d="M18.39485,22.4833333 L0.60515,22.4833333 C0.430259829,22.4833333 0.288483333,22.3415568 0.288483333,22.1666667 L0.288483333,18.6364667 C0.293196179,16.3133565 2.17703548,14.4322084 4.50015,14.4308167 L5.10815,14.4308167 C5.28304017,14.4308167 5.42481667,14.5725932 5.42481667,14.7474833 C5.42481667,14.9223735 5.28304017,15.06415 5.10815,15.06415 L4.50015,15.06415 C2.52667096,15.0651925 0.926180179,16.6629922 0.921816667,18.6364667 L0.921816667,21.85 L18.0781833,21.85 L18.0781833,18.6364667 C18.0759148,16.6644711 16.4778622,15.0664186 14.5058667,15.06415 L13.8541667,15.06415 C13.6792765,15.06415 13.5375,14.9223735 13.5375,14.7474833 C13.5375,14.5725932 13.6792765,14.4308167 13.8541667,14.4308167 L14.5058667,14.4308167 C16.827209,14.4341305 18.7082028,16.3151243 18.7115167,18.6364667 L18.7115167,22.1666667 C18.7115167,22.3415568 18.5697402,22.4833333 18.39485,22.4833333 Z" id="Path"></path>
                            <path d="M10.5583,22.4833333 C10.4660686,22.4833483 10.3784139,22.4431516 10.3182453,22.373249 C10.2580767,22.3033464 10.2313742,22.2106852 10.2451167,22.1194833 L11.5266667,13.6382 C11.5403989,13.5474128 11.5928611,13.467056 11.6704534,13.4179608 C11.7480456,13.3688656 11.8431273,13.3558666 11.93105,13.3823333 L14.14265,14.0489167 C14.2317939,14.0757996 14.3045893,14.1405521 14.3416787,14.2259553 C14.378768,14.3113585 14.3763924,14.4087566 14.3351833,14.49225 L13.4561167,16.2560833 L13.96595,16.8283 C14.0587364,16.9331857 14.0716142,17.0865606 13.9976167,17.20545 L10.8274667,22.3332333 C10.7697859,22.4264969 10.6679593,22.4832802 10.5583,22.4833333 Z M12.0985667,14.0942 L11.10265,20.6849833 L13.3361,17.0749833 L12.84115,16.5192333 C12.7549948,16.4226269 12.7363106,16.2833101 12.7939667,16.1674167 L13.6008333,14.5479833 L12.0985667,14.0942 Z" id="Shape" fill-rule="nonzero"></path>
                            <path d="M8.40528333,22.4833333 C8.2955113,22.4833899 8.19354008,22.4265928 8.1358,22.3332333 L4.9647,17.2064 C4.89070249,17.0875106 4.90358032,16.9341357 4.99636667,16.82925 L5.5062,16.2570333 L4.62713333,14.4932 C4.58592431,14.4097066 4.58354863,14.3123085 4.62063801,14.2269053 C4.6577274,14.1415021 4.73052278,14.0767496 4.81966667,14.0498667 L7.03126667,13.3832833 C7.11914748,13.3569248 7.21414049,13.3699773 7.29165513,13.4190618 C7.36916977,13.4681463 7.42158539,13.5484373 7.43533333,13.63915 L8.71751667,22.1204333 C8.73093069,22.2113223 8.70421035,22.3035566 8.64428988,22.3732005 C8.5843694,22.4428443 8.4971563,22.4830316 8.40528333,22.4833333 Z M5.62748333,17.0740333 L7.86093333,20.6840333 L6.86501667,14.0942 L5.36275,14.5470333 L6.1693,16.1664667 C6.22704107,16.2822972 6.20848306,16.4216077 6.12243333,16.5182833 L5.62748333,17.0740333 Z" id="Shape" fill-rule="nonzero"></path>
                            <path d="M9.50538333,16.5790833 C8.82068003,16.5785924 8.13661925,16.5371406 7.45686667,16.45495 C7.34209999,16.444437 7.24210605,16.3724032 7.19578764,16.2668735 C7.14946922,16.1613438 7.16414031,16.038982 7.23409309,15.9473932 C7.30404588,15.8558043 7.41823435,15.8094508 7.53223333,15.8263667 C8.82643121,15.9855161 10.1352521,15.9855161 11.42945,15.8263667 C11.6011622,15.8077995 11.7560824,15.9302506 11.7776749,16.1016087 C11.7992674,16.2729668 11.6795673,16.4300223 11.5086167,16.4546333 C10.8441368,16.538021 10.1750749,16.5795862 9.50538333,16.5790833 Z" id="Path"></path>
                            <path d="M11.8404833,14.00205 C11.7405308,14.0016771 11.6466215,13.9541355 11.58715,13.8738 C11.1165833,13.2376167 11.0314,11.97665 11.0234833,11.8351 C11.0133962,11.6605793 11.1466357,11.5108974 11.32115,11.5007 C11.4949954,11.4925372 11.6435194,11.624746 11.65555,11.7983667 C11.6748667,12.1315 11.7920333,13.08625 12.0960333,13.4972833 C12.1668777,13.5932267 12.1778075,13.7208369 12.1243103,13.8274301 C12.0708131,13.9340233 11.9619635,14.0015184 11.8427,14.00205 L11.8404833,14.00205 Z" id="Path"></path>
                            <path d="M7.1231,14.00205 C7.00383655,14.0015184 6.89498691,13.9340233 6.84148971,13.8274301 C6.78799252,13.7208369 6.79892229,13.5932267 6.86976667,13.4972833 C7.1744,13.0856167 7.29125,12.1311833 7.31056667,11.7983667 C7.31712844,11.6852326 7.3835481,11.584193 7.484806,11.5333086 C7.5860639,11.4824242 7.70677655,11.4894256 7.80147267,11.5516753 C7.89616879,11.613925 7.95046178,11.7219659 7.9439,11.8351 C7.93598333,11.97665 7.8489,13.2376167 7.38023333,13.8738 C7.31996721,13.9552147 7.22438996,14.0028856 7.1231,14.00205 Z" id="Path"></path>
                            <path d="M15.8824167,18.0449333 C15.7110509,18.0450054 15.5707196,17.9087437 15.56575,17.73745 C15.5065333,15.6753167 14.7224667,15.0264667 14.7148667,15.0201333 C14.5787571,14.9120623 14.5542528,14.7149014 14.6597667,14.5768 C14.7645894,14.4397555 14.9602002,14.4126384 15.09835,14.516 C15.14015,14.5476667 16.1297333,15.3162167 16.1990833,17.7190833 C16.2040528,17.8937596 16.0665871,18.0394449 15.8919167,18.0446167 L15.8824167,18.0449333 Z" id="Path"></path>
                            <path d="M15.884,19.9145333 C15.3776721,19.9146614 14.9211293,19.6097554 14.7272772,19.1420062 C14.5334252,18.674257 14.6404443,18.1357907 14.9984269,17.7777175 C15.3564095,17.4196443 15.8948487,17.312489 16.3626469,17.5062227 C16.8304452,17.6999564 17.1354667,18.1564221 17.1354667,18.66275 C17.1347688,19.353678 16.5749278,19.9136606 15.884,19.9145333 Z M15.884,18.0443 C15.6338315,18.0441719 15.4082251,18.1947712 15.312401,18.4258599 C15.2165769,18.6569487 15.2694106,18.923007 15.4462612,19.0999481 C15.6231117,19.2768892 15.8891429,19.3298593 16.1202807,19.2341535 C16.3514185,19.1384478 16.5021333,18.9129185 16.5021333,18.66275 C16.5017846,18.3214577 16.2252921,18.0448235 15.884,18.0443 Z" id="Shape" fill-rule="nonzero"></path>
                            <path d="M2.87596667,18.0449333 C2.70949334,18.0453534 2.57111911,17.9168038 2.5593,17.75075 C2.38671667,15.3203333 3.7259,14.54355 3.7829,14.5115667 C3.93522934,14.4256082 4.12839981,14.4794123 4.21435832,14.6317417 C4.30031684,14.784071 4.24651267,14.9772415 4.09418333,15.0632 C4.04605,15.0917 3.04918333,15.7069833 3.19073333,17.7061 C3.20306098,17.8805522 3.07163528,18.0319683 2.89718333,18.0443 L2.87596667,18.0449333 Z" id="Path"></path>
                            <path d="M2.23535,20.5804833 C2.13600999,20.5809331 2.04221631,20.5347397 1.98201667,20.4557167 C1.8274394,20.2527156 1.71356662,20.0217442 1.64666667,19.7755167 C1.34071616,18.7773219 1.89575725,17.7189438 2.89085,17.40305 C3.34895737,17.2742288 3.83961744,17.3349337 4.25251667,17.5715167 C4.98604529,17.9953226 5.37975289,18.8296798 5.24051667,19.6653167 C5.21183468,19.8378458 5.04872082,19.954457 4.87619167,19.925775 C4.70366251,19.897093 4.58705135,19.7339792 4.61573333,19.56145 C4.71088046,18.9890256 4.44311556,18.4172228 3.9425,18.1237833 C3.67614732,17.9699852 3.35915302,17.9297048 3.0628,18.012 C2.40244835,18.2328505 2.04269582,18.9438842 2.25593333,19.6067333 C2.3017562,19.775302 2.37983044,19.9333862 2.48583333,20.0722333 C2.55857381,20.1679651 2.5708254,20.2966333 2.51745914,20.4043728 C2.46409287,20.5121122 2.35431529,20.5803361 2.23408333,20.5804833 L2.23535,20.5804833 Z" id="Path"></path>
                            <path d="M4.9324,19.9306833 C4.92005,19.9306833 4.90738333,19.9306833 4.89471667,19.9287833 L4.53783333,19.8866667 C4.4254346,19.8733168 4.32869594,19.8010171 4.28405786,19.697002 C4.23941978,19.5929869 4.25366387,19.4730589 4.32142452,19.3823937 C4.38918518,19.2917284 4.50016793,19.2441002 4.61256667,19.25745 L4.96945,19.2998833 C5.13582362,19.3196721 5.25799015,19.4656333 5.24817116,19.6328916 C5.23835218,19.80015 5.09994624,19.9308142 4.9324,19.931 L4.9324,19.9306833 Z" id="Path"></path>
                            <path d="M2.23535,20.5833333 C2.08188572,20.5835432 1.95035872,20.4736831 1.92323545,20.3226346 C1.89611218,20.171586 1.98120022,20.0228291 2.12515,19.9696333 L2.50515,19.82935 C2.61121322,19.7897531 2.73034439,19.809748 2.81766796,19.881803 C2.90499152,19.953858 2.94724095,20.0670261 2.92850129,20.178678 C2.90976163,20.2903299 2.83287989,20.3835031 2.72681667,20.4231 L2.34681667,20.5637 C2.31114165,20.5768853 2.27338311,20.5835359 2.23535,20.5833333 Z" id="Path"></path>
                        </g>
                    </g>
                </g>
            </g>
        </g>
    </g>
</svg>