<?xml version="1.0" encoding="UTF-8"?>
<svg width="15px" height="15px" viewBox="0 0 15 15" version="1.1" xmlns="http://www.w3.org/2000/svg" xmlns:xlink="http://www.w3.org/1999/xlink">
    <!-- Generator: sketchtool 52.1 (67048) - http://www.bohemiancoding.com/sketch -->
    <title>AD6FCC35-5197-4EB7-901E-28524A89AFCC</title>
    <desc>Created with sketchtool.</desc>
    <g id="Mobile-01" stroke="none" stroke-width="1" fill="none" fill-rule="evenodd">
        <g id="Agenda-002" transform="translate(-274.000000, -1048.000000)">
            <g id="Group-4-Copy" transform="translate(18.000000, 1037.000000)">
                <g id="More-icon" transform="translate(256.000000, 11.000000)">
                    <rect id="Rectangle" stroke="#3962E6" stroke-width="1.5" x="0.75" y="0.75" width="13.5" height="13.5" rx="3"></rect>
                    <g id="Icon" transform="translate(7.629218, 7.629218) rotate(-315.000000) translate(-7.629218, -7.629218) translate(3.658629, 4.099806)" fill="#3962E6" fill-rule="nonzero">
                        <path d="M7.01119211,0.378960363 C6.90779137,0.275559627 6.77854045,0.22385926 6.62343935,0.22385926 C6.46833825,0.22385926 6.33908733,0.275559627 6.23568659,0.378960363 L3.89193659,2.72271036 L1.54818659,0.378960363 C1.44478586,0.275559627 1.31553494,0.22385926 1.16043383,0.22385926 C1.00533273,0.22385926 0.876081813,0.275559627 0.772681077,0.378960363 C0.669280342,0.482361098 0.617579974,0.611612017 0.617579974,0.76671312 C0.617579974,0.921814223 0.669280342,1.05106514 0.772681077,1.15446588 L3.11643108,3.49821588 L0.772681077,5.84196588 C0.703747254,5.9108997 0.654919129,5.99132249 0.626196702,6.08323426 C0.597474276,6.17514602 0.597474276,6.26993003 0.626196702,6.36758628 C0.654919129,6.46524253 0.703747254,6.54853757 0.772681077,6.61747139 C0.876081813,6.72087213 1.00533273,6.77257249 1.16043383,6.77257249 C1.31553494,6.77257249 1.44478586,6.72087213 1.54818659,6.61747139 L3.89193659,4.27372139 L6.23568659,6.61747139 C6.33908733,6.72087213 6.46833825,6.77257249 6.62343935,6.77257249 C6.77854045,6.77257249 6.90779137,6.72087213 7.01119211,6.61747139 C7.08012593,6.54853757 7.12895406,6.46524253 7.15767648,6.36758628 C7.18639891,6.26993003 7.18639891,6.17514602 7.15767648,6.08323426 C7.12895406,5.99132249 7.08012593,5.9108997 7.01119211,5.84196588 L4.66744211,3.49821588 L7.01119211,1.15446588 C7.11459284,1.05106514 7.16629321,0.921814223 7.16629321,0.76671312 C7.16629321,0.611612017 7.11459284,0.482361098 7.01119211,0.378960363 Z" id="More"></path>
                    </g>
                </g>
            </g>
        </g>
    </g>
</svg>