<?xml version="1.0" encoding="UTF-8"?>
<svg width="20px" height="18px" viewBox="0 0 20 18" version="1.1" xmlns="http://www.w3.org/2000/svg" xmlns:xlink="http://www.w3.org/1999/xlink">
    <!-- Generator: sketchtool 52.1 (67048) - http://www.bohemiancoding.com/sketch -->
    <title>C11E83EB-DE75-40D7-A9B4-5D3A0F01A5F9</title>
    <desc>Created with sketchtool.</desc>
    <g id="Agenda-1" stroke="none" stroke-width="1" fill="none" fill-rule="evenodd">
        <g id="Agenda-10" transform="translate(-315.000000, -1662.000000)" fill="#3962E6" fill-rule="nonzero">
            <g id="Movimientos-icon" transform="translate(315.000000, 1662.000000)">
                <path d="M8.06666667,10.8913043 L11.9333333,10.8913043 C12.4672086,10.8913043 12.9,10.4679214 12.9,9.94565217 C12.9,9.4233829 12.4672086,9 11.9333333,9 L8.06666667,9 C7.53279141,9 7.1,9.4233829 7.1,9.94565217 C7.1,10.4679214 7.53279141,10.8913043 8.06666667,10.8913043 Z M16.7666667,0.489130435 L3.23333333,0.489130435 C1.63170756,0.489130435 0.333333333,1.75927913 0.333333333,3.32608696 L0.333333333,6.16304348 C0.333333333,6.68531275 0.766124742,7.10869565 1.3,7.10869565 L2.26666667,7.10869565 L2.26666667,14.673913 C2.26666667,16.2407209 3.56504089,17.5108696 5.16666667,17.5108696 L14.8333333,17.5108696 C16.4349591,17.5108696 17.7333333,16.2407209 17.7333333,14.673913 L17.7333333,7.10869565 L18.7,7.10869565 C19.2338753,7.10869565 19.6666667,6.68531275 19.6666667,6.16304348 L19.6666667,3.32608696 C19.6666667,1.75927913 18.3682924,0.489130435 16.7666667,0.489130435 Z M15.8,14.673913 C15.8,15.1961823 15.3672086,15.6195652 14.8333333,15.6195652 L5.16666667,15.6195652 C4.63279141,15.6195652 4.2,15.1961823 4.2,14.673913 L4.2,7.10869565 L15.8,7.10869565 L15.8,14.673913 Z M17.7333333,5.2173913 L2.26666667,5.2173913 L2.26666667,3.32608696 C2.26666667,2.80381768 2.69945808,2.38043478 3.23333333,2.38043478 L16.7666667,2.38043478 C17.3005419,2.38043478 17.7333333,2.80381768 17.7333333,3.32608696 L17.7333333,5.2173913 Z"></path>
            </g>
        </g>
    </g>
</svg>