<?xml version="1.0" encoding="UTF-8"?>
<svg width="32px" height="32px" viewBox="0 0 32 32" version="1.1" xmlns="http://www.w3.org/2000/svg" xmlns:xlink="http://www.w3.org/1999/xlink">
    <!-- Generator: sketchtool 52.1 (67048) - http://www.bohemiancoding.com/sketch -->
    <title>1F634BB0-54C0-4978-A265-2AC0A95DC8BD</title>
    <desc>Created with sketchtool.</desc>
    <g id="*CRM" stroke="none" stroke-width="1" fill="none" fill-rule="evenodd">
        <g id="Demanda-Inducida-001" transform="translate(-1158.000000, -338.000000)" fill="#FF5964" fill-rule="nonzero">
            <g id="Negativa" transform="translate(1158.000000, 338.000000)">
                <path d="M15.8591402,0.000299065421 C11.7957383,0.000299065421 7.73263551,1.54646729 4.63970093,4.63940187 C-1.54706542,10.8261682 -1.54646729,20.8921121 4.64029907,27.0791776 C7.73293458,30.1724112 11.7960374,31.7185794 15.8591402,31.7185794 C19.922243,31.7185794 23.9853458,30.1718131 27.0791776,27.0773832 C33.2656449,20.891514 33.2650467,10.8264673 27.0797757,4.6408972 C23.9856449,1.54706542 19.922243,0.000299065421 15.8591402,0.000299065421 Z M25.3481869,25.3478879 C22.7319626,27.9641121 19.2957009,29.2719252 15.8591402,29.2725234 C12.4228785,29.2725234 8.98661682,27.9647103 6.37039252,25.3490841 C5.71603738,24.694729 5.14392523,23.9892336 4.65345794,23.245757 C1.21958879,18.038729 1.79229907,10.948486 6.37039252,6.37009346 C8.98661682,3.75416822 12.4228785,2.44635514 15.8591402,2.44635514 C19.2954019,2.44635514 22.7316636,3.75416822 25.3481869,6.37039252 C30.5806355,11.6025421 30.5800374,20.1163364 25.3481869,25.3478879 Z M7.3833271,15.6450093 C7.02085981,15.3061682 7.00231776,14.7379439 7.34085981,14.3751776 C7.67940187,14.0124112 8.24343925,13.9890841 8.61099065,14.3324112 C9.58325234,15.2454579 10.5815327,14.404785 10.6921869,14.3060935 C11.0226542,14.0100187 11.5119252,14.0034393 11.8486729,14.2705047 C11.8884486,14.3016075 11.9261308,14.3371963 11.9611215,14.3763738 C12.2918879,14.7460187 12.260486,15.3139439 11.8908411,15.6450093 C11.0941308,16.3582804 9.13704673,17.2853832 7.3833271,15.6450093 Z M24.3744299,14.3659065 C24.7048972,14.7355514 24.6737944,15.3034766 24.3041495,15.6345421 C23.5074393,16.3478131 21.5503551,17.2746168 19.7966355,15.6345421 C19.4341682,15.2957009 19.4159252,14.7274766 19.7541682,14.3647103 C20.0924112,14.0019439 20.6567477,13.9786168 21.0242991,14.3219439 C21.9965607,15.2349907 22.9948411,14.3943178 23.1054953,14.2956262 C23.4356636,13.9995514 23.9252336,13.992972 24.2619813,14.2600374 C24.301757,14.2911402 24.3391402,14.326729 24.3744299,14.3659065 Z M23.0331215,23.725757 C23.2299065,24.1806355 23.0208598,24.708785 22.5656822,24.9055701 C22.1111028,25.1029533 21.5835514,24.8933084 21.3867664,24.4381308 C20.520972,22.4379813 18.4765607,21.1445234 16.1764486,21.1445234 C13.8237009,21.1445234 11.7664299,22.436486 10.9359252,24.4363364 C10.7926729,24.7805607 10.4586168,24.9896075 10.107215,24.9896075 C9.9926729,24.9896075 9.87603738,24.9677757 9.76358879,24.9211215 C9.30601869,24.7306168 9.08919626,24.2054579 9.2791028,23.7481869 C10.3889346,21.0766355 13.0963738,19.351028 16.1767477,19.351028 C19.1925234,19.350729 21.8841121,21.0679626 23.0331215,23.725757 Z" id="Shape"></path>
            </g>
        </g>
    </g>
</svg>