<?xml version="1.0" encoding="UTF-8"?>
<svg width="7px" height="12px" viewBox="0 0 7 12" version="1.1" xmlns="http://www.w3.org/2000/svg" xmlns:xlink="http://www.w3.org/1999/xlink">
    <!-- Generator: sketchtool 52.1 (67048) - http://www.bohemiancoding.com/sketch -->
    <title>10EF9515-29A4-4F20-8C2E-E68BC6996EEF</title>
    <desc>Created with sketchtool.</desc>
    <g id="Parte-1-+" stroke="none" stroke-width="1" fill="none" fill-rule="evenodd">
        <g id="Mod-Plani-17" transform="translate(-1112.000000, -1349.000000)" fill="#DBE0E4">
            <g id="Pages" transform="translate(768.000000, 1339.000000)">
                <g id="Pages/arrow/grey">
                    <path d="M343.417444,12.5870433 L347.297444,16.4670433 L351.177444,12.5870433 C351.429316,12.335171 351.796428,12.2368037 352.140492,12.3289954 C352.484556,12.421187 352.7533,12.6899315 352.845492,13.0339954 C352.937684,13.3780592 352.839316,13.745171 352.587444,13.9970433 L347.997444,18.5870433 C347.810599,18.7742714 347.556954,18.8794873 347.292444,18.8794873 C347.027935,18.8794873 346.774289,18.7742714 346.587444,18.5870433 L341.997444,13.9970433 C341.810216,13.8101987 341.705,13.5565528 341.705,13.2920433 C341.705,13.0275338 341.810216,12.7738879 341.997444,12.5870433 C342.387444,12.2070433 343.027444,12.1970433 343.417444,12.5870433 Z" transform="translate(347.292244, 15.587244) rotate(-90.000000) translate(-347.292244, -15.587244) "></path>
                </g>
            </g>
        </g>
    </g>
</svg>