<?xml version="1.0" encoding="UTF-8"?>
<svg width="23px" height="23px" viewBox="0 0 23 23" version="1.1" xmlns="http://www.w3.org/2000/svg" xmlns:xlink="http://www.w3.org/1999/xlink">
    <!-- Generator: sketchtool 52.1 (67048) - http://www.bohemiancoding.com/sketch -->
    <title>D3D723C3-2455-4F08-844A-DBDC916F5067</title>
    <desc>Created with sketchtool.</desc>
    <g id="Parte-2-+" stroke="none" stroke-width="1" fill="none" fill-rule="evenodd" stroke-linecap="round" stroke-linejoin="round">
        <g id="Nueva-Pla-003-2" transform="translate(-1553.000000, -1582.000000)">
            <g id="Group-17" transform="translate(1329.000000, 1579.000000)">
                <g id="Iconos-editar" transform="translate(170.000000, 3.000000)">
                    <g id="no-icon" transform="translate(54.000000, 0.000000)">
                        <g id="Icon" transform="translate(0.095041, 0.095041)">
                            <g id="Icon-Group" transform="translate(0.950413, 0.950413)">
                                <circle id="Icon-Oval" stroke="#FF5964" stroke-width="2" cx="10.4545455" cy="10.4545455" r="10.4545455"></circle>
                                <path d="M12.0674502,10.4545455 L14.3973615,12.7844567 C14.8427528,13.2298481 14.8427528,13.9519701 14.3973615,14.3973615 C13.9519701,14.8427528 13.2298481,14.8427528 12.7844567,14.3973615 L10.4545455,12.0674502 L8.12463418,14.3973615 C7.67924284,14.8427528 6.9571208,14.8427528 6.51172946,14.3973615 C6.06633812,13.9519701 6.06633812,13.2298481 6.51172946,12.7844567 L8.84164073,10.4545455 L6.51172946,8.12463418 C6.06633812,7.67924284 6.06633812,6.9571208 6.51172946,6.51172946 C6.9571208,6.06633812 7.67924284,6.06633812 8.12463418,6.51172946 L10.4545455,8.84164073 L12.7844567,6.51172946 C13.2298481,6.06633812 13.9519701,6.06633812 14.3973615,6.51172946 C14.8427528,6.9571208 14.8427528,7.67924284 14.3973615,8.12463418 L12.0674502,10.4545455 Z" id="Combined-Shape" fill="#FF5964" fill-rule="nonzero"></path>
                            </g>
                        </g>
                    </g>
                </g>
            </g>
        </g>
    </g>
</svg>