<?xml version="1.0" encoding="UTF-8"?>
<svg width="17px" height="17px" viewBox="0 0 17 17" version="1.1" xmlns="http://www.w3.org/2000/svg" xmlns:xlink="http://www.w3.org/1999/xlink">
    <!-- Generator: sketchtool 52.1 (67048) - http://www.bohemiancoding.com/sketch -->
    <title>CD6AD890-BE47-4A6C-89F9-7E4D573E65AE</title>
    <desc>Created with sketchtool.</desc>
    <g id="*CRM" stroke="none" stroke-width="1" fill="none" fill-rule="evenodd">
        <g id="Demanda-Inducida-003" transform="translate(-1591.000000, -316.000000)" fill="#171D49" fill-rule="nonzero">
            <g id="Group-20" transform="translate(1444.000000, 298.000000)">
                <g id="Notas" transform="translate(147.000000, 18.000000)">
                    <path d="M16.4708418,2.06852148 L14.9303496,0.527896484 C14.2264766,-0.175976562 13.0813008,-0.175943359 12.3774277,0.527896484 C11.7147266,1.19066406 1.59255469,11.3135996 0.916107422,11.9900801 C0.844056641,12.0621309 0.795779297,12.1578887 0.778580078,12.2515547 L0.00833398438,16.4112422 C-0.021515625,16.5725098 0.0298828125,16.7381602 0.145861328,16.8541387 C0.261972656,16.97025 0.42765625,17.0215488 0.588724609,16.9916992 L4.74804688,16.2213535 C4.84416992,16.2034238 4.93866602,16.1546816 5.00952148,16.083793 L16.4708418,4.62160937 C17.1763418,3.91610937 17.1764414,2.77412109 16.4708418,2.06852148 Z M1.11964258,15.8802578 L1.58558203,13.3639922 L3.63574219,15.4142852 L1.11964258,15.8802578 Z M4.65736914,15.0272363 L1.97259766,12.3422988 L11.7744922,2.53964063 L14.4592637,5.22461133 L4.65736914,15.0272363 Z M15.7665039,3.91727148 L15.1635684,4.52027344 L12.4787969,1.83530273 L13.0817324,1.23230078 C13.3971953,0.916804687 13.9104824,0.916771484 14.2260117,1.23230078 L15.7665039,2.77292578 C16.0827637,3.08918555 16.0827637,3.60097852 15.7665039,3.91727148 Z" id="editar"></path>
                </g>
            </g>
        </g>
    </g>
</svg>