<?xml version="1.0" encoding="UTF-8"?>
<svg width="32px" height="42px" viewBox="0 0 32 42" version="1.1" xmlns="http://www.w3.org/2000/svg" xmlns:xlink="http://www.w3.org/1999/xlink">
    <!-- Generator: Sketch 52.1 (67048) - http://www.bohemiancoding.com/sketch -->
    <desc>Created with Sketch.</desc>
    <g id="Parte-2" stroke="none" stroke-width="1" fill="none" fill-rule="evenodd">
        <g id="Xls-icon">
            <path d="M9.32794649,36.8171062 L8.06185953,34.872402 L9.24029431,33.117594 C9.44898997,32.8057206 9.55333779,32.5603801 9.55333779,32.3788005 C9.55333779,32.2540511 9.50464214,32.145935 9.40864214,32.0558382 C9.31125084,31.9643553 9.18742475,31.92 9.03577258,31.92 C8.95090301,31.92 8.87716388,31.9352471 8.81316388,31.9615831 C8.74916388,31.9920774 8.6921204,32.0336605 8.64064214,32.0904908 C8.58916388,32.1473211 8.53490301,32.2193985 8.47925084,32.305337 C8.42359866,32.3926615 8.35542475,32.4966194 8.27751171,32.6185965 L7.32029431,34.0643032 L6.42290301,32.6185965 C6.25733779,32.3496923 6.12655518,32.1681127 6.03333779,32.066927 C5.9401204,31.9698998 5.80933779,31.92 5.64098997,31.92 C5.49351171,31.92 5.36829431,31.9643553 5.2667291,32.0558382 C5.16655518,32.145935 5.11368562,32.2485067 5.11368562,32.3621672 C5.11368562,32.4730556 5.14151171,32.5894883 5.19298997,32.7086933 C5.24725084,32.8306705 5.32655518,32.9748253 5.43090301,33.1425439 L6.55785953,34.872402 L5.22081605,36.8171062 C5.02046823,37.106802 4.92307692,37.3521424 4.92307692,37.5517414 C4.92307692,37.7222323 4.96898997,37.8525261 5.06638127,37.9426228 C5.16377258,38.0313335 5.28620736,38.0756888 5.43090301,38.0756888 C5.52829431,38.0756888 5.61038127,38.0604417 5.68133779,38.0313335 C5.75229431,38.0008392 5.81351171,37.9606422 5.86498997,37.9093563 C5.91646823,37.8580705 5.95959866,37.8053985 5.99716388,37.7513404 C6.03333779,37.6972824 6.09594649,37.6016412 6.18220736,37.4671891 L7.29942475,35.7692114 L8.35125084,37.4186754 C8.48481605,37.6210467 8.57525084,37.758271 8.62394649,37.8275762 C8.67264214,37.8982675 8.73664214,37.95787 8.81594649,38.0036114 C8.89385953,38.0535112 8.99125084,38.0756888 9.10533779,38.0756888 C9.21107692,38.0756888 9.30568562,38.0535112 9.39055518,38.0063836 C9.47403344,37.9606422 9.53942475,37.8982675 9.5867291,37.8206457 C9.63264214,37.7416377 9.65629431,37.6543132 9.65629431,37.5600581 C9.65629431,37.4602586 9.62985953,37.3549146 9.57838127,37.2412541 C9.52690301,37.1303658 9.44342475,36.987597 9.32794649,36.8171062" id="Fill-1" fill="#171D49"></path>
            <path d="M25.7975652,39.0681791 C25.7975652,39.9039999 25.1158261,40.5845771 24.2754783,40.5845771 L2.82434783,40.5845771 C1.98817391,40.5845771 1.30504348,39.9039999 1.30504348,39.0681791 L1.30504348,8.64596367 C1.30504348,7.80875672 1.98817391,7.12956566 2.82434783,7.12956566 L15.3154783,7.12956566 C15.8302609,7.12956566 16.4744348,7.29173985 17.0768696,7.54539692 C16.9307826,7.81430114 16.8375652,8.17330213 16.8375652,8.64596367 L16.8375652,13.2408992 C16.8375652,14.7933359 18.1064348,16.0560768 19.6633043,16.0560768 L24.2754783,16.0560768 C24.7805217,16.0560768 25.1186087,15.9465746 25.3746087,15.8065781 C25.6306087,16.4109195 25.7975652,17.0568441 25.7975652,17.5724748 L25.7975652,39.0681791 Z M24.4493913,14.3331493 C24.544,14.4274044 24.6288696,14.5632426 24.7193043,14.6810614 C24.7206957,14.6852198 24.7248696,14.6907642 24.7248696,14.6935364 C24.653913,14.7226446 24.5175652,14.7572972 24.274087,14.7572972 L19.6633043,14.7572972 C18.8215652,14.7572972 18.1412174,14.0753339 18.1412174,13.2408992 L18.1412174,8.64596367 C18.1412174,8.40339543 18.1746087,8.26478501 18.2038261,8.19825201 C18.208,8.19825201 18.2135652,8.20379643 18.2177391,8.20518253 C18.3346087,8.2938932 18.4709565,8.37705945 18.5641739,8.47131454 L24.4493913,14.3331493 Z M25.3746087,13.4155483 L19.488,7.55232744 C18.5196522,6.5862128 16.685913,5.830786 15.3154783,5.830786 L2.82434783,5.830786 C1.26747826,5.830786 3.46389584e-13,7.09352695 3.46389584e-13,8.64596367 L3.46389584e-13,39.0681791 C3.46389584e-13,40.6206158 1.26747826,41.8833567 2.82434783,41.8833567 L24.2754783,41.8833567 C25.8323478,41.8833567 27.1012174,40.6206158 27.1012174,39.0681791 L27.1012174,17.5724748 C27.1012174,16.3402282 26.482087,14.7406639 25.6528696,13.7301939 C25.5735652,13.6276222 25.4831304,13.5236644 25.3746087,13.4155483 Z" id="Fill-5" fill="#171D49"></path>
            <path d="M14.74301,36.9834387 L12.2873579,36.9834387 L12.2873579,32.6504769 C12.2873579,32.4037504 12.2303144,32.2207846 12.1176187,32.1001935 C12.0049231,31.9809886 11.8588361,31.92 11.6765753,31.92 C11.497097,31.92 11.35101,31.9809886 11.2424883,32.1029658 C11.1311839,32.2235568 11.0769231,32.4065226 11.0769231,32.6504769 L11.0769231,37.2357097 C11.0769231,37.4949112 11.1339666,37.6834213 11.2508361,37.7998541 C11.3649231,37.9162868 11.5555318,37.9745032 11.8184883,37.9745032 L14.74301,37.9745032 C14.9405753,37.9745032 15.0908361,37.9287618 15.1937926,37.838665 C15.2967492,37.7471821 15.3496187,37.6293633 15.3496187,37.4824362 C15.3496187,37.3396675 15.2953579,37.2204625 15.19101,37.1262074 C15.0866622,37.0305663 14.9364013,36.9834387 14.74301,36.9834387" id="Fill-7" fill="#171D49"></path>
            <path d="M26.4496696,9.63370154 L23.3888,6.18784645 L24.2096696,6.18784645 C24.5672348,6.18784645 24.8608,5.89676457 24.8608,5.53776357 L24.8608,1.30044298 L28.0357565,1.30044298 L28.0357565,5.53776357 C28.0357565,5.89676457 28.3279304,6.18784645 28.686887,6.18784645 L29.5091478,6.18784645 L26.4496696,9.63370154 Z M31.5515826,5.27024546 C31.4458435,5.03737995 31.2134957,4.88768069 30.9574957,4.88768069 L29.3408,4.88768069 L29.3408,0.650360099 C29.3408,0.291359107 29.0500174,0.000277220844 28.6882783,0.000277220844 L24.2096696,0.000277220844 C23.8493217,0.000277220844 23.5557565,0.291359107 23.5557565,0.650360099 L23.5557565,4.88768069 L21.9418435,4.88768069 C21.6844522,4.88768069 21.4521043,5.03737995 21.3463652,5.27024546 C21.2420174,5.50449707 21.2837565,5.77478739 21.4534957,5.96745588 L25.9599304,11.0433695 C26.0823652,11.1833661 26.2618435,11.2637601 26.4496696,11.2637601 C26.6374957,11.2637601 26.8141913,11.1833661 26.9394087,11.0433695 L31.4458435,5.96745588 C31.6155826,5.77478739 31.6559304,5.50449707 31.5515826,5.27024546 Z" id="Fill-9" fill="#009110"></path>
            <path d="M20.8,36.0841996 C20.8,36.500806 20.7059838,36.8574968 20.5179487,37.1542827 C20.3299136,37.4510687 20.0521386,37.675959 19.6846154,37.8289605 C19.3170922,37.981962 18.8700881,38.0584615 18.3435897,38.0584615 C17.8410231,38.0584615 17.4102582,37.9755102 17.0512821,37.809605 C16.6923059,37.6436998 16.4273513,37.4363214 16.2564103,37.1874636 C16.0854692,36.9386058 16,36.6888301 16,36.4381289 C16,36.2722237 16.0547003,36.1302847 16.1641026,36.0123077 C16.2735048,35.8943307 16.411965,35.835343 16.5794872,35.835343 C16.7264965,35.835343 16.8393158,35.8740537 16.9179487,35.9514761 C16.9965816,36.0288985 17.0717945,36.137657 17.1435897,36.2777547 C17.2871802,36.5468898 17.4589734,36.7478164 17.6589744,36.8805405 C17.8589754,37.0132647 18.1316222,37.0796258 18.4769231,37.0796258 C18.7572664,37.0796258 18.9871786,37.012343 19.1666667,36.8777755 C19.3461547,36.7432079 19.4358974,36.5892871 19.4358974,36.4160083 C19.4358974,36.15056 19.342736,35.9570068 19.1564103,35.835343 C18.9700845,35.7136792 18.66325,35.5975473 18.2358974,35.4869439 C17.7538437,35.3579065 17.36154,35.2224193 17.0589744,35.0804782 C16.7564087,34.9385371 16.5145308,34.7514357 16.3333333,34.5191684 C16.1521358,34.2869011 16.0615385,34.0011798 16.0615385,33.6619958 C16.0615385,33.3596797 16.1452983,33.0739584 16.3128205,32.8048233 C16.4803427,32.5356882 16.7273488,32.3209364 17.0538462,32.1605613 C17.3803435,32.0001863 17.7743567,31.92 18.2358974,31.92 C18.5982924,31.92 18.9239302,31.960554 19.2128205,32.0416632 C19.5017108,32.1227724 19.7427341,32.2315308 19.9358974,32.3679418 C20.1290608,32.5043527 20.2760679,32.6555085 20.3769231,32.8214137 C20.4777783,32.9873189 20.5282051,33.1495349 20.5282051,33.3080665 C20.5282051,33.4813453 20.4743595,33.6232843 20.3666667,33.7338877 C20.2589738,33.8444912 20.1059839,33.8997921 19.9076923,33.8997921 C19.7641018,33.8997921 19.6418808,33.8555514 19.5410256,33.7670686 C19.4401704,33.6785858 19.324787,33.5458637 19.1948718,33.3688981 C19.0888884,33.2214268 18.9641033,33.1034516 18.8205128,33.0149688 C18.6769224,32.926486 18.4820525,32.8822453 18.2358974,32.8822453 C17.9829047,32.8822453 17.7726504,32.9403113 17.6051282,33.0564449 C17.437606,33.1725785 17.3538462,33.3172826 17.3538462,33.4905613 C17.3538462,33.649093 17.415384,33.7790501 17.5384615,33.8804366 C17.6615391,33.9818231 17.8273494,34.0656961 18.0358974,34.1320582 C18.2444455,34.1984203 18.5316221,34.2795283 18.8974359,34.3753846 C19.3316261,34.4896749 19.6863234,34.6260838 19.9615385,34.7846154 C20.2367535,34.943147 20.4452984,35.1302484 20.5871795,35.3459252 C20.7290605,35.5616019 20.8,35.8076909 20.8,36.0841996 Z" id="s" fill="#171D49"></path>
        </g>
    </g>
</svg>