<?xml version="1.0" encoding="UTF-8"?>
<svg width="21px" height="23px" viewBox="0 0 21 23" version="1.1" xmlns="http://www.w3.org/2000/svg" xmlns:xlink="http://www.w3.org/1999/xlink">
    <!-- Generator: Sketch 52.1 (67048) - http://www.bohemiancoding.com/sketch -->
    <desc>Created with Sketch.</desc>
    <g id="Parte-2" stroke="none" stroke-width="1" fill="none" fill-rule="evenodd">
        <g id="Publicar-icon" fill="#CED8E1" fill-rule="nonzero">
            <g id="Icon">
                <path d="M15,13.75 L6,13.75 C5.37867966,13.75 4.875,14.2536797 4.875,14.875 C4.875,15.4963203 5.37867966,16 6,16 L15,16 C15.6213203,16 16.125,15.4963203 16.125,14.875 C16.125,14.2536797 15.6213203,13.75 15,13.75 Z M15,9.25 L8.25,9.25 C7.62867966,9.25 7.125,9.75367966 7.125,10.375 C7.125,10.9963203 7.62867966,11.5 8.25,11.5 L15,11.5 C15.6213203,11.5 16.125,10.9963203 16.125,10.375 C16.125,9.75367966 15.6213203,9.25 15,9.25 Z M19.5,2.5 L16.125,2.5 L16.125,1.375 C16.125,0.753679656 15.6213203,0.25 15,0.25 C14.3786797,0.25 13.875,0.753679656 13.875,1.375 L13.875,2.5 L11.625,2.5 L11.625,1.375 C11.625,0.753679656 11.1213203,0.25 10.5,0.25 C9.87867966,0.25 9.375,0.753679656 9.375,1.375 L9.375,2.5 L7.125,2.5 L7.125,1.375 C7.125,0.753679656 6.62132034,0.25 6,0.25 C5.37867966,0.25 4.875,0.753679656 4.875,1.375 L4.875,2.5 L1.5,2.5 C0.878679656,2.5 0.375,3.00367966 0.375,3.625 L0.375,19.375 C0.375,21.238961 1.88603897,22.75 3.75,22.75 L17.25,22.75 C19.113961,22.75 20.625,21.238961 20.625,19.375 L20.625,3.625 C20.625,3.00367966 20.1213203,2.5 19.5,2.5 Z M18.375,19.375 C18.375,19.9963203 17.8713203,20.5 17.25,20.5 L3.75,20.5 C3.12867966,20.5 2.625,19.9963203 2.625,19.375 L2.625,4.75 L4.875,4.75 L4.875,5.875 C4.875,6.49632034 5.37867966,7 6,7 C6.62132034,7 7.125,6.49632034 7.125,5.875 L7.125,4.75 L9.375,4.75 L9.375,5.875 C9.375,6.49632034 9.87867966,7 10.5,7 C11.1213203,7 11.625,6.49632034 11.625,5.875 L11.625,4.75 L13.875,4.75 L13.875,5.875 C13.875,6.49632034 14.3786797,7 15,7 C15.6213203,7 16.125,6.49632034 16.125,5.875 L16.125,4.75 L18.375,4.75 L18.375,19.375 Z" id="Icon-Shape"></path>
            </g>
        </g>
    </g>
</svg>