<?xml version="1.0" encoding="UTF-8"?>
<svg width="32px" height="44px" viewBox="0 0 32 44" version="1.1" xmlns="http://www.w3.org/2000/svg" xmlns:xlink="http://www.w3.org/1999/xlink">
    <!-- Generator: Sketch 52.1 (67048) - http://www.bohemiancoding.com/sketch -->
    <desc>Created with Sketch.</desc>
    <g id="Parte-2" stroke="none" stroke-width="1" fill="none" fill-rule="evenodd">
        <g id="Pdf-icon">
            <g id="pdf"></g>
            <path d="M25.7975652,39.3472301 C25.7975652,40.1890209 25.1158261,40.8744592 24.2754783,40.8744592 L2.82434783,40.8744592 C1.98817391,40.8744592 1.30504348,40.1890209 1.30504348,39.3472301 L1.30504348,8.70771892 C1.30504348,7.86453208 1.98817391,7.18048978 2.82434783,7.18048978 L15.3154783,7.18048978 C15.8302609,7.18048978 16.4744348,7.34382233 17.0768696,7.59929119 C16.9307826,7.8701161 16.8375652,8.23168132 16.8375652,8.70771892 L16.8375652,13.3354745 C16.8375652,14.8989998 18.1064348,16.17076 19.6633043,16.17076 L24.2754783,16.17076 C24.7805217,16.17076 25.1186087,16.0604757 25.3746087,15.9194792 C25.6306087,16.5281373 25.7975652,17.1786754 25.7975652,17.6979892 L25.7975652,39.3472301 Z M24.4493913,14.4355262 C24.544,14.5304545 24.6288696,14.667263 24.7193043,14.7859234 C24.7206957,14.7901114 24.7248696,14.7956954 24.7248696,14.7984874 C24.653913,14.8278035 24.5175652,14.8627036 24.274087,14.8627036 L19.6633043,14.8627036 C18.8215652,14.8627036 18.1412174,14.1758693 18.1412174,13.3354745 L18.1412174,8.70771892 C18.1412174,8.4634181 18.1746087,8.32381763 18.2038261,8.2568094 C18.208,8.2568094 18.2135652,8.26239342 18.2177391,8.26378942 C18.3346087,8.35313373 18.4709565,8.43689401 18.5641739,8.53182233 L24.4493913,14.4355262 Z M25.3746087,13.5113711 L19.488,7.60627121 C18.5196522,6.63325593 16.685913,5.87243337 15.3154783,5.87243337 L2.82434783,5.87243337 C1.26747826,5.87243337 3.46389584e-13,7.14419365 3.46389584e-13,8.70771892 L3.46389584e-13,39.3472301 C3.46389584e-13,40.9107553 1.26747826,42.1825156 2.82434783,42.1825156 L24.2754783,42.1825156 C25.8323478,42.1825156 27.1012174,40.9107553 27.1012174,39.3472301 L27.1012174,17.6979892 C27.1012174,16.456941 26.482087,14.8459516 25.6528696,13.8282642 C25.5735652,13.7249598 25.4831304,13.6202595 25.3746087,13.5113711 Z" id="Fill-5" fill="#171D49"></path>
            <path d="M8.48940285,35.0316352 L7.37293286,35.0316352 L7.37293286,36.7408277 C7.37293286,36.9851954 7.31546807,37.1705277 7.20053676,37.2968301 C7.08560546,37.4231325 6.94057527,37.4862827 6.76544184,37.4862827 C6.58209904,37.4862827 6.43433243,37.4238189 6.32213759,37.2988893 C6.20994274,37.1739598 6.15384615,36.9906868 6.15384615,36.7490648 L6.15384615,32.0951189 C6.15384615,31.8260398 6.21541557,31.6338434 6.33855626,31.5185238 C6.46169695,31.4032042 6.65735088,31.3455453 6.92552394,31.3455453 L8.48940285,31.3455453 C8.95186454,31.3455453 9.30759897,31.3812389 9.55661681,31.4526272 C9.80289818,31.5212698 10.0156547,31.6352149 10.1948928,31.7944657 C10.374131,31.9537166 10.5102678,32.1486587 10.6033074,32.3792979 C10.696347,32.6099371 10.7428662,32.8694022 10.7428662,33.1577012 C10.7428662,33.772739 10.5540533,34.2388154 10.1764218,34.5559442 C9.79879039,34.8730731 9.23645635,35.0316352 8.48940285,35.0316352 Z M8.19386668,32.2639789 L7.37293286,32.2639789 L7.37293286,34.1090831 L8.19386668,34.1090831 C8.48119495,34.1090831 8.72131569,34.0788808 8.9142361,34.0184753 C9.10715651,33.9580698 9.25423901,33.8592259 9.35548802,33.7219407 C9.45673703,33.5846554 9.50736078,33.4048145 9.50736078,33.1824124 C9.50736078,32.9160791 9.42937284,32.6991717 9.27339464,32.5316837 C9.09826122,32.3532129 8.73842216,32.2639789 8.19386668,32.2639789 Z M12.5160832,31.3455453 L14.1045901,31.3455453 C14.5177955,31.3455453 14.8721618,31.3839846 15.1676994,31.4608643 C15.4632371,31.537744 15.7314061,31.6818914 15.9722145,31.8933106 C16.5988638,32.4314687 16.9121838,33.2496764 16.9121838,34.3479582 C16.9121838,34.7103912 16.8807149,35.0412436 16.8177764,35.3405254 C16.7548378,35.6398072 16.6576949,35.9095686 16.5263449,36.1498178 C16.3949948,36.3900669 16.2267051,36.6049151 16.0214706,36.7943687 C15.8600195,36.939891 15.6835204,37.0565817 15.4919683,37.1444442 C15.3004161,37.2323068 15.0945006,37.2940842 14.8742156,37.3297784 C14.6539306,37.3654725 14.4056006,37.3833193 14.1292181,37.3833193 L12.5407112,37.3833193 C12.319058,37.3833193 12.1521364,37.349685 12.0399416,37.2824152 C11.9277467,37.2151454 11.8545475,37.1204201 11.8203418,36.9982362 C11.786136,36.8760524 11.7690334,36.7174903 11.7690334,36.5225453 L11.7690334,32.0951189 C11.7690334,31.8315312 11.8278664,31.6407076 11.9455342,31.5226423 C12.063202,31.4045771 12.2533831,31.3455453 12.5160832,31.3455453 Z M12.9881201,32.3134013 L12.9881201,36.4113448 L13.9116707,36.4113448 C14.1141687,36.4113448 14.272881,36.4058535 14.3878123,36.3948707 C14.5027436,36.3838878 14.6217778,36.3564312 14.7449185,36.3124999 C14.8680592,36.2685687 14.9747795,36.2067912 15.0650827,36.1271658 C15.4728152,35.781207 15.6766784,35.1853981 15.6766784,34.3397211 C15.6766784,33.7439032 15.5870607,33.2977329 15.4078226,33.0011968 C15.2285844,32.7046608 15.0076186,32.5158964 14.7449185,32.4348981 C14.4822184,32.3538998 14.1647938,32.3134013 13.7926353,32.3134013 L12.9881201,32.3134013 Z M21.5791925,32.2886901 L19.1779611,32.2886901 L19.1779611,33.8331411 L21.1851443,33.8331411 C21.3712235,33.8331411 21.5100968,33.8750125 21.6017682,33.9587565 C21.6934396,34.0425005 21.7392746,34.1543863 21.7392746,34.2944172 C21.7392746,34.4344481 21.6927555,34.5456475 21.5997158,34.6280186 C21.5066762,34.7103898 21.3684871,34.7515747 21.1851443,34.7515747 L19.1779611,34.7515747 L19.1779611,36.7408277 C19.1779611,36.9934325 19.1211804,37.180824 19.0076173,37.3030079 C18.8940542,37.4251917 18.7483399,37.4862827 18.5704701,37.4862827 C18.3898637,37.4862827 18.2427812,37.4245053 18.1292181,37.3009486 C18.0156551,37.1773919 17.9588744,36.9906868 17.9588744,36.7408277 L17.9588744,32.0951189 C17.9588744,31.9193938 17.9848704,31.7759329 18.0368631,31.6647318 C18.0888558,31.5535308 18.1702643,31.4725337 18.2810909,31.4217382 C18.3919175,31.3709427 18.5335272,31.3455453 18.7059241,31.3455453 L21.5791925,31.3455453 C21.7734811,31.3455453 21.9178272,31.3887895 22.0122351,31.4752792 C22.1066429,31.5617689 22.1538462,31.6750275 22.1538462,31.8150584 C22.1538462,31.9578351 22.1066429,32.0724665 22.0122351,32.1589562 C21.9178272,32.2454459 21.7734811,32.2886901 21.5791925,32.2886901 Z" id="PDF" fill="#171D49"></path>
            <path d="M26.4496696,9.70251187 L23.3888,6.23204418 L24.2096696,6.23204418 C24.5672348,6.23204418 24.8608,5.9388832 24.8608,5.57731798 L24.8608,1.30973161 L28.0357565,1.30973161 L28.0357565,5.57731798 C28.0357565,5.9388832 28.3279304,6.23204418 28.686887,6.23204418 L29.5091478,6.23204418 L26.4496696,9.70251187 Z M31.5515826,5.30788907 C31.4458435,5.07336028 31.2134957,4.92259177 30.9574957,4.92259177 L29.3408,4.92259177 L29.3408,0.655005405 C29.3408,0.293440188 29.0500174,0.00027920094 28.6882783,0.00027920094 L24.2096696,0.00027920094 C23.8493217,0.00027920094 23.5557565,0.293440188 23.5557565,0.655005405 L23.5557565,4.92259177 L21.9418435,4.92259177 C21.6844522,4.92259177 21.4521043,5.07336028 21.3463652,5.30788907 C21.2420174,5.54381387 21.2837565,5.81603478 21.4534957,6.01007944 L25.9599304,11.1222486 C26.0823652,11.2632451 26.2618435,11.3442134 26.4496696,11.3442134 C26.6374957,11.3442134 26.8141913,11.2632451 26.9394087,11.1222486 L31.4458435,6.01007944 C31.6155826,5.81603478 31.6559304,5.54381387 31.5515826,5.30788907 Z" id="Fill-9" fill="#E54D4D"></path>
        </g>
    </g>
</svg>