<?xml version="1.0" encoding="UTF-8"?>
<svg width="20.0959754px" height="22.3554223px" viewBox="0 0 20.0959754 22.3554223" version="1.1" xmlns="http://www.w3.org/2000/svg" xmlns:xlink="http://www.w3.org/1999/xlink">
    <!-- Generator: Sketch 52.1 (67048) - http://www.bohemiancoding.com/sketch -->
    <desc>Created with Sketch.</desc>
    <g id="Parte-2" stroke="none" stroke-width="1" fill="none" fill-rule="evenodd">
        <path d="M18.9795042,6.72532966 L12.2808931,0.852880589 C11.0094937,-0.28429353 9.08655163,-0.28429353 7.81515231,0.852880589 L1.1165412,6.72532966 C0.399169457,7.36691173 -0.00754432909,8.28608488 0.000106017171,9.24847318 L0.000106017171,19.0061167 C0.000106017171,20.8558871 1.49964119,22.3554223 3.34941157,22.3554223 L16.7466338,22.3554223 C18.5964042,22.3554223 20.0959394,20.8558871 20.0959394,19.0061167 L20.0959394,9.23730883 C20.1003815,8.27880498 19.6939476,7.3643288 18.9795042,6.72532966 Z M12.2808931,20.1225519 L7.81515231,20.1225519 L7.81515231,14.540376 C7.81515231,13.9237858 8.31499737,13.4239408 8.9315875,13.4239408 L11.1644579,13.4239408 C11.781048,13.4239408 12.2808931,13.9237858 12.2808931,14.540376 L12.2808931,20.1225519 Z M17.863069,19.0061167 C17.863069,19.6227068 17.3632239,20.1225519 16.7466338,20.1225519 L14.5137634,20.1225519 L14.5137634,14.540376 C14.5137634,12.6906056 13.0142282,11.1910704 11.1644579,11.1910704 L8.9315875,11.1910704 C7.08181712,11.1910704 5.58228194,12.6906056 5.58228194,14.540376 L5.58228194,20.1225519 L3.34941157,20.1225519 C2.73282145,20.1225519 2.23297639,19.6227068 2.23297639,19.0061167 L2.23297639,9.23730883 C2.23338245,8.91663833 2.37165522,8.61162488 2.61256435,8.39998244 L9.31117546,2.53869772 C9.73263673,2.1684366 10.3634086,2.1684366 10.7848699,2.53869772 L17.483481,8.39998244 C17.7243902,8.61162488 17.8626629,8.91663833 17.863069,9.23730883 L17.863069,19.0061167 Z" id="Icon-Shape" fill="#CED8E1" fill-rule="nonzero"></path>
    </g>
</svg>