<?xml version="1.0" encoding="UTF-8"?>
<svg width="21px" height="23px" viewBox="0 0 21 23" version="1.1" xmlns="http://www.w3.org/2000/svg" xmlns:xlink="http://www.w3.org/1999/xlink">
    <!-- Generator: Sketch 52.1 (67048) - http://www.bohemiancoding.com/sketch -->
    <desc>Created with Sketch.</desc>
    <g id="Parte-2" stroke="none" stroke-width="1" fill="none" fill-rule="evenodd">
        <g id="Eliminar-icon" fill="#FF5964" fill-rule="nonzero">
            <g id="Icon">
                <path d="M8.25,18.25 C8.87132034,18.25 9.375,17.7463203 9.375,17.125 L9.375,10.375 C9.375,9.75367966 8.87132034,9.25 8.25,9.25 C7.62867966,9.25 7.125,9.75367966 7.125,10.375 L7.125,17.125 C7.125,17.7463203 7.62867966,18.25 8.25,18.25 Z M19.5,4.75 L15,4.75 L15,3.625 C15,1.76103897 13.488961,0.25 11.625,0.25 L9.375,0.25 C7.51103897,0.25 6,1.76103897 6,3.625 L6,4.75 L1.5,4.75 C0.878679656,4.75 0.375,5.25367966 0.375,5.875 C0.375,6.49632034 0.878679656,7 1.5,7 L2.625,7 L2.625,19.375 C2.625,21.238961 4.13603897,22.75 6,22.75 L15,22.75 C16.863961,22.75 18.375,21.238961 18.375,19.375 L18.375,7 L19.5,7 C20.1213203,7 20.625,6.49632034 20.625,5.875 C20.625,5.25367966 20.1213203,4.75 19.5,4.75 Z M8.25,3.625 C8.25,3.00367966 8.75367966,2.5 9.375,2.5 L11.625,2.5 C12.2463203,2.5 12.75,3.00367966 12.75,3.625 L12.75,4.75 L8.25,4.75 L8.25,3.625 Z M16.125,19.375 C16.125,19.9963203 15.6213203,20.5 15,20.5 L6,20.5 C5.37867966,20.5 4.875,19.9963203 4.875,19.375 L4.875,7 L16.125,7 L16.125,19.375 Z M12.75,18.25 C13.3713203,18.25 13.875,17.7463203 13.875,17.125 L13.875,10.375 C13.875,9.75367966 13.3713203,9.25 12.75,9.25 C12.1286797,9.25 11.625,9.75367966 11.625,10.375 L11.625,17.125 C11.625,17.7463203 12.1286797,18.25 12.75,18.25 Z" id="Icon-Shape"></path>
            </g>
        </g>
    </g>
</svg>