<?xml version="1.0" encoding="UTF-8"?>
<svg width="24px" height="23px" viewBox="0 0 24 23" version="1.1" xmlns="http://www.w3.org/2000/svg" xmlns:xlink="http://www.w3.org/1999/xlink">
    <!-- Generator: Sketch 52.1 (67048) - http://www.bohemiancoding.com/sketch -->
    <desc>Created with Sketch.</desc>
    <g id="Parte-2" stroke="none" stroke-width="1" fill="none" fill-rule="evenodd">
        <g id="Otro-icon" fill="#CED8E1" fill-rule="nonzero">
            <g id="Icon" transform="translate(0.024000, 0.048000)">
                <path d="M3.24266667,2.21866667 L8.10666667,2.21866667 C8.56524364,2.21748292 8.97325641,2.50953417 9.12,2.944 L9.696,4.69333333 C9.84274359,5.12779917 10.2507564,5.41985041 10.7093333,5.41866667 L18.176,5.41866667 C18.7651037,5.41866667 19.2426667,5.8962296 19.2426667,6.48533333 C19.2426667,7.07443707 19.7202296,7.552 20.3093333,7.552 C20.8984371,7.552 21.376,7.07443707 21.376,6.48533333 C21.376,4.71802213 19.9433112,3.28533333 18.176,3.28533333 L11.4773333,3.28533333 L11.136,2.21866667 C10.6824622,0.935835971 9.46730019,0.0800880548 8.10666667,0.0853333333 L3.24266667,0.0853333333 C1.47535547,0.0853333333 0.0426666667,1.51802213 0.0426666667,3.28533333 L0.0426666667,17.152 C0.0426666667,18.9193112 1.47535547,20.352 3.24266667,20.352 L9.64266667,20.352 C10.2317704,20.352 10.7093333,19.8744371 10.7093333,19.2853333 C10.7093333,18.6962296 10.2317704,18.2186667 9.64266667,18.2186667 L3.24266667,18.2186667 C2.65356293,18.2186667 2.176,17.7411037 2.176,17.152 L2.176,3.28533333 C2.176,2.6962296 2.65356293,2.21866667 3.24266667,2.21866667 Z M21.376,14.144 L21.376,12.8853333 C21.376,11.1180221 19.9433112,9.68533333 18.176,9.68533333 C16.4086888,9.68533333 14.976,11.1180221 14.976,12.8853333 L14.976,14.144 C13.7005561,14.5949315 12.8464687,15.7991948 12.8426667,17.152 L12.8426667,19.2853333 C12.8426667,21.0526445 14.2753555,22.4853333 16.0426667,22.4853333 L20.3093333,22.4853333 C22.0766445,22.4853333 23.5093333,21.0526445 23.5093333,19.2853333 L23.5093333,17.152 C23.5055313,15.7991948 22.6514439,14.5949315 21.376,14.144 Z M17.1093333,12.8853333 C17.1093333,12.2962296 17.5868963,11.8186667 18.176,11.8186667 C18.7651037,11.8186667 19.2426667,12.2962296 19.2426667,12.8853333 L19.2426667,13.952 L17.1093333,13.952 L17.1093333,12.8853333 Z M21.376,19.2853333 C21.376,19.8744371 20.8984371,20.352 20.3093333,20.352 L16.0426667,20.352 C15.4535629,20.352 14.976,19.8744371 14.976,19.2853333 L14.976,17.152 C14.976,16.5628963 15.4535629,16.0853333 16.0426667,16.0853333 L20.3093333,16.0853333 C20.8984371,16.0853333 21.376,16.5628963 21.376,17.152 L21.376,19.2853333 Z" id="Icon-Shape"></path>
            </g>
        </g>
    </g>
</svg>