<?xml version="1.0" encoding="UTF-8"?>
<svg width="24px" height="24px" viewBox="0 0 24 24" version="1.1" xmlns="http://www.w3.org/2000/svg" xmlns:xlink="http://www.w3.org/1999/xlink">
    <!-- Generator: Sketch 52.1 (67048) - http://www.bohemiancoding.com/sketch -->
    <desc>Created with Sketch.</desc>
    <g id="Parte-2" stroke="none" stroke-width="1" fill="none" fill-rule="evenodd">
        <g id="Profesionales-icon" fill="#CED8E1" fill-rule="nonzero">
            <g id="Icon" transform="translate(0.014815, 0.014815)">
                <path d="M21.3444444,4.65925926 L16.8950617,4.65925926 L16.8950617,3.54691358 C16.8950617,1.70391892 15.4010194,0.209876543 13.5580247,0.209876543 L9.10864198,0.209876543 C7.26564731,0.209876543 5.77160494,1.70391892 5.77160494,3.54691358 L5.77160494,4.65925926 L1.32222222,4.65925926 C0.707890667,4.65925926 0.209876543,5.15727338 0.209876543,5.77160494 L0.209876543,10.2209877 C0.214941415,11.1643493 0.619059651,12.0614918 1.32222222,12.6903951 L1.32222222,19.1197531 C1.32222222,20.9627478 2.81626459,22.4567901 4.65925926,22.4567901 L18.0074074,22.4567901 C19.8504021,22.4567901 21.3444444,20.9627478 21.3444444,19.1197531 L21.3444444,12.6903951 C22.047607,12.0614918 22.4517253,11.1643493 22.4567901,10.2209877 L22.4567901,5.77160494 C22.4567901,5.15727338 21.958776,4.65925926 21.3444444,4.65925926 Z M7.9962963,3.54691358 C7.9962963,2.93258203 8.49431042,2.4345679 9.10864198,2.4345679 L13.5580247,2.4345679 C14.1723562,2.4345679 14.6703704,2.93258203 14.6703704,3.54691358 L14.6703704,4.65925926 L7.9962963,4.65925926 L7.9962963,3.54691358 Z M19.1197531,19.1197531 C19.1197531,19.7340846 18.621739,20.2320988 18.0074074,20.2320988 L4.65925926,20.2320988 C4.0449277,20.2320988 3.54691358,19.7340846 3.54691358,19.1197531 L3.54691358,13.5580247 L5.77160494,13.5580247 L5.77160494,14.6703704 C5.77160494,15.2847019 6.26961906,15.782716 6.88395062,15.782716 C7.49828217,15.782716 7.9962963,15.2847019 7.9962963,14.6703704 L7.9962963,13.5580247 L14.6703704,13.5580247 L14.6703704,14.6703704 C14.6703704,15.2847019 15.1683845,15.782716 15.782716,15.782716 C16.3970476,15.782716 16.8950617,15.2847019 16.8950617,14.6703704 L16.8950617,13.5580247 L19.1197531,13.5580247 L19.1197531,19.1197531 Z M20.2320988,10.2209877 C20.2320988,10.8353192 19.7340846,11.3333333 19.1197531,11.3333333 L16.8950617,11.3333333 L16.8950617,10.2209877 C16.8950617,9.6066561 16.3970476,9.10864198 15.782716,9.10864198 C15.1683845,9.10864198 14.6703704,9.6066561 14.6703704,10.2209877 L14.6703704,11.3333333 L7.9962963,11.3333333 L7.9962963,10.2209877 C7.9962963,9.6066561 7.49828217,9.10864198 6.88395062,9.10864198 C6.26961906,9.10864198 5.77160494,9.6066561 5.77160494,10.2209877 L5.77160494,11.3333333 L3.54691358,11.3333333 C2.93258203,11.3333333 2.4345679,10.8353192 2.4345679,10.2209877 L2.4345679,6.88395062 L20.2320988,6.88395062 L20.2320988,10.2209877 Z" id="Icon-Shape"></path>
            </g>
        </g>
    </g>
</svg>