<?xml version="1.0" encoding="UTF-8"?>
<svg width="27px" height="27px" viewBox="0 0 27 27" version="1.1" xmlns="http://www.w3.org/2000/svg" xmlns:xlink="http://www.w3.org/1999/xlink">
    <!-- Generator: Sketch 52.1 (67048) - http://www.bohemiancoding.com/sketch -->
    <desc>Created with Sketch.</desc>
    <g id="Parte-2" stroke="none" stroke-width="1" fill="none" fill-rule="evenodd">
        <g id="Novedades-icon" fill="#CED8E1" fill-rule="nonzero">
            <g id="Icon">
                <path d="M13.5,7.875 C12.8786797,7.875 12.375,8.37867966 12.375,9 L12.375,13.5 C12.375,14.1213203 12.8786797,14.625 13.5,14.625 C14.1213203,14.625 14.625,14.1213203 14.625,13.5 L14.625,9 C14.625,8.37867966 14.1213203,7.875 13.5,7.875 Z M14.535,17.5725 C14.5103756,17.5008102 14.4763272,17.4327134 14.43375,17.37 L14.29875,17.20125 C13.9752442,16.8820374 13.4914467,16.7888287 13.0725,16.965 C12.936167,17.0219721 12.8106011,17.1018777 12.70125,17.20125 C12.4906652,17.4135587 12.3732711,17.7009716 12.375,18 C12.3767775,18.1470119 12.4073539,18.2922499 12.465,18.4275 C12.5672893,18.710134 12.789866,18.9327107 13.0725,19.035 C13.3447949,19.1553489 13.6552051,19.1553489 13.9275,19.035 C14.210134,18.9327107 14.4327107,18.710134 14.535,18.4275 C14.5926461,18.2922499 14.6232225,18.1470119 14.625,18 C14.6305222,17.9251016 14.6305222,17.8498984 14.625,17.775 C14.6056295,17.7032601 14.57527,17.6349513 14.535,17.5725 Z M13.5,2.25 C7.28679656,2.25 2.25,7.28679656 2.25,13.5 C2.25,19.7132034 7.28679656,24.75 13.5,24.75 C19.7132034,24.75 24.75,19.7132034 24.75,13.5 C24.75,10.5163145 23.5647355,7.65483297 21.4549513,5.54504871 C19.345167,3.43526445 16.4836855,2.25 13.5,2.25 Z M13.5,22.5 C8.52943725,22.5 4.5,18.4705627 4.5,13.5 C4.5,8.52943725 8.52943725,4.5 13.5,4.5 C18.4705627,4.5 22.5,8.52943725 22.5,13.5 C22.5,15.8869484 21.5517884,18.1761336 19.863961,19.863961 C18.1761336,21.5517884 15.8869484,22.5 13.5,22.5 Z" id="Icon-Shape"></path>
            </g>
        </g>
    </g>
</svg>