<?xml version="1.0" encoding="UTF-8"?>
<svg width="16px" height="17px" viewBox="0 0 16 17" version="1.1" xmlns="http://www.w3.org/2000/svg" xmlns:xlink="http://www.w3.org/1999/xlink">
    <!-- Generator: sketchtool 52.1 (67048) - http://www.bohemiancoding.com/sketch -->
    <title>A570014C-D590-485D-9F65-70CE7FCD8B98</title>
    <desc>Created with sketchtool.</desc>
    <g id="*CRM" stroke="none" stroke-width="1" fill="none" fill-rule="evenodd">
        <g id="Demanda-Inducida-006-2" transform="translate(-496.000000, -556.000000)" fill="#3962E6" fill-rule="nonzero">
            <g id="Obsequio-Paquete" transform="translate(496.000000, 556.000000)">
                <path d="M15.9842951,3.04859016 L12.1142951,3.04859016 C12.538918,2.42495082 12.5799016,1.58295082 12.1513443,0.906196721 C11.5762295,-0.00206557377 10.3689508,-0.273213115 9.46072131,0.301901639 C9.23088525,0.44747541 8.8472459,0.787836066 8.17245902,2.05704918 C8.11213115,2.17081967 8.05442623,2.28229508 8,2.3895082 C7.94557377,2.28229508 7.88786885,2.17081967 7.82754098,2.05704918 C7.1527541,0.787803279 6.76914754,0.44747541 6.53927869,0.301901639 C5.63104918,-0.273213115 4.42377049,-0.00203278689 3.84865574,0.906196721 C3.56996721,1.34622951 3.47944262,1.86852459 3.59357377,2.3767541 C3.64832787,2.62101639 3.74734426,2.84793443 3.88439344,3.04859016 L0.015704918,3.04859016 L0.015704918,7.80977049 L0.590819672,7.80977049 L0.590819672,16.7868852 L15.4091803,16.7868852 L15.4091803,7.80977049 L15.9842951,7.80977049 L15.9842951,3.04859016 Z M9.98665574,1.13311475 C10.143377,1.03377049 10.321082,0.98295082 10.5020984,0.98295082 C10.572918,0.98295082 10.6447213,0.990819672 10.715541,1.00655738 C10.9673443,1.06327869 11.1821311,1.21442623 11.3204918,1.4324918 C11.6054098,1.88268852 11.4709836,2.48104918 11.0208197,2.766 C10.75,2.93780328 9.75714754,3.03354098 8.76859016,3.04829508 C9.20465574,2.16098361 9.71583607,1.30459016 9.98665574,1.13311475 Z M4.67954098,1.43242623 C4.81790164,1.21439344 5.03268852,1.0632459 5.2844918,1.0064918 C5.35531148,0.990754098 5.42711475,0.982885246 5.49793443,0.982885246 C5.67891803,0.982885246 5.85662295,1.03370492 6.01337705,1.13304918 C6.28419672,1.30452459 6.79537705,2.16095082 7.23147541,3.04822951 C6.73734426,3.04068852 6.24193443,3.01314754 5.83632787,2.96593443 C5.43072131,2.91872131 5.11465574,2.85183607 4.9792459,2.76593443 C4.76121311,2.62790164 4.60970492,2.41314754 4.55331148,2.16131148 C4.49655738,1.9095082 4.54147541,1.6504918 4.67954098,1.43242623 Z M6.0097377,15.8032459 L1.57445902,15.8032459 L1.57445902,7.80977049 L6.0097377,7.80977049 L6.0097377,15.8032459 Z M6.00977049,6.82613115 L0.999377049,6.82613115 L0.999377049,4.03222951 L6.00977049,4.03222951 L6.00977049,6.82613115 Z M9.00662295,15.8032459 L6.99340984,15.8032459 L6.99340984,4.03222951 L9.00662295,4.03222951 L9.00662295,15.8032459 Z M14.425541,15.8032459 L9.9902623,15.8032459 L9.9902623,7.80977049 L14.425541,7.80977049 L14.425541,15.8032459 Z M15.0006557,6.82613115 L9.9902623,6.82613115 L9.9902623,4.03222951 L15.0006557,4.03222951 L15.0006557,6.82613115 Z" id="Shape"></path>
            </g>
        </g>
    </g>
</svg>