<?xml version="1.0" encoding="UTF-8"?>
<svg width="24px" height="24px" viewBox="0 0 24 24" version="1.1" xmlns="http://www.w3.org/2000/svg" xmlns:xlink="http://www.w3.org/1999/xlink">
    <!-- Generator: sketchtool 52.1 (67048) - http://www.bohemiancoding.com/sketch -->
    <title>1091C937-45E7-44E0-B364-FD519897B22F</title>
    <desc>Created with sketchtool.</desc>
    <g id="Agenda-4" stroke="none" stroke-width="1" fill="none" fill-rule="evenodd">
        <g id="agenda-0035" transform="translate(-742.000000, -665.000000)">
            <g id="Odontologico" transform="translate(742.000000, 665.000000)">
                <g fill="#3962E6" id="Oval">
                    <circle cx="12" cy="12" r="12"></circle>
                </g>
                <g id="dental" transform="translate(4.800000, 5.333333)" fill="#FFFFFF" fill-rule="nonzero" stroke="#FFFFFF" stroke-width="0.4">
                    <path d="M13.5281307,1.31877778 C12.7685196,0.468326797 11.7230882,0 10.5843366,0 C9.69405556,0 8.73385621,0.529689542 8.03226471,0.916702614 C7.77685621,1.05768954 7.42758824,1.25044118 7.32434641,1.26313072 C7.2215719,1.25065686 6.87410131,1.0584085 6.61930392,0.917457516 C5.9195098,0.530264706 4.96110784,0 4.06453595,0 C2.92574837,0 1.88028105,0.468326797 1.12063399,1.31877778 C0.397977124,2.12785294 0,3.19283987 0,4.31753595 C0,5.92421895 0.576960784,8.20905556 1.54334314,10.4296895 C1.97327778,11.4176765 2.4309281,12.2713987 2.86679412,12.8985784 C3.3855915,13.6450686 3.83080392,14.0078889 4.2279183,14.0078889 C4.40413399,14.0078889 4.72680065,13.9331536 4.90783333,13.4324739 C5.08376144,12.9459575 5.24200327,12.3875098 5.40980719,11.7951634 C5.85390523,10.2276275 6.40656536,8.2766732 7.29634314,8.2766732 L7.35252941,8.2766732 C7.74813399,8.2766732 8.1022549,8.61551634 8.43509477,9.31261438 C8.76480719,10.003134 9.01547059,10.9213464 9.25822549,11.8104412 C9.41866013,12.3982222 9.57025163,12.9532908 9.7405,13.4311438 C9.91786601,13.928732 10.236902,14.0031438 10.4115,14.0032516 C10.8066373,14.0032157 11.2514183,13.6348235 11.7713301,12.8770458 C12.2060817,12.2434314 12.6647026,11.3812255 13.0976209,10.3836765 C14.0689281,8.14517647 14.6488366,5.87748693 14.6488366,4.3175 C14.6488366,3.19280392 14.2508235,2.12781699 13.5281307,1.31877778 Z M10.3096961,2.47212418 C10.3005654,2.47151307 9.3806634,2.42747712 8.54326144,2.20571569 C8.16566667,2.1057451 7.71919608,1.90486928 7.71919608,1.84526797 C7.71919608,1.78724837 8.20427451,1.50480719 8.32124837,1.4402451 C8.96557516,1.08479412 9.84791176,0.597990196 10.5843366,0.597990196 C12.7541765,0.597990196 14.0508464,2.4891634 14.0508464,4.31753595 C14.0508464,5.77773203 13.4753954,8.01094771 12.5489869,10.1455948 C12.137134,11.0947582 11.6858105,11.9446699 11.2782353,12.5387059 C10.8079673,13.2241209 10.5036699,13.4233791 10.4115,13.4052255 C10.3549183,13.3940458 10.3478725,13.3539281 10.3038725,13.2303399 C10.1409935,12.7733725 9.99227778,12.2287288 9.83486275,11.6520915 C9.58545752,10.7386601 9.32767647,9.79406209 8.97470588,9.05486928 C8.53251307,8.12878431 8.00188889,7.67861111 7.35252941,7.67861111 L7.29634314,7.67861111 C6.67081699,7.67861111 6.15245098,8.12518954 5.71173203,9.04383333 C5.35994771,9.77705882 5.09278431,10.7201111 4.83446405,11.6321405 C4.66982353,12.2132353 4.51434967,12.7621928 4.34550327,13.2290817 C4.30822549,13.3321438 4.29672222,13.3994379 4.2279183,13.4098627 C4.17399673,13.4180588 3.94367974,13.4001928 3.35783987,12.5572549 C2.94997712,11.9704085 2.50030719,11.1300588 2.09165359,10.1910327 C1.17031373,8.0739281 0.597990196,5.82334967 0.597990196,4.3175 C0.597990196,2.48912745 1.89466013,0.597954248 4.06453595,0.597954248 C4.62855556,0.597954248 5.36976144,0.854944444 6.04723203,1.2854183 C6.1465915,1.34857843 6.2865,1.45609804 6.42180719,1.56013072 C6.47580065,1.60165033 6.52900327,1.64252288 6.57853922,1.67980065 C6.73735621,1.79875163 6.95196405,1.95429739 7.20395752,2.10265359 C7.31140523,2.16606536 7.44509477,2.24500654 7.58708824,2.3052549 C8.13007843,2.53575163 8.70581699,2.65261765 9.29827124,2.65261765 C9.90194118,2.65261765 10.3079706,2.54524183 10.3119608,2.54398366 C10.3119608,2.54398366 10.4028007,2.51997059 10.3999248,2.49635294 C10.397049,2.47273529 10.3096961,2.47212418 10.3096961,2.47212418 Z" id="Odontologico"></path>
                </g>
            </g>
        </g>
    </g>
</svg>