<?xml version="1.0" encoding="UTF-8"?>
<svg width="23px" height="22px" viewBox="0 0 23 22" version="1.1" xmlns="http://www.w3.org/2000/svg" xmlns:xlink="http://www.w3.org/1999/xlink">
    <!-- Generator: sketchtool 52.1 (67048) - http://www.bohemiancoding.com/sketch -->
    <title>46DA2F12-3C36-4E22-A660-958712DC5403</title>
    <desc>Created with sketchtool.</desc>
    <g id="*CRM" stroke="none" stroke-width="1" fill="none" fill-rule="evenodd">
        <g id="Demanda-Inducida-012" transform="translate(-153.000000, -534.000000)" fill="#3962E6" fill-rule="nonzero" stroke="#3962E6" stroke-width="0.4">
            <g id="odontología" transform="translate(154.000000, 535.000000)">
                <path d="M19.8412584,1.93420741 C18.7271621,0.686879303 17.1938627,0 15.5236937,0 C14.2179481,0 12.8096558,0.776877996 11.7806549,1.34449717 C11.4060558,1.551278 10.8937961,1.83398039 10.7423747,1.85259172 C10.5916388,1.83429673 10.0820153,1.55233246 9.70831242,1.34560436 C8.68194771,0.777721569 7.2762915,0 5.96131939,0 C4.2910976,0 2.75774553,0.686879303 1.64359651,1.93420741 C0.583699782,3.12085098 0,4.68283181 0,6.33238606 C0,8.68885447 0.84620915,12.0399481 2.26356993,15.296878 C2.89414074,16.7459255 3.56536122,17.9980514 4.20463137,18.917915 C4.9655342,20.0127673 5.61851242,20.5449037 6.20094684,20.5449037 C6.45939651,20.5449037 6.93264096,20.4352919 7.19815556,19.7009617 C7.45618344,18.9874044 7.68827146,18.1683477 7.93438388,17.299573 C8.58572767,15.0005203 9.39629586,12.1391207 10.7013033,12.1391207 L10.7837098,12.1391207 C11.3639298,12.1391207 11.8833072,12.6360906 12.3714723,13.6585011 C12.8550505,14.6712632 13.2226902,16.0179747 13.5787307,17.3219804 C13.8140349,18.1840593 14.0363691,18.9981599 14.2860667,19.6990109 C14.5462035,20.428807 15.0141229,20.5379442 15.2702,20.5381024 C15.8497346,20.5380497 16.5020802,19.9977412 17.2646174,18.8863338 C17.9022532,17.9570327 18.5748972,16.6924641 19.209844,15.2293922 C20.6344279,11.9462588 21.4849603,8.62031416 21.4849603,6.33233333 C21.4849603,4.68277908 20.9012078,3.12079826 19.8412584,1.93420741 Z M15.1208876,3.62578214 C15.1074959,3.62488584 13.7583063,3.56029978 12.5301168,3.23504967 C11.9763111,3.08842614 11.3214876,2.79380828 11.3214876,2.70639303 C11.3214876,2.6212976 12.0329359,2.20705054 12.2044976,2.11235948 C13.1495102,1.59103137 14.4436039,0.877052288 15.5236937,0.877052288 C18.7061255,0.877052288 20.6079081,3.65077298 20.6079081,6.33238606 C20.6079081,8.47400697 19.7639133,11.74939 18.4051808,14.8802057 C17.8011298,16.272312 17.1391887,17.5188492 16.5414118,18.390102 C15.8516854,19.3953773 15.4053826,19.6876227 15.2702,19.6609974 C15.1872135,19.6446004 15.1768797,19.5857612 15.1123464,19.4044985 C14.8734571,18.7342797 14.6553407,17.9354688 14.4244654,17.0897342 C14.058671,15.7500349 13.6805922,14.3646244 13.162902,13.2804749 C12.5143525,11.922217 11.7361037,11.261963 10.7837098,11.261963 L10.7013033,11.261963 C9.78386492,11.261963 9.02359477,11.9169447 8.37720697,13.2642889 C7.86125664,14.3396863 7.46941699,15.7228296 7.09054728,17.0604728 C6.84907451,17.9127451 6.62104619,18.7178828 6.37340479,19.4026532 C6.31873072,19.5538109 6.30185926,19.6525089 6.20094684,19.6677987 C6.12186187,19.6798196 5.78406362,19.6536161 4.92483181,18.4173072 C4.32663312,17.5565991 3.66711721,16.3240863 3.06775861,14.9468479 C1.71646013,11.8417612 0.877052288,8.54091285 0.877052288,6.33233333 C0.877052288,3.65072026 2.77883486,0.876999564 5.96131939,0.876999564 C6.78854815,0.876999564 7.87565011,1.25391852 8.86927364,1.88528017 C9.01500087,1.97791503 9.2202,2.13561046 9.41865054,2.28819172 C9.49784096,2.34908715 9.57587146,2.40903355 9.64852418,2.46370763 C9.88145577,2.63816906 10.1962139,2.86630283 10.5658044,3.08389194 C10.7233943,3.17689586 10.9194723,3.29267625 11.1277294,3.38104052 C11.924115,3.7191024 12.7685316,3.89050588 13.6374645,3.89050588 C14.5228471,3.89050588 15.1183569,3.73302135 15.1242092,3.73117603 C15.1242092,3.73117603 15.257441,3.69595686 15.2532231,3.66131765 C15.2490052,3.62667843 15.1208876,3.62578214 15.1208876,3.62578214 Z" id="Odontologico"></path>
            </g>
        </g>
    </g>
</svg>