<?xml version="1.0" encoding="UTF-8"?>
<svg width="26px" height="34px" viewBox="0 0 26 34" version="1.1" xmlns="http://www.w3.org/2000/svg" xmlns:xlink="http://www.w3.org/1999/xlink">
    <!-- Generator: sketchtool 52.1 (67048) - http://www.bohemiancoding.com/sketch -->
    <title>4D1F3870-85F3-4282-BA80-D5F9E9E75B4C</title>
    <desc>Created with sketchtool.</desc>
    <g id="*CRM" stroke="none" stroke-width="1" fill="none" fill-rule="evenodd">
        <g id="Demanda-Inducida-012" transform="translate(-152.000000, -580.000000)" fill="#3962E6">
            <g id="optometria" transform="translate(152.000000, 580.000000)">
                <path d="M24.5347424,0 L6.65580303,0 C6.38378788,0 6.16337879,0.220474747 6.16337879,0.492424242 C6.16337879,0.764373737 6.38378788,0.984848485 6.65580303,0.984848485 L24.5347424,0.984848485 C24.7653283,0.984848485 24.9529091,1.17242929 24.9529091,1.40294949 L24.9529091,2.53270202 C24.9529091,2.76322222 24.7653283,2.95080303 24.5347424,2.95080303 C23.666303,2.95080303 2.33172727,2.95080303 1.46519192,2.95080303 C1.23460606,2.95080303 1.04702525,2.76322222 1.04702525,2.53270202 L1.04702525,1.40301515 C1.04702525,1.17249495 1.23460606,0.984914141 1.46519192,0.984914141 L4.81728788,0.984914141 C5.08930303,0.984914141 5.30971212,0.764439394 5.30971212,0.492489899 C5.30971212,0.220540404 5.08930303,6.56565657e-05 4.81728788,6.56565657e-05 L1.46519192,6.56565657e-05 C0.691494949,0 0.0620454545,0.629449495 0.0620454545,1.40301515 L0.0620454545,2.53276768 C0.0620454545,3.24212121 0.601479798,3.93578283 1.54181313,3.93578283 L1.54181313,27.5839646 C1.54181313,28.357596 2.17126263,28.9869798 2.94489394,28.9869798 L12.5074444,28.9869798 L12.5074444,30.5346364 C11.8765505,30.7421111 11.4197778,31.3364343 11.4197778,32.0358081 C11.4197778,32.9071364 12.1286717,33.6159646 12.9999343,33.6159646 C13.8712626,33.6159646 14.5800253,32.9070707 14.5800253,32.0358081 C14.5800253,31.3363687 14.1231212,30.7420455 13.4922929,30.5346364 L13.4922929,28.9869798 L23.0548434,28.9869798 C23.8285404,28.9869798 24.4579242,28.3575303 24.4579242,27.5839646 L24.4579242,8.4159899 C24.4579242,8.1440404 24.2375152,7.92356566 23.9655,7.92356566 C23.6934848,7.92356566 23.4730758,8.1440404 23.4730758,8.4159899 L23.4730758,27.584096 C23.4730758,27.8146162 23.2854949,28.002197 23.0549091,28.002197 L2.9449596,28.002197 C2.71437374,28.002197 2.52679293,27.8146162 2.52679293,27.584096 L2.52679293,3.93584848 L23.4731414,3.93584848 L23.4731414,6.66512626 C23.4731414,6.93707576 23.6935505,7.15755051 23.9655657,7.15755051 C24.2375808,7.15755051 24.4579899,6.93707576 24.4579899,6.66512626 L24.4579899,3.93584848 L24.5346768,3.93584848 C25.3083737,3.93584848 25.9377576,3.30639899 25.9377576,2.53283333 L25.9377576,1.40301515 C25.9378232,0.629449495 25.3083737,0 24.5347424,0 Z M13,31.440697 C13.3282172,31.440697 13.5952424,31.7077222 13.5952424,32.0360051 C13.5952424,32.3642879 13.3282828,32.6313131 13,32.6313131 C12.6717828,32.6313131 12.4046919,32.3642879 12.4046919,32.0360051 C12.4046919,31.7077222 12.6717828,31.440697 13,31.440697 Z" id="Shape" fill-rule="nonzero"></path>
                <polygon id="Path" points="12.1913081 10.597101 12.1913081 9.33944949 14.2239697 9.33944949 14.2239697 8.57809596 12.1913081 8.57809596 12.1913081 7.41564646 14.5433889 7.41564646 14.5433889 6.59310101 11.2532071 6.59310101 11.2532071 11.4196465 14.6046465 11.4196465 14.6046465 10.597101"></polygon>
                <polygon id="Path" points="10.7314343 14.3334848 10.7314343 13.6144798 8.32472727 13.6144798 8.32472727 17.1596061 9.14359596 17.1596061 9.14359596 15.7615808 10.4518687 15.7615808 10.4518687 15.0974646 9.14359596 15.0974646 9.14359596 14.3334848"></polygon>
                <path d="M17.5895909,13.7193333 C17.3166566,13.5844091 17.2559242,13.6144798 15.6098485,13.6144798 L15.6098485,17.1596061 L16.4287828,17.1596061 L16.4287828,16.0161313 C17.0709697,16.016197 17.8540556,16.1602475 18.1988182,15.262197 C18.4392525,14.636096 18.1250202,13.9838636 17.5895909,13.7193333 Z M17.0977576,15.3021818 L16.4287172,15.3021818 L16.4287172,14.3334848 C17.1366919,14.3334848 17.1166667,14.3253434 17.2076667,14.3609293 C17.584601,14.5094444 17.5199949,15.3021818 17.0977576,15.3021818 Z" id="Shape" fill-rule="nonzero"></path>
                <polygon id="Path" points="6.36323737 20.4635101 6.36323737 21.0028788 7.01369697 21.0028788 7.01369697 22.7163182 7.63237879 22.7163182 7.63237879 21.0028788 8.27981818 21.0028788 8.27981818 20.4635101"></polygon>
                <polygon id="Path" points="18.3498283 22.1768838 19.3398636 20.9235657 19.3398636 20.4635101 17.6201212 20.4635101 17.6201212 21.0028788 18.6259141 21.0028788 17.5724545 22.2562626 17.5724545 22.7163182 19.3588384 22.7163182 19.3588384 22.1768838"></polygon>
                <path d="M14.0864848,21.1774596 C13.6155303,19.9781768 11.879702,20.3674545 11.879702,21.5867626 C11.879702,21.8851061 11.9986061,22.1687424 12.1937374,22.3784495 C13.0276414,23.2741364 14.5508081,22.3617071 14.0864848,21.1774596 Z M12.5079697,21.5931313 C12.5079697,20.7914646 13.5391717,20.8055808 13.5391717,21.5867626 C13.5391717,22.4016263 12.5079697,22.3814697 12.5079697,21.5931313 Z" id="Shape" fill-rule="nonzero"></path>
                <path d="M19.4756414,18.2181869 L6.52435859,18.2181869 C6.25234343,18.2181869 6.03193434,18.4386616 6.03193434,18.7106111 C6.03193434,18.9825606 6.25234343,19.2030354 6.52435859,19.2030354 L19.4756414,19.2030354 C19.7476566,19.2030354 19.9680657,18.9825606 19.9680657,18.7106111 C19.9680657,18.4386616 19.7476566,18.2181869 19.4756414,18.2181869 Z" id="Path"></path>
                <path d="M19.4756414,24.086702 L6.52435859,24.086702 C6.25240909,24.086702 6.03193434,24.3071768 6.03193434,24.5791263 C6.03193434,24.8510758 6.25234343,25.0715505 6.52435859,25.0715505 L19.4756414,25.0715505 C19.7476566,25.0715505 19.9680657,24.8510758 19.9680657,24.5791263 C19.9680657,24.3071768 19.7476566,24.086702 19.4756414,24.086702 Z" id="Path"></path>
            </g>
        </g>
    </g>
</svg>