<?xml version="1.0" encoding="UTF-8"?>
<svg width="26px" height="26px" viewBox="0 0 26 26" version="1.1" xmlns="http://www.w3.org/2000/svg" xmlns:xlink="http://www.w3.org/1999/xlink">
    <!-- Generator: sketchtool 52.1 (67048) - http://www.bohemiancoding.com/sketch -->
    <title>FC02382E-30EA-4433-8935-80ECE7F3A861</title>
    <desc>Created with sketchtool.</desc>
    <g id="*CRM" stroke="none" stroke-width="1" fill="none" fill-rule="evenodd">
        <g id="Demanda-Inducida-012" transform="translate(-152.000000, -636.000000)" fill="#3962E6">
            <g id="otros_ingresos" transform="translate(152.000000, 636.000000)">
                <path d="M25.9199958,16.6491 C25.8387458,16.5347 25.7071208,16.4667208 25.5668292,16.4666667 L21.6668292,16.4666667 L21.6668292,3.9 C21.6668292,3.66069167 21.4728042,3.46666667 21.2334958,3.46666667 L19.9334958,3.46666667 L19.9334958,2.16666667 C19.9334958,1.92735833 19.7394708,1.73333333 19.5001625,1.73333333 L9.1001625,1.73333333 C9.1001625,0.776045833 8.32411667,0 7.36682917,0 C6.40954167,0 5.63349583,0.776045833 5.63349583,1.73333333 L4.33349583,1.73333333 C4.0941875,1.73333333 3.9001625,1.92735833 3.9001625,2.16666667 L3.9001625,16.4666667 L0.433495833,16.4666667 C0.1941875,16.4667208 0.000216666667,16.6607458 0.000216666667,16.9000542 C0.000216666667,16.9730708 0.0186875,17.0448958 0.0538958333,17.1088667 L4.8205625,25.7755333 C4.89672083,25.9139833 5.04215833,26 5.2001625,26 L22.5334958,26 C22.7190167,26.0053083 22.8853083,25.8861958 22.9399625,25.7088 L22.9425625,25.7088 L25.9758958,17.0421333 C26.0218833,16.9098042 26.0010833,16.7633917 25.9199958,16.6491 Z M19.9334958,19.9333333 L19.9334958,4.33333333 L20.8001625,4.33333333 L20.8001625,21.5163 L19.9295958,19.9333333 L19.9334958,19.9333333 Z M7.36682917,0.866666667 C7.8455,0.866666667 8.23349583,1.2546625 8.23349583,1.73333333 L6.5001625,1.73333333 C6.5001625,1.2546625 6.8882125,0.866666667 7.36682917,0.866666667 Z M4.76682917,2.6 L8.23349583,2.6 L8.23349583,3.9 C8.23349583,4.13930833 8.03947083,4.33333333 7.8001625,4.33333333 C7.56085417,4.33333333 7.36682917,4.13930833 7.36682917,3.9 L7.36682917,3.46666667 L6.5001625,3.46666667 L6.5001625,3.9 C6.5001625,4.61797917 7.08218333,5.2 7.8001625,5.2 C8.51814167,5.2 9.1001625,4.61797917 9.1001625,3.9 L9.1001625,2.6 L19.0668292,2.6 L19.0668292,18.3646667 L18.1464292,16.6911333 C18.0702708,16.5526833 17.9248333,16.4667208 17.7668292,16.4666667 L4.76682917,16.4666667 L4.76682917,2.6 Z M5.4562625,25.1333333 L1.1662625,17.3333333 L17.5107292,17.3333333 L21.8007292,25.1333333 L5.4562625,25.1333333 Z M22.4468292,24.5071667 L21.6668292,23.0919 L21.6668292,17.3333333 L24.9558292,17.3333333 L22.4468292,24.5071667 Z" id="Shape" fill-rule="nonzero"></path>
                <path d="M21.6668292,1.73333333 L20.8001625,1.73333333 L20.8001625,2.6 L21.6668292,2.6 C22.1455,2.6 22.5334958,2.98799583 22.5334958,3.46666667 L22.5334958,9.53333333 L23.4001625,9.53333333 L23.4001625,3.46666667 C23.4001625,2.50937917 22.6241167,1.73333333 21.6668292,1.73333333 Z" id="Path"></path>
                <rect id="Rectangle" x="22.5334958" y="10.4" width="1" height="1"></rect>
                <rect id="Rectangle" x="2.16682917" y="8.66666667" width="1" height="6.06666667"></rect>
                <rect id="Rectangle" x="2.16682917" y="6.93333333" width="1" height="1"></rect>
                <path d="M14.7334958,5.63333333 L13.4334958,5.63333333 L13.4334958,4.33333333 C13.4334958,4.094025 13.2394708,3.9 13.0001625,3.9 L11.2668292,3.9 C11.0275208,3.9 10.8334958,4.094025 10.8334958,4.33333333 L10.8334958,5.63333333 L9.53349583,5.63333333 C9.2941875,5.63333333 9.1001625,5.82735833 9.1001625,6.06666667 L9.1001625,7.8 C9.1001625,8.03930833 9.2941875,8.23333333 9.53349583,8.23333333 L10.8334958,8.23333333 L10.8334958,9.53333333 C10.8334958,9.77264167 11.0275208,9.96666667 11.2668292,9.96666667 L13.0001625,9.96666667 C13.2394708,9.96666667 13.4334958,9.77264167 13.4334958,9.53333333 L13.4334958,8.23333333 L14.7334958,8.23333333 C14.9728042,8.23333333 15.1668292,8.03930833 15.1668292,7.8 L15.1668292,6.06666667 C15.1668292,5.82735833 14.9728042,5.63333333 14.7334958,5.63333333 Z M14.3001625,7.36666667 L13.0001625,7.36666667 C12.7608542,7.36666667 12.5668292,7.56069167 12.5668292,7.8 L12.5668292,9.1 L11.7001625,9.1 L11.7001625,7.8 C11.7001625,7.56069167 11.5061375,7.36666667 11.2668292,7.36666667 L9.96682917,7.36666667 L9.96682917,6.5 L11.2668292,6.5 C11.5061375,6.5 11.7001625,6.305975 11.7001625,6.06666667 L11.7001625,4.76666667 L12.5668292,4.76666667 L12.5668292,6.06666667 C12.5668292,6.305975 12.7608542,6.5 13.0001625,6.5 L14.3001625,6.5 L14.3001625,7.36666667 Z" id="Shape" fill-rule="nonzero"></path>
                <rect id="Rectangle" x="6.93349583" y="10.8333333" width="1" height="1"></rect>
                <rect id="Rectangle" x="8.66682917" y="10.8333333" width="9.1" height="1"></rect>
                <rect id="Rectangle" x="6.06682917" y="12.5666667" width="11.7" height="1"></rect>
                <rect id="Rectangle" x="6.06682917" y="14.3" width="9.96666667" height="1"></rect>
                <rect id="Rectangle" x="17.2593958" y="3.9" width="1" height="1"></rect>
                <rect id="Rectangle" x="17.3334958" y="5.63333333" width="1" height="1"></rect>
            </g>
        </g>
    </g>
</svg>