<?xml version="1.0" encoding="UTF-8"?>
<svg width="21px" height="21px" viewBox="0 0 21 21" version="1.1" xmlns="http://www.w3.org/2000/svg" xmlns:xlink="http://www.w3.org/1999/xlink">
    <!-- Generator: sketchtool 52.1 (67048) - http://www.bohemiancoding.com/sketch -->
    <title>BC9B8040-4D74-49BB-9813-070383744A36</title>
    <desc>Created with sketchtool.</desc>
    <g id="PARTE-1" stroke="none" stroke-width="1" fill="none" fill-rule="evenodd">
        <g id="Profesionales-02" transform="translate(-333.000000, -888.000000)">
            <g id="Centros-icon" transform="translate(332.000000, 887.000000)">
                <g id="Icon" transform="translate(1.437500, 1.438720)" fill="#2FCC71" fill-rule="nonzero">
                    <path d="M10.5416667,14.3871971 L9.58333333,14.3871971 C9.05406045,14.3871971 8.625,14.8166216 8.625,15.3463436 C8.625,15.8760656 9.05406045,16.3054901 9.58333333,16.3054901 L10.5416667,16.3054901 C11.0709396,16.3054901 11.5,15.8760656 11.5,15.3463436 C11.5,14.8166216 11.0709396,14.3871971 10.5416667,14.3871971 Z M10.5416667,10.5506112 L9.58333333,10.5506112 C9.05406045,10.5506112 8.625,10.9800357 8.625,11.5097577 C8.625,12.0394797 9.05406045,12.4689042 9.58333333,12.4689042 L10.5416667,12.4689042 C11.0709396,12.4689042 11.5,12.0394797 11.5,11.5097577 C11.5,10.9800357 11.0709396,10.5506112 10.5416667,10.5506112 Z M5.75,14.3871971 L4.79166667,14.3871971 C4.26239378,14.3871971 3.83333333,14.8166216 3.83333333,15.3463436 C3.83333333,15.8760656 4.26239378,16.3054901 4.79166667,16.3054901 L5.75,16.3054901 C6.27927289,16.3054901 6.70833333,15.8760656 6.70833333,15.3463436 C6.70833333,14.8166216 6.27927289,14.3871971 5.75,14.3871971 Z M5.75,10.5506112 L4.79166667,10.5506112 C4.26239378,10.5506112 3.83333333,10.9800357 3.83333333,11.5097577 C3.83333333,12.0394797 4.26239378,12.4689042 4.79166667,12.4689042 L5.75,12.4689042 C6.27927289,12.4689042 6.70833333,12.0394797 6.70833333,11.5097577 C6.70833333,10.9800357 6.27927289,10.5506112 5.75,10.5506112 Z M19.1666667,4.79573238 L16.2916667,4.79573238 L16.2916667,0.959146476 C16.2916667,0.429424505 15.8626062,0 15.3333333,0 L4.79166667,0 C4.26239378,0 3.83333333,0.429424505 3.83333333,0.959146476 L3.83333333,4.79573238 L0.958333333,4.79573238 C0.429060448,4.79573238 0,5.22515689 0,5.75487886 L0,19.1829295 C0,19.7126515 0.429060448,20.142076 0.958333333,20.142076 L19.1666667,20.142076 C19.6959396,20.142076 20.125,19.7126515 20.125,19.1829295 L20.125,5.75487886 C20.125,5.22515689 19.6959396,4.79573238 19.1666667,4.79573238 Z M18.2083333,18.2237831 L1.91666667,18.2237831 L1.91666667,6.71402533 L4.79166667,6.71402533 C5.32093955,6.71402533 5.75,6.28460083 5.75,5.75487886 L5.75,1.91829295 L14.375,1.91829295 L14.375,5.75487886 C14.375,6.28460083 14.8040604,6.71402533 15.3333333,6.71402533 L18.2083333,6.71402533 L18.2083333,18.2237831 Z M14.375,10.5506112 C13.8457271,10.5506112 13.4166667,10.9800357 13.4166667,11.5097577 C13.4166667,12.0394797 13.8457271,12.4689042 14.375,12.4689042 L15.3333333,12.4689042 C15.8626062,12.4689042 16.2916667,12.0394797 16.2916667,11.5097577 C16.2916667,10.9800357 15.8626062,10.5506112 15.3333333,10.5506112 L14.375,10.5506112 Z M11.5,5.27530562 L11.0208333,5.27530562 L11.0208333,4.79573238 C11.0208333,4.26601041 10.5917729,3.83658591 10.0625,3.83658591 C9.53322711,3.83658591 9.10416667,4.26601041 9.10416667,4.79573238 L9.10416667,5.27530562 L8.625,5.27530562 C8.09572711,5.27530562 7.66666667,5.70473012 7.66666667,6.2344521 C7.66666667,6.76417407 8.09572711,7.19359857 8.625,7.19359857 L9.10416667,7.19359857 L9.10416667,7.67317181 C9.10416667,8.20289378 9.53322711,8.63231829 10.0625,8.63231829 C10.5917729,8.63231829 11.0208333,8.20289378 11.0208333,7.67317181 L11.0208333,7.19359857 L11.5,7.19359857 C12.0292729,7.19359857 12.4583333,6.76417407 12.4583333,6.2344521 C12.4583333,5.70473012 12.0292729,5.27530562 11.5,5.27530562 Z M15.3333333,14.3871971 L14.375,14.3871971 C13.8457271,14.3871971 13.4166667,14.8166216 13.4166667,15.3463436 C13.4166667,15.8760656 13.8457271,16.3054901 14.375,16.3054901 L15.3333333,16.3054901 C15.8626062,16.3054901 16.2916667,15.8760656 16.2916667,15.3463436 C16.2916667,14.8166216 15.8626062,14.3871971 15.3333333,14.3871971 Z" id="Icon-Shape"></path>
                </g>
                <rect id="ViewBox" x="0" y="0" width="23" height="23.0195154"></rect>
            </g>
        </g>
    </g>
</svg>