<?xml version="1.0" encoding="UTF-8"?>
<svg width="15px" height="20px" viewBox="0 0 15 20" version="1.1" xmlns="http://www.w3.org/2000/svg" xmlns:xlink="http://www.w3.org/1999/xlink">
    <!-- Generator: sketchtool 52.1 (67048) - http://www.bohemiancoding.com/sketch -->
    <title>BC7E6CE3-77F0-42AF-BBFD-E21E888566E1</title>
    <desc>Created with sketchtool.</desc>
    <g id="*CRM" stroke="none" stroke-width="1" fill="none" fill-rule="evenodd">
        <g id="Demanda-Inducida-001" transform="translate(-517.000000, -873.000000)" fill="#FFFFFF">
            <g id="Group-10" transform="translate(508.000000, 867.000000)">
                <g id="Paquete-01" transform="translate(9.000000, 6.000000)">
                    <path d="M1.90769327,6.95753117 C1.70120948,6.95753117 1.53362843,7.12511222 1.53362843,7.33159601 C1.53362843,7.5380798 1.70120948,7.70566085 1.90769327,7.70566085 C2.11417706,7.70566085 2.2817581,7.5380798 2.2817581,7.33159601 C2.2817581,7.12511222 2.11417706,6.95753117 1.90769327,6.95753117 Z" id="Path"></path>
                    <path d="M10.8852494,7.70566085 L9.01492519,7.70566085 L9.01492519,5.83533666 C9.01492519,5.62877805 8.84741895,5.46127182 8.64086035,5.46127182 L6.39647132,5.46127182 C6.18991272,5.46127182 6.02240648,5.62877805 6.02240648,5.83533666 L6.02240648,7.70566085 L4.15208229,7.70566085 C3.94552369,7.70566085 3.77801746,7.87316708 3.77801746,8.07972569 L3.77801746,10.3241147 C3.77801746,10.5306733 3.94552369,10.6981796 4.15208229,10.6981796 L6.02240648,10.6981796 L6.02240648,12.5685037 C6.02240648,12.7750623 6.18991272,12.9425686 6.39647132,12.9425686 L8.64086035,12.9425686 C8.84741895,12.9425686 9.01492519,12.7750623 9.01492519,12.5685037 L9.01492519,10.6981796 L10.8852494,10.6981796 C11.091808,10.6981796 11.2593142,10.5306733 11.2593142,10.3241147 L11.2593142,8.07972569 C11.2593142,7.87316708 11.091808,7.70566085 10.8852494,7.70566085 Z M10.5111845,9.95004988 L8.64086035,9.95004988 C8.43430175,9.95004988 8.26679551,10.1175561 8.26679551,10.3241147 L8.26679551,12.1944389 L6.77053616,12.1944389 L6.77053616,10.3241147 C6.77053616,10.1175561 6.60302993,9.95004988 6.39647132,9.95004988 L4.52614713,9.95004988 L4.52614713,8.45379052 L6.39647132,8.45379052 C6.60302993,8.45379052 6.77053616,8.28628429 6.77053616,8.07972569 L6.77053616,6.2094015 L8.26679551,6.2094015 L8.26679551,8.07972569 C8.26679551,8.28628429 8.43430175,8.45379052 8.64086035,8.45379052 L10.5111845,8.45379052 L10.5111845,9.95004988 Z" id="Shape" fill-rule="nonzero"></path>
                    <path d="M13.2932918,1.14991272 C12.6876808,1.54312968 11.9843267,1.75092269 11.2593142,1.75092269 C10.1505112,1.75092269 9.10533666,1.26302993 8.39180798,0.412294264 C8.39177057,0.412294264 8.39177057,0.412294264 8.39177057,0.412294264 C8.17200748,0.150299252 7.85375312,0 7.51866584,0 C7.18357855,0 6.86532419,0.150299252 6.64552369,0.412256858 C5.93199501,1.26299252 4.88678304,1.75088529 3.77801746,1.75088529 C3.05300499,1.75088529 2.34965087,1.54305486 1.7440399,1.14987531 C1.0044015,0.669837905 0.0373690773,1.23501247 0.0373690773,2.10624688 L0.0373690773,9.73608479 C0.0373690773,11.4332544 0.581783042,13.0914464 1.57021197,14.4051621 C4.01547382,17.6564963 7.23531172,19.0633915 7.37117207,19.1217082 C7.41826683,19.1419077 7.46850374,19.1520449 7.51866584,19.1520449 C7.56882793,19.1520449 7.61910224,19.1419077 7.6661596,19.1217082 C7.80201995,19.0633915 11.0218579,17.6565337 13.4670823,14.4055736 C14.455586,13.0914464 14.9999626,11.4331047 14.9999626,9.73608479 L14.9999626,2.10628429 C14.9999626,1.23497506 14.0327057,0.669837905 13.2932918,1.14991272 Z M12.8692145,13.9558728 C10.8357232,16.6594264 8.16856608,18.0531546 7.5184414,18.3658354 C6.86805486,18.0539027 4.20605985,16.6653367 2.1680798,13.9554613 C1.27649626,12.7705362 0.785498753,11.2721072 0.785498753,9.73612219 L0.785498753,2.10628429 C0.785498753,1.82150873 1.09975062,1.62366584 1.33664589,1.77740648 C2.06386534,2.24951372 2.90809227,2.49905237 3.77801746,2.49905237 C5.10856608,2.49905237 6.36269327,1.91371571 7.21870324,0.8930798 C7.29710723,0.799600998 7.40360349,0.748129676 7.51866584,0.748129676 C7.63372818,0.748129676 7.74022444,0.799600998 7.81859102,0.8930798 C8.67467581,1.9136783 9.92876559,2.49905237 11.2593142,2.49905237 C12.1292394,2.49905237 12.9734289,2.24951372 13.7006858,1.77740648 C13.9337282,1.62602244 14.2518329,1.81720698 14.2518329,2.10628429 L14.2518329,9.73608479 C14.2518329,11.2719576 13.7608354,12.7705362 12.8692145,13.9558728 Z" id="Shape" fill-rule="nonzero"></path>
                    <path d="M13.3454738,2.99330424 C13.246197,2.92320449 13.1191272,2.90569825 13.0045885,2.94628429 C12.441808,3.1459601 11.854601,3.24718204 11.2593516,3.24718204 C9.97357855,3.24718204 8.73359102,2.77253117 7.76775561,1.91064838 C7.62587282,1.78402743 7.41153367,1.78402743 7.26965087,1.91064838 C6.30385287,2.77253117 5.06382793,3.24718204 3.77805486,3.24718204 C3.18280549,3.24718204 2.5955985,3.1459601 2.03281796,2.94628429 C1.91820449,2.90569825 1.79120948,2.92320449 1.69193267,2.99330424 C1.59273067,3.06340399 1.53370324,3.17734414 1.53370324,3.2988404 L1.53370324,5.83537406 C1.53370324,6.04193267 1.70120948,6.2094389 1.90776808,6.2094389 C2.11432668,6.2094389 2.28183292,6.04193267 2.28183292,5.83537406 L2.28183292,3.80446384 C2.77028678,3.93127182 3.27160848,3.99534913 3.77809227,3.99534913 C5.13950125,3.99534913 6.45546135,3.53027431 7.51874065,2.67935162 C8.58201995,3.53027431 9.89798005,3.99534913 11.259389,3.99534913 C11.7658728,3.99534913 12.2671945,3.93127182 12.7556484,3.80446384 L12.7556484,9.73612219 C12.7556484,10.95 12.3713716,12.1287905 11.6733292,13.0555736 C10.2588778,14.9369701 8.53129676,16.1019202 7.52225686,16.6754738 C6.50524938,16.0944015 4.7665586,14.9206234 3.36400249,13.0561721 C2.66614713,12.1288279 2.28179551,10.9497382 2.28179551,9.73608479 L2.28179551,8.82785536 C2.28179551,8.62129676 2.11428928,8.45379052 1.90773067,8.45379052 C1.70117207,8.45379052 1.53366584,8.62129676 1.53366584,8.82785536 L1.53366584,9.73608479 C1.53366584,11.1109975 1.97139651,12.4498504 2.76617207,13.5059476 C4.33915212,15.5970449 6.30785536,16.8631796 7.3413591,17.4317955 C7.39750623,17.4626559 7.45956359,17.4781047 7.52165835,17.4781047 C7.58337905,17.4781047 7.64517456,17.4628429 7.70105985,17.4322818 C8.72659601,16.871783 10.6840399,15.6162718 12.2710848,13.5053865 C13.0659352,12.4499252 13.5037032,11.1113342 13.5037032,9.73608479 L13.5037032,3.29880299 C13.5037032,3.17730673 13.4446758,3.06340399 13.3454738,2.99330424 Z" id="Path"></path>
                </g>
            </g>
        </g>
    </g>
</svg>