<?xml version="1.0" encoding="UTF-8"?>
<svg width="25px" height="25px" viewBox="0 0 25 25" version="1.1" xmlns="http://www.w3.org/2000/svg" xmlns:xlink="http://www.w3.org/1999/xlink">
    <!-- Generator: sketchtool 52.1 (67048) - http://www.bohemiancoding.com/sketch -->
    <title>5A682354-38BB-4787-BAA3-99D99098AF95</title>
    <desc>Created with sketchtool.</desc>
    <g id="Facturación-2.0-Web*" stroke="none" stroke-width="1" fill="none" fill-rule="evenodd">
        <g id="Desktop-06" transform="translate(-1249.000000, -127.000000)" fill="#3962E6" stroke="#3962E6" stroke-width="0.5">
            <g id="Pausar-turno" transform="translate(1250.000000, 128.000000)">
                <path d="M11.5,23 C5.14864348,23 0,17.851181 0,11.5 C0,5.14881899 5.14864348,0 11.5,0 C17.8513565,0 23,5.14864348 23,11.5 C22.9924545,17.8481979 17.8481979,22.9924545 11.5,23 Z M11.5,1.4375 C5.94267271,1.4375 1.4375,5.94267271 1.4375,11.5 C1.4375,17.0573273 5.94267271,21.5625 11.5,21.5625 C17.0573273,21.5625 21.5625,17.0573273 21.5625,11.5 C21.5565338,5.94512939 17.0548706,1.44346616 11.5,1.4375 Z" id="Shape" fill-rule="nonzero"></path>
                <path d="M9.34375,16.53125 C8.9468231,16.53125 8.625,16.2094269 8.625,15.8125 L8.625,7.1875 C8.625,6.7905731 8.9468231,6.46875 9.34375,6.46875 C9.7406769,6.46875 10.0625,6.7905731 10.0625,7.1875 L10.0625,15.8125 C10.0625,16.2094269 9.7406769,16.53125 9.34375,16.53125 Z" id="Path"></path>
                <path d="M13.65625,16.53125 C13.2593231,16.53125 12.9375,16.2094269 12.9375,15.8125 L12.9375,7.1875 C12.9375,6.7905731 13.2593231,6.46875 13.65625,6.46875 C14.0531769,6.46875 14.375,6.7905731 14.375,7.1875 L14.375,15.8125 C14.375,16.2094269 14.0531769,16.53125 13.65625,16.53125 Z" id="Path"></path>
            </g>
        </g>
    </g>
</svg>