<?xml version="1.0" encoding="UTF-8"?>
<svg width="20px" height="27px" viewBox="0 0 20 27" version="1.1" xmlns="http://www.w3.org/2000/svg" xmlns:xlink="http://www.w3.org/1999/xlink">
    <!-- Generator: sketchtool 52.1 (67048) - http://www.bohemiancoding.com/sketch -->
    <title>F40E3658-5521-437B-B289-520E1376F113</title>
    <desc>Created with sketchtool.</desc>
    <g id="Facturación-2.0-Web*" stroke="none" stroke-width="1" fill="none" fill-rule="evenodd">
        <g id="Desktop-55" transform="translate(-749.000000, -363.000000)">
            <g id="Group-8" transform="translate(512.000000, 209.000000)">
                <g id="Group-7" transform="translate(237.000000, 154.000000)">
                    <g id="Pdf-icon">
                        <g id="pdf"></g>
                        <path d="M16.1234783,25.0391464 C16.1234783,25.5748315 15.6973913,26.0110195 15.1721739,26.0110195 L1.76521739,26.0110195 C1.2426087,26.0110195 0.815652174,25.5748315 0.815652174,25.0391464 L0.815652174,5.54127568 C0.815652174,5.00470223 1.2426087,4.56940259 1.76521739,4.56940259 L9.57217391,4.56940259 C9.89391304,4.56940259 10.2965217,4.67334148 10.6730435,4.83591257 C10.5817391,5.0082557 10.5234783,5.23834266 10.5234783,5.54127568 L10.5234783,8.48621105 C10.5234783,9.48118167 11.3165217,10.2904837 12.2895652,10.2904837 L15.1721739,10.2904837 C15.4878261,10.2904837 15.6991304,10.2203027 15.8591304,10.1305777 C16.0191304,10.5179055 16.1234783,10.9318844 16.1234783,11.2623568 L16.1234783,25.0391464 Z M15.2808696,9.18624395 C15.34,9.24665288 15.3930435,9.33371281 15.4495652,9.40922397 C15.4504348,9.41188907 15.4530435,9.41544254 15.4530435,9.41721927 C15.4086957,9.43587497 15.3234783,9.45808414 15.1713043,9.45808414 L12.2895652,9.45808414 C11.7634783,9.45808414 11.3382609,9.02100776 11.3382609,8.48621105 L11.3382609,5.54127568 C11.3382609,5.38581152 11.3591304,5.29697485 11.3773913,5.25433325 C11.38,5.25433325 11.3834783,5.25788672 11.386087,5.25877509 C11.4591304,5.31563055 11.5443478,5.36893255 11.6026087,5.42934148 L15.2808696,9.18624395 Z M15.8591304,8.59814524 L12.18,4.84035441 C11.5747826,4.22116287 10.4286957,3.73700306 9.57217391,3.73700306 L1.76521739,3.73700306 C0.792173913,3.73700306 3.46389584e-13,4.54630505 3.46389584e-13,5.54127568 L3.46389584e-13,25.0391464 C3.46389584e-13,26.034117 0.792173913,26.843419 1.76521739,26.843419 L15.1721739,26.843419 C16.1452174,26.843419 16.9382609,26.034117 16.9382609,25.0391464 L16.9382609,11.2623568 C16.9382609,10.4725988 16.5513043,9.44742374 16.0330435,8.79980447 C15.9834783,8.73406533 15.9269565,8.66743784 15.8591304,8.59814524 Z" id="Fill-5" fill="#171D49"></path>
                        <path d="M5.30587678,22.2928588 L4.60808304,22.2928588 L4.60808304,23.3805267 C4.60808304,23.5360334 4.57216755,23.6539722 4.50033548,23.7343464 C4.42850341,23.8147207 4.33785954,23.8549072 4.22840115,23.8549072 C4.1138119,23.8549072 4.02145777,23.8151575 3.95133599,23.7356569 C3.88121421,23.6561562 3.84615385,23.5395279 3.84615385,23.3857685 L3.84615385,20.4241666 C3.84615385,20.2529344 3.88463473,20.1306276 3.96159766,20.0572424 C4.03856059,19.9838572 4.1608443,19.9471652 4.32845246,19.9471652 L5.30587678,19.9471652 C5.59491534,19.9471652 5.81724936,19.9698793 5.9728855,20.0153082 C6.12681136,20.0589899 6.25978421,20.1315004 6.37180803,20.2328418 C6.48383185,20.3341833 6.56891737,20.4582374 6.62706714,20.6050077 C6.6852169,20.7517781 6.71429135,20.9168923 6.71429135,21.1003553 C6.71429135,21.491743 6.5962833,21.7883371 6.36026365,21.9901463 C6.12424399,22.1919556 5.77278522,22.2928588 5.30587678,22.2928588 Z M5.12116667,20.5316229 L4.60808304,20.5316229 L4.60808304,21.7057801 L5.12116667,21.7057801 C5.30074684,21.7057801 5.4508223,21.6865605 5.57139756,21.6481206 C5.69197282,21.6096808 5.78389938,21.5467801 5.84718001,21.4594168 C5.91046064,21.3720535 5.94210049,21.2576092 5.94210049,21.1160806 C5.94210049,20.9465958 5.89335803,20.8085638 5.79587165,20.7019805 C5.68641326,20.5884082 5.46151385,20.5316229 5.12116667,20.5316229 Z M7.822552,19.9471652 L8.81536883,19.9471652 C9.07362221,19.9471652 9.2951011,19.9716266 9.47981213,20.02055 C9.66452316,20.0694735 9.83212881,20.1612036 9.98263409,20.2957431 C10.3742899,20.6382073 10.5701149,21.158885 10.5701149,21.8577916 C10.5701149,22.0884307 10.5504468,22.2989732 10.5111102,22.4894253 C10.4717736,22.6798773 10.4110593,22.8515437 10.3289655,23.0044295 C10.2468718,23.1573153 10.1416907,23.2940369 10.0134191,23.4145982 C9.91251216,23.5072034 9.80220028,23.5814611 9.68248017,23.6373736 C9.56276005,23.6932861 9.43406286,23.732599 9.29638473,23.7553135 C9.1587066,23.778028 9.00350036,23.789385 8.83076134,23.789385 L7.83794451,23.789385 C7.69941123,23.789385 7.59508527,23.7679813 7.52496349,23.7251733 C7.45484171,23.6823653 7.40909221,23.6220855 7.38771362,23.5443321 C7.36633503,23.4665788 7.35564589,23.3656756 7.35564589,23.2416197 L7.35564589,20.4241666 C7.35564589,20.256429 7.39241652,20.1349958 7.46595887,20.0598633 C7.53950123,19.9847309 7.65836442,19.9471652 7.822552,19.9471652 Z M8.11757509,20.5630736 L8.11757509,23.1708558 L8.69479417,23.1708558 C8.82135544,23.1708558 8.92055061,23.1673613 8.99238268,23.1603722 C9.06421475,23.1533832 9.13861113,23.1359108 9.21557406,23.1079545 C9.29253699,23.0799982 9.3592372,23.0406853 9.41567668,22.9900146 C9.67050949,22.769859 9.79792398,22.3907079 9.79792398,21.8525498 C9.79792398,21.473393 9.74191291,21.1894664 9.62988909,21.0007616 C9.51786528,20.8120568 9.37976165,20.6919341 9.21557406,20.6403897 C9.05138648,20.5888453 8.85299612,20.5630736 8.62039705,20.5630736 L8.11757509,20.5630736 Z M13.4869953,20.5473482 L11.9862257,20.5473482 L11.9862257,21.5301807 L13.2407152,21.5301807 C13.3570147,21.5301807 13.4438105,21.5568261 13.5011051,21.6101178 C13.5583997,21.6634094 13.5870466,21.7346094 13.5870466,21.82372 C13.5870466,21.9128306 13.5579722,21.9835939 13.4998224,22.0360119 C13.4416726,22.0884299 13.3553044,22.1146385 13.2407152,22.1146385 L11.9862257,22.1146385 L11.9862257,23.3805267 C11.9862257,23.5412752 11.9507377,23.6605244 11.8797608,23.7382777 C11.8087839,23.8160311 11.7177125,23.8549072 11.6065438,23.8549072 C11.4936648,23.8549072 11.4017383,23.8155943 11.3307613,23.7369673 C11.2597844,23.6583403 11.2242965,23.539528 11.2242965,23.3805267 L11.2242965,20.4241666 C11.2242965,20.3123415 11.240544,20.2210482 11.2730394,20.1502839 C11.3055349,20.0795196 11.3564152,20.027976 11.4256818,19.9956516 C11.4949484,19.9633272 11.5834545,19.9471652 11.6912026,19.9471652 L13.4869953,19.9471652 C13.6084257,19.9471652 13.698642,19.9746842 13.7576469,20.0297231 C13.8166518,20.084762 13.8461538,20.1568357 13.8461538,20.2459463 C13.8461538,20.3368041 13.8166518,20.4097514 13.7576469,20.4647903 C13.698642,20.5198292 13.6084257,20.5473482 13.4869953,20.5473482 Z" id="PDF" fill="#171D49"></path>
                        <path d="M16.5310435,6.17432573 L14.618,3.9658463 L15.1310435,3.9658463 C15.3545217,3.9658463 15.538,3.77928931 15.538,3.54920235 L15.538,0.83346557 L17.5223478,0.83346557 L17.5223478,3.54920235 C17.5223478,3.77928931 17.7049565,3.9658463 17.9293043,3.9658463 L18.4432174,3.9658463 L16.5310435,6.17432573 Z M19.7197391,3.37774759 C19.6536522,3.228502 19.5084348,3.1325584 19.3484348,3.1325584 L18.338,3.1325584 L18.338,0.416821622 C18.338,0.186734665 18.1562609,0.000177673325 17.9301739,0.000177673325 L15.1310435,0.000177673325 C14.9058261,0.000177673325 14.7223478,0.186734665 14.7223478,0.416821622 L14.7223478,3.1325584 L13.7136522,3.1325584 C13.5527826,3.1325584 13.4075652,3.228502 13.3414783,3.37774759 C13.2762609,3.52788155 13.3023478,3.70111304 13.4084348,3.824596 L16.2249565,7.07779459 C16.3014783,7.16751962 16.4136522,7.21904489 16.5310435,7.21904489 C16.6484348,7.21904489 16.7588696,7.16751962 16.8371304,7.07779459 L19.6536522,3.824596 C19.7597391,3.70111304 19.7849565,3.52788155 19.7197391,3.37774759 Z" id="Fill-9" fill="#E54D4D"></path>
                    </g>
                </g>
            </g>
        </g>
    </g>
</svg>