<?xml version="1.0" encoding="UTF-8"?>
<svg width="16px" height="16px" viewBox="0 0 16 16" version="1.1" xmlns="http://www.w3.org/2000/svg" xmlns:xlink="http://www.w3.org/1999/xlink">
    <!-- Generator: sketchtool 52.1 (67048) - http://www.bohemiancoding.com/sketch -->
    <title>4B51DE79-B4FB-4BAA-AB0F-1FE32CC466FA</title>
    <desc>Created with sketchtool.</desc>
    <g id="PASO-2" stroke="none" stroke-width="1" fill="none" fill-rule="evenodd">
        <g id="Desktop-35" transform="translate(-614.000000, -420.000000)" fill="#3962E6">
            <g id="Group-8" transform="translate(612.000000, 301.000000)">
                <g id="Pertinencias" transform="translate(2.000000, 119.000000)">
                    <path d="M15.5872187,5.03521875 C15.0389375,4.48690625 14.1467812,4.4869375 13.5983125,5.03534375 C13.429625,5.2041875 12.3525937,6.28209375 12.1880625,6.44678125 L12.1880625,2.7320625 C12.1880625,2.3564375 12.0417812,2.0033125 11.7761563,1.73771875 L10.450375,0.411875 C10.1847812,0.14625 9.831625,0 9.456,0 L1.4068125,0 C0.63140625,0 0.0005625,0.63084375 0.0005625,1.40625 L0.0005625,14.59375 C0.0005625,15.3691562 0.63140625,16 1.4068125,16 L10.7818125,16 C11.5572187,16 12.1880625,15.3691562 12.1880625,14.59375 L12.1880625,10.4259687 L15.5871875,7.02396875 C16.1367812,6.47440625 16.1369062,5.58484375 15.5872187,5.03521875 Z M9.37559375,0.9375 C9.46415625,0.9375 9.6348125,0.92215625 9.78746875,1.07478125 L11.1132812,2.400625 C11.2620312,2.54940625 11.2505938,2.7124375 11.2505938,2.8125 L9.37559375,2.8125 L9.37559375,0.9375 Z M11.2505625,14.59375 C11.2505625,14.8522188 11.0403125,15.0625 10.7818125,15.0625 L1.4068125,15.0625 C1.14834375,15.0625 0.9380625,14.8522188 0.9380625,14.59375 L0.9380625,1.40625 C0.9380625,1.14778125 1.14834375,0.9375 1.4068125,0.9375 L8.4380625,0.9375 L8.4380625,3.28125 C8.4380625,3.540125 8.6479375,3.75 8.9068125,3.75 L11.2505625,3.75 L11.2505625,7.38509375 C11.2505625,7.38509375 9.867625,8.76921875 9.8675625,8.76925 L9.20496875,9.431875 C9.15353125,9.4833125 9.11471875,9.5460625 9.09171875,9.61509375 L8.42878125,11.6038437 C8.372625,11.7722812 8.41646875,11.958 8.54203125,12.0835313 C8.66775,12.20925 8.85353125,12.252875 9.02171875,12.1967813 L11.0104687,11.533875 C11.0795,11.510875 11.14225,11.4720938 11.1936875,11.420625 L11.2505625,11.36375 L11.2505625,14.59375 Z M10.1993125,9.76334375 L10.8622187,10.42625 L10.609,10.6794687 L9.61465625,11.0109062 L9.94609375,10.0165313 L10.1993125,9.76334375 Z M11.525,9.7631875 L10.8620937,9.10028125 C11.2150938,8.747 12.782875,7.177875 13.115375,6.84509375 L13.7782813,7.508 L11.525,9.7631875 Z M14.9241563,6.3611875 L14.4409375,6.8448125 L13.7780312,6.18190625 L14.2614063,5.698125 C14.4442813,5.51534375 14.7415938,5.515375 14.9243438,5.698125 C15.1070625,5.8809375 15.1080313,6.17728125 14.9241563,6.3611875 Z" id="Shape" fill-rule="nonzero"></path>
                    <path d="M8.9068125,4.6875 L2.3443125,4.6875 C2.0854375,4.6875 1.8755625,4.897375 1.8755625,5.15625 C1.8755625,5.415125 2.0854375,5.625 2.3443125,5.625 L8.9068125,5.625 C9.1656875,5.625 9.3755625,5.415125 9.3755625,5.15625 C9.3755625,4.897375 9.1656875,4.6875 8.9068125,4.6875 Z" id="Path"></path>
                    <path d="M7.0318125,6.5625 L2.3443125,6.5625 C2.0854375,6.5625 1.8755625,6.772375 1.8755625,7.03125 C1.8755625,7.290125 2.0854375,7.5 2.3443125,7.5 L7.0318125,7.5 C7.2906875,7.5 7.5005625,7.290125 7.5005625,7.03125 C7.5005625,6.772375 7.2906875,6.5625 7.0318125,6.5625 Z" id="Path"></path>
                    <path d="M7.0318125,8.4375 L2.3443125,8.4375 C2.0854375,8.4375 1.8755625,8.647375 1.8755625,8.90625 C1.8755625,9.165125 2.0854375,9.375 2.3443125,9.375 L7.0318125,9.375 C7.2906875,9.375 7.5005625,9.165125 7.5005625,8.90625 C7.5005625,8.647375 7.2906875,8.4375 7.0318125,8.4375 Z" id="Path"></path>
                    <path d="M7.0318125,10.3125 L2.3443125,10.3125 C2.0854375,10.3125 1.8755625,10.522375 1.8755625,10.78125 C1.8755625,11.040125 2.0854375,11.25 2.3443125,11.25 L7.0318125,11.25 C7.2906875,11.25 7.5005625,11.040125 7.5005625,10.78125 C7.5005625,10.522375 7.2906875,10.3125 7.0318125,10.3125 Z" id="Path"></path>
                    <path d="M8.9068125,13.1875 L6.0943125,13.1875 C5.8354375,13.1875 5.6255625,13.397375 5.6255625,13.65625 C5.6255625,13.915125 5.8354375,14.125 6.0943125,14.125 L8.9068125,14.125 C9.1656875,14.125 9.3755625,13.915125 9.3755625,13.65625 C9.3755625,13.397375 9.1656875,13.1875 8.9068125,13.1875 Z" id="Path"></path>
                </g>
            </g>
        </g>
    </g>
</svg>