<?xml version="1.0" encoding="UTF-8"?>
<svg width="101px" height="15px" viewBox="0 0 101 15" version="1.1" xmlns="http://www.w3.org/2000/svg" xmlns:xlink="http://www.w3.org/1999/xlink">
    <!-- Generator: sketchtool 52.1 (67048) - http://www.bohemiancoding.com/sketch -->
    <title>E566E9DC-A970-4ECC-9818-70EB62BEED31</title>
    <desc>Created with sketchtool.</desc>
    <defs>
        <polygon id="path-1" points="0.0555282895 0.207643866 12.4271827 0.207643866 12.4271827 14.067684 0.0555282895 14.067684"></polygon>
        <polygon id="path-3" points="0.0555282895 0.207643866 12.4271827 0.207643866 12.4271827 14.067684 0.0555282895 14.067684"></polygon>
    </defs>
    <g id="Pagos-1" stroke="none" stroke-width="1" fill="none" fill-rule="evenodd">
        <g id="Pago-008-2" transform="translate(-789.000000, -254.000000)">
            <g id="Group-7" transform="translate(525.000000, 199.000000)">
                <g id="Group-12">
                    <g id="PhantomX-Logo" transform="translate(265.000000, 55.000000)">
                        <path d="M7.30588284,5.13362892 C7.30588284,3.38795722 6.06437698,2.12826007 4.33724658,2.12826007 L1.0084149,2.12826007 L1.0084149,8.12135804 L4.33724658,8.12135804 C6.06437698,8.12135804 7.30588284,6.86121989 7.30588284,5.13362892 M8.25971734,5.13362892 C8.25971734,7.34741492 6.60422923,9.02098422 4.33724658,9.02098422 L1.0084149,9.02098422 L1.0084149,13.8262669 L0.0550212825,13.8262669 L0.0550212825,1.22841339 L4.33724658,1.22841339 C6.60422923,1.22841339 8.25971734,2.90198269 8.25971734,5.13362892" id="Fill-1" fill="#171D49"></path>
                        <path d="M7.30588284,5.13362892 C7.30588284,3.38795722 6.06437698,2.12826007 4.33724658,2.12826007 L1.0084149,2.12826007 L1.0084149,8.12135804 L4.33724658,8.12135804 C6.06437698,8.12135804 7.30588284,6.86121989 7.30588284,5.13362892 Z M8.25971734,5.13362892 C8.25971734,7.34741492 6.60422923,9.02098422 4.33724658,9.02098422 L1.0084149,9.02098422 L1.0084149,13.8262669 L0.0550212825,13.8262669 L0.0550212825,1.22841339 L4.33724658,1.22841339 C6.60422923,1.22841339 8.25971734,2.90198269 8.25971734,5.13362892 Z" id="Stroke-3" stroke="#171D49" stroke-width="0.5"></path>
                        <path d="M19.8484427,8.22920293 L19.8484427,13.826289 L18.93076,13.826289 L18.93076,8.22920293 C18.93076,6.57349386 17.9769255,5.49350144 16.2859469,5.49350144 C14.5224443,5.49350144 13.137213,6.64537575 13.137213,9.07502794 L13.137213,13.826289 L12.2373857,13.826289 L12.2373857,1.22843544 L13.137213,1.22843544 L13.137213,6.53755291 C13.8207907,5.20575336 14.9723579,4.6298162 16.3580301,4.6298162 C18.4989223,4.6298162 19.8484427,6.05157837 19.8484427,8.22920293" id="Fill-5" fill="#171D49"></path>
                        <path d="M19.8484427,8.22920293 L19.8484427,13.826289 L18.93076,13.826289 L18.93076,8.22920293 C18.93076,6.57349386 17.9769255,5.49350144 16.2859469,5.49350144 C14.5224443,5.49350144 13.137213,6.64537575 13.137213,9.07502794 L13.137213,13.826289 L12.2373857,13.826289 L12.2373857,1.22843544 L13.137213,1.22843544 L13.137213,6.53755291 C13.8207907,5.20575336 14.9723579,4.6298162 16.3580301,4.6298162 C18.4989223,4.6298162 19.8484427,6.05157837 19.8484427,8.22920293 Z" id="Stroke-7" stroke="#171D49" stroke-width="0.5"></path>
                        <path d="M32.1028683,9.32694532 C32.1028683,7.18548221 30.4473802,5.49361169 28.306488,5.49361169 C26.1651549,5.49361169 24.4922522,7.18548221 24.4922522,9.32694532 C24.4922522,11.4686289 26.1651549,13.160279 28.306488,13.160279 C30.4473802,13.160279 32.1028683,11.4686289 32.1028683,9.32694532 Z M33.0203305,4.82771192 L33.0203305,13.8261787 L32.1028683,13.8261787 L32.1028683,11.792759 C31.3472074,13.1424187 29.9615352,14.0244052 28.2346252,14.0244052 C25.6797508,14.0244052 23.5745695,11.9907649 23.5745695,9.32694532 C23.5745695,6.66334623 25.6797508,4.62970596 28.2346252,4.62970596 C29.9615352,4.62970596 31.3472074,5.51147192 32.1028683,6.86135219 L32.1028683,4.82771192 L33.0203305,4.82771192 Z" id="Fill-9" fill="#171D49"></path>
                        <path d="M32.1028683,9.32694532 C32.1028683,7.18548221 30.4473802,5.49361169 28.306488,5.49361169 C26.1651549,5.49361169 24.4922522,7.18548221 24.4922522,9.32694532 C24.4922522,11.4686289 26.1651549,13.160279 28.306488,13.160279 C30.4473802,13.160279 32.1028683,11.4686289 32.1028683,9.32694532 Z M33.0203305,4.82771192 L33.0203305,13.8261787 L32.1028683,13.8261787 L32.1028683,11.792759 C31.3472074,13.1424187 29.9615352,14.0244052 28.2346252,14.0244052 C25.6797508,14.0244052 23.5745695,11.9907649 23.5745695,9.32694532 C23.5745695,6.66334623 25.6797508,4.62970596 28.2346252,4.62970596 C29.9615352,4.62970596 31.3472074,5.51147192 32.1028683,6.86135219 L32.1028683,4.82771192 L33.0203305,4.82771192 Z" id="Stroke-11" stroke="#171D49" stroke-width="0.5"></path>
                        <path d="M45.2034224,8.22920293 L45.2034224,13.826289 L44.2855193,13.826289 L44.2855193,8.22920293 C44.2855193,6.57349386 43.3319052,5.49350144 41.6409266,5.49350144 C39.877424,5.49350144 38.4921927,6.64537575 38.4921927,9.07502794 L38.4921927,13.826289 L37.5923654,13.826289 L37.5923654,4.82782216 L38.4921927,4.82782216 L38.4921927,6.53755291 C39.1757704,5.20575336 40.3271172,4.6298162 41.7130098,4.6298162 C43.8536816,4.6298162 45.2034224,6.05157837 45.2034224,8.22920293" id="Fill-13" fill="#171D49"></path>
                        <path d="M45.2034224,8.22920293 L45.2034224,13.826289 L44.2855193,13.826289 L44.2855193,8.22920293 C44.2855193,6.57349386 43.3319052,5.49350144 41.6409266,5.49350144 C39.877424,5.49350144 38.4921927,6.64537575 38.4921927,9.07502794 L38.4921927,13.826289 L37.5923654,13.826289 L37.5923654,4.82782216 L38.4921927,4.82782216 L38.4921927,6.53755291 C39.1757704,5.20575336 40.3271172,4.6298162 41.7130098,4.6298162 C43.8536816,4.6298162 45.2034224,6.05157837 45.2034224,8.22920293 Z" id="Stroke-15" stroke="#171D49" stroke-width="0.5"></path>
                        <path d="M51.4662155,5.70952197 L51.4662155,11.5586357 C51.4662155,13.1424628 52.311815,13.1784038 54.1469599,13.0163388 L54.1469599,13.8262228 C51.7904795,14.1860733 50.5487532,13.6105771 50.5487532,11.5586357 L50.5487532,5.70952197 L48.5696624,5.70952197 L48.5696624,4.82775602 L50.5487532,4.82775602 L50.5487532,2.57824956 L51.4662155,2.30814121 L51.4662155,4.82775602 L54.1469599,4.82775602 L54.1469599,5.70952197 L51.4662155,5.70952197 Z" id="Fill-17" fill="#171D49"></path>
                        <path d="M51.4662155,5.70952197 L51.4662155,11.5586357 C51.4662155,13.1424628 52.311815,13.1784038 54.1469599,13.0163388 L54.1469599,13.8262228 C51.7904795,14.1860733 50.5487532,13.6105771 50.5487532,11.5586357 L50.5487532,5.70952197 L48.5696624,5.70952197 L48.5696624,4.82775602 L50.5487532,4.82775602 L50.5487532,2.57824956 L51.4662155,2.30814121 L51.4662155,4.82775602 L54.1469599,4.82775602 L54.1469599,5.70952197 L51.4662155,5.70952197 Z" id="Stroke-19" stroke="#171D49" stroke-width="0.5"></path>
                        <path d="M65.4835926,9.32694532 C65.4835926,7.18548221 63.8281045,5.49361169 61.6872123,5.49361169 C59.5458792,5.49361169 57.8729765,7.18548221 57.8729765,9.32694532 C57.8729765,11.4686289 59.5458792,13.160279 61.6872123,13.160279 C63.8281045,13.160279 65.4835926,11.4686289 65.4835926,9.32694532 M56.9552938,9.32694532 C56.9552938,6.66334623 59.0604751,4.62970596 61.6872123,4.62970596 C64.296094,4.62970596 66.4010549,6.66334623 66.4010549,9.32694532 C66.4010549,11.9907649 64.296094,14.0244052 61.6872123,14.0244052 C59.0604751,14.0244052 56.9552938,11.9907649 56.9552938,9.32694532" id="Fill-21" fill="#171D49"></path>
                        <path d="M65.4835926,9.32694532 C65.4835926,7.18548221 63.8281045,5.49361169 61.6872123,5.49361169 C59.5458792,5.49361169 57.8729765,7.18548221 57.8729765,9.32694532 C57.8729765,11.4686289 59.5458792,13.160279 61.6872123,13.160279 C63.8281045,13.160279 65.4835926,11.4686289 65.4835926,9.32694532 Z M56.9552938,9.32694532 C56.9552938,6.66334623 59.0604751,4.62970596 61.6872123,4.62970596 C64.296094,4.62970596 66.4010549,6.66334623 66.4010549,9.32694532 C66.4010549,11.9907649 64.296094,14.0244052 61.6872123,14.0244052 C59.0604751,14.0244052 56.9552938,11.9907649 56.9552938,9.32694532 Z" id="Stroke-23" stroke="#171D49" stroke-width="0.5"></path>
                        <path d="M83.2438057,8.12131394 L83.2438057,13.8262228 L82.3439785,13.8262228 L82.3439785,8.12131394 C82.3439785,6.41158319 81.3546535,5.49365579 79.9509054,5.49365579 C78.4395836,5.49365579 77.252085,6.50132532 77.252085,8.80507394 L77.252085,13.8262228 L76.3526987,13.8262228 L76.3526987,8.12131394 C76.3526987,6.41158319 75.435016,5.49365579 74.0497847,5.49365579 C72.5746147,5.49365579 71.2608052,6.50132532 71.2608052,8.80507394 L71.2608052,13.8262228 L70.3611984,13.8262228 L70.3611984,4.82775602 L71.2608052,4.82775602 L71.2608052,6.37564225 C71.9265275,5.13358482 73.0060115,4.62975006 74.1577992,4.62975006 C75.4709474,4.62975006 76.4964241,5.2777896 76.9644137,6.46538437 C77.6118396,5.20568721 78.7638477,4.62975006 79.9689813,4.62975006 C81.875989,4.62975006 83.2438057,5.87136649 83.2438057,8.12131394" id="Fill-25" fill="#171D49"></path>
                        <path d="M83.2438057,8.12131394 L83.2438057,13.8262228 L82.3439785,13.8262228 L82.3439785,8.12131394 C82.3439785,6.41158319 81.3546535,5.49365579 79.9509054,5.49365579 C78.4395836,5.49365579 77.252085,6.50132532 77.252085,8.80507394 L77.252085,13.8262228 L76.3526987,13.8262228 L76.3526987,8.12131394 C76.3526987,6.41158319 75.435016,5.49365579 74.0497847,5.49365579 C72.5746147,5.49365579 71.2608052,6.50132532 71.2608052,8.80507394 L71.2608052,13.8262228 L70.3611984,13.8262228 L70.3611984,4.82775602 L71.2608052,4.82775602 L71.2608052,6.37564225 C71.9265275,5.13358482 73.0060115,4.62975006 74.1577992,4.62975006 C75.4709474,4.62975006 76.4964241,5.2777896 76.9644137,6.46538437 C77.6118396,5.20568721 78.7638477,4.62975006 79.9689813,4.62975006 C81.875989,4.62975006 83.2438057,5.87136649 83.2438057,8.12131394 Z" id="Stroke-27" stroke="#171D49" stroke-width="0.5"></path>
                        <g id="ICONO" transform="translate(86.931905, 0.000000)">
                            <g id="Group-31" transform="translate(0.294182, 0.247632)">
                                <mask id="mask-2" fill="white">
                                    <use xlink:href="#path-1"></use>
                                </mask>
                                <g id="Clip-30"></g>
                                <polygon id="Fill-29" fill="#171D49" mask="url(#mask-2)" points="12.4271827 14.0677082 8.46818539 14.0677082 0.0555282895 0.207643866 4.0145256 0.207643866"></polygon>
                            </g>
                            <polygon id="Fill-32" fill="#FFFFFF" points="6.50670633 3.09498014 3.24969329 8.42590472 6.50670633 11.6837863 10.0597894 5.76032116"></polygon>
                            <g id="Group-36" transform="translate(0.294182, 0.247632)">
                                <mask id="mask-4" fill="white">
                                    <use xlink:href="#path-3"></use>
                                </mask>
                                <g id="Clip-35"></g>
                                <polygon id="Fill-34" fill="#0B62EA" mask="url(#mask-4)" points="0.0555282895 14.0677082 4.0145256 14.0677082 12.4271827 0.207643866 8.46818539 0.207643866"></polygon>
                            </g>
                        </g>
                    </g>
                </g>
            </g>
        </g>
    </g>
</svg>