<?xml version="1.0" encoding="UTF-8"?>
<svg width="19px" height="18px" viewBox="0 0 19 18" version="1.1" xmlns="http://www.w3.org/2000/svg" xmlns:xlink="http://www.w3.org/1999/xlink">
    <!-- Generator: sketchtool 52.1 (67048) - http://www.bohemiancoding.com/sketch -->
    <title>53C84957-4BF8-48DD-980C-B6C41EFEFEFB</title>
    <desc>Created with sketchtool.</desc>
    <g id="Agenda-10---Prop-3" stroke="none" stroke-width="1" fill="none" fill-rule="evenodd">
        <g id="agenda-0059" transform="translate(-754.000000, -599.000000)">
            <g id="Group-2" transform="translate(458.000000, 414.000000)">
                <g id="Phone-icon" transform="translate(295.135730, 183.225033)">
                    <g id="Icon" transform="translate(0.891110, 1.783733)" fill="#2FCC71" fill-rule="nonzero">
                        <path d="M16.4320739,9.8105304 C16.2360296,9.8105304 16.0310742,9.74809976 15.83503,9.70350644 C15.4380254,9.61594734 15.0478849,9.49970008 14.6676755,9.35567854 C13.8115415,9.0439545 12.8583418,9.42863534 12.4577219,10.2475449 L12.2616777,10.6488848 C11.3937383,10.1656521 10.5961774,9.56547345 9.89132428,8.86515202 C9.19159657,8.15970085 8.5919267,7.36146319 8.10910369,6.49278739 L8.48337002,6.2430648 C9.30158536,5.84210505 9.68594008,4.88809655 9.37448031,4.03123613 C9.23299156,3.6498938 9.11689315,3.25959132 9.0269473,2.86289115 C8.98239178,2.66668054 8.94674737,2.46155126 8.92001406,2.25642199 C8.6964504,0.958553466 7.56244249,0.0165282714 6.24668317,0.035674656 L3.57335229,0.035674656 C2.79624923,0.0283719302 2.0544347,0.359875629 1.54111326,0.943846072 C1.02779183,1.52781651 0.793778379,2.3064451 0.900021399,3.07693908 C1.87661761,10.7632767 7.93783962,16.8076088 15.6211635,17.75706 L15.9597854,17.75706 C16.6169036,17.7580249 17.2513579,17.5167277 17.742006,17.0792416 C18.3122567,16.5687759 18.6366619,15.8382448 18.6331163,15.0725422 L18.6331163,12.396943 C18.6106063,11.1193983 17.6886886,10.0360664 16.4320739,9.8105304 Z M16.877629,15.1617288 C16.8773049,15.4178971 16.7669391,15.6615576 16.5746515,15.8306286 C16.3733139,16.0046086 16.1080139,16.0855613 15.8439411,16.0535952 C8.97885395,15.1726103 3.58334573,9.74682684 2.73570861,2.87180981 C2.7070492,2.60781182 2.78754213,2.343571 2.95848618,2.14047936 C3.12741382,1.94802863 3.37086783,1.83756917 3.6268189,1.83724478 L6.30014979,1.83724478 C6.72760899,1.82772532 7.10157724,2.12341091 7.19126009,2.54181924 C7.2269045,2.78559606 7.27146001,3.02639999 7.32492663,3.26423103 C7.42786723,3.73437313 7.56486616,4.19639168 7.73483737,4.64662395 L6.48728295,5.22633711 C6.27184458,5.32526669 6.10466462,5.50602539 6.02272139,5.72863146 C5.94077816,5.95123752 5.95082473,6.19734561 6.05063891,6.41251942 C7.3331254,9.1619251 9.54133618,11.3720095 12.288411,12.6555842 C12.5053619,12.7447869 12.7487039,12.7447869 12.9656548,12.6555842 C13.190135,12.5752222 13.3730797,12.4081836 13.4735877,12.1918137 L14.0260761,10.9432007 C14.4867499,11.1080864 14.9569172,11.2450867 15.4340303,11.3534593 C15.6716597,11.4069713 15.9122595,11.4515646 16.1558297,11.4872392 C16.5738833,11.5769982 16.8693182,11.9512837 16.8598068,12.3791056 L16.877629,15.1617288 Z" id="Icon-Shape"></path>
                    </g>
                    <rect id="ViewBox" x="0" y="0" width="21.3866471" height="21.4047936"></rect>
                </g>
            </g>
        </g>
    </g>
</svg>