<?xml version="1.0" encoding="UTF-8"?>
<svg width="20px" height="20px" viewBox="0 0 20 20" version="1.1" xmlns="http://www.w3.org/2000/svg" xmlns:xlink="http://www.w3.org/1999/xlink">
    <title>3391DD55-7C22-480C-9428-C2486958F77C</title>
    <g id="Laboratorio-a-Domicilio***" stroke="none" stroke-width="1" fill="none" fill-rule="evenodd" opacity="0.3">
        <g id="Menu-3-05" transform="translate(-369.000000, -366.000000)" stroke="#3962E6">
            <g id="Less-Copy-3" transform="translate(379.000000, 376.000000) rotate(-315.000000) translate(-379.000000, -376.000000) translate(370.000000, 367.000000)">
                <path d="M18,9 C18,13.9707 13.9707,18 9,18 C4.0293,18 0,13.9707 0,9 C0,4.0293 4.0293,0 9,0 C13.9707,0 18,4.0293 18,9" id="Fill-1" stroke-width="1.5"></path>
                <path d="M6.01884844,12.7492172 C5.91804844,12.7492172 5.81724844,12.7106297 5.74046719,12.6338484 C5.58651094,12.4798922 5.58651094,12.2310422 5.74046719,12.0770859 L12.0770859,5.74046719 C12.2306484,5.58651094 12.4798922,5.58651094 12.6338484,5.74046719 C12.7874109,5.89402969 12.7874109,6.14327344 12.6338484,6.29722969 L6.29722969,12.6338484 C6.22044844,12.7106297 6.11964844,12.7492172 6.01884844,12.7492172" id="Fill-3" stroke-width="0.8" fill="#3962E6"></path>
                <path d="M12.3551719,12.7492172 C12.2543719,12.7492172 12.1535719,12.7106297 12.0767906,12.6338484 L5.74017187,6.29722969 C5.58660938,6.14327344 5.58660938,5.89402969 5.74017187,5.74046719 C5.89412813,5.58651094 6.14337187,5.58651094 6.29693437,5.74046719 L12.6335531,12.0770859 C12.7875094,12.2310422 12.7875094,12.4798922 12.6335531,12.6338484 C12.5567719,12.7106297 12.4559719,12.7492172 12.3551719,12.7492172" id="Fill-5" stroke-width="0.8" fill="#3962E6"></path>
            </g>
        </g>
    </g>
</svg>