<?xml version="1.0" encoding="UTF-8"?>
<svg width="32px" height="32px" viewBox="0 0 32 32" version="1.1" xmlns="http://www.w3.org/2000/svg" xmlns:xlink="http://www.w3.org/1999/xlink">
    <!-- Generator: sketchtool 52.1 (67048) - http://www.bohemiancoding.com/sketch -->
    <title>5879DAA8-5866-4849-9570-19A494EA6E70</title>
    <desc>Created with sketchtool.</desc>
    <g id="*CRM" stroke="none" stroke-width="1" fill="none" fill-rule="evenodd">
        <g id="Demanda-Inducida-001" transform="translate(-1074.000000, -338.000000)" fill="#2FCC71" fill-rule="nonzero">
            <g id="Positiva" transform="translate(1074.000000, 338.000000)">
                <path d="M27.0791776,4.6408972 C20.8921121,-1.54676636 10.8258692,-1.54676636 4.64,4.63940187 C-1.54706542,10.8255701 -1.54646729,20.8921121 4.64059813,27.0794766 C10.8258692,33.2653458 20.8921121,33.2653458 27.0785794,27.0782804 C33.2650467,20.8921121 33.2647477,10.8261682 27.0791776,4.6408972 Z M25.3478878,25.3481869 C20.1160374,30.5800374 11.6028411,30.5806355 6.37069159,25.348785 C1.13764486,20.1160374 1.13824299,11.6019439 6.37069159,6.37009346 C11.6025421,1.13854206 20.1154392,1.13794393 25.348486,6.37069159 C30.5803364,11.6025421 30.5797383,20.1166355 25.3478878,25.3481869 Z M9.94093458,11.5651589 C9.94093458,10.5411589 10.7714392,9.71065421 11.7954392,9.71065421 C12.8191402,9.71065421 13.6496449,10.5408598 13.6496449,11.5651589 C13.6496449,12.589757 12.8191402,13.4199626 11.7954392,13.4199626 C10.7714392,13.4199626 9.94093458,12.589757 9.94093458,11.5651589 Z M18.349757,11.5651589 C18.349757,10.5411589 19.1808598,9.71065421 20.2048598,9.71065421 C21.2285607,9.71065421 22.0590654,10.5408598 22.0590654,11.5651589 C22.0590654,12.589757 21.2288598,13.4199626 20.2048598,13.4199626 C19.1808598,13.4199626 18.349757,12.589757 18.349757,11.5651589 Z M22.7340561,19.1605234 C21.5847477,21.8183178 18.8931589,23.5355514 15.8773832,23.5355514 C12.7967103,23.5355514 10.089271,21.8096449 8.97973832,19.1383925 C8.78953271,18.6811215 9.00635514,18.1559626 9.4642243,17.965757 C9.57667289,17.9194019 9.69330841,17.897271 9.80814953,17.897271 C10.1598505,17.897271 10.4936075,18.1051215 10.6368598,18.4505421 C11.4673645,20.4500935 13.5243364,21.7414579 15.8773832,21.7414579 C18.1771963,21.7414579 20.2222056,20.4491963 21.0871028,18.4484486 C21.2838878,17.9935701 21.8120374,17.7839252 22.2666168,17.9810093 C22.7211963,18.1780935 22.9308411,18.7059439 22.7340561,19.1605234 Z" id="Shape"></path>
            </g>
        </g>
    </g>
</svg>