<?xml version="1.0" encoding="UTF-8"?>
<svg width="33px" height="36px" viewBox="0 0 33 36" version="1.1" xmlns="http://www.w3.org/2000/svg" xmlns:xlink="http://www.w3.org/1999/xlink">
    <!-- Generator: sketchtool 52.1 (67048) - http://www.bohemiancoding.com/sketch -->
    <title>B1D25181-BA6D-4627-B8FD-1F4B626DF4D3</title>
    <desc>Created with sketchtool.</desc>
    <g id="*CRM" stroke="none" stroke-width="1" fill="none" fill-rule="evenodd">
        <g id="Demanda-Inducida-001" transform="translate(-486.000000, -333.000000)" fill="#2FCC71">
            <g id="Presencial" transform="translate(486.000000, 333.000000)">
                <path d="M32.4110596,22.0754638 L31.2406982,18.0194824 C31.0817139,17.4678711 30.5693115,17.0824951 29.9951416,17.0824951 L21.3146484,17.0824951 L21.3146484,14.1555176 L21.6653808,14.1555176 C22.2290771,14.1555176 22.6877685,13.6970947 22.6877685,13.1333984 L22.6877685,12.1225586 C22.6877685,11.5588623 22.2290771,11.1004395 21.6653808,11.1004395 L20.5232178,11.1004395 C21.9897949,9.30676271 22.7323487,7.76257322 22.7323487,6.49956051 C22.7323487,2.91569822 19.8166504,-5.68434189e-14 16.2327881,-5.68434189e-14 C14.685376,-5.68434189e-14 13.1863037,0.552954119 12.0119141,1.55734865 C10.8504151,2.55019531 10.0732178,3.92277834 9.82265625,5.42211917 C9.7759277,5.70302734 9.96552734,5.96889645 10.2467041,6.01589354 C10.5276123,6.06289062 10.7934815,5.87302244 10.8404786,5.59184574 C11.2814453,2.94953615 13.5493896,1.03178707 16.2327881,1.03178707 C19.247583,1.03178707 21.700293,3.48449709 21.700293,6.49956051 C21.700293,8.52607422 18.9666748,11.4801758 17.0685303,13.2244385 C17.0384521,13.2464599 17.0110596,13.2717041 16.9863526,13.2996338 C16.7132324,13.5488526 16.4589111,13.7717529 16.2343994,13.9616211 C15.7953125,13.5864502 14.9611817,12.8498047 14.0757568,11.9364502 C12.3964844,10.2048096 11.3058838,8.6415527 10.9221192,7.41640625 C10.8369873,7.14462891 10.5474854,6.99316406 10.275708,7.07829588 C10.0036621,7.1634277 9.85246584,7.45292969 9.93759766,7.72497557 C10.2501953,8.72265625 10.9223877,9.85354006 11.9420898,11.1004395 L10.8001953,11.1004395 C10.236499,11.1004395 9.7778076,11.5588623 9.7778076,12.1225586 L9.7778076,13.1333984 C9.7778076,13.6970947 10.2362305,14.1555176 10.8001953,14.1555176 L11.1509277,14.1555176 L11.1509277,17.0824951 L2.47043459,17.0824951 C1.89626463,17.0824951 1.38413083,17.4676026 1.22487791,18.0194824 L0.0545166188,22.0754638 C0.00966796875,22.2312256 0.040551775,22.3990723 0.138037075,22.5285156 C0.235253906,22.6582276 0.388061506,22.7342285 0.550268538,22.7342285 L1.84362791,22.7342285 L1.84362791,32.3742676 L1.753125,32.3742676 C1.13356932,32.3742676 0.629492188,32.8786133 0.629492188,33.498169 L0.629492188,34.0763672 C0.629492188,34.6959229 1.13356932,35.2 1.753125,35.2 L11.6660156,35.2 L11.6668213,35.2 L20.7987549,35.2 L20.7995605,35.2 L30.7124511,35.2 C31.3320068,35.2 31.8363526,34.6959229 31.8363526,34.0763672 L31.8363526,33.498169 C31.8363526,32.8783447 31.3320068,32.3742676 30.7124511,32.3742676 L30.6222168,32.3742676 L30.6222168,22.7342285 L31.9153076,22.7342285 C32.0775146,22.7342285 32.2300537,22.6582276 32.3275391,22.5285156 C32.4250244,22.3990723 32.4559082,22.2312256 32.4110596,22.0754638 Z M19.6036865,12.1553223 C19.610669,12.1475342 19.6176514,12.1397461 19.6249023,12.131958 L21.6559815,12.131958 L21.6559815,13.1237305 L18.6661621,13.1237305 C18.9688232,12.8245605 19.2857178,12.4996094 19.6036865,12.1553223 Z M10.8095947,12.131958 L12.8406739,12.131958 C12.9993896,12.3043701 13.1642822,12.4786621 13.335083,12.6545654 C13.492456,12.817041 13.6479492,12.9736084 13.7999511,13.1237305 L10.8095947,13.1237305 L10.8095947,12.131958 Z M2.21611328,18.3054932 C2.24860838,18.1927002 2.35334474,18.1140136 2.47043459,18.1140136 L11.1509277,18.1140136 L11.1509277,21.7024414 L1.23588864,21.7024414 L2.21611328,18.3054932 Z M2.87514645,22.7342285 L11.1509277,22.7342285 L11.1509277,32.3742676 L2.87514645,32.3742676 L2.87514645,22.7342285 Z M11.1509277,34.1682129 L1.753125,34.1682129 C1.70236818,34.1682129 1.66127926,34.1268555 1.66127926,34.0763672 L1.66127926,33.498169 C1.66127926,33.4474121 1.70236818,33.4060547 1.753125,33.4060547 L11.1509277,33.4060547 L11.1509277,34.1682129 Z M14.7847412,34.1682129 L14.7847412,30.0673828 C14.7847412,29.9164551 14.9074707,29.7937256 15.0583984,29.7937256 L17.4071777,29.7937256 C17.5581055,29.7937256 17.6808349,29.9164551 17.6808349,30.0673828 L17.6808349,34.1682129 L14.7847412,34.1682129 Z M30.8045654,33.498169 L30.8045654,34.0763672 C30.8045654,34.1268555 30.763208,34.1682129 30.7124511,34.1682129 L21.3146484,34.1682129 L21.3146484,33.4060547 L30.7124511,33.4060547 C30.763208,33.4060547 30.8045654,33.4474121 30.8045654,33.498169 Z M29.5904297,32.3742676 L21.3146484,32.3742676 L21.3146484,29.9116211 C21.3146484,29.6266846 21.0836914,29.3957276 20.7987549,29.3957276 C20.5138183,29.3957276 20.2828614,29.6266846 20.2828614,29.9116211 L20.2828614,34.1682129 L18.7126221,34.1682129 L18.7126221,30.0673828 C18.7126221,29.3476562 18.1269043,28.7619385 17.4071777,28.7619385 L15.0583984,28.7619385 C14.3384033,28.7619385 13.7529541,29.3476562 13.7529541,30.0673828 L13.7529541,34.1682129 L12.1827148,34.1682129 L12.1827148,14.1555176 L14.8918945,14.1555176 C15.4789551,14.6859131 15.8801758,15.0108643 15.9086426,15.0339599 C16.0031739,15.1102295 16.1178467,15.1483643 16.2327881,15.1483643 C16.3474609,15.1483643 16.4621338,15.1102295 16.5566651,15.0342285 C16.5883545,15.0084473 16.9893067,14.6834961 17.5736817,14.1555176 L20.2828614,14.1555176 L20.2828614,27.8480469 C20.2828614,28.1329834 20.5138183,28.3639404 20.7987549,28.3639404 C21.0836914,28.3639404 21.3146484,28.1329834 21.3146484,27.8480469 L21.3146484,22.7342285 L29.5901611,22.7342285 L29.5901611,32.3742676 L29.5904297,32.3742676 Z M21.3146484,21.7024414 L21.3146484,18.1140136 L29.9951416,18.1140136 C30.1122315,18.1140136 30.2169678,18.1927002 30.2494629,18.3054932 L31.2296875,21.7027099 L21.3146484,21.7027099 L21.3146484,21.7024414 Z" id="Shape" fill-rule="nonzero"></path>
                <path d="M22.7390625,26.427124 L24.4674805,26.427124 C24.8136474,26.427124 25.0953614,26.1451416 25.0953614,25.7989746 L25.0953614,24.0705567 C25.0953614,23.7241211 24.8136474,23.4424072 24.4674805,23.4424072 L22.7390625,23.4424072 C22.392627,23.4424072 22.1109131,23.7241211 22.1109131,24.0705567 L22.1109131,25.7989746 C22.1109131,26.1451416 22.392627,26.427124 22.7390625,26.427124 Z M23.1424317,24.4741943 L24.0638428,24.4741943 L24.0638428,25.3953369 L23.1424317,25.3953369 L23.1424317,24.4741943 Z" id="Shape" fill-rule="nonzero"></path>
                <path d="M26.4708984,26.427124 L28.1993164,26.427124 C28.545752,26.427124 28.8274658,26.1451416 28.8274658,25.7989746 L28.8274658,24.0705567 C28.8274658,23.7241211 28.545752,23.4424072 28.1993164,23.4424072 L26.4708984,23.4424072 C26.1247315,23.4424072 25.842749,23.7241211 25.842749,24.0705567 L25.842749,25.7989746 C25.842749,26.1451416 26.1247315,26.427124 26.4708984,26.427124 Z M26.8745362,24.4741943 L27.7956787,24.4741943 L27.7956787,25.3953369 L26.8745362,25.3953369 L26.8745362,24.4741943 Z" id="Shape" fill-rule="nonzero"></path>
                <path d="M22.7390625,30.3233154 L24.4674805,30.3233154 C24.8136474,30.3233154 25.0953614,30.041333 25.0953614,29.6951661 L25.0953614,27.966748 C25.0953614,27.6203125 24.8136474,27.3385987 24.4674805,27.3385987 L22.7390625,27.3385987 C22.392627,27.3385987 22.1109131,27.6203125 22.1109131,27.966748 L22.1109131,29.6951661 C22.1109131,30.041333 22.392627,30.3233154 22.7390625,30.3233154 Z M23.1424317,28.3703857 L24.0638428,28.3703857 L24.0638428,29.2915283 L23.1424317,29.2915283 L23.1424317,28.3703857 Z" id="Shape" fill-rule="nonzero"></path>
                <path d="M26.4708984,30.3233154 L28.1993164,30.3233154 C28.545752,30.3233154 28.8274658,30.041333 28.8274658,29.6951661 L28.8274658,27.966748 C28.8274658,27.6203125 28.545752,27.3385987 28.1993164,27.3385987 L26.4708984,27.3385987 C26.1247315,27.3385987 25.842749,27.6203125 25.842749,27.966748 L25.842749,29.6951661 C25.842749,30.041333 26.1247315,30.3233154 26.4708984,30.3233154 Z M26.8745362,28.3703857 L27.7956787,28.3703857 L27.7956787,29.2915283 L26.8745362,29.2915283 L26.8745362,28.3703857 Z" id="Shape" fill-rule="nonzero"></path>
                <path d="M9.72651364,23.4424072 L7.99809574,23.4424072 C7.65192869,23.4424072 7.36994631,23.7241211 7.36994631,24.0705567 L7.36994631,25.7989746 C7.36994631,26.1451416 7.65192869,26.427124 7.99809574,26.427124 L9.72651364,26.427124 C10.0729492,26.427124 10.3546631,26.1451416 10.3546631,25.7989746 L10.3546631,24.0705567 C10.3546631,23.7241211 10.0729492,23.4424072 9.72651364,23.4424072 Z M9.32287599,25.3953369 L8.40173338,25.3953369 L8.40173338,24.4741943 L9.32287599,24.4741943 L9.32287599,25.3953369 Z" id="Shape" fill-rule="nonzero"></path>
                <path d="M5.99440916,23.4424072 L4.2662598,23.4424072 C3.91982422,23.4424072 3.63811037,23.7241211 3.63811037,24.0705567 L3.63811037,25.7989746 C3.63811037,26.1451416 3.91982422,26.427124 4.2662598,26.427124 L5.99440916,26.427124 C6.34084474,26.427124 6.62282713,26.1451416 6.62282713,25.7989746 L6.62282713,24.0705567 C6.62282713,23.7241211 6.34084474,23.4424072 5.99440916,23.4424072 Z M5.59104006,25.3953369 L4.66989744,25.3953369 L4.66989744,24.4741943 L5.59104006,24.4741943 L5.59104006,25.3953369 Z" id="Shape" fill-rule="nonzero"></path>
                <path d="M9.72651364,27.3385987 L7.99809574,27.3385987 C7.65192869,27.3385987 7.36994631,27.6203125 7.36994631,27.966748 L7.36994631,29.6951661 C7.36994631,30.041333 7.65192869,30.3233154 7.99809574,30.3233154 L9.72651364,30.3233154 C10.0729492,30.3233154 10.3546631,30.041333 10.3546631,29.6951661 L10.3546631,27.966748 C10.3546631,27.6203125 10.0729492,27.3385987 9.72651364,27.3385987 Z M9.32287599,29.2915283 L8.40173338,29.2915283 L8.40173338,28.3703857 L9.32287599,28.3703857 L9.32287599,29.2915283 Z" id="Shape" fill-rule="nonzero"></path>
                <path d="M5.99440916,27.3385987 L4.2662598,27.3385987 C3.91982422,27.3385987 3.63811037,27.6203125 3.63811037,27.966748 L3.63811037,29.6951661 C3.63811037,30.041333 3.91982422,30.3233154 4.2662598,30.3233154 L5.99440916,30.3233154 C6.34084474,30.3233154 6.62282713,30.041333 6.62282713,29.6951661 L6.62282713,27.966748 C6.62282713,27.6203125 6.34084474,27.3385987 5.99440916,27.3385987 Z M5.59104006,29.2915283 L4.66989744,29.2915283 L4.66989744,28.3703857 L5.59104006,28.3703857 L5.59104006,29.2915283 Z" id="Shape" fill-rule="nonzero"></path>
                <path d="M14.5049072,10.2432129 C14.5425049,10.5979737 14.8432861,10.8751221 15.2079834,10.8751221 L17.3263428,10.8751221 C17.6910401,10.8751221 17.9918213,10.5979737 18.029419,10.2432129 C18.9540527,9.82050781 19.6901612,9.08466797 20.1128662,8.16003416 C20.467627,8.12216797 20.7447754,7.82138672 20.7447754,7.45695803 L20.7447754,5.33833011 C20.7447754,4.97390135 20.467627,4.67285156 20.1128662,4.63525391 C19.6901612,3.7106201 18.9540527,2.97478026 18.029419,2.55207521 C17.9918213,2.19731449 17.6910401,1.91989744 17.3263428,1.91989744 L15.2079834,1.91989744 C14.8432862,1.91989744 14.5425049,2.19731449 14.5049072,2.55207521 C13.5802734,2.97478026 12.8441651,3.7106201 12.4214599,4.63525391 C12.0666992,4.67285156 11.7895508,4.97390135 11.7895508,5.33833011 L11.7895508,7.45695803 C11.7895508,7.82138672 12.0666992,8.12216797 12.4214599,8.16003416 C12.8441651,9.08439943 13.5802734,9.82050781 14.5049072,10.2432129 Z M13.5993408,8.1640625 L14.5008789,8.1640625 L14.5008789,9.06533203 C14.1423584,8.82846676 13.836206,8.52258303 13.5993408,8.1640625 Z M18.0334473,9.06533203 L18.0334473,8.1640625 L18.9349854,8.1640625 C18.6981201,8.52258303 18.3919678,8.82846676 18.0334473,9.06533203 Z M18.9349854,4.63122557 L18.0334473,4.63122557 L18.0334473,3.72995604 C18.3919678,3.9665527 18.6981201,4.27270511 18.9349854,4.63122557 Z M15.5323974,2.95168459 L17.0016602,2.95168459 L17.0016602,5.14711918 C17.0016602,5.43205568 17.2326172,5.66301271 17.5175537,5.66301271 L19.7129883,5.66301271 L19.7129883,7.13227543 L17.5175537,7.13227543 C17.2326172,7.13227543 17.0016602,7.36323239 17.0016602,7.64816896 L17.0016602,9.84360355 L15.5323974,9.84360355 L15.5323974,7.64816896 C15.5323974,7.36323239 15.3014404,7.13227543 15.0165039,7.13227543 L12.8213379,7.13227543 L12.8213379,5.66301271 L15.0165039,5.66301271 C15.3014404,5.66301271 15.5323974,5.43205568 15.5323974,5.14711918 L15.5323974,2.95168459 Z M14.5008789,3.72995604 L14.5008789,4.63122557 L13.5993408,4.63122557 C13.836206,4.27270511 14.1423584,3.9665527 14.5008789,3.72995604 Z" id="Shape" fill-rule="nonzero"></path>
                <path d="M15.4032227,16.0853516 L13.4094727,16.0853516 C13.1245362,16.0853516 12.8935791,16.3163086 12.8935791,16.6012451 L12.8935791,18.5952636 C12.8935791,18.8799317 13.1245362,19.1111572 13.4094727,19.1111572 L15.4032227,19.1111572 C15.6881592,19.1111572 15.9191162,18.8799317 15.9191162,18.5952636 L15.9191162,16.6012451 C15.9191162,16.3163086 15.6881592,16.0853516 15.4032227,16.0853516 Z M14.8873291,18.0793701 L13.9253662,18.0793701 L13.9253662,17.1171386 L14.8873291,17.1171386 L14.8873291,18.0793701 Z" id="Shape" fill-rule="nonzero"></path>
                <path d="M19.1248535,16.0853516 L17.1311035,16.0853516 C16.8458984,16.0853516 16.6152099,16.3163086 16.6152099,16.6012451 L16.6152099,18.5952636 C16.6152099,18.8799317 16.8458984,19.1111572 17.1311035,19.1111572 L19.1248535,19.1111572 C19.4097901,19.1111572 19.6407471,18.8799317 19.6407471,18.5952636 L19.6407471,16.6012451 C19.6407471,16.3163086 19.4097901,16.0853516 19.1248535,16.0853516 Z M18.6089599,18.0793701 L17.6469971,18.0793701 L17.6469971,17.1171386 L18.6089599,17.1171386 L18.6089599,18.0793701 Z" id="Shape" fill-rule="nonzero"></path>
                <path d="M15.4032227,19.9511963 L13.4094727,19.9511963 C13.1245362,19.9511963 12.8935791,20.1821533 12.8935791,20.4670898 L12.8935791,22.4611084 C12.8935791,22.7460449 13.1245362,22.977002 13.4094727,22.977002 L15.4032227,22.977002 C15.6881592,22.977002 15.9191162,22.7460449 15.9191162,22.4611084 L15.9191162,20.4670898 C15.9191162,20.1821533 15.6881592,19.9511963 15.4032227,19.9511963 Z M14.8873291,21.9452148 L13.9253662,21.9452148 L13.9253662,20.9829834 L14.8873291,20.9829834 L14.8873291,21.9452148 Z" id="Shape" fill-rule="nonzero"></path>
                <path d="M19.1248535,19.9511963 L17.1311035,19.9511963 C16.8458984,19.9511963 16.6152099,20.1821533 16.6152099,20.4670898 L16.6152099,22.4611084 C16.6152099,22.7460449 16.8458984,22.977002 17.1311035,22.977002 L19.1248535,22.977002 C19.4097901,22.977002 19.6407471,22.7460449 19.6407471,22.4611084 L19.6407471,20.4670898 C19.6407471,20.1821533 19.4097901,19.9511963 19.1248535,19.9511963 Z M18.6089599,21.9452148 L17.6469971,21.9452148 L17.6469971,20.9829834 L18.6089599,20.9829834 L18.6089599,21.9452148 Z" id="Shape" fill-rule="nonzero"></path>
                <path d="M15.4032227,23.8173096 L13.4094727,23.8173096 C13.1245362,23.8173096 12.8935791,24.0482666 12.8935791,24.3332031 L12.8935791,26.3269531 C12.8935791,26.6118896 13.1245362,26.8428467 13.4094727,26.8428467 L15.4032227,26.8428467 C15.6881592,26.8428467 15.9191162,26.6118896 15.9191162,26.3269531 L15.9191162,24.3332031 C15.9191162,24.0482666 15.6881592,23.8173096 15.4032227,23.8173096 Z M14.8873291,25.8110596 L13.9253662,25.8110596 L13.9253662,24.8490967 L14.8873291,24.8490967 L14.8873291,25.8110596 Z" id="Shape" fill-rule="nonzero"></path>
                <path d="M19.1248535,23.8173096 L17.1311035,23.8173096 C16.8458984,23.8173096 16.6152099,24.0482666 16.6152099,24.3332031 L16.6152099,26.3269531 C16.6152099,26.6118896 16.8458984,26.8428467 17.1311035,26.8428467 L19.1248535,26.8428467 C19.4097901,26.8428467 19.6407471,26.6118896 19.6407471,26.3269531 L19.6407471,24.3332031 C19.6407471,24.0482666 19.4097901,23.8173096 19.1248535,23.8173096 Z M18.6089599,25.8110596 L17.6469971,25.8110596 L17.6469971,24.8490967 L18.6089599,24.8490967 L18.6089599,25.8110596 Z" id="Shape" fill-rule="nonzero"></path>
                <path d="M17.3776367,31.9808349 C17.3776367,32.2625489 17.1490967,32.4910889 16.8673828,32.4910889 C16.585669,32.4910889 16.3573974,32.2625489 16.3573974,31.9808349 C16.3573974,31.6991211 16.585669,31.4708496 16.8673828,31.4708496 C17.1490967,31.4708496 17.3776367,31.6991211 17.3776367,31.9808349 Z" id="Path"></path>
            </g>
        </g>
    </g>
</svg>