<?xml version="1.0" encoding="UTF-8"?>
<svg width="7px" height="12px" viewBox="0 0 7 12" version="1.1" xmlns="http://www.w3.org/2000/svg" xmlns:xlink="http://www.w3.org/1999/xlink">
    <!-- Generator: sketchtool 52.1 (67048) - http://www.bohemiancoding.com/sketch -->
    <title>9495197F-2452-443B-9834-ACE18E08C19A</title>
    <desc>Created with sketchtool.</desc>
    <g id="Parte-1-+" stroke="none" stroke-width="1" fill="none" fill-rule="evenodd">
        <g id="Mod-Plani-17" transform="translate(-802.000000, -1349.000000)" fill="#DBE0E4">
            <g id="Pages" transform="translate(768.000000, 1339.000000)">
                <g id="Pages/arrow/grey">
                    <path d="M33.417444,12.5870433 L37.297444,16.4670433 L41.177444,12.5870433 C41.4293163,12.335171 41.7964281,12.2368037 42.1404919,12.3289954 C42.4845558,12.421187 42.7533003,12.6899315 42.845492,13.0339954 C42.9376836,13.3780592 42.8393163,13.745171 42.587444,13.9970433 L37.997444,18.5870433 C37.8105994,18.7742714 37.5569535,18.8794873 37.292444,18.8794873 C37.0279346,18.8794873 36.7742886,18.7742714 36.587444,18.5870433 L31.997444,13.9970433 C31.8102159,13.8101987 31.705,13.5565528 31.705,13.2920433 C31.705,13.0275338 31.8102159,12.7738879 31.997444,12.5870433 C32.387444,12.2070433 33.027444,12.1970433 33.417444,12.5870433 Z" transform="translate(37.292244, 15.587244) rotate(-270.000000) translate(-37.292244, -15.587244) "></path>
                </g>
            </g>
        </g>
    </g>
</svg>