<?xml version="1.0" encoding="UTF-8"?>
<svg width="26px" height="29px" viewBox="0 0 26 29" version="1.1" xmlns="http://www.w3.org/2000/svg" xmlns:xlink="http://www.w3.org/1999/xlink">
    <!-- Generator: sketchtool 52.1 (67048) - http://www.bohemiancoding.com/sketch -->
    <title>235A38F8-5BEF-4C2F-89EE-56A219E335C0</title>
    <desc>Created with sketchtool.</desc>
    <g id="*CRM" stroke="none" stroke-width="1" fill="none" fill-rule="evenodd">
        <g id="Demanda-Inducida-012" transform="translate(-154.000000, -687.000000)" fill="#3962E6">
            <g id="procedimientos_medicos" transform="translate(154.000000, 687.000000)">
                <path d="M13.6331603,8.65240506 L11.347519,4.69354852 C11.1960717,4.43124473 10.8606498,4.34128692 10.5981814,4.49278903 C10.3358228,4.64429114 10.2459198,4.97976793 10.3974219,5.24212658 L12.6830633,9.20098312 C12.7847046,9.37694937 12.9690084,9.47535443 13.1586878,9.47535443 C13.2517173,9.47535443 13.3460633,9.45160338 13.4324008,9.40174262 C13.6947595,9.25024051 13.7846624,8.91481857 13.6331603,8.65240506 Z" id="Path"></path>
                <path d="M14.5880295,10.3442152 C14.4860042,10.2422447 14.3449789,10.1834979 14.2002236,10.1834979 C14.055962,10.1834979 13.914443,10.2421899 13.8124177,10.3442152 C13.7104473,10.4462405 13.6517004,10.5872658 13.6517004,10.7320211 C13.6517553,10.8762278 13.7104473,11.0177468 13.8124177,11.119827 C13.914443,11.2217975 14.055962,11.2805443 14.2002236,11.2805443 C14.3450338,11.2805443 14.4860042,11.2218523 14.5880295,11.119827 C14.69,11.0178017 14.7487468,10.8762827 14.7487468,10.7320211 C14.7487468,10.5877595 14.6900549,10.4462405 14.5880295,10.3442152 Z" id="Path"></path>
                <path d="M25.9459156,21.4469283 L25.9459156,19.2527257 C25.9459156,18.9498312 25.7002869,18.7041477 25.3973376,18.7041477 L12.6708861,18.7041477 C12.3679916,18.7041477 12.122308,18.9497764 12.122308,19.2527257 L12.122308,21.4469283 C12.122308,21.7498228 12.3679367,21.9955063 12.6708861,21.9955063 L14.7948776,21.9955063 C13.7820844,22.4310886 12.686519,22.6567511 11.5540928,22.6567511 C7.02784388,22.6567511 3.34549789,18.9743502 3.34549789,14.4481013 C3.34549789,11.3698987 5.07394937,8.55948523 7.78749367,7.15488186 L11.6053249,13.7676034 C11.9098101,14.2950084 12.4640928,14.5901139 13.0332405,14.5901139 C13.1485401,14.5901139 13.2643882,14.5772785 13.3789198,14.5525401 L14.3946203,16.3118186 C14.5411308,16.5656203 14.7777089,16.7471814 15.0608565,16.8230422 C15.1554219,16.848384 15.2513038,16.8608903 15.3465823,16.8608903 C15.5367004,16.8608903 15.7242954,16.8110295 15.8934051,16.7134473 L17.5842827,15.7372405 C18.1081772,15.4346751 18.2882574,14.7624051 17.9857468,14.2385654 L16.9705401,12.4801646 C17.1449156,12.2885654 17.2724473,12.0570338 17.3414515,11.799557 C17.4552152,11.3749451 17.3968523,10.9314641 17.1770591,10.550789 L12.5563544,2.54739662 C12.336616,2.16677637 11.9816667,1.8944346 11.5571097,1.78061603 C11.4395063,1.74907595 11.3205316,1.73124895 11.2017764,1.72592827 L10.6395949,0.752299578 C10.4534262,0.429877637 10.1529451,0.199223629 9.79327848,0.102848101 C9.43377637,0.0066371308 9.05803797,0.0559493671 8.73572574,0.242118143 L6.89844726,1.30285232 C6.2328692,1.68714768 6.00402532,2.54119831 6.38826582,3.20672152 L6.8262616,3.96538397 C6.81304219,3.97021097 6.79976793,3.97514768 6.78671308,3.98107173 C4.92606751,4.82793671 3.3185654,6.16381013 2.13808861,7.84443038 C0.774734177,9.78532489 0.0540843882,12.0687722 0.0540843882,14.4480464 C0.0540843882,20.7891941 5.2128903,25.948 11.554038,25.948 C14.8993713,25.948 18.0459198,24.5104852 20.2292068,21.9954515 L21.9302321,21.9954515 C22.1662616,23.4928101 23.3514008,24.6789367 24.8487595,24.9148565 L24.8487595,27.0421392 L19.0341392,27.0421392 C18.7312447,27.0421392 18.4855612,27.2877679 18.4855612,27.5907173 C18.4855612,27.8936118 18.7311899,28.1392954 19.0341392,28.1392954 L25.3973924,28.1392954 C25.7002869,28.1392954 25.9459705,27.8936667 25.9459705,27.5907173 L25.9459705,24.4091181 C25.9459705,24.1062236 25.7003418,23.8605401 25.3973924,23.8605401 C24.2552574,23.8605401 23.2965485,23.0628228 23.0474093,21.9954515 L25.3973924,21.9954515 C25.7002321,21.9954515 25.9459156,21.7498776 25.9459156,21.4469283 Z M17.0355949,14.7870886 L15.3447722,15.7632954 L14.3685654,14.0724726 L16.0593882,13.0962658 L17.0355949,14.7870886 Z M10.8569747,2.89510549 C10.9414473,2.84628692 11.0352447,2.82138397 11.1302489,2.82138397 C11.1778608,2.82138397 11.2258565,2.82763713 11.2730844,2.84030802 C11.4146034,2.87826582 11.5329198,2.96904641 11.6061477,3.09591983 L16.2268523,11.0992574 C16.300135,11.2261308 16.3195527,11.373903 16.2816498,11.5154219 C16.2437468,11.6569409 16.1529662,11.7752025 16.0260928,11.8484852 L13.3047046,13.41973 C13.1778312,13.4930127 13.0299494,13.5124852 12.8884304,13.4745274 C12.7469114,13.4366793 12.6286498,13.3458439 12.5553671,13.2189705 L8.48285654,6.16518143 C8.48285654,6.16512658 8.48280169,6.16507173 8.48280169,6.16501688 L8.24956962,5.76102954 L7.9347173,5.21563291 C7.78348945,4.95371308 7.87355696,4.61752321 8.13547679,4.46629536 L8.19532068,4.4317384 L10.8569747,2.89510549 Z M7.44702532,2.25305907 L9.2843038,1.19232489 C9.33005063,1.16594093 9.38073418,1.15244726 9.4321308,1.15244726 C9.45791139,1.15244726 9.48380169,1.1558481 9.50936287,1.16270464 C9.58588186,1.18316456 9.64983966,1.23231224 9.68944304,1.30093249 L10.1230506,2.05202532 L8.94751055,2.73065823 L7.77197046,3.40934599 L7.33836287,2.65825316 C7.25657806,2.51662447 7.30534177,2.33484388 7.44702532,2.25305907 Z M11.554038,24.8508987 C5.81791139,24.8508987 1.15118565,20.1842278 1.15118565,14.4480464 C1.15118565,12.2957511 1.80294093,10.2302869 3.03580169,8.47506751 C3.98535021,7.12339662 5.23960338,6.01823207 6.68841772,5.25145148 L7.23776371,6.20286498 C5.83672574,6.93887342 4.64489451,8.02429114 3.76709283,9.36976371 C2.77349789,10.8927932 2.24823207,12.6487257 2.24823207,14.4479916 C2.24823207,19.5791519 6.42276793,23.7537426 11.5539831,23.7537426 C13.5322321,23.7537426 15.4116371,23.1464177 17.0018608,21.9953966 L18.7147342,21.9953966 C16.7944641,23.8230211 14.2453671,24.8508987 11.554038,24.8508987 Z M24.8487595,20.8983502 L13.2194093,20.8983502 L13.2194093,19.8012489 L24.8487595,19.8012489 L24.8487595,20.8983502 Z" id="Shape" fill-rule="nonzero"></path>
                <path d="M16.922654,27.2029114 C16.8206287,27.1008861 16.6797131,27.0421941 16.5348481,27.0421941 C16.3905865,27.0421941 16.2490675,27.1008312 16.147097,27.2029114 C16.0450717,27.3049367 15.9863249,27.4464557 15.9863249,27.5907173 C15.9863249,27.7349789 16.0450169,27.8764979 16.147097,27.9784684 C16.2496709,28.0804937 16.3905865,28.1392405 16.5348481,28.1392405 C16.6791097,28.1392405 16.8206287,28.0805485 16.922654,27.9784684 C17.0252278,27.8764979 17.0833713,27.7349789 17.0833713,27.5907173 C17.0833713,27.4464557 17.0252278,27.3049367 16.922654,27.2029114 Z" id="Path"></path>
                <path d="M13.8228397,27.0421392 L4.00372574,27.0421392 L4.00372574,24.7170591 C4.00372574,24.4141646 3.75809705,24.168481 3.45514768,24.168481 C3.15225316,24.168481 2.90656962,24.4141097 2.90656962,24.7170591 L2.90656962,27.5907173 C2.90656962,27.8936118 3.15219831,28.1392954 3.45514768,28.1392954 L13.8228397,28.1392954 C14.1257342,28.1392954 14.3714177,27.8936667 14.3714177,27.5907173 C14.3714177,27.2878228 14.1257342,27.0421392 13.8228397,27.0421392 Z" id="Path"></path>
            </g>
        </g>
    </g>
</svg>