<?xml version="1.0" encoding="UTF-8"?>
<svg width="30px" height="29px" viewBox="0 0 30 29" version="1.1" xmlns="http://www.w3.org/2000/svg" xmlns:xlink="http://www.w3.org/1999/xlink">
    <!-- Generator: sketchtool 52.1 (67048) - http://www.bohemiancoding.com/sketch -->
    <title>5E4B23FC-4239-471A-85B7-71271AFA1E2A</title>
    <desc>Created with sketchtool.</desc>
    <g id="Parte-1-+" stroke="none" stroke-width="1" fill="none" fill-rule="evenodd">
        <g id="Profesionales-014" transform="translate(-945.000000, -363.000000)">
            <g id="ps-warning" transform="translate(945.000000, 361.000000)">
                <g id="Icon" transform="translate(0.000000, 2.384220)" fill="#FF5964" fill-rule="nonzero">
                    <path d="M0.778301887,25.8906176 C1.6745283,27.0478733 2.9245283,27.6265012 4.52830189,27.6265012 L24.9056604,27.6265012 C26.4150943,27.6265012 27.6650943,27.0478733 28.6556604,25.8906176 C29.6462264,24.5190552 29.7641509,23.0832008 29.009434,21.5830545 L23.7028302,11.1677527 L18.6792453,2.68121055 C17.9245283,1.22392553 16.6273585,0.495283019 14.7877358,0.495283019 C12.9009434,0.495283019 11.6037736,1.22392553 10.8962264,2.68121055 L5.87264151,11.1677527 L0.424528302,21.4544705 C-0.188679245,23.1260622 -0.070754717,24.6047778 0.778301887,25.8906176 Z M3.3254717,22.6641836 L8.63207547,12.6306372 L13.5849057,4.29025183 C13.8679245,3.78857451 14.3160377,3.53773585 14.9292453,3.53773585 C15.5424528,3.53773585 15.990566,3.78857451 16.2735849,4.29025183 L21.1556604,12.6306372 L26.5330189,22.7896029 C26.9575472,23.3748931 26.9103774,23.8556672 26.3915094,24.2319252 C25.9669811,24.6081832 25.5660377,24.7963122 25.1886792,24.7963122 L4.52830189,24.7963122 C4.1509434,24.7963122 3.75,24.6081832 3.3254717,24.2319252 C3.04245283,23.5630221 3.04245283,23.0404416 3.3254717,22.6641836 Z M14.7877358,17.9931389 C15.7783019,17.9931389 16.2735849,17.4978559 16.2735849,16.5072899 L16.2735849,10.4223842 C16.2735849,9.43181818 15.7783019,8.93653516 14.7877358,8.93653516 C13.7971698,8.93653516 13.3018868,9.43181818 13.3018868,10.4223842 L13.3018868,16.5072899 C13.3018868,17.4978559 13.7971698,17.9931389 14.7877358,17.9931389 Z M16.2735849,21.0355918 C16.2735849,21.4129503 16.1320755,21.7549314 15.8490566,22.0615352 C15.5660377,22.3681389 15.2122642,22.5214408 14.7877358,22.5214408 C14.3632075,22.5214408 14.009434,22.3681389 13.7264151,22.0615352 C13.4433962,21.7549314 13.3018868,21.4129503 13.3018868,21.0355918 C13.3018868,20.6110635 13.4433962,20.2454974 13.7264151,19.9388937 C14.009434,19.6322899 14.3632075,19.478988 14.7877358,19.478988 C15.2122642,19.478988 15.5660377,19.6322899 15.8490566,19.9388937 C16.1320755,20.2454974 16.2735849,20.6110635 16.2735849,21.0355918 Z" id="Icon-Shape"></path>
                </g>
                <rect id="ViewBox" x="0.070754717" y="0" width="29.4339623" height="36.2264151"></rect>
            </g>
        </g>
    </g>
</svg>