<?xml version="1.0" encoding="UTF-8"?>
<svg width="30px" height="30px" viewBox="0 0 30 30" version="1.1" xmlns="http://www.w3.org/2000/svg" xmlns:xlink="http://www.w3.org/1999/xlink">
    <!-- Generator: sketchtool 52.1 (67048) - http://www.bohemiancoding.com/sketch -->
    <title>A6BE4717-3E85-4397-9752-D4CA861E2244</title>
    <desc>Created with sketchtool.</desc>
    <g id="*CRM" stroke="none" stroke-width="1" fill="none" fill-rule="evenodd">
        <g id="Demanda-Inducida-006" transform="translate(-1109.000000, -341.000000)" fill="#2FCC71">
            <g id="Quejas" transform="translate(1109.000000, 341.000000)">
                <path d="M7.03125,0 C3.15421875,0 0,3.15421875 0,7.03125 C0,10.9082812 3.15421875,14.0625 7.03125,14.0625 C10.9082812,14.0625 14.0625,10.9082812 14.0625,7.03125 C14.0625,3.15421875 10.9082812,0 7.03125,0 Z M7.03125,12.3046875 C4.12347656,12.3046875 1.7578125,9.93902344 1.7578125,7.03125 C1.7578125,4.12347656 4.12347656,1.7578125 7.03125,1.7578125 C9.93902344,1.7578125 12.3046875,4.12347656 12.3046875,7.03125 C12.3046875,9.93902344 9.93902344,12.3046875 7.03125,12.3046875 Z" id="Shape" fill-rule="nonzero"></path>
                <path d="M9.51714844,8.27419922 C9.17390625,7.93095703 8.61738281,7.93095703 8.27419922,8.27419922 C7.94296875,8.60542969 7.50152344,8.78783203 7.03125,8.78783203 C6.56097656,8.78783203 6.11953125,8.60542969 5.78830078,8.27419922 C5.44517578,7.93095703 4.88865234,7.93101562 4.54535156,8.27419922 C4.20210938,8.61744141 4.20210938,9.17390625 4.54535156,9.51714844 C5.20851563,10.1803711 6.09140625,10.5456445 7.03125,10.5456445 C7.97109375,10.5456445 8.85392578,10.1803711 9.51714844,9.51714844 C9.86039062,9.17390625 9.86039062,8.61744141 9.51714844,8.27419922 Z" id="Path"></path>
                <path d="M7.03125,15.9375 C3.15421875,15.9375 0,19.0917187 0,22.96875 C0,26.8457813 3.15421875,30 7.03125,30 C10.9082812,30 14.0625,26.8457813 14.0625,22.96875 C14.0625,19.0917187 10.9082812,15.9375 7.03125,15.9375 Z M7.03125,28.2421875 C4.12347656,28.2421875 1.7578125,25.8765234 1.7578125,22.96875 C1.7578125,20.0609766 4.12347656,17.6953125 7.03125,17.6953125 C9.93902344,17.6953125 12.3046875,20.0609766 12.3046875,22.96875 C12.3046875,25.8765234 9.93902344,28.2421875 7.03125,28.2421875 Z" id="Shape" fill-rule="nonzero"></path>
                <circle id="Oval" cx="4.39453125" cy="6.15234375" r="1"></circle>
                <circle id="Oval" cx="9.66796875" cy="6.15234375" r="1"></circle>
                <path d="M9.51714844,24.982793 C8.85392578,24.3195703 7.97109375,23.9542969 7.03125,23.9542969 C6.09140625,23.9542969 5.20857422,24.3195703 4.54535156,24.982793 C4.20210938,25.3260352 4.20210938,25.8825 4.54535156,26.2257422 C4.88853516,26.5689258 5.44505859,26.5689844 5.78830078,26.2257422 C6.11953125,25.8945117 6.56097656,25.7121094 7.03125,25.7121094 C7.50152344,25.7121094 7.94296875,25.8945117 8.27419922,26.2257422 C8.61738281,26.5689844 9.17384766,26.5689844 9.51714844,26.2257422 C9.86039062,25.8825 9.86039062,25.3260352 9.51714844,24.982793 Z" id="Path"></path>
                <circle id="Oval" cx="4.39453125" cy="22.0898438" r="1"></circle>
                <circle id="Oval" cx="9.66796875" cy="22.0898438" r="1"></circle>
                <path d="M29.1210938,0 L16.8164062,0 C16.3310156,0 15.9375,0.393515625 15.9375,0.87890625 L15.9375,13.1835938 C15.9375,13.6689844 16.3310156,14.0625 16.8164062,14.0625 L29.1210938,14.0625 C29.6064844,14.0625 30,13.6689844 30,13.1835938 L30,0.87890625 C30,0.393515625 29.6064844,0 29.1210938,0 Z M28.2421875,12.3046875 L17.6953125,12.3046875 L17.6953125,1.7578125 L28.2421875,1.7578125 L28.2421875,12.3046875 Z" id="Shape" fill-rule="nonzero"></path>
                <path d="M29.1210938,15.9375 L16.8164062,15.9375 C16.3310156,15.9375 15.9375,16.3310156 15.9375,16.8164062 L15.9375,29.1210938 C15.9375,29.6064844 16.3310156,30 16.8164062,30 L29.1210938,30 C29.6064844,30 30,29.6064844 30,29.1210938 L30,16.8164062 C30,16.3310156 29.6064844,15.9375 29.1210938,15.9375 Z M28.2421875,28.2421875 L17.6953125,28.2421875 L17.6953125,17.6953125 L28.2421875,17.6953125 L28.2421875,28.2421875 Z" id="Shape" fill-rule="nonzero"></path>
                <path d="M25.773877,4.25743164 C25.4306934,3.91418945 24.8741699,3.91418945 24.5309277,4.25743164 L21.636748,7.15161133 L20.5003809,6.01530273 C20.1571973,5.67206055 19.6006738,5.67206055 19.2574316,6.01530273 C18.9141895,6.35854492 18.9141895,6.91500977 19.2574316,7.25825195 L21.0153027,9.01600586 C21.3584863,9.35924805 21.9150684,9.35924805 22.258252,9.01600586 L25.773877,5.50038086 C26.1171191,5.15713867 26.1171191,4.60067383 25.773877,4.25743164 Z" id="Path"></path>
            </g>
        </g>
    </g>
</svg>