<?xml version="1.0" encoding="UTF-8"?>
<svg width="13px" height="13px" viewBox="0 0 13 13" version="1.1" xmlns="http://www.w3.org/2000/svg" xmlns:xlink="http://www.w3.org/1999/xlink">
    <!-- Generator: sketchtool 52.1 (67048) - http://www.bohemiancoding.com/sketch -->
    <title>74ED8C15-F7CC-4F98-9E06-5E692C270E38</title>
    <desc>Created with sketchtool.</desc>
    <g id="*Ajustes" stroke="none" stroke-width="1" fill="none" fill-rule="evenodd">
        <g id="Ajustes-077" transform="translate(-823.000000, -542.000000)" fill="#F83F4B">
            <g id="re-agendar" transform="translate(823.000000, 542.000000)">
                <path d="M3.24910251,0 C2.99274686,0 2.78493724,0.207809623 2.78493724,0.464165272 L2.78493724,1.39246862 L3.71324059,1.39246862 L3.71324059,0.464165272 C3.71324059,0.207809623 3.50543096,0 3.24910251,0 Z" id="Path"></path>
                <path d="M9.74728033,0 C9.49092469,0 9.28311506,0.207809623 9.28311506,0.464165272 L9.28311506,1.39246862 L10.2114184,1.39246862 L10.2114184,0.464165272 C10.2114456,0.207809623 10.003636,0 9.74728033,0 Z" id="Path"></path>
                <path d="M11.6039142,1.39246862 L10.2114456,1.39246862 L10.2114456,3.24910251 C10.2114456,3.50545816 10.003636,3.71326778 9.74728033,3.71326778 C9.49092469,3.71326778 9.28311506,3.50545816 9.28311506,3.24910251 L9.28311506,1.39246862 L3.71324059,1.39246862 L3.71324059,3.24910251 C3.71324059,3.50545816 3.50543096,3.71326778 3.24907531,3.71326778 C2.99271967,3.71326778 2.78491004,3.50545816 2.78491004,3.24910251 L2.78491004,1.39246862 L1.39246862,1.39246862 C0.62342887,1.39246862 0,2.01589749 0,2.78493724 L0,11.6039142 C0,12.372954 0.62342887,12.9963828 1.39246862,12.9963828 L11.6039142,12.9963828 C12.372954,12.9963828 12.9963828,12.372954 12.9963828,11.6039142 L12.9963828,2.78493724 C12.9963828,2.01589749 12.372954,1.39246862 11.6039142,1.39246862 Z M12.0680523,11.6039142 C12.0680523,11.8602699 11.8602427,12.0680795 11.603887,12.0680795 L1.39246862,12.0680795 C1.13611297,12.0680795 0.928303347,11.8602699 0.928303347,11.6039142 L0.928303347,5.56987448 L12.0680523,5.56987448 L12.0680523,11.6039142 Z" id="Shape" fill-rule="nonzero"></path>
                <path d="M3.71324059,6.49817782 L2.78493724,6.49817782 C2.52858159,6.49817782 2.32077197,6.70598745 2.32077197,6.9623431 C2.32077197,7.21869874 2.52858159,7.42650837 2.78493724,7.42650837 L3.71324059,7.42650837 C3.96959623,7.42650837 4.17740586,7.21869874 4.17740586,6.9623431 C4.17740586,6.70598745 3.96959623,6.49817782 3.71324059,6.49817782 Z" id="Path"></path>
                <path d="M6.9623431,6.49817782 L6.03403975,6.49817782 C5.7776841,6.49817782 5.56987448,6.70598745 5.56987448,6.9623431 C5.56987448,7.21869874 5.7776841,7.42650837 6.03403975,7.42650837 L6.9623431,7.42650837 C7.21869874,7.42650837 7.42650837,7.21869874 7.42650837,6.9623431 C7.42650837,6.70598745 7.21869874,6.49817782 6.9623431,6.49817782 Z" id="Path"></path>
                <path d="M10.2114456,6.49817782 L9.28314226,6.49817782 C9.02678661,6.49817782 8.81897699,6.70598745 8.81897699,6.9623431 C8.81897699,7.21869874 9.02678661,7.42650837 9.28314226,7.42650837 L10.2114456,7.42650837 C10.4678013,7.42650837 10.6756109,7.21869874 10.6756109,6.9623431 C10.6756109,6.70598745 10.4677741,6.49817782 10.2114456,6.49817782 Z" id="Path"></path>
                <path d="M3.71324059,8.35481172 L2.78493724,8.35481172 C2.52858159,8.35481172 2.32077197,8.56262134 2.32077197,8.81897699 C2.32077197,9.07533264 2.52858159,9.28314226 2.78493724,9.28314226 L3.71324059,9.28314226 C3.96959623,9.28314226 4.17740586,9.07533264 4.17740586,8.81897699 C4.17740586,8.56262134 3.96959623,8.35481172 3.71324059,8.35481172 Z" id="Path"></path>
                <path d="M6.9623431,8.35481172 L6.03403975,8.35481172 C5.7776841,8.35481172 5.56987448,8.56262134 5.56987448,8.81897699 C5.56987448,9.07533264 5.7776841,9.28314226 6.03403975,9.28314226 L6.9623431,9.28314226 C7.21869874,9.28314226 7.42650837,9.07533264 7.42650837,8.81897699 C7.42650837,8.56262134 7.21869874,8.35481172 6.9623431,8.35481172 Z" id="Path"></path>
                <path d="M10.2114456,8.35481172 L9.28314226,8.35481172 C9.02678661,8.35481172 8.81897699,8.56262134 8.81897699,8.81897699 C8.81897699,9.07533264 9.02678661,9.28314226 9.28314226,9.28314226 L10.2114456,9.28314226 C10.4678013,9.28314226 10.6756109,9.07533264 10.6756109,8.81897699 C10.6755837,8.56262134 10.4677741,8.35481172 10.2114456,8.35481172 Z" id="Path"></path>
                <path d="M3.71324059,10.2114456 L2.78493724,10.2114456 C2.52858159,10.2114456 2.32077197,10.4192552 2.32077197,10.6756109 C2.32077197,10.9319665 2.52858159,11.139749 2.78493724,11.139749 L3.71324059,11.139749 C3.96959623,11.139749 4.17740586,10.9319393 4.17740586,10.6755837 C4.17740586,10.419228 3.96959623,10.2114456 3.71324059,10.2114456 Z" id="Path"></path>
                <path d="M6.9623431,10.2114456 L6.03403975,10.2114456 C5.7776841,10.2114456 5.56987448,10.4192552 5.56987448,10.6756109 C5.56987448,10.9319665 5.7776841,11.1397762 6.03403975,11.1397762 L6.9623431,11.1397762 C7.21869874,11.1397762 7.42650837,10.9319665 7.42650837,10.6756109 C7.42650837,10.4192552 7.21869874,10.2114456 6.9623431,10.2114456 Z" id="Path"></path>
                <path d="M10.2114456,10.2114456 L9.28314226,10.2114456 C9.02678661,10.2114456 8.81897699,10.4192552 8.81897699,10.6756109 C8.81897699,10.9319665 9.02678661,11.1397762 9.28314226,11.1397762 L10.2114456,11.1397762 C10.4678013,11.1397762 10.6756109,10.9319665 10.6756109,10.6756109 C10.6756109,10.4192552 10.4677741,10.2114456 10.2114456,10.2114456 Z" id="Path"></path>
            </g>
        </g>
    </g>
</svg>