<?xml version="1.0" encoding="UTF-8"?>
<svg width="20px" height="20px" viewBox="0 0 20 20" version="1.1" xmlns="http://www.w3.org/2000/svg" xmlns:xlink="http://www.w3.org/1999/xlink">
    <!-- Generator: Sketch 52.1 (67048) - http://www.bohemiancoding.com/sketch -->
    <title>reagendar-icon</title>
    <desc>Created with Sketch.</desc>
    <g id="Agenda-1" stroke="none" stroke-width="1" fill="none" fill-rule="evenodd">
        <g id="agenda-0017" transform="translate(-1514.000000, -851.000000)" fill="#171D49" fill-rule="nonzero">
            <g id="Citas-Pre-reservadas-Copy" transform="translate(459.000000, 747.000000)">
                <g id="reagendar-icon" transform="translate(1055.000000, 104.000000)">
                    <g id="Icon">
                        <path d="M12.9761905,9.00793651 L10.9920635,9.00793651 L10.9920635,5.03968254 C10.9920635,4.491781 10.5479015,4.04761905 10,4.04761905 C9.45209846,4.04761905 9.00793651,4.491781 9.00793651,5.03968254 L9.00793651,10 C9.00793651,10.5479015 9.45209846,10.9920635 10,10.9920635 L12.9761905,10.9920635 C13.524092,10.9920635 13.968254,10.5479015 13.968254,10 C13.968254,9.45209846 13.524092,9.00793651 12.9761905,9.00793651 Z M10,0.0793650794 C4.52098462,0.0793650794 0.0793650794,4.52098462 0.0793650794,10 C0.0793650794,15.4790154 4.52098462,19.9206349 10,19.9206349 C15.4790154,19.9206349 19.9206349,15.4790154 19.9206349,10 C19.9146207,4.52347775 15.4765223,0.0853793358 10,0.0793650794 Z M10,17.9365079 C5.6167877,17.9365079 2.06349206,14.3832123 2.06349206,10 C2.06349206,5.6167877 5.6167877,2.06349206 10,2.06349206 C14.3832123,2.06349206 17.9365079,5.6167877 17.9365079,10 C17.931042,14.3809462 14.3809462,17.931042 10,17.9365079 Z" id="Icon-Shape"></path>
                    </g>
                </g>
            </g>
        </g>
    </g>
</svg>