<?xml version="1.0" encoding="UTF-8"?>
<svg width="27px" height="24px" viewBox="0 0 27 24" version="1.1" xmlns="http://www.w3.org/2000/svg" xmlns:xlink="http://www.w3.org/1999/xlink">
    <!-- Generator: sketchtool 52.1 (67048) - http://www.bohemiancoding.com/sketch -->
    <title>20A6A897-AF52-4B04-8E33-A9C84A656EBC</title>
    <desc>Created with sketchtool.</desc>
    <g id="*Ajustes" stroke="none" stroke-width="1" fill="none" fill-rule="evenodd">
        <g id="Ajustes-024" transform="translate(-1428.000000, -588.000000)">
            <g id="Videoconsulta-url" transform="translate(1428.000000, 588.000000)">
                <rect id="Rectangle" stroke="#3962E6" x="0.5" y="0.5" width="26" height="23" rx="3"></rect>
                <path d="M11.2935527,7.2797832 C9.29133789,9.35135938 9.72825781,12.7892109 12.0217637,14.3121387 C12.097334,14.3623418 12.197873,14.3523809 12.2627852,14.2889629 C12.745625,13.8171797 13.1540898,13.3602051 13.5117539,12.7790176 C13.5664727,12.6900996 13.5324395,12.5747188 13.4406328,12.5249805 C13.0908047,12.335457 12.7427031,11.980084 12.5467383,11.6046895 L12.5465059,11.6048223 C12.3117598,11.1373887 12.2318398,10.6134102 12.3561191,10.0722656 C12.356252,10.0722988 12.3563848,10.072332 12.3565176,10.072332 C12.4995234,9.37951563 13.2433066,8.73504297 13.8113789,8.13901367 C13.8101836,8.13861523 13.8090215,8.13818359 13.8078262,8.13778516 L15.9362461,5.9654375 C16.7844531,5.09973242 18.1796484,5.09259375 19.0366543,5.94959961 C19.9023262,6.79777344 19.9166367,8.20000781 19.0684629,9.06567969 L17.779252,10.3914141 C17.7195859,10.4527734 17.7002285,10.5422891 17.7281523,10.6232051 C18.0249883,11.4839961 18.098002,12.6977363 17.899082,13.6147402 C17.8935039,13.6404063 17.9251797,13.657207 17.943541,13.6384473 L20.6873809,10.8379629 C22.440207,9.04897852 22.425332,6.13626758 20.6543437,4.3652793 C18.846998,2.55793359 15.9047031,2.57297461 14.115918,4.39864844 L11.304543,7.2680293 C11.3008242,7.27194727 11.2973047,7.27593164 11.2935527,7.2797832 Z" id="Path" fill="#3962E6"></path>
                <path d="M16.4231367,14.706625 C16.4231035,14.7067246 16.4230371,14.7068242 16.4230039,14.7069238 C16.4247637,14.7061934 16.4263906,14.7054961 16.4281504,14.7047324 C16.9881211,13.6807812 17.0983555,12.5064199 16.835918,11.3616094 L16.8347227,11.3628379 L16.8334277,11.3622734 C16.5842383,10.3426387 15.9004863,9.33014258 14.9718613,8.70675391 C14.8919746,8.65313086 14.764375,8.65933984 14.6895684,8.71983594 C14.2191797,9.10017773 13.758752,9.58789844 13.4549434,10.210291 C13.4072305,10.3080078 13.442957,10.4253809 13.5369883,10.4799668 C13.8895723,10.6846641 14.2079902,10.9843555 14.4211875,11.3822285 L14.4215195,11.3819961 C14.587668,11.6630605 14.7513926,12.1963691 14.6453418,12.7693887 C14.6452754,12.7693887 14.6451758,12.7693887 14.6451094,12.7693887 C14.5461641,13.5291094 13.7789727,14.2259766 13.1690977,14.8539141 L13.1693965,14.8542129 C12.7051504,15.3289512 11.5250117,16.5320332 11.0524648,17.0148066 C10.204291,17.8804785 8.80205664,17.8947891 7.93638477,17.0466152 C7.07071289,16.1984414 7.05640234,14.796207 7.90457617,13.9305352 L9.19760547,12.6008164 C9.25620898,12.5405527 9.27613086,12.4529629 9.25006641,12.373043 C8.96295898,11.4921309 8.88430078,10.30575 9.06552344,9.38977539 C9.07057031,9.36424219 9.03916016,9.34793945 9.02093164,9.3665332 L6.31836328,12.1248828 C4.54757422,13.9322285 4.56258203,16.8748223 6.35176562,18.6639727 C8.15901172,20.4346953 11.0864316,20.4047793 12.8571543,18.5975332 C13.4723086,17.9094316 16.105582,15.4713594 16.4231367,14.706625 Z" id="Path" fill="#3962E6"></path>
            </g>
        </g>
    </g>
</svg>