<?xml version="1.0" encoding="UTF-8"?>
<svg width="24px" height="22px" viewBox="0 0 24 22" version="1.1" xmlns="http://www.w3.org/2000/svg" xmlns:xlink="http://www.w3.org/1999/xlink">
    <!-- Generator: sketchtool 52.1 (67048) - http://www.bohemiancoding.com/sketch -->
    <title>6D9EEF25-FC0F-4ACD-A840-1A9B0DD12F82</title>
    <desc>Created with sketchtool.</desc>
    <g id="Agenda-8---Prop-3" stroke="none" stroke-width="1" fill="none" fill-rule="evenodd">
        <g id="agenda-0017" transform="translate(-1585.000000, -898.000000)" fill="#2FCC71">
            <g id="Reenviar-icon" transform="translate(1585.000000, 898.000000)">
                <g id="Enviar-icon" transform="translate(0.000000, 5.000000)" fill-rule="nonzero">
                    <path d="M19.4118487,6.6011757 C18.872402,6.6011757 18.435094,7.03876742 18.435094,7.57856416 L18.435094,13.4428949 C18.435094,13.9826916 17.997786,14.4202833 17.4583393,14.4202833 L3.78377352,14.4202833 C3.24432679,14.4202833 2.80701882,13.9826916 2.80701882,13.4428949 L2.80701882,4.0697396 L8.55033645,9.8265576 C9.69438011,10.9699198 11.5477327,10.9699198 12.6917764,9.8265576 L15.1043605,7.41240812 C15.4873676,7.02915243 15.4873676,6.40777222 15.1043605,6.02451654 C14.7213533,5.64126087 14.100376,5.64126086 13.7173688,6.02451651 L11.3047847,8.438666 C10.92498,8.81119065 10.3171329,8.81119065 9.93732813,8.438666 L4.18424294,2.69162188 L11.5978111,2.69162188 C12.1372578,2.69162188 12.5745658,2.25403017 12.5745658,1.71423343 C12.5745658,1.17443669 12.1372578,0.736844973 11.5978111,0.736844973 L3.78377352,0.736844973 C2.16543334,0.736844973 0.853509416,2.04962012 0.853509416,3.66901034 L0.853509416,13.4428949 C0.853509416,15.0622851 2.16543334,16.3750603 3.78377352,16.3750603 L17.4583393,16.3750603 C19.0766795,16.3750603 20.3886034,15.0622851 20.3886034,13.4428949 L20.3886034,7.57856416 C20.3886034,7.03876742 19.9512954,6.6011757 19.4118487,6.6011757 Z" id="Icon-Shape"></path>
                </g>
                <g id="Group-8" transform="translate(11.000000, 0.500000)">
                    <path d="M6.73454545,9.15545455 L5.40909091,9.15545455 C5.03272727,9.15545455 4.72727273,8.85 4.72727273,8.47363636 C4.72727273,8.09727273 5.03272727,7.79181818 5.40909091,7.79181818 L6.73454545,7.79181818 C6.86,7.79181818 7,7.63909091 7,7.41818182 C7,7.19727273 6.86,7.04454545 6.73454545,7.04454545 L6.35545455,7.04454545 C5.45727273,7.04454545 4.72636364,6.26545455 4.72636364,5.30727273 C4.72636364,4.34909091 5.45727273,3.57 6.35545455,3.57 L7.68090909,3.57 C8.05727273,3.57 8.36272727,3.87545455 8.36272727,4.25181818 C8.36272727,4.62818182 8.05727273,4.93363636 7.68090909,4.93363636 L6.35545455,4.93363636 C6.23,4.93363636 6.09,5.08636364 6.09,5.30727273 C6.09,5.52818182 6.23,5.68090909 6.35545455,5.68090909 L6.73454545,5.68090909 C7.63272727,5.68090909 8.36363636,6.46 8.36363636,7.41818182 C8.36363636,8.37636364 7.63272727,9.15545455 6.73454545,9.15545455 Z" id="Path"></path>
                    <path d="M6.54545455,4.72363636 C6.16909091,4.72363636 5.86363636,4.41818182 5.86363636,4.04181818 L5.86363636,3.40909091 C5.86363636,3.03272727 6.16909091,2.72727273 6.54545455,2.72727273 C6.92181818,2.72727273 7.22727273,3.03272727 7.22727273,3.40909091 L7.22727273,4.04181818 C7.22727273,4.41818182 6.92181818,4.72363636 6.54545455,4.72363636 Z" id="Path"></path>
                    <path d="M6.54545455,10 C6.16909091,10 5.86363636,9.69454545 5.86363636,9.31818182 L5.86363636,8.68545455 C5.86363636,8.30909091 6.16909091,8.00363636 6.54545455,8.00363636 C6.92181818,8.00363636 7.22727273,8.30909091 7.22727273,8.68545455 L7.22727273,9.31818182 C7.22727273,9.69454545 6.92181818,10 6.54545455,10 Z" id="Path"></path>
                    <path d="M6.54545455,12.2727273 C3.28727273,12.2727273 0.636363636,9.62181818 0.636363636,6.36363636 C0.636363636,3.10545455 3.28727273,0.454545455 6.54545455,0.454545455 C9.80363636,0.454545455 12.4545455,3.10545455 12.4545455,6.36363636 C12.4545455,9.62181818 9.80363636,12.2727273 6.54545455,12.2727273 Z M6.54545455,1.81818182 C4.03909091,1.81818182 2,3.85727273 2,6.36363636 C2,8.87 4.03909091,10.9090909 6.54545455,10.9090909 C9.05181818,10.9090909 11.0909091,8.87 11.0909091,6.36363636 C11.0909091,3.85727273 9.05181818,1.81818182 6.54545455,1.81818182 Z" id="Shape" fill-rule="nonzero"></path>
                </g>
            </g>
        </g>
    </g>
</svg>