<?xml version="1.0" encoding="UTF-8"?>
<svg width="23px" height="26px" viewBox="0 0 23 26" version="1.1" xmlns="http://www.w3.org/2000/svg" xmlns:xlink="http://www.w3.org/1999/xlink">
    <!-- Generator: sketchtool 52.1 (67048) - http://www.bohemiancoding.com/sketch -->
    <title>9C006245-4812-4114-9A10-51A3ED33560D</title>
    <desc>Created with sketchtool.</desc>
    <g id="*Ajustes" stroke="none" stroke-width="1" fill="none" fill-rule="evenodd">
        <g id="Ajustes-024" transform="translate(-1486.000000, -586.000000)" fill="#2FCC71">
            <g id="Videoconsulta-orden" transform="translate(1486.000000, 586.000000)">
                <path d="M15.4694083,18.2791245 L5.3116441,18.2791245 C5.03428821,18.2791245 4.8094607,18.503952 4.8094607,18.7813079 C4.8094607,19.0586638 5.03428821,19.2834913 5.3116441,19.2834913 L15.4694083,19.2834913 C15.7467642,19.2834913 15.9715917,19.0586638 15.9715917,18.7813079 C15.9715917,18.503952 15.7468144,18.2791245 15.4694083,18.2791245 Z" id="Path"></path>
                <path d="M3.77154803,18.4262642 C3.67814192,18.3328581 3.54852838,18.2791245 3.41650437,18.2791245 C3.28443013,18.2791245 3.15486681,18.3328581 3.0614607,18.4262642 C2.96805459,18.5196703 2.91432096,18.6492336 2.91432096,18.7813079 C2.91432096,18.9133821 2.96805459,19.0429454 3.0614607,19.1363515 C3.15486681,19.2297576 3.28443013,19.2834913 3.41650437,19.2834913 C3.5485786,19.2834913 3.67814192,19.2297576 3.77154803,19.1363515 C3.86495415,19.0429454 3.91868777,18.9133821 3.91868777,18.7813079 C3.91868777,18.6492336 3.86495415,18.5196703 3.77154803,18.4262642 Z" id="Path"></path>
                <path d="M15.4694083,21.4932489 L5.3116441,21.4932489 C5.03428821,21.4932489 4.8094607,21.7180764 4.8094607,21.9954323 C4.8094607,22.2727882 5.03428821,22.4976157 5.3116441,22.4976157 L15.4694083,22.4976157 C15.7467642,22.4976157 15.9715917,22.2727882 15.9715917,21.9954323 C15.9716419,21.7180764 15.7468144,21.4932489 15.4694083,21.4932489 Z" id="Path"></path>
                <path d="M3.77154803,21.6403886 C3.67814192,21.5469825 3.54852838,21.4932489 3.41650437,21.4932489 C3.28443013,21.4932489 3.15486681,21.5469825 3.0614607,21.6403886 C2.96805459,21.7337948 2.91432096,21.8633581 2.91432096,21.9954323 C2.91432096,22.1275066 2.96805459,22.2570699 3.0614607,22.350476 C3.15486681,22.4438821 3.28443013,22.4976157 3.41650437,22.4976157 C3.5485786,22.4976157 3.67814192,22.4438821 3.77154803,22.350476 C3.86495415,22.2570699 3.91868777,22.1275066 3.91868777,21.9954323 C3.91868777,21.8633581 3.86495415,21.7337948 3.77154803,21.6403886 Z" id="Path"></path>
                <path d="M11.2796921,11.8524323 L9.94513974,11.8524323 L9.94513974,10.5178799 C9.94513974,10.240524 9.72031223,10.0156965 9.44295633,10.0156965 C9.16560044,10.0156965 8.94077293,10.240524 8.94077293,10.5178799 L8.94077293,11.8524323 L7.60622052,11.8524323 C7.32886463,11.8524323 7.10403712,12.0772598 7.10403712,12.3546157 C7.10403712,12.6319716 7.32886463,12.8568493 7.60622052,12.8568493 L8.94077293,12.8568493 L8.94077293,14.1914017 C8.94077293,14.4687576 9.16560044,14.6935852 9.44295633,14.6935852 C9.72031223,14.6935852 9.94513974,14.4687576 9.94513974,14.1914017 L9.94513974,12.8568493 L11.2796921,12.8568493 C11.557048,12.8568493 11.7818755,12.6320218 11.7818755,12.3546157 C11.7819258,12.0772598 11.5570983,11.8524323 11.2796921,11.8524323 Z" id="Path"></path>
                <path d="M9.44290611,7.93520087 C7.00606114,7.93520087 5.02349127,9.91777074 5.02349127,12.3546157 C5.02349127,14.7914607 7.00606114,16.7740306 9.44290611,16.7740306 C11.8797511,16.7740306 13.862321,14.7914607 13.862321,12.3546157 C13.8623712,9.91777074 11.8798013,7.93520087 9.44290611,7.93520087 Z M9.44290611,15.7696135 C7.559869,15.7696135 6.0279083,14.2376528 6.0279083,12.3546157 C6.0279083,10.4715786 7.559869,8.9396179 9.44290611,8.9396179 C11.3259432,8.9396179 12.8579039,10.4715786 12.8579039,12.3546157 C12.8579039,14.2376528 11.3259432,15.7696135 9.44290611,15.7696135 Z" id="Shape" fill-rule="nonzero"></path>
                <path d="M21.4919432,0 L5.62219432,0 C4.79143231,0 4.11559389,0.675888646 4.11559389,1.50660044 L4.11559389,4.21728603 L1.50805677,4.21728603 C0.67729476,4.21728603 0.00145633188,4.89317467 0.00145633188,5.72388646 L0.00145633188,24.2051397 C0.00140611354,25.0359017 0.67729476,25.7117904 1.50805677,25.7117904 L17.3778057,25.7117904 C18.2085677,25.7117904 18.8844061,25.0359017 18.8844061,24.20519 L18.8844061,9.18915284 C18.8844061,9.0559738 18.831476,8.92821834 18.7373166,8.83405895 L14.2676834,4.36442576 C14.173524,4.27026638 14.0457686,4.21733624 13.9125895,4.21733624 L5.1199607,4.21733624 L5.1199607,1.50660044 C5.1199607,1.22969651 5.34524017,1.00441703 5.6221441,1.00441703 L21.4919432,1.00441703 C21.7688472,1.00441703 21.9941266,1.22969651 21.9941266,1.50660044 L21.9941266,19.9878537 C21.9941266,20.2647576 21.7688472,20.4900371 21.4919432,20.4900371 L20.322107,20.4900371 C20.0447511,20.4900371 19.8199236,20.7148646 19.8199236,20.9922205 C19.8199236,21.2695764 20.0447511,21.4944039 20.322107,21.4944039 L21.4919432,21.4944039 C22.3227052,21.4944039 22.9985437,20.8185153 22.9985437,19.9878035 L22.9985437,1.50660044 C22.9985939,0.675888646 22.3227052,0 21.4919432,0 Z M14.4147729,5.93194105 L17.1698013,8.68696943 L14.9170066,8.68696943 C14.6401026,8.68696943 14.4148231,8.46168996 14.4148231,8.18478603 L14.4148231,5.93194105 L14.4147729,5.93194105 Z M13.4103559,5.22170306 L13.4103559,8.18473581 C13.4103559,9.01549782 14.0862445,9.69133624 14.9169563,9.69133624 L17.8799891,9.69133624 L17.8799891,24.2051397 C17.8799891,24.4820437 17.6547096,24.7073231 17.3778057,24.7073231 L1.50805677,24.7073231 C1.23115284,24.7073231 1.00587336,24.4820437 1.00587336,24.2051397 L1.00587336,5.72393668 C1.00587336,5.44703275 1.23115284,5.22175328 1.50805677,5.22175328 L13.4103559,5.22175328 L13.4103559,5.22170306 Z" id="Shape" fill-rule="nonzero"></path>
            </g>
        </g>
    </g>
</svg>