<?xml version="1.0" encoding="UTF-8"?>
<svg width="23px" height="25px" viewBox="0 0 23 25" version="1.1" xmlns="http://www.w3.org/2000/svg" xmlns:xlink="http://www.w3.org/1999/xlink">
    <!-- Generator: sketchtool 52.1 (67048) - http://www.bohemiancoding.com/sketch -->
    <title>3498F325-4629-4619-A0EC-F7D30E243997</title>
    <desc>Created with sketchtool.</desc>
    <g id="*Ajustes" stroke="none" stroke-width="1" fill="none" fill-rule="evenodd">
        <g id="Ajustes-026" transform="translate(-1540.000000, -587.000000)" fill="#FF5964">
            <g id="Videoconsulta-certificado" transform="translate(1540.000000, 587.000000)">
                <path d="M20.7998767,0 L1.45793528,0 C0.654029768,0 0,0.654029768 0,1.45793528 L0,23.4241602 C0,24.2280657 0.654029768,24.8820955 1.45793528,24.8820955 L20.7998767,24.8820955 C21.6037822,24.8820955 22.257812,24.2280657 22.257812,23.4241602 L22.257812,1.45793528 C22.257812,0.654029768 21.6037822,0 20.7998767,0 Z M21.2858551,23.4241602 C21.2858551,23.6921287 21.0678452,23.9101387 20.7998767,23.9101387 L1.45793528,23.9101387 C1.18996678,23.9101387 0.971956856,23.6921287 0.971956856,23.4241602 L0.971956856,1.45793528 C0.971956856,1.18996678 1.18996678,0.971956856 1.45793528,0.971956856 L20.7998767,0.971956856 C21.0678452,0.971956856 21.2858551,1.18996678 21.2858551,1.45793528 L21.2858551,23.4241602 Z" id="Shape" fill-rule="nonzero"></path>
                <path d="M19.4394287,4.27661017 C18.6355232,4.27661017 17.9814934,3.6225804 17.9814934,2.81867488 C17.9814934,2.550269 17.7638723,2.33269645 17.495515,2.33269645 L4.76229701,2.33269645 C4.49393972,2.33269645 4.27631858,2.550269 4.27631858,2.81867488 C4.27631858,3.6225804 3.62228881,4.27661017 2.8183833,4.27661017 C2.55002601,4.27661017 2.33240487,4.49418271 2.33240487,4.76258859 L2.33240487,20.1195069 C2.33240487,20.3878642 2.55002601,20.6054853 2.8183833,20.6054853 C3.62228881,20.6054853 4.27631858,21.2595151 4.27631858,22.0634206 C4.27631858,22.3317779 4.49393972,22.5493991 4.76229701,22.5493991 L17.495515,22.5493991 C17.7638723,22.5493991 17.9814934,22.3317779 17.9814934,22.0634206 C17.9814934,21.2595151 18.6355232,20.6054853 19.4394287,20.6054853 C19.707786,20.6054853 19.9254071,20.3878642 19.9254071,20.1195069 L19.9254071,4.76258859 C19.9254071,4.49418271 19.707786,4.27661017 19.4394287,4.27661017 Z M18.9534017,19.6823693 C18.0027793,19.8761289 17.2520884,20.6267712 17.0583288,21.5774422 L5.1994346,21.5774422 C5.005675,20.6267712 4.25503272,19.8761289 3.30436172,19.6823693 L3.30436172,5.19977479 C4.25498413,5.00596659 5.005675,4.25527571 5.1994346,3.30465331 L17.0583288,3.30465331 C17.2520884,4.25527571 18.0027307,5.00601519 18.9534017,5.19977479 L18.9534017,19.6823693 Z" id="Shape" fill-rule="nonzero"></path>
                <path d="M12.9063235,8.17002634 L11.6148844,8.17002634 L11.6148844,6.87858727 C11.6148844,6.61018138 11.3972633,6.39260884 11.128906,6.39260884 C10.8605487,6.39260884 10.6429276,6.61018138 10.6429276,6.87858727 L10.6429276,8.17002634 L9.3514885,8.17002634 C9.08313121,8.17002634 8.86551007,8.38759888 8.86551007,8.65600477 C8.86551007,8.92441066 9.08313121,9.1419832 9.3514885,9.1419832 L10.6429276,9.1419832 L10.6429276,10.4334223 C10.6429276,10.7018282 10.8605487,10.9194007 11.128906,10.9194007 C11.3972633,10.9194007 11.6148844,10.7018282 11.6148844,10.4334223 L11.6148844,9.1419832 L12.9063235,9.1419832 C13.1746808,9.1419832 13.3923019,8.92441066 13.3923019,8.65600477 C13.3923019,8.38759888 13.1747294,8.17002634 12.9063235,8.17002634 Z" id="Path"></path>
                <path d="M11.128906,4.3793946 C8.77079287,4.3793946 6.85229583,6.29789164 6.85229583,8.65600477 C6.85229583,11.0141179 8.77079287,12.9326149 11.128906,12.9326149 C13.4870191,12.9326149 15.4055162,11.0141179 15.4055162,8.65600477 C15.4055162,6.29789164 13.4870191,4.3793946 11.128906,4.3793946 Z M11.128906,11.9606581 C9.30672988,11.9606581 7.82425269,10.4781809 7.82425269,8.65600477 C7.82425269,6.83382865 9.30672988,5.35135146 11.128906,5.35135146 C12.9510821,5.35135146 14.4335593,6.83382865 14.4335593,8.65600477 C14.4335593,10.4781809 12.9510821,11.9606581 11.128906,11.9606581 Z" id="Shape" fill-rule="nonzero"></path>
                <path d="M16.2802773,13.898983 L7.91284656,13.898983 C7.64448927,13.898983 7.42686813,14.1166042 7.42686813,14.3849615 C7.42686813,14.6533188 7.64448927,14.8709399 7.91284656,14.8709399 L16.2802773,14.8709399 C16.5486346,14.8709399 16.7662558,14.6533188 16.7662558,14.3849615 C16.7662558,14.1166042 16.5486346,13.898983 16.2802773,13.898983 Z" id="Path"></path>
                <path d="M6.32107281,14.0413747 C6.23072942,13.9509341 6.10534699,13.898983 5.97753466,13.898983 C5.84972234,13.898983 5.7243885,13.9509827 5.63394792,14.0413747 C5.54350733,14.1317667 5.49155624,14.2571491 5.49155624,14.3849615 C5.49155624,14.5127738 5.54355593,14.6381562 5.63394792,14.7284996 C5.7243399,14.8189402 5.84972234,14.8709399 5.97753466,14.8709399 C6.10534699,14.8709399 6.23072942,14.8189402 6.32107281,14.7284996 C6.4115134,14.6381562 6.46351309,14.5127738 6.46351309,14.3849615 C6.46351309,14.2571491 6.4114648,14.1317667 6.32107281,14.0413747 Z" id="Path"></path>
                <path d="M14.3449654,15.8428968 L7.91284656,15.8428968 C7.64448927,15.8428968 7.42686813,16.0605179 7.42686813,16.3288752 C7.42686813,16.5972325 7.64448927,16.8148536 7.91284656,16.8148536 L14.3449654,16.8148536 C14.6133227,16.8148536 14.8309439,16.5972325 14.8309439,16.3288752 C14.8309439,16.0605179 14.6133227,15.8428968 14.3449654,15.8428968 Z" id="Path"></path>
                <path d="M16.5631654,17.7238277 C16.3732936,17.5341017 16.0656693,17.5341017 15.8758461,17.7238277 L14.9153583,18.6843154 L14.3183338,18.0873395 C14.1358003,17.9047088 13.8929569,17.8041599 13.6347566,17.8041599 C13.3765562,17.8041599 13.13381,17.9047088 12.9511793,18.0872909 L12.5626882,18.4757821 C12.3729136,18.6656053 12.3729136,18.9733268 12.5626882,19.1631014 C12.7525599,19.3528273 13.0601843,19.3528273 13.2500074,19.1631014 L13.6348052,18.7783037 L14.2318297,19.3753282 C14.4144118,19.5579102 14.6572066,19.6584592 14.9154069,19.6584592 C15.1736559,19.6584592 15.4164021,19.5578616 15.5989842,19.3753282 L16.5631654,18.4111469 C16.75294,18.2213238 16.75294,17.9136022 16.5631654,17.7238277 Z" id="Path"></path>
            </g>
        </g>
    </g>
</svg>