<?xml version="1.0" encoding="UTF-8"?>
<svg width="21px" height="19px" viewBox="0 0 21 19" version="1.1" xmlns="http://www.w3.org/2000/svg" xmlns:xlink="http://www.w3.org/1999/xlink">
    <!-- Generator: Sketch 52.1 (67048) - http://www.bohemiancoding.com/sketch -->
    <title>uil-archive</title>
    <desc>Created with Sketch.</desc>
    <g id="Parte-1-+" stroke="none" stroke-width="1" fill="none" fill-rule="evenodd">
        <g id="Nuevos-Reg-01" transform="translate(-1176.000000, -798.000000)">
            <g id="uil-archive" transform="translate(1175.000000, 796.000000)">
                <g id="Icon" transform="translate(1.586207, 2.379310)" fill="#3962E6" fill-rule="nonzero">
                    <path d="M7.99712644,11.0373563 L11.8304598,11.0373563 C12.3597327,11.0373563 12.7887931,10.6082959 12.7887931,10.079023 C12.7887931,9.5497501 12.3597327,9.12068966 11.8304598,9.12068966 L7.99712644,9.12068966 C7.46785355,9.12068966 7.0387931,9.5497501 7.0387931,10.079023 C7.0387931,10.6082959 7.46785355,11.0373563 7.99712644,11.0373563 Z M16.6221264,0.495689655 L3.20545977,0.495689655 C1.61764111,0.495689655 0.33045977,1.782871 0.33045977,3.37068966 L0.33045977,6.24568966 C0.33045977,6.77496254 0.759520218,7.20402299 1.2887931,7.20402299 L2.24712644,7.20402299 L2.24712644,14.8706897 C2.24712644,16.4585083 3.53430778,17.7456897 5.12212644,17.7456897 L14.7054598,17.7456897 C16.2932784,17.7456897 17.5804598,16.4585083 17.5804598,14.8706897 L17.5804598,7.20402299 L18.5387931,7.20402299 C19.068066,7.20402299 19.4971264,6.77496254 19.4971264,6.24568966 L19.4971264,3.37068966 C19.4971264,1.782871 18.2099451,0.495689655 16.6221264,0.495689655 Z M15.6637931,14.8706897 C15.6637931,15.3999625 15.2347327,15.829023 14.7054598,15.829023 L5.12212644,15.829023 C4.59285355,15.829023 4.1637931,15.3999625 4.1637931,14.8706897 L4.1637931,7.20402299 L15.6637931,7.20402299 L15.6637931,14.8706897 Z M17.5804598,5.28735632 L2.24712644,5.28735632 L2.24712644,3.37068966 C2.24712644,2.84141677 2.67618688,2.41235632 3.20545977,2.41235632 L16.6221264,2.41235632 C17.1513993,2.41235632 17.5804598,2.84141677 17.5804598,3.37068966 L17.5804598,5.28735632 Z" id="Icon-Shape"></path>
                </g>
                <rect id="ViewBox" x="0" y="0" width="23" height="23"></rect>
            </g>
        </g>
    </g>
</svg>