<?xml version="1.0" encoding="UTF-8"?>
<svg width="21px" height="20px" viewBox="0 0 21 20" version="1.1" xmlns="http://www.w3.org/2000/svg" xmlns:xlink="http://www.w3.org/1999/xlink">
    <!-- Generator: sketchtool 52.1 (67048) - http://www.bohemiancoding.com/sketch -->
    <title>ED2D0E13-DF79-438E-B677-549E54A6153B</title>
    <desc>Created with sketchtool.</desc>
    <g id="REPORTES" stroke="none" stroke-width="1" fill="none" fill-rule="evenodd">
        <g id="reportes-01" transform="translate(-1480.000000, -989.000000)" fill="#CED8E1" fill-rule="nonzero">
            <g id="Group" transform="translate(56.000000, 434.000000)">
                <g id="Consulta-planificaciones-" transform="translate(29.667223, 552.675074)">
                    <g id="Otro-icon" transform="translate(1394.359489, 2.621662)">
                        <g id="Icon" transform="translate(0.020942, 0.041947)">
                            <path d="M2.82943878,1.93886452 L7.07359695,1.93886452 C7.47373535,1.93783006 7.82975318,2.19304992 7.95779657,2.57272408 L8.46039425,4.10144418 C8.58843763,4.48111833 8.94445546,4.73633819 9.34459386,4.73530374 L15.8597489,4.73530374 C16.3737805,4.73530374 16.7904854,5.1526399 16.7904854,5.66745014 C16.7904854,6.18226039 17.2071903,6.59959655 17.7212218,6.59959655 C18.2352534,6.59959655 18.6519583,6.18226039 18.6519583,5.66745014 C18.6519583,4.12301941 17.4018436,2.87101093 15.8597489,2.87101093 L10.0147241,2.87101093 L9.71688844,1.93886452 C9.32114707,0.817815127 8.2608387,0.0699879296 7.07359695,0.0745717117 L2.82943878,0.0745717117 C1.28734415,0.0745717117 0.0372294561,1.32658019 0.0372294561,2.87101093 L0.0372294561,14.9889142 C0.0372294561,16.5333449 1.28734415,17.7853534 2.82943878,17.7853534 L8.41385742,17.7853534 C8.92788897,17.7853534 9.34459386,17.3680172 9.34459386,16.853207 C9.34459386,16.3383968 8.92788897,15.9210606 8.41385742,15.9210606 L2.82943878,15.9210606 C2.31540724,15.9210606 1.89870234,15.5037244 1.89870234,14.9889142 L1.89870234,2.87101093 C1.89870234,2.35620068 2.31540724,1.93886452 2.82943878,1.93886452 Z M18.6519581,12.3602613 L18.6519581,11.2603285 C18.6519581,9.7158978 17.4018434,8.46388934 15.8597488,8.46388934 C14.3176542,8.46388934 13.0675395,9.7158978 13.0675395,11.2603285 L13.0675395,12.3602613 C11.9546312,12.7543246 11.2093841,13.8067148 11.2060666,14.9889141 L11.2060666,16.8532069 C11.2060666,18.3976376 12.4561813,19.6496461 13.9982759,19.6496461 L17.7212217,19.6496461 C19.2633163,19.6496461 20.513431,18.3976376 20.513431,16.8532069 L20.513431,14.9889141 C20.5101135,13.8067148 19.7648664,12.7543246 18.6519581,12.3602613 Z M14.9290128,11.2603284 C14.9290128,10.7455182 15.3457177,10.328182 15.8597493,10.328182 C16.3737809,10.328182 16.7904858,10.7455182 16.7904858,11.2603284 L16.7904858,12.1924748 L14.9290128,12.1924748 L14.9290128,11.2603284 Z M18.6519579,16.8532074 C18.6519579,17.3680177 18.235253,17.7853538 17.7212214,17.7853538 L13.9982757,17.7853538 C13.4842442,17.7853538 13.0675393,17.3680177 13.0675393,16.8532074 L13.0675393,14.9889145 C13.0675393,14.4741043 13.4842442,14.0567681 13.9982757,14.0567681 L17.7212214,14.0567681 C18.235253,14.0567681 18.6519579,14.4741043 18.6519579,14.9889145 L18.6519579,16.8532074 Z" id="Icon-Shape"></path>
                        </g>
                    </g>
                </g>
            </g>
        </g>
    </g>
</svg>