<?xml version="1.0" encoding="UTF-8"?>
<svg width="17px" height="17px" viewBox="0 0 17 17" version="1.1" xmlns="http://www.w3.org/2000/svg" xmlns:xlink="http://www.w3.org/1999/xlink">
    <!-- Generator: sketchtool 52.1 (67048) - http://www.bohemiancoding.com/sketch -->
    <title>CF857373-E143-4E9A-B586-4F33954EC0C1</title>
    <desc>Created with sketchtool.</desc>
    <g id="*CRM" stroke="none" stroke-width="1" fill="none" fill-rule="evenodd">
        <g id="Demanda-Inducida-006" transform="translate(-1568.000000, -1019.000000)" fill="#3962E6" fill-rule="nonzero" stroke="#3962E6" stroke-width="0.8">
            <g id="Search-icon" transform="translate(1569.000000, 1020.000000)">
                <path d="M14.9803419,14.2994792 L10.4615385,9.68055556 C11.3623932,8.58854167 11.8128205,7.32928241 11.8128205,5.90277778 C11.8128205,4.83043981 11.5537037,3.84172454 11.0354701,2.93663194 C10.5172365,2.03153935 9.81011396,1.31582755 8.91410256,0.789496528 C8.01809117,0.263165509 7.04458689,0 5.99358974,0 C4.94259259,0 3.97150997,0.263165509 3.08034188,0.789496528 C2.18917379,1.31582755 1.48447293,2.03153935 0.966239316,2.93663194 C0.448005698,3.84172454 0.188888889,4.83043981 0.188888889,5.90277778 C0.188888889,6.97511574 0.448005698,7.96383102 0.966239316,8.86892361 C1.48447293,9.7740162 2.18917379,10.489728 3.08034188,11.016059 C3.97150997,11.54239 4.94501425,11.8055556 6.0008547,11.8055556 C7.44415954,11.8055556 8.71310541,11.3234954 9.80769231,10.359375 L14.3119658,14.9635417 C14.4088319,15.0619213 14.5202279,15.1111111 14.6461538,15.1111111 C14.7720798,15.1111111 14.8810541,15.0643808 14.9730769,14.9709201 C15.0650997,14.8774595 15.1111111,14.7643229 15.1111111,14.6315104 C15.1111111,14.4986979 15.0675214,14.3880208 14.9803419,14.2994792 Z M6.0008547,10.8758681 C5.10968661,10.8758681 4.28874644,10.6520544 3.53803419,10.2044271 C2.78732194,9.75679977 2.19401709,9.15176505 1.75811966,8.38932292 C1.32222222,7.62688079 1.1042735,6.79803241 1.1042735,5.90277778 C1.1042735,5.00752315 1.32222222,4.17867477 1.75811966,3.41623264 C2.19401709,2.65379051 2.78732194,2.04875579 3.53803419,1.60112847 C4.28874644,1.15350116 5.10726496,0.9296875 5.99358974,0.9296875 C6.87991453,0.9296875 7.69843305,1.15350116 8.4491453,1.60112847 C9.19985755,2.04875579 9.79316239,2.65379051 10.2290598,3.41623264 C10.6649573,4.17867477 10.882906,5.00752315 10.882906,5.90277778 C10.882906,6.28645833 10.8393162,6.66521991 10.7521368,7.0390625 C10.6649573,7.41290509 10.541453,7.76215278 10.3816239,8.08680556 C10.2217949,8.41145833 10.0304843,8.71889468 9.80769231,9.00911458 C9.58490028,9.29933449 9.33304843,9.55758102 9.05213675,9.78385417 C8.77122507,10.0101273 8.47094017,10.2044271 8.15128205,10.3667535 C7.83162393,10.5290799 7.48774929,10.6545139 7.11965812,10.7430556 C6.75156695,10.8315972 6.37863248,10.8758681 6.0008547,10.8758681 Z" id="Icon-Shape"></path>
            </g>
        </g>
    </g>
</svg>