<?xml version="1.0" encoding="UTF-8"?>
<svg width="37px" height="33px" viewBox="0 0 37 33" version="1.1" xmlns="http://www.w3.org/2000/svg" xmlns:xlink="http://www.w3.org/1999/xlink">
    <!-- Generator: sketchtool 52.1 (67048) - http://www.bohemiancoding.com/sketch -->
    <title>FA2AEA25-6E3D-4987-AD39-31B2CCA8D4BB</title>
    <desc>Created with sketchtool.</desc>
    <g id="Parte-1-+" stroke="none" stroke-width="1" fill="none" fill-rule="evenodd">
        <g id="Consultorios-01" transform="translate(-952.000000, -640.000000)" fill="#D1D1D1" fill-rule="nonzero">
            <g id="Search-message" transform="translate(772.000000, 640.000000)">
                <g id="Search-icon" transform="translate(180.000000, 0.000000)">
                    <path d="M26,26 C26.7012708,26 27.3744421,25.8796916 28,25.6585886 L28,29 C28,31.209139 26.209139,33 24,33 L4,33 C1.790861,33 2.705415e-16,31.209139 0,29 L0,4 C-2.705415e-16,1.790861 1.790861,4.05812251e-16 4,0 L24,0 C26.209139,-4.05812251e-16 28,1.790861 28,4 L28,14.3414114 C27.3744421,14.1203084 26.7012708,14 26,14 L26,4 C26,2.8954305 25.1045695,2 24,2 L4,2 C2.8954305,2 2,2.8954305 2,4 L2,29 C2,30.1045695 2.8954305,31 4,31 L24,31 C25.1045695,31 26,30.1045695 26,29 L26,26 Z" id="Combined-Shape"></path>
                    <path d="M35.8528846,29.0869141 L30.7692308,23.890625 C31.7826923,22.6621094 32.2894231,21.2454427 32.2894231,19.640625 C32.2894231,18.4342448 31.9979167,17.3219401 31.4149038,16.3037109 C30.831891,15.2854818 30.0363782,14.480306 29.0283654,13.8881836 C28.0203526,13.2960612 26.9251603,13 25.7427885,13 C24.5604167,13 23.4679487,13.2960612 22.4653846,13.8881836 C21.4628205,14.480306 20.6700321,15.2854818 20.0870192,16.3037109 C19.5040064,17.3219401 19.2125,18.4342448 19.2125,19.640625 C19.2125,20.8470052 19.5040064,21.9593099 20.0870192,22.9775391 C20.6700321,23.9957682 21.4628205,24.800944 22.4653846,25.3930664 C23.4679487,25.9851888 24.563141,26.28125 25.7509615,26.28125 C27.3746795,26.28125 28.8022436,25.7389323 30.0336538,24.6542969 L35.1009615,29.8339844 C35.2099359,29.9446615 35.3352564,30 35.4769231,30 C35.6185897,30 35.7411859,29.9474284 35.8447115,29.8422852 C35.9482372,29.7371419 36,29.6098633 36,29.4604492 C36,29.3110352 35.9509615,29.1865234 35.8528846,29.0869141 Z M25.7509615,25.2353516 C24.7483974,25.2353516 23.8248397,24.9835612 22.9802885,24.4799805 C22.1357372,23.9763997 21.4682692,23.2957357 20.9778846,22.4379883 C20.4875,21.5802409 20.2423077,20.6477865 20.2423077,19.640625 C20.2423077,18.6334635 20.4875,17.7010091 20.9778846,16.8432617 C21.4682692,15.9855143 22.1357372,15.3048503 22.9802885,14.8012695 C23.8248397,14.2976888 24.7456731,14.0458984 25.7427885,14.0458984 C26.7399038,14.0458984 27.6607372,14.2976888 28.5052885,14.8012695 C29.3498397,15.3048503 30.0173077,15.9855143 30.5076923,16.8432617 C30.9980769,17.7010091 31.2432692,18.6334635 31.2432692,19.640625 C31.2432692,20.0722656 31.1942308,20.4983724 31.0961538,20.9189453 C30.9980769,21.3395182 30.8591346,21.7324219 30.6793269,22.0976562 C30.4995192,22.4628906 30.2842949,22.8087565 30.0336538,23.1352539 C29.7830128,23.4617513 29.4996795,23.7522786 29.1836538,24.0068359 C28.8676282,24.2613932 28.5298077,24.4799805 28.1701923,24.6625977 C27.8105769,24.8452148 27.4237179,24.9863281 27.0096154,25.0859375 C26.5955128,25.1855469 26.1759615,25.2353516 25.7509615,25.2353516 Z" id="Icon-Shape" stroke="#D1D1D1" stroke-width="0.8"></path>
                </g>
            </g>
        </g>
    </g>
</svg>