<?xml version="1.0" encoding="UTF-8"?>
<svg width="26px" height="26px" viewBox="0 0 26 26" version="1.1" xmlns="http://www.w3.org/2000/svg" xmlns:xlink="http://www.w3.org/1999/xlink">
    <!-- Generator: sketchtool 52.1 (67048) - http://www.bohemiancoding.com/sketch -->
    <title>9063F7DB-9E39-4C8A-A897-EA3F9FFD811F</title>
    <desc>Created with sketchtool.</desc>
    <g id="*CRM" stroke="none" stroke-width="1" fill="none" fill-rule="evenodd">
        <g id="Demanda-Inducida-012" transform="translate(-542.000000, -273.000000)">
            <g id="sin_informacion" transform="translate(542.000000, 273.000000)">
                <path d="M18.9551657,2.73684211 L15.8225458,2.73684211 C15.4330019,2.01340351 14.66846,1.52046784 13.7907953,1.52046784 L12.1808226,1.52046784 C11.9552359,0.647060429 11.1605887,0 10.2176959,0 C9.2748538,0 8.48020663,0.647060429 8.25461988,1.52046784 L6.64464717,1.52046784 C5.76698246,1.52046784 5.00249123,2.01340351 4.61289669,2.73684211 L1.52046784,2.73684211 C0.682081871,2.73684211 0,3.41892398 0,4.25730994 L0,24.4288499 C0,25.2672359 0.682081871,25.9493177 1.52046784,25.9493177 L18.9551657,25.9493177 C19.7935517,25.9493177 20.4756335,25.2672359 20.4756335,24.4288499 L20.4756335,4.25730994 C20.4756335,3.41892398 19.7935517,2.73684211 18.9551657,2.73684211 Z M5.35224951,3.82651072 C5.35224951,3.11386745 5.9320039,2.53411306 6.64464717,2.53411306 L8.69727875,2.53411306 C8.9771462,2.53411306 9.20410136,2.30720858 9.20410136,2.02729045 C9.20410136,1.46836647 9.65882261,1.01364522 10.2176959,1.01364522 C10.7766199,1.01364522 11.2313411,1.46836647 11.2313411,2.02729045 C11.2313411,2.30720858 11.4582963,2.53411306 11.7381637,2.53411306 L13.7907953,2.53411306 C14.3502768,2.53411306 14.827653,2.89152437 15.0071189,3.38988304 C15.0089435,3.39601559 15.0111735,3.40194542 15.0132515,3.40792593 C15.0583587,3.53929435 15.083193,3.6799883 15.083193,3.82646004 L15.083193,4.62176608 C15.083193,4.92347758 14.8377388,5.16888109 14.536078,5.16888109 L5.89936452,5.16888109 C5.5977037,5.16888109 5.35224951,4.9234269 5.35224951,4.62176608 L5.35224951,3.82651072 Z M17.0292398,6.182577 L17.0292398,22.5652632 L3.46129435,22.5652632 L3.46129435,6.182577 L17.0292398,6.182577 Z M19.4619883,24.4288499 C19.4619883,24.7083119 19.2346277,24.9356725 18.9551657,24.9356725 L1.52046784,24.9356725 C1.24100585,24.9356725 1.01364522,24.7083119 1.01364522,24.4288499 L1.01364522,4.25730994 C1.01364522,3.97784795 1.24100585,3.75048733 1.52046784,3.75048733 L4.3405809,3.75048733 C4.33976998,3.77577778 4.33865497,3.80101754 4.33865497,3.82651072 L4.33865497,4.62181676 C4.33865497,4.81425731 4.37387914,4.99858869 4.43789084,5.16893177 L2.95447173,5.16893177 C2.67460429,5.16893177 2.44764912,5.39583626 2.44764912,5.67575439 L2.44764912,23.0720858 C2.44764912,23.3519532 2.67460429,23.5789084 2.95447173,23.5789084 L17.5360624,23.5789084 C17.8159298,23.5789084 18.042885,23.3519532 18.042885,23.0720858 L18.042885,5.67575439 C18.042885,5.39583626 17.8159298,5.16893177 17.5360624,5.16893177 L15.997653,5.16893177 C16.0616647,4.99853801 16.0968889,4.81425731 16.0968889,4.62181676 L16.0968889,3.82651072 C16.0968889,3.80101754 16.0957739,3.77582846 16.094963,3.75048733 L18.9551657,3.75048733 C19.2346277,3.75048733 19.4619883,3.97784795 19.4619883,4.25730994 L19.4619883,24.4288499 Z" id="Shape" fill="#3962E6" fill-rule="nonzero"></path>
                <path d="M10.5758674,2.88534113 C10.4815984,2.79107212 10.351345,2.73684211 10.2175439,2.73684211 C10.0842495,2.73684211 9.95348928,2.79107212 9.85927096,2.88534113 C9.76500195,2.97961014 9.71072125,3.11037037 9.71072125,3.24366472 C9.71072125,3.37695906 9.76495127,3.5077193 9.85927096,3.6019883 C9.95348928,3.69625731 10.0842495,3.75048733 10.2175439,3.75048733 C10.3513957,3.75048733 10.4815984,3.69625731 10.5758674,3.6019883 C10.6706433,3.5077193 10.7243665,3.37695906 10.7243665,3.24366472 C10.7243665,3.11037037 10.6706433,2.97961014 10.5758674,2.88534113 Z" id="Path" fill="#3962E6"></path>
                <path d="M13.188538,9.22630019 L11.6680702,9.22630019 L11.6680702,7.70583236 C11.6680702,7.42591423 11.441115,7.19900975 11.1612476,7.19900975 L9.13395712,7.19900975 C8.85408967,7.19900975 8.6271345,7.42591423 8.6271345,7.70583236 L8.6271345,9.22630019 L7.10666667,9.22630019 C6.82679922,9.22630019 6.59984405,9.45320468 6.59984405,9.73312281 L6.59984405,11.7604133 C6.59984405,12.0402807 6.82674854,12.2672359 7.10666667,12.2672359 L8.6271345,12.2672359 L8.6271345,13.7877037 C8.6271345,14.0675712 8.85408967,14.2945263 9.13395712,14.2945263 L11.1612476,14.2945263 C11.441115,14.2945263 11.6680702,14.0675712 11.6680702,13.7877037 L11.6680702,12.2672359 L13.188538,12.2672359 C13.4684055,12.2672359 13.6953606,12.0403314 13.6953606,11.7604133 L13.6953606,9.73312281 C13.6953606,9.45320468 13.4684055,9.22630019 13.188538,9.22630019 Z M12.6817154,11.2535906 L11.1612476,11.2535906 C10.8813801,11.2535906 10.654425,11.4804951 10.654425,11.7604133 L10.654425,13.2808811 L9.64077973,13.2808811 L9.64077973,11.7604133 C9.64077973,11.4804951 9.41382456,11.2535906 9.13395712,11.2535906 L7.61348928,11.2535906 L7.61348928,10.2399454 L9.13395712,10.2399454 C9.41382456,10.2399454 9.64077973,10.0130409 9.64077973,9.73312281 L9.64077973,8.21265497 L10.654425,8.21265497 L10.654425,9.73312281 C10.654425,10.0130409 10.8813801,10.2399454 11.1612476,10.2399454 L12.6817154,10.2399454 L12.6817154,11.2535906 Z" id="Shape" fill="#3962E6" fill-rule="nonzero"></path>
                <g id="Group" transform="translate(21.692008, 0.000000)">
                    <path d="M4.2813891,4.77739624 C4.2813891,4.77759624 4.2813891,4.77779624 4.2813891,4.77799624 C4.2811891,4.77169624 4.2812891,4.77299624 4.2813891,4.77739624 Z" id="Path" fill="#000000"></path>
                    <path d="M4.28132844,4.77496138 C4.28122844,4.77246138 4.28122844,4.77246138 4.28132844,4.77496138 Z" id="Path" fill="#000000"></path>
                    <path d="M4.28127507,4.7729697 C4.28127507,4.7741697 4.28127507,4.7744697 4.28137507,4.7777697 C4.28147507,4.7816697 4.28137507,4.7765697 4.28127507,4.7729697 Z" id="Path" fill="#000000"></path>
                    <path d="M4.25670175,4.75196881 C4.25528265,4.69490058 4.24443665,4.63712281 4.22406238,4.5837037 L2.60223002,0.326393762 C2.527423,0.129898635 2.33893567,0 2.12865497,0 C1.91837427,0 1.72988694,0.129898635 1.65502924,0.326393762 L0.0331968811,4.5837037 C0.0115048733,4.64067057 0,4.70316179 0,4.76413255 L0,23.8206628 C0,24.9944133 0.954904483,25.9493177 2.12865497,25.9493177 C3.30240546,25.9493177 4.25730994,24.9944133 4.25730994,23.8206628 L4.25730994,4.76413255 C4.25730994,4.77609357 4.25680312,4.758 4.25670175,4.75196881 Z M2.12865497,1.93048733 L3.01503704,4.25730994 L1.24222222,4.25730994 L2.12865497,1.93048733 Z M3.24366472,23.8206628 C3.24366472,24.4354893 2.74348148,24.9356725 2.12865497,24.9356725 C1.51382846,24.9356725 1.01364522,24.4354893 1.01364522,23.8206628 L1.01364522,22.851922 L3.24366472,22.851922 L3.24366472,23.8206628 Z M3.24366472,21.8382768 L1.01364522,21.8382768 L1.01364522,5.27095517 L3.24366472,5.27095517 L3.24366472,21.8382768 Z" id="Shape" fill="#3962E6" fill-rule="nonzero"></path>
                </g>
            </g>
        </g>
    </g>
</svg>