<?xml version="1.0" encoding="UTF-8"?>
<svg width="22px" height="19px" viewBox="0 0 22 19" version="1.1" xmlns="http://www.w3.org/2000/svg" xmlns:xlink="http://www.w3.org/1999/xlink">
    <!-- Generator: sketchtool 52.1 (67048) - http://www.bohemiancoding.com/sketch -->
    <title>4253EAE4-65AF-4959-BD52-750F0D7A8EED</title>
    <desc>Created with sketchtool.</desc>
    <g id="Agenda-2" stroke="none" stroke-width="1" fill="none" fill-rule="evenodd">
        <g id="Paciente-003" transform="translate(-1138.000000, -345.000000)" fill="#3962E6">
            <g id="Group-2" transform="translate(492.000000, 306.000000)">
                <g id="Group-5">
                    <g id="Group-4">
                        <g id="Prestacion" transform="translate(226.000000, 0.000000)">
                            <g id="upload-2" transform="translate(421.000000, 40.000000)">
                                <path d="M18.4743515,6.72100418 C18.5366527,6.38707113 18.5682008,6.04811715 18.5686192,5.70841004 C18.5648117,2.55338912 16.0041004,-0.00117154812 12.8490795,0.00259414226 C10.4473222,0.00548117155 8.30389121,1.51029289 7.48531381,3.76824268 C6.01966527,3.18481172 4.35853556,3.89995816 3.77506276,5.36560669 C3.72456067,5.49246862 3.68322176,5.62276151 3.65138075,5.75552301 C1.31112971,6.10552301 -0.302259414,8.28640167 0.0477405858,10.6266527 C0.361631799,12.725523 2.16472803,14.2783264 4.28690377,14.2774477 L7.05732218,14.2774477 C7.45171548,14.2774477 7.77142259,13.9577406 7.77142259,13.5633473 C7.77142259,13.168954 7.45171548,12.8492469 7.05732218,12.8492469 L4.28690377,12.8492469 C2.70937238,12.8492469 1.43054393,11.5704184 1.43054393,9.99288703 C1.43054393,8.41535565 2.70937238,7.1365272 4.28690377,7.1365272 C4.68129707,7.1365272 5.00100418,6.81682008 5.00100418,6.42242678 C5.00230126,5.63368201 5.64276151,4.99531381 6.43150628,4.99661088 C6.80451883,4.99723849 7.16251046,5.14376569 7.42887029,5.40485356 C7.70974895,5.68167364 8.16188285,5.6783682 8.43870293,5.39748954 C8.54263598,5.29200837 8.61121339,5.15686192 8.63493724,5.01066946 C9.0225523,2.67874477 11.2271548,1.10259414 13.5590795,1.49020921 C15.8910042,1.87782427 17.4671548,4.08242678 17.0795397,6.41435146 C17.0564435,6.55338912 17.0264435,6.69121339 16.989749,6.82728033 C16.9076569,7.12535565 17.0266946,7.44238494 17.2846862,7.61276151 C18.5991632,8.48493724 18.9576987,10.2576151 18.0854812,11.5720921 C17.5575732,12.3676987 16.6670711,12.8469038 15.7122594,12.8491632 L14.37,12.8491632 C13.9756067,12.8491632 13.6558996,13.1688703 13.6558996,13.5632636 C13.6558996,13.9576569 13.9756067,14.277364 14.37,14.277364 L15.7122594,14.277364 C18.0785356,14.2751464 19.9949791,12.3550628 19.9927197,9.98878661 C19.9915481,8.72937238 19.4362343,7.53414226 18.4743515,6.72100418 Z" id="Path" stroke="#3962E6" stroke-width="0.3"></path>
                                <path d="M14.788954,10.2021757 L11.2185356,6.63175732 C11.1520502,6.5651046 11.072887,6.51242678 10.9857322,6.47682008 C10.811046,6.40460251 10.6148536,6.40460251 10.4401674,6.47682008 C10.3530126,6.51246862 10.2738912,6.56514644 10.207364,6.63175732 L6.63694561,10.2021757 C6.36297071,10.4858577 6.37083682,10.9379079 6.65451883,11.2118828 C6.93125523,11.4791213 7.36995816,11.4791213 7.64665272,11.2118828 L9.99958159,8.86037657 L9.99958159,16.5487524 C9.99958159,16.9431457 10.3192887,17.2628528 10.713682,17.2628528 C11.1080753,17.2628528 11.4277824,16.9431457 11.4277824,16.5487524 L11.4277824,8.86041841 L13.7792887,11.2119247 C14.0629707,11.4858996 14.5150209,11.4780335 14.7889958,11.1943515 C15.0562343,10.9176151 15.0562343,10.4788703 14.788954,10.2021757 Z" id="Path"></path>
                            </g>
                        </g>
                    </g>
                </g>
            </g>
        </g>
    </g>
</svg>