<?xml version="1.0" encoding="UTF-8"?>
<svg width="19px" height="19px" viewBox="0 0 19 19" version="1.1" xmlns="http://www.w3.org/2000/svg" xmlns:xlink="http://www.w3.org/1999/xlink">
    <!-- Generator: sketchtool 52.1 (67048) - http://www.bohemiancoding.com/sketch -->
    <title>8E8675A5-5856-4605-8ABF-82C8ECAB285F</title>
    <desc>Created with sketchtool.</desc>
    <g id="PARTE-4" stroke="none" stroke-width="1" fill="none" fill-rule="evenodd">
        <g id="Editar-Reg-007" transform="translate(-1451.000000, -289.000000)" fill="#3962E6" fill-rule="nonzero">
            <g id="yes-icon" transform="translate(1451.000000, 289.000000)">
                <g id="Icon">
                    <path d="M9.5,0 C4.256,0 0,4.256 0,9.5 C0,14.744 4.256,19 9.5,19 C14.744,19 19,14.744 19,9.5 C19,4.256 14.744,0 9.5,0 Z M9.5,17.1 C5.3105,17.1 1.9,13.6895 1.9,9.5 C1.9,5.3105 5.3105,1.9 9.5,1.9 C13.6895,1.9 17.1,5.3105 17.1,9.5 C17.1,13.6895 13.6895,17.1 9.5,17.1 Z M13.186,5.9755 L7.6,11.5615 L5.814,9.7755 C5.44410729,9.40560729 4.84439271,9.40560729 4.4745,9.7755 C4.10460729,10.1453927 4.10460729,10.7451073 4.4745,11.115 L6.935,13.5755 C7.3055,13.946 7.904,13.946 8.2745,13.5755 L14.535,7.315 C14.7128667,7.13749763 14.8128218,6.896534 14.8128218,6.64525 C14.8128218,6.393966 14.7128667,6.15300237 14.535,5.9755 C14.1645,5.605 13.5565,5.605 13.186,5.9755 Z" id="Icon-Shape"></path>
                </g>
            </g>
        </g>
    </g>
</svg>