<?xml version="1.0" encoding="UTF-8"?>
<svg width="15px" height="15px" viewBox="0 0 15 15" version="1.1" xmlns="http://www.w3.org/2000/svg" xmlns:xlink="http://www.w3.org/1999/xlink">
    <!-- Generator: sketchtool 52.1 (67048) - http://www.bohemiancoding.com/sketch -->
    <title>6D09132F-5DF8-4931-8371-77EBFD22A0C9</title>
    <desc>Created with sketchtool.</desc>
    <g id="*Ajustes" stroke="none" stroke-width="1" fill="none" fill-rule="evenodd">
        <g id="Ajustes-012" transform="translate(-79.000000, -851.000000)" fill="#CED8E1" fill-rule="nonzero">
            <g id="Teléfonos-2-Copy-2" transform="translate(78.000000, 851.000000)">
                <g id="Icon" transform="translate(0.686203, 0.432393)">
                    <path d="M12.6535756,7.55463304 C12.502611,7.55463304 12.3447844,7.5065581 12.1938199,7.47221886 C11.8881051,7.40479368 11.587676,7.31527707 11.2948945,7.20437278 C10.6356255,6.9643286 9.90161077,7.26055342 9.59311208,7.8911576 L9.44214751,8.20021077 C8.7737878,7.82809577 8.15962323,7.36592608 7.61684865,6.82664113 C7.07802089,6.283406 6.61624302,5.66872032 6.24444349,4.9997935 L6.53264857,4.80749375 C7.16271814,4.4987333 7.45869183,3.76409574 7.21885115,3.10426739 C7.10989724,2.81061341 7.02049526,2.51005963 6.95123214,2.20457928 C6.91692201,2.05348662 6.88947391,1.89552611 6.86888783,1.7375656 C6.69673186,0.738137429 5.82348512,0.0127276529 4.81028009,0.0274713929 L2.75167235,0.0274713929 C2.15326144,0.0218479035 1.58202458,0.277123479 1.18673962,0.726811949 C0.791454669,1.17650042 0.6112518,1.77608606 0.693064607,2.36940763 C1.44509591,8.28829863 6.11256099,12.9427576 12.0291312,13.6738858 L12.2898882,13.6738858 C12.7959044,13.6746288 13.2844681,13.488817 13.6622934,13.1519293 C14.1014169,12.7588435 14.3512263,12.1962955 14.348496,11.6066635 L14.348496,9.54630902 C14.331162,8.56253134 13.6212361,7.72830783 12.6535756,7.55463304 Z M12.9966769,11.675342 C12.9964273,11.8726052 12.9114397,12.0602369 12.763368,12.1904306 C12.6083273,12.3244045 12.4040321,12.3867424 12.2006819,12.3621268 C6.9141977,11.6837213 2.75936783,7.50557789 2.10664192,2.21144713 C2.08457265,2.00815455 2.1465565,1.804675 2.27819257,1.64828357 C2.40827588,1.50008622 2.59574849,1.41502653 2.7928445,1.41477673 L4.85145225,1.41477673 C5.18061869,1.40744624 5.46859424,1.63513995 5.53765483,1.95733674 C5.56510293,2.14505793 5.59941306,2.33048983 5.64058521,2.51363245 C5.71985498,2.87566701 5.82535148,3.231446 5.9562384,3.57814892 L4.99555479,4.02455905 C4.82965572,4.10074012 4.70091821,4.23993399 4.63781754,4.41135257 C4.57471687,4.58277114 4.58245327,4.77228753 4.65931552,4.93798287 C5.6468987,7.05517227 7.34733909,8.75705548 9.46273359,9.74547662 C9.6297974,9.81416748 9.81718374,9.81416748 9.98424755,9.74547662 C10.1571093,9.68359359 10.2979865,9.55496495 10.375383,9.38834851 L10.8008286,8.42684976 C11.1555721,8.55382056 11.5176261,8.65931811 11.8850287,8.74277078 C12.0680161,8.78397787 12.2532908,8.81831711 12.4408528,8.8457885 C12.7627764,8.91490769 12.9902771,9.20312758 12.9829528,9.53257332 L12.9966769,11.675342 Z" id="Icon-Shape"></path>
                </g>
            </g>
        </g>
    </g>
</svg>