<?xml version="1.0" encoding="UTF-8"?>
<svg width="26px" height="27px" viewBox="0 0 26 27" version="1.1" xmlns="http://www.w3.org/2000/svg" xmlns:xlink="http://www.w3.org/1999/xlink">
    <!-- Generator: sketchtool 52.1 (67048) - http://www.bohemiancoding.com/sketch -->
    <title>22900BDF-F726-487C-9155-7E91629BD7A5</title>
    <desc>Created with sketchtool.</desc>
    <g id="*CRM" stroke="none" stroke-width="1" fill="none" fill-rule="evenodd">
        <g id="Demanda-Inducida-012" transform="translate(-156.000000, -737.000000)" fill="#3962E6" fill-rule="nonzero">
            <g id="terapias" transform="translate(156.000000, 737.194093)">
                <path d="M15.7320968,0 C14.6694516,0 13.6705484,0.413903226 12.9194839,1.16496774 L12.5806452,1.50380645 L12.2418065,1.16496774 C11.4907419,0.413903226 10.4918387,0 9.42919355,0 C7.23596774,0 5.4516129,1.78435484 5.4516129,3.97758065 C5.4516129,5.04022581 5.86551613,6.03912903 6.61658065,6.79019355 L12.5806452,12.7542581 L18.5447097,6.79019355 C19.2957742,6.03912903 19.7096774,5.04022581 19.7096774,3.97758065 C19.7096774,1.78435484 17.9253226,0 15.7320968,0 Z M18.4956452,5.4516129 L17.1935484,5.4516129 L17.1935484,6.29032258 L17.8586452,6.29032258 L12.5806452,11.5683226 L7.20954839,6.19722581 C6.87532258,5.86258065 6.62916129,5.4646129 6.47483871,5.03225806 L8.93519355,5.03225806 L10.4712903,9.12851613 L12.2367742,4.71522581 L13.182,6.29032258 L16.3548387,6.29032258 L16.3548387,5.4516129 L13.6567097,5.4516129 L12.0858065,2.83358065 L10.4964516,6.8073871 L9.51641935,4.19354839 L6.30080645,4.19354839 C6.29619355,4.12183871 6.29032258,4.05012903 6.29032258,3.97758065 C6.29032258,2.24690323 7.69851613,0.838709677 9.42919355,0.838709677 C10.2679032,0.838709677 11.055871,1.1653871 11.6488387,1.75793548 L12.5806452,2.68974194 L13.5124516,1.75793548 C14.1054194,1.1653871 14.8933871,0.838709677 15.7320968,0.838709677 C17.4627742,0.838709677 18.8709677,2.24690323 18.8709677,3.97758065 C18.8709677,4.50135484 18.7363548,5.00248387 18.4956452,5.4516129 Z" id="Shape"></path>
                <path d="M24.3225806,15.5157097 L24.3225806,12.9995806 L22.6451613,12.9995806 L22.6451613,10.9028065 L20.1290323,10.9028065 L20.1290323,15.0963548 L17.1935484,15.0963548 L17.1935484,14.677 C17.1935484,13.9833871 16.6290968,13.4189355 15.9354839,13.4189355 C15.6121613,13.4189355 15.319871,13.5451613 15.0967742,13.7460323 C14.8736774,13.5447419 14.5813871,13.4189355 14.2580645,13.4189355 C13.9347419,13.4189355 13.6424516,13.5451613 13.4193548,13.7460323 C13.1962581,13.5447419 12.9039677,13.4189355 12.5806452,13.4189355 C12.2573226,13.4189355 11.9650323,13.5451613 11.7419355,13.7460323 C11.5188387,13.5447419 11.2265484,13.4189355 10.9032258,13.4189355 C10.2096129,13.4189355 9.64516129,13.9833871 9.64516129,14.677 C9.22329032,14.677 8.84209677,14.838871 8.54687097,15.0967742 L5.87096774,15.0963548 L5.87096774,10.9028065 L3.35483871,10.9028065 L3.35483871,12.9995806 L1.67741935,12.9995806 L1.67741935,15.5157097 L0,15.5157097 L0,18.0318387 L1.67741935,18.0318387 L1.67741935,20.5479677 L3.35483871,20.5479677 L3.35483871,22.6447419 L5.87096774,22.6447419 L5.87096774,18.4511935 L7.96774194,18.4511935 L7.96774194,20.0267097 C7.96774194,20.4745806 8.14219355,20.8960323 8.45922581,21.2130645 L9.39941935,22.1532581 C9.55583871,22.3092581 9.64516129,22.5256452 9.64516129,22.7462258 L9.64516129,25.1612903 L7.96774194,25.1612903 L7.96774194,26 L17.6129032,26 L17.6129032,25.1612903 L15.9354839,25.1612903 L15.9354839,22.9198387 C15.9354839,22.5885484 16.0696774,22.2648065 16.3036774,22.0308065 L16.5796129,21.7552903 C16.9754839,21.359 17.1935484,20.8322903 17.1935484,20.2724516 L17.1935484,18.4511935 L20.1290323,18.4511935 L20.1290323,22.6447419 L22.6451613,22.6447419 L22.6451613,20.5479677 L24.3225806,20.5479677 L24.3225806,18.0318387 L26,18.0318387 L26,15.5157097 L24.3225806,15.5157097 Z M1.67741935,17.193129 L0.838709677,17.193129 L0.838709677,16.3544194 L1.67741935,16.3544194 L1.67741935,17.193129 Z M5.03225806,21.8060323 L4.19354839,21.8060323 L4.19354839,15.516129 L3.35483871,15.516129 L3.35483871,19.7092581 L2.51612903,19.7092581 L2.51612903,13.8382903 L3.35483871,13.8382903 L3.35483871,14.6774194 L4.19354839,14.6774194 L4.19354839,11.7415161 L5.03225806,11.7415161 L5.03225806,21.8060323 Z M7.96774194,16.3544194 L7.96774194,17.6124839 L5.87096774,17.6124839 L5.87096774,15.9350645 L8.02729032,15.9354839 C7.99206452,16.0700968 7.96774194,16.2089032 7.96774194,16.3544194 Z M13.8387097,14.677 C13.8387097,14.4455161 14.027,14.2576452 14.2580645,14.2576452 C14.489129,14.2576452 14.6774194,14.4455161 14.6774194,14.677 L14.6774194,17.1935484 C14.6774194,17.4250323 14.489129,17.6129032 14.2580645,17.6129032 C14.027,17.6129032 13.8387097,17.4250323 13.8387097,17.1935484 L13.8387097,14.677 Z M12.1612903,16.8660323 C12.4166774,16.6358065 12.5806452,16.3053548 12.5806452,15.9350645 C12.5806452,15.5647742 12.4166774,15.2347419 12.1612903,15.0040968 L12.1612903,14.677 C12.1612903,14.4455161 12.3495806,14.2576452 12.5806452,14.2576452 C12.8117097,14.2576452 13,14.4455161 13,14.677 L13,17.1935484 C13,17.4250323 12.8117097,17.6129032 12.5806452,17.6129032 C12.3495806,17.6129032 12.1612903,17.4250323 12.1612903,17.1935484 L12.1612903,16.8660323 Z M10.9032258,14.2576452 C11.1342903,14.2576452 11.3225806,14.4455161 11.3225806,14.677 L10.483871,14.677 C10.483871,14.4455161 10.6721613,14.2576452 10.9032258,14.2576452 Z M16.3548387,20.2720323 C16.3548387,20.6083548 16.224,20.924129 15.9866452,21.1619032 L15.7107097,21.4374194 C15.3148387,21.8332903 15.0967742,22.3595806 15.0967742,22.9198387 L15.0967742,25.1612903 L10.483871,25.1612903 L10.483871,22.7462258 C10.483871,22.3042258 10.3048065,21.8722903 9.9923871,21.5602903 L9.05219355,20.6200968 C8.89367742,20.4615806 8.80645161,20.2506452 8.80645161,20.0267097 L8.80645161,16.3544194 C8.80645161,15.891871 9.1826129,15.5157097 9.64516129,15.5157097 L11.3225806,15.5157097 C11.5536452,15.5157097 11.7419355,15.7035806 11.7419355,15.9350645 C11.7419355,16.1665484 11.5536452,16.3544194 11.3225806,16.3544194 L9.64516129,16.3544194 L9.64516129,16.7741935 L9.64516129,17.0941613 L9.64516129,17.1935484 C9.64516129,17.3176774 9.66864516,17.4355161 9.7026129,17.5487419 C9.83387097,18.0968387 10.1953548,18.5656774 10.7157742,18.8260968 C11.0902581,19.0135484 11.3225806,19.3892903 11.3225806,19.8082258 L11.3225806,20.9673226 L12.1612903,20.9673226 L12.1612903,19.8082258 C12.1612903,19.2186129 11.8970968,18.6805806 11.4559355,18.3178387 C11.5603548,18.2662581 11.6563871,18.2012581 11.7419355,18.1240968 C11.9650323,18.3253871 12.2573226,18.4511935 12.5806452,18.4511935 C12.9039677,18.4511935 13.1962581,18.3249677 13.4193548,18.1240968 C13.6424516,18.3253871 13.9347419,18.4511935 14.2580645,18.4511935 C14.5813871,18.4511935 14.8736774,18.3249677 15.0967742,18.1240968 C15.319871,18.3253871 15.6121613,18.4511935 15.9354839,18.4511935 C16.0830968,18.4511935 16.2231613,18.421 16.3548387,18.3740323 L16.3548387,20.2720323 Z M11.3225806,17.1935484 C11.3225806,17.4250323 11.1342903,17.6129032 10.9032258,17.6129032 C10.7367419,17.6129032 10.595,17.5135161 10.5274839,17.3721935 C10.5119677,17.3130645 10.4935161,17.2547742 10.4880645,17.193129 L11.3225806,17.1935484 Z M16.3548387,16.7737742 L16.3548387,17.1935484 C16.3548387,17.4250323 16.1665484,17.6129032 15.9354839,17.6129032 C15.7044194,17.6129032 15.516129,17.4250323 15.516129,17.1935484 L15.516129,14.677 C15.516129,14.4455161 15.7044194,14.2576452 15.9354839,14.2576452 C16.1665484,14.2576452 16.3548387,14.4455161 16.3548387,14.677 L16.3548387,16.7737742 Z M20.1290323,17.6124839 L17.1935484,17.6124839 L17.1935484,17.1935484 L17.1935484,16.7737742 L17.1935484,15.9350645 L20.1290323,15.9350645 L20.1290323,17.6124839 Z M23.483871,19.7092581 L22.6451613,19.7092581 L22.6451613,18.8709677 L21.8064516,18.8709677 L21.8064516,21.8060323 L20.9677419,21.8060323 L20.9677419,11.7415161 L21.8064516,11.7415161 L21.8064516,18.0322581 L22.6451613,18.0322581 L22.6451613,13.8382903 L23.483871,13.8382903 L23.483871,19.7092581 Z M25.1612903,17.193129 L24.3225806,17.193129 L24.3225806,16.3544194 L25.1612903,16.3544194 L25.1612903,17.193129 Z" id="Shape"></path>
            </g>
        </g>
    </g>
</svg>