<?xml version="1.0" encoding="UTF-8"?>
<svg width="24px" height="24px" viewBox="0 0 24 24" version="1.1" xmlns="http://www.w3.org/2000/svg" xmlns:xlink="http://www.w3.org/1999/xlink">
    <!-- Generator: sketchtool 52.1 (67048) - http://www.bohemiancoding.com/sketch -->
    <title>A24742A1-EE3E-47FC-96D6-9EDAED986C5E</title>
    <desc>Created with sketchtool.</desc>
    <g id="Parte-1-+" stroke="none" stroke-width="1" fill="none" fill-rule="evenodd">
        <g id="Mod-Plani-00" transform="translate(-1516.000000, -629.000000)" fill="#CED8E1" fill-rule="nonzero">
            <g id="Consulta-planificaciones" transform="translate(95.000000, 626.000000)">
                <g id="uil-presentation-line" transform="translate(1421.000000, 3.000000)">
                    <g id="Icon">
                        <path d="M22.2857143,14.2857143 L21.1428571,14.2857143 L21.1428571,1.71428571 C21.1428571,1.08310314 20.6311826,0.571428571 20,0.571428571 L4,0.571428571 C3.36881743,0.571428571 2.85714286,1.08310314 2.85714286,1.71428571 L2.85714286,14.2857143 L1.71428571,14.2857143 C1.08310314,14.2857143 0.571428571,14.7973889 0.571428571,15.4285714 C0.571428571,16.059754 1.08310314,16.5714286 1.71428571,16.5714286 L10.8571429,16.5714286 L10.8571429,17.8857143 L5.65714286,21.3142857 C5.21858932,21.5857539 5.0162125,22.1173254 5.16319314,22.6117148 C5.31017377,23.1061042 5.77008345,23.4407796 6.28571429,23.4285714 C6.51040065,23.4311403 6.73023678,23.3631909 6.91428571,23.2342857 L10.8571429,20.6285714 L10.8571429,22.2857143 C10.8571429,22.9168969 11.3688174,23.4285714 12,23.4285714 C12.6311826,23.4285714 13.1428571,22.9168969 13.1428571,22.2857143 L13.1428571,20.6285714 L17.0857143,23.2342857 C17.2697632,23.3631909 17.4895994,23.4311403 17.7142857,23.4285714 C18.2154931,23.4247025 18.655692,23.0947063 18.7999578,22.6146946 C18.9442236,22.1346829 18.7588866,21.6166841 18.3428571,21.3371429 L13.1428571,17.9085714 L13.1428571,16.5714286 L22.2857143,16.5714286 C22.9168969,16.5714286 23.4285714,16.059754 23.4285714,15.4285714 C23.4285714,14.7973889 22.9168969,14.2857143 22.2857143,14.2857143 Z M18.8571429,14.2857143 L5.14285714,14.2857143 L5.14285714,2.85714286 L18.8571429,2.85714286 L18.8571429,14.2857143 Z M8.57142857,12 C8.95373611,11.9980221 9.30973316,11.8050117 9.52,11.4857143 L11.04,9.2 L12.3314286,10.5028571 C12.574275,10.7472108 12.9143902,10.8689804 13.2571429,10.8342857 C13.5983607,10.7968483 13.9046802,10.6080212 14.0914286,10.32 L16.3771429,6.89142857 C16.6560907,6.37139871 16.49324,5.72449929 16.0013197,5.39852797 C15.5093993,5.07255665 14.8501854,5.17471453 14.48,5.63428571 L12.96,7.92 L11.6685714,6.61714286 C11.425725,6.37278921 11.0856098,6.25101958 10.7428571,6.28571429 C10.4016393,6.32315171 10.0953198,6.51197879 9.90857143,6.8 L7.62285714,10.2285714 C7.27857454,10.7530088 7.4214,11.4569343 7.94285714,11.8057143 C8.12690608,11.9346195 8.34674221,12.0025688 8.57142857,12 Z" id="Icon-Shape"></path>
                    </g>
                </g>
            </g>
        </g>
    </g>
</svg>