<?xml version="1.0" encoding="UTF-8"?>
<svg width="20px" height="20px" viewBox="0 0 20 20" version="1.1" xmlns="http://www.w3.org/2000/svg" xmlns:xlink="http://www.w3.org/1999/xlink">
    <!-- Generator: sketchtool 52.1 (67048) - http://www.bohemiancoding.com/sketch -->
    <title>ADE7880E-5CE9-4565-B650-C8FCC70001B2</title>
    <desc>Created with sketchtool.</desc>
    <g id="Parte-1-+" stroke="none" stroke-width="1" fill="none" fill-rule="evenodd">
        <g id="Profesionales-02" transform="translate(-85.000000, -946.000000)">
            <g id="uil-parcel-copy-2" transform="translate(83.000000, 944.000000)">
                <g id="Icon" transform="translate(2.000000, 2.000000)" fill="#DBE0E4" fill-rule="nonzero">
                    <path d="M5,12 L7,12 C7.55228475,12 8,11.5522847 8,11 C8,10.4477153 7.55228475,10 7,10 L5,10 C4.44771525,10 4,10.4477153 4,11 C4,11.5522847 4.44771525,12 5,12 Z M11,14 L5,14 C4.44771525,14 4,14.4477153 4,15 C4,15.5522847 4.44771525,16 5,16 L11,16 C11.5522847,16 12,15.5522847 12,15 C12,14.4477153 11.5522847,14 11,14 Z M17,4.4408921e-16 L3,4.4408921e-16 C1.34314575,0 4.4408921e-16,1.34314575 0,3 L0,17 C4.4408921e-16,18.6568542 1.34314575,20 3,20 L17,20 C18.6568542,20 20,18.6568542 20,17 L20,3 C20,1.34314575 18.6568542,0 17,4.4408921e-16 Z M12,2 L12,5.29 L10.49,4.45 C10.1805989,4.27136721 9.79940108,4.27136721 9.49,4.45 L8,5.29 L8,2 L12,2 Z M18,17 C18,17.5522847 17.5522847,18 17,18 L3,18 C2.44771525,18 2,17.5522847 2,17 L2,3 C2,2.44771525 2.44771525,2 3,2 L6,2 L6,7 C6.00214346,7.35511106 6.19245546,7.6824477 6.5,7.86 C6.80940108,8.03863279 7.19059892,8.03863279 7.5,7.86 L10,6.47 L12.51,7.87 C12.6594557,7.95470231 12.8282117,7.99947433 13,8 C13.5522847,8 14,7.55228475 14,7 L14,2 L17,2 C17.5522847,2 18,2.44771525 18,3 L18,17 Z" id="Icon-Shape"></path>
                </g>
                <rect id="ViewBox" x="0" y="0" width="24" height="24"></rect>
            </g>
        </g>
    </g>
</svg>