<?xml version="1.0" encoding="UTF-8"?>
<svg width="21px" height="21px" viewBox="0 0 21 21" version="1.1" xmlns="http://www.w3.org/2000/svg" xmlns:xlink="http://www.w3.org/1999/xlink">
    <!-- Generator: Sketch 52.1 (67048) - http://www.bohemiancoding.com/sketch -->
    <title>Icon Shape</title>
    <desc>Created with Sketch.</desc>
    <g id="Agenda-4" stroke="none" stroke-width="1" fill="none" fill-rule="evenodd">
        <g id="agenda-0035" transform="translate(-1437.000000, -258.000000)" fill="#F5AD70" fill-rule="nonzero">
            <path d="M1447.10167,271.072 C1446.40429,271.072 1445.83896,271.637334 1445.83896,272.334708 C1445.83896,273.032083 1446.40429,273.597417 1447.10167,273.597417 C1447.79904,273.597417 1448.36438,273.032083 1448.36438,272.334708 C1448.36438,271.637334 1447.79904,271.072 1447.10167,271.072 Z M1447.10167,269.55675 C1447.65957,269.55675 1448.11183,269.104483 1448.11183,268.546583 L1448.11183,263.616083 C1448.11183,263.058184 1447.65957,262.605917 1447.10167,262.605917 C1446.54377,262.605917 1446.0915,263.058184 1446.0915,263.616083 L1446.0915,268.546583 C1446.0915,269.104483 1446.54377,269.55675 1447.10167,269.55675 Z M1447.10167,258 C1441.52267,258 1437,262.52267 1437,268.101667 C1437,273.680663 1441.52267,278.203333 1447.10167,278.203333 C1452.68066,278.203333 1457.20333,273.680663 1457.20333,268.101667 C1457.19721,262.525209 1452.67812,258.006124 1447.10167,258 Z M1447.10167,276.183 C1442.63847,276.183 1439.02033,272.564864 1439.02033,268.101667 C1439.02033,263.63847 1442.63847,260.020333 1447.10167,260.020333 C1451.56486,260.020333 1455.183,263.63847 1455.183,268.101667 C1455.17743,272.562556 1451.56256,276.177434 1447.10167,276.183 Z" id="Icon-Shape" transform="translate(1447.101667, 268.101667) rotate(-180.000000) translate(-1447.101667, -268.101667) "></path>
        </g>
    </g>
</svg>