<?xml version="1.0" encoding="UTF-8"?>
<svg width="25px" height="25px" viewBox="0 0 25 25" version="1.1" xmlns="http://www.w3.org/2000/svg" xmlns:xlink="http://www.w3.org/1999/xlink">
    <!-- Generator: sketchtool 52.1 (67048) - http://www.bohemiancoding.com/sketch -->
    <title>D0FB2076-EF9A-4B6D-A30A-CFE8526A61AB</title>
    <desc>Created with sketchtool.</desc>
    <g id="Parte-2-+" stroke="none" stroke-width="1" fill="none" fill-rule="evenodd">
        <g id="Nueva-Pla-004-1" transform="translate(-1583.000000, -1539.000000)" fill="#CED8E1" fill-rule="nonzero">
            <g id="Group-11" transform="translate(1412.000000, 1537.000000)">
                <g id="Group-10-Copy-4" transform="translate(169.000000, 0.000000)">
                    <g id="uil-edit-alt">
                        <g id="Icon">
                            <path d="M6.04166667,21.75 L11.165,21.75 C11.4861786,21.7518569 11.7948814,21.625767 12.0229167,21.3995833 L20.3845833,13.0258333 L23.81625,9.66666667 C24.0450028,9.43978203 24.173673,9.13093702 24.173673,8.80875 C24.173673,8.48656298 24.0450028,8.17771797 23.81625,7.95083333 L18.6929167,2.76708333 C18.466032,2.53833055 18.157187,2.40966036 17.835,2.40966036 C17.512813,2.40966036 17.203968,2.53833055 16.9770833,2.76708333 L13.5695833,6.18666667 L5.18375,14.5604167 C4.9575663,14.7884519 4.83147642,15.0971547 4.83333333,15.4183333 L4.83333333,20.5416667 C4.83333333,21.2090107 5.37432259,21.75 6.04166667,21.75 Z M17.835,5.32875 L21.2545833,8.74833333 L19.53875,10.4641667 L16.1191667,7.04458333 L17.835,5.32875 Z M7.25,15.91375 L14.4154167,8.74833333 L17.835,12.1679167 L10.6695833,19.3333333 L7.25,19.3333333 L7.25,15.91375 Z M25.375,24.1666667 L3.625,24.1666667 C2.95765593,24.1666667 2.41666667,24.7076559 2.41666667,25.375 C2.41666667,26.0423441 2.95765593,26.5833333 3.625,26.5833333 L25.375,26.5833333 C26.0423441,26.5833333 26.5833333,26.0423441 26.5833333,25.375 C26.5833333,24.7076559 26.0423441,24.1666667 25.375,24.1666667 Z" id="Icon-Shape"></path>
                        </g>
                    </g>
                </g>
            </g>
        </g>
    </g>
</svg>