<?xml version="1.0" encoding="UTF-8"?>
<svg width="20px" height="20px" viewBox="0 0 20 20" version="1.1" xmlns="http://www.w3.org/2000/svg" xmlns:xlink="http://www.w3.org/1999/xlink">
    <!-- Generator: sketchtool 52.1 (67048) - http://www.bohemiancoding.com/sketch -->
    <title>3772BD54-BED1-4A0A-87F6-F1A326BF56D2</title>
    <desc>Created with sketchtool.</desc>
    <g id="Agenda-5" stroke="none" stroke-width="1" fill="none" fill-rule="evenodd">
        <g id="agenda-0051-8" transform="translate(-1127.000000, -623.000000)" fill="#CED8E1" fill-rule="nonzero">
            <g id="uil-exclamation-circle" transform="translate(1137.000000, 633.000000) rotate(-180.000000) translate(-1137.000000, -633.000000) translate(1127.000000, 623.000000)">
                <g id="Icon">
                    <path d="M10,12.9333333 C9.33265593,12.9333333 8.79166667,13.4743226 8.79166667,14.1416667 C8.79166667,14.8090107 9.33265593,15.35 10,15.35 C10.6673441,15.35 11.2083333,14.8090107 11.2083333,14.1416667 C11.2083333,13.4743226 10.6673441,12.9333333 10,12.9333333 Z M10,11.4833333 C10.5338753,11.4833333 10.9666667,11.0505419 10.9666667,10.5166667 L10.9666667,6 C10.9666667,5.46612474 10.5338753,5.03333333 10,5.03333333 C9.46612474,5.03333333 9.03333333,5.46612474 9.03333333,6 L9.03333333,10.5166667 C9.03333333,11.0505419 9.46612474,11.4833333 10,11.4833333 Z M10,0.333333333 C4.66124742,0.333333333 0.333333333,4.66124742 0.333333333,10 C0.333333333,15.3387526 4.66124742,19.6666667 10,19.6666667 C15.3387526,19.6666667 19.6666667,15.3387526 19.6666667,10 C19.6608064,4.66367672 15.3363233,0.339193625 10,0.333333333 Z M10,17.7333333 C5.72899793,17.7333333 2.26666667,14.2710021 2.26666667,10 C2.26666667,5.72899793 5.72899793,2.26666667 10,2.26666667 C14.2710021,2.26666667 17.7333333,5.72899793 17.7333333,10 C17.7280073,14.268794 14.268794,17.7280073 10,17.7333333 Z" id="Icon-Shape"></path>
                </g>
            </g>
        </g>
    </g>
</svg>