<?xml version="1.0" encoding="UTF-8"?>
<svg width="15px" height="15px" viewBox="0 0 15 15" version="1.1" xmlns="http://www.w3.org/2000/svg" xmlns:xlink="http://www.w3.org/1999/xlink">
    <!-- Generator: sketchtool 52.1 (67048) - http://www.bohemiancoding.com/sketch -->
    <title>FF9EB77E-0B9D-47CC-AB9B-DEB45609FC2D</title>
    <desc>Created with sketchtool.</desc>
    <g id="Parte-2-+" stroke="none" stroke-width="1" fill="none" fill-rule="evenodd">
        <g id="Nueva-Pla-003" transform="translate(-1414.000000, -579.000000)">
            <g id="uil-refresh" transform="translate(1411.000000, 575.000000)">
                <g id="Icon" transform="translate(3.000000, 4.000000)" fill="#2FCC71" fill-rule="nonzero">
                    <path d="M13.4325,10.1325 L10.035,10.1325 C9.62078645,10.1325 9.28500003,10.4682864 9.28500003,10.8825 C9.28500003,11.2967136 9.62078645,11.6325 10.035,11.6325 L11.835,11.6325 C10.1425498,13.4011706 7.54533425,13.9643057 5.27233246,13.0554349 C2.99933068,12.1465641 1.50640719,9.94796696 1.5,7.5 C1.5,7.08578644 1.16421356,6.75 0.75,6.75 C0.335786438,6.75 0,7.08578644 0,7.5 C0.00810382108,10.4934084 1.79541718,13.1953418 4.54705663,14.3739172 C7.29869607,15.5524927 10.487654,14.9819835 12.66,12.9225 L12.66,14.25 C12.66,14.6642136 12.9957864,15 13.41,15 C13.8242136,15 14.16,14.6642136 14.16,14.25 L14.16,10.875 C14.1561538,10.4723303 13.8350074,10.1445623 13.4325,10.1325 Z M7.5,3.33066907e-16 C5.57728924,0.00548414457 3.73011771,0.749185472 2.34,2.0775 L2.34,0.75 C2.34,0.335786438 2.00421356,3.33066907e-16 1.59,3.33066907e-16 C1.17578644,3.33066907e-16 0.84,0.335786438 0.84,0.75 L0.84,4.125 C0.84,4.53921356 1.17578644,4.875 1.59,4.875 L4.965,4.875 C5.37921356,4.875 5.715,4.53921356 5.715,4.125 C5.715,3.71078644 5.37921356,3.375 4.965,3.375 L3.165,3.375 C4.8565024,1.60729926 7.45189409,1.04370131 9.72420483,1.95064681 C11.9965156,2.85759232 13.4905484,5.0533989 13.5,7.5 C13.5,7.91421356 13.8357864,8.25 14.25,8.25 C14.6642136,8.25 15,7.91421356 15,7.5 C15,5.51087633 14.2098237,3.60322198 12.8033009,2.19669914 C11.396778,0.790176303 9.48912367,1.66533454e-16 7.5,3.33066907e-16 Z" id="Icon-Shape"></path>
                </g>
                <rect id="ViewBox" x="0" y="0" width="24" height="24"></rect>
            </g>
        </g>
    </g>
</svg>