<?xml version="1.0" encoding="UTF-8"?>
<svg width="26px" height="27px" viewBox="0 0 26 27" version="1.1" xmlns="http://www.w3.org/2000/svg" xmlns:xlink="http://www.w3.org/1999/xlink">
    <!-- Generator: sketchtool 52.1 (67048) - http://www.bohemiancoding.com/sketch -->
    <title>AADD24F9-32C1-4412-B559-931F609C916D</title>
    <desc>Created with sketchtool.</desc>
    <g id="*CRM" stroke="none" stroke-width="1" fill="none" fill-rule="evenodd">
        <g id="Demanda-Inducida-012" transform="translate(-156.000000, -792.000000)" fill="#3962E6">
            <g id="unibanco" transform="translate(156.000000, 792.194093)">
                <path d="M24.6999207,9.12535096 L24.6999207,7.82546995 L25.5665741,7.82546995 C25.8059998,7.82546995 26,7.63146973 26,7.39204405 L26,3.49220275 C26,3.29205322 25.8629303,3.11788943 25.6685333,3.07087706 L13.1017609,0.0376892344 C13.0305481,0.0202331797 12.9557648,0.0214233398 12.8851471,0.0410614141 L0.318573023,3.50767518 C0.130523656,3.55944824 -2.84217094e-14,3.73043826 -2.84217094e-14,3.92543029 L-2.84217094e-14,7.39204405 C-2.84217094e-14,7.63146973 0.194000219,7.82546995 0.433227539,7.82546995 L1.30007932,7.82546995 L1.30007932,9.12535096 C1.30007932,9.36477659 1.49407959,9.55877686 1.73330686,9.55877686 L1.73330686,19.9586182 C1.49407959,19.9586182 1.30007932,20.1526184 1.30007932,20.3920441 L1.30007932,21.691925 L0.86665343,21.691925 C0.62742616,21.691925 0.433425891,21.8861236 0.433425891,22.125351 L0.433425891,23.4252319 C0.194000219,23.4252319 -2.83766066e-14,23.6194306 -2.83766066e-14,23.8586578 L-2.83766066e-14,25.5919647 C-2.83766066e-14,25.831192 0.194000219,26.0251923 0.433425891,26.0251923 L25.5665741,26.0251923 C25.8059998,26.0251923 25.9998016,25.831192 25.9998016,25.5919647 L25.9998016,23.8586578 C25.9998016,23.6192322 25.8058014,23.4252319 25.5665741,23.4252319 L25.5665741,22.125351 C25.5665741,21.8859253 25.3725738,21.691925 25.1333466,21.691925 L24.6999207,21.691925 L24.6999207,20.3920441 C24.6999207,20.1526184 24.5059204,19.9586182 24.2666931,19.9586182 L24.2666931,9.55877686 C24.5059204,9.55877686 24.6999207,9.36477659 24.6999207,9.12535096 Z M23.8332672,8.69212343 L20.3666534,8.69212343 L20.3666534,7.82546995 L23.8332672,7.82546995 L23.8332672,8.69212343 Z M19.9332275,19.9588165 C19.6940002,19.9588165 19.5,20.1528168 19.5,20.3920441 L19.5,21.6921234 L6.5,21.6921234 L6.5,20.3920441 C6.5,20.1526184 6.30599978,19.9588165 6.06677246,19.9588165 L6.06677246,9.55877686 C6.30599978,9.55877686 6.5,9.36477659 6.5,9.12535096 L6.5,7.82546995 L19.5,7.82546995 L19.5,9.12535096 C19.5,9.36477659 19.6940002,9.55877686 19.9332275,9.55877686 L19.9332275,19.9588165 Z M0.86665343,4.25570681 L13.0073395,0.906326281 L25.1333466,3.83319092 L25.1333466,6.95881652 L0.86665343,6.95881652 L0.86665343,4.25570681 Z M5.63334657,7.82546995 L5.63334657,8.69212343 L2.1667328,8.69212343 L2.1667328,7.82546995 L5.63334657,7.82546995 Z M2.59996034,9.55877686 L5.19992068,9.55877686 L5.19992068,19.9588165 L2.59996034,19.9588165 L2.59996034,9.55877686 Z M2.1667328,20.8252716 L5.63334657,20.8252716 L5.63334657,21.6921234 L2.1667328,21.6921234 L2.1667328,20.8252716 Z M25.1333466,25.1587372 L0.86665343,25.1587372 L0.86665343,24.2920838 L25.1333466,24.2920838 L25.1333466,25.1587372 Z M1.30007932,23.4254303 L1.30007932,22.5587769 L24.6999207,22.5587769 L24.6999207,23.4254303 L1.30007932,23.4254303 Z M20.3666534,21.6921234 L20.3666534,20.8252716 L23.8332672,20.8252716 L23.8332672,21.6921234 L20.3666534,21.6921234 Z M23.4000397,19.9588165 L20.799881,19.9588165 L20.799881,9.55877686 L23.4000397,9.55877686 L23.4000397,19.9588165 Z" id="Shape" fill-rule="nonzero"></path>
                <path d="M13,6.09216309 C14.1965332,6.09216309 15.1667328,5.12216189 15.1667328,3.92543029 C15.1667328,2.72869873 14.1965332,1.75869748 13,1.75869748 C11.8032684,1.75869748 10.8332672,2.72869873 10.8332672,3.92543029 C10.8346558,5.12136838 11.8038635,6.09057617 13,6.09216309 Z M13,2.62535096 C13.7178803,2.62535096 14.299881,3.20755002 14.299881,3.92543029 C14.299881,4.64331055 13.7178803,5.22550966 13,5.22550966 C12.2819214,5.22550966 11.6999207,4.64331055 11.6999207,3.92543029 C11.6999207,3.20755002 12.2819214,2.62535096 13,2.62535096 Z" id="Shape" fill-rule="nonzero"></path>
                <path d="M13,13.4588165 C13.2392273,13.4588165 13.4332275,13.6528168 13.4332275,13.8920441 L14.299881,13.8920441 C14.297699,13.3431701 13.9509582,12.8547974 13.4332275,12.6717071 L13.4332275,12.1587372 L12.5665741,12.1587372 L12.5665741,12.6717071 C11.8909454,12.9097443 11.5362701,13.6504364 11.7741089,14.3258667 C11.9571991,14.8457794 12.4489441,15.1931152 13,15.1921234 C13.2392273,15.1921234 13.4332275,15.3861236 13.4332275,15.625351 C13.4332275,15.8647766 13.2392273,16.0587769 13,16.0587769 C12.7605743,16.0587769 12.5665741,15.8647766 12.5665741,15.625351 L11.6999207,15.625351 C11.702301,16.1742248 12.0490418,16.6625977 12.5665741,16.8456879 L12.5665741,17.3586578 L13.4332275,17.3586578 L13.4332275,16.8456879 C14.1088562,16.6076508 14.4637299,15.867157 14.2256928,15.1915283 C14.0426025,14.6716156 13.5510559,14.3242798 13,14.3254699 C12.7605743,14.3254699 12.5665741,14.1312714 12.5665741,13.8920441 C12.5665741,13.6528168 12.7605743,13.4588165 13,13.4588165 Z" id="Path"></path>
                <path d="M13,10.4254303 C10.6067352,10.4254303 8.6667328,12.3654327 8.6667328,14.7586975 C8.6667328,17.1519623 10.6067352,19.0919647 13,19.0919647 C15.3932648,19.0919647 17.3332672,17.1519623 17.3332672,14.7586975 C17.3306885,12.3666229 15.3920746,10.428009 13,10.4254303 Z M13,18.2253113 C11.0853882,18.2253113 9.53338623,16.6733094 9.53338623,14.7586975 C9.53338623,12.8440857 11.0853882,11.2920838 13,11.2920838 C14.9146118,11.2920838 16.4666138,12.8440857 16.4666138,14.7586975 C16.4644317,16.6723175 14.91362,18.2233276 13,18.2253113 Z" id="Shape" fill-rule="nonzero"></path>
            </g>
        </g>
    </g>
</svg>