<?xml version="1.0" encoding="UTF-8"?>
<svg width="26px" height="22px" viewBox="0 0 26 22" version="1.1" xmlns="http://www.w3.org/2000/svg" xmlns:xlink="http://www.w3.org/1999/xlink">
    <!-- Generator: sketchtool 52.1 (67048) - http://www.bohemiancoding.com/sketch -->
    <title>F0B1FD69-B6AF-47EC-A5D2-13C3D8293DF2</title>
    <desc>Created with sketchtool.</desc>
    <g id="Agenda-8---Prop-3" stroke="none" stroke-width="1" fill="none" fill-rule="evenodd">
        <g id="agenda-sync-002" transform="translate(-1229.000000, -680.000000)" fill="#3962E6">
            <g id="Modal">
                <g id="Sincronizar-convenio-lita-Copy-3" transform="translate(386.000000, 676.000000)">
                    <g id="upload-2" transform="translate(844.000000, 5.000000)">
                        <path d="M22.1692218,8.06520502 C22.2439833,7.66448536 22.281841,7.25774059 22.2823431,6.85009205 C22.2777741,3.06406695 19.2049205,-0.00140585774 15.4188954,0.00311297071 C12.5367866,0.00657740586 9.96466946,1.81235146 8.98237657,4.52189121 C7.22359833,3.82177406 5.23024268,4.67994979 4.53007531,6.43872803 C4.4694728,6.59096234 4.41986611,6.74731381 4.3816569,6.90662762 C1.57335565,7.32662762 -0.362711297,9.94368201 0.0572887029,12.7519833 C0.433958159,15.2706276 2.59767364,17.1339916 5.14428452,17.1329372 L8.46878661,17.1329372 C8.94205858,17.1329372 9.32570711,16.7492887 9.32570711,16.2760167 C9.32570711,15.8027448 8.94205858,15.4190962 8.46878661,15.4190962 L5.14428452,15.4190962 C3.25124686,15.4190962 1.71665272,13.8845021 1.71665272,11.9914644 C1.71665272,10.0984268 3.25124686,8.56383264 5.14428452,8.56383264 C5.61755649,8.56383264 6.00120502,8.1801841 6.00120502,7.70691213 C6.00276151,6.76041841 6.77131381,5.99437657 7.71780753,5.99593305 C8.16542259,5.99668619 8.59501255,6.17251883 8.91464435,6.48582427 C9.25169874,6.81800837 9.79425941,6.81404184 10.1264435,6.47698745 C10.2511632,6.35041004 10.3334561,6.18823431 10.3619247,6.01280335 C10.8270628,3.21449372 13.4725858,1.32311297 16.2708954,1.78825105 C19.069205,2.25338912 20.9605858,4.89891213 20.4954477,7.69722176 C20.4677322,7.86406695 20.4317322,8.02945607 20.3876987,8.1927364 C20.2891883,8.55042678 20.4320335,8.93086192 20.7416234,9.13531381 C22.3189958,10.1819247 22.7492385,12.3091381 21.7025774,13.8865105 C21.0690879,14.8412385 20.0004854,15.4162845 18.8547113,15.4189958 L17.244,15.4189958 C16.770728,15.4189958 16.3870795,15.8026444 16.3870795,16.2759163 C16.3870795,16.7491883 16.770728,17.1328368 17.244,17.1328368 L18.8547113,17.1328368 C21.6942427,17.1301757 23.9939749,14.8260753 23.9912636,11.9865439 C23.9898577,10.4752469 23.3234812,9.04097071 22.1692218,8.06520502 Z" id="Path" stroke="#3962E6" stroke-width="0.3"></path>
                        <path d="M17.7467448,12.2426109 L13.4622427,7.95810879 C13.3824603,7.87812552 13.2874644,7.81491213 13.1828787,7.7721841 C12.9732552,7.68552301 12.7378243,7.68552301 12.5282008,7.7721841 C12.4236151,7.81496234 12.3286695,7.87817573 12.2488368,7.95810879 L7.96433473,12.2426109 C7.63556485,12.5830293 7.64500418,13.1254895 7.98542259,13.4542594 C8.31750628,13.7749456 8.84394979,13.7749456 9.17598326,13.4542594 L11.9994979,10.6324519 L11.9994979,19.8585029 C11.9994979,20.3317748 12.3831464,20.7154234 12.8564184,20.7154234 C13.3296904,20.7154234 13.7133389,20.3317748 13.7133389,19.8585029 L13.7133389,10.6325021 L16.5351464,13.4543096 C16.8755649,13.7830795 17.4180251,13.7736402 17.746795,13.4332218 C18.0674812,13.1011381 18.0674812,12.5746444 17.7467448,12.2426109 Z" id="Path"></path>
                    </g>
                </g>
            </g>
        </g>
    </g>
</svg>