<?xml version="1.0" encoding="UTF-8"?>
<svg width="23px" height="23px" viewBox="0 0 23 23" version="1.1" xmlns="http://www.w3.org/2000/svg" xmlns:xlink="http://www.w3.org/1999/xlink">
    <!-- Generator: sketchtool 52.1 (67048) - http://www.bohemiancoding.com/sketch -->
    <title>9893F50C-67B4-4B2F-9F86-9465B90EEB96</title>
    <desc>Created with sketchtool.</desc>
    <g id="PASO-2" stroke="none" stroke-width="1" fill="none" fill-rule="evenodd">
        <g id="Facturación-Abono-02" transform="translate(-351.000000, -591.000000)" fill="#2FCC71" fill-rule="nonzero" stroke="#2FCC71" stroke-width="0.3">
            <g id="Ver-abonos" transform="translate(352.000000, 591.000000)">
                <g transform="translate(0.000000, 0.500000)" id="Shape">
                    <path d="M20.3052218,12.697125 L19.9808226,12.697125 L19.9808226,9.77511895 C19.9808226,9.31252621 19.7505847,8.90294153 19.3989617,8.6540746 L19.3989617,8.25621774 C19.3989617,7.67909879 18.9294677,7.20960484 18.3523488,7.20960484 L18.110129,7.20960484 L19.036881,5.84968548 C19.3475202,5.39386694 19.2293952,4.77026008 18.7735766,4.45957863 L12.4849657,0.174054435 C12.2641694,0.0235403226 11.9980282,-0.0320080645 11.7353589,0.0178245968 C11.4728165,0.0675725806 11.2453306,0.2165625 11.0948589,0.43740121 L5.66699395,8.40228629 L4.15656048,8.40228629 L4.52096976,4.71331452 C4.52507661,4.6717379 4.55208871,4.63570766 4.58977016,4.62152419 C5.05926411,4.44450605 5.46613911,4.1139254 5.73541331,3.69070766 C5.756625,3.6573871 5.79663508,3.63833468 5.83804234,3.64252621 L8.20710484,3.8765746 C8.37696774,3.89304435 8.5280746,3.76933065 8.54484073,3.59955242 C8.56160685,3.42977419 8.43759677,3.27858266 8.26781855,3.26181653 L5.89875605,3.02776815 C5.62376613,3.00084073 5.36152016,3.12756048 5.21418145,3.35906855 C5.01620565,3.67025806 4.71704032,3.91328226 4.37185282,4.04343145 C4.11202016,4.14140323 3.93360484,4.37477419 3.90616935,4.65255847 L3.53579032,8.40224395 L3.14191331,8.40224395 L3.71822782,2.5678004 C3.73897379,2.3578004 3.92640726,2.20351815 4.13666129,2.22456048 L8.92406855,2.69748387 C9.09384677,2.71386895 9.24503831,2.59023992 9.26180444,2.42046169 C9.27857056,2.25068347 9.15456048,2.09949194 8.98478226,2.08272581 L4.197375,1.60980242 C3.64849597,1.55565121 3.15766331,1.95808065 3.10342742,2.50704435 L2.6388871,7.20960484 L1.84778831,7.20960484 C1.27071169,7.20960484 0.801175403,7.67909879 0.801175403,8.25621774 L0.801175403,8.52760887 C0.329056452,8.74497581 0.000338709677,9.22221774 0.000338709677,9.77511895 L0.000338709677,20.3045444 C0.000338709677,21.0615605 0.616197581,21.6774194 1.37325605,21.6774194 L18.6079476,21.6774194 C19.3649637,21.6774194 19.9808226,21.0615605 19.9808226,20.3045444 L19.9808226,17.3825806 L20.3052218,17.3825806 C20.6881331,17.3825806 20.999619,17.0710948 20.999619,16.6882258 L20.999619,13.3915222 C20.9996613,13.0086109 20.6881331,12.697125 20.3052218,12.697125 Z M18.3523488,7.82741129 C18.5888528,7.82736895 18.7811976,8.01975605 18.7811976,8.25626008 L18.7811976,8.41363306 C18.724379,8.40643548 18.6666714,8.40232863 18.6079476,8.40232863 L17.2973528,8.40232863 L17.6891129,7.82741129 L18.3523488,7.82741129 Z M11.6053367,0.785256048 C11.6629173,0.700790323 11.7499234,0.643802419 11.8503508,0.62475 C11.8743569,0.620219758 11.8984476,0.617933468 11.922369,0.617933468 C11.9984516,0.617933468 12.0727984,0.640711694 12.1370685,0.684489919 L18.4256794,4.97001411 C18.6000302,5.08885887 18.645248,5.32739516 18.5264456,5.50174597 L16.5498206,8.40220161 L16.0754577,8.40220161 L17.0445484,6.98017137 C17.2017097,6.74955242 17.2146653,6.45606048 17.07825,6.21417944 C16.8969556,5.89282863 16.8234556,5.51444758 16.8712984,5.14868347 C16.9068629,4.87657258 16.787129,4.61093952 16.5588387,4.4553871 L13.2988427,2.23379032 C13.0705101,2.07819556 12.7794738,2.06392742 12.539244,2.1965746 C12.2164113,2.37482056 11.8373528,2.44480645 11.4719698,2.39366129 C11.201002,2.35564113 10.9261815,2.478 10.7713488,2.70514718 L6.88893145,8.40224395 L6.41456855,8.40224395 L11.6053367,0.785256048 Z M11.741371,6.03064113 C10.3962278,6.03064113 9.29203427,7.07949798 9.20206452,8.40224395 L7.63642137,8.40224395 L11.2817419,3.05304435 C11.2817843,3.05304435 11.2817843,3.05304435 11.2817843,3.05304435 C11.3024879,3.02260282 11.3368246,3.00448185 11.3720927,3.00448185 C11.3767923,3.00448185 11.3814919,3.00482056 11.3861915,3.00545565 C11.8831633,3.07497581 12.3986371,2.97988306 12.8377742,2.73740927 C12.8723226,2.71827218 12.9166935,2.72102419 12.9509032,2.74431048 L16.2109415,4.9659496 C16.2450665,4.98923589 16.2638226,5.02954234 16.2587419,5.06866331 C16.1936673,5.56610081 16.2936714,6.08068548 16.5402097,6.51770565 C16.5599819,6.55280444 16.5575685,6.59776815 16.5341129,6.63227419 L15.3279677,8.40220161 L14.2808044,8.40220161 C14.19075,7.07949798 13.0865988,6.03064113 11.741371,6.03064113 Z M13.6613468,8.40228629 L9.8214375,8.40228629 C9.9099254,7.42049395 10.7369698,6.64844758 11.741371,6.64844758 C12.7458145,6.64840524 13.5729012,7.42049395 13.6613468,8.40228629 Z M1.41893952,8.25621774 C1.41893952,8.01971371 1.61128427,7.82732661 1.84778831,7.82732661 L2.57787702,7.82732661 L2.52110081,8.40224395 L1.41893952,8.40224395 L1.41893952,8.25621774 Z M0.618102823,9.77511895 C0.618102823,9.35876008 0.956854839,9.02000806 1.37325605,9.02000806 L18.6079476,9.02000806 C19.0243488,9.02000806 19.3630585,9.35876008 19.3630585,9.77511895 L19.3630585,10.6322238 L0.618102823,10.6322238 L0.618102823,9.77511895 Z M19.3630585,20.3045444 C19.3630585,20.7209032 19.0243488,21.0596552 18.6079476,21.0596552 L1.37325605,21.0596552 C0.956854839,21.0596552 0.618102823,20.7209032 0.618102823,20.3045444 L0.618102823,19.4474395 L2.28379234,19.4474395 C2.45441734,19.4474395 2.59265323,19.3091613 2.59265323,19.1385786 C2.59265323,18.967996 2.454375,18.8297177 2.28379234,18.8297177 L0.618102823,18.8297177 L0.618102823,11.2499879 L19.3630585,11.2499879 L19.3630585,12.697125 L16.4261915,12.697125 L16.4261492,12.697125 C15.5007944,12.697125 14.6992379,13.2365202 14.3188246,14.0172883 C14.3175544,14.0199133 14.3161149,14.0224536 14.3148024,14.0250786 C14.3115847,14.0317258 14.3087903,14.038627 14.3056573,14.0453165 C14.2603548,14.1415524 14.2209798,14.2411754 14.1889294,14.3439738 C14.1888448,14.3442702 14.1887601,14.3445242 14.1886754,14.3448206 C14.1202984,14.5645161 14.0834214,14.7979294 14.0834214,15.0398528 C14.0834214,16.3316492 15.1343528,17.3825806 16.4261069,17.3825806 L16.4261492,17.3825806 L19.3630161,17.3825806 L19.3630161,18.8297177 L4.26160282,18.8297177 C4.09097782,18.8297177 3.95274194,18.967996 3.95274194,19.1385786 C3.95274194,19.3091613 4.09102016,19.4474395 4.26160282,19.4474395 L19.3630585,19.4474395 L19.3630585,20.3045444 Z M20.3818972,16.6881835 C20.3818972,16.7304375 20.3475181,16.7648165 20.3052218,16.7648165 L16.4262339,16.7648165 C15.7723125,16.7648165 15.2021794,16.3990524 14.909746,15.8613931 C14.8964516,15.8369637 14.88375,15.8121532 14.8715988,15.7870464 C14.8473387,15.7367903 14.8254496,15.6851794 14.8061008,15.6323407 C14.7382742,15.4474899 14.7012702,15.2479052 14.7012702,15.0398528 C14.7012702,14.8318004 14.7383165,14.6322157 14.8061008,14.4473649 C14.8254919,14.3945685 14.847381,14.3429577 14.8715988,14.2926593 C14.88375,14.2675524 14.8964516,14.2427419 14.909746,14.2183125 C15.2021794,13.6806532 15.7723125,13.3148891 16.4262339,13.3148891 L20.3052218,13.3148891 C20.3474758,13.3148891 20.3818972,13.3492681 20.3818972,13.3915222 L20.3818972,16.6881835 Z"></path>
                </g>
            </g>
        </g>
    </g>
</svg>