<?xml version="1.0" encoding="UTF-8"?>
<svg width="21px" height="23px" viewBox="0 0 21 23" version="1.1" xmlns="http://www.w3.org/2000/svg" xmlns:xlink="http://www.w3.org/1999/xlink">
    <!-- Generator: sketchtool 52.1 (67048) - http://www.bohemiancoding.com/sketch -->
    <title>1CD61CA5-C2E6-44EA-AA57-A020469558FC</title>
    <desc>Created with sketchtool.</desc>
    <g id="*CRM" stroke="none" stroke-width="1" fill="none" fill-rule="evenodd">
        <g id="Demanda-Inducida-001" transform="translate(-883.000000, -864.000000)" fill="#3962E6">
            <g id="Group-9" transform="translate(488.000000, 840.000000)">
                <g id="Group-6" transform="translate(379.000000, 11.000000)">
                    <g id="Videoconsultas" transform="translate(16.000000, 13.000000)">
                        <path d="M14.964393,17.4291166 C14.7214417,17.4291166 14.5242638,17.6262945 14.5242638,17.8692458 C14.5242638,18.1121971 14.7214417,18.309375 14.964393,18.309375 C15.2073444,18.309375 15.4045222,18.1121971 15.4045222,17.8692458 C15.4045222,17.6262945 15.2073444,17.4291166 14.964393,17.4291166 Z" id="Path"></path>
                        <path d="M16.0480792,16.0058708 L13.956145,15.3087061 L13.2051526,13.8066772 C13.8817192,13.118051 14.3514691,12.2068955 14.5098716,11.2565245 L14.6035311,10.6951397 L15.4045222,10.6951397 C16.132584,10.6951397 16.7249099,10.1028138 16.7249099,9.3747521 L16.7249099,6.6019381 C16.7249099,2.96162943 13.7632804,0 10.1229718,0 C6.47333235,0 3.52103365,2.95313494 3.52103365,6.6019381 L3.52103365,9.3747521 C3.52103365,9.94850454 3.88902568,10.4377522 4.40129207,10.6194375 L4.40129207,11.1352689 C4.40129207,11.8633307 4.99361795,12.4556566 5.72167969,12.4556566 L6.10820116,12.4556566 C6.29899717,12.8701262 6.54595367,13.2540069 6.84647389,13.5988482 C6.90879618,13.6705012 6.97380327,13.7399536 7.04039482,13.8075134 L6.28979847,15.3087061 L4.19782034,16.0059148 C1.76544627,16.8169849 0,19.3776126 0,22.0944862 C0,22.3375695 0.197045846,22.5346154 0.440129207,22.5346154 L19.8058143,22.5346154 C20.0488537,22.5346154 20.2459435,22.3375695 20.2459435,22.0944862 C20.2459435,19.3776126 18.4805412,16.8169849 16.0480792,16.0058708 Z M15.8446514,9.3747521 C15.8446514,9.61743935 15.6472095,9.81488131 15.4045222,9.81488131 L14.732797,9.81488131 C14.8446779,8.9482669 14.9192358,8.02606418 14.9492086,7.11776953 C14.9500888,7.09215401 14.950793,7.0672427 14.9515853,7.04206731 L15.8446514,7.04206731 L15.8446514,9.3747521 Z M4.84142127,9.81488131 C4.59873403,9.81488131 4.40129207,9.61743935 4.40129207,9.3747521 L4.40129207,7.04206731 L5.29466633,7.04206731 C5.29611876,7.08797278 5.29765921,7.13409832 5.29937571,7.18053196 C5.29941973,7.18211642 5.29950775,7.18365687 5.29955177,7.18524134 C5.29955177,7.18537338 5.29955177,7.18550542 5.29955177,7.18563745 C5.33036081,8.0690648 5.40395041,8.9673245 5.51327851,9.8148373 L4.84142127,9.8148373 L4.84142127,9.81488131 Z M5.72167969,11.5753981 C5.47899244,11.5753981 5.28155048,11.3779562 5.28155048,11.1352689 L5.28155048,10.6951397 L5.6423684,10.6951397 L5.7360279,11.2567006 C5.75389715,11.3634319 5.77585959,11.4697671 5.80125505,11.5753981 L5.72167969,11.5753981 Z M5.2822987,6.16180889 L4.41801698,6.16180889 C4.64094242,3.21201894 7.1026731,0.880258413 10.1229718,0.880258413 C13.1298465,0.880258413 15.6024043,3.21171085 15.8278825,6.16180889 L14.9636888,6.16180889 C14.9319995,3.73110732 12.9526064,1.76051683 10.5169314,1.76051683 L9.72910013,1.76051683 C7.29346911,1.76051683 5.31394399,3.73110732 5.2822987,6.16180889 Z M9.72905611,2.64077524 L10.5168874,2.64077524 C12.4890624,2.64077524 14.085279,4.2538928 14.0841346,6.22386711 C14.0841346,6.36237577 14.0830343,6.48297118 14.0807016,6.59269539 C14.0807016,6.5941038 14.0806576,6.59555623 14.0806576,6.59700865 L13.530144,6.51835756 C12.0345849,6.30480687 10.6224744,5.5987516 9.5539287,4.53020591 C9.47136046,4.44768169 9.35943561,4.40129207 9.24271334,4.40129207 C8.06070234,4.40129207 6.92921818,4.93983416 6.18126261,5.84966926 C6.36558872,4.05750714 7.88064549,2.64077524 9.72905611,2.64077524 Z M6.71373092,11.5753981 C6.49340224,10.842451 6.24129623,8.68581786 6.18557587,7.30381215 L6.77794577,6.51395627 C7.32198948,5.78879939 8.16840196,5.33823912 9.06877428,5.28652394 C10.2534701,6.41395892 11.786088,7.15848148 13.4056754,7.38972537 L14.0536337,7.48232855 C14.0103249,8.4015384 13.921815,9.32396119 13.7950137,10.1723102 C13.7949697,10.1725743 13.7949257,10.1728824 13.7948817,10.1731905 C13.7545659,10.4459386 13.7227885,10.6214621 13.6416287,11.111722 C13.4085363,12.5097924 12.365342,13.7740636 10.9882218,14.1183767 C10.4214674,14.2598782 9.8243881,14.2598342 9.25794181,14.1183767 C8.39806138,13.9034176 7.60961392,13.3084509 7.10078054,12.4556566 L7.99802794,12.4556566 C8.17971328,12.9679229 8.66891689,13.335915 9.24271334,13.335915 L10.1229718,13.335915 C10.8524859,13.335915 11.4433594,12.7450855 11.4433594,12.0155273 C11.4433594,11.2874656 10.8510335,10.6951397 10.1229718,10.6951397 L9.24271334,10.6951397 C8.65615315,10.6951397 8.17416765,11.0740029 7.99727973,11.5753981 L6.71373092,11.5753981 Z M9.20569848,15.0091102 C9.5075831,15.0727088 9.81536545,15.1052344 10.1229718,15.1052344 C10.3637664,15.1052344 10.6046051,15.0850765 10.842715,15.045993 L10.0650067,15.8684624 L9.20569848,15.0091102 Z M9.4599171,16.5083223 L8.06391529,17.9846037 C7.67959446,17.2489717 7.34936552,16.4833669 7.07851001,15.6995849 L7.6027479,14.6511091 L9.4599171,16.5083223 Z M12.5685937,14.5019933 L13.1673455,15.6995408 C12.8960498,16.4846433 12.5657329,17.2505122 12.1818082,17.9852639 L10.6876575,16.4911132 L12.5685937,14.5019933 Z M8.80258413,12.0155273 C8.80258413,11.772532 8.99967399,11.5753981 9.24271334,11.5753981 L10.1229718,11.5753981 C10.365659,11.5753981 10.563101,11.7728401 10.563101,12.0155273 C10.563101,12.2585667 10.3659671,12.4556566 10.1229718,12.4556566 L9.24271334,12.4556566 C9.0000261,12.4556566 8.80258413,12.2582146 8.80258413,12.0155273 Z M0.897863582,21.654357 C1.07228679,19.4740009 2.52334877,17.4921871 4.47620206,16.8409719 L6.32888194,16.2235587 C6.66830959,17.1621342 7.08880903,18.07439 7.5816217,18.9409164 C7.58245795,18.9424128 7.58325018,18.9439093 7.58408643,18.9453617 C7.58408643,18.9454057 7.58413044,18.9454057 7.58413044,18.9454497 C7.94420014,19.5787516 8.34947112,20.1976173 8.7888521,20.7851458 L9.33029905,21.654357 L0.897863582,21.654357 Z M10.1229718,21.2620258 L9.52606852,20.3037325 C9.51937856,20.2929933 9.51224847,20.2825623 9.50467825,20.2724393 C9.14826161,19.7970117 8.81578801,19.2997978 8.51297912,18.7908764 L10.0826119,17.1309731 L11.7365294,18.7848906 C11.431696,19.2975091 11.098078,19.7967917 10.7413533,20.2723513 C10.719787,20.3010917 10.7503759,20.2558024 10.1229718,21.2620258 Z M10.9156445,21.654357 L11.4570474,20.7851898 C11.8983649,20.1954167 12.3065408,19.5715775 12.6702195,18.9308374 C12.6724202,18.9269643 12.6744888,18.9230031 12.6766894,18.91913 C12.6769535,18.9186459 12.6772176,18.9182057 12.6774817,18.9177216 C13.1640445,18.0594696 13.5801427,17.1551362 13.9170616,16.2235587 L15.7696974,16.8409719 C17.7225947,17.4921871 19.1736567,19.4740009 19.3480799,21.654357 L10.9156445,21.654357 Z" id="Shape" fill-rule="nonzero"></path>
                        <path d="M18.0253156,19.8731981 C17.7311773,19.2844372 17.3003348,18.7613877 16.7793538,18.360606 C16.5866653,18.2123265 16.3103522,18.2483731 16.1621607,18.4410617 C16.0139251,18.6337502 16.0499717,18.9100633 16.2426163,19.0582989 C16.6587144,19.3784048 17.0028074,19.7962195 17.2377924,20.2665856 C17.3466364,20.4844055 17.611154,20.5720793 17.8282258,20.4636314 C18.0456496,20.3550075 18.1338955,20.0906659 18.0253156,19.8731981 Z" id="Path"></path>
                    </g>
                </g>
            </g>
        </g>
    </g>
</svg>