<?xml version="1.0" encoding="UTF-8"?>
<svg width="26px" height="26px" viewBox="0 0 26 26" version="1.1" xmlns="http://www.w3.org/2000/svg" xmlns:xlink="http://www.w3.org/1999/xlink">
    <!-- Generator: sketchtool 52.1 (67048) - http://www.bohemiancoding.com/sketch -->
    <title>5DEA32C4-EDC4-49D8-833D-4D66B7AB6ECB</title>
    <desc>Created with sketchtool.</desc>
    <g id="*CRM" stroke="none" stroke-width="1" fill="none" fill-rule="evenodd">
        <g id="Demanda-Inducida-012" transform="translate(-542.000000, -220.000000)" fill="#3962E6">
            <g id="videoterapia" transform="translate(542.000000, 220.000000)">
                <path d="M23.9032258,4.19354839 L14.6774194,4.19354839 L14.6774194,3.82577419 C14.6774194,2.66919355 13.928871,1.65896774 12.838129,1.31467742 C12.2275484,0.488548387 11.263871,0 10.2301613,0 C7.79370968,0 5.78122581,1.83425806 5.49145161,4.19354839 L2.09677419,4.19354839 C0.940612903,4.19354839 0,5.13416129 0,6.29032258 L0,19.2903226 L0,19.7096774 L0,21.3870968 C0,22.5432581 0.940612903,23.483871 2.09677419,23.483871 L7.12903226,23.483871 L7.12903226,25.1612903 L5.4516129,25.1612903 L5.4516129,26 L20.5483871,26 L20.5483871,25.1612903 L18.8709677,25.1612903 L18.8709677,23.483871 L23.9032258,23.483871 C25.0593871,23.483871 26,22.5432581 26,21.3870968 L26,19.7096774 L26,19.2903226 L26,6.29032258 C26,5.13416129 25.0593871,4.19354839 23.9032258,4.19354839 Z M6.29032258,4.77812903 C6.29032258,2.60587097 8.05748387,0.838709677 10.2301613,0.838709677 C11.0361613,0.838709677 11.7847097,1.23919355 12.2317419,1.91016129 L12.3214839,2.04519355 L12.4787419,2.0846129 C13.2797097,2.28464516 13.8387097,3.00048387 13.8387097,3.82577419 L13.8387097,5.26541935 C13.590871,5.12116129 13.3069677,5.03225806 13,5.03225806 C12.0086452,5.03225806 11.0256774,4.70474194 10.2322581,4.10967742 L9.60574194,3.64 L8.98006452,4.26567742 C8.48564516,4.76009677 7.82809677,5.03225806 7.12903226,5.03225806 C6.82206452,5.03225806 6.53816129,5.12116129 6.29032258,5.26541935 L6.29032258,4.77812903 Z M13.8387097,6.70967742 C13.8387097,7.01874194 13.668871,7.28629032 13.4193548,7.43180645 L13.4193548,5.98754839 C13.668871,6.13306452 13.8387097,6.4006129 13.8387097,6.70967742 Z M13.0239032,11.6710645 C13.0096452,11.7847097 13,11.9000323 13,12.0174516 L13,12.0774194 C13,12.7777419 13.2608387,13.447871 13.733871,13.9636774 L14.0039355,14.2580645 L4.33025806,14.2580645 L4.59487097,13.332129 C4.81167742,12.5739355 5.42645161,12.0069677 6.19974194,11.8522258 L9.22580645,11.2470968 L9.22580645,10.7929355 C9.4946129,10.8625484 9.77432258,10.9032258 10.0645161,10.9032258 C10.3547097,10.9032258 10.6344194,10.8625484 10.9032258,10.7929355 L10.9032258,11.2470968 L13.0239032,11.6710645 Z M21.3074194,13.8387097 L18.0322581,17.4120323 L14.352,13.397129 C14.2417097,13.2767742 14.1544839,13.1413226 14.0785806,13.0004194 L15.2569677,13.0004194 L16.3212903,15.1290645 L17.6317742,12.9454839 L18.2272581,13.8387097 L20.1290323,13.8387097 L20.1290323,13 L18.6759677,13 L17.5940323,11.3770968 L16.3883871,13.3870645 L15.7752903,12.1612903 L13.8462581,12.1612903 C13.8454194,12.1331935 13.8387097,12.1055161 13.8387097,12.0774194 L13.8387097,12.0174516 C13.8387097,10.9405484 14.7147419,10.0645161 15.7916452,10.0645161 C16.3129032,10.0645161 16.8035484,10.2674839 17.1725806,10.6365161 L18.0322581,11.4966129 L18.8919355,10.6369355 C19.2609677,10.2674839 19.7516129,10.0645161 20.272871,10.0645161 C21.3497742,10.0645161 22.2258065,10.9405484 22.2258065,12.0174516 L22.2258065,12.0774194 C22.2258065,12.4040968 22.1381613,12.7181935 21.9859355,13 L20.9677419,13 L20.9677419,13.8387097 L21.3074194,13.8387097 Z M10.0645161,10.0645161 C8.67687097,10.0645161 7.5483871,8.93603226 7.5483871,7.5483871 L7.5483871,5.84287097 C8.31245161,5.75103226 9.02032258,5.41135484 9.57303226,4.85864516 L9.68458065,4.74709677 L9.72903226,4.78064516 C10.5547419,5.3996129 11.5536452,5.77325806 12.5806452,5.85377419 L12.5806452,7.5483871 C12.5806452,8.93603226 11.4521613,10.0645161 10.0645161,10.0645161 Z M6.70967742,5.98754839 L6.70967742,7.43180645 C6.46016129,7.28629032 6.29032258,7.01874194 6.29032258,6.70967742 C6.29032258,6.4006129 6.46016129,6.13306452 6.70967742,5.98754839 Z M18.0322581,25.1612903 L7.96774194,25.1612903 L7.96774194,23.483871 L18.0322581,23.483871 L18.0322581,25.1612903 Z M25.1612903,21.3870968 C25.1612903,22.0807097 24.5968387,22.6451613 23.9032258,22.6451613 L2.09677419,22.6451613 C1.40316129,22.6451613 0.838709677,22.0807097 0.838709677,21.3870968 L0.838709677,20.1290323 L25.1612903,20.1290323 L25.1612903,21.3870968 Z M25.1612903,19.2903226 L0.838709677,19.2903226 L0.838709677,6.29032258 C0.838709677,5.59670968 1.40316129,5.03225806 2.09677419,5.03225806 L5.4516129,5.03225806 L5.4516129,6.70967742 C5.4516129,7.52616129 6.03829032,8.20593548 6.812,8.35522581 C7.03341935,9.2476129 7.61129032,9.99909677 8.38709677,10.4494839 L8.38709677,10.5597742 L6.03535484,11.0302903 C4.95258065,11.2466774 4.09164516,12.0405161 3.78845161,13.1023226 L3.21812903,15.0967742 L14.7726129,15.0967742 L18.0322581,18.6524839 L22.3302258,13.9632581 C22.8036774,13.447871 23.0645161,12.7777419 23.0645161,12.0774194 L23.0645161,12.0174516 C23.0645161,10.478 21.8123226,9.22580645 20.272871,9.22580645 C19.5276774,9.22580645 18.8269355,9.516 18.2989677,10.0435484 L18.0322581,10.3098387 L17.7655484,10.043129 C17.2375806,9.516 16.5372581,9.22580645 15.7916452,9.22580645 C14.6648387,9.22580645 13.6940323,9.89845161 13.2532903,10.8617097 L11.7419355,10.5593548 L11.7419355,10.4490645 C12.5177419,9.99867742 13.0956129,9.24719355 13.3170323,8.35480645 C14.0907419,8.20593548 14.6774194,7.52616129 14.6774194,6.70967742 L14.6774194,5.03225806 L23.9032258,5.03225806 C24.5968387,5.03225806 25.1612903,5.59670968 25.1612903,6.29032258 L25.1612903,19.2903226 Z" id="Shape" fill-rule="nonzero"></path>
                <rect id="Rectangle" x="23.483871" y="20.9677419" width="1" height="1"></rect>
                <rect id="Rectangle" x="21.8064516" y="20.9677419" width="1" height="1"></rect>
                <rect id="Rectangle" x="20.1290323" y="20.9677419" width="1" height="1"></rect>
            </g>
        </g>
    </g>
</svg>