<?xml version="1.0" encoding="UTF-8"?>
<svg width="26px" height="28px" viewBox="0 0 26 28" version="1.1" xmlns="http://www.w3.org/2000/svg" xmlns:xlink="http://www.w3.org/1999/xlink">
    <!-- Generator: sketchtool 52.1 (67048) - http://www.bohemiancoding.com/sketch -->
    <title>773758DB-A8B3-4ED1-B257-EAFF24F9E8B3</title>
    <desc>Created with sketchtool.</desc>
    <g id="*CRM" stroke="none" stroke-width="1" fill="none" fill-rule="evenodd">
        <g id="Demanda-Inducida-012" transform="translate(-542.000000, -169.000000)" fill="#3962E6">
            <g id="videoconsulta" transform="translate(542.000000, 169.000000)">
                <path d="M18.5273438,21.5789062 C18.2265469,21.5789062 17.9824219,21.8230312 17.9824219,22.1238281 C17.9824219,22.424625 18.2265469,22.66875 18.5273438,22.66875 C18.8281406,22.66875 19.0722656,22.424625 19.0722656,22.1238281 C19.0722656,21.8230312 18.8281406,21.5789062 18.5273438,21.5789062 Z" id="Path"></path>
                <path d="M19.8690504,19.8167924 L17.2790367,18.9536361 L16.3492365,17.0939812 C17.1868904,16.2413965 17.7684855,15.1132992 17.9646029,13.9366494 L18.0805623,13.2416016 L19.0722656,13.2416016 C19.9736754,13.2416016 20.7070313,12.5082457 20.7070313,11.6068359 L20.7070313,8.17382812 C20.7070313,3.6667793 17.040252,0 12.5332031,0 C8.01460195,0 4.359375,3.6562623 4.359375,8.17382812 L4.359375,11.6068359 C4.359375,12.3171961 4.81498418,12.9229312 5.44921875,13.147875 L5.44921875,13.7865234 C5.44921875,14.6879332 6.18257461,15.4212891 7.08398438,15.4212891 L7.56253477,15.4212891 C7.7987584,15.934442 8.10451406,16.4097229 8.47658672,16.8366691 C8.55374766,16.9253824 8.63423262,17.0113711 8.7166793,17.0950166 L7.78736953,18.9536361 L5.19730137,19.8168469 C2.18579063,20.8210289 0,23.9913299 0,27.3550781 C0,27.6560385 0.243961523,27.9 0.544921875,27.9 L24.5214844,27.9 C24.8223902,27.9 25.0664063,27.6560385 25.0664063,27.3550781 C25.0664063,23.9913299 22.8806701,20.8210289 19.8690504,19.8167924 Z M19.6171875,11.6068359 C19.6171875,11.9073059 19.3727355,12.1517578 19.0722656,12.1517578 L18.2406059,12.1517578 C18.379125,11.0788066 18.4714348,9.93703184 18.5085439,8.81247656 C18.5096338,8.78076211 18.5105057,8.74991953 18.5114865,8.71875 L19.6171875,8.71875 L19.6171875,11.6068359 Z M5.99414063,12.1517578 C5.6936707,12.1517578 5.44921875,11.9073059 5.44921875,11.6068359 L5.44921875,8.71875 L6.55530117,8.71875 C6.55709941,8.77558535 6.55900664,8.83269316 6.56113184,8.89018242 C6.56118633,8.89214414 6.56129531,8.89405137 6.5613498,8.89601309 C6.5613498,8.89617656 6.5613498,8.89634004 6.5613498,8.89650352 C6.59949434,9.9902707 6.69060527,11.1024018 6.82596387,12.1517033 L5.99414063,12.1517033 L5.99414063,12.1517578 Z M7.08398438,14.3314453 C6.78351445,14.3314453 6.5390625,14.0869934 6.5390625,13.7865234 L6.5390625,13.2416016 L6.98578945,13.2416016 L7.10174883,13.9368674 C7.12387266,14.0690109 7.15106426,14.2006641 7.18250625,14.3314453 L7.08398438,14.3314453 Z M6.53998887,7.62890625 L5.46992578,7.62890625 C5.74592871,3.97678535 8.79378574,1.08984375 12.5332031,1.08984375 C16.2560004,1.08984375 19.3172625,3.97640391 19.596426,7.62890625 L18.5264719,7.62890625 C18.4872375,4.61946621 16.0365604,2.1796875 13.0209627,2.1796875 L12.0455525,2.1796875 C9.03000938,2.1796875 6.57916875,4.61946621 6.53998887,7.62890625 Z M12.045498,3.26953125 L13.0209082,3.26953125 C15.4626486,3.26953125 17.4389168,5.26672441 17.4375,7.70574023 C17.4375,7.87722715 17.4361377,8.02653574 17.4332496,8.16238477 C17.4332496,8.16412852 17.4331951,8.16592676 17.4331951,8.167725 L16.7516068,8.07034746 C14.8999623,7.80595137 13.151635,6.9317877 11.8286736,5.60882637 C11.7264463,5.50665352 11.5878727,5.44921875 11.4433594,5.44921875 C9.97991719,5.44921875 8.57903203,6.11598516 7.6529918,7.24244766 C7.88120508,5.02358027 9.75698965,3.26953125 12.045498,3.26953125 Z M8.31223828,14.3314453 C8.03945039,13.4239869 7.72731914,10.7538697 7.65833203,9.04281504 L8.39174238,8.06489824 C9.06532031,7.16708496 10.1132596,6.60924844 11.2280063,6.54522012 C12.6947725,7.94109199 14.5922994,8.86288184 16.5975029,9.14918379 L17.3997369,9.26383535 C17.3461166,10.4019047 17.2365328,11.543952 17.0795408,12.5942889 C17.0794863,12.5946158 17.0794318,12.5949973 17.0793773,12.5953787 C17.0294625,12.9330668 16.9901191,13.1503816 16.8896355,13.7573701 C16.6010449,15.4883145 15.3094711,17.0536025 13.604465,17.4798949 C12.9027691,17.6550873 12.1635281,17.6550328 11.4622137,17.4798949 C10.3975998,17.2137551 9.42142676,16.4771297 8.79144258,15.4212891 L9.90232031,15.4212891 C10.1272641,16.0555236 10.7329447,16.5111328 11.4433594,16.5111328 L12.5332031,16.5111328 C13.4364111,16.5111328 14.1679688,15.7796297 14.1679688,14.8763672 C14.1679688,13.9749574 13.4346129,13.2416016 12.5332031,13.2416016 L11.4433594,13.2416016 C10.717142,13.2416016 10.120398,13.7106703 9.90139395,14.3314453 L8.31223828,14.3314453 Z M11.3975314,18.5827078 C11.7712934,18.661449 12.1523572,18.7017187 12.5332031,18.7017187 C12.8313299,18.7017187 13.1295111,18.6767613 13.4243139,18.6283723 L12.4614369,19.6466678 L11.3975314,18.5827078 Z M11.7122783,20.4388752 L9.98389512,22.2666521 C9.50806934,21.3558697 9.09921445,20.4079781 8.76386953,19.4375812 L9.41292598,18.1394684 L11.7122783,20.4388752 Z M15.561116,17.9548488 L16.3024277,19.4375268 C15.9665379,20.4095584 15.557574,21.357777 15.0822387,22.2674695 L13.2323379,20.4175688 L15.561116,17.9548488 Z M10.8984375,14.8763672 C10.8984375,14.5755158 11.1424535,14.3314453 11.4433594,14.3314453 L12.5332031,14.3314453 C12.833673,14.3314453 13.078125,14.5758973 13.078125,14.8763672 C13.078125,15.177273 12.8340545,15.4212891 12.5332031,15.4212891 L11.4433594,15.4212891 C11.1428895,15.4212891 10.8984375,15.1768371 10.8984375,14.8763672 Z M1.11164062,26.8101562 C1.32759316,24.1106678 3.12414609,21.6569936 5.54196445,20.8507271 L7.83575859,20.0863107 C8.25600234,21.2483566 8.7766207,22.3778162 9.38676973,23.4506584 C9.38780508,23.4525111 9.38878594,23.4543639 9.38982129,23.4561621 C9.38982129,23.4562166 9.38987578,23.4562166 9.38987578,23.4562711 C9.83567637,24.2403592 10.3374404,25.0065738 10.8814359,25.73399 L11.5517988,26.8101562 L1.11164062,26.8101562 Z M12.5332031,26.3244129 L11.7941801,25.1379545 C11.7858973,25.1246584 11.7770695,25.1117437 11.7676969,25.0992105 C11.3264191,24.5105859 10.9147852,23.8949877 10.5398789,23.2648945 L12.4832338,21.2097762 L14.5309412,23.2574836 C14.1535283,23.8921541 13.7404775,24.5103135 13.2988184,25.0991016 C13.2721172,25.134685 13.3099893,25.0786125 12.5332031,26.3244129 Z M13.5146074,26.8101562 L14.1849158,25.7340445 C14.731309,25.0038492 15.2366695,24.231477 15.6869385,23.4381797 C15.6896631,23.4333844 15.6922242,23.4284801 15.6949488,23.4236848 C15.6952758,23.4230854 15.6956027,23.4225404 15.6959297,23.421941 C16.2983408,22.3593434 16.81351,21.2396924 17.2306477,20.0863107 L19.5243873,20.8507271 C21.9422602,21.6569936 23.7388131,24.1106678 23.9547656,26.8101562 L13.5146074,26.8101562 Z" id="Shape" fill-rule="nonzero"></path>
                <path d="M22.3170574,24.6049119 C21.9528861,23.8759699 21.4194621,23.2283848 20.7744381,22.7321789 C20.5358713,22.5485947 20.1937693,22.5932238 20.0102941,22.8317906 C19.8267645,23.0703574 19.8713936,23.4124594 20.1099059,23.5959891 C20.625075,23.9923107 21.0510949,24.5096051 21.3420287,25.0919631 C21.4767879,25.3616449 21.8042859,25.4701934 22.0730414,25.3359246 C22.3422328,25.2014379 22.4514896,24.8741578 22.3170574,24.6049119 Z" id="Path"></path>
            </g>
        </g>
    </g>
</svg>