<?xml version="1.0" encoding="UTF-8"?>
<svg width="25px" height="27px" viewBox="0 0 25 27" version="1.1" xmlns="http://www.w3.org/2000/svg" xmlns:xlink="http://www.w3.org/1999/xlink">
    <!-- Generator: sketchtool 52.1 (67048) - http://www.bohemiancoding.com/sketch -->
    <title>1453E1BB-0C3F-4941-982E-63B168B261B4</title>
    <desc>Created with sketchtool.</desc>
    <g id="*CRM" stroke="none" stroke-width="1" fill="none" fill-rule="evenodd">
        <g id="Demanda-Inducida-001" transform="translate(-569.000000, -341.000000)" fill="#3962E6">
            <g id="Virtual" transform="translate(569.000000, 341.000000)">
                <path d="M17.8147536,20.7489483 C17.5255258,20.7489483 17.2907903,20.9836839 17.2907903,21.2729117 C17.2907903,21.5621394 17.5255258,21.796875 17.8147536,21.796875 C18.1039814,21.796875 18.3387169,21.5621394 18.3387169,21.2729117 C18.3387169,20.9836839 18.1039814,20.7489483 17.8147536,20.7489483 Z" id="Path"></path>
                <path d="M19.1048561,19.0546081 L16.6144584,18.2246501 L15.7204197,16.4365204 C16.5258562,15.6167274 17.0850823,14.5320185 17.2736567,13.4006244 L17.3851561,12.7323092 L18.3387169,12.7323092 C19.2054571,12.7323092 19.910607,12.0271593 19.910607,11.1604192 L19.910607,7.85945012 C19.910607,3.52574932 16.3848576,0 12.0511569,0 C7.70634803,0 4.19170673,3.51563683 4.19170673,7.85945012 L4.19170673,11.1604192 C4.19170673,11.8434578 4.62979248,12.4258954 5.23963341,12.6421875 L5.23963341,13.2562725 C5.23963341,14.1230127 5.94478328,14.8281626 6.81152344,14.8281626 L7.27166804,14.8281626 C7.49880615,15.3215788 7.79280198,15.7785797 8.15056415,16.1891049 C8.22475736,16.2744062 8.30214675,16.3570876 8.3814224,16.437516 L7.48785532,18.2246501 L4.99740516,19.0546605 C2.10172175,20.0202201 0,23.0685864 0,26.3029597 C0,26.5923447 0.234578388,26.8269231 0.523963341,26.8269231 L23.5783504,26.8269231 C23.8676829,26.8269231 24.1023137,26.5923447 24.1023137,26.3029597 C24.1023137,23.0685864 22.0006443,20.0202201 19.1048561,19.0546081 Z M18.8626803,11.1604192 C18.8626803,11.4493326 18.6276303,11.6843825 18.3387169,11.6843825 L17.5390441,11.6843825 C17.6722356,10.6526987 17.760995,9.5548383 17.7966769,8.47353516 C17.7977248,8.44304049 17.7985631,8.41338416 17.7995063,8.38341346 L18.8626803,8.38341346 L18.8626803,11.1604192 Z M5.76359675,11.6843825 C5.47468337,11.6843825 5.23963341,11.4493326 5.23963341,11.1604192 L5.23963341,8.38341346 L6.3031742,8.38341346 C6.30490328,8.43806284 6.30673715,8.4929742 6.30878061,8.54825233 C6.30883301,8.5501386 6.3089378,8.55197247 6.3089902,8.55385874 C6.3089902,8.55401593 6.3089902,8.55417311 6.3089902,8.5543303 C6.34566763,9.60602952 6.4332743,10.6753863 6.5634268,11.6843301 L5.76359675,11.6843301 L5.76359675,11.6843825 Z M6.81152344,13.7802359 C6.52261005,13.7802359 6.2875601,13.5451859 6.2875601,13.2562725 L6.2875601,12.7323092 L6.71710524,12.7323092 L6.82860464,13.400834 C6.84987755,13.5278951 6.87602332,13.6544847 6.90625601,13.7802359 L6.81152344,13.7802359 Z M6.28845083,7.33548678 L5.25954402,7.33548678 C5.52493145,3.82383207 8.45556321,1.04792668 12.0511569,1.04792668 C15.6307696,1.04792668 18.5742909,3.82346529 18.8427173,7.33548678 L17.8139153,7.33548678 C17.7761899,4.44179443 15.4197696,2.09585337 12.5201564,2.09585337 L11.5822621,2.09585337 C8.68270132,2.09585337 6.3261238,4.44179443 6.28845083,7.33548678 Z M11.5822097,3.14378005 L12.520104,3.14378005 C14.8679314,3.14378005 16.7681892,5.06415809 16.7668269,7.40936561 C16.7668269,7.57425687 16.765517,7.71782283 16.76274,7.84844689 C16.76274,7.85012357 16.7626876,7.85185265 16.7626876,7.85358173 L16.1073143,7.75994948 C14.3268868,7.50572247 12.6458028,6.66518048 11.3737246,5.39310228 C11.2754291,5.29485915 11.1421852,5.23963341 11.0032302,5.23963341 C9.59607422,5.23963341 8.24906926,5.88075496 7.35864596,6.96389198 C7.57808181,4.83036565 9.38172082,3.14378005 11.5822097,3.14378005 Z M7.99253681,13.7802359 C7.73024076,12.9076797 7.43011456,10.3402594 7.3637808,8.69501446 L8.06898306,7.75470985 C8.71665415,6.89142785 9.72428805,6.35504657 10.7961599,6.29348088 C12.206512,7.63566538 14.0310571,8.52200177 15.9591374,8.7972921 L16.7305163,8.90753399 C16.6789583,10.0018314 16.5735892,11.0999538 16.4226354,12.1098931 C16.422583,12.1102075 16.4225306,12.1105743 16.4224782,12.1109411 C16.3744832,12.4356412 16.336653,12.6445977 16.2400342,13.2282405 C15.9625432,14.8926101 14.7206453,16.3976947 13.0812164,16.8075913 C12.4065088,16.9760455 11.6957001,16.9759931 11.0213593,16.8075913 C9.99769212,16.5516876 9.05906419,15.8433939 8.45331017,14.8281626 L9.52146184,14.8281626 C9.73775391,15.4380035 10.3201392,15.8760892 11.0032302,15.8760892 L12.0511569,15.8760892 C12.9196261,15.8760892 13.6230469,15.1727209 13.6230469,14.3041992 C13.6230469,13.4374591 12.917897,12.7323092 12.0511569,12.7323092 L11.0032302,12.7323092 C10.3049442,12.7323092 9.73115197,13.1833368 9.5205711,13.7802359 L7.99253681,13.7802359 Z M10.9591649,17.8679883 C11.3185513,17.943701 11.6849589,17.9824219 12.0511569,17.9824219 C12.3378172,17.9824219 12.6245299,17.9584244 12.9079941,17.9118964 L11.9821509,18.8910267 L10.9591649,17.8679883 Z M11.2618061,19.6527646 L9.59989915,21.4102425 C9.14237436,20.5344901 8.74924467,19.6230559 8.42679763,18.689982 L9.05089036,17.4417965 L11.2618061,19.6527646 Z M14.9626116,17.2642777 L15.6754113,18.6899296 C15.3524403,19.6245754 14.9592058,20.536324 14.5021526,21.4110284 L12.7234018,19.6322776 L14.9626116,17.2642777 Z M10.4792668,14.3041992 C10.4792668,14.0149191 10.7138976,13.7802359 11.0032302,13.7802359 L12.0511569,13.7802359 C12.3400702,13.7802359 12.5751202,14.0152858 12.5751202,14.3041992 C12.5751202,14.5935318 12.340437,14.8281626 12.0511569,14.8281626 L11.0032302,14.8281626 C10.7143168,14.8281626 10.4792668,14.5931126 10.4792668,14.3041992 Z M1.06888522,25.7789964 C1.27653189,23.1833344 3.00398663,20.8240323 5.32881197,20.0487761 L7.53438326,19.3137603 C7.93846379,20.4311122 8.43905837,21.517131 9.02574012,22.54871 C9.02673565,22.5504915 9.02767879,22.5522729 9.02867432,22.554002 C9.02867432,22.5540544 9.02872671,22.5540544 9.02872671,22.5541068 C9.45738112,23.3080377 9.93984657,24.0447825 10.4629192,24.7442212 L11.1074989,25.7789964 L1.06888522,25.7789964 Z M12.0511569,25.3119355 L11.3405578,24.1711101 C11.3325935,24.1583254 11.3241053,24.1459075 11.3150931,24.1338563 C10.8907876,23.5678711 10.4949857,22.9759497 10.1344989,22.3700909 L12.0031094,20.3940155 L13.9720589,22.362965 C13.6091618,22.9732251 13.2119976,23.5676091 12.7873253,24.1337515 C12.7616511,24.1679663 12.7980666,24.1140505 12.0511569,25.3119355 Z M12.9948148,25.7789964 L13.6393421,24.7442736 C14.1647202,24.0421627 14.6506438,23.2994971 15.0835947,22.5367112 C15.0862145,22.5321004 15.0886771,22.5273847 15.091297,22.5227738 C15.0916113,22.5221975 15.0919257,22.5216735 15.0922401,22.5210971 C15.6714816,21.4993686 16.1668365,20.4227811 16.5679304,19.3137603 L18.7734493,20.0487761 C21.0983271,20.8240323 22.8257818,23.1833344 23.0334285,25.7789964 L12.9948148,25.7789964 Z" id="Shape" fill-rule="nonzero"></path>
                <path d="M21.4587091,23.6585691 C21.1085444,22.9576634 20.5956366,22.3349854 19.9754212,21.8578643 C19.7460301,21.6813411 19.4170859,21.7242537 19.2406674,21.9536448 C19.0641966,22.183036 19.1071092,22.5119802 19.3364479,22.688451 C19.8318029,23.0695296 20.2414374,23.566928 20.5211815,24.1268876 C20.6507576,24.386197 20.9656596,24.4905705 21.2240783,24.361466 C21.4829162,24.2321518 21.5879708,23.9174594 21.4587091,23.6585691 Z" id="Path"></path>
            </g>
        </g>
    </g>
</svg>