<?xml version="1.0" encoding="UTF-8"?>
<svg width="19px" height="19px" viewBox="0 0 19 19" version="1.1" xmlns="http://www.w3.org/2000/svg" xmlns:xlink="http://www.w3.org/1999/xlink">
    <!-- Generator: sketchtool 52.1 (67048) - http://www.bohemiancoding.com/sketch -->
    <title>69A1729F-5B0E-4B24-BE36-73D84F74E047</title>
    <desc>Created with sketchtool.</desc>
    <g id="Agenda-5" stroke="none" stroke-width="1" fill="none" fill-rule="evenodd">
        <g id="agenda-0051-3" transform="translate(-1425.000000, -452.000000)" fill="#2FCC71">
            <g id="Group-10" transform="translate(1425.000000, 449.000000)">
                <g id="whatsapp-icon" transform="translate(0.000000, 3.000000)">
                    <path d="M8.63918137,0.0105627871 C3.81918956,0.240063344 0.0155386455,4.25418434 0.0301606855,9.07963214 C0.0346127694,10.5493436 0.389426391,11.9365605 1.015337,13.1622803 L0.0543416114,17.8270603 C0.00235698556,18.0793887 0.229937035,18.3003342 0.480606814,18.2409731 L5.05154382,17.1580255 C6.22589005,17.7429944 7.544929,18.0808727 8.94091917,18.1021728 C13.8674118,18.1774218 17.9752448,14.2656551 18.1287981,9.34099565 C18.2933942,4.06209001 13.9365501,-0.241721963 8.63918137,0.0105627871 Z M14.0932896,14.0632162 C12.7546527,15.4018531 10.9748231,16.1390658 9.08172723,16.1390658 C7.97324566,16.1390658 6.91199109,15.8903601 5.92733855,15.3998889 L5.29077786,15.0827871 L2.48832203,15.7467586 L3.07822314,12.8831521 L2.76461311,12.2690264 C2.25345278,11.2679623 1.99427167,10.1854512 1.99427167,9.0516102 C1.99427167,7.15847067 2.73148437,5.37868469 4.07012122,4.04000419 C5.39679856,2.71332685 7.20565403,1.96411098 9.08185818,1.96411098 C10.9749541,1.96415463 12.7546964,2.70136733 14.0933332,4.03996054 C15.4319701,5.37859739 16.1691828,7.15838337 16.1692264,9.05147925 C16.1691828,10.9277271 15.4199669,12.7365825 14.0932896,14.0632162 Z" id="Shape" fill-rule="nonzero"></path>
                    <path d="M13.4746245,11.0145863 L11.7213328,10.5111517 C11.4908284,10.4449815 11.2426029,10.510366 11.0746458,10.6815094 L10.6458927,11.1183373 C10.4651032,11.3025314 10.1907762,11.3617179 9.95149855,11.2649069 C9.12210152,10.9292547 7.37740844,9.37800905 6.93185087,8.60208067 C6.80330786,8.37825434 6.82456438,8.09842778 6.98239512,7.89419935 L7.35671934,7.40992611 C7.50337622,7.22018877 7.53432257,6.96537244 7.43733698,6.74604184 L6.6996878,5.0776889 C6.52300117,4.67809255 6.01236462,4.56177095 5.67876387,4.84391085 C5.18942748,5.25778006 4.60882337,5.88670237 4.53824474,6.58345349 C4.41380464,7.81187944 4.94063456,9.36041895 6.93285477,11.2198187 C9.23440752,13.3679491 11.0774829,13.6517476 12.2774941,13.3610528 C12.9581392,13.1961947 13.5020791,12.5352785 13.8453696,11.9941321 C14.0794096,11.6251765 13.8946044,11.1351854 13.4746245,11.0145863 Z" id="Path"></path>
                </g>
            </g>
        </g>
    </g>
</svg>