<?xml version="1.0" encoding="UTF-8"?>
<svg width="22px" height="14px" viewBox="0 0 22 14" version="1.1" xmlns="http://www.w3.org/2000/svg" xmlns:xlink="http://www.w3.org/1999/xlink">
    <!-- Generator: sketchtool 52.1 (67048) - http://www.bohemiancoding.com/sketch -->
    <title>109843A0-4C23-46C0-B79D-2B9EA5ED6BA7</title>
    <desc>Created with sketchtool.</desc>
    <g id="Facturación-WEB-PASO-1*" stroke="none" stroke-width="1" fill="none" fill-rule="evenodd">
        <g id="Desktop-23" transform="translate(-1019.000000, -462.000000)" fill="#0071CE">
            <g id="Modal">
                <g id="Group-5" transform="translate(290.000000, 135.000000)">
                    <g id="A-domicilio" transform="translate(729.000000, 327.000000)">
                        <path d="M18.3333333,5.7662037 C16.3130129,5.7662037 14.6666667,7.41254993 14.6666667,9.43287037 C14.6666667,11.4531908 16.3087143,13.099537 18.3333333,13.099537 C20.3536538,13.099537 22,11.4574894 22,9.43287037 C22,7.40825138 20.3536538,5.7662037 18.3333333,5.7662037 Z M18.3333333,12.183945 C16.8159437,12.183945 15.5822587,10.95026 15.5822587,9.43287037 C15.5822587,7.91548077 16.8159437,6.68179573 18.3333333,6.68179573 C19.8507229,6.68179573 21.084408,7.91548077 21.084408,9.43287037 C21.084408,10.95026 19.8507229,12.183945 18.3333333,12.183945 Z" id="Shape" fill-rule="nonzero"></path>
                        <path d="M7.21734036,8.37845838 C7.15719586,8.12362743 6.90802578,7.96715229 6.66315173,8.02974235 C6.41827768,8.0923324 6.26791642,8.35163407 6.32806093,8.60646502 C6.38820543,8.86129597 6.41398164,9.07589046 6.41398164,9.28601422 C6.41398164,10.8641778 5.18101933,12.147274 3.66451865,12.147274 C2.14801797,12.147274 0.915055653,10.8641778 0.915055653,9.28601422 C0.915055653,8.1638639 1.55516501,7.14006938 2.54325327,6.67958538 C2.77523921,6.57228814 2.87834407,6.29063288 2.77523921,6.04921408 C2.67213435,5.80779529 2.40148409,5.70049805 2.16949814,5.80779529 C0.850615114,6.42475443 1.21325172e-12,7.78832355 1.21325172e-12,9.28601422 C1.21325172e-12,11.3872519 1.64108573,13.099537 3.66451865,13.099537 C5.68795157,13.099537 7.33333333,11.3917226 7.33333333,9.28601422 C7.33333333,9.00435896 7.29466901,8.70482083 7.21734036,8.37845838 Z" id="Path"></path>
                        <path d="M16.9922921,0.205906029 C16.9119642,0.110501465 16.8048603,0.0580289544 16.6939312,0.0627991826 C16.4032205,0.0723396391 13.8518519,0.22975717 13.8518519,2.09968663 C13.8518519,3.96961609 16.4032205,4.12226339 16.6939312,4.13657407 C16.6977563,4.13657407 16.7015815,4.13657407 16.7054066,4.13657407 C16.8125105,4.13657407 16.9119642,4.08410156 16.988467,3.99346723 C17.0687949,3.89806266 17.1108715,3.76449627 17.1108715,3.62615966 L17.1108715,0.573213601 C17.1146966,0.434876983 17.0726201,0.301310593 16.9922921,0.205906029 Z" id="Path"></path>
                        <path d="M14.3195791,0.897757915 L11.2643032,0.0842907267 C11.0017405,0.0117279259 10.7105345,0.126300769 10.619831,0.340170077 C10.5291275,0.554039385 10.6723436,0.783185072 10.9396802,0.855747873 L13.994956,1.66921506 C14.0522424,1.68449144 14.104755,1.69212963 14.1572675,1.69212963 C14.3673178,1.69212963 14.5678202,1.58519498 14.6394283,1.41333571 C14.7301318,1.1994664 14.5869157,0.970320716 14.3195791,0.897757915 Z" id="Path"></path>
                        <path d="M18.6762481,9.15683875 L14.7684543,2.73938925 C14.6310172,2.51587459 14.3286557,2.4428025 14.0995939,2.5674549 C13.8613697,2.6921073 13.7834887,2.97150061 13.9163445,3.19071691 L17.8241383,9.60816641 C17.915763,9.75860896 18.0806875,9.84027778 18.2501932,9.84027778 C18.3326554,9.84027778 18.4151177,9.81878598 18.4929987,9.78010076 C18.7312229,9.65544835 18.8091039,9.37605504 18.6762481,9.15683875 Z" id="Path"></path>
                        <path d="M6.87933463,9.02054167 L6.38714912,8.90615988 L4.97848025,8.05973469 L5.02091004,7.98348017 C5.13122748,7.78140569 5.04212493,7.53739122 4.81724707,7.43826034 C4.59236921,7.33912946 4.32506156,7.41919671 4.21050114,7.62127119 L3.30674672,9.24930523 C3.23885906,9.37512519 3.24310204,9.52382151 3.32371863,9.64582875 C3.4085782,9.76402326 3.55283947,9.84027778 3.70982968,9.84027778 L6.87933463,9.84027778 C7.12967036,9.84027778 7.33333333,9.65726693 7.33333333,9.43231609 C7.33333333,9.20736525 7.12967036,9.02054167 6.87933463,9.02054167 Z" id="Path"></path>
                        <path d="M14.6054097,2.19714506 C14.4697693,1.73032407 14.1109785,1.69212963 14.0059666,1.69212963 C11.4856802,1.69212963 9.08353222,2.94830247 7.72275259,4.02623457 C7.64836913,3.97955247 7.56523469,3.95408951 7.46897375,3.95408951 C6.52824185,3.95408951 3.84168656,3.51273148 3.81543357,3.50848765 C3.67979316,3.48302469 3.53977725,3.52121914 3.43476531,3.61033951 C3.32975338,3.69521605 3.26849642,3.82253086 3.26849642,3.95408951 L3.26849642,4.41242284 C1.74582339,4.45486111 0.739459029,4.71373457 0.275656325,5.18055556 C0.00875099443,5.44791667 -1.20969901e-12,5.70679012 -1.20969901e-12,5.78317901 C0.0131264916,6.02507716 0.214399364,6.21604938 0.468178202,6.21604938 C2.358393,6.21604938 6.64638027,8.77507716 8.13842482,9.75964506 C8.21718377,9.81057099 8.30469372,9.84027778 8.40095465,9.84027778 L12.1376293,9.84027778 C13.7215593,9.84027778 14.6666667,3.85648148 14.6666667,2.79128086 C14.6666667,2.54089506 14.6447892,2.34567901 14.6054097,2.19714506 Z" id="Path"></path>
                    </g>
                </g>
            </g>
        </g>
    </g>
</svg>