<?xml version="1.0" encoding="UTF-8"?>
<svg width="17px" height="19px" viewBox="0 0 17 19" version="1.1" xmlns="http://www.w3.org/2000/svg" xmlns:xlink="http://www.w3.org/1999/xlink">
    <!-- Generator: sketchtool 52.1 (67048) - http://www.bohemiancoding.com/sketch -->
    <title>8DC64CAD-0720-41A0-9B19-D07F32A0D21A</title>
    <desc>Created with sketchtool.</desc>
    <g id="Pagos-1" stroke="none" stroke-width="1" fill="none" fill-rule="evenodd">
        <g id="Pago-008" transform="translate(-1561.000000, -407.000000)" fill="#C3C8CC">
            <g id="Group-6" transform="translate(459.000000, 217.000000)">
                <g id="Group-2" transform="translate(1090.000000, 181.000000)">
                    <g id="Autorizacion" transform="translate(12.500000, 9.500000)">
                        <circle id="Oval" cx="12.0714286" cy="12.3571429" r="1"></circle>
                        <path d="M15.2857143,12.9285714 C15.6802143,12.9285714 16,12.6087857 16,12.2142857 L16,9.57142857 C16,7.996 14.7182857,6.71428571 13.1428571,6.71428571 L12.2843929,6.71428571 L12.2843929,4.19521429 C12.2843929,1.88196429 10.3618214,0 7.99867857,0 C5.63553571,0 3.71296429,1.88196429 3.71296429,4.19521429 L3.71296429,6.71428571 L2.85714286,6.71428571 C1.28171429,6.71428571 0,7.996 0,9.57142857 L0,15.4285714 C0,17.004 1.28171429,18.2857143 2.85714286,18.2857143 L13.1428571,18.2857143 C14.7182857,18.2857143 16,17.004 16,15.4285714 C16,15.0340714 15.6802143,14.7142857 15.2857143,14.7142857 C14.8912143,14.7142857 14.5714286,15.0340714 14.5714286,15.4285714 C14.5714286,16.2162857 13.9305714,16.8571429 13.1428571,16.8571429 L2.85714286,16.8571429 C2.06942857,16.8571429 1.42857143,16.2162857 1.42857143,15.4285714 L1.42857143,9.57142857 C1.42857143,8.78371429 2.06942857,8.14285714 2.85714286,8.14285714 L13.1428571,8.14285714 C13.9305714,8.14285714 14.5714286,8.78371429 14.5714286,9.57142857 L14.5714286,12.2142857 C14.5714286,12.6087857 14.8912143,12.9285714 15.2857143,12.9285714 Z M10.8558214,6.71428571 L5.14153571,6.71428571 L5.14153571,4.19521429 C5.14153571,2.66967857 6.42325,1.42857143 7.99867857,1.42857143 C9.57410714,1.42857143 10.8558214,2.66967857 10.8558214,4.19521429 L10.8558214,6.71428571 Z" id="Shape" fill-rule="nonzero"></path>
                        <circle id="Oval" cx="6.67857143" cy="12.3571429" r="1"></circle>
                        <circle id="Oval" cx="4" cy="12.3571429" r="1"></circle>
                        <circle id="Oval" cx="9.35714286" cy="12.3571429" r="1"></circle>
                    </g>
                </g>
            </g>
        </g>
    </g>
</svg>