<?xml version="1.0" encoding="UTF-8"?>
<svg width="20px" height="20px" viewBox="0 0 20 20" version="1.1" xmlns="http://www.w3.org/2000/svg" xmlns:xlink="http://www.w3.org/1999/xlink">
    <!-- Generator: sketchtool 52.1 (67048) - http://www.bohemiancoding.com/sketch -->
    <title>E1F99528-9CF5-4636-8CAD-59E55E87BB78</title>
    <desc>Created with sketchtool.</desc>
    <g id="Pagos-1" stroke="none" stroke-width="1" fill="none" fill-rule="evenodd">
        <g id="Pago-008" transform="translate(-1505.000000, -407.000000)" fill="#C3C8CC" fill-rule="nonzero">
            <g id="Group-6" transform="translate(459.000000, 217.000000)">
                <g id="plus" transform="translate(1035.000000, 181.000000)">
                    <path d="M20.75,9.5 C15.3742294,9.5 11,13.8742294 11,19.25 C11,24.6257706 15.3742294,29 20.75,29 C26.1257706,29 30.5,24.6257706 30.5,19.25 C30.5,13.8742294 26.1257706,9.5 20.75,9.5 Z M25.015625,20.0628967 L21.5628967,20.0628967 L21.5628967,23.515625 C21.5628967,23.9640274 21.1984024,24.3285217 20.75,24.3285217 C20.3015976,24.3285217 19.9371033,23.9640274 19.9371033,23.515625 L19.9371033,20.0628967 L16.484375,20.0628967 C16.0359726,20.0628967 15.6714783,19.6984024 15.6714783,19.25 C15.6714783,18.8015976 16.0359726,18.4371033 16.484375,18.4371033 L19.9371033,18.4371033 L19.9371033,14.984375 C19.9371033,14.5359726 20.3015976,14.1714783 20.75,14.1714783 C21.1984024,14.1714783 21.5628967,14.5359726 21.5628967,14.984375 L21.5628967,18.4371033 L25.015625,18.4371033 C25.4640274,18.4371033 25.8285217,18.8015976 25.8285217,19.25 C25.8285217,19.6984024 25.4640274,20.0628967 25.015625,20.0628967 Z" id="Beneficio"></path>
                </g>
            </g>
        </g>
    </g>
</svg>