<?xml version="1.0" encoding="UTF-8"?>
<svg width="21px" height="20px" viewBox="0 0 21 20" version="1.1" xmlns="http://www.w3.org/2000/svg" xmlns:xlink="http://www.w3.org/1999/xlink">
    <!-- Generator: sketchtool 52.1 (67048) - http://www.bohemiancoding.com/sketch -->
    <title>DAA966FD-05F2-472D-B8DB-41141AF183EA</title>
    <desc>Created with sketchtool.</desc>
    <defs>
        <path d="M10.8256819,2.50406576 L17.8343245,15.7426129 C18.2219353,16.4747667 17.942628,17.3825154 17.2104742,17.7701263 C16.9942473,17.8845993 16.7533018,17.9444444 16.5086426,17.9444444 L2.49135742,17.9444444 C1.66293029,17.9444444 0.991357417,17.2728716 0.991357417,16.4444444 C0.991357417,16.1997853 1.05120252,15.9588397 1.16567554,15.7426129 L8.17431813,2.50406576 C8.561929,1.77191188 9.4696777,1.49260459 10.2018316,1.88021547 C10.4676178,2.0209258 10.6849715,2.23827958 10.8256819,2.50406576 Z" id="path-1"></path>
        <filter x="-13.2%" y="-4.4%" width="126.4%" height="129.5%" filterUnits="objectBoundingBox" id="filter-2">
            <feOffset dx="0" dy="1" in="SourceAlpha" result="shadowOffsetOuter1"></feOffset>
            <feGaussianBlur stdDeviation="1" in="shadowOffsetOuter1" result="shadowBlurOuter1"></feGaussianBlur>
            <feColorMatrix values="0 0 0 0 0   0 0 0 0 0   0 0 0 0 0  0 0 0 0.104506341 0" type="matrix" in="shadowBlurOuter1"></feColorMatrix>
        </filter>
    </defs>
    <g id="Facturación-WEB-PASO-1*" stroke="none" stroke-width="1" fill="none" fill-rule="evenodd">
        <g id="Desktop-09-3" transform="translate(-392.000000, -575.000000)">
            <g id="Beneficio-incorrecto" transform="translate(393.000000, 574.000000)">
                <g id="Triangle">
                    <use fill="black" fill-opacity="1" filter="url(#filter-2)" xlink:href="#path-1"></use>
                    <use fill="#FF5964" fill-rule="evenodd" xlink:href="#path-1"></use>
                </g>
                <g id="Group" transform="translate(8.444444, 5.805556)" fill="#FFFFFF">
                    <path d="M1.24614198,6.97839506 C0.557916766,6.97839506 0,7.53631183 0,8.22453704 C0,8.91276225 0.557916766,9.47067901 1.24614198,9.47067901 C1.93436718,9.47067901 2.49228395,8.91276225 2.49228395,8.22453704 C2.49228395,7.53631183 1.93436718,6.97839506 1.24614198,6.97839506 Z" id="Icon-Path"></path>
                    <path d="M1.1962963,4.9845679 C1.74687646,4.9845679 2.19320988,4.53823449 2.19320988,3.98765432 L2.19320988,0.99691358 C2.19320988,0.446333413 1.74687646,0 1.1962963,0 C0.645716129,0 0.199382716,0.446333413 0.199382716,0.99691358 L0.199382716,3.98765432 C0.199382716,4.53823449 0.645716129,4.9845679 1.1962963,4.9845679 Z" id="Icon-Path"></path>
                </g>
            </g>
        </g>
    </g>
</svg>