<?xml version="1.0" encoding="UTF-8"?>
<svg width="19px" height="19px" viewBox="0 0 19 19" version="1.1" xmlns="http://www.w3.org/2000/svg" xmlns:xlink="http://www.w3.org/1999/xlink">
    <!-- Generator: sketchtool 52.1 (67048) - http://www.bohemiancoding.com/sketch -->
    <title>9D40BC53-AAFD-4649-9BC8-09835C7CA879</title>
    <desc>Created with sketchtool.</desc>
    <g id="Agenda-6---Prop-2" stroke="none" stroke-width="1" fill="none" fill-rule="evenodd">
        <g id="crm-examenes-002" transform="translate(-1267.000000, -743.000000)" fill="#3962E6" fill-rule="nonzero" stroke="#3962E6" stroke-width="0.8">
            <g id="Group" transform="translate(180.000000, 520.000000)">
                <g id="examenes-lista-copy" transform="translate(8.697186, 216.000000)">
                    <g id="Buscar-icon" transform="translate(1079.302814, 8.000000)">
                        <g id="Icon">
                            <path d="M16.8528846,16.0869141 L11.7692308,10.890625 C12.7826923,9.66210938 13.2894231,8.24544271 13.2894231,6.640625 C13.2894231,5.43424479 12.9979167,4.3219401 12.4149038,3.30371094 C11.831891,2.28548177 11.0363782,1.48030599 10.0283654,0.888183594 C9.02035256,0.296061198 7.92516026,0 6.74278846,0 C5.56041667,0 4.46794872,0.296061198 3.46538462,0.888183594 C2.46282051,1.48030599 1.67003205,2.28548177 1.08701923,3.30371094 C0.50400641,4.3219401 0.2125,5.43424479 0.2125,6.640625 C0.2125,7.84700521 0.50400641,8.9593099 1.08701923,9.97753906 C1.67003205,10.9957682 2.46282051,11.800944 3.46538462,12.3930664 C4.46794872,12.9851888 5.56314103,13.28125 6.75096154,13.28125 C8.37467949,13.28125 9.80224359,12.7389323 11.0336538,11.6542969 L16.1009615,16.8339844 C16.2099359,16.9446615 16.3352564,17 16.4769231,17 C16.6185897,17 16.7411859,16.9474284 16.8447115,16.8422852 C16.9482372,16.7371419 17,16.6098633 17,16.4604492 C17,16.3110352 16.9509615,16.1865234 16.8528846,16.0869141 Z M6.75096154,12.2353516 C5.74839744,12.2353516 4.82483974,11.9835612 3.98028846,11.4799805 C3.13573718,10.9763997 2.46826923,10.2957357 1.97788462,9.43798828 C1.4875,8.58024089 1.24230769,7.64778646 1.24230769,6.640625 C1.24230769,5.63346354 1.4875,4.70100911 1.97788462,3.84326172 C2.46826923,2.98551432 3.13573718,2.30485026 3.98028846,1.80126953 C4.82483974,1.2976888 5.74567308,1.04589844 6.74278846,1.04589844 C7.73990385,1.04589844 8.66073718,1.2976888 9.50528846,1.80126953 C10.3498397,2.30485026 11.0173077,2.98551432 11.5076923,3.84326172 C11.9980769,4.70100911 12.2432692,5.63346354 12.2432692,6.640625 C12.2432692,7.07226562 12.1942308,7.4983724 12.0961538,7.91894531 C11.9980769,8.33951823 11.8591346,8.73242188 11.6793269,9.09765625 C11.4995192,9.46289062 11.2842949,9.80875651 11.0336538,10.1352539 C10.7830128,10.4617513 10.4996795,10.7522786 10.1836538,11.0068359 C9.86762821,11.2613932 9.52980769,11.4799805 9.17019231,11.6625977 C8.81057692,11.8452148 8.42371795,11.9863281 8.00961538,12.0859375 C7.59551282,12.1855469 7.17596154,12.2353516 6.75096154,12.2353516 Z" id="Icon-Shape"></path>
                        </g>
                    </g>
                </g>
            </g>
        </g>
    </g>
</svg>