<?xml version="1.0" encoding="UTF-8"?>
<svg width="32px" height="27px" viewBox="0 0 32 27" version="1.1" xmlns="http://www.w3.org/2000/svg" xmlns:xlink="http://www.w3.org/1999/xlink">
    <!-- Generator: sketchtool 52.1 (67048) - http://www.bohemiancoding.com/sketch -->
    <title>0BBA7D0B-6F6E-4969-B884-D8119AF68E09</title>
    <desc>Created with sketchtool.</desc>
    <g id="Pagos-1" stroke="none" stroke-width="1" fill="none" fill-rule="evenodd">
        <g id="Pago-001" transform="translate(-301.000000, -733.000000)" fill="#C3C8CC">
            <g id="Chequeo" transform="translate(301.000000, 733.000000)">
                <path d="M30.0440046,5.01724594 L25.2126056,5.01724594 L25.2126056,1.73395128 C25.2126056,0.81165522 24.4622798,0.0613294664 23.5399838,0.0613294664 L8.17664269,0.0613294664 C7.25434664,0.0613294664 6.50402088,0.81165522 6.50402088,1.73395128 L6.50402088,5.01724594 L1.67262181,5.01724594 C0.750325754,5.01724594 0,5.76757169 0,6.68986775 L0,25.0267587 C0,25.9490548 0.750325754,26.6993805 1.67262181,26.6993805 L30.0440046,26.6993805 C30.9663007,26.6993805 31.7166265,25.9490548 31.7166265,25.0267587 C31.7166265,24.1399594 31.7166265,7.58688863 31.7166265,6.68986775 C31.7166265,5.76757169 30.9663007,5.01724594 30.0440046,5.01724594 Z M8.36248956,1.91979814 L23.3541369,1.91979814 L23.3541369,5.01724594 L8.36248956,5.01724594 L8.36248956,1.91979814 Z M29.8581578,6.87571462 L29.8581578,19.9409353 C27.4095014,20.2950355 25.3244234,22.2633397 24.9140735,24.8409118 L6.8026768,24.8409118 C6.39232691,22.2603042 4.30501879,20.2948497 1.85846868,19.9409353 L1.85846868,6.87571462 L29.8581578,6.87571462 Z M1.85846868,24.8409118 L1.85846868,21.8376265 C3.36296102,22.1694251 4.55442529,23.3450304 4.90908306,24.8409118 L1.85846868,24.8409118 Z M29.8581578,24.8409118 L26.8075434,24.8409118 C27.1622012,23.3450304 28.3536654,22.1694251 29.8581578,21.8376265 L29.8581578,24.8409118 Z" id="Shape" fill-rule="nonzero"></path>
                <path d="M10.9023968,16.7875476 L14.9290789,16.7875476 L14.9290789,20.8142297 C14.9290789,21.3274148 15.3451281,21.743464 15.8583132,21.743464 C16.3714984,21.743464 16.7875476,21.3274148 16.7875476,20.8142297 L16.7875476,16.7875476 L20.8142297,16.7875476 C21.3274148,16.7875476 21.743464,16.3714984 21.743464,15.8583132 C21.743464,15.3451281 21.3274148,14.9290789 20.8142297,14.9290789 L16.7875476,14.9290789 L16.7875476,10.9023968 C16.7875476,10.3892116 16.3714984,9.97316241 15.8583132,9.97316241 C15.3451281,9.97316241 14.9290789,10.3892116 14.9290789,10.9023968 L14.9290789,14.9290789 L10.9023968,14.9290789 C10.3892116,14.9290789 9.97316241,15.3451281 9.97316241,15.8583132 C9.97316241,16.3714984 10.3892116,16.7875476 10.9023968,16.7875476 Z" id="Path"></path>
            </g>
        </g>
    </g>
</svg>