<?xml version="1.0" encoding="UTF-8"?>
<svg width="17px" height="18px" viewBox="0 0 17 18" version="1.1" xmlns="http://www.w3.org/2000/svg" xmlns:xlink="http://www.w3.org/1999/xlink">
    <!-- Generator: sketchtool 52.1 (67048) - http://www.bohemiancoding.com/sketch -->
    <title>D4A1B62F-30AE-4063-8D2D-9B05C54C4A77</title>
    <desc>Created with sketchtool.</desc>
    <g id="Pagos-1" stroke="none" stroke-width="1" fill="none" fill-rule="evenodd">
        <g id="Pago-003" transform="translate(-1506.000000, -340.000000)" fill="#3962E6">
            <g id="Btn-secundario-icono" transform="translate(1494.000000, 330.000000)">
                <g id="clean-icon" transform="translate(12.000000, 10.000000)">
                    <path d="M13.6464844,11.5546875 L11.1230469,11.5546875 C10.7746329,11.5546875 10.4921875,11.2722421 10.4921875,10.9238281 L10.4921875,10.9238281 C10.4921875,10.5754141 10.7746329,10.2929688 11.1230469,10.2929688 L13.6464844,10.2929688 C13.9948984,10.2929688 14.2773438,10.5754141 14.2773438,10.9238281 L14.2773438,10.9238281 C14.2773438,11.2722421 13.9948984,11.5546875 13.6464844,11.5546875 Z" id="Icon-Path"></path>
                    <path d="M16.1699219,16.6015625 L13.6464844,16.6015625 C13.2980704,16.6015625 13.015625,16.3191171 13.015625,15.9707031 L13.015625,15.9707031 C13.015625,15.6222891 13.2980704,15.3398438 13.6464844,15.3398438 L16.1699219,15.3398438 C16.5183359,15.3398438 16.8007812,15.6222891 16.8007812,15.9707031 L16.8007812,15.9707031 C16.8007812,16.3191171 16.5183359,16.6015625 16.1699219,16.6015625 Z" id="Icon-Path"></path>
                    <path d="M14.9082031,14.078125 L12.3847656,14.078125 C12.0363516,14.078125 11.7539062,13.7956796 11.7539062,13.4472656 L11.7539062,13.4472656 C11.7539062,13.0988516 12.0363516,12.8164062 12.3847656,12.8164062 L14.9082031,12.8164062 C15.2566171,12.8164062 15.5390625,13.0988516 15.5390625,13.4472656 L15.5390625,13.4472656 C15.5390625,13.7956796 15.2566171,14.078125 14.9082031,14.078125 Z" id="Icon-Path"></path>
                    <path d="M8.60150195,11.5546875 C8.59245918,10.4719677 8.01701234,9.47307438 7.08491602,8.92211133 L11.4389058,1.37601936 C11.6129158,1.07443492 11.5096604,0.688895553 11.2082129,0.514648438 L11.2082129,0.514648438 C10.9070118,0.340543734 10.5217002,0.443575751 10.3475955,0.744776888 C10.3475338,0.744883675 10.3474721,0.744990481 10.3474104,0.745097305 L5.88249805,8.47987891 C4.69048191,8.21358625 3.44479847,8.57068375 2.57490234,9.42806055 C0.212964844,11.7060938 0.395914062,17.0318086 0.404746094,17.2576563 C0.418297695,17.5961779 0.696812827,17.8635524 1.03560547,17.8632813 L10.4928184,17.8632813 C10.7643594,17.8632813 11.0054353,17.6895236 11.0913041,17.4319171 C11.1771729,17.1743107 11.0885668,16.890659 10.871334,16.7277344 C8.6380918,15.0521719 8.60150195,11.5887539 8.60150195,11.5546875 Z M5.40115234,9.6602168 C6.45008006,9.6717406 7.30438667,10.5063153 7.34041406,11.5546875 C7.34041406,11.5786602 7.34167578,11.6859063 7.35113867,11.8505605 L3.62906836,10.1951855 C4.12431616,9.78680136 4.76265733,9.59409459 5.40115234,9.6602168 Z M7.62177734,16.6015625 C7.11752454,16.0881167 6.79610081,15.4231021 6.70703125,14.7089844 L5.4453125,14.7089844 C5.49049498,15.3803945 5.70021943,16.030367 6.05598437,16.6015625 L4.65358398,16.6015625 C4.39414309,15.7828449 4.2362967,14.9353475 4.18359375,14.078125 L2.921875,14.078125 C2.9625578,14.9327818 3.10336054,15.7797156 3.34139648,16.6015625 L1.66015625,16.6015625 C1.67971289,15.4433047 1.84310547,12.8845391 2.7975957,11.2058223 L7.54985937,13.3192012 C7.77818644,14.5047806 8.26497712,15.6254761 8.97560156,16.6015625 L7.62177734,16.6015625 Z" id="Icon-Shape" fill-rule="nonzero"></path>
                </g>
            </g>
        </g>
    </g>
</svg>