<?xml version="1.0" encoding="UTF-8"?>
<svg width="29px" height="23px" viewBox="0 0 29 23" version="1.1" xmlns="http://www.w3.org/2000/svg" xmlns:xlink="http://www.w3.org/1999/xlink">
    <title>Consulta</title>
    <defs>
        <circle id="path-1" cx="7.5" cy="7.5" r="7.5"></circle>
        <filter x="-13.3%" y="-6.7%" width="126.7%" height="126.7%" filterUnits="objectBoundingBox" id="filter-2">
            <feOffset dx="0" dy="1" in="SourceAlpha" result="shadowOffsetOuter1"></feOffset>
            <feGaussianBlur stdDeviation="0.5" in="shadowOffsetOuter1" result="shadowBlurOuter1"></feGaussianBlur>
            <feColorMatrix values="0 0 0 0 0   0 0 0 0 0   0 0 0 0 0  0 0 0 0.169695426 0" type="matrix" in="shadowBlurOuter1"></feColorMatrix>
        </filter>
    </defs>
    <g id="Paso-1" stroke="none" stroke-width="1" fill="none" fill-rule="evenodd">
        <g id="Desktop-14-2" transform="translate(-629.000000, -530.000000)">
            <g id="Consulta" transform="translate(629.000000, 530.000000)">
                <g id="Identificador-consulta" transform="translate(0.000000, 4.000000)" fill="#FF5964" fill-rule="nonzero">
                    <path d="M17.0215234,3.53273438 L14.1259766,3.53273438 L14.1259766,2.00441406 C14.1259766,0.900507813 13.2278906,0.002421875 12.1239844,0.002421875 L7.87601562,0.002421875 C6.77210938,0.002421875 5.87402344,0.900507813 5.87402344,2.00441406 L5.87402344,3.53269531 L2.97847656,3.53269531 C1.33613281,3.53273438 0,4.86886719 0,6.51121094 L0,15.8472266 C0,17.4895703 1.33613281,18.8257031 2.97847656,18.8257031 L17.0215234,18.8257031 C18.6638672,18.8257031 20,17.4895703 20,15.8472266 L20,6.51121094 C20,4.86886719 18.6638672,3.53273437 17.0215234,3.53273438 Z M7.04589844,2.00441406 C7.04589844,1.54667969 7.41828125,1.17429688 7.87601562,1.17429688 L12.1239844,1.17429688 C12.5817187,1.17429688 12.9541016,1.54667969 12.9541016,2.00441406 L12.9541016,3.53269531 L7.04589844,3.53269531 L7.04589844,2.00441406 Z M1.171875,15.8471875 L1.171875,6.51121094 C1.171875,5.72011719 1.68320312,5.04664062 2.39253906,4.80269531 L2.39253906,17.5557812 C1.68320312,17.3117578 1.171875,16.6382812 1.171875,15.8471875 Z M3.56441406,17.6538281 L3.56441406,4.70460937 L16.4355859,4.70460937 L16.4355859,17.6538281 L3.56441406,17.6538281 Z M18.828125,15.8471875 C18.828125,16.6382812 18.3167969,17.3117578 17.6074609,17.5557031 L17.6074609,4.80265625 C18.3167969,5.04664063 18.828125,5.72011719 18.828125,6.51121094 L18.828125,15.8471875 Z" id="XMLID_1387_"></path>
                    <path d="M13.5302734,9.41648437 L11.7626953,9.41648437 L11.7626953,7.64890625 C11.7626953,7.3253125 11.5003516,7.06296875 11.1767578,7.06296875 L8.82324219,7.06296875 C8.49964844,7.06296875 8.23730469,7.3253125 8.23730469,7.64890625 L8.23730469,9.41648437 L6.46972656,9.41648437 C6.14613281,9.41648437 5.88378906,9.67882812 5.88378906,10.0024219 L5.88378906,12.3559375 C5.88378906,12.6795313 6.14613281,12.941875 6.46972656,12.941875 L8.23730469,12.941875 L8.23730469,14.7094531 C8.23730469,15.0330469 8.49964844,15.2953906 8.82324219,15.2953906 L11.1767578,15.2953906 C11.5003516,15.2953906 11.7626953,15.0330469 11.7626953,14.7094531 L11.7626953,12.941875 L13.5302734,12.941875 C13.8538672,12.941875 14.1162109,12.6795313 14.1162109,12.3559375 L14.1162109,10.0024219 C14.1162109,9.67882812 13.8538672,9.41648437 13.5302734,9.41648437 Z M12.9443359,11.77 L11.1767578,11.77 C10.8531641,11.77 10.5908203,12.0323437 10.5908203,12.3559375 L10.5908203,14.1235156 L9.40917969,14.1235156 L9.40917969,12.3559375 C9.40917969,12.0323437 9.14683594,11.77 8.82324219,11.77 L7.05566406,11.77 L7.05566406,10.5883594 L8.82324219,10.5883594 C9.14683594,10.5883594 9.40917969,10.3260156 9.40917969,10.0024219 L9.40917969,8.23484375 L10.5908203,8.23484375 L10.5908203,10.0024219 C10.5908203,10.3260156 10.8531641,10.5883594 11.1767578,10.5883594 L12.9443359,10.5883594 L12.9443359,11.77 Z" id="XMLID_1393_"></path>
                </g>
                <g id="Asociación-exitosa" transform="translate(13.000000, 0.000000)">
                    <g id="Oval">
                        <use fill="black" fill-opacity="1" filter="url(#filter-2)" xlink:href="#path-1"></use>
                        <use fill="#3962E6" fill-rule="evenodd" xlink:href="#path-1"></use>
                    </g>
                    <g id="simple-line-icons:check" transform="translate(4.200000, 5.400000)" fill="#FFFFFF" fill-rule="nonzero" stroke="#FFFFFF">
                        <g id="Icon">
                            <path d="M5.58245307,0.119133514 L2.16287998,3.56150376 L0.624072089,2.02269587 C0.548081576,1.94670535 0.460692486,1.9087101 0.361904819,1.9087101 C0.263117152,1.9087101 0.175728061,1.94670535 0.0997375484,2.02269587 C0.0845394458,2.03789397 0.0693413432,2.05879136 0.0541432406,2.08538804 C0.038945138,2.11198472 0.027546561,2.13668164 0.0199475097,2.15947879 C0.0123484584,2.18227594 0.00664916989,2.20697286 0.00284964424,2.23356954 C-0.000949881413,2.26016622 -0.000949881413,2.2867629 0.00284964424,2.31335958 C0.00664916989,2.33995626 0.0123484584,2.36655294 0.0199475097,2.39314962 C0.027546561,2.4197463 0.038945138,2.44444321 0.0541432406,2.46724037 L0.0997375484,2.53563183 L1.91211129,4.33660699 C1.98050275,4.4125975 2.06599207,4.45059276 2.16857927,4.45059276 C2.27116646,4.45059276 2.35665579,4.4125975 2.42504725,4.33660699 L2.47064156,4.29101268 L6.10678761,0.632069477 C6.17517907,0.563678016 6.2093748,0.478188688 6.2093748,0.375601496 C6.2093748,0.273014303 6.17517907,0.187524976 6.10678761,0.119133514 C5.97000468,-0.0176494095 5.82182318,-0.0366470378 5.66224311,0.0621406292 C5.6318469,0.0773387319 5.60525022,0.0963363601 5.58245307,0.119133514 Z" id="Icon-Shape"></path>
                        </g>
                    </g>
                </g>
            </g>
        </g>
    </g>
</svg>