<?xml version="1.0" encoding="UTF-8"?>
<svg width="19px" height="23px" viewBox="0 0 19 23" version="1.1" xmlns="http://www.w3.org/2000/svg" xmlns:xlink="http://www.w3.org/1999/xlink">
    <!-- Generator: sketchtool 52.1 (67048) - http://www.bohemiancoding.com/sketch -->
    <title>D02162D0-8F07-40CC-888D-368095E17A5A</title>
    <desc>Created with sketchtool.</desc>
    <g id="Pagos-1" stroke="none" stroke-width="1" fill="none" fill-rule="evenodd">
        <g id="Pago-005" transform="translate(-1500.000000, -494.000000)" fill="#3962E6" stroke="#3962E6" stroke-width="0.4">
            <g id="dx" transform="translate(1501.000000, 495.000000)">
                <path d="M15.7397084,1.02757585 L14.1738306,1.02757585 C14.0003012,1.02757585 13.8595133,1.16836381 13.8595133,1.34189317 C13.8595133,1.51550648 14.0003012,1.65621049 14.1738306,1.65621049 L14.3680961,1.65621049 L14.3680961,19.0128398 L2.63358287,19.0128398 L2.63358287,1.65621049 L3.94181119,1.65621049 L3.94181119,2.37022459 C3.94181119,2.91759343 4.38701011,3.36279235 4.93437895,3.36279235 L6.42041818,3.36279235 C6.56901371,4.18300607 7.28848471,4.80685544 8.15059064,4.80685544 L8.85092051,4.80685544 C9.71294248,4.80685544 10.4324135,4.18300607 10.581009,3.36279235 L12.0670482,3.36279235 C12.614501,3.36279235 13.0598679,2.91750948 13.0598679,2.37022459 L13.0598679,1.01372373 C13.0598679,0.466354896 12.614501,0.0210720265 12.0671322,0.0210720265 L4.93437895,0.0210720265 C4.38701011,0.0210720265 3.94181119,0.466354896 3.94181119,1.01372373 L3.94181119,1.02757585 L1.26180271,1.02757585 C0.570539665,1.02757585 0.00822731226,1.5900561 0.00822731226,2.28106729 L0.00822731226,14.8992622 C0.00822731226,15.0729595 0.148931348,15.2135795 0.322544632,15.2135795 C0.495990044,15.2135795 0.636861952,15.0729595 0.636861952,14.8992622 L0.636861952,2.28106729 C0.636861952,1.93661109 0.917430468,1.65621049 1.26180271,1.65621049 L2.00478034,1.65621049 L2.00478034,19.3269052 C2.00478034,19.5006025 2.14565227,19.6412225 2.31909766,19.6412225 L14.6824135,19.6412225 C14.8561107,19.6412225 14.9967308,19.5006025 14.9967308,19.3269052 L14.9967308,1.65621049 L15.7397084,1.65621049 C16.0843325,1.65621049 16.3645652,1.93661109 16.3645652,2.28106729 L16.3645652,20.2256143 C16.3645652,20.5703224 16.0843325,20.850723 15.7397084,20.850723 L1.26180271,20.850723 C0.917430468,20.850723 0.636861952,20.5703224 0.636861952,20.2256143 L0.636861952,16.380852 C0.636861952,16.2074066 0.495990044,16.0665346 0.322544632,16.0665346 C0.148931348,16.0665346 0.00822731226,16.2074066 0.00822731226,16.380852 L0.00822731226,20.2256143 C0.00822731226,20.9169613 0.570539665,21.4793576 1.26180271,21.4793576 L15.7397084,21.4793576 C16.4309715,21.4793576 16.9931999,20.9169613 16.9931999,20.2256143 L16.9931999,2.28106729 C16.9931999,1.5900561 16.4309715,1.02757585 15.7397084,1.02757585 Z M4.57044583,1.01372373 C4.57044583,0.812993837 4.73364905,0.649790613 4.93437895,0.649790613 L12.0671322,0.649790613 C12.2678621,0.649790613 12.4310653,0.812993837 12.4310653,1.01372373 L12.4310653,2.37022459 C12.4310653,2.57095449 12.2678621,2.73415771 12.0671322,2.73415771 L10.2950676,2.73415771 C10.1213703,2.73415771 9.98075025,2.87494567 9.98075025,3.04847503 C9.98075025,3.67148486 9.4738464,4.1782208 8.85092051,4.1782208 L8.15059064,4.1782208 C7.52766473,4.1782208 7.02084485,3.67148486 7.02084485,3.04847503 C7.02084485,2.87494567 6.88014084,2.73415771 6.70652753,2.73415771 L4.93437895,2.73415771 C4.73364905,2.73415771 4.57044583,2.57095449 4.57044583,2.37022459 L4.57044583,1.01372373 Z" id="Shape" fill-rule="nonzero"></path>
                <path d="M12.5046915,8.62181476 L10.8426882,8.62181476 L9.78035616,5.72109573 C9.6749121,5.43271966 9.25666185,5.45228053 9.18068505,5.75182225 L8.03968967,10.2443604 L6.93815186,7.03981808 C6.85008593,6.78367968 6.49950123,6.75186176 6.36677269,6.98827137 L5.45034963,8.62198265 L4.49681969,8.62198265 C4.32303849,8.62198265 4.18250237,8.76260272 4.18250237,8.93629997 C4.18250237,9.10982933 4.32303849,9.25061729 4.49681969,9.25061729 L5.63445698,9.25061729 C5.74821232,9.25061729 5.85298476,9.18916423 5.90872907,9.09001659 L6.57170019,7.90771669 L7.78766495,11.4449619 C7.88891138,11.7395504 8.31303828,11.7221723 8.38960275,11.420196 L9.53983287,6.89197812 L10.3278929,9.04426261 C10.3731432,9.16809222 10.4910122,9.2504494 10.6230691,9.2504494 L12.5046075,9.2504494 C12.6783047,9.2504494 12.8189248,9.10982933 12.8189248,8.93613208 C12.8189248,8.76260272 12.6783047,8.62181476 12.5046915,8.62181476 Z" id="Path"></path>
                <path d="M12.5046915,13.8053641 L4.49681969,13.8053641 C4.32320638,13.8053641 4.18250237,13.9459841 4.18250237,14.1196814 C4.18250237,14.2932947 4.32320638,14.4339987 4.49681969,14.4339987 L12.5046915,14.4339987 C12.6783047,14.4339987 12.8190088,14.2932947 12.8190088,14.1196814 C12.8190088,13.9459841 12.6783047,13.8053641 12.5046915,13.8053641 Z" id="Path"></path>
                <path d="M12.5046915,16.5746138 L4.49681969,16.5746138 C4.32320638,16.5746138 4.18250237,16.7154018 4.18250237,16.8889311 C4.18250237,17.0625444 4.32320638,17.2032485 4.49681969,17.2032485 L12.5046915,17.2032485 C12.6783047,17.2032485 12.8190088,17.0625444 12.8190088,16.8889311 C12.8190088,16.7154018 12.6783047,16.5746138 12.5046915,16.5746138 Z" id="Path"></path>
            </g>
        </g>
    </g>
</svg>