<?xml version="1.0" encoding="UTF-8"?>
<svg width="19px" height="21px" viewBox="0 0 19 21" version="1.1" xmlns="http://www.w3.org/2000/svg" xmlns:xlink="http://www.w3.org/1999/xlink">
    <!-- Generator: Sketch 52.1 (67048) - http://www.bohemiancoding.com/sketch -->
    <title>Eliminar-icono</title>
    <desc>Created with Sketch.</desc>
    <g id="Symbols" stroke="none" stroke-width="1" fill="none" fill-rule="evenodd">
        <g id="Eliminar-servicio" fill="#FF5964" fill-rule="nonzero">
            <g id="Eliminar-icono">
                <g id="Icon">
                    <path d="M7.46428571,16.3619048 C7.94358998,16.3619048 8.33214286,15.9733519 8.33214286,15.4940476 L8.33214286,9.38690476 C8.33214286,8.9076005 7.94358998,8.51904762 7.46428571,8.51904762 C6.98498145,8.51904762 6.59642857,8.9076005 6.59642857,9.38690476 L6.59642857,15.4940476 C6.59642857,15.9733519 6.98498145,16.3619048 7.46428571,16.3619048 Z M17.6428571,4.44761905 L13.5714286,4.44761905 L13.4214286,4.29761905 L13.4214286,3.2797619 C13.4214286,1.67616368 12.1214554,0.376190476 10.5178571,0.376190476 L8.48214286,0.376190476 C6.87854464,0.376190476 5.57857143,1.67616368 5.57857143,3.2797619 L5.57857143,4.29761905 L5.42857143,4.44761905 L1.35714286,4.44761905 C0.877838592,4.44761905 0.489285714,4.83617193 0.489285714,5.31547619 C0.489285714,5.79478046 0.877838592,6.18333333 1.35714286,6.18333333 L2.375,6.18333333 L2.525,6.33333333 L2.525,17.5297619 C2.525,19.1333601 3.82497321,20.4333333 5.42857143,20.4333333 L13.5714286,20.4333333 C15.1750268,20.4333333 16.475,19.1333601 16.475,17.5297619 L16.475,6.33333333 L16.625,6.18333333 L17.6428571,6.18333333 C18.1221614,6.18333333 18.5107143,5.79478046 18.5107143,5.31547619 C18.5107143,4.83617193 18.1221614,4.44761905 17.6428571,4.44761905 Z M7.31428571,3.2797619 C7.31428571,2.63477221 7.83715317,2.11190476 8.48214286,2.11190476 L10.5178571,2.11190476 C11.1628468,2.11190476 11.6857143,2.63477221 11.6857143,3.2797619 L11.6857143,4.29761905 L11.5357143,4.44761905 L7.46428571,4.44761905 L7.31428571,4.29761905 L7.31428571,3.2797619 Z M14.7392857,17.5297619 C14.7392857,18.1747516 14.2164183,18.697619 13.5714286,18.697619 L5.42857143,18.697619 C4.78358174,18.697619 4.26071429,18.1747516 4.26071429,17.5297619 L4.26071429,6.33333333 L4.41071429,6.18333333 L14.5892857,6.18333333 L14.7392857,6.33333333 L14.7392857,17.5297619 Z M11.5357143,16.3619048 C12.0150186,16.3619048 12.4035714,15.9733519 12.4035714,15.4940476 L12.4035714,9.38690476 C12.4035714,8.9076005 12.0150186,8.51904762 11.5357143,8.51904762 C11.05641,8.51904762 10.6678571,8.9076005 10.6678571,9.38690476 L10.6678571,15.4940476 C10.6678571,15.9733519 11.05641,16.3619048 11.5357143,16.3619048 Z" id="Icon-Shape"></path>
                </g>
            </g>
        </g>
    </g>
</svg>