<?xml version="1.0" encoding="UTF-8"?>
<svg width="20px" height="19px" viewBox="0 0 20 19" version="1.1" xmlns="http://www.w3.org/2000/svg" xmlns:xlink="http://www.w3.org/1999/xlink">
    <!-- Generator: sketchtool 52.1 (67048) - http://www.bohemiancoding.com/sketch -->
    <title>A4AD48EC-A4BF-4F08-B81B-B37A0E8BB8AB</title>
    <desc>Created with sketchtool.</desc>
    <g id="Facturación-2.0-Web*" stroke="none" stroke-width="1" fill="none" fill-rule="evenodd">
        <g id="Desktop-13" transform="translate(-632.000000, -534.000000)" fill="#FF5964" fill-rule="nonzero">
            <g id="Identificador-consulta" transform="translate(632.000000, 534.000000)">
                <path d="M17.0215234,3.53273438 L14.1259766,3.53273438 L14.1259766,2.00441406 C14.1259766,0.900507813 13.2278906,0.002421875 12.1239844,0.002421875 L7.87601562,0.002421875 C6.77210938,0.002421875 5.87402344,0.900507813 5.87402344,2.00441406 L5.87402344,3.53269531 L2.97847656,3.53269531 C1.33613281,3.53273438 0,4.86886719 0,6.51121094 L0,15.8472266 C0,17.4895703 1.33613281,18.8257031 2.97847656,18.8257031 L17.0215234,18.8257031 C18.6638672,18.8257031 20,17.4895703 20,15.8472266 L20,6.51121094 C20,4.86886719 18.6638672,3.53273437 17.0215234,3.53273438 Z M7.04589844,2.00441406 C7.04589844,1.54667969 7.41828125,1.17429688 7.87601562,1.17429688 L12.1239844,1.17429688 C12.5817187,1.17429688 12.9541016,1.54667969 12.9541016,2.00441406 L12.9541016,3.53269531 L7.04589844,3.53269531 L7.04589844,2.00441406 Z M1.171875,15.8471875 L1.171875,6.51121094 C1.171875,5.72011719 1.68320312,5.04664062 2.39253906,4.80269531 L2.39253906,17.5557812 C1.68320312,17.3117578 1.171875,16.6382812 1.171875,15.8471875 Z M3.56441406,17.6538281 L3.56441406,4.70460937 L16.4355859,4.70460937 L16.4355859,17.6538281 L3.56441406,17.6538281 Z M18.828125,15.8471875 C18.828125,16.6382812 18.3167969,17.3117578 17.6074609,17.5557031 L17.6074609,4.80265625 C18.3167969,5.04664063 18.828125,5.72011719 18.828125,6.51121094 L18.828125,15.8471875 Z" id="XMLID_1387_"></path>
                <path d="M13.5302734,9.41648437 L11.7626953,9.41648437 L11.7626953,7.64890625 C11.7626953,7.3253125 11.5003516,7.06296875 11.1767578,7.06296875 L8.82324219,7.06296875 C8.49964844,7.06296875 8.23730469,7.3253125 8.23730469,7.64890625 L8.23730469,9.41648437 L6.46972656,9.41648437 C6.14613281,9.41648437 5.88378906,9.67882812 5.88378906,10.0024219 L5.88378906,12.3559375 C5.88378906,12.6795313 6.14613281,12.941875 6.46972656,12.941875 L8.23730469,12.941875 L8.23730469,14.7094531 C8.23730469,15.0330469 8.49964844,15.2953906 8.82324219,15.2953906 L11.1767578,15.2953906 C11.5003516,15.2953906 11.7626953,15.0330469 11.7626953,14.7094531 L11.7626953,12.941875 L13.5302734,12.941875 C13.8538672,12.941875 14.1162109,12.6795313 14.1162109,12.3559375 L14.1162109,10.0024219 C14.1162109,9.67882812 13.8538672,9.41648437 13.5302734,9.41648437 Z M12.9443359,11.77 L11.1767578,11.77 C10.8531641,11.77 10.5908203,12.0323437 10.5908203,12.3559375 L10.5908203,14.1235156 L9.40917969,14.1235156 L9.40917969,12.3559375 C9.40917969,12.0323437 9.14683594,11.77 8.82324219,11.77 L7.05566406,11.77 L7.05566406,10.5883594 L8.82324219,10.5883594 C9.14683594,10.5883594 9.40917969,10.3260156 9.40917969,10.0024219 L9.40917969,8.23484375 L10.5908203,8.23484375 L10.5908203,10.0024219 C10.5908203,10.3260156 10.8531641,10.5883594 11.1767578,10.5883594 L12.9443359,10.5883594 L12.9443359,11.77 Z" id="XMLID_1393_"></path>
            </g>
        </g>
    </g>
</svg>