<?xml version="1.0" encoding="UTF-8"?>
<svg width="30px" height="30px" viewBox="0 0 30 30" version="1.1" xmlns="http://www.w3.org/2000/svg" xmlns:xlink="http://www.w3.org/1999/xlink">
    <!-- Generator: sketchtool 52.1 (67048) - http://www.bohemiancoding.com/sketch -->
    <title>84D22D89-3307-4FD8-8416-AC19FFF2EB57</title>
    <desc>Created with sketchtool.</desc>
    <g id="Pagos-1" stroke="none" stroke-width="1" fill="none" fill-rule="evenodd">
        <g id="Pago-001" transform="translate(-305.000000, -612.000000)" fill="#C3C8CC">
            <g id="Ordenes-manuales-Copy" transform="translate(305.000000, 612.000000)">
                <path d="M28.5440943,9.22074434 C27.5400543,8.21664707 25.9062932,8.2167043 24.9019098,9.22097324 C24.5930008,9.53016836 22.6206873,11.5040842 22.3193895,11.8056682 L22.3193895,5.00308945 C22.3193895,4.31522617 22.0515119,3.66856602 21.5650861,3.18219746 L19.1372492,0.754246094 C18.6508807,0.267820312 18.0041633,0 17.3163,0 L2.57622539,0 C1.1562627,0 0.00103007813,1.15523262 0.00103007813,2.57519531 L0.00103007813,26.7248047 C0.00103007813,28.1447674 1.1562627,29.3 2.57622539,29.3 L19.7441941,29.3 C21.1641568,29.3 22.3193895,28.1447674 22.3193895,26.7248047 L22.3193895,19.0925553 L28.5440371,12.8626428 C29.5504807,11.8562564 29.5507096,10.2272451 28.5440943,9.22074434 Z M17.1690561,1.71679688 C17.3312361,1.71679688 17.6437504,1.68869863 17.9233021,1.96819316 L20.3511963,4.39614453 C20.6235947,4.6686002 20.6026498,4.96715117 20.6026498,5.15039062 L17.1690561,5.15039062 L17.1690561,1.71679688 Z M20.6025926,26.7248047 C20.6025926,27.1981256 20.2175723,27.5832031 19.7441941,27.5832031 L2.57622539,27.5832031 C2.10290449,27.5832031 1.71782695,27.1981256 1.71782695,26.7248047 L1.71782695,2.57519531 C1.71782695,2.10187441 2.10290449,1.71679688 2.57622539,1.71679688 L15.452202,1.71679688 L15.452202,6.00878906 C15.452202,6.48285391 15.8365355,6.8671875 16.3106004,6.8671875 L20.6025926,6.8671875 L20.6025926,13.5239529 C20.6025926,13.5239529 18.0700883,16.0586318 18.0699738,16.0586891 L16.856599,17.2721211 C16.7624041,17.366316 16.6913287,17.481227 16.64921,17.6076404 L15.4352057,21.2495389 C15.3323695,21.55799 15.4126584,21.8980875 15.6425947,22.1279666 C15.8728172,22.3581891 16.2130291,22.4380773 16.5210225,22.3353557 L20.1629209,21.1214086 C20.2893344,21.0792898 20.4042453,21.0082717 20.4984402,20.9140195 L20.6025926,20.8098672 L20.6025926,26.7248047 Z M18.677491,17.8791232 L19.8914381,19.0930703 L19.4277313,19.5567771 L17.6068393,20.1637221 L18.2137842,18.3427729 L18.677491,17.8791232 Z M21.1051563,17.8788371 L19.8912092,16.66489 C20.5376404,16.0179437 23.4086398,13.1444836 24.0175305,12.5350779 L25.2314775,13.749025 L21.1051563,17.8788371 Z M27.3298611,11.6489246 L26.4449668,12.5345629 L25.2310197,11.3206158 L26.1162002,10.4346914 C26.45109,10.0999732 26.9955436,10.1000305 27.3302045,10.4346914 C27.6648082,10.7694668 27.6665822,11.3121463 27.3298611,11.6489246 Z" id="Shape" fill-rule="nonzero"></path>
                <path d="M16.3106004,8.58398438 L4.29302227,8.58398438 C3.81895742,8.58398438 3.43462383,8.96831797 3.43462383,9.44238281 C3.43462383,9.91644766 3.81895742,10.3007812 4.29302227,10.3007812 L16.3106004,10.3007812 C16.7846652,10.3007812 17.1689988,9.91644766 17.1689988,9.44238281 C17.1689988,8.96831797 16.7846652,8.58398438 16.3106004,8.58398438 Z" id="Path"></path>
                <path d="M12.8770066,12.0175781 L4.29302227,12.0175781 C3.81895742,12.0175781 3.43462383,12.4019117 3.43462383,12.8759766 C3.43462383,13.3500414 3.81895742,13.734375 4.29302227,13.734375 L12.8770066,13.734375 C13.3510715,13.734375 13.7354051,13.3500414 13.7354051,12.8759766 C13.7354051,12.4019117 13.3510715,12.0175781 12.8770066,12.0175781 Z" id="Path"></path>
                <path d="M12.8770066,15.4511719 L4.29302227,15.4511719 C3.81895742,15.4511719 3.43462383,15.8355055 3.43462383,16.3095703 C3.43462383,16.7836352 3.81895742,17.1679688 4.29302227,17.1679688 L12.8770066,17.1679688 C13.3510715,17.1679688 13.7354051,16.7836352 13.7354051,16.3095703 C13.7354051,15.8355055 13.3510715,15.4511719 12.8770066,15.4511719 Z" id="Path"></path>
                <path d="M12.8770066,18.8847656 L4.29302227,18.8847656 C3.81895742,18.8847656 3.43462383,19.2690992 3.43462383,19.7431641 C3.43462383,20.2172289 3.81895742,20.6015625 4.29302227,20.6015625 L12.8770066,20.6015625 C13.3510715,20.6015625 13.7354051,20.2172289 13.7354051,19.7431641 C13.7354051,19.2690992 13.3510715,18.8847656 12.8770066,18.8847656 Z" id="Path"></path>
                <path d="M16.3106004,24.1496094 L11.1602098,24.1496094 C10.6861449,24.1496094 10.3018113,24.533943 10.3018113,25.0080078 C10.3018113,25.4820727 10.6861449,25.8664063 11.1602098,25.8664063 L16.3106004,25.8664063 C16.7846652,25.8664063 17.1689988,25.4820727 17.1689988,25.0080078 C17.1689988,24.533943 16.7846652,24.1496094 16.3106004,24.1496094 Z" id="Path"></path>
            </g>
        </g>
    </g>
</svg>