<?xml version="1.0" encoding="UTF-8"?>
<svg width="23px" height="29px" viewBox="0 0 23 29" version="1.1" xmlns="http://www.w3.org/2000/svg" xmlns:xlink="http://www.w3.org/1999/xlink">
    <!-- Generator: sketchtool 52.1 (67048) - http://www.bohemiancoding.com/sketch -->
    <title>B9ED27DB-49C3-4799-9D7B-4DA84DDD5E07</title>
    <desc>Created with sketchtool.</desc>
    <g id="Pagos-1" stroke="none" stroke-width="1" fill="none" fill-rule="evenodd">
        <g id="Pago-001" transform="translate(-196.000000, -612.000000)" fill="#C3C8CC">
            <g id="Ordenes-medicas" transform="translate(196.000000, 612.000000)">
                <path d="M20.9126348,1.86876695 L18.9141867,1.86876695 L18.9141867,1.46052632 C18.9141867,0.655201018 18.2590423,0 17.4536604,0 L5.08480161,0 C4.27941969,0 3.6242753,0.655201018 3.6242753,1.46052632 L3.6242753,1.86876695 L1.62582725,1.86876695 C0.729328774,1.86876695 0,2.59837887 0,3.49516049 L0,27.3683751 C0,28.2648736 0.729328774,28.9942024 1.62582725,28.9942024 L20.9126348,28.9942024 C21.8091332,28.9942024 22.538462,28.2648736 22.538462,27.3683751 L22.538462,3.49516049 C22.538462,2.59837887 21.8091332,1.86876695 20.9126348,1.86876695 Z M5.32315434,1.69887905 L17.2153077,1.69887905 L17.2153077,3.6809046 L5.32315434,3.6809046 L5.32315434,1.69887905 Z M20.839583,27.2953233 L1.69887905,27.2953233 L1.69887905,3.56764599 L3.6242753,3.56764599 L3.6242753,3.91925733 C3.6242753,4.72458262 4.27941969,5.37978364 5.08480161,5.37978364 L17.4536604,5.37978364 C18.2590423,5.37978364 18.9141867,4.72458262 18.9141867,3.91925733 L18.9141867,3.56764599 L20.839583,3.56764599 L20.839583,27.2953233 Z" id="Shape" fill-rule="nonzero"></path>
                <path d="M10.4197915,14.9501356 C10.4197915,15.4192527 10.8001139,15.7995751 11.269231,15.7995751 C11.7383481,15.7995751 12.1186705,15.4192527 12.1186705,14.9501356 L12.1186705,12.6283342 L14.4404719,12.6283342 C14.909589,12.6283342 15.2899114,12.2480118 15.2899114,11.7788947 C15.2899114,11.3097776 14.909589,10.9294552 14.4404719,10.9294552 L12.1186705,10.9294552 L12.1186705,8.60765383 C12.1186705,8.1385367 11.7383481,7.75821431 11.269231,7.75821431 C10.8001139,7.75821431 10.4197915,8.1385367 10.4197915,8.60765383 L10.4197915,10.9294552 L8.09799012,10.9294552 C7.62887298,10.9294552 7.24855059,11.3097776 7.24855059,11.7788947 C7.24855059,12.2480118 7.62887298,12.6283342 8.09799012,12.6283342 L10.4197915,12.6283342 L10.4197915,14.9501356 Z" id="Path"></path>
                <path d="M6.28585247,17.7249714 L4.47371482,17.7249714 C4.00459769,17.7249714 3.6242753,18.1052938 3.6242753,18.5744109 C3.6242753,19.043528 4.00459769,19.4238504 4.47371482,19.4238504 L6.28585247,19.4238504 C6.7549696,19.4238504 7.13529199,19.043528 7.13529199,18.5744109 C7.13529199,18.1052938 6.7549696,17.7249714 6.28585247,17.7249714 Z" id="Path"></path>
                <path d="M6.28585247,21.3492467 L4.47371482,21.3492467 C4.00459769,21.3492467 3.6242753,21.7295691 3.6242753,22.1986862 C3.6242753,22.6678033 4.00459769,23.0481257 4.47371482,23.0481257 L6.28585247,23.0481257 C6.7549696,23.0481257 7.13529199,22.6678033 7.13529199,22.1986862 C7.13529199,21.7295691 6.7549696,21.3492467 6.28585247,21.3492467 Z" id="Path"></path>
                <path d="M18.0647472,17.7249714 L10.3631622,17.7249714 C9.89404504,17.7249714 9.51372265,18.1052938 9.51372265,18.5744109 C9.51372265,19.043528 9.89404504,19.4238504 10.3631622,19.4238504 L18.0647472,19.4238504 C18.5338643,19.4238504 18.9141867,19.043528 18.9141867,18.5744109 C18.9141867,18.1052938 18.5338643,17.7249714 18.0647472,17.7249714 Z" id="Path"></path>
                <path d="M18.0647472,21.3492467 L10.3631622,21.3492467 C9.89404504,21.3492467 9.51372265,21.7295691 9.51372265,22.1986862 C9.51372265,22.6678033 9.89404504,23.0481257 10.3631622,23.0481257 L18.0647472,23.0481257 C18.5338643,23.0481257 18.9141867,22.6678033 18.9141867,22.1986862 C18.9141867,21.7295691 18.5338643,21.3492467 18.0647472,21.3492467 Z" id="Path"></path>
            </g>
        </g>
    </g>
</svg>