<?xml version="1.0" encoding="UTF-8"?>
<svg width="20px" height="21px" viewBox="0 0 20 21" version="1.1" xmlns="http://www.w3.org/2000/svg" xmlns:xlink="http://www.w3.org/1999/xlink">
    <!-- Generator: sketchtool 52.1 (67048) - http://www.bohemiancoding.com/sketch -->
    <title>CB77D47E-8910-4D3F-80F2-7C04256BF615</title>
    <desc>Created with sketchtool.</desc>
    <g id="Facturación-WEB-PASO-1*" stroke="none" stroke-width="1" fill="none" fill-rule="evenodd">
        <g id="Desktop-15" transform="translate(-934.000000, -126.000000)" fill="#3962E6">
            <g id="Paciente" transform="translate(476.000000, 117.000000)">
                <g id="Paciente-nuevo" transform="translate(447.000000, 0.000000)">
                    <g id="paciente-nuevo" transform="translate(11.000000, 9.500000)">
                        <path d="M14.3705519,10.0355078 C13.985885,9.8528125 13.5933989,9.69542969 13.1940318,9.56359375 C14.4874493,8.59359375 15.3256705,7.04902344 15.3256705,5.3125 C15.3256705,2.38320313 12.9404543,0 10.0085959,0 C7.07673753,0 4.69152134,2.38320313 4.69152134,5.3125 C4.69152134,7.0509375 5.53161912,8.59703125 6.82746057,9.56683594 C5.64018909,9.95738281 4.52614468,10.5650781 3.55108703,11.3664063 C1.76314251,12.8358203 0.520002653,14.8853906 0.0507317252,17.1376172 C-0.0963479408,17.8433203 0.079858347,18.5681641 0.534077262,19.1262109 C0.986067698,19.6815234 1.65629277,20 2.37284676,20 L12.0024989,20 C12.4343548,20 12.7844216,19.6502344 12.7844216,19.21875 C12.7844216,18.7872656 12.4343548,18.4375 12.0024989,18.4375 L2.37284676,18.4375 C2.03904395,18.4375 1.83765975,18.2513281 1.74734767,18.1403906 C1.59139318,17.9487891 1.53102875,17.699375 1.58173644,17.4560547 C2.39317675,13.5617188 5.83113462,10.7169531 9.8013082,10.6210156 C9.8700783,10.6236719 9.93916118,10.625 10.0085959,10.625 C10.0786953,10.625 10.1484819,10.6236328 10.2179166,10.6209375 C11.4345884,10.6494531 12.6047358,10.926875 13.699193,11.4467188 C14.0892552,11.631875 14.5556721,11.4662109 14.741066,11.0764844 C14.9264598,10.6867969 14.760614,10.2207422 14.3705519,10.0355078 Z M10.1993069,9.05769531 C10.1358538,9.0565625 10.0722835,9.05597656 10.0085959,9.05597656 C9.94549475,9.05597656 9.88239359,9.05660156 9.81937062,9.05777344 C7.83739197,8.95898437 6.2553668,7.316875 6.2553668,5.3125 C6.2553668,3.24472656 7.93904192,1.5625 10.0085959,1.5625 C12.0781499,1.5625 13.761825,3.24472656 13.761825,5.3125 C13.761825,7.31636719 12.1805818,8.95816406 10.1993069,9.05769531 Z" id="Shape" fill-rule="nonzero"></path>
                        <path d="M19.2175842,15.5011091 L17.0659407,15.5011091 L17.0659407,13.3494656 C17.0659407,12.9173374 16.7156532,12.5670498 16.2835249,12.5670498 C15.8513967,12.5670498 15.5011091,12.9173374 15.5011091,13.3494656 L15.5011091,15.5011091 L13.3494656,15.5011091 C12.9173374,15.5011091 12.5670498,15.8513967 12.5670498,16.2835249 C12.5670498,16.7156532 12.9173374,17.0659407 13.3494656,17.0659407 L15.5011091,17.0659407 L15.5011091,19.2175842 C15.5011091,19.6497124 15.8513967,20 16.2835249,20 C16.7156532,20 17.0659407,19.6497124 17.0659407,19.2175842 L17.0659407,17.0659407 L19.2175842,17.0659407 C19.6497124,17.0659407 20,16.7156532 20,16.2835249 C20,15.8513967 19.6497124,15.5011091 19.2175842,15.5011091 Z" id="Path"></path>
                    </g>
                </g>
            </g>
        </g>
    </g>
</svg>