<?xml version="1.0" encoding="UTF-8"?>
<svg width="29px" height="27px" viewBox="0 0 29 27" version="1.1" xmlns="http://www.w3.org/2000/svg" xmlns:xlink="http://www.w3.org/1999/xlink">
    <!-- Generator: sketchtool 52.1 (67048) - http://www.bohemiancoding.com/sketch -->
    <title>45C1B9C1-A46B-4A28-B014-C85AE5BCB18F</title>
    <desc>Created with sketchtool.</desc>
    <g id="Pagos-1" stroke="none" stroke-width="1" fill="none" fill-rule="evenodd">
        <g id="Pago-001" transform="translate(-82.000000, -732.000000)" fill="#C3C8CC">
            <g id="Paquetes" transform="translate(82.000000, 732.000000)">
                <path d="M7.56539152,10.1433407 L4.20299529,10.1433407 C3.73876045,10.1433407 3.36239623,10.5197049 3.36239623,10.9839398 C3.36239623,11.4481746 3.73876045,11.8133308 4.20299529,11.8133308 L7.56539152,11.8133308 C8.02962636,11.8133308 8.40599058,11.4481746 8.40599058,10.9839398 C8.40599058,10.5197049 8.02962636,10.1433407 7.56539152,10.1433407 Z" id="Path"></path>
                <path d="M7.56539152,13.5057369 L4.20299529,13.5057369 C3.73876045,13.5057369 3.36239623,13.8821012 3.36239623,14.346336 C3.36239623,14.8105708 3.73876045,15.1757271 4.20299529,15.1757271 L7.56539152,15.1757271 C8.02962636,15.1757271 8.40599058,14.8105708 8.40599058,14.346336 C8.40599058,13.8821012 8.02962636,13.5057369 7.56539152,13.5057369 Z" id="Path"></path>
                <path d="M25.3299956,8.54670686 L25.3299956,2.57772503 C25.3299956,1.18720607 24.1987174,0.0559278573 22.8081984,0.0559278573 C21.5538565,0.0559278573 20.5108972,0.976551945 20.3185121,2.1774878 L16.4754613,4.95292173 C16.4724912,4.95505125 16.4695771,4.9572368 16.4666631,4.95936632 C14.8839271,6.13401944 12.9268444,6.78094448 10.9558638,6.78094448 L4.20299529,6.78094448 C1.88546369,6.78094448 0,8.66640817 0,10.9839398 L0,14.346336 C0,16.6638676 1.88546369,18.5493313 4.20299529,18.5493313 L5.04359435,18.5381233 L5.04359435,24.4335247 C5.04359435,25.8240437 6.17487256,26.9553219 7.56539152,26.9553219 C8.95591048,26.9553219 10.0871887,25.8240437 10.0871887,24.4335247 L10.0871887,21.9117275 L10.9277878,21.9117275 C12.3183067,21.9117275 13.4495849,20.7804493 13.4495849,19.3899303 L13.4495849,18.9033356 C14.5370959,19.2124519 15.5683989,19.7181563 16.4757415,20.3987053 C16.4787116,20.4008908 16.4816257,20.4030764 16.4845958,20.4052619 L20.3288795,23.2105651 C20.5450816,24.3829206 21.5741429,25.2740677 22.8081984,25.2740677 C24.1987174,25.2740677 25.3299956,24.1427895 25.3299956,22.7522705 L25.3299956,16.7835689 C27.2461691,16.3930826 28.6924478,14.6949044 28.6924478,12.6651379 C28.6924478,10.6353714 27.2461691,8.93719314 25.3299956,8.54670686 Z M8.40599058,24.4335247 C8.40599058,24.897031 8.02889784,25.2741238 7.56539152,25.2741238 C7.1018852,25.2741238 6.72479246,24.897031 6.72479246,24.4335247 L6.72479246,18.5381233 L8.40599058,18.5381233 L8.40599058,24.4335247 Z M4.20299529,16.8681332 C2.81247633,16.8681332 1.68119812,15.736855 1.68119812,14.346336 L1.68119812,10.9839398 C1.68119812,9.59342081 2.81247633,8.45093461 4.20299529,8.45093461 L10.0871887,8.45093461 L10.0871887,16.8681332 L4.20299529,16.8681332 Z M11.7683868,19.3899303 C11.7683868,19.8534367 11.3912941,20.2305294 10.9277878,20.2305294 L10.0871887,20.2305294 L10.0871887,18.5381233 C10.9761502,18.5381233 11.2467671,18.5404209 11.7683868,18.5888394 L11.7683868,19.3899303 Z M20.2976092,21.0983078 L17.4798651,19.0502723 C15.8282001,17.8128544 13.8260052,17.062928 11.7683868,16.9014769 L11.7683868,8.43081627 C13.8160861,8.27530544 15.8122847,7.53731551 17.4640619,6.3127308 L20.2976092,4.27444621 L20.2976092,21.0983078 Z M23.6600054,22.7522145 C23.6600054,23.2157208 23.2717047,23.5928136 22.8081984,23.5928136 C22.3446921,23.5928136 21.9675993,23.2157208 21.9675993,22.7522145 L21.9675993,2.57772503 C21.9675993,2.11421871 22.3446921,1.73712597 22.8081984,1.73712597 C23.2717047,1.73712597 23.6600054,2.11421871 23.6600054,2.57772503 L23.6600054,22.7522145 Z M25.3299956,15.042352 L25.3299956,10.2879237 C26.3083968,10.634923 27.0112497,11.5692769 27.0112497,12.6651379 C27.0112497,13.7609989 26.3083968,14.6953527 25.3299956,15.042352 Z" id="Shape" fill-rule="nonzero"></path>
            </g>
        </g>
    </g>
</svg>