<?xml version="1.0" encoding="UTF-8"?>
<svg width="16px" height="16px" viewBox="0 0 16 16" version="1.1" xmlns="http://www.w3.org/2000/svg" xmlns:xlink="http://www.w3.org/1999/xlink">
    <!-- Generator: sketchtool 52.1 (67048) - http://www.bohemiancoding.com/sketch -->
    <title>C7BB951C-EA73-4784-9544-FC20F494EF44</title>
    <desc>Created with sketchtool.</desc>
    <g id="Pagos-1" stroke="none" stroke-width="1" fill="none" fill-rule="evenodd">
        <g id="Pago-050" transform="translate(-993.000000, -316.000000)" fill="#3962E6" fill-rule="nonzero" stroke="#3962E6" stroke-width="0.6">
            <g id="Group-4" transform="translate(657.000000, 302.000000)">
                <g id="Convenio-Manual" transform="translate(322.000000, 0.000000)">
                    <g id="Convenio-manual" transform="translate(22.342865, 21.642019) rotate(-315.000000) translate(-22.342865, -21.642019) translate(16.342865, 16.142019)">
                        <path d="M11.1846879,0.32747893 C11.0154171,0.158208097 10.8038286,0.0735726803 10.5499223,0.0735726803 C10.2960161,0.0735726803 10.0844275,0.158208097 9.91515668,0.32747893 L6.07835113,4.16428449 L2.24154557,0.32747893 C2.07227474,0.158208097 1.8606862,0.0735726803 1.60677995,0.0735726803 C1.3528737,0.0735726803 1.14128516,0.158208097 0.972014323,0.32747893 C0.802743489,0.496749764 0.718108073,0.708338305 0.718108073,0.962244555 C0.718108073,1.21615081 0.802743489,1.42773935 0.972014323,1.59701018 L4.80881988,5.43381574 L0.972014323,9.27062129 C0.8591671,9.38346851 0.779233651,9.51512361 0.732213975,9.66558657 C0.6851943,9.81604953 0.6851943,9.97121446 0.732213975,10.1310814 C0.779233651,10.2909483 0.8591671,10.4273053 0.972014323,10.5401525 C1.14128516,10.7094234 1.3528737,10.7940588 1.60677995,10.7940588 C1.8606862,10.7940588 2.07227474,10.7094234 2.24154557,10.5401525 L6.07835113,6.70334699 L9.91515668,10.5401525 C10.0844275,10.7094234 10.2960161,10.7940588 10.5499223,10.7940588 C10.8038286,10.7940588 11.0154171,10.7094234 11.1846879,10.5401525 C11.2975352,10.4273053 11.3774686,10.2909483 11.4244883,10.1310814 C11.471508,9.97121446 11.471508,9.81604953 11.4244883,9.66558657 C11.3774686,9.51512361 11.2975352,9.38346851 11.1846879,9.27062129 L7.34788238,5.43381574 L11.1846879,1.59701018 C11.3539588,1.42773935 11.4385942,1.21615081 11.4385942,0.962244555 C11.4385942,0.708338305 11.3539588,0.496749764 11.1846879,0.32747893 Z" id="Icon-Shape"></path>
                    </g>
                </g>
            </g>
        </g>
    </g>
</svg>