<?xml version="1.0" encoding="UTF-8"?>
<svg width="30px" height="27px" viewBox="0 0 30 27" version="1.1" xmlns="http://www.w3.org/2000/svg" xmlns:xlink="http://www.w3.org/1999/xlink">
    <!-- Generator: sketchtool 52.1 (67048) - http://www.bohemiancoding.com/sketch -->
    <title>E5491F8E-5CC0-43DA-8C95-B04C18A35EA0</title>
    <desc>Created with sketchtool.</desc>
    <g id="Pagos-1" stroke="none" stroke-width="1" fill="none" fill-rule="evenodd">
        <g id="Pago-001" transform="translate(-82.000000, -614.000000)" fill="#C3C8CC">
            <g id="Reservas" transform="translate(82.000000, 614.000000)">
                <path d="M27.2383118,1.88278195 L24.351654,1.88278195 L24.351654,0.87890625 C24.351654,0.393447891 23.9579773,0 23.4727478,0 C22.9872894,0 22.5938415,0.393447891 22.5938415,0.87890625 L22.5938415,1.88278195 L18.7030792,1.88278195 L18.7030792,0.87890625 C18.7030792,0.393447891 18.3096313,0 17.824173,0 C17.3387146,0 16.9452667,0.393447891 16.9452667,0.87890625 L16.9452667,1.88278195 L13.0547333,1.88278195 L13.0547333,0.87890625 C13.0547333,0.393447891 12.6612854,0 12.175827,0 C11.6903687,0 11.2969208,0.393447891 11.2969208,0.87890625 L11.2969208,1.88278195 L7.40615848,1.88278195 L7.40615848,0.87890625 C7.40615848,0.393447891 7.01271059,0 6.52725223,0 C6.04202273,0 5.64834598,0.393447891 5.64834598,0.87890625 L5.64834598,1.88278195 L2.7616882,1.88278195 C1.24328613,1.88278195 -2.84217094e-14,3.11050418 -2.84217094e-14,4.64447021 L-2.84217094e-14,23.4725189 C-2.84217094e-14,25.0165558 1.25427246,26.2342072 2.7616882,26.2342072 L27.2383118,26.2342072 C28.7567139,26.2342072 30,25.0067139 30,23.4725189 L30,4.64447021 C30,3.12606809 28.7722778,1.88278195 27.2383118,1.88278195 Z M28.2421875,23.4725189 C28.2421875,24.0254974 27.7944946,24.4763947 27.2383118,24.4763947 L2.7616882,24.4763947 C2.20893861,24.4763947 1.7578125,24.0289307 1.7578125,23.4725189 L1.7578125,4.64447021 C1.7578125,4.0914917 2.20550537,3.64059445 2.7616882,3.64059445 L5.64834598,3.64059445 L5.64834598,4.64447021 C5.64834598,5.12992857 6.04202273,5.52337646 6.52725223,5.52337646 C7.01271059,5.52337646 7.40615848,5.12992857 7.40615848,4.64447021 L7.40615848,3.64059445 L11.2969208,3.64059445 L11.2969208,4.64447021 C11.2969208,5.12992857 11.6903687,5.52337646 12.175827,5.52337646 C12.6612854,5.52337646 13.0547333,5.12992857 13.0547333,4.64447021 L13.0547333,3.64059445 L16.9452667,3.64059445 L16.9452667,4.64447021 C16.9452667,5.12992857 17.3387146,5.52337646 17.824173,5.52337646 C18.3096313,5.52337646 18.7030792,5.12992857 18.7030792,4.64447021 L18.7030792,3.64059445 L22.5938415,3.64059445 L22.5938415,4.64447021 C22.5938415,5.12992857 22.9872894,5.52337646 23.4727478,5.52337646 C23.9579773,5.52337646 24.351654,5.12992857 24.351654,4.64447021 L24.351654,3.64059445 L27.2383118,3.64059445 C27.7912903,3.64059445 28.2421875,4.08828738 28.2421875,4.64447021 L28.2421875,23.4725189 Z" id="Shape" fill-rule="nonzero"></path>
                <path d="M7.46887207,19.7694397 L5.58586119,19.7694397 C5.1006317,19.7694397 4.70695494,20.1628876 4.70695494,20.648346 C4.70695494,21.1338043 5.1006317,21.5272522 5.58586119,21.5272522 L7.46887207,21.5272522 C7.95410156,21.5272522 8.34777832,21.1338043 8.34777832,20.648346 C8.34777832,20.1628876 7.95410156,19.7694397 7.46887207,19.7694397 Z" id="Path"></path>
                <path d="M13.117218,19.7694397 L11.234436,19.7694397 C10.7489777,19.7694397 10.3555298,20.1628876 10.3555298,20.648346 C10.3555298,21.1338043 10.7489777,21.5272522 11.234436,21.5272522 L13.117218,21.5272522 C13.6024475,21.5272522 13.9961243,21.1338043 13.9961243,20.648346 C13.9961243,20.1628876 13.6024475,19.7694397 13.117218,19.7694397 Z" id="Path"></path>
                <path d="M7.46887207,14.1210938 L5.58586119,14.1210938 C5.1006317,14.1210938 4.70695494,14.5145416 4.70695494,15 C4.70695494,15.4854584 5.1006317,15.8789062 5.58586119,15.8789062 L7.46887207,15.8789062 C7.95410156,15.8789062 8.34777832,15.4854584 8.34777832,15 C8.34777832,14.5145416 7.95410156,14.1210938 7.46887207,14.1210938 Z" id="Path"></path>
                <path d="M13.117218,14.1210938 L11.234436,14.1210938 C10.7489777,14.1210938 10.3555298,14.5145416 10.3555298,15 C10.3555298,15.4854584 10.7489777,15.8789062 11.234436,15.8789062 L13.117218,15.8789062 C13.6024475,15.8789062 13.9961243,15.4854584 13.9961243,15 C13.9961243,14.5145416 13.6024475,14.1210938 13.117218,14.1210938 Z" id="Path"></path>
                <path d="M16.882782,15.8789062 L18.765564,15.8789062 C19.2510223,15.8789062 19.6444702,15.4854584 19.6444702,15 C19.6444702,14.5145416 19.2510223,14.1210938 18.765564,14.1210938 L16.882782,14.1210938 C16.3975525,14.1210938 16.0038757,14.5145416 16.0038757,15 C16.0038757,15.4854584 16.3975525,15.8789062 16.882782,15.8789062 Z" id="Path"></path>
                <path d="M24.4141388,14.1210938 L22.5311279,14.1210938 C22.0458984,14.1210938 21.6522217,14.5145416 21.6522217,15 C21.6522217,15.4854584 22.0458984,15.8789062 22.5311279,15.8789062 L24.4141388,15.8789062 C24.8993683,15.8789062 25.2930451,15.4854584 25.2930451,15 C25.2930451,14.5145416 24.8993683,14.1210938 24.4141388,14.1210938 Z" id="Path"></path>
                <path d="M7.46887207,8.47251891 L5.58586119,8.47251891 C5.1006317,8.47251891 4.70695494,8.86619566 4.70695494,9.35142516 C4.70695494,9.83688352 5.1006317,10.2303314 5.58586119,10.2303314 L7.46887207,10.2303314 C7.95410156,10.2303314 8.34777832,9.83688352 8.34777832,9.35142516 C8.34777832,8.86619566 7.95410156,8.47251891 7.46887207,8.47251891 Z" id="Path"></path>
                <path d="M13.117218,8.47251891 L11.234436,8.47251891 C10.7489777,8.47251891 10.3555298,8.86619566 10.3555298,9.35142516 C10.3555298,9.83688352 10.7489777,10.2303314 11.234436,10.2303314 L13.117218,10.2303314 C13.6024475,10.2303314 13.9961243,9.83688352 13.9961243,9.35142516 C13.9961243,8.86619566 13.6024475,8.47251891 13.117218,8.47251891 Z" id="Path"></path>
                <path d="M16.882782,10.2303314 L18.765564,10.2303314 C19.2510223,10.2303314 19.6444702,9.83688352 19.6444702,9.35142516 C19.6444702,8.86619566 19.2510223,8.47251891 18.765564,8.47251891 L16.882782,8.47251891 C16.3975525,8.47251891 16.0038757,8.86619566 16.0038757,9.35142516 C16.0038757,9.83688352 16.3975525,10.2303314 16.882782,10.2303314 Z" id="Path"></path>
                <path d="M24.4141388,8.47251891 L22.5311279,8.47251891 C22.0458984,8.47251891 21.6522217,8.86619566 21.6522217,9.35142516 C21.6522217,9.83688352 22.0458984,10.2303314 22.5311279,10.2303314 L24.4141388,10.2303314 C24.8993683,10.2303314 25.2930451,9.83688352 25.2930451,9.35142516 C25.2930451,8.86619566 24.8993683,8.47251891 24.4141388,8.47251891 Z" id="Path"></path>
                <path d="M20.3283691,18.1441498 C19.9852753,17.8010559 19.4288636,17.8010559 19.0855407,18.1441498 L18.2949829,18.9347077 L17.5041962,18.1441498 C17.1611023,17.8010559 16.6046906,17.8010559 16.2613678,18.1441498 C15.9180451,18.4872437 15.9180451,19.0438843 16.2613678,19.3869782 L17.0519256,20.1777649 L16.2613678,20.9683228 C15.9180451,21.3114166 15.9180451,21.8680573 16.2613678,22.2111511 C16.4330292,22.3828125 16.65802,22.4686432 16.882782,22.4686432 C17.1077728,22.4686432 17.3327637,22.3828125 17.5041962,22.2111511 L18.294754,21.4205933 L19.0855407,22.2111511 C19.2569733,22.3828125 19.4819641,22.4686432 19.7069549,22.4686432 C19.9317169,22.4686432 20.1567077,22.3828125 20.3283691,22.2111511 C20.6716919,21.8680573 20.6716919,21.3116455 20.3283691,20.9683228 L19.5378113,20.1777649 L20.3283691,19.3869782 C20.6716919,19.0438843 20.6716919,18.4872437 20.3283691,18.1441498 Z" id="Path"></path>
            </g>
        </g>
    </g>
</svg>