<?xml version="1.0" encoding="UTF-8"?>
<svg xmlns="http://www.w3.org/2000/svg" xmlns:xlink="http://www.w3.org/1999/xlink" width="8pt" height="8pt" viewBox="0 0 8 8" version="1.1">
<g id="surface1">
<path style="fill:none;stroke-width:1;stroke-linecap:butt;stroke-linejoin:miter;stroke:rgb(100%,34.901961%,39.215686%);stroke-opacity:1;stroke-miterlimit:10;" d="M 5.499023 3 C 5.499023 4.379883 4.379883 5.499023 3 5.499023 C 1.620117 5.499023 0.500977 4.379883 0.500977 3 C 0.500977 1.620117 1.620117 0.500977 3 0.500977 C 4.379883 0.500977 5.499023 1.620117 5.499023 3 Z M 5.499023 3 " transform="matrix(1.333333,0,0,1.333333,0,0)"/>
<path style=" stroke:none;fill-rule:nonzero;fill:rgb(100%,34.901961%,39.215686%);fill-opacity:1;" d="M 4.613281 5.667969 C 7.1875 5.667969 7.1875 1.667969 4.613281 1.667969 C 2.039062 1.667969 2.039062 5.667969 4.613281 5.667969 Z M 4.613281 5.667969 "/>
<path style=" stroke:none;fill-rule:nonzero;fill:rgb(100%,34.901961%,39.215686%);fill-opacity:1;" d="M 6.121094 1.972656 C 5.960938 1.839844 5.8125 1.71875 5.640625 1.601562 C 5.464844 1.492188 5.265625 1.441406 5.066406 1.375 C 5.226562 1.441406 5.386719 1.507812 5.546875 1.574219 C 5.28125 1.453125 5.011719 1.320312 4.734375 1.253906 C 4.441406 1.171875 4.148438 1.121094 3.839844 1.09375 C 3.71875 1.078125 3.601562 1.078125 3.480469 1.09375 C 3.253906 1.105469 3.011719 1.132812 2.800781 1.171875 C 2.574219 1.226562 2.359375 1.347656 2.160156 1.441406 C 2.320312 1.375 2.480469 1.308594 2.640625 1.238281 C 2.441406 1.320312 2.265625 1.359375 2.066406 1.464844 C 1.878906 1.574219 1.71875 1.71875 1.574219 1.851562 C 1.707031 1.746094 1.839844 1.640625 1.972656 1.546875 C 1.761719 1.707031 1.546875 1.839844 1.386719 2.039062 C 1.078125 2.386719 0.90625 2.640625 0.761719 3.078125 C 0.613281 3.558594 0.625 4.160156 0.746094 4.640625 C 0.867188 5.121094 1.1875 5.601562 1.558594 5.90625 C 1.960938 6.238281 2.359375 6.519531 2.878906 6.640625 C 2.71875 6.574219 2.558594 6.507812 2.398438 6.441406 C 2.625 6.535156 2.867188 6.640625 3.105469 6.71875 C 2.945312 6.652344 2.785156 6.585938 2.625 6.519531 C 2.839844 6.625 3.066406 6.734375 3.292969 6.8125 C 3.535156 6.894531 3.878906 6.933594 4.078125 6.945312 C 4.601562 6.972656 5.121094 6.828125 5.546875 6.535156 C 5.71875 6.414062 5.894531 6.292969 6.066406 6.1875 C 6.238281 6.09375 6.398438 5.960938 6.546875 5.828125 C 6.707031 5.691406 6.839844 5.519531 6.945312 5.347656 C 7.148438 4.972656 7.238281 4.613281 7.265625 4.171875 C 7.28125 3.894531 7.214844 3.640625 7.09375 3.398438 C 7 3.160156 6.867188 2.945312 6.667969 2.761719 C 6.480469 2.574219 6.265625 2.425781 6.027344 2.347656 C 5.785156 2.226562 5.535156 2.160156 5.253906 2.171875 C 4.734375 2.199219 4.199219 2.375 3.839844 2.761719 C 3.464844 3.160156 3.28125 3.625 3.253906 4.171875 C 3.253906 4.199219 3.253906 4.214844 3.253906 4.238281 C 3.28125 4.066406 3.308594 3.878906 3.320312 3.707031 C 3.320312 3.734375 3.308594 3.746094 3.308594 3.773438 C 3.375 3.613281 3.441406 3.453125 3.507812 3.292969 C 3.492188 3.320312 3.480469 3.332031 3.464844 3.359375 C 3.574219 3.226562 3.679688 3.09375 3.773438 2.960938 C 3.761719 2.972656 3.734375 2.988281 3.71875 3 C 3.851562 2.894531 3.988281 2.785156 4.121094 2.691406 C 3.988281 2.785156 3.851562 2.851562 3.734375 2.945312 C 3.601562 3.039062 3.464844 3.148438 3.332031 3.214844 C 3.492188 3.148438 3.652344 3.078125 3.8125 3.011719 C 3.800781 3.011719 3.785156 3.027344 3.773438 3.027344 C 3.945312 3 4.132812 2.972656 4.308594 2.960938 C 4.238281 2.972656 4.171875 2.960938 4.09375 2.960938 C 4.265625 2.988281 4.453125 3.011719 4.625 3.027344 C 4.507812 3 4.398438 2.972656 4.292969 2.933594 C 4.453125 3 4.613281 3.066406 4.773438 3.132812 C 4.519531 3.027344 4.292969 2.90625 4.039062 2.828125 C 4.199219 2.894531 4.359375 2.960938 4.519531 3.027344 C 4.398438 2.972656 4.292969 2.933594 4.171875 2.878906 C 4.027344 2.828125 3.945312 2.800781 3.828125 2.761719 C 3.988281 2.828125 4.148438 2.894531 4.308594 2.960938 C 4.199219 2.90625 4.09375 2.851562 4.011719 2.785156 C 4.148438 2.894531 4.28125 3 4.414062 3.09375 C 4.332031 3.027344 4.265625 2.960938 4.199219 2.878906 C 4.308594 3.011719 4.414062 3.148438 4.507812 3.28125 C 4.464844 3.253906 4.441406 3.199219 4.414062 3.148438 C 4.480469 3.308594 4.546875 3.464844 4.613281 3.625 C 4.601562 3.585938 4.585938 3.546875 4.585938 3.507812 C 4.613281 3.679688 4.640625 3.867188 4.652344 4.039062 C 4.640625 3.933594 4.640625 3.828125 4.652344 3.71875 C 4.640625 3.90625 4.613281 4.078125 4.585938 4.265625 C 4.601562 4.214844 4.613281 4.160156 4.625 4.121094 C 4.558594 4.265625 4.492188 4.425781 4.425781 4.585938 C 4.441406 4.558594 4.453125 4.535156 4.464844 4.519531 C 4.359375 4.652344 4.253906 4.785156 4.160156 4.921875 C 4.214844 4.851562 4.265625 4.773438 4.332031 4.71875 C 4.199219 4.828125 4.066406 4.933594 3.933594 5.027344 C 4.121094 4.90625 4.28125 4.761719 4.453125 4.625 C 4.320312 4.734375 4.1875 4.839844 4.054688 4.933594 C 4.066406 4.945312 4.066406 4.933594 4.078125 4.933594 C 3.921875 5 3.761719 5.066406 3.601562 5.132812 C 3.800781 5.054688 4.011719 4.972656 4.214844 4.878906 C 4.066406 4.933594 3.90625 5 3.746094 5.066406 C 3.800781 5.039062 3.851562 5.027344 3.90625 5.027344 C 3.734375 5.054688 3.546875 5.078125 3.375 5.105469 C 3.558594 5.078125 3.746094 5.09375 3.933594 5.105469 C 3.761719 5.078125 3.574219 5.066406 3.398438 5.039062 C 3.558594 5.066406 3.734375 5.105469 3.878906 5.171875 C 3.71875 5.105469 3.558594 5.039062 3.398438 4.972656 C 3.625 5.066406 3.851562 5.160156 4.078125 5.253906 C 3.921875 5.1875 3.761719 5.121094 3.601562 5.054688 C 3.625 5.066406 3.640625 5.078125 3.667969 5.09375 C 3.535156 4.988281 3.398438 4.878906 3.265625 4.785156 C 3.265625 4.785156 3.28125 4.800781 3.292969 4.800781 C 3.480469 5 3.691406 5.132812 3.933594 5.214844 C 4.171875 5.332031 4.425781 5.398438 4.707031 5.386719 C 4.988281 5.398438 5.238281 5.332031 5.480469 5.214844 C 5.71875 5.132812 5.933594 5 6.121094 4.800781 C 6.464844 4.414062 6.734375 3.921875 6.707031 3.386719 C 6.679688 2.878906 6.519531 2.320312 6.121094 1.972656 Z M 6.121094 1.972656 "/>
</g>
</svg>
