<?xml version="1.0" encoding="UTF-8"?>
<svg width="20px" height="29px" viewBox="0 0 20 29" version="1.1" xmlns="http://www.w3.org/2000/svg" xmlns:xlink="http://www.w3.org/1999/xlink">
    <!-- Generator: sketchtool 52.1 (67048) - http://www.bohemiancoding.com/sketch -->
    <title>BE51B28A-0EBF-4C88-94DA-37972AE902B1</title>
    <desc>Created with sketchtool.</desc>
    <g id="Pagos-1" stroke="none" stroke-width="1" fill="none" fill-rule="evenodd">
        <g id="Pago-001" transform="translate(-197.000000, -732.000000)" fill="#C3C8CC" fill-rule="nonzero">
            <g id="Servicio" transform="translate(197.000000, 732.000000)">
                <path d="M17.7116367,20.7223691 L15.9242852,19.9159766 C17.8999102,18.201125 19.1512148,15.6726875 19.1512148,12.8574219 L19.1512148,9.34570313 C19.1512148,4.19248242 14.9587324,0 9.80551172,0 C4.65229102,0 0.471136719,4.19248242 0.471136719,9.34570313 L0.471136719,12.8574219 C0.471136719,14.2628457 1.60321289,15.40625 3.00863672,15.40625 L4.43286523,15.40625 C4.7176543,16.0040918 5.11068359,16.5470488 5.56879297,17.0150703 C5.56879297,17.5222305 5.56879297,18.4560645 5.56873633,19.0659141 L1.88590625,20.7223691 C0.545845703,21.1946387 -0.233585937,22.6252109 0.0994609375,24.0087715 L0.938705078,28.3129492 C1.0165293,28.7119824 1.36605859,28.9999434 1.772625,28.9999434 L13.2039492,28.9999434 L16.6023867,28.9999434 L17.824918,28.9999434 C18.2314277,28.9999434 18.5810137,28.7119824 18.6588379,28.3129492 L19.498082,24.0087715 C19.8311289,22.6252109 19.0516973,21.1946387 17.7116367,20.7223691 Z M14.176752,19.1275391 L14.0536152,19.0719746 C14.0535586,18.4621816 14.0535586,17.5238164 14.0535586,17.0150137 C14.511668,16.5469922 14.8934258,16.0040352 15.1781582,15.4061934 L16.6023867,15.4061934 C16.7472168,15.4061934 16.8890449,15.3933926 17.0273613,15.3700566 C16.4927871,16.9023555 15.4836211,18.2136992 14.176752,19.1275391 Z M17.4633809,9.34570312 L17.4633809,12.8574219 C17.4633809,13.3258965 17.070918,13.7070313 16.6024434,13.7070313 L15.752834,13.7070313 C15.752834,13.282623 15.752834,9.79350391 15.752834,9.34570312 L15.752834,8.49609375 L16.6024434,8.49609375 C17.0708613,8.49609375 17.4633809,8.87722852 17.4633809,9.34570312 Z M3.86963086,13.7070313 L3.00869336,13.7070313 C2.54021875,13.7070313 2.15908398,13.3258965 2.15908398,12.8574219 L2.15908398,9.34570313 C2.15908398,8.87722852 2.54021875,8.48476563 3.00869336,8.48476563 L3.86963086,8.48476563 C3.8479375,10.1113145 3.86963086,11.4979902 3.86963086,13.7070313 Z M4.43286523,6.80820313 C2.87700391,6.80820313 2.86074805,6.7862832 2.58366211,6.83301172 C3.62539648,3.84731445 6.4690957,1.69921875 9.80551172,1.69921875 C13.1419277,1.69921875 15.9855703,3.84731445 17.0273613,6.83301172 C16.7501055,6.78622656 16.7329434,6.80820313 15.1781582,6.80820313 C14.2083008,4.77214258 12.1421074,3.3984375 9.80551172,3.3984375 C7.43782031,3.3984375 5.38907227,4.80068945 4.43286523,6.80820313 Z M13.2026465,6.79806445 C12.405543,7.85611133 11.1457422,8.49609375 9.80551172,8.49609375 L5.64293555,8.49609375 C6.03760742,6.5594375 7.75404492,5.09765625 9.80551172,5.09765625 C11.1929238,5.09765625 12.4268965,5.76629883 13.2026465,6.79806445 Z M5.55746484,12.8574219 L5.55746484,10.1953125 L9.80551172,10.1953125 C11.376666,10.1953125 12.8688066,9.56711133 13.9675781,8.49343164 C14.0238789,8.768875 14.0648867,9.05389063 14.0648867,9.34570313 L14.0648867,12.8574219 C14.0648867,15.1997949 12.1478848,17.1054688 9.80551172,17.1054688 C7.46313867,17.1054688 5.55746484,15.1997949 5.55746484,12.8574219 Z M17.8438359,23.6203301 C17.8402676,23.6347168 17.8370391,23.6492168 17.834207,23.6638301 L17.1250098,27.3007813 L16.6023867,27.3007813 L13.2039492,27.3007813 L2.4725332,27.3007813 L1.76333594,23.6637734 C1.76050391,23.6492168 1.75727539,23.6347168 1.75370703,23.6202734 C1.61612695,23.0700098 1.92985938,22.4984492 2.46800195,22.3190684 C2.52889063,22.2987344 2.25712891,22.4190391 6.75626367,20.3891523 C7.06065039,20.2517988 7.25634375,19.9489414 7.25645703,19.6150449 C7.25651367,19.4587168 7.25657031,18.853002 7.25657031,18.2300684 C8.02954492,18.5982324 8.89376758,18.8046875 9.80539844,18.8046875 C10.7170293,18.8046875 11.5926367,18.5982324 12.3655547,18.2300684 C12.3655547,18.8609883 12.3656113,19.4743496 12.365668,19.6211621 C12.3657246,19.7666719 12.391666,19.906291 12.4587852,20.0288613 C11.631832,20.3357969 10.7379297,20.5039063 9.80539844,20.5039063 C9.3361875,20.5039063 8.95578906,20.8843047 8.95578906,21.3535156 C8.95578906,21.8227266 9.3361875,22.203125 9.80539844,22.203125 C11.4342695,22.203125 12.9669082,21.7838711 14.3017012,21.048166 C17.2774297,22.3907188 17.0705781,22.2994707 17.1293711,22.3190684 C17.6676836,22.4984492 17.981416,23.0700098 17.8438359,23.6203301 Z" id="Shape"></path>
            </g>
        </g>
    </g>
</svg>