<?xml version="1.0" encoding="UTF-8"?>
<svg width="25px" height="25px" viewBox="0 0 25 25" version="1.1" xmlns="http://www.w3.org/2000/svg" xmlns:xlink="http://www.w3.org/1999/xlink">
    <!-- Generator: sketchtool 52.1 (67048) - http://www.bohemiancoding.com/sketch -->
    <title>2C2B10E2-9766-4880-BBBB-426D380880C1</title>
    <desc>Created with sketchtool.</desc>
    <g id="Asset-Artboard-Page" stroke="none" stroke-width="1" fill="none" fill-rule="evenodd">
        <g id="Success-icon" fill="#2FCC71" stroke="#2FCC71" stroke-width="0.8">
            <g id="success-2-2" transform="translate(0.500000, 0.500000)">
                <g id="success-2">
                    <path d="M12,0 C5.37258562,0 0,5.37258562 0,12 C0,18.6274144 5.37258562,24 12,24 C18.6274144,24 24,18.6274144 24,12 C23.9929687,5.37554879 18.6245014,0.00708148309 12,0 Z M12,22.2857286 C6.31934475,22.2857286 1.71427136,17.6806552 1.71427136,12 C1.71427136,6.31934475 6.31934475,1.71427136 12,1.71427136 C17.6806552,1.71427136 22.2857286,6.31934475 22.2857286,12 C22.2796014,17.6781441 17.6781441,22.2796014 12,22.2857286 Z" id="Shape" fill-rule="nonzero"></path>
                    <path d="M17.7710186,7.22079825 C17.4803643,6.92640058 17.0195977,6.92640058 16.7289874,7.22079825 L9.75921729,14.5300452 L7.28944693,11.9399633 C7.00169304,11.6274999 6.52686397,11.6188818 6.22895871,11.9206533 C5.93100951,12.2224247 5.92279174,12.7203844 6.21054562,13.0328017 C6.21656613,13.039346 6.22271848,13.045798 6.22895871,13.0521118 L9.22897318,16.1982679 C9.52182472,16.5053393 9.99660985,16.5053393 10.2894614,16.1982679 L17.7894756,8.33290064 C18.0772295,8.02048333 18.0689678,7.52256968 17.7710186,7.22079825 Z" id="Path"></path>
                </g>
            </g>
        </g>
    </g>
</svg>