<?xml version="1.0" encoding="UTF-8"?>
<svg width="20px" height="20px" viewBox="0 0 20 20" version="1.1" xmlns="http://www.w3.org/2000/svg" xmlns:xlink="http://www.w3.org/1999/xlink">
    <!-- Generator: sketchtool 52.1 (67048) - http://www.bohemiancoding.com/sketch -->
    <title>3351F697-5F84-4039-ADC9-33AEEC45A57A</title>
    <desc>Created with sketchtool.</desc>
    <g id="Pagos-1" stroke="none" stroke-width="1" fill="none" fill-rule="evenodd">
        <g id="Pago-004" transform="translate(-326.000000, -401.000000)" fill="#CFD6DC" fill-rule="nonzero">
            <g id="paciente-001-copy" transform="translate(54.000000, 373.000000)">
                <g id="uil-edit-alt" transform="translate(272.000000, 28.000000)">
                    <g id="Icon">
                        <path d="M3.61111111,15.4761905 L7.48095238,15.4761905 C7.72355034,15.4775931 7.95672488,15.3823528 8.12896825,15.2115079 L14.4448413,8.88650794 L17.0369048,6.34920635 C17.2096901,6.17783207 17.3068794,5.94455013 17.3068794,5.70119048 C17.3068794,5.45783082 17.2096901,5.22454888 17.0369048,5.0531746 L13.1670635,1.13769841 C12.9956892,0.964913057 12.7624073,0.867723752 12.5190476,0.867723752 C12.275688,0.867723752 12.042406,0.964913057 11.8710317,1.13769841 L9.29722222,3.72063492 L2.96309524,10.0456349 C2.7922504,10.2178783 2.6970101,10.4510528 2.6984127,10.6936508 L2.6984127,14.5634921 C2.6984127,15.0675615 3.1070417,15.4761905 3.61111111,15.4761905 Z M12.5190476,3.07261905 L15.1019841,5.65555556 L13.8059524,6.9515873 L11.2230159,4.36865079 L12.5190476,3.07261905 Z M4.52380952,11.0678571 L9.93611111,5.65555556 L12.5190476,8.23849206 L7.10674603,13.6507937 L4.52380952,13.6507937 L4.52380952,11.0678571 Z M18.2142857,17.3015873 L1.78571429,17.3015873 C1.28164487,17.3015873 0.873015873,17.7102163 0.873015873,18.2142857 C0.873015873,18.7183551 1.28164487,19.1269841 1.78571429,19.1269841 L18.2142857,19.1269841 C18.7183551,19.1269841 19.1269841,18.7183551 19.1269841,18.2142857 C19.1269841,17.7102163 18.7183551,17.3015873 18.2142857,17.3015873 Z" id="Icon-Shape"></path>
                    </g>
                </g>
            </g>
        </g>
    </g>
</svg>