<?xml version="1.0" encoding="UTF-8"?>
<svg width="25px" height="21px" viewBox="0 0 25 21" version="1.1" xmlns="http://www.w3.org/2000/svg" xmlns:xlink="http://www.w3.org/1999/xlink">
    <!-- Generator: sketchtool 52.1 (67048) - http://www.bohemiancoding.com/sketch -->
    <title>B73E33C4-275E-4CB7-985F-E95BF777C08C</title>
    <desc>Created with sketchtool.</desc>
    <g id="Pagos-1" stroke="none" stroke-width="1" fill="none" fill-rule="evenodd">
        <g id="Pago-052" transform="translate(-1266.000000, -458.000000)" fill="#3962E6">
            <g id="upload-2" transform="translate(1267.000000, 459.000000)">
                <path d="M21.2455042,7.68114764 C21.3171506,7.29950986 21.353431,6.91213389 21.3539121,6.52389719 C21.3495335,2.918159 18.4047155,-0.00133891213 14.7764414,0.00296473401 C12.0144205,0.00626419605 9.5494749,1.72604901 8.60811088,4.30656306 C6.92261506,3.63978482 5.0123159,4.45709504 4.34132218,6.13212194 C4.28324477,6.27710699 4.23570502,6.42601315 4.19908787,6.57774059 C1.50779916,6.97774059 -0.347598326,9.47017334 0.0549016736,12.144746 C0.415876569,14.5434549 2.48943724,16.3180873 4.92993933,16.3170831 L8.1159205,16.3170831 C8.5694728,16.3170831 8.93713598,15.9517035 8.93713598,15.5009683 C8.93713598,15.0502331 8.5694728,14.6848536 8.1159205,14.6848536 L4.92993933,14.6848536 C3.11577824,14.6848536 1.64512552,13.2233353 1.64512552,11.4204423 C1.64512552,9.61754931 3.11577824,8.15603108 4.92993933,8.15603108 C5.38349163,8.15603108 5.75115481,7.79065152 5.75115481,7.33991632 C5.75264644,6.43849372 6.48917573,5.70893007 7.39623222,5.71041243 C7.82519665,5.71112971 8.23688703,5.87858936 8.54320084,6.17697549 C8.8662113,6.4933413 9.38616527,6.48956366 9.70450837,6.16855947 C9.82403138,6.04800956 9.9028954,5.89355649 9.93017782,5.72647938 C10.3759351,3.06142259 12.911228,1.26010759 15.5929414,1.70309623 C18.2746548,2.14608488 20.087228,4.6656306 19.6414707,7.33068739 C19.61491,7.48958757 19.58041,7.64710102 19.5382113,7.8026061 C19.4438054,8.1432636 19.5806987,8.50558279 19.8773891,8.70029886 C21.3890377,9.69707113 21.8013536,11.7229886 20.7983033,13.2252481 C20.1912092,14.1345129 19.1671318,14.6821757 18.0690983,14.6847579 L16.5255,14.6847579 C16.0719477,14.6847579 15.7042845,15.0501375 15.7042845,15.5008727 C15.7042845,15.9516079 16.0719477,16.3169874 16.5255,16.3169874 L18.0690983,16.3169874 C20.7903159,16.3144531 22.9942259,14.1200717 22.9916276,11.4157561 C22.9902803,9.97642558 22.3516695,8.6104483 21.2455042,7.68114764 Z" id="Path" stroke="#3962E6" stroke-width="0.3"></path>
                <path d="M17.0072971,11.6596294 L12.9013159,7.57915123 C12.8248577,7.50297669 12.7338201,7.44277346 12.6335921,7.4020801 C12.4327029,7.31954573 12.2070816,7.31954573 12.0061925,7.4020801 C11.9059644,7.44282128 11.8149749,7.50302451 11.7384686,7.57915123 L7.63248745,11.6596294 C7.31741632,11.9838374 7.32646234,12.5004662 7.65269665,12.8135804 C7.97094351,13.1189958 8.47545188,13.1189958 8.79365063,12.8135804 L11.4995188,10.1261447 L11.4995188,18.9128599 C11.4995188,19.3635951 11.867182,19.7289746 12.3207343,19.7289746 C12.7742866,19.7289746 13.1419498,19.3635951 13.1419498,18.9128599 L13.1419498,10.1261925 L15.846182,12.8136282 C16.1724163,13.1267424 16.6922741,13.1177525 17.0073452,12.7935445 C17.3146695,12.4772744 17.3146695,11.9758518 17.0072971,11.6596294 Z" id="Path"></path>
            </g>
        </g>
    </g>
</svg>