<?xml version="1.0" encoding="UTF-8"?>
<svg width="18px" height="20px" viewBox="0 0 18 20" version="1.1" xmlns="http://www.w3.org/2000/svg" xmlns:xlink="http://www.w3.org/1999/xlink">
    <!-- Generator: sketchtool 52.1 (67048) - http://www.bohemiancoding.com/sketch -->
    <title>D2DBC2B2-0C82-4DF1-A60C-3CF9AA68FC64</title>
    <desc>Created with sketchtool.</desc>
    <g id="Pagos-1" stroke="none" stroke-width="1" fill="none" fill-rule="evenodd">
        <g id="Pago-061" transform="translate(-1250.000000, -535.000000)">
            <g id="Ver-pertinencias-Copy-3" transform="translate(1247.000000, 533.000000)">
                <g id="Ver-pertinencias">
                    <g id="Icon" transform="translate(3.000000, 2.000000)" fill="#2FCC71" fill-rule="nonzero">
                        <path d="M17,2 L14,2 L14,1 C14,0.44771525 13.5522847,0 13,0 C12.4477153,0 12,0.44771525 12,1 L12,2 L10,2 L10,1 C10,0.44771525 9.55228475,0 9,0 C8.44771525,0 8,0.44771525 8,1 L8,2 L6,2 L6,1 C6,0.44771525 5.55228475,0 5,0 C4.44771525,0 4,0.44771525 4,1 L4,2 L1,2 C0.44771525,2 0,2.44771525 0,3 L0,17 C0,18.6568542 1.34314575,20 3,20 L15,20 C16.6568542,20 18,18.6568542 18,17 L18,3 C18,2.44771525 17.5522847,2 17,2 Z M16,17 C16,17.5522847 15.5522847,18 15,18 L3,18 C2.44771525,18 2,17.5522847 2,17 L2,4 L4,4 L4,5 C4,5.55228475 4.44771525,6 5,6 C5.55228475,6 6,5.55228475 6,5 L6,4 L8,4 L8,5 C8,5.55228475 8.44771525,6 9,6 C9.55228475,6 10,5.55228475 10,5 L10,4 L12,4 L12,5 C12,5.55228475 12.4477153,6 13,6 C13.5522847,6 14,5.55228475 14,5 L14,4 L16,4 L16,17 Z" id="Icon-Shape"></path>
                        <path d="M13,12 L5,12 C4.44771525,12 4,12.4477153 4,13 C4,13.5522847 4.44771525,14 5,14 L13,14 C13.5522847,14 14,13.5522847 14,13 C14,12.4477153 13.5522847,12 13,12 Z" id="Icon-Path"></path>
                        <path d="M13,8 L7,8 C6.44771525,8 6,8.44771525 6,9 C6,9.55228475 6.44771525,10 7,10 L13,10 C13.5522847,10 14,9.55228475 14,9 C14,8.44771525 13.5522847,8 13,8 Z" id="Icon-Path"></path>
                    </g>
                    <rect id="ViewBox" x="0" y="0" width="24" height="24"></rect>
                </g>
            </g>
        </g>
    </g>
</svg>