<?xml version="1.0" encoding="UTF-8"?>
<svg xmlns="http://www.w3.org/2000/svg" xmlns:xlink="http://www.w3.org/1999/xlink" width="8pt" height="8pt" viewBox="0 0 8 8" version="1.1">
<g id="surface1">
<path style=" stroke:none;fill-rule:nonzero;fill:rgb(100%,100%,100%);fill-opacity:1;" d="M 7.332031 4 C 7.332031 5.839844 5.839844 7.332031 4 7.332031 C 2.160156 7.332031 0.667969 5.839844 0.667969 4 C 0.667969 2.160156 2.160156 0.667969 4 0.667969 C 5.839844 0.667969 7.332031 2.160156 7.332031 4 Z M 7.332031 4 "/>
<path style=" stroke:none;fill-rule:nonzero;fill:rgb(18.431373%,80%,44.313725%);fill-opacity:1;" d="M 4 1.332031 C 5.464844 1.332031 6.667969 2.535156 6.667969 4 C 6.667969 5.464844 5.464844 6.667969 4 6.667969 C 2.535156 6.667969 1.332031 5.464844 1.332031 4 C 1.332031 2.535156 2.535156 1.332031 4 1.332031 M 4 0 C 1.785156 0 0 1.785156 0 4 C 0 6.214844 1.785156 8 4 8 C 6.214844 8 8 6.214844 8 4 C 8 1.785156 6.214844 0 4 0 Z M 4 0 "/>
<path style=" stroke:none;fill-rule:nonzero;fill:rgb(18.431373%,80%,44.313725%);fill-opacity:1;" d="M 4.054688 0.71875 C 3.945312 0.746094 3.652344 0.878906 3.558594 0.921875 C 3.386719 1.011719 3.253906 1.132812 3.121094 1.265625 C 3.09375 1.292969 3.054688 1.320312 3.027344 1.347656 C 3.160156 1.238281 3.292969 1.132812 3.425781 1.039062 C 3.226562 1.1875 3.011719 1.320312 2.839844 1.492188 C 2.707031 1.625 2.585938 1.8125 2.480469 1.960938 C 2.453125 2 2.425781 2.054688 2.398438 2.09375 C 2.359375 2.160156 2.320312 2.226562 2.28125 2.292969 C 2.1875 2.453125 2.105469 2.652344 2.066406 2.839844 C 2.054688 2.894531 2.054688 2.933594 2.027344 2.988281 C 2.09375 2.828125 2.160156 2.667969 2.226562 2.507812 C 2.226562 2.519531 2.214844 2.519531 2.214844 2.535156 C 2.320312 2.398438 2.425781 2.265625 2.519531 2.132812 C 2.519531 2.132812 2.507812 2.148438 2.507812 2.148438 C 2.640625 2.039062 2.773438 1.933594 2.90625 1.839844 C 2.894531 1.839844 2.894531 1.839844 2.878906 1.851562 C 3.039062 1.785156 3.199219 1.71875 3.359375 1.652344 C 3.347656 1.652344 3.347656 1.652344 3.332031 1.652344 C 3.507812 1.625 3.691406 1.601562 3.867188 1.585938 C 3.8125 1.585938 3.773438 1.585938 3.71875 1.585938 C 3.894531 1.613281 4.078125 1.640625 4.253906 1.652344 C 4.214844 1.625 4.171875 1.613281 4.121094 1.601562 C 3.921875 1.546875 3.691406 1.535156 3.492188 1.507812 C 3.667969 1.535156 3.851562 1.558594 4.027344 1.574219 C 4 1.574219 3.972656 1.558594 3.945312 1.558594 C 4.105469 1.625 4.265625 1.691406 4.425781 1.761719 C 4.414062 1.761719 4.414062 1.746094 4.398438 1.746094 C 4.640625 1.988281 4.878906 2.226562 5.121094 2.464844 C 5.121094 2.453125 5.105469 2.453125 5.105469 2.441406 C 5.171875 2.960938 5.238281 3.464844 5.308594 3.988281 C 5.308594 3.972656 5.308594 3.972656 5.308594 3.960938 C 5.226562 4.105469 5.160156 4.265625 5.09375 4.425781 C 5.09375 4.414062 5.105469 4.414062 5.105469 4.398438 C 5 4.535156 4.894531 4.667969 4.800781 4.800781 C 4.8125 4.800781 4.828125 4.785156 4.839844 4.773438 C 4.707031 4.878906 4.574219 4.988281 4.441406 5.078125 C 4.480469 5.054688 4.519531 5.027344 4.574219 5 C 4.414062 5.066406 4.253906 5.132812 4.09375 5.199219 C 4.105469 5.199219 4.105469 5.1875 4.121094 5.1875 C 4.453125 5.09375 4.746094 4.921875 5 4.667969 C 5.199219 4.507812 5.332031 4.28125 5.414062 4.039062 C 5.535156 3.800781 5.601562 3.546875 5.585938 3.265625 C 5.585938 2.90625 5.492188 2.574219 5.320312 2.253906 C 4.921875 1.613281 4.253906 1.238281 3.507812 1.238281 C 3.414062 1.238281 3.320312 1.238281 3.214844 1.238281 C 2.558594 1.253906 1.90625 1.441406 1.425781 1.921875 C 1.066406 2.28125 0.828125 2.734375 0.71875 3.238281 C 0.667969 3.492188 0.625 3.761719 0.640625 4.027344 C 0.640625 4.292969 0.707031 4.558594 0.746094 4.839844 C 0.71875 4.652344 0.691406 4.480469 0.667969 4.308594 C 0.691406 4.828125 0.800781 5.253906 1.054688 5.707031 C 1.148438 5.867188 1.28125 6.027344 1.398438 6.171875 C 1.425781 6.199219 1.453125 6.226562 1.480469 6.253906 C 1.613281 6.386719 1.785156 6.507812 1.945312 6.613281 C 1.972656 6.640625 2 6.667969 2.039062 6.679688 C 2.320312 6.839844 2.625 6.960938 2.945312 7.011719 C 3.292969 7.066406 3.640625 7.121094 3.988281 7.121094 C 4.320312 7.121094 4.679688 7.105469 5 7 C 5.332031 6.894531 5.574219 6.773438 5.839844 6.585938 C 6.199219 6.347656 6.441406 6.148438 6.667969 5.773438 C 6.785156 5.558594 6.878906 5.375 6.960938 5.121094 C 7.054688 4.800781 7.066406 4.464844 7.066406 4.132812 C 7.066406 3.613281 6.851562 3.078125 6.480469 2.71875 C 6.292969 2.519531 6.078125 2.386719 5.839844 2.308594 C 5.585938 2.171875 5.332031 2.121094 5.066406 2.132812 C 4.546875 2.160156 4 2.320312 3.640625 2.71875 C 3.292969 3.105469 3.054688 3.585938 3.066406 4.132812 C 3.066406 4.238281 3.066406 4.347656 3.066406 4.453125 C 3.09375 4.28125 3.121094 4.09375 3.132812 3.921875 C 3.121094 3.972656 3.105469 4.027344 3.09375 4.078125 C 3.160156 3.921875 3.226562 3.761719 3.292969 3.601562 C 3.253906 3.652344 3.226562 3.707031 3.1875 3.773438 C 3.292969 3.640625 3.398438 3.507812 3.492188 3.375 C 3.480469 3.398438 3.453125 3.414062 3.425781 3.441406 C 3.558594 3.332031 3.691406 3.226562 3.828125 3.132812 C 3.71875 3.199219 3.625 3.28125 3.507812 3.332031 C 3.667969 3.265625 3.828125 3.199219 3.988281 3.132812 C 3.921875 3.160156 3.851562 3.171875 3.785156 3.1875 C 3.960938 3.160156 4.148438 3.132812 4.320312 3.121094 C 4.066406 3.148438 3.8125 3.132812 3.558594 3.105469 C 3.734375 3.132812 3.921875 3.160156 4.09375 3.171875 C 3.960938 3.160156 3.8125 3.132812 3.691406 3.078125 C 3.839844 3.148438 4 3.214844 4.160156 3.28125 C 4.09375 3.253906 4.027344 3.214844 3.960938 3.160156 C 4.09375 3.265625 4.226562 3.375 4.359375 3.464844 C 4.308594 3.425781 4.265625 3.386719 4.226562 3.332031 C 4.332031 3.464844 4.441406 3.601562 4.535156 3.734375 C 4.507812 3.691406 4.480469 3.652344 4.464844 3.601562 C 4.535156 3.773438 4.601562 3.933594 4.667969 4.09375 C 4.640625 4.011719 4.613281 3.933594 4.601562 3.851562 C 4.625 4.027344 4.652344 4.214844 4.667969 4.386719 C 4.652344 4.121094 4.613281 3.867188 4.574219 3.625 C 4.601562 3.800781 4.625 3.988281 4.640625 4.160156 C 4.640625 4.039062 4.625 3.933594 4.640625 3.8125 C 4.613281 3.988281 4.585938 4.171875 4.574219 4.347656 C 4.585938 4.238281 4.613281 4.132812 4.652344 4.039062 C 4.585938 4.199219 4.519531 4.359375 4.453125 4.519531 C 4.480469 4.480469 4.492188 4.441406 4.535156 4.398438 C 4.425781 4.535156 4.320312 4.667969 4.226562 4.800781 C 4.238281 4.785156 4.253906 4.773438 4.265625 4.761719 C 4.132812 4.867188 4 4.972656 3.867188 5.066406 C 3.894531 5.054688 3.921875 5.039062 3.945312 5.011719 C 3.785156 5.078125 3.625 5.148438 3.464844 5.214844 C 3.507812 5.199219 3.574219 5.1875 3.625 5.171875 C 3.453125 5.199219 3.265625 5.226562 3.09375 5.253906 C 3.238281 5.238281 3.414062 5.226562 3.558594 5.253906 C 3.375 5.214844 3.199219 5.199219 3.027344 5.171875 C 3.039062 5.171875 3.039062 5.171875 3.054688 5.1875 C 2.652344 4.878906 2.253906 4.574219 1.851562 4.265625 C 1.851562 4.265625 1.851562 4.28125 1.867188 4.28125 C 2.265625 3.308594 2.667969 2.320312 3.066406 1.347656 C 2.828125 1.425781 2.625 1.519531 2.425781 1.625 C 1.945312 1.894531 1.585938 2.375 1.441406 2.90625 C 1.199219 3.785156 1.585938 4.734375 2.375 5.199219 C 2.785156 5.453125 3.039062 5.453125 3.519531 5.507812 C 3.347656 5.492188 3.160156 5.464844 2.988281 5.441406 C 3.480469 5.546875 3.921875 5.625 4.425781 5.492188 C 4.945312 5.347656 5.414062 5 5.691406 4.519531 C 5.867188 4.214844 5.867188 4.105469 5.933594 3.828125 C 5.867188 3.988281 5.800781 4.148438 5.734375 4.308594 C 5.785156 4.1875 5.878906 4.054688 5.960938 3.945312 C 5.851562 4.078125 5.746094 4.214844 5.652344 4.347656 C 5.691406 4.308594 5.71875 4.265625 5.773438 4.226562 C 5.640625 4.332031 5.507812 4.441406 5.375 4.535156 C 5.558594 4.398438 5.761719 4.253906 5.960938 4.078125 C 5.828125 4.1875 5.691406 4.292969 5.558594 4.386719 C 5.574219 4.386719 5.574219 4.375 5.585938 4.375 C 5.425781 4.441406 5.265625 4.507812 5.105469 4.574219 C 5.121094 4.574219 5.121094 4.574219 5.132812 4.574219 C 5.375 4.519531 5.601562 4.398438 5.800781 4.214844 C 6.011719 4.066406 6.1875 3.878906 6.320312 3.652344 C 6.453125 3.425781 6.535156 3.171875 6.546875 2.90625 C 6.601562 2.640625 6.601562 2.375 6.507812 2.105469 C 6.359375 1.625 6.054688 1.160156 5.601562 0.921875 C 5.441406 0.851562 5.28125 0.785156 5.121094 0.71875 C 4.761719 0.625 4.414062 0.625 4.054688 0.71875 Z M 4.054688 0.71875 "/>
</g>
</svg>
