<?xml version="1.0" encoding="UTF-8"?>
<svg width="17px" height="18px" viewBox="0 0 17 18" version="1.1" xmlns="http://www.w3.org/2000/svg" xmlns:xlink="http://www.w3.org/1999/xlink">
    <!-- Generator: sketchtool 52.1 (67048) - http://www.bohemiancoding.com/sketch -->
    <title>805E294D-EC73-4CD2-A93D-34E116171A37</title>
    <desc>Created with sketchtool.</desc>
    <g id="Facturación-WEB-PASO-1*" stroke="none" stroke-width="1" fill="none" fill-rule="evenodd">
        <g id="Desktop-23" transform="translate(-1022.000000, -513.000000)">
            <g id="Modal">
                <g id="Group-5" transform="translate(290.000000, 135.000000)">
                    <g id="Veris-centro-medico" transform="translate(732.000000, 378.000000)">
                        <path d="M15.2223884,4.76470588 L10.4610159,4.76470588 L10.4610159,12.2875028 C10.4610159,13.4856056 9.48823919,14.451921 8.27887755,14.451921 C7.06951591,14.451921 6.09512059,13.4856056 6.09512059,12.2875028 L6.09512059,4.76470588 L1.3337481,4.76470588 C0.100916804,4.76470588 -0.361462372,5.60510221 0.305129777,6.63290678 L7.06506477,17.0495705 C7.73206157,18.0785781 8.82326563,18.0785781 9.49093685,17.0495705 L16.2516811,6.63290678 C16.9184082,5.60510221 16.4556243,4.76470588 15.2223884,4.76470588" id="Fill-12" fill="#0071CE"></path>
                        <path d="M8.55875696,4.32669767 C9.7681186,4.32669767 10.7408953,3.36265468 10.7408953,2.16348251 C10.7408953,0.990911081 9.7681186,-1.86517468e-14 8.55875696,-1.86517468e-14 C7.34939532,-1.86517468e-14 6.375,0.990911081 6.375,2.16348251 C6.375,3.36265468 7.34939532,4.32669767 8.55875696,4.32669767" id="Fill-14" fill="#1A2741"></path>
                    </g>
                </g>
            </g>
        </g>
    </g>
</svg>