<?xml version="1.0" encoding="UTF-8"?>
<svg width="22px" height="14px" viewBox="0 0 22 14" version="1.1" xmlns="http://www.w3.org/2000/svg" xmlns:xlink="http://www.w3.org/1999/xlink">
    <!-- Generator: sketchtool 52.1 (67048) - http://www.bohemiancoding.com/sketch -->
    <title>8A326E4D-F8D3-466F-B499-5AE69A77C788</title>
    <desc>Created with sketchtool.</desc>
    <g id="Pagos-1" stroke="none" stroke-width="1" fill="none" fill-rule="evenodd">
        <g id="Pago-047" transform="translate(-1238.000000, -414.000000)" fill="#0071CE">
            <g id="Veris-en-casa" transform="translate(1238.000000, 414.000000)">
                <path d="M18.3333333,5.7037037 C16.3130129,5.7037037 14.6666667,7.35004993 14.6666667,9.37037037 C14.6666667,11.3906908 16.3087143,13.037037 18.3333333,13.037037 C20.3536538,13.037037 22,11.3949894 22,9.37037037 C22,7.34575138 20.3536538,5.7037037 18.3333333,5.7037037 Z M18.3333333,12.121445 C16.8159437,12.121445 15.5822587,10.88776 15.5822587,9.37037037 C15.5822587,7.85298077 16.8159437,6.61929573 18.3333333,6.61929573 C19.8507229,6.61929573 21.084408,7.85298077 21.084408,9.37037037 C21.084408,10.88776 19.8507229,12.121445 18.3333333,12.121445 Z" id="Shape" fill-rule="nonzero"></path>
                <path d="M7.21734036,8.31595838 C7.15719586,8.06112743 6.90802578,7.90465229 6.66315173,7.96724235 C6.41827768,8.0298324 6.26791642,8.28913407 6.32806093,8.54396502 C6.38820543,8.79879597 6.41398164,9.01339046 6.41398164,9.22351422 C6.41398164,10.8016778 5.18101933,12.084774 3.66451865,12.084774 C2.14801797,12.084774 0.915055653,10.8016778 0.915055653,9.22351422 C0.915055653,8.1013639 1.55516501,7.07756938 2.54325327,6.61708538 C2.77523921,6.50978814 2.87834407,6.22813288 2.77523921,5.98671408 C2.67213435,5.74529529 2.40148409,5.63799805 2.16949814,5.74529529 C0.850615114,6.36225443 0,7.72582355 0,9.22351422 C0,11.3247519 1.64108573,13.037037 3.66451865,13.037037 C5.68795157,13.037037 7.33333333,11.3292226 7.33333333,9.22351422 C7.33333333,8.94185896 7.29466901,8.64232083 7.21734036,8.31595838 Z" id="Path"></path>
                <path d="M16.9922921,0.143406029 C16.9119642,0.0480014647 16.8048603,-0.00447104557 16.6939312,0.000299182642 C16.4032205,0.00983963906 13.8518519,0.16725717 13.8518519,2.03718663 C13.8518519,3.90711609 16.4032205,4.05976339 16.6939312,4.07407407 C16.6977563,4.07407407 16.7015815,4.07407407 16.7054066,4.07407407 C16.8125105,4.07407407 16.9119642,4.02160156 16.988467,3.93096723 C17.0687949,3.83556266 17.1108715,3.70199627 17.1108715,3.56365966 L17.1108715,0.510713601 C17.1146966,0.372376983 17.0726201,0.238810593 16.9922921,0.143406029 Z" id="Path"></path>
                <path d="M14.3195791,0.835257915 L11.2643032,0.0217907267 C11.0017405,-0.0507720741 10.7105345,0.0638007693 10.619831,0.277670077 C10.5291275,0.491539385 10.6723436,0.720685072 10.9396802,0.793247873 L13.994956,1.60671506 C14.0522424,1.62199144 14.104755,1.62962963 14.1572675,1.62962963 C14.3673178,1.62962963 14.5678202,1.52269498 14.6394283,1.35083571 C14.7301318,1.1369664 14.5869157,0.907820716 14.3195791,0.835257915 Z" id="Path"></path>
                <path d="M18.6762481,9.09433875 L14.7684543,2.67688925 C14.6310172,2.45337459 14.3286557,2.3803025 14.0995939,2.5049549 C13.8613697,2.6296073 13.7834887,2.90900061 13.9163445,3.12821691 L17.8241383,9.54566641 C17.915763,9.69610896 18.0806875,9.77777778 18.2501932,9.77777778 C18.3326554,9.77777778 18.4151177,9.75628598 18.4929987,9.71760076 C18.7312229,9.59294835 18.8091039,9.31355504 18.6762481,9.09433875 Z" id="Path"></path>
                <path d="M6.87933463,8.95804167 L6.38714912,8.84365988 L4.97848025,7.99723469 L5.02091004,7.92098017 C5.13122748,7.71890569 5.04212493,7.47489122 4.81724707,7.37576034 C4.59236921,7.27662946 4.32506156,7.35669671 4.21050114,7.55877119 L3.30674672,9.18680523 C3.23885906,9.31262519 3.24310204,9.46132151 3.32371863,9.58332875 C3.4085782,9.70152326 3.55283947,9.77777778 3.70982968,9.77777778 L6.87933463,9.77777778 C7.12967036,9.77777778 7.33333333,9.59476693 7.33333333,9.36981609 C7.33333333,9.14486525 7.12967036,8.95804167 6.87933463,8.95804167 Z" id="Path"></path>
                <path d="M14.6054097,2.13464506 C14.4697693,1.66782407 14.1109785,1.62962963 14.0059666,1.62962963 C11.4856802,1.62962963 9.08353222,2.88580247 7.72275259,3.96373457 C7.64836913,3.91705247 7.56523469,3.89158951 7.46897375,3.89158951 C6.52824185,3.89158951 3.84168656,3.45023148 3.81543357,3.44598765 C3.67979316,3.42052469 3.53977725,3.45871914 3.43476531,3.54783951 C3.32975338,3.63271605 3.26849642,3.76003086 3.26849642,3.89158951 L3.26849642,4.34992284 C1.74582339,4.39236111 0.739459029,4.65123457 0.275656325,5.11805556 C0.00875099443,5.38541667 0,5.64429012 0,5.72067901 C0.0131264916,5.96257716 0.214399364,6.15354938 0.468178202,6.15354938 C2.358393,6.15354938 6.64638027,8.71257716 8.13842482,9.69714506 C8.21718377,9.74807099 8.30469372,9.77777778 8.40095465,9.77777778 L12.1376293,9.77777778 C13.7215593,9.77777778 14.6666667,3.79398148 14.6666667,2.72878086 C14.6666667,2.47839506 14.6447892,2.28317901 14.6054097,2.13464506 Z" id="Path"></path>
            </g>
        </g>
    </g>
</svg>