<?xml version="1.0" encoding="UTF-8"?>
<svg width="21px" height="21px" viewBox="0 0 21 21" version="1.1" xmlns="http://www.w3.org/2000/svg" xmlns:xlink="http://www.w3.org/1999/xlink">
    <!-- Generator: sketchtool 52.1 (67048) - http://www.bohemiancoding.com/sketch -->
    <title>F4F333FA-58FF-4253-A0A5-4882B0436BB2</title>
    <desc>Created with sketchtool.</desc>
    <g id="*-3-Web---LogIn" stroke="none" stroke-width="1" fill="none" fill-rule="evenodd">
        <g id="P13" transform="translate(-486.000000, -495.000000)" fill="#B9B9B9">
            <g id="stamp" transform="translate(486.000000, 495.000000)">
                <path d="M5.06426787,14.3498292 L5.06426787,14.6997533 L1.05238452,14.6997533 C0.728402768,14.6997533 0.422241587,14.8485993 0.222843468,15.1035119 C0.0234453905,15.3584246 -0.0471948377,15.6908846 0.0314726686,16.0045986 L0.732898056,18.8046325 C0.84431694,19.2478056 1.23091164,19.5674478 1.6878255,19.5943651 L2.10139193,20.4196669 C2.27879522,20.7766407 2.64435839,21.0017522 3.04379677,20.9999897 L14.8015417,20.9999897 C15.2004984,21.0012715 15.5652589,20.7761601 15.7425016,20.4196669 L16.1560681,19.5943651 C16.6129819,19.5674478 16.9997371,19.2478056 17.1109955,18.8046325 L17.8125814,16.0045986 C17.8910884,15.6908846 17.8206087,15.3585848 17.6212106,15.1036722 C17.4218125,14.8487595 17.1159724,14.6997533 16.7919906,14.6997533 L12.7801073,14.6997533 L12.7801073,14.3498292 C12.7801073,13.7698268 12.3090654,13.2997364 11.727889,13.2997364 L11.4824142,13.2997364 L12.2072793,10.5444044 C12.2576907,10.5541779 12.306015,10.5719626 12.3508074,10.5969571 C12.4755516,10.6677751 12.5627281,10.7900242 12.5888971,10.9308591 C12.6751102,11.3798002 13.0108119,11.7401387 13.4532766,11.8585425 C13.8957413,11.9767861 14.3671043,11.8322662 14.6665225,11.4863476 C14.7622079,11.3814024 14.8977087,11.3216397 15.0397919,11.3216397 C15.1818751,11.3216397 15.3173759,11.3814024 15.4129007,11.4863476 C15.6378256,11.7481498 15.965821,11.8990786 16.3114766,11.8997195 C16.4172763,11.8995593 16.522755,11.88562 16.6250228,11.8583823 C17.0684508,11.7419012 17.4049551,11.3807615 17.4890812,10.9308591 C17.5162135,10.7903447 17.6030689,10.6685762 17.7271709,10.5971174 C17.851273,10.5254983 18.0004202,10.511559 18.135921,10.5585039 C18.5684318,10.7079907 19.0486248,10.5979185 19.3724461,10.2749116 C19.6961067,9.95174448 19.8065624,9.47252146 19.6566124,9.04088431 C19.6095725,8.90565723 19.62354,8.75681131 19.695304,8.63295993 C19.7669075,8.50910859 19.8889224,8.42226847 20.0297213,8.39535123 C20.4795711,8.30947242 20.840639,7.97428865 20.9592825,7.53271778 C21.0777654,7.09114682 20.9329529,6.62089626 20.5863342,6.32192261 C20.4779656,6.22835316 20.4158343,6.09248518 20.4158343,5.94956746 C20.4158343,5.80664973 20.4779656,5.67062155 20.5863342,5.5772123 C20.9326318,5.27807848 21.0772838,4.80782788 20.9586403,4.36625697 C20.8401574,3.92484627 20.47925,3.58982275 20.0294002,3.50362351 C19.8886014,3.47670627 19.7665864,3.39002636 19.6948224,3.26617498 C19.6232188,3.14216343 19.6090908,2.99331748 19.6562913,2.85825064 C19.8060807,2.42661345 19.6957857,1.94739044 19.3719644,1.62422334 C19.0483037,1.30121646 18.5681108,1.19098396 18.1354393,1.34063101 C18.0000991,1.38757595 17.8509519,1.37347645 17.7268499,1.3020176 C17.6025873,1.23055872 17.5157319,1.10863004 17.4887602,0.968275861 C17.4023864,0.519494942 17.0666848,0.159476888 16.6245412,0.0410730661 C16.182237,-0.0771705034 15.7111952,0.0670289556 15.4114558,0.41246691 C15.3159309,0.517251859 15.1804301,0.577174742 15.038347,0.577174742 C14.8962638,0.577174742 14.760763,0.517251859 14.6652381,0.41246691 C14.3654988,0.0667085328 13.8942964,-0.0774909672 13.4518316,0.0407526433 C13.0095275,0.159156424 12.6738259,0.519334731 12.5874521,0.968275861 C12.5612832,1.10911068 12.4741067,1.23119961 12.3493625,1.30217781 C12.3055334,1.32653151 12.2581724,1.34399566 12.2090453,1.35424985 C11.2576499,0.410864673 9.94550759,-0.0786125292 8.60735694,0.0103105061 C7.26904571,0.0993937528 6.03380497,0.758385457 5.21614434,1.81937335 C4.32671965,2.96319584 4.02425104,4.45630152 4.39864425,5.85503669 L6.36260312,13.2997364 L6.11712834,13.2997364 C5.83793889,13.2995762 5.5701482,13.4101291 5.37267668,13.6070416 C5.17520511,13.803954 5.06426787,14.0712038 5.06426787,14.3498292 Z M15.1150879,20.1064335 C15.0558465,20.2249975 14.9344737,20.299821 14.8015417,20.2999813 L3.04379677,20.2999813 C2.91022252,20.3006222 2.78788651,20.2256384 2.72816341,20.1064335 L2.47530349,19.5999728 L15.3687506,19.5999728 L15.1150879,20.1064335 Z M17.0679692,15.5345082 C17.1347563,15.6192655 17.1583565,15.7301389 17.1317059,15.8344432 L16.714768,17.4997872 L4.71347489,17.4997872 C4.51985647,17.4997872 4.36284248,17.656484 4.36284248,17.8498715 C4.36284248,18.0430989 4.51985647,18.1999559 4.71347489,18.1999559 L16.5394518,18.1999559 L16.4302805,18.6346373 C16.3914284,18.7903727 16.2512718,18.8996439 16.0904047,18.8999643 L1.75380987,18.8999643 C1.59278229,18.8998041 1.45262566,18.790533 1.41361298,18.6346373 L0.712187594,15.8344432 C0.686018631,15.7299787 0.709618859,15.6192655 0.776084912,15.534348 C0.842550965,15.4494305 0.944497627,15.3997618 1.05238452,15.3997618 L16.7919906,15.3997618 C16.8998775,15.3994414 17.0018242,15.4492703 17.0679692,15.5345082 Z M12.0786819,14.3498292 L12.0786819,14.6997533 L5.76569322,14.6997533 L5.76569322,14.3498292 C5.76569322,14.1564417 5.92270716,13.9997449 6.11648616,13.9997449 L11.727889,13.9997449 C11.921668,13.9997449 12.0786819,14.1564417 12.0786819,14.3498292 Z M12.7001554,1.90829639 C13.0006975,1.73525699 13.2110127,1.44028887 13.2763549,1.10013826 C13.3119961,0.914761804 13.4505473,0.765915886 13.6332486,0.716888036 C13.81595,0.668020437 14.0106922,0.727462686 14.1344732,0.870220201 C14.3613246,1.13250306 14.6912466,1.28311143 15.038347,1.282791 C15.3852868,1.28327164 15.7153693,1.13266327 15.9420602,0.870540624 C16.0658412,0.727622897 16.2605835,0.667860226 16.4434453,0.716727824 C16.6261467,0.765595422 16.7648584,0.914601593 16.800339,1.10013826 C16.8658418,1.44028887 17.0759965,1.73509674 17.3765385,1.90829639 C17.6770806,2.08133579 18.0381485,2.11562321 18.3659834,2.00218627 C18.5445105,1.94018047 18.7429453,1.98552321 18.8766801,2.11898785 C19.0104149,2.25245249 19.0558494,2.45032626 18.9937181,2.628653 C18.8800515,2.95582563 18.9142478,3.31616414 19.0877981,3.6160991 C19.2611877,3.91587385 19.5567528,4.12576426 19.8975919,4.1911347 C20.0833436,4.22670389 20.2324908,4.36497519 20.2814574,4.54730743 C20.3305844,4.72963971 20.2708613,4.92398858 20.1279754,5.04751949 C19.8654828,5.27407291 19.7147301,5.60332845 19.7147301,5.94956746 C19.7147301,6.29580651 19.8654828,6.625062 20.1279754,6.85145521 C20.2711824,6.97498612 20.3310661,7.169335 20.2820995,7.35182748 C20.233133,7.53415976 20.0838253,7.67259128 19.897913,7.70800026 C19.5570739,7.7733707 19.2616694,7.98310085 19.0881191,8.28303581 C18.9147295,8.58297077 18.8803727,8.94330929 18.9940392,9.27048195 C19.0561705,9.44864845 19.010736,9.64668243 18.8770012,9.78014706 C18.7432664,9.9136117 18.5448316,9.95895444 18.3663044,9.89694865 C18.0384696,9.78351175 17.6774017,9.81763895 17.3768596,9.99083857 C17.0764781,10.163878 16.8661629,10.458846 16.8006601,10.7989967 C16.7650189,10.9843731 16.6264677,11.1332191 16.4437664,11.1820867 C16.2610651,11.2311145 16.0663228,11.171512 15.9425419,11.0289148 C15.7155299,10.7669523 15.3856079,10.6165042 15.0386681,10.6165042 C14.6917282,10.6165042 14.3618063,10.7669523 14.1349548,11.0289148 C14.0111739,11.1718325 13.8164316,11.2315952 13.6335697,11.1827276 C13.4508684,11.1336997 13.3121567,10.9848538 13.276676,10.7993171 C13.1559454,10.1616349 12.543302,9.74009167 11.9032052,9.85432971 C11.8818526,9.85705346 11.8606605,9.86186013 11.8401107,9.86858942 C11.7966027,9.87628006 11.7535764,9.88621383 11.7110317,9.89839067 C11.5325046,9.96039647 11.3340697,9.91505373 11.2003349,9.78158905 C11.0666001,9.64812441 11.0211657,9.45009043 11.0832969,9.27176373 C11.1969635,8.94475131 11.1627672,8.58441276 10.989217,8.2844778 C10.8156668,7.98454284 10.5202622,7.77465247 10.1794231,7.70944224 C9.99367143,7.67387305 9.84452419,7.53544153 9.79555768,7.35310926 C9.74643059,7.17077702 9.80615373,6.97658836 9.94903963,6.85289723 C10.2115323,6.62634378 10.362285,6.29724849 10.362285,5.95100948 C10.362285,5.60461022 10.2115323,5.27551494 9.94903963,5.04896148 C9.80583262,4.92559082 9.74594898,4.7312419 9.79491549,4.54874946 C9.843882,4.36625697 9.99318978,4.22782545 10.179102,4.19241647 C10.5199411,4.12720624 10.8153457,3.91731584 10.9888959,3.61738088 C11.1622855,3.31760613 11.1966424,2.95726761 11.0829758,2.63009499 C11.0208445,2.45176828 11.0662791,2.25373426 11.2000138,2.12026962 C11.3337486,1.98680499 11.5321835,1.94146224 11.7107106,2.00346804 C11.8203635,2.03935769 11.9348328,2.05906497 12.0502653,2.06194894 C12.0624668,2.06275004 12.0748288,2.06275004 12.0870303,2.06194894 C12.3015198,2.06691582 12.5134404,2.01372223 12.7001554,1.90829639 Z M5.07791427,5.67478729 C4.65953144,4.08458726 5.26735852,2.40145866 6.60615136,1.44333309 C7.94510481,0.485207526 9.73744001,0.450599646 11.1123558,1.35633272 C10.5159275,1.59137791 10.2107296,2.25341384 10.4200815,2.85825064 C10.4671215,2.99331748 10.4529934,3.14216343 10.3813899,3.26617498 C10.3097864,3.39002636 10.187611,3.47670627 10.0469726,3.50362351 C9.59696232,3.58966254 9.23589443,3.92468605 9.11741149,4.36625697 C8.99892854,4.80782788 9.14374103,5.27823869 9.49035979,5.5772123 C9.59856776,5.67062155 9.66085959,5.80664973 9.66085959,5.94956746 C9.66085959,6.09248518 9.59856776,6.22835316 9.49035979,6.32192261 C9.1440621,6.62105647 8.99941019,7.09130707 9.11789313,7.53271778 C9.23653658,7.97428865 9.59744392,8.30931216 10.0472938,8.39535123 C10.1880926,8.42226847 10.3101075,8.50910859 10.381711,8.63295993 C10.4533145,8.75681131 10.4674426,8.90565723 10.4204026,9.04088431 C10.2990298,9.39080843 10.3473542,9.77710288 10.551087,10.0866511 C10.7548199,10.3961994 11.0910031,10.5937527 11.4610616,10.621471 L10.7557831,13.2997364 L7.08794985,13.2997364 L5.07791427,5.67478729 Z" id="Shape" fill-rule="nonzero"></path>
                <path d="M9.20547945,1.78440618 C9.20547945,1.59332884 9.05095469,1.43837561 8.86040579,1.43837561 C7.86089296,1.43488993 6.91731241,1.90022499 6.30995749,2.69622205 C6.23095711,2.79382041 6.21104903,2.92675067 6.25781726,3.0433617 C6.30458548,3.15997273 6.41076199,3.24204411 6.53526659,3.2575711 C6.6596132,3.27325656 6.78269576,3.21986262 6.85664012,3.11846172 C7.33411844,2.49342025 8.07530002,2.12806015 8.86040579,2.13059518 C9.05095469,2.13059518 9.20547945,1.97564191 9.20547945,1.78440618 Z" id="Path"></path>
                <path d="M6.33841896,4.93673716 C6.32952458,4.80742917 6.25556061,4.69329504 6.14477076,4.63771241 C6.03413689,4.58196485 5.90368575,4.59351019 5.80319461,4.66773035 C5.70270356,4.74195048 5.64762067,4.86746498 5.65901177,4.99660804 C5.67477201,5.19370377 5.70644857,5.38915015 5.75419742,5.58063815 C5.79352003,5.73897446 5.92880852,5.84931507 6.08375829,5.84931507 C6.11293817,5.84931507 6.14211805,5.84535666 6.17036166,5.83743985 C6.25790125,5.81319459 6.33264542,5.75315874 6.3782097,5.67052698 C6.42377399,5.58806016 6.43641339,5.48959477 6.41347519,5.39723193 C6.37571303,5.24631762 6.35059027,5.09226956 6.33841896,4.93673716 Z" id="Path"></path>
                <path d="M3.29218381,17.5479452 L2.94069294,17.5479452 C2.7464395,17.5479452 2.5890411,17.6981662 2.5890411,17.8835616 C2.5890411,18.0688035 2.7464395,18.2191781 2.94069294,18.2191781 L3.29218381,18.2191781 C3.48643721,18.2191781 3.64383562,18.0688035 3.64383562,17.8835616 C3.64383562,17.6981662 3.48643721,17.5479452 3.29218381,17.5479452 Z" id="Path"></path>
                <path d="M15.0547945,9.78082192 C17.1730828,9.78082192 18.890411,8.06349368 18.890411,5.94520546 C18.890411,3.82691728 17.1730828,2.10958904 15.0547945,2.10958904 C12.9365063,2.10958904 11.2191781,3.82691728 11.2191781,5.94520546 C11.221732,8.062536 12.937464,9.77826803 15.0547945,9.78082192 Z M15.0547945,2.80695933 C16.7879249,2.80695933 18.1930407,4.21191544 18.1930407,5.94520546 C18.1930407,7.67833587 16.7879249,9.08345159 15.0547945,9.08345159 C13.3216641,9.08345159 11.9165484,7.67833587 11.9165484,5.94520546 C11.9186234,4.21287317 13.3224622,2.80903435 15.0547945,2.80695933 Z" id="Shape" fill-rule="nonzero"></path>
                <path d="M14.4057691,7.57343975 C14.4718696,7.63623827 14.5602202,7.67123288 14.6519813,7.67123288 C14.6662733,7.67123288 14.6805653,7.67027414 14.6945325,7.66851641 C14.8002608,7.65589278 14.8947829,7.59740867 14.9517885,7.5088835 L16.725783,4.75501627 C16.8305369,4.59218751 16.7813269,4.37646735 16.6158321,4.27340108 C16.4501748,4.17017502 16.2310849,4.218752 16.1261687,4.38158072 L14.5849064,6.77415672 L13.8339267,6.06244005 C13.7426528,5.97583244 13.6114262,5.94371407 13.4896194,5.9782293 C13.3678126,6.01274452 13.2739402,6.10846035 13.2434072,6.22958323 C13.2127119,6.35054629 13.2502284,6.47854022 13.3415023,6.56498806 L14.4057691,7.57343975 Z" id="Path"></path>
            </g>
        </g>
    </g>
</svg>