<?xml version="1.0" encoding="UTF-8"?>
<svg width="22px" height="22px" viewBox="0 0 22 22" version="1.1" xmlns="http://www.w3.org/2000/svg" xmlns:xlink="http://www.w3.org/1999/xlink">
    <!-- Generator: sketchtool 52.1 (67048) - http://www.bohemiancoding.com/sketch -->
    <title>3460F2E1-BEF7-45F8-95D8-68396D32CADC</title>
    <desc>Created with sketchtool.</desc>
    <g id="*-3-Web---LogIn" stroke="none" stroke-width="1" fill="none" fill-rule="evenodd">
        <g id="P13" transform="translate(-485.000000, -396.000000)" fill="#B9B9B9">
            <g id="folder-2" transform="translate(485.000000, 396.000000)">
                <path d="M21.9323042,14.0877 C21.8635542,13.9909 21.7521792,13.9333792 21.6334708,13.9333333 L18.3334708,13.9333333 L18.3334708,3.3 C18.3334708,3.09750833 18.1692958,2.93333333 17.9668042,2.93333333 L16.8668042,2.93333333 L16.8668042,1.83333333 C16.8668042,1.63084167 16.7026292,1.46666667 16.5001375,1.46666667 L7.7001375,1.46666667 C7.7001375,0.656654167 7.04348333,0 6.23347083,0 C5.42345833,0 4.76680417,0.656654167 4.76680417,1.46666667 L3.66680417,1.46666667 C3.4643125,1.46666667 3.3001375,1.63084167 3.3001375,1.83333333 L3.3001375,13.9333333 L0.366804167,13.9333333 C0.1643125,13.9333792 0.000183333333,14.0975542 0.000183333333,14.3000458 C0.000183333333,14.3618292 0.0158125,14.4226042 0.0456041667,14.4767333 L4.0789375,21.8100667 C4.14337917,21.9272167 4.26644167,22 4.4001375,22 L19.0668042,22 C19.2237833,22.0044917 19.3644917,21.9037042 19.4107375,21.7536 L19.4129375,21.7536 L21.9796042,14.4202667 C22.0185167,14.3082958 22.0009167,14.1844083 21.9323042,14.0877 Z M16.8668042,16.8666667 L16.8668042,3.66666667 L17.6001375,3.66666667 L17.6001375,18.2061 L16.8635042,16.8666667 L16.8668042,16.8666667 Z M6.23347083,0.733333333 C6.6385,0.733333333 6.96680417,1.0616375 6.96680417,1.46666667 L5.5001375,1.46666667 C5.5001375,1.0616375 5.8284875,0.733333333 6.23347083,0.733333333 Z M4.03347083,2.2 L6.96680417,2.2 L6.96680417,3.3 C6.96680417,3.50249167 6.80262917,3.66666667 6.6001375,3.66666667 C6.39764583,3.66666667 6.23347083,3.50249167 6.23347083,3.3 L6.23347083,2.93333333 L5.5001375,2.93333333 L5.5001375,3.3 C5.5001375,3.90752083 5.99261667,4.4 6.6001375,4.4 C7.20765833,4.4 7.7001375,3.90752083 7.7001375,3.3 L7.7001375,2.2 L16.1334708,2.2 L16.1334708,15.5393333 L15.3546708,14.1232667 C15.2902292,14.0061167 15.1671667,13.9333792 15.0334708,13.9333333 L4.03347083,13.9333333 L4.03347083,2.2 Z M4.6168375,21.2666667 L0.9868375,14.6666667 L14.8167708,14.6666667 L18.4467708,21.2666667 L4.6168375,21.2666667 Z M18.9934708,20.7368333 L18.3334708,19.5393 L18.3334708,14.6666667 L21.1164708,14.6666667 L18.9934708,20.7368333 Z" id="Shape" fill-rule="nonzero"></path>
                <path d="M18.3334708,1.46666667 L17.6001375,1.46666667 L17.6001375,2.2 L18.3334708,2.2 C18.7385,2.2 19.0668042,2.52830417 19.0668042,2.93333333 L19.0668042,8.06666667 L19.8001375,8.06666667 L19.8001375,2.93333333 C19.8001375,2.12332083 19.1434833,1.46666667 18.3334708,1.46666667 Z" id="Path"></path>
                <rect id="Rectangle" x="19.0668042" y="8.8" width="1" height="1"></rect>
                <rect id="Rectangle" x="1.83347083" y="7.33333333" width="1" height="5.13333333"></rect>
                <rect id="Rectangle" x="1.83347083" y="5.86666667" width="1" height="1"></rect>
                <path d="M12.4668042,4.76666667 L11.3668042,4.76666667 L11.3668042,3.66666667 C11.3668042,3.464175 11.2026292,3.3 11.0001375,3.3 L9.53347083,3.3 C9.33097917,3.3 9.16680417,3.464175 9.16680417,3.66666667 L9.16680417,4.76666667 L8.06680417,4.76666667 C7.8643125,4.76666667 7.7001375,4.93084167 7.7001375,5.13333333 L7.7001375,6.6 C7.7001375,6.80249167 7.8643125,6.96666667 8.06680417,6.96666667 L9.16680417,6.96666667 L9.16680417,8.06666667 C9.16680417,8.26915833 9.33097917,8.43333333 9.53347083,8.43333333 L11.0001375,8.43333333 C11.2026292,8.43333333 11.3668042,8.26915833 11.3668042,8.06666667 L11.3668042,6.96666667 L12.4668042,6.96666667 C12.6692958,6.96666667 12.8334708,6.80249167 12.8334708,6.6 L12.8334708,5.13333333 C12.8334708,4.93084167 12.6692958,4.76666667 12.4668042,4.76666667 Z M12.1001375,6.23333333 L11.0001375,6.23333333 C10.7976458,6.23333333 10.6334708,6.39750833 10.6334708,6.6 L10.6334708,7.7 L9.9001375,7.7 L9.9001375,6.6 C9.9001375,6.39750833 9.7359625,6.23333333 9.53347083,6.23333333 L8.43347083,6.23333333 L8.43347083,5.5 L9.53347083,5.5 C9.7359625,5.5 9.9001375,5.335825 9.9001375,5.13333333 L9.9001375,4.03333333 L10.6334708,4.03333333 L10.6334708,5.13333333 C10.6334708,5.335825 10.7976458,5.5 11.0001375,5.5 L12.1001375,5.5 L12.1001375,6.23333333 Z" id="Shape" fill-rule="nonzero"></path>
                <rect id="Rectangle" x="5.86680417" y="9.16666667" width="1" height="1"></rect>
                <rect id="Rectangle" x="7.33347083" y="9.16666667" width="7.7" height="1"></rect>
                <rect id="Rectangle" x="5.13347083" y="10.6333333" width="9.9" height="1"></rect>
                <rect id="Rectangle" x="5.13347083" y="12.1" width="8.43333333" height="1"></rect>
                <rect id="Rectangle" x="14.6041042" y="3.3" width="1" height="1"></rect>
                <rect id="Rectangle" x="14.6668042" y="4.76666667" width="1" height="1"></rect>
            </g>
        </g>
    </g>
</svg>