<?xml version="1.0" encoding="UTF-8"?>
<svg width="20px" height="20px" viewBox="0 0 20 20" version="1.1" xmlns="http://www.w3.org/2000/svg" xmlns:xlink="http://www.w3.org/1999/xlink">
    <!-- Generator: sketchtool 52.1 (67048) - http://www.bohemiancoding.com/sketch -->
    <title>F4CE49B4-0AF4-4721-B2A7-8DFABDA5C1EA</title>
    <desc>Created with sketchtool.</desc>
    <g id="*-3-Web---LogIn" stroke="none" stroke-width="1" fill="none" fill-rule="evenodd">
        <g id="P13" transform="translate(-488.000000, -597.000000)" fill="#B9B9B9">
            <g id="notepad" transform="translate(488.000000, 597.000000)">
                <path d="M11.8518519,6.72846004 C11.954386,6.72846004 12.0549708,6.68674464 12.1274464,6.61423002 C12.199961,6.54132554 12.2417154,6.4411306 12.2417154,6.33859649 C12.2417154,6.23606238 12.2,6.13547758 12.1274464,6.06296296 C12.0549708,5.99005848 11.954386,5.94873294 11.8518519,5.94873294 C11.7488889,5.94873294 11.6487329,5.99005848 11.5762183,6.06296296 C11.5037037,6.13547758 11.4619883,6.23567251 11.4619883,6.33859649 C11.4619883,6.4411306 11.5036647,6.5417154 11.5762183,6.61423002 C11.6487329,6.68674464 11.7493177,6.72846004 11.8518519,6.72846004 Z" id="XMLID_363_"></path>
                <path d="M2.49551657,6.7545809 C2.56764133,6.7545809 2.6405848,6.7345809 2.70580897,6.69270955 L3.84682261,5.96007797 L3.85906433,6.04050682 C3.89294347,6.26218324 4.03641326,6.44682261 4.24280702,6.53446394 C4.44927875,6.62218324 4.68175439,6.59707602 4.86467836,6.46752437 L5.3111501,6.151423 C5.3528655,6.31840156 5.45945419,6.46132554 5.60962963,6.54923977 C5.7762963,6.64678363 5.97575049,6.66424951 6.15695906,6.597154 L7.23922027,6.19602339 C7.2582846,6.30635478 7.30623782,6.41091618 7.38007797,6.49898635 C7.50237817,6.64475634 7.68159844,6.72838207 7.87189084,6.72838207 L10.2923977,6.72838207 C10.5076803,6.72838207 10.6822612,6.55384016 10.6822612,6.33851852 C10.6822612,6.12319688 10.5076803,5.94865497 10.2923977,5.94865497 L8.01524366,5.94865497 C8.00175439,5.77851852 7.92066277,5.61758285 7.78654971,5.50573099 C7.61037037,5.35875244 7.36729045,5.31703704 7.15224172,5.39672515 L6.04354776,5.80760234 C6.00732943,5.5888499 5.86405458,5.4071345 5.65945419,5.32093567 C5.45348928,5.23419103 5.22167641,5.2594152 5.03922027,5.388577 L4.59614035,5.70226121 L4.58553606,5.63267057 C4.55255361,5.41688109 4.41411306,5.23438596 4.21516569,5.14452242 C4.01617934,5.05461988 3.78775828,5.07134503 3.60397661,5.18935673 L2.28444444,6.03660819 C2.10327485,6.15294347 2.05072125,6.39411306 2.16701754,6.57528265 C2.24152047,6.69130604 2.36717349,6.7545809 2.49551657,6.7545809 Z" id="XMLID_364_"></path>
                <path d="M2.49551657,10.1517349 C2.56764133,10.1517349 2.6405848,10.1317349 2.70580897,10.0899025 L3.84682261,9.35727096 L3.85906433,9.43766082 C3.89294347,9.65933723 4.03641326,9.84397661 4.24280702,9.93161793 C4.44927875,10.0193372 4.68175439,9.99423002 4.86467836,9.86467836 L5.3111501,9.548577 C5.3528655,9.71555556 5.45945419,9.85847953 5.60962963,9.94639376 C5.7762963,10.0439376 5.97575049,10.0614035 6.15695906,9.99430799 L7.23922027,9.59317739 C7.2582846,9.70350877 7.30623782,9.80807018 7.38007797,9.89614035 C7.50237817,10.0419103 7.68159844,10.1254971 7.87189084,10.1254971 L11.8518519,10.1254971 C12.0671345,10.1254971 12.2417154,9.95095517 12.2417154,9.73563353 C12.2417154,9.52031189 12.0671345,9.34576998 11.8518519,9.34576998 L8.01528265,9.34576998 C8.00175439,9.17563353 7.92066277,9.01473684 7.78658869,8.902846 C7.61037037,8.75586745 7.36732943,8.71415205 7.15224172,8.79384016 L6.04358674,9.20475634 C6.00736842,8.9860039 5.86409357,8.8042885 5.65945419,8.71808967 C5.45352827,8.63130604 5.22159844,8.65664717 5.03925926,8.78573099 L4.59617934,9.0994152 L4.58557505,9.02982456 C4.55259259,8.8139961 4.41415205,8.63153996 4.21516569,8.54167641 C4.01617934,8.45181287 3.78775828,8.468577 3.60401559,8.58654971 L2.28448343,9.43380117 C2.10331384,9.55013645 2.05076023,9.79130604 2.16705653,9.97247563 C2.24155945,10.08846 2.36717349,10.1517349 2.49551657,10.1517349 Z" id="XMLID_365_"></path>
                <path d="M2.49551657,13.5488889 C2.56764133,13.5488889 2.6405848,13.5288889 2.70580897,13.4870175 L3.84682261,12.754386 L3.85910331,12.8347758 C3.89294347,13.0564522 4.03641326,13.2410916 4.24280702,13.328694 C4.44927875,13.4164133 4.68175439,13.391306 4.86467836,13.2617544 L5.3111501,12.945692 C5.3528655,13.1126706 5.45945419,13.2556335 5.60966862,13.3435088 C5.77637427,13.4410136 5.97586745,13.4584016 6.15695906,13.391384 L7.23922027,12.9902534 C7.2582846,13.1005848 7.30623782,13.2051462 7.38007797,13.2932164 C7.50237817,13.4389864 7.68159844,13.5226121 7.87189084,13.5226121 L10.7602339,13.5226121 C10.9755166,13.5226121 11.1500975,13.3480702 11.1500975,13.1327485 C11.1500975,12.9174269 10.9755166,12.742885 10.7602339,12.742885 L8.01524366,12.742885 C8.00175439,12.5727485 7.92066277,12.4118129 7.78654971,12.299961 C7.61037037,12.1529825 7.36729045,12.1112281 7.15224172,12.1909552 L6.04354776,12.6018324 C6.00732943,12.3830799 5.86405458,12.2013645 5.6594152,12.1151657 C5.45348928,12.0283821 5.22155945,12.0536842 5.03922027,12.182807 L4.59614035,12.4964912 L4.58553606,12.4269006 C4.55255361,12.2110721 4.41411306,12.028616 4.21512671,11.9387524 C4.01614035,11.8488499 3.78764133,11.865653 3.60397661,11.9836257 L2.28444444,12.8308772 C2.10327485,12.9472125 2.05072125,13.1883821 2.16701754,13.3695517 C2.24152047,13.485614 2.36717349,13.5488889 2.49551657,13.5488889 Z" id="XMLID_366_"></path>
                <path d="M8.12214425,16.14 L8.01528265,16.14 C8.00175439,15.9698635 7.92066277,15.8089279 7.78658869,15.697076 C7.61033138,15.5500975 7.36729045,15.5083431 7.15224172,15.5880702 L6.04354776,15.9989474 C6.00732943,15.7801949 5.86405458,15.5984795 5.6594152,15.5122807 C5.45348928,15.4255361 5.22155945,15.4507992 5.03922027,15.579922 L4.59614035,15.8936062 L4.58553606,15.8240156 C4.55255361,15.6082261 4.41411306,15.425731 4.21516569,15.3358674 C4.01617934,15.2459649 3.78775828,15.262729 3.60397661,15.3807018 L2.28444444,16.2279532 C2.10327485,16.3442885 2.05072125,16.5854581 2.16701754,16.7666277 C2.24152047,16.8826511 2.3671345,16.9459259 2.49547758,16.9459259 C2.56760234,16.9459259 2.64054581,16.9259259 2.70576998,16.8840546 L3.84678363,16.151423 L3.85902534,16.2318129 C3.89290448,16.4534893 4.03637427,16.6381287 4.24276803,16.72577 C4.44923977,16.8134893 4.6817154,16.7883821 4.86463938,16.6588304 L5.31111111,16.342729 C5.35282651,16.5097076 5.4594152,16.6526706 5.60959064,16.7405458 C5.77625731,16.8380897 5.97578947,16.8555556 6.15688109,16.78846 L7.23918129,16.3873294 C7.25824561,16.4976608 7.30619883,16.6022222 7.38003899,16.6902924 C7.50233918,16.8360624 7.68155945,16.9196491 7.87185185,16.9196491 L8.12210526,16.9196491 C8.33738791,16.9196491 8.51196881,16.7451072 8.51196881,16.5297856 C8.51196881,16.3144639 8.3374269,16.14 8.12214425,16.14 Z" id="XMLID_367_"></path>
                <path d="M19.5305653,8.23048733 C18.9529435,7.65290448 18.0130604,7.65290448 17.4354386,8.23048733 L14.1910331,11.4748928 L14.1910331,1.95068226 C14.1910331,1.30576998 13.6663548,0.781091618 13.0214425,0.781091618 L12.2417154,0.781091618 L12.2417154,0.39122807 C12.2417154,0.175906433 12.0671345,0.00136452242 11.8518519,0.00136452242 C11.6365692,0.00136452242 11.4619883,0.175906433 11.4619883,0.39122807 L11.4619883,0.781091618 L10.3703704,0.781091618 L10.3703704,0.39122807 C10.3703704,0.175906433 10.1957895,0.00136452242 9.98050682,0.00136452242 C9.76522417,0.00136452242 9.59064327,0.175906433 9.59064327,0.39122807 L9.59064327,0.781091618 L8.49902534,0.781091618 L8.49902534,0.39122807 C8.49902534,0.175906433 8.32444444,0.00136452242 8.10916179,0.00136452242 C7.89387914,0.00136452242 7.71929825,0.175906433 7.71929825,0.39122807 L7.71929825,0.781091618 L6.62768031,0.781091618 L6.62768031,0.39122807 C6.62768031,0.175906433 6.45309942,0.00136452242 6.23781676,0.00136452242 C6.02253411,0.00136452242 5.84795322,0.175906433 5.84795322,0.39122807 L5.84795322,0.781091618 L4.75633528,0.781091618 L4.75633528,0.39122807 C4.75633528,0.175906433 4.58175439,0.00136452242 4.36647173,0.00136452242 C4.15118908,0.00136452242 3.97660819,0.175906433 3.97660819,0.39122807 L3.97660819,0.781091618 L2.88499025,0.781091618 L2.88499025,0.39122807 C2.88499025,0.175906433 2.71040936,0.00136452242 2.49512671,0.00136452242 C2.27984405,0.00136452242 2.10526316,0.175906433 2.10526316,0.39122807 L2.10526316,0.781091618 L1.16959064,0.781091618 C0.524678363,0.781091618 0,1.30576998 0,1.95068226 L0,19.5725146 C0,19.7878363 0.174580897,19.9623782 0.389863548,19.9623782 L13.8011696,19.9623782 C14.0164522,19.9623782 14.1910331,19.7878363 14.1910331,19.5725146 L14.1910331,15.6651852 L15.7868616,14.0693567 C15.9391033,13.917115 15.9391033,13.6702534 15.7868616,13.5179727 C15.6345809,13.365731 15.3877973,13.365731 15.2354776,13.5179727 L12.8374659,15.9159844 L11.8450682,14.9235478 L17.1804288,9.58818713 L18.1728655,10.5805848 L17.4408967,11.3125536 C17.288655,11.4647953 17.288655,11.7116569 17.4408967,11.8638986 C17.5931774,12.0161404 17.839961,12.0161404 17.9922807,11.8638986 L19.5305653,10.325575 C20.1081481,9.7479922 20.1081481,8.80814815 19.5305653,8.23048733 Z M13.411306,19.1826511 L0.779727096,19.1826511 L0.779727096,1.95068226 C0.779727096,1.7357115 0.954619883,1.56081871 1.16959064,1.56081871 L2.10526316,1.56081871 L2.10526316,2.49649123 C2.10526316,2.71181287 2.27984405,2.88635478 2.49512671,2.88635478 C2.71040936,2.88635478 2.88499025,2.71181287 2.88499025,2.49649123 L2.88499025,1.56081871 L3.97660819,1.56081871 L3.97660819,2.49649123 C3.97660819,2.71181287 4.15118908,2.88635478 4.36647173,2.88635478 C4.58175439,2.88635478 4.75633528,2.71181287 4.75633528,2.49649123 L4.75633528,1.56081871 L5.84795322,1.56081871 L5.84795322,2.49649123 C5.84795322,2.71181287 6.02253411,2.88635478 6.23781676,2.88635478 C6.45309942,2.88635478 6.62768031,2.71181287 6.62768031,2.49649123 L6.62768031,1.56081871 L7.71929825,1.56081871 L7.71929825,2.49649123 C7.71929825,2.71181287 7.89387914,2.88635478 8.10916179,2.88635478 C8.32444444,2.88635478 8.49902534,2.71181287 8.49902534,2.49649123 L8.49902534,1.56081871 L9.59064327,1.56081871 L9.59064327,2.49649123 C9.59064327,2.71181287 9.76522417,2.88635478 9.98050682,2.88635478 C10.1957895,2.88635478 10.3703704,2.71181287 10.3703704,2.49649123 L10.3703704,1.56081871 L11.4619883,1.56081871 L11.4619883,2.49649123 C11.4619883,2.71181287 11.6365692,2.88635478 11.8518519,2.88635478 C12.0671345,2.88635478 12.2417154,2.71181287 12.2417154,2.49649123 L12.2417154,1.56081871 L13.0214425,1.56081871 C13.2364133,1.56081871 13.411306,1.7357115 13.411306,1.95068226 L13.411306,12.2546199 L11.0180117,14.6479142 C10.9884211,14.6775439 10.9637427,14.7116959 10.9450292,14.7491618 L9.39933723,17.8386745 C9.32424951,17.9887719 9.35364522,18.1700975 9.47231969,18.2887719 C9.54721248,18.3636257 9.64693957,18.402963 9.74810916,18.402963 C9.80732943,18.402963 9.86701754,18.3894737 9.92245614,18.3617544 L13.0119298,16.8160624 C13.0493567,16.7973099 13.0835478,16.7726706 13.1131774,16.7430799 L13.411306,16.4449513 L13.411306,19.1826511 Z M11.4004288,15.5816374 L12.1794152,16.3606628 L10.6204288,17.1406628 L11.4004288,15.5816374 Z M18.9791813,9.77430799 L18.7242105,10.0292788 L17.7317739,9.03688109 L17.9867836,8.78187135 C18.2603899,8.50822612 18.705614,8.50822612 18.9791813,8.78187135 C19.2528265,9.05547758 19.2528265,9.50066277 18.9791813,9.77430799 Z" id="XMLID_370_" fill-rule="nonzero"></path>
                <path d="M16.6139961,12.3011696 C16.5110721,12.3011696 16.4108772,12.342885 16.3379727,12.4153996 C16.2654971,12.4879142 16.2241326,12.5881092 16.2241326,12.6910331 C16.2241326,12.7935673 16.2654971,12.894152 16.3379727,12.9666667 C16.4108772,13.0391813 16.5110721,13.0808967 16.6139961,13.0808967 C16.7165692,13.0808967 16.8167251,13.0391813 16.8896296,12.9666667 C16.9621442,12.8937622 17.0038596,12.7935673 17.0038596,12.6910331 C17.0038596,12.588499 16.9621832,12.4879142 16.8896296,12.4153996 C16.8167641,12.342885 16.7165692,12.3011696 16.6139961,12.3011696 Z" id="XMLID_426_"></path>
            </g>
        </g>
    </g>
</svg>