<?xml version="1.0" encoding="UTF-8"?>
<svg width="19px" height="23px" viewBox="0 0 19 23" version="1.1" xmlns="http://www.w3.org/2000/svg" xmlns:xlink="http://www.w3.org/1999/xlink">
    <!-- Generator: sketchtool 52.1 (67048) - http://www.bohemiancoding.com/sketch -->
    <title>DF327459-371C-4143-8BD2-EBAD453F897E</title>
    <desc>Created with sketchtool.</desc>
    <g id="*-8-Iconos---Módulos" stroke="none" stroke-width="1" fill="none" fill-rule="evenodd">
        <g id="MODULOS---ICONOS" transform="translate(-199.000000, -326.000000)" fill="#B9B9B9">
            <g id="shield-copy" transform="translate(199.000000, 326.000000)">
                <path d="M18.9777003,6.09734269 L18.9770194,6.07997956 C18.9673165,5.8656644 18.9608479,5.63892276 18.9569327,5.38664708 C18.9387185,4.15642022 17.9607673,3.13880628 16.7303702,3.07003477 C14.165057,2.92687426 12.1805566,2.09038131 10.4849305,0.437652319 L10.4704612,0.42386394 C9.91739536,-0.0832407431 9.08311533,-0.0832407431 8.52987922,0.42386394 L8.51540998,0.437652319 C6.81978391,2.09038131 4.83528346,2.92687426 2.26997027,3.07020499 C1.03974341,3.13880628 0.0616219679,4.15642022 0.0434077661,5.38681729 C0.0396627615,5.63739069 0.0330239174,5.86413237 0.0233210183,6.07997956 L0.0222996812,6.12032323 C-0.0275766697,8.73619372 -0.089539156,11.9917754 0.999569954,14.946737 C1.59842677,16.5717191 2.50539351,17.9842585 3.69510645,19.1453734 C5.05010931,20.4676928 6.82489069,21.5174796 8.97008494,22.2654548 C9.03987778,22.2897972 9.11239429,22.3095434 9.18627257,22.3243531 C9.29045118,22.3451208 9.3953107,22.3555046 9.50017022,22.3555046 C9.60502973,22.3555046 9.71005947,22.3451208 9.81406786,22.3243531 C9.88794618,22.3095434 9.96097334,22.2896269 10.0311067,22.2651143 C12.1737475,21.5157773 13.9466564,20.4654798 15.3004677,19.1433307 C16.4896699,17.9818754 17.3966367,16.5689955 17.9960042,14.943673 C19.0891987,11.9798595 19.0274065,8.71814974 18.9777003,6.09734269 Z M16.7676498,14.4907003 C15.6189614,17.6051642 13.2740915,19.74406 9.59907184,21.02927 C9.58596437,21.0336959 9.57200582,21.0376111 9.55753653,21.040505 C9.51957606,21.0479949 9.48093463,21.0479949 9.44246347,21.0403347 C9.4281644,21.0374409 9.41420585,21.0336959 9.40126864,21.02927 C5.72233372,19.7464432 3.37593177,17.6087389 2.22809453,14.4941048 C1.22426892,11.7703107 1.28112459,8.78181442 1.33134137,6.14534653 L1.33168185,6.13070708 C1.34189544,5.90413561 1.3487045,5.66683986 1.35244946,5.40605292 C1.36062033,4.85979608 1.79571924,4.40784478 2.34299742,4.37737422 C3.79468893,4.29634641 5.0700258,4.01581316 6.24186497,3.51977314 C7.4121721,3.02441407 8.45157503,2.32614499 9.41914241,1.38513294 C9.46833789,1.34359768 9.5321728,1.34342747 9.58119803,1.38513294 C10.5489356,2.32614499 11.5883386,3.02441407 12.7584755,3.51977314 C13.9303146,4.01581316 15.2056515,4.29634641 16.6575133,4.37737422 C17.2047914,4.40784478 17.6398903,4.85979608 17.647891,5.40622313 C17.6518062,5.66837193 17.6586153,5.90566764 17.6688288,6.13070708 C17.7188754,8.77023902 17.7743693,11.7611185 16.7676498,14.4907003 Z" id="Shape" fill-rule="nonzero"></path>
                <path d="M9.49982978,5.6394334 C6.43371023,5.6394334 3.93938147,8.13393242 3.93938147,11.1998817 C3.93938147,14.2660013 6.43371023,16.7605003 9.49982978,16.7605003 C12.5657791,16.7605003 15.0602781,14.2660013 15.0602781,11.1998817 C15.0602781,8.13393242 12.5657791,5.6394334 9.49982978,5.6394334 Z M9.49982978,15.4511181 C7.15564077,15.4511181 5.24859338,13.5440707 5.24859338,11.1998817 C5.24859338,8.85569274 7.15564077,6.94864536 9.49982978,6.94864536 C11.8438485,6.94864536 13.7508959,8.85569274 13.7508959,11.1998817 C13.7508959,13.5440707 11.8438485,15.4511181 9.49982978,15.4511181 Z" id="Shape" fill-rule="nonzero"></path>
                <path d="M11.0979161,9.47361488 L8.51523976,12.0562912 L7.81424705,11.3552985 C7.55856688,11.0996183 7.14406537,11.0996183 6.88838516,11.3552985 C6.6328752,11.6109787 6.6328752,12.0254802 6.88838516,12.2809902 L8.05239392,13.4449989 C8.18023403,13.572839 8.34773689,13.6366739 8.51523976,13.6366739 C8.68274263,13.6366739 8.8502455,13.572839 8.9780856,13.4449989 L12.0237779,10.3993066 C12.2792879,10.1436264 12.2792879,9.72912483 12.0237779,9.47361488 C11.7680978,9.2177645 11.3535962,9.2177645 11.0979161,9.47361488 Z" id="Path"></path>
            </g>
        </g>
    </g>
</svg>