<?xml version="1.0" encoding="UTF-8"?>
<svg width="20px" height="20px" viewBox="0 0 20 20" version="1.1" xmlns="http://www.w3.org/2000/svg" xmlns:xlink="http://www.w3.org/1999/xlink">
    <!-- Generator: sketchtool 52.1 (67048) - http://www.bohemiancoding.com/sketch -->
    <title>C2E13269-7739-4C2D-8472-9F291C1BE66D</title>
    <desc>Created with sketchtool.</desc>
    <g id="*-3-Web---LogIn" stroke="none" stroke-width="1" fill="none" fill-rule="evenodd">
        <g id="P13" transform="translate(-1016.000000, -301.000000)" fill="#B9B9B9">
            <g id="calendar" transform="translate(1016.000000, 301.000000)">
                <path d="M18.046875,1.71875 L16.1848828,1.71875 L16.1848828,1.171875 C16.1848828,0.525703125 15.6591797,0 15.0130078,0 C14.3668359,0 13.8411328,0.525703125 13.8411328,1.171875 L13.8411328,1.71875 L7.27863281,1.71875 L7.27863281,1.171875 C7.27863281,0.525703125 6.75292969,0 6.10675781,0 C5.46058594,0 4.93488281,0.525703125 4.93488281,1.171875 L4.93488281,1.73320312 C4.90167969,1.72402344 4.866875,1.71875 4.83074219,1.71875 L3.27433594,1.71875 C2.19738281,1.71875 1.32121094,2.59492188 1.32121094,3.671875 L1.32121094,10.3255078 C1.32121094,10.54125 1.49613281,10.7161328 1.71183594,10.7161328 C1.92753906,10.7161328 2.10246094,10.54125 2.10246094,10.3255078 L2.10246094,5.7421875 L16.1848828,5.7421875 C16.4005859,5.7421875 16.5755078,5.56730469 16.5755078,5.3515625 C16.5755078,5.13582031 16.4005859,4.9609375 16.1848828,4.9609375 L2.10246094,4.9609375 L2.10246094,3.671875 C2.10246094,3.02570312 2.62816406,2.5 3.27433594,2.5 L4.83074219,2.5 C4.866875,2.5 4.90167969,2.4946875 4.93488281,2.48554688 L4.93488281,2.98828125 C4.93488281,3.63445313 5.46058594,4.16015625 6.10675781,4.16015625 C6.75292969,4.16015625 7.27863281,3.63445313 7.27863281,2.98828125 L7.27863281,2.5 L13.8411328,2.5 L13.8411328,2.98828125 C13.8411328,3.63445313 14.3668359,4.16015625 15.0130078,4.16015625 C15.6591797,4.16015625 16.1848828,3.63445313 16.1848828,2.98828125 L16.1848828,2.5 L18.046875,2.5 C18.6930469,2.5 19.21875,3.02570312 19.21875,3.671875 L19.21875,18.5153906 C19.21875,18.9032031 18.9032422,19.21875 18.5153906,19.21875 C18.1275391,19.21875 17.8120313,18.9032031 17.8120313,18.5153906 L17.8120313,17.5048828 C17.8120313,17.2891406 17.6371094,17.1142578 17.4214063,17.1142578 L12.8776172,17.1142578 C12.6619141,17.1142578 12.4869922,17.2891406 12.4869922,17.5048828 C12.4869922,17.720625 12.6619141,17.8955078 12.8776172,17.8955078 L17.0307812,17.8955078 L17.0307812,18.5153906 C17.0307812,18.7697266 17.0951562,19.0092578 17.2083203,19.21875 L1.484375,19.21875 C1.09667969,19.21875 0.78125,18.9033203 0.78125,18.515625 L0.78125,17.8955078 L9.52441406,17.8955078 C9.74011719,17.8955078 9.91503906,17.720625 9.91503906,17.5048828 C9.91503906,17.2891406 9.74011719,17.1142578 9.52441406,17.1142578 L5.62144531,17.1142578 C6.30402344,16.5264063 6.73746094,15.656875 6.73746094,14.6875 C6.73746094,12.9212891 5.30054687,11.484375 3.53433594,11.484375 C1.768125,11.484375 0.331210937,12.9212891 0.331210937,14.6875 C0.331210937,15.656875 0.764648437,16.5264063 1.44722656,17.1142578 L0.390625,17.1142578 C0.174921875,17.1142578 0,17.2891406 0,17.5048828 L0,18.515625 C0,19.3341016 0.665898437,20 1.484375,20 L18.5153906,20 C19.3339844,20 20,19.3340234 20,18.5153906 L20,3.671875 C20,2.59492188 19.1238281,1.71875 18.046875,1.71875 Z M6.49738281,2.98828125 C6.49738281,3.20367187 6.32214844,3.37890625 6.10675781,3.37890625 C5.89136719,3.37890625 5.71613281,3.20367187 5.71613281,2.98828125 L5.71613281,1.171875 C5.71613281,0.956484375 5.89136719,0.78125 6.10675781,0.78125 C6.32214844,0.78125 6.49738281,0.956484375 6.49738281,1.171875 L6.49738281,2.98828125 Z M15.4036328,2.98828125 C15.4036328,3.20367187 15.2283984,3.37890625 15.0130078,3.37890625 C14.7976172,3.37890625 14.6223828,3.20367187 14.6223828,2.98828125 L14.6223828,1.171875 C14.6223828,0.956484375 14.7976172,0.78125 15.0130078,0.78125 C15.2283984,0.78125 15.4036328,0.956484375 15.4036328,1.171875 L15.4036328,2.98828125 Z M1.11246094,14.6875 C1.11246094,13.3520703 2.19890625,12.265625 3.53433594,12.265625 C4.86976563,12.265625 5.95621094,13.3520703 5.95621094,14.6875 C5.95621094,16.0229297 4.86976562,17.109375 3.53433594,17.109375 C2.19890625,17.109375 1.11246094,16.0229297 1.11246094,14.6875 Z" id="Shape" fill-rule="nonzero"></path>
                <path d="M18.2933203,5.07539063 C18.2207031,5.00273437 18.1199219,4.9609375 18.0171875,4.9609375 C17.9144141,4.9609375 17.8136719,5.00273437 17.7410156,5.07539063 C17.6683594,5.14804688 17.6265625,5.24882813 17.6265625,5.3515625 C17.6265625,5.45429687 17.6683203,5.55507813 17.7410156,5.62773437 C17.8137109,5.70039063 17.9144141,5.7421875 18.0171875,5.7421875 C18.1199219,5.7421875 18.2207031,5.70039063 18.2933203,5.62773437 C18.3659766,5.55507812 18.4078125,5.45429687 18.4078125,5.3515625 C18.4078125,5.24882813 18.3660156,5.14804687 18.2933203,5.07539063 Z" id="Path"></path>
                <path d="M11.6659766,17.2285156 C11.5933594,17.1558594 11.4925781,17.1144531 11.3898438,17.1144531 C11.2871094,17.1144531 11.1863281,17.1558594 11.1136719,17.2285156 C11.0410156,17.3015625 10.9992188,17.4019531 10.9992188,17.5046875 C10.9992188,17.6078125 11.0409766,17.7082031 11.1136719,17.78125 C11.1863281,17.8539063 11.2871094,17.8953125 11.3898438,17.8953125 C11.4925781,17.8953125 11.5933594,17.8539063 11.6659766,17.78125 C11.7386328,17.7082031 11.7804688,17.6074219 11.7804688,17.5046875 C11.7804688,17.4019531 11.7386719,17.3015625 11.6659766,17.2285156 Z" id="Path"></path>
                <path d="M8.83769531,11.875 C8.01921875,11.875 7.35332031,12.5408984 7.35332031,13.359375 C7.35332031,14.1778516 8.01921875,14.84375 8.83769531,14.84375 C9.65617187,14.84375 10.3220703,14.1778516 10.3220703,13.359375 C10.3220703,12.5408984 9.65617187,11.875 8.83769531,11.875 Z M8.83769531,14.0625 C8.45,14.0625 8.13457031,13.7470703 8.13457031,13.359375 C8.13457031,12.9716797 8.45,12.65625 8.83769531,12.65625 C9.22539062,12.65625 9.54082031,12.9716797 9.54082031,13.359375 C9.54082031,13.7470703 9.22539062,14.0625 8.83769531,14.0625 Z" id="Shape" fill-rule="nonzero"></path>
                <path d="M12.4835156,11.875 C11.6650391,11.875 10.9991406,12.5408984 10.9991406,13.359375 C10.9991406,14.1778516 11.6650391,14.84375 12.4835156,14.84375 C13.3019922,14.84375 13.9678906,14.1778516 13.9678906,13.359375 C13.9678906,12.5408984 13.3019922,11.875 12.4835156,11.875 Z M12.4835156,14.0625 C12.0958203,14.0625 11.7803906,13.7470703 11.7803906,13.359375 C11.7803906,12.9716797 12.0958203,12.65625 12.4835156,12.65625 C12.8712109,12.65625 13.1866406,12.9716797 13.1866406,13.359375 C13.1866406,13.7470703 12.8712109,14.0625 12.4835156,14.0625 Z" id="Shape" fill-rule="nonzero"></path>
                <path d="M16.129375,11.875 C15.3108984,11.875 14.645,12.5408984 14.645,13.359375 C14.645,14.1778516 15.3108984,14.84375 16.129375,14.84375 C16.9478516,14.84375 17.61375,14.1778516 17.61375,13.359375 C17.61375,12.5408984 16.9478516,11.875 16.129375,11.875 Z M16.129375,14.0625 C15.7416797,14.0625 15.42625,13.7470703 15.42625,13.359375 C15.42625,12.9716797 15.7416797,12.65625 16.129375,12.65625 C16.5170703,12.65625 16.8325,12.9716797 16.8325,13.359375 C16.8325,13.7470703 16.5170703,14.0625 16.129375,14.0625 Z" id="Shape" fill-rule="nonzero"></path>
                <path d="M5.191875,7.8125 C4.37339844,7.8125 3.7075,8.47839844 3.7075,9.296875 C3.7075,10.1153516 4.37339844,10.78125 5.191875,10.78125 C6.01035156,10.78125 6.67625,10.1153516 6.67625,9.296875 C6.67625,8.47839844 6.01035156,7.8125 5.191875,7.8125 Z M5.191875,10 C4.80417969,10 4.48875,9.68457031 4.48875,9.296875 C4.48875,8.90917969 4.80417969,8.59375 5.191875,8.59375 C5.57957031,8.59375 5.895,8.90917969 5.895,9.296875 C5.895,9.68457031 5.57957031,10 5.191875,10 Z" id="Shape" fill-rule="nonzero"></path>
                <path d="M12.4835156,7.8125 C11.6650391,7.8125 10.9991406,8.47839844 10.9991406,9.296875 C10.9991406,10.1153516 11.6650391,10.78125 12.4835156,10.78125 C13.3019922,10.78125 13.9678906,10.1153516 13.9678906,9.296875 C13.9678906,8.47839844 13.3019922,7.8125 12.4835156,7.8125 Z M12.4835156,10 C12.0958203,10 11.7803906,9.68457031 11.7803906,9.296875 C11.7803906,8.90917969 12.0958203,8.59375 12.4835156,8.59375 C12.8712109,8.59375 13.1866406,8.90917969 13.1866406,9.296875 C13.1866406,9.68457031 12.8712109,10 12.4835156,10 Z" id="Shape" fill-rule="nonzero"></path>
                <path d="M16.129375,7.8125 C15.3108984,7.8125 14.645,8.47839844 14.645,9.296875 C14.645,10.1153516 15.3108984,10.78125 16.129375,10.78125 C16.9478516,10.78125 17.61375,10.1153516 17.61375,9.296875 C17.61375,8.47839844 16.9478516,7.8125 16.129375,7.8125 Z M16.129375,10 C15.7416797,10 15.42625,9.68457031 15.42625,9.296875 C15.42625,8.90917969 15.7416797,8.59375 16.129375,8.59375 C16.5170703,8.59375 16.8325,8.90917969 16.8325,9.296875 C16.8325,9.68457031 16.5170703,10 16.129375,10 Z" id="Shape" fill-rule="nonzero"></path>
                <path d="M8.83769531,7.8125 C8.01921875,7.8125 7.35332031,8.47839844 7.35332031,9.296875 C7.35332031,10.1153516 8.01921875,10.78125 8.83769531,10.78125 C9.65617187,10.78125 10.3220703,10.1153516 10.3220703,9.296875 C10.3220703,8.47839844 9.65617187,7.8125 8.83769531,7.8125 Z M8.83769531,10 C8.45,10 8.13457031,9.68457031 8.13457031,9.296875 C8.13457031,8.90917969 8.45,8.59375 8.83769531,8.59375 C9.22539062,8.59375 9.54082031,8.90917969 9.54082031,9.296875 C9.54082031,9.68457031 9.22539062,10 8.83769531,10 Z" id="Shape" fill-rule="nonzero"></path>
                <path d="M4.9259375,13.7355078 C4.77335938,13.5829688 4.52609375,13.5829688 4.37347656,13.7355078 L3.10136719,15.0076563 L2.66664063,14.5729297 C2.5140625,14.4203906 2.26679688,14.4203906 2.11417969,14.5729297 C1.96164063,14.7254687 1.96164063,14.9728125 2.11417969,15.1253906 L2.82515625,15.8362891 C2.8984375,15.9095313 2.99777344,15.9507031 3.10136719,15.9507031 C3.20496094,15.9507031 3.30429688,15.9095313 3.37757813,15.8362891 L4.9259375,14.2879297 C5.07847656,14.1353906 5.07847656,13.8880469 4.9259375,13.7355078 Z" id="Path"></path>
            </g>
        </g>
    </g>
</svg>