<?xml version="1.0" encoding="UTF-8"?>
<svg width="23px" height="23px" viewBox="0 0 23 23" version="1.1" xmlns="http://www.w3.org/2000/svg" xmlns:xlink="http://www.w3.org/1999/xlink">
    <!-- Generator: sketchtool 52.1 (67048) - http://www.bohemiancoding.com/sketch -->
    <title>F1E075B8-75A1-4EE9-B215-E4E828284A76</title>
    <desc>Created with sketchtool.</desc>
    <g id="*-8-Iconos---Módulos" stroke="none" stroke-width="1" fill="none" fill-rule="evenodd">
        <g id="MODULOS---ICONOS" transform="translate(-196.000000, -523.000000)" fill="#B9B9B9">
            <g id="stamp-copy" transform="translate(196.000000, 523.000000)">
                <path d="M5.5465791,15.7164796 L5.5465791,16.0997298 L1.15261162,16.0997298 C0.79777446,16.0997298 0.462455072,16.2627516 0.244066656,16.5419416 C0.0256782848,16.8211317 -0.0516895841,17.1852545 0.0344700656,17.5288461 L0.80269787,20.5955498 C0.924728077,21.0809299 1.34814132,21.4310143 1.84857079,21.4604951 L2.30152449,22.364397 C2.49582334,22.7553684 2.89620205,23.001919 3.33368218,22.9999887 L16.2112123,22.9999887 C16.6481649,23.0013926 17.0476645,22.754842 17.2417875,22.364397 L17.6947412,21.4604951 C18.1951706,21.4310143 18.6187597,21.0809299 18.7406141,20.5955498 L19.5090177,17.5288461 C19.5950015,17.1852545 19.5178095,16.8213072 19.2994211,16.5421172 C19.0810327,16.2629271 18.746065,16.0997298 18.3912278,16.0997298 L13.9972604,16.0997298 L13.9972604,15.7164796 C13.9972604,15.0812389 13.4813574,14.566378 12.8448308,14.566378 L12.5759775,14.566378 L13.3698773,11.5486334 C13.4250898,11.5593378 13.4780165,11.5788161 13.5270748,11.6061912 C13.6636994,11.6837537 13.7591784,11.8176456 13.7878396,11.9718933 C13.8822636,12.4635907 14.2499368,12.8582471 14.734541,12.9879275 C15.2191452,13.1174324 15.7353999,12.9591487 16.0633342,12.5802854 C16.1681325,12.4653455 16.3165381,12.3998912 16.472153,12.3998912 C16.6277679,12.3998912 16.7761736,12.4653455 16.880796,12.5802854 C17.1271423,12.8670212 17.4863754,13.0323242 17.8649505,13.0330261 C17.9808264,13.0328506 18.0963507,13.0175838 18.2083583,12.9877521 C18.6940175,12.8601775 19.0625699,12.4646436 19.154708,11.9718933 C19.1844244,11.8179965 19.2795517,11.6846311 19.4154729,11.6063666 C19.5513942,11.5279267 19.7147459,11.5126599 19.8631515,11.5640757 C20.3368539,11.7277994 20.8627796,11.607244 21.2174409,11.2534746 C21.5719264,10.8995297 21.6929016,10.3746664 21.5286707,9.90192092 C21.4771508,9.75381506 21.4924485,9.59079334 21.5710473,9.45514659 C21.6494701,9.31949989 21.7831055,9.22438928 21.9373138,9.19490849 C22.4300064,9.10085074 22.8254617,8.73374471 22.9554046,8.25011947 C23.0851716,7.76649414 22.9265675,7.25145781 22.5469374,6.92401048 C22.4282481,6.82152965 22.3601995,6.67272187 22.3601995,6.51619293 C22.3601995,6.35966399 22.4282481,6.21068074 22.5469374,6.10837538 C22.9262158,5.78075262 23.0846441,5.26571625 22.9547013,4.78209096 C22.8249343,4.29864115 22.4296548,3.93171063 21.9369621,3.83730194 C21.7827539,3.80782116 21.6491185,3.71288602 21.5705197,3.57723927 C21.4920968,3.4414171 21.4766233,3.27839533 21.5283191,3.13046499 C21.6923741,2.65771949 21.5715748,2.13285619 21.2169134,1.77891128 C20.8624279,1.42514184 20.3365023,1.304411 19.862624,1.46831016 C19.7143942,1.51972604 19.5510425,1.50428373 19.4151213,1.42601928 C19.2790241,1.34775479 19.1838968,1.21421385 19.1543564,1.06049261 C19.0597565,0.568970651 18.6920834,0.174665163 18.2078308,0.0449847867 C17.7234024,-0.0845200752 17.2074995,0.0734126656 16.8792135,0.451749473 C16.774591,0.566513941 16.6261854,0.632143765 16.4705705,0.632143765 C16.3149556,0.632143765 16.1665499,0.566513941 16.0619275,0.451749473 C15.7336415,0.0730617264 15.2175627,-0.0848710594 14.7329585,0.0446338474 C14.2485301,0.174314179 13.8808569,0.568795181 13.7862571,1.06049261 C13.7575958,1.21474026 13.6621169,1.34845671 13.5254922,1.42619475 C13.477489,1.45286784 13.4256174,1.47199525 13.3718115,1.48322602 C12.329807,0.449994642 10.8926988,-0.0860994367 9.42710522,0.0112924591 C7.96133578,0.108859824 6.60845306,0.830612644 5.71291999,1.99264701 C4.73878819,3.24540497 4.40751304,4.88071119 4.81756275,6.41265924 L6.96856533,14.566378 L6.69971199,14.566378 C6.39393306,14.5662025 6.10063851,14.6872843 5.88436017,14.9029503 C5.66808179,15.1186163 5.5465791,15.4113184 5.5465791,15.7164796 Z M16.5546201,22.0213319 C16.4897366,22.1511878 16.3568045,22.2331373 16.2112123,22.2333128 L3.33368218,22.2333128 C3.18738657,22.2340147 3.05339951,22.1518897 2.98798849,22.0213319 L2.71104668,21.4666369 L16.8324411,21.4666369 L16.5546201,22.0213319 Z M18.6934901,17.0139852 C18.7666379,17.1068146 18.7924857,17.2282473 18.763297,17.3424854 L18.3066507,19.1664336 L5.16237726,19.1664336 C4.95031899,19.1664336 4.77835129,19.3380539 4.77835129,19.5498593 C4.77835129,19.7614892 4.95031899,19.933285 5.16237726,19.933285 L18.1146377,19.933285 L17.9950692,20.4093646 C17.9525169,20.579932 17.799012,20.69961 17.6228242,20.6999609 L1.92083938,20.6999609 C1.74447584,20.6997855 1.59097096,20.5801075 1.54824279,20.4093646 L0.780014984,17.3424854 C0.751353739,17.2280719 0.777201607,17.1068146 0.849997761,17.0138097 C0.922793914,16.9208049 1.03444978,16.8664058 1.15261162,16.8664058 L18.3912278,16.8664058 C18.5093897,16.8660548 18.6210456,16.9206294 18.6934901,17.0139852 Z M13.2290326,15.7164796 L13.2290326,16.0997298 L6.31480686,16.0997298 L6.31480686,15.7164796 C6.31480686,15.5046742 6.48677451,15.3330539 6.69900865,15.3330539 L12.8448308,15.3330539 C13.057065,15.3330539 13.2290326,15.5046742 13.2290326,15.7164796 Z M13.909694,2.0900389 C14.2388591,1.90051956 14.4692044,1.57745924 14.5407697,1.20491333 C14.5798053,1.00188198 14.7315518,0.838860256 14.9316532,0.785163087 C15.1317547,0.731641432 15.3450438,0.796744847 15.4806135,0.953098316 C15.7290698,1.24036049 16.0904129,1.40531251 16.4705705,1.40496157 C16.8505522,1.40548798 17.2120712,1.24053596 17.4603517,0.953449255 C17.5959213,0.796920316 17.8092104,0.731465962 18.0094877,0.784987617 C18.2095892,0.838509272 18.3615116,1.00170651 18.4003713,1.20491333 C18.4721124,1.57745924 18.7022818,1.90034405 19.031447,2.0900389 C19.3606121,2.27955825 19.7560674,2.31711113 20.1151246,2.19287067 C20.3106543,2.12495956 20.5279877,2.17462066 20.6744592,2.32079622 C20.8209306,2.46697177 20.8706922,2.68369066 20.8026436,2.87900091 C20.6781517,3.23733283 20.7156048,3.6319893 20.9056836,3.96048949 C21.0955865,4.28881422 21.4193007,4.51869419 21.7926007,4.59029038 C21.996043,4.62924711 22.1593947,4.78068712 22.2130247,4.98038433 C22.2668306,5.18008158 22.2014195,5.39293987 22.0449254,5.52823564 C21.7574335,5.77636557 21.5923234,6.13697877 21.5923234,6.51619293 C21.5923234,6.89540713 21.7574335,7.25602029 22.0449254,7.50397475 C22.2017712,7.63927052 22.2673581,7.8521288 22.213728,8.05200153 C22.1600981,8.25169879 21.9965705,8.40331426 21.7929524,8.44209552 C21.4196524,8.51369172 21.0961141,8.74339617 20.9060352,9.07189636 C20.7161323,9.40039656 20.6785034,9.79505303 20.8029953,10.153385 C20.8710439,10.3485197 20.8212823,10.5654141 20.6748108,10.7115896 C20.5283394,10.8577652 20.311006,10.9074263 20.1154763,10.8395152 C19.7564191,10.7152748 19.3609637,10.7526522 19.0317986,10.942347 C18.7028094,11.1318663 18.4724641,11.4549266 18.400723,11.8274725 C18.3616874,12.0305039 18.2099409,12.1935256 18.0098394,12.2470473 C17.809738,12.3007444 17.5964488,12.2354655 17.4608792,12.0792876 C17.212247,11.7923763 16.8509039,11.6275998 16.4709222,11.6275998 C16.0909404,11.6275998 15.7295973,11.7923763 15.4811409,12.0792876 C15.3455714,12.2358165 15.1322822,12.3012709 14.9320049,12.2477492 C14.7319035,12.1940521 14.5799811,12.0310303 14.5411214,11.8278235 C14.4088926,11.1294096 13.7379022,10.6677194 13.0368438,10.7928373 C13.0134576,10.7958205 12.9902473,10.8010849 12.9677402,10.8084551 C12.9200887,10.8168782 12.8729646,10.827758 12.826368,10.8410945 C12.6308383,10.9090057 12.413505,10.8593446 12.2670335,10.713169 C12.1205621,10.5669934 12.0708005,10.350099 12.138849,10.1547888 C12.2633409,9.79663239 12.2258879,9.40197588 12.0358091,9.07347568 C11.8457303,8.74497549 11.522192,8.51509557 11.148892,8.44367484 C10.9454497,8.40471811 10.7820979,8.25310263 10.7284679,8.05340538 C10.6746621,7.85370817 10.7400731,7.64102535 10.8965672,7.50555411 C11.1840592,7.25742414 11.3491693,6.89698645 11.3491693,6.51777229 C11.3491693,6.13838262 11.1840592,5.77794493 10.8965672,5.52981495 C10.7397214,5.3946947 10.6741346,5.18183637 10.7277646,4.98196369 C10.7813946,4.78209096 10.9449221,4.63047549 11.1485403,4.59169423 C11.5218403,4.5202735 11.8453786,4.29039354 12.0354574,3.96189334 C12.2253603,3.63356862 12.2629893,3.23891215 12.1384974,2.88058022 C12.0704488,2.68527002 12.1202104,2.46837562 12.2666818,2.32220006 C12.4131533,2.17602451 12.6304866,2.12636341 12.8260163,2.19427452 C12.9461124,2.23358223 13.0714835,2.25516639 13.1979096,2.25832503 C13.2112732,2.25920242 13.2248125,2.25920242 13.2381761,2.25832503 C13.4730931,2.26376495 13.7051967,2.2055053 13.909694,2.0900389 Z M5.56152515,6.21524322 C5.10329634,4.47359557 5.76901171,2.63016901 7.23530863,1.58079339 C8.70178146,0.531417767 10.6648153,0.493513898 12.1706754,1.48550726 C11.5174444,1.74293771 11.18318,2.46802468 11.4124702,3.13046499 C11.4639902,3.27839533 11.4485166,3.4414171 11.3700937,3.57723927 C11.2916709,3.71288602 11.1578596,3.80782116 11.0038272,3.83730194 C10.5109587,3.93153516 10.1155034,4.29846568 9.98573639,4.78209096 C9.85596935,5.26571625 10.0145735,5.78092809 10.3942036,6.10837538 C10.5127171,6.21068074 10.5809415,6.35966399 10.5809415,6.51619293 C10.5809415,6.67272187 10.5127171,6.82152965 10.3942036,6.92401048 C10.0149252,7.25163328 9.85649687,7.76666965 9.98626391,8.25011947 C10.1162067,8.73374471 10.5114862,9.10067523 11.0041789,9.19490849 C11.1583871,9.22438928 11.2920225,9.31949989 11.3704454,9.45514659 C11.4488683,9.59079334 11.4643419,9.75381506 11.4128219,9.90192092 C11.2798898,10.2851711 11.3328165,10.7082555 11.5559525,11.0472845 C11.7790884,11.3863136 12.1472891,11.6026815 12.5525913,11.6330397 L11.7801434,14.566378 L7.76299269,14.566378 L5.56152515,6.21524322 Z" id="Shape" fill-rule="nonzero"></path>
                <path d="M10.0821918,1.95434962 C10.0821918,1.74507444 9.91295037,1.57536376 9.70425396,1.57536376 C8.60954943,1.57154612 7.57610407,2.0811988 6.91090582,2.9530051 C6.82438159,3.05989855 6.80257751,3.20548882 6.85379985,3.33320567 C6.90502219,3.46092252 7.02131075,3.55081021 7.15767293,3.56781597 C7.29386208,3.58499528 7.42866679,3.5265162 7.50965346,3.41545808 C8.03260591,2.73088884 8.84437621,2.33073255 9.70425396,2.333509 C9.91295037,2.333509 10.0821918,2.16379828 10.0821918,1.95434962 Z" id="Path"></path>
                <path d="M6.94207791,5.4069026 C6.93233644,5.26527957 6.85132829,5.14027552 6.72998702,5.0793993 C6.6088166,5.01834246 6.46594154,5.03098735 6.35587982,5.1122761 C6.24581818,5.19356481 6.18548931,5.33103307 6.19796528,5.47247548 C6.21522649,5.68834223 6.24991986,5.90240254 6.30221622,6.1121275 C6.34528384,6.28554346 6.49345695,6.40639269 6.66316384,6.40639269 C6.69512276,6.40639269 6.72708167,6.4020573 6.75801515,6.3933865 C6.85389185,6.36683217 6.93575451,6.30107862 6.98565825,6.21057717 C7.03556199,6.12025636 7.04940514,6.01241332 7.02428236,5.91125401 C6.9829238,5.74596692 6.95540839,5.57724762 6.94207791,5.4069026 Z" id="Path"></path>
                <path d="M3.60572513,19.2191781 L3.22075893,19.2191781 C3.00800517,19.2191781 2.83561644,19.3837058 2.83561644,19.586758 C2.83561644,19.7896419 3.00800517,19.9543379 3.22075893,19.9543379 L3.60572513,19.9543379 C3.81847885,19.9543379 3.99086758,19.7896419 3.99086758,19.586758 C3.99086758,19.3837058 3.81847885,19.2191781 3.60572513,19.2191781 Z" id="Path"></path>
                <path d="M16.4885845,10.7123288 C18.8086144,10.7123288 20.6894977,8.83144546 20.6894977,6.5114155 C20.6894977,4.19138559 18.8086144,2.31050228 16.4885845,2.31050228 C14.1685545,2.31050228 12.2876712,4.19138559 12.2876712,6.5114155 C12.2904683,8.83039657 14.1696034,10.7095317 16.4885845,10.7123288 Z M16.4885845,3.07428879 C18.3867749,3.07428879 19.9257112,4.61305024 19.9257112,6.5114155 C19.9257112,8.40960595 18.3867749,9.94854222 16.4885845,9.94854222 C14.590394,9.94854222 13.0514577,8.40960595 13.0514577,6.5114155 C13.0537304,4.61409918 14.5912681,3.07656143 16.4885845,3.07428879 Z" id="Shape" fill-rule="nonzero"></path>
                <path d="M15.7777471,8.29471973 C15.8501429,8.36349905 15.9469078,8.40182648 16.0474081,8.40182648 C16.0630612,8.40182648 16.0787144,8.40077644 16.0940118,8.39885131 C16.2098095,8.38502542 16.3133336,8.3209714 16.3757683,8.22401526 L18.3187147,5.20787496 C18.4334452,5.0295387 18.3795485,4.79327377 18.1982923,4.68039165 C18.0168581,4.56733454 17.7769026,4.6205379 17.6619942,4.79887412 L15.9739451,7.41931451 L15.1514435,6.6398153 C15.0514769,6.54495933 14.9077525,6.50978208 14.7743451,6.54758447 C14.6409376,6.58538685 14.5381249,6.69021848 14.5046841,6.82287687 C14.4710654,6.95536022 14.5121549,7.09554406 14.6121216,7.19022502 L15.7777471,8.29471973 Z" id="Path"></path>
            </g>
        </g>
    </g>
</svg>