<?xml version="1.0" encoding="UTF-8"?>
<svg width="24px" height="20px" viewBox="0 0 24 20" version="1.1" xmlns="http://www.w3.org/2000/svg" xmlns:xlink="http://www.w3.org/1999/xlink">
    <!-- Generator: sketchtool 52.1 (67048) - http://www.bohemiancoding.com/sketch -->
    <title>EB9B7DFE-B8B4-430B-8B2E-D85723480008@3x</title>
    <desc>Created with sketchtool.</desc>
    <g id="Marca" stroke="none" stroke-width="1" fill="none" fill-rule="evenodd">
        <g id="4" transform="translate(-1542.000000, -427.000000)" fill="#3962E6" fill-rule="nonzero">
            <g id="infrastructure" transform="translate(1542.000000, 427.000000)">
                <path d="M12,6.19354839 C10.0792258,6.19354839 8.51612903,7.75664516 8.51612903,9.67741935 C8.51612903,11.5981935 10.0792258,13.1612903 12,13.1612903 C13.9207742,13.1612903 15.483871,11.5981935 15.483871,9.67741935 C15.483871,7.75664516 13.9207742,6.19354839 12,6.19354839 Z M12,12.3870968 C10.5058065,12.3870968 9.29032258,11.1716129 9.29032258,9.67741935 C9.29032258,8.18322581 10.5058065,6.96774194 12,6.96774194 C13.4941935,6.96774194 14.7096774,8.18322581 14.7096774,9.67741935 C14.7096774,11.1716129 13.4941935,12.3870968 12,12.3870968 Z" id="Shape"></path>
                <path d="M20.516129,3.87096774 L23.6129032,3.87096774 C23.8265806,3.87096774 24,3.69754839 24,3.48387097 L24,0.387096774 C24,0.173419355 23.8265806,0 23.6129032,0 L20.516129,0 C20.3024516,0 20.1290323,0.173419355 20.1290323,0.387096774 L20.1290323,1.5483871 L18.9677419,1.5483871 C18.7540645,1.5483871 18.5806452,1.72180645 18.5806452,1.93548387 L18.5806452,9.29032258 L18.1935484,9.29032258 L18.1935484,8.90322581 C18.1935484,8.70929032 18.0499355,8.54516129 17.8575484,8.5196129 L16.8646452,8.38722581 C16.7504516,7.95522581 16.5781935,7.54141935 16.3505806,7.1516129 L16.9606452,6.35419355 C17.0783226,6.20012903 17.064,5.98258065 16.9269677,5.84554839 L15.831871,4.75045161 C15.6948387,4.61303226 15.4769032,4.59870968 15.3232258,4.71677419 L14.5258065,5.32683871 C14.136,5.0996129 13.7221935,4.92735484 13.2901935,4.81277419 L13.1578065,3.81987097 C13.1322581,3.62748387 12.968129,3.48387097 12.7741935,3.48387097 L11.2258065,3.48387097 C11.031871,3.48387097 10.8677419,3.62748387 10.8421935,3.81987097 L10.7098065,4.81277419 C10.2778065,4.92696774 9.864,5.09922581 9.47419355,5.32683871 L8.67677419,4.71677419 C8.52270968,4.59909677 8.30516129,4.61341935 8.16812903,4.75045161 L7.07303226,5.84554839 C6.936,5.98258065 6.92129032,6.20051613 7.03935484,6.35419355 L7.64941935,7.1516129 C7.42219355,7.54141935 7.24993548,7.95522581 7.13535484,8.38722581 L6.14245161,8.5196129 C5.95006452,8.54516129 5.80645161,8.70929032 5.80645161,8.90322581 L5.80645161,9.29032258 L5.41935484,9.29032258 L5.41935484,1.93548387 C5.41935484,1.72180645 5.24593548,1.5483871 5.03225806,1.5483871 L3.87096774,1.5483871 L3.87096774,0.387096774 C3.87096774,0.173419355 3.69754839,0 3.48387097,0 L0.387096774,0 C0.173419355,0 0,0.173419355 0,0.387096774 L0,3.48387097 C0,3.69754839 0.173419355,3.87096774 0.387096774,3.87096774 L3.48387097,3.87096774 C3.69754839,3.87096774 3.87096774,3.69754839 3.87096774,3.48387097 L3.87096774,2.32258065 L4.64516129,2.32258065 L4.64516129,9.29032258 L3.87096774,9.29032258 L3.87096774,8.12903226 C3.87096774,7.91535484 3.69754839,7.74193548 3.48387097,7.74193548 L0.387096774,7.74193548 C0.173419355,7.74193548 0,7.91535484 0,8.12903226 L0,11.2258065 C0,11.4394839 0.173419355,11.6129032 0.387096774,11.6129032 L3.48387097,11.6129032 C3.69754839,11.6129032 3.87096774,11.4394839 3.87096774,11.2258065 L3.87096774,10.0645161 L4.64516129,10.0645161 L4.64516129,17.0322581 L3.87096774,17.0322581 L3.87096774,15.8709677 C3.87096774,15.6572903 3.69754839,15.483871 3.48387097,15.483871 L0.387096774,15.483871 C0.173419355,15.483871 0,15.6572903 0,15.8709677 L0,18.9677419 C0,19.1814194 0.173419355,19.3548387 0.387096774,19.3548387 L3.48387097,19.3548387 C3.69754839,19.3548387 3.87096774,19.1814194 3.87096774,18.9677419 L3.87096774,17.8064516 L5.03225806,17.8064516 C5.24593548,17.8064516 5.41935484,17.6330323 5.41935484,17.4193548 L5.41935484,10.0645161 L5.80645161,10.0645161 L5.80645161,10.4516129 C5.80645161,10.6455484 5.95006452,10.8096774 6.14245161,10.8352258 L7.13535484,10.9676129 C7.24954839,11.3996129 7.42180645,11.8134194 7.64941935,12.2032258 L7.03935484,13.0006452 C6.92167742,13.1547097 6.936,13.3722581 7.07303226,13.5092903 L8.16812903,14.6043871 C8.30516129,14.7414194 8.52232258,14.7557419 8.67677419,14.6380645 L9.47419355,14.028 C9.864,14.2552258 10.2778065,14.4274839 10.7098065,14.5420645 L10.8421935,15.5349677 C10.8677419,15.7273548 11.031871,15.8709677 11.2258065,15.8709677 L12.7741935,15.8709677 C12.968129,15.8709677 13.1322581,15.7273548 13.1578065,15.5349677 L13.2901935,14.5420645 C13.7221935,14.427871 14.136,14.2556129 14.5258065,14.028 L15.3232258,14.6380645 C15.4772903,14.756129 15.6952258,14.7418065 15.831871,14.6043871 L16.9269677,13.5092903 C17.064,13.3722581 17.0787097,13.1543226 16.9606452,13.0006452 L16.3505806,12.2032258 C16.5778065,11.8134194 16.7500645,11.3996129 16.8646452,10.9676129 L17.8575484,10.8352258 C18.0499355,10.8096774 18.1935484,10.6455484 18.1935484,10.4516129 L18.1935484,10.0645161 L18.5806452,10.0645161 L18.5806452,17.4193548 C18.5806452,17.6330323 18.7540645,17.8064516 18.9677419,17.8064516 L20.1290323,17.8064516 L20.1290323,18.9677419 C20.1290323,19.1814194 20.3024516,19.3548387 20.516129,19.3548387 L23.6129032,19.3548387 C23.8265806,19.3548387 24,19.1814194 24,18.9677419 L24,15.8709677 C24,15.6572903 23.8265806,15.483871 23.6129032,15.483871 L20.516129,15.483871 C20.3024516,15.483871 20.1290323,15.6572903 20.1290323,15.8709677 L20.1290323,17.0322581 L19.3548387,17.0322581 L19.3548387,10.0645161 L20.1290323,10.0645161 L20.1290323,11.2258065 C20.1290323,11.4394839 20.3024516,11.6129032 20.516129,11.6129032 L23.6129032,11.6129032 C23.8265806,11.6129032 24,11.4394839 24,11.2258065 L24,8.12903226 C24,7.91535484 23.8265806,7.74193548 23.6129032,7.74193548 L20.516129,7.74193548 C20.3024516,7.74193548 20.1290323,7.91535484 20.1290323,8.12903226 L20.1290323,9.29032258 L19.3548387,9.29032258 L19.3548387,2.32258065 L20.1290323,2.32258065 L20.1290323,3.48387097 C20.1290323,3.69754839 20.3024516,3.87096774 20.516129,3.87096774 Z M20.9032258,0.774193548 L23.2258065,0.774193548 L23.2258065,3.09677419 L20.9032258,3.09677419 L20.9032258,0.774193548 Z M3.09677419,3.09677419 L0.774193548,3.09677419 L0.774193548,0.774193548 L3.09677419,0.774193548 L3.09677419,3.09677419 Z M3.09677419,10.8387097 L0.774193548,10.8387097 L0.774193548,8.51612903 L3.09677419,8.51612903 L3.09677419,10.8387097 Z M3.09677419,18.5806452 L0.774193548,18.5806452 L0.774193548,16.2580645 L3.09677419,16.2580645 L3.09677419,18.5806452 Z M17.4193548,10.1129032 L16.4980645,10.2356129 C16.3350968,10.2572903 16.2034839,10.38 16.1701935,10.5414194 C16.0625806,11.0647742 15.8562581,11.5602581 15.5578065,12.0135484 C15.4672258,12.1509677 15.4738065,12.3305806 15.5736774,12.4614194 L16.14,13.2019355 L15.5245161,13.8174194 L14.784,13.2510968 C14.6531613,13.1512258 14.4731613,13.1446452 14.336129,13.2352258 C13.8828387,13.5336774 13.3873548,13.74 12.864,13.8476129 C12.7025806,13.8809032 12.5802581,14.0125161 12.5581935,14.1754839 L12.4354839,15.0967742 L11.5649032,15.0967742 L11.4421935,14.1754839 C11.4205161,14.0125161 11.2978065,13.8809032 11.1363871,13.8476129 C10.6130323,13.74 10.1175484,13.5336774 9.66425806,13.2352258 C9.52722581,13.1450323 9.3476129,13.1512258 9.2163871,13.2510968 L8.47587097,13.8174194 L7.8603871,13.2019355 L8.42670968,12.4614194 C8.52658065,12.3305806 8.53316129,12.1509677 8.44258065,12.0135484 C8.14412903,11.5602581 7.93780645,11.0647742 7.83019355,10.5414194 C7.79690323,10.38 7.66529032,10.2576774 7.50232258,10.2356129 L6.58064516,10.1129032 L6.58064516,9.24232258 L7.50193548,9.1196129 C7.66490323,9.09793548 7.79651613,8.97522581 7.82980645,8.81380645 C7.93741935,8.29045161 8.14374194,7.79496774 8.44219355,7.34167742 C8.53277419,7.20425806 8.52619355,7.02464516 8.42632258,6.89380645 L7.86,6.15329032 L8.47548387,5.53780645 L9.216,6.10412903 C9.34645161,6.204 9.52645161,6.21019355 9.66387097,6.12 C10.1171613,5.82154839 10.6126452,5.61522581 11.136,5.5076129 C11.2974194,5.47432258 11.4197419,5.34270968 11.4418065,5.17974194 L11.5645161,4.25806452 L12.4350968,4.25806452 L12.5578065,5.17935484 C12.5794839,5.34232258 12.7021935,5.47393548 12.8636129,5.50722581 C13.3869677,5.61483871 13.8824516,5.82116129 14.3357419,6.1196129 C14.4735484,6.21019355 14.6531613,6.204 14.7836129,6.10374194 L15.524129,5.53741935 L16.1396129,6.15290323 L15.5732903,6.89341935 C15.4734194,7.02425806 15.4668387,7.20387097 15.5574194,7.34129032 C15.855871,7.79458065 16.0621935,8.29006452 16.1698065,8.81341935 C16.2030968,8.97483871 16.3347097,9.09716129 16.4976774,9.11922581 L17.4193548,9.24193548 L17.4193548,10.1129032 Z M20.9032258,16.2580645 L23.2258065,16.2580645 L23.2258065,18.5806452 L20.9032258,18.5806452 L20.9032258,16.2580645 Z M20.9032258,8.51612903 L23.2258065,8.51612903 L23.2258065,10.8387097 L20.9032258,10.8387097 L20.9032258,8.51612903 Z" id="Shape"></path>
            </g>
        </g>
    </g>
</svg>