<?xml version="1.0" encoding="UTF-8"?>
<svg width="55px" height="55px" viewBox="0 0 55 55" version="1.1" xmlns="http://www.w3.org/2000/svg" xmlns:xlink="http://www.w3.org/1999/xlink">
    <title>convenios-icon</title>
    <g id="Cliente-y-Entidades*" stroke="none" stroke-width="1" fill="none" fill-rule="evenodd">
        <g id="01" transform="translate(-817.000000, -442.000000)" fill="#DBE0E4">
            <g id="Convenios" transform="translate(766.000000, 397.000000)">
                <g id="convenios-icon" transform="translate(51.000000, 45.000000)">
                    <path d="M54.7940895,13.0125633 C54.605152,12.3099662 54.1441983,11.7109944 53.5135135,11.3478593 C52.8823821,10.9829375 52.1319923,10.8842256 51.4280552,11.073163 C50.7250113,11.2625471 50.1260395,11.7230542 49.7629045,12.3537389 L49.305524,13.1496881 C48.8709233,12.9000048 48.3157241,13.0469562 48.0615741,13.4793141 L45.7380457,17.4398632 L44.9420965,16.9824828 C44.7312727,16.8605444 44.4802495,16.8274915 44.2453059,16.8909174 C44.0099159,16.9547899 43.8098119,17.1093344 43.6887669,17.3210515 C43.4408702,17.7583323 43.5918416,18.313978 44.0273356,18.5650013 L44.8232848,19.0223818 L37.047817,32.4967922 L35.1267298,37.6289225 L34.2119689,39.3391859 C33.6764228,40.27092 33.7335954,41.4291109 34.3584736,42.3032258 L32.3002615,44.8277514 L31.7240693,43.3828044 C31.4641129,42.7387198 30.862461,42.2974191 30.1705838,42.2433732 C29.4782598,42.1888806 28.8149688,42.5310226 28.458087,43.1264212 L28.1288981,43.6843002 L27.8180223,40.0252566 C27.7465567,39.1596284 27.0761191,38.4637311 26.2140641,38.3592126 C25.3515626,38.2551407 24.5350669,38.771927 24.2594773,39.5955691 L22.0092012,46.3463974 C21.8519767,46.8238777 22.1092532,47.3384307 22.5853934,47.4992285 C22.6747255,47.5407679 22.7707575,47.5657809 22.8690229,47.5720395 C23.2620842,47.5733741 23.6122661,47.3227976 23.7382243,46.9502826 L25.9791207,40.1994543 L26.2993763,43.9129905 C26.3654821,44.7053664 26.9349744,45.3641908 27.7094838,45.5437483 C28.4839933,45.723306 29.2853024,45.3820573 29.6931036,44.7000065 L30.0316723,44.1416807 L30.5989312,45.5781412 C30.8396813,46.1833663 31.3841606,46.6152872 32.0286919,46.7113192 C32.6732232,46.8073512 33.3199877,46.5532013 33.7273422,46.044455 L35.8588065,43.3461782 C36.0946433,43.4078174 36.3376266,43.438637 36.5815034,43.4377436 C37.5619234,43.4453369 38.4722177,42.9289972 38.9689043,42.0834686 L39.8836652,40.5558895 L43.3689579,36.3206536 L51.2266112,22.6814254 L52.0225605,23.1388059 C52.2347242,23.2602976 52.3892688,23.4608481 52.4522479,23.6971317 C52.5156738,23.9316285 52.4826208,24.1817584 52.3611292,24.3921355 L48.7020855,30.7315895 C48.5640674,30.9397333 48.5171681,31.1952231 48.5725539,31.4390999 C48.6279399,31.6825299 48.7802511,31.8929071 48.9946482,32.0210986 C49.205472,32.1434836 49.4564952,32.1765366 49.6914388,32.1131107 C49.9268288,32.0492382 50.1269328,31.8946937 50.2479778,31.6829765 L53.9070215,25.3435226 C54.2719432,24.7123912 54.3706552,23.9620014 54.1812711,23.2580643 C53.991887,22.5550204 53.5313799,21.9560486 52.9006952,21.5929136 L52.104746,21.1355331 L54.3916483,17.1745469 C54.6413315,16.7399461 54.4943802,16.1851936 54.0624594,15.930597 L54.5198398,15.1346479 C54.8945881,14.4936899 54.9937467,13.7281137 54.7940895,13.0125633 L54.7940895,13.0125633 Z M51.3454229,13.2684998 C51.4664679,13.0567827 51.6674653,12.9017915 51.9037487,12.8388124 C52.1386921,12.7807465 52.3870355,12.8133527 52.5987526,12.9303778 C52.8109164,13.0514228 52.9654609,13.2524201 53.0288868,13.4882569 C53.0869526,13.7232004 53.0543464,13.9715437 52.9373214,14.1832607 L52.4799409,14.97921 L50.8880424,14.0644491 L51.3454229,13.2684998 Z M38.8773389,38.8089998 L38.4199584,38.5436834 L37.0661301,37.7566675 L38.3650191,34.2807546 L41.2464267,35.9454587 L38.8773389,38.8089998 Z M36.1330561,41.4523372 C35.7466947,41.1830009 35.627883,40.6648746 35.8588065,40.2539468 L36.3161869,39.4584443 L37.9076387,40.3732052 L37.4502582,41.1597746 C37.3220667,41.3822115 37.1067762,41.5403293 36.8561997,41.596162 C36.605623,41.6515479 36.3434333,41.5997353 36.1330561,41.4523372 Z M42.2893793,34.4455724 L39.1243422,32.6160506 L46.4424295,19.9371427 L49.6074666,21.7666645 L42.2893793,34.4455724 Z M50.5222275,20.184146 L47.3571904,18.3546241 L49.1867122,15.1895872 L52.3517493,17.019109 L50.5222275,20.184146 Z" id="Shape" fill-rule="nonzero"></path>
                    <path d="M14.4347307,40.9949568 L11.196888,44.224313 L9.25748771,42.2849126 C8.90060586,41.9302641 8.32441363,41.9302641 7.96753189,42.2849126 C7.79422746,42.456877 7.69685551,42.6904804 7.69685551,42.9343572 C7.69685551,43.1782338 7.79422746,43.412284 7.96753189,43.5838016 L9.90693217,45.523202 C10.2499675,45.8635573 10.7136012,46.0542814 11.196888,46.0538627 C11.6828547,46.0565147 12.1505084,45.8657907 12.495777,45.523202 L15.7246865,42.2849126 C16.0355623,41.9217775 16.0145693,41.3808715 15.6768938,41.0431961 C15.3387717,40.7050741 14.7978657,40.684081 14.4347307,40.9949568 Z" id="Path"></path>
                    <path d="M3.65904366,43.45561 C3.65904366,47.7502517 7.14031634,51.2310778 11.4345114,51.2310778 C15.7287065,51.2310778 19.2099792,47.7502517 19.2099792,43.45561 C19.2099792,42.9504369 18.8003915,42.5408491 18.2952183,42.5408491 C17.7900451,42.5408491 17.3804574,42.9504369 17.3804574,43.45561 C17.3804574,46.7394588 14.7183602,49.4015559 11.4345114,49.4015559 C8.15066268,49.4015559 5.48856549,46.7394588 5.48856549,43.45561 C5.48856549,40.1717612 8.15066268,37.5096641 11.4345114,37.5096641 C12.7217872,37.5060908 13.9746703,37.9237185 15.0019897,38.6991213 C15.4062175,39.0024038 15.9797297,38.9202183 16.2825657,38.5159905 C16.5858481,38.1117627 16.5041093,37.5386971 16.0998814,37.2354145 C13.7437467,35.4684252 10.5912162,35.184349 7.95725867,36.5011045 C5.32285438,37.8183066 3.65904366,40.5107767 3.65904366,43.45561 Z" id="Path"></path>
                    <path d="M32.9313929,7.32255387 C33.4365661,7.32255387 33.8461538,6.91341287 33.8461538,6.40779295 C33.8461538,5.9026199 33.4365661,5.49303204 32.9313929,5.49303204 L9.14760915,5.49303204 C8.64243598,5.49303204 8.23284823,5.9026199 8.23284823,6.40779295 L8.23284823,10.0668366 C8.23284823,10.5724565 8.64243598,10.9815975 9.14760915,10.9815975 L32.9313929,10.9815975 C33.4365661,10.9815975 33.8461538,10.5724565 33.8461538,10.0668366 C33.8461538,9.56166356 33.4365661,9.1520757 32.9313929,9.1520757 L10.0623701,9.1520757 L10.0623701,7.32255387 L32.9313929,7.32255387 Z" id="Path"></path>
                    <path d="M11.8918919,12.8111194 C11.3867187,12.8111194 10.977131,13.2207072 10.977131,13.7258803 C10.977131,14.2315002 11.3867187,14.6406412 11.8918919,14.6406412 L30.1871102,14.6406412 C30.6922834,14.6406412 31.1018711,14.2315002 31.1018711,13.7258803 C31.1018711,13.2207072 30.6922834,12.8111194 30.1871102,12.8111194 L11.8918919,12.8111194 Z" id="Path"></path>
                    <path d="M35.6756757,19.2144458 L15.5509356,19.2144458 C15.0457624,19.2144458 14.6361746,19.6240336 14.6361746,20.1292067 C14.6361746,20.6348266 15.0457624,21.0439676 15.5509356,21.0439676 L35.6756757,21.0439676 C36.1808488,21.0439676 36.5904366,20.6348266 36.5904366,20.1292067 C36.5904366,19.6240336 36.1808488,19.2144458 35.6756757,19.2144458 Z" id="Path"></path>
                    <path d="M26.5280665,25.6177722 C26.5280665,25.1125991 26.1184788,24.7030112 25.6133056,24.7030112 L7.31808732,24.7030112 C6.81291415,24.7030112 6.4033264,25.1125991 6.4033264,25.6177722 C6.4033264,26.1233921 6.81291415,26.5325331 7.31808732,26.5325331 L25.6133056,26.5325331 C26.1184788,26.5325331 26.5280665,26.1233921 26.5280665,25.6177722 Z" id="Path"></path>
                    <path d="M35.6756757,24.7030112 L29.2723493,24.7030112 C28.7671761,24.7030112 28.3575884,25.1125991 28.3575884,25.6177722 C28.3575884,26.1233921 28.7671761,26.5325331 29.2723493,26.5325331 L35.6756757,26.5325331 C36.1808488,26.5325331 36.5904366,26.1233921 36.5904366,25.6177722 C36.5904366,25.1125991 36.1808488,24.7030112 35.6756757,24.7030112 Z" id="Path"></path>
                    <path d="M16.4656965,31.1063377 C16.9708696,31.1063377 17.3804574,30.6971967 17.3804574,30.1915767 C17.3804574,29.6864037 16.9708696,29.2768158 16.4656965,29.2768158 L7.31808732,29.2768158 C6.81291415,29.2768158 6.4033264,29.6864037 6.4033264,30.1915767 C6.4033264,30.6971967 6.81291415,31.1063377 7.31808732,31.1063377 L16.4656965,31.1063377 Z" id="Path"></path>
                    <path d="M20.1247401,31.1063377 L26.5280665,31.1063377 C27.0332397,31.1063377 27.4428274,30.6971967 27.4428274,30.1915767 C27.4428274,29.6864037 27.0332397,29.2768158 26.5280665,29.2768158 L20.1247401,29.2768158 C19.619567,29.2768158 19.2099792,29.6864037 19.2099792,30.1915767 C19.2099792,30.6971967 19.619567,31.1063377 20.1247401,31.1063377 Z" id="Path"></path>
                    <path d="M41.1642412,42.0834686 C40.659068,42.0834686 40.2494802,42.4930565 40.2494802,42.9982295 L40.2494802,52.1458387 C40.2494802,52.6514586 39.8398925,53.0605996 39.3347193,53.0605996 L2.74428274,53.0605996 C2.23910957,53.0605996 1.82952183,52.6514586 1.82952183,52.1458387 L1.82952183,2.74874929 C1.82952183,2.24357624 2.23910957,1.83398838 2.74428274,1.83398838 L39.3347193,1.83398838 C39.8398925,1.83398838 40.2494802,2.24357624 40.2494802,2.74874929 L40.2494802,19.9282095 C40.2494802,20.4333826 40.659068,20.8429704 41.1642412,20.8429704 C41.6694143,20.8429704 42.0790021,20.4333826 42.0790021,19.9282095 L42.0790021,2.74874929 C42.0790021,1.2332299 40.8502387,0.00446660603 39.3347193,0.00446660603 L2.74428274,0.00446660603 C1.22876335,0.00446660603 0,1.2332299 0,2.74874929 L0,52.1458387 C0,53.6618048 1.22876335,54.8901214 2.74428274,54.8901214 L39.3347193,54.8901214 C40.8502387,54.8901214 42.0790021,53.6618048 42.0790021,52.1458387 L42.0790021,42.9982295 C42.0790021,42.4930565 41.6694143,42.0834686 41.1642412,42.0834686 Z" id="Path"></path>
                </g>
            </g>
        </g>
    </g>
</svg>