<?xml version="1.0" encoding="UTF-8"?>
<svg width="23px" height="23px" viewBox="0 0 23 23" version="1.1" xmlns="http://www.w3.org/2000/svg" xmlns:xlink="http://www.w3.org/1999/xlink">
    <!-- Generator: sketchtool 52.1 (67048) - http://www.bohemiancoding.com/sketch -->
    <title>F08A280A-68B8-40FC-AB83-31D6C116DBC1</title>
    <desc>Created with sketchtool.</desc>
    <g id="Marca" stroke="none" stroke-width="1" fill="none" fill-rule="evenodd">
        <g id="4" transform="translate(-1126.000000, -329.000000)" fill="#3962E6">
            <g id="contract-6" transform="translate(1126.000000, 329.000000)">
                <path d="M22.913892,5.44161739 C22.8348818,5.14780405 22.6421193,4.89732492 22.3783784,4.74546845 C22.1144507,4.59286479 21.8006513,4.55158524 21.5062776,4.63059545 C21.2122775,4.70979244 20.9617983,4.90236814 20.8099419,5.16610899 L20.6186737,5.4989605 C20.4369315,5.39454748 20.2047574,5.45599985 20.0984765,5.63680806 L19.1268191,7.29303371 L18.7939676,7.10176552 C18.7058049,7.05077313 18.6008316,7.03695099 18.5025825,7.06347453 C18.4041466,7.09018485 18.3204668,7.15481255 18.269848,7.24334883 C18.1661821,7.42621169 18.2293156,7.65857261 18.4114312,7.763546 L18.7442827,7.95481419 L15.4927235,13.5895676 L14.6893597,15.7357312 L14.3068234,16.4509323 C14.0828677,16.8405665 14.1067762,17.3249009 14.368089,17.6904399 L13.5073821,18.7461506 L13.266429,18.1419 C13.1577199,17.8725555 12.9061201,17.6880116 12.6167896,17.6654106 C12.3272723,17.6426228 12.049896,17.7857004 11.9006545,18.0346852 L11.7629938,18.2679801 L11.6329912,16.7378346 C11.6031055,16.3758446 11.3227407,16.084833 10.962245,16.0411253 C10.6015625,15.9976043 10.2601189,16.2137149 10.1448723,16.5581471 L9.20384779,19.3812207 C9.13809935,19.5808943 9.24568771,19.796071 9.44480086,19.8633137 C9.48215793,19.8806848 9.52231679,19.8911448 9.56340956,19.8937597 C9.72778067,19.8943201 9.87422037,19.7895335 9.92689382,19.6337545 L10.8639959,16.8106809 L10.997921,18.3636142 C11.0255652,18.6949714 11.2637166,18.9704798 11.5876023,19.0455675 C11.9114881,19.1206552 12.246581,18.9779512 12.4171161,18.69273 L12.5586993,18.4592483 L12.7959167,19.05995 C12.896594,19.3130441 13.1242853,19.4936655 13.3938166,19.5338244 C13.6633479,19.5739832 13.933813,19.4677024 14.1041613,19.2549539 L14.9955009,18.1265836 C15.0941235,18.15236 15.1957348,18.1652482 15.2977196,18.1648746 C15.7077134,18.16805 16.0883819,17.9521261 16.2960872,17.5985414 L16.6786236,16.9597356 L18.1361097,15.188637 L21.4220374,9.48495972 L21.7548889,9.67622791 C21.8436119,9.72703352 21.9082397,9.81090013 21.9345764,9.90970961 C21.9610999,10.0077719 21.9472778,10.1123717 21.8964722,10.2003476 L20.3663267,12.851392 C20.30861,12.9384339 20.2889976,13.0452751 20.3121589,13.14726 C20.3353203,13.249058 20.3990141,13.3370339 20.4886711,13.3906412 C20.5768338,13.4418204 20.6818071,13.4556426 20.7800562,13.429119 C20.878492,13.4024087 20.9621719,13.337781 21.0127907,13.2492447 L22.5429363,10.5982004 C22.6955399,10.3342727 22.7368195,10.0204733 22.6576225,9.72609961 C22.5784255,9.43209946 22.3858498,9.18162032 22.1221089,9.02976385 L21.7892574,8.83849566 L22.7455984,7.18208324 C22.8500114,7.00034111 22.788559,6.76835369 22.6079376,6.66188602 L22.7992057,6.32903456 C22.9559187,6.06099758 22.997385,5.74084753 22.913892,5.44161739 Z M21.4717223,5.54864538 C21.5223411,5.46010915 21.6063946,5.39529462 21.705204,5.3689579 C21.8034531,5.34467583 21.9073058,5.35831115 21.995842,5.40724888 C22.084565,5.45786772 22.1491928,5.54192115 22.1757163,5.64054381 C22.1999984,5.73879288 22.186363,5.84264553 22.1374253,5.93118176 L21.9461571,6.26403326 L21.2804541,5.88149688 L21.4717223,5.54864538 Z M16.2577963,16.2292181 L16.0665281,16.1182676 L15.5003817,15.7891518 L16.0435535,14.3355883 L17.2485057,15.0317373 L16.2577963,16.2292181 Z M15.1101871,17.3346137 C14.9486178,17.2219822 14.8989329,17.0053112 14.9955009,16.8334687 L15.1867691,16.500804 L15.8522853,16.8833404 L15.6610171,17.2122694 C15.6074097,17.3052885 15.5173792,17.3714104 15.4125926,17.3947587 C15.307806,17.41792 15.198163,17.3962529 15.1101871,17.3346137 Z M17.6846495,14.4045121 L16.3610885,13.6394393 L19.4213796,8.33735057 L20.7449406,9.10242334 L17.6846495,14.4045121 Z M21.1274769,8.44064285 L19.803916,7.67557009 L20.5689887,6.35200917 L21.8925497,7.11708194 L21.1274769,8.44064285 Z" id="Shape" fill-rule="nonzero"></path>
                <path d="M6.03634192,17.1433456 L4.68233498,18.4938036 L3.87131304,17.6827816 C3.72207154,17.5344741 3.48111843,17.5344741 3.33187697,17.6827816 C3.25940421,17.754694 3.21868503,17.8523827 3.21868503,17.9543675 C3.21868503,18.0563523 3.25940421,18.1542278 3.33187697,18.2259534 L4.14289891,19.0369754 C4.28635005,19.1793058 4.48023321,19.2590631 4.68233498,19.2588764 C4.88555743,19.2599971 5.0811217,19.1802398 5.22550676,19.0369754 L6.57577799,17.6827816 C6.70578059,17.5309252 6.69700171,17.3047281 6.55579195,17.1635184 C6.41439545,17.0221219 6.18819839,17.013343 6.03634192,17.1433456 Z" id="Path"></path>
                <path d="M1.53014553,18.172346 C1.53014553,19.9682871 2.98595047,21.4239053 4.78170478,21.4239053 C6.57745909,21.4239053 8.03326403,19.9682871 8.03326403,18.172346 C8.03326403,17.9610918 7.86198189,17.7898096 7.65072765,17.7898096 C7.43947342,17.7898096 7.26819127,17.9610918 7.26819127,18.172346 C7.26819127,19.5455918 6.15495062,20.6588325 4.78170478,20.6588325 C3.40845894,20.6588325 2.2952183,19.5455918 2.2952183,18.172346 C2.2952183,16.7991002 3.40845894,15.6858595 4.78170478,15.6858595 C5.32002012,15.6843652 5.84395304,15.8590095 6.27355933,16.1832689 C6.44260005,16.3100962 6.68243243,16.2757277 6.80907292,16.1066869 C6.93590013,15.9376462 6.90171845,15.6980006 6.73267768,15.5711733 C5.74738498,14.8322505 4.42905405,14.713455 3.3275809,15.2640982 C2.22592092,15.8149282 1.53014553,16.9408702 1.53014553,18.172346 Z" id="Path"></path>
                <path d="M13.7713098,3.06215889 C13.982564,3.06215889 14.1538462,2.89106356 14.1538462,2.67962251 C14.1538462,2.46836832 13.982564,2.29708612 13.7713098,2.29708612 L3.82536383,2.29708612 C3.61410959,2.29708612 3.44282744,2.46836832 3.44282744,2.67962251 L3.44282744,4.20976804 C3.44282744,4.42120909 3.61410959,4.59230442 3.82536383,4.59230442 L13.7713098,4.59230442 C13.982564,4.59230442 14.1538462,4.42120909 14.1538462,4.20976804 C14.1538462,3.99851385 13.982564,3.82723165 13.7713098,3.82723165 L4.20790021,3.82723165 L4.20790021,3.06215889 L13.7713098,3.06215889 Z" id="Path"></path>
                <path d="M4.97297297,5.35737719 C4.76171874,5.35737719 4.59043659,5.52865938 4.59043659,5.73991357 C4.59043659,5.95135462 4.76171874,6.12244995 4.97297297,6.12244995 L12.6237006,6.12244995 C12.8349549,6.12244995 13.006237,5.95135462 13.006237,5.73991357 C13.006237,5.52865938 12.8349549,5.35737719 12.6237006,5.35737719 L4.97297297,5.35737719 Z" id="Path"></path>
                <path d="M14.9189189,8.03513186 L6.5031185,8.03513186 C6.29186427,8.03513186 6.12058212,8.20641406 6.12058212,8.41766825 C6.12058212,8.6291093 6.29186427,8.80020463 6.5031185,8.80020463 L14.9189189,8.80020463 C15.1301732,8.80020463 15.3014553,8.6291093 15.3014553,8.41766825 C15.3014553,8.20641406 15.1301732,8.03513186 14.9189189,8.03513186 Z" id="Path"></path>
                <path d="M11.0935551,10.7128865 C11.0935551,10.5016324 10.9222729,10.3303502 10.7110187,10.3303502 L3.06029106,10.3303502 C2.84903683,10.3303502 2.67775468,10.5016324 2.67775468,10.7128865 C2.67775468,10.9243276 2.84903683,11.0954229 3.06029106,11.0954229 L10.7110187,11.0954229 C10.9222729,11.0954229 11.0935551,10.9243276 11.0935551,10.7128865 Z" id="Path"></path>
                <path d="M14.9189189,10.3303502 L12.2411642,10.3303502 C12.02991,10.3303502 11.8586279,10.5016324 11.8586279,10.7128865 C11.8586279,10.9243276 12.02991,11.0954229 12.2411642,11.0954229 L14.9189189,11.0954229 C15.1301732,11.0954229 15.3014553,10.9243276 15.3014553,10.7128865 C15.3014553,10.5016324 15.1301732,10.3303502 14.9189189,10.3303502 Z" id="Path"></path>
                <path d="M6.88565489,13.0081048 C7.09690912,13.0081048 7.26819127,12.8370095 7.26819127,12.6255685 C7.26819127,12.4143143 7.09690912,12.2430321 6.88565489,12.2430321 L3.06029106,12.2430321 C2.84903683,12.2430321 2.67775468,12.4143143 2.67775468,12.6255685 C2.67775468,12.8370095 2.84903683,13.0081048 3.06029106,13.0081048 L6.88565489,13.0081048 Z" id="Path"></path>
                <path d="M8.41580042,13.0081048 L11.0935551,13.0081048 C11.3048093,13.0081048 11.4760915,12.8370095 11.4760915,12.6255685 C11.4760915,12.4143143 11.3048093,12.2430321 11.0935551,12.2430321 L8.41580042,12.2430321 C8.20454618,12.2430321 8.03326403,12.4143143 8.03326403,12.6255685 C8.03326403,12.8370095 8.20454618,13.0081048 8.41580042,13.0081048 Z" id="Path"></path>
                <path d="M17.2141372,17.5985414 C17.002883,17.5985414 16.8316008,17.7698236 16.8316008,17.9810778 L16.8316008,21.8064416 C16.8316008,22.0178827 16.6603187,22.188978 16.4490644,22.188978 L1.14760915,22.188978 C0.936354913,22.188978 0.765072765,22.0178827 0.765072765,21.8064416 L0.765072765,1.14947698 C0.765072765,0.93822279 0.936354913,0.766940595 1.14760915,0.766940595 L16.4490644,0.766940595 C16.6603187,0.766940595 16.8316008,0.93822279 16.8316008,1.14947698 L16.8316008,8.33361486 C16.8316008,8.5448691 17.002883,8.71615125 17.2141372,8.71615125 C17.4253914,8.71615125 17.5966736,8.5448691 17.5966736,8.33361486 L17.5966736,1.14947698 C17.5966736,0.51571432 17.0828271,0.00186785343 16.4490644,0.00186785343 L1.14760915,0.00186785343 C0.513846491,0.00186785343 0,0.51571432 0,1.14947698 L0,21.8064416 C0,22.4403911 0.513846491,22.9540508 1.14760915,22.9540508 L16.4490644,22.9540508 C17.0828271,22.9540508 17.5966736,22.4403911 17.5966736,21.8064416 L17.5966736,17.9810778 C17.5966736,17.7698236 17.4253914,17.5985414 17.2141372,17.5985414 Z" id="Path"></path>
            </g>
        </g>
    </g>
</svg>