<?xml version="1.0" encoding="UTF-8"?>
<svg width="25px" height="25px" viewBox="0 0 25 25" version="1.1" xmlns="http://www.w3.org/2000/svg" xmlns:xlink="http://www.w3.org/1999/xlink">
    <!-- Generator: sketchtool 52.1 (67048) - http://www.bohemiancoding.com/sketch -->
    <title>3B0CA824-7491-41B0-8E04-3CC666BE2442</title>
    <desc>Created with sketchtool.</desc>
    <g id="*-8-Iconos---Módulos" stroke="none" stroke-width="1" fill="none" fill-rule="evenodd">
        <g id="MODULOS---ICONOS" transform="translate(-199.000000, -619.000000)" fill="#B9B9B9">
            <g id="notepad-copy" transform="translate(199.000000, 619.000000)">
                <path d="M14.8148148,8.41057505 C14.9429825,8.41057505 15.0687135,8.3584308 15.159308,8.26778752 C15.2499513,8.17665692 15.3021442,8.05141326 15.3021442,7.92324561 C15.3021442,7.79507797 15.25,7.66934698 15.159308,7.5787037 C15.0687135,7.4875731 14.9429825,7.43591618 14.8148148,7.43591618 C14.6861111,7.43591618 14.5609162,7.4875731 14.4702729,7.5787037 C14.3796296,7.66934698 14.3274854,7.79459064 14.3274854,7.92324561 C14.3274854,8.05141326 14.3795809,8.17714425 14.4702729,8.26778752 C14.5609162,8.3584308 14.6866472,8.41057505 14.8148148,8.41057505 Z" id="XMLID_363_"></path>
                <path d="M3.11939571,8.44322612 C3.20955166,8.44322612 3.30073099,8.41822612 3.38226121,8.36588694 L4.80852827,7.45009747 L4.82383041,7.55063353 C4.86617934,7.82772904 5.04551657,8.05852827 5.30350877,8.16807992 C5.56159844,8.27772904 5.85219298,8.24634503 6.08084795,8.08440546 L6.63893762,7.68927875 C6.69108187,7.89800195 6.82431774,8.07665692 7.01203704,8.18654971 C7.22037037,8.30847953 7.46968811,8.33031189 7.69619883,8.2464425 L9.04902534,7.74502924 C9.07285575,7.88294347 9.13279727,8.01364522 9.22509747,8.12373294 C9.37797271,8.30594542 9.60199805,8.41047758 9.83986355,8.41047758 L12.8654971,8.41047758 C13.1346004,8.41047758 13.3528265,8.19230019 13.3528265,7.92314815 C13.3528265,7.6539961 13.1346004,7.43581871 12.8654971,7.43581871 L10.0190546,7.43581871 C10.002193,7.22314815 9.90082846,7.02197856 9.73318713,6.88216374 C9.51296296,6.69844055 9.20911306,6.6462963 8.94030214,6.74590643 L7.5544347,7.25950292 C7.50916179,6.98606238 7.33006823,6.75891813 7.07431774,6.65116959 C6.8168616,6.54273879 6.52709552,6.57426901 6.29902534,6.73572125 L5.74517544,7.12782651 L5.73192008,7.04083821 C5.69069201,6.77110136 5.51764133,6.54298246 5.26895712,6.43065302 C5.02022417,6.31827485 4.73469786,6.33918129 4.50497076,6.48669591 L2.85555556,7.54576023 C2.62909357,7.69117934 2.56340156,7.99264133 2.70877193,8.21910331 C2.80190058,8.36413255 2.95896686,8.44322612 3.11939571,8.44322612 Z" id="XMLID_364_"></path>
                <path d="M3.11939571,12.6896686 C3.20955166,12.6896686 3.30073099,12.6646686 3.38226121,12.6123782 L4.80852827,11.6965887 L4.82383041,11.797076 C4.86617934,12.0741715 5.04551657,12.3049708 5.30350877,12.4145224 C5.56159844,12.5241715 5.85219298,12.4927875 6.08084795,12.330848 L6.63893762,11.9357212 C6.69108187,12.1444444 6.82431774,12.3230994 7.01203704,12.4329922 C7.22037037,12.554922 7.46968811,12.5767544 7.69619883,12.492885 L9.04902534,11.9914717 C9.07285575,12.129386 9.13279727,12.2600877 9.22509747,12.3701754 C9.37797271,12.5523879 9.60199805,12.6568713 9.83986355,12.6568713 L14.8148148,12.6568713 C15.0839181,12.6568713 15.3021442,12.438694 15.3021442,12.1695419 C15.3021442,11.9003899 15.0839181,11.6822125 14.8148148,11.6822125 L10.0191033,11.6822125 C10.002193,11.4695419 9.90082846,11.2684211 9.73323587,11.1285575 C9.51296296,10.9448343 9.20916179,10.8926901 8.94030214,10.9923002 L7.55448343,11.5059454 C7.50921053,11.2325049 7.33011696,11.0053606 7.07431774,10.8976121 C6.81691033,10.7891326 6.52699805,10.820809 6.29907407,10.9821637 L5.74522417,11.374269 L5.73196881,11.2872807 C5.69074074,11.0174951 5.51769006,10.789425 5.26895712,10.6770955 C5.02022417,10.5647661 4.73469786,10.5857212 4.50501949,10.7331871 L2.85560429,11.7922515 C2.6291423,11.9376706 2.56345029,12.2391326 2.70882066,12.4655945 C2.80194932,12.610575 2.95896686,12.6896686 3.11939571,12.6896686 Z" id="XMLID_365_"></path>
                <path d="M3.11939571,16.9361111 C3.20955166,16.9361111 3.30073099,16.9111111 3.38226121,16.8587719 L4.80852827,15.9429825 L4.82387914,16.0434698 C4.86617934,16.3205653 5.04551657,16.5513645 5.30350877,16.6608674 C5.56159844,16.7705166 5.85219298,16.7391326 6.08084795,16.577193 L6.63893762,16.182115 C6.69108187,16.3908382 6.82431774,16.5695419 7.01208577,16.679386 C7.22046784,16.8012671 7.46983431,16.8230019 7.69619883,16.73923 L9.04902534,16.2378168 C9.07285575,16.375731 9.13279727,16.5064327 9.22509747,16.6165205 C9.37797271,16.7987329 9.60199805,16.9032651 9.83986355,16.9032651 L13.4502924,16.9032651 C13.7193957,16.9032651 13.9376218,16.6850877 13.9376218,16.4159357 C13.9376218,16.1467836 13.7193957,15.9286062 13.4502924,15.9286062 L10.0190546,15.9286062 C10.002193,15.7159357 9.90082846,15.5147661 9.73318713,15.3749513 C9.51296296,15.1912281 9.20911306,15.1390351 8.94030214,15.238694 L7.5544347,15.7522904 C7.50916179,15.4788499 7.33006823,15.2517057 7.07426901,15.1439571 C6.8168616,15.0354776 6.52694932,15.0671053 6.29902534,15.2285088 L5.74517544,15.620614 L5.73192008,15.5336257 C5.69069201,15.2638402 5.51764133,15.03577 5.26890838,14.9234405 C5.02017544,14.8110624 4.73455166,14.8320663 4.50497076,14.9795322 L2.85555556,16.0385965 C2.62909357,16.1840156 2.56340156,16.4854776 2.70877193,16.7119396 C2.80190058,16.8570175 2.95896686,16.9361111 3.11939571,16.9361111 Z" id="XMLID_366_"></path>
                <path d="M10.1526803,20.175 L10.0191033,20.175 C10.002193,19.9623294 9.90082846,19.7611598 9.73323587,19.621345 C9.51291423,19.4376218 9.20911306,19.3854288 8.94030214,19.4850877 L7.5544347,19.9986842 C7.50916179,19.7252437 7.33006823,19.4980994 7.07426901,19.3903509 C6.8168616,19.2819201 6.52694932,19.313499 6.29902534,19.4749025 L5.74517544,19.8670078 L5.73192008,19.7800195 C5.69069201,19.5102827 5.51764133,19.2821637 5.26895712,19.1698343 C5.02022417,19.0574561 4.73469786,19.0784113 4.50497076,19.2258772 L2.85555556,20.2849415 C2.62909357,20.4303606 2.56340156,20.7318226 2.70877193,20.9582846 C2.80190058,21.1033138 2.95891813,21.1824074 3.11934698,21.1824074 C3.20950292,21.1824074 3.30068226,21.1574074 3.38221248,21.1050682 L4.80847953,20.1892788 L4.82378168,20.2897661 C4.8661306,20.5668616 5.04546784,20.7976608 5.30346004,20.9072125 C5.56154971,21.0168616 5.85214425,20.9854776 6.08079922,20.823538 L6.63888889,20.4284113 C6.69103314,20.6371345 6.82426901,20.8158382 7.0119883,20.9256823 C7.22032164,21.0476121 7.46973684,21.0694444 7.69610136,20.985575 L9.04897661,20.4841618 C9.07280702,20.622076 9.13274854,20.7527778 9.22504873,20.8628655 C9.37792398,21.045078 9.60194932,21.1495614 9.83981481,21.1495614 L10.1526316,21.1495614 C10.4217349,21.1495614 10.639961,20.931384 10.639961,20.662232 C10.639961,20.3930799 10.4217836,20.175 10.1526803,20.175 Z" id="XMLID_367_"></path>
                <path d="M24.4132066,10.2881092 C23.6911793,9.5661306 22.5163255,9.5661306 21.7942982,10.2881092 L17.7387914,14.343616 L17.7387914,2.43835283 C17.7387914,1.63221248 17.0829435,0.976364522 16.2768031,0.976364522 L15.3021442,0.976364522 L15.3021442,0.489035088 C15.3021442,0.219883041 15.0839181,0.00170565302 14.8148148,0.00170565302 C14.5457115,0.00170565302 14.3274854,0.219883041 14.3274854,0.489035088 L14.3274854,0.976364522 L12.962963,0.976364522 L12.962963,0.489035088 C12.962963,0.219883041 12.7447368,0.00170565302 12.4756335,0.00170565302 C12.2065302,0.00170565302 11.9883041,0.219883041 11.9883041,0.489035088 L11.9883041,0.976364522 L10.6237817,0.976364522 L10.6237817,0.489035088 C10.6237817,0.219883041 10.4055556,0.00170565302 10.1364522,0.00170565302 C9.86734893,0.00170565302 9.64912281,0.219883041 9.64912281,0.489035088 L9.64912281,0.976364522 L8.28460039,0.976364522 L8.28460039,0.489035088 C8.28460039,0.219883041 8.06637427,0.00170565302 7.79727096,0.00170565302 C7.52816764,0.00170565302 7.30994152,0.219883041 7.30994152,0.489035088 L7.30994152,0.976364522 L5.9454191,0.976364522 L5.9454191,0.489035088 C5.9454191,0.219883041 5.72719298,0.00170565302 5.45808967,0.00170565302 C5.18898635,0.00170565302 4.97076023,0.219883041 4.97076023,0.489035088 L4.97076023,0.976364522 L3.60623782,0.976364522 L3.60623782,0.489035088 C3.60623782,0.219883041 3.3880117,0.00170565302 3.11890838,0.00170565302 C2.84980507,0.00170565302 2.63157895,0.219883041 2.63157895,0.489035088 L2.63157895,0.976364522 L1.4619883,0.976364522 C0.655847953,0.976364522 0,1.63221248 0,2.43835283 L0,24.4656433 C0,24.7347953 0.218226121,24.9529727 0.487329435,24.9529727 L17.251462,24.9529727 C17.5205653,24.9529727 17.7387914,24.7347953 17.7387914,24.4656433 L17.7387914,19.5814815 L19.733577,17.5866959 C19.9238791,17.3963938 19.9238791,17.0878168 19.733577,16.8974659 C19.5432261,16.7071637 19.2347466,16.7071637 19.044347,16.8974659 L16.0468324,19.8949805 L14.8063353,18.6544347 L21.4755361,11.9852339 L22.7160819,13.225731 L21.8011209,14.140692 C21.6108187,14.3309942 21.6108187,14.6395712 21.8011209,14.8298733 C21.9914717,15.0201754 22.2999513,15.0201754 22.4903509,14.8298733 L24.4132066,12.9069688 C25.1351852,12.1849903 25.1351852,11.0101852 24.4132066,10.2881092 Z M16.7641326,23.9783138 L0.974658869,23.9783138 L0.974658869,2.43835283 C0.974658869,2.16963938 1.19327485,1.95102339 1.4619883,1.95102339 L2.63157895,1.95102339 L2.63157895,3.12061404 C2.63157895,3.38976608 2.84980507,3.60794347 3.11890838,3.60794347 C3.3880117,3.60794347 3.60623782,3.38976608 3.60623782,3.12061404 L3.60623782,1.95102339 L4.97076023,1.95102339 L4.97076023,3.12061404 C4.97076023,3.38976608 5.18898635,3.60794347 5.45808967,3.60794347 C5.72719298,3.60794347 5.9454191,3.38976608 5.9454191,3.12061404 L5.9454191,1.95102339 L7.30994152,1.95102339 L7.30994152,3.12061404 C7.30994152,3.38976608 7.52816764,3.60794347 7.79727096,3.60794347 C8.06637427,3.60794347 8.28460039,3.38976608 8.28460039,3.12061404 L8.28460039,1.95102339 L9.64912281,1.95102339 L9.64912281,3.12061404 C9.64912281,3.38976608 9.86734893,3.60794347 10.1364522,3.60794347 C10.4055556,3.60794347 10.6237817,3.38976608 10.6237817,3.12061404 L10.6237817,1.95102339 L11.9883041,1.95102339 L11.9883041,3.12061404 C11.9883041,3.38976608 12.2065302,3.60794347 12.4756335,3.60794347 C12.7447368,3.60794347 12.962963,3.38976608 12.962963,3.12061404 L12.962963,1.95102339 L14.3274854,1.95102339 L14.3274854,3.12061404 C14.3274854,3.38976608 14.5457115,3.60794347 14.8148148,3.60794347 C15.0839181,3.60794347 15.3021442,3.38976608 15.3021442,3.12061404 L15.3021442,1.95102339 L16.2768031,1.95102339 C16.5455166,1.95102339 16.7641326,2.16963938 16.7641326,2.43835283 L16.7641326,15.3182749 L13.7725146,18.3098928 C13.7355263,18.3469298 13.7046784,18.3896199 13.6812865,18.4364522 L11.7491715,22.2983431 C11.6553119,22.4859649 11.6920565,22.7126218 11.8403996,22.8609649 C11.9340156,22.9545322 12.0586745,23.0037037 12.1851365,23.0037037 C12.2591618,23.0037037 12.3337719,22.9868421 12.4030702,22.952193 L16.2649123,21.020078 C16.3116959,20.9966374 16.3544347,20.9658382 16.3914717,20.9288499 L16.7641326,20.5561891 L16.7641326,23.9783138 Z M14.2505361,19.4770468 L15.224269,20.4508285 L13.2755361,21.4258285 L14.2505361,19.4770468 Z M23.7239766,12.217885 L23.4052632,12.5365984 L22.1647173,11.2961014 L22.4834795,10.9773392 C22.8254873,10.6352827 23.3820175,10.6352827 23.7239766,10.9773392 C24.0660331,11.319347 24.0660331,11.8758285 23.7239766,12.217885 Z" id="XMLID_370_" fill-rule="nonzero"></path>
                <path d="M20.7674951,15.376462 C20.6388402,15.376462 20.5135965,15.4286062 20.4224659,15.5192495 C20.3318713,15.6098928 20.2801657,15.7351365 20.2801657,15.8637914 C20.2801657,15.9919591 20.3318713,16.1176901 20.4224659,16.2083333 C20.5135965,16.2989766 20.6388402,16.3511209 20.7674951,16.3511209 C20.8957115,16.3511209 21.0209064,16.2989766 21.112037,16.2083333 C21.2026803,16.1172027 21.2548246,15.9919591 21.2548246,15.8637914 C21.2548246,15.7356238 21.202729,15.6098928 21.112037,15.5192495 C21.0209552,15.4286062 20.8957115,15.376462 20.7674951,15.376462 Z" id="XMLID_426_"></path>
            </g>
        </g>
    </g>
</svg>