<?xml version="1.0" encoding="UTF-8"?>
<svg width="55px" height="52px" viewBox="0 0 55 52" version="1.1" xmlns="http://www.w3.org/2000/svg" xmlns:xlink="http://www.w3.org/1999/xlink">
    <title>Lab-domicilio</title>
    <g id="Laboratorio-a-Domicilio*" stroke="none" stroke-width="1" fill="none" fill-rule="evenodd">
        <g id="01" transform="translate(-693.000000, -372.000000)" fill="#D0D4D8">
            <g id="Lab-a-domicilio" transform="translate(646.000000, 327.000000)">
                <g id="Lab-domicilio" transform="translate(47.000000, 45.000000)">
                    <path d="M9.85629574,30.6159209 C8.93905603,31.156535 8.32246537,32.1501074 8.32246537,33.2844668 C8.32246537,34.9943788 9.72251211,36.3855041 11.4433899,36.3855041 C12.7995356,36.3855041 13.9559422,35.521245 14.3853814,34.3181459 L22.4706565,34.3181459 C24.1915343,34.3181459 25.591581,35.7092712 25.591581,37.4191832 C25.591581,39.1290951 24.1915343,40.5202205 22.4706565,40.5202205 L9.98695845,40.5202205 C7.11882882,40.5202205 4.78541759,42.8387627 4.78541759,45.6886159 C4.78541759,48.5384692 7.11882882,50.8570114 9.98695845,50.8570114 L20.3900402,50.8570114 C20.9646024,50.8570114 21.4303483,50.3942333 21.4303483,49.8233323 C21.4303483,49.2524313 20.9646024,48.7896532 20.3900402,48.7896532 L9.98695845,48.7896532 C8.26608067,48.7896532 6.86603393,47.3985279 6.86603393,45.6886159 C6.86603393,43.978704 8.26608067,42.5875786 9.98695845,42.5875786 L22.4706565,42.5875786 C25.3387861,42.5875786 27.6721974,40.2690364 27.6721974,37.4191832 C27.6721974,34.5693299 25.3387861,32.2507877 22.4706565,32.2507877 L14.3853814,32.2507877 C14.1393485,31.5615305 13.654773,30.9838072 13.030484,30.6159209 L20.9761498,17.6622679 C22.2260801,15.7954435 22.8867798,13.6201692 22.8867798,11.37047 C22.8867798,5.10079285 17.7532751,0 11.4433899,0 C5.1335047,0 0,5.10079285 0,11.37047 C0,13.6201692 0.66069972,15.7954435 1.91062999,17.6622679 L9.85629574,30.6159209 Z M11.4433899,34.3181459 C10.869764,34.3181459 10.4030817,33.8544375 10.4030817,33.2844668 C10.4030817,32.7144961 10.869764,32.2507877 11.4433899,32.2507877 C12.0170158,32.2507877 12.4836981,32.7144961 12.4836981,33.2844668 C12.4836981,33.8544375 12.0170158,34.3181459 11.4433899,34.3181459 Z M11.4433899,2.06735819 C16.6060232,2.06735819 20.8061634,6.24073416 20.8061634,11.37047 C20.8061634,13.2174478 20.2623944,15.0023015 19.2337376,16.5321466 C19.2257273,16.5440339 19.2179249,16.5561279 19.2104347,16.5684287 L11.4433899,29.2308942 C11.4433899,29.2308942 3.66105252,16.5440339 3.65304215,16.5321466 C2.62438542,15.0023015 2.08061634,13.2174478 2.08061634,11.37047 C2.08061634,6.24073416 6.28075656,2.06735819 11.4433899,2.06735819 Z" id="Shape" fill-rule="nonzero"></path>
                    <path d="M11.2184584,16.453739 C14.1051921,16.453739 16.453739,14.1051921 16.453739,11.2184584 C16.453739,8.33172468 14.1051921,5.98317781 11.2184584,5.98317781 C8.33172468,5.98317781 5.98317781,8.33172468 5.98317781,11.2184584 C5.98317781,14.1051921 8.33172468,16.453739 11.2184584,16.453739 Z M11.2184584,8.07729004 C12.9504986,8.07729004 14.3596267,9.48641816 14.3596267,11.2184584 C14.3596267,12.9504986 12.9504986,14.3596267 11.2184584,14.3596267 C9.48641816,14.3596267 8.07729004,12.9504986 8.07729004,11.2184584 C8.07729004,9.48641816 9.48641816,8.07729004 11.2184584,8.07729004 Z" id="Shape" fill-rule="nonzero"></path>
                    <circle id="Oval" fill-rule="nonzero" cx="25.0545571" cy="49.7351655" r="1.12184584"></circle>
                    <path d="M48.4565482,40.230599 L45.0697254,36.8670594 L48.4565482,33.5035199 C49.4040836,32.5623966 50.1460369,31.4682226 50.6618337,30.2515285 C50.8333923,29.8468383 50.6421401,29.3806894 50.2346582,29.2102266 C49.8272564,29.0400023 49.3577316,29.2297853 49.1861729,29.6345549 C48.7510719,30.6607505 48.1247186,31.5841437 47.324325,32.3791332 L43.9391833,35.7410031 L42.6936818,34.5040347 L46.0787433,31.1421648 C47.3842864,29.8455662 48.1032638,28.1217771 48.1032638,26.2881093 C48.1032638,24.4544416 47.3842864,22.7305729 46.0787433,21.4340538 L35.8040359,11.226083 C35.0809757,10.5079766 34.4981726,9.68420559 34.0717176,8.77750886 C33.9561176,8.53167351 33.9593999,8.25204773 34.0806037,8.01026723 C34.2006067,7.77111047 34.4204388,7.60199928 34.6863827,7.54586741 C35.0883408,7.46135157 35.4955025,7.66958015 35.676988,8.05296244 C36.0165829,8.77051225 36.4783423,9.42191231 37.0495374,9.98911456 L47.324405,20.1969264 C48.1185544,20.9856349 48.7417054,21.9012364 49.1763261,22.9182887 C49.3490856,23.3225018 49.8191708,23.5110922 50.2260122,23.3395163 C50.6330137,23.1679404 50.8229051,22.7011554 50.6501456,22.2970218 C50.1347491,21.0911406 49.3967185,20.0063484 48.4565482,19.0725398 L45.074929,15.7141682 L48.4565482,12.3557171 C49.3129806,11.5050727 50.0036984,10.5280124 50.5094082,9.45148888 C50.8326718,8.76319761 50.8226649,7.97933905 50.4818692,7.30082713 C50.1424344,6.62501845 49.5210445,6.14749999 48.7770099,5.99079188 C47.6429454,5.75179413 46.5027166,6.32281271 46.0036514,7.37898242 C45.8446614,7.71545564 45.6498867,8.03308572 45.4224494,8.32916943 L37.7098342,8.32916943 C37.4813562,8.03244966 37.2857809,7.713945 37.1260704,7.37651771 C36.6266049,6.32130208 35.4863761,5.75123758 34.3508707,5.99110991 C33.6072363,6.14805654 32.9864068,6.625575 32.6475324,7.30130417 C32.307297,7.97957757 32.2976904,8.76295909 32.6211141,9.4505348 C33.1266638,10.5254681 33.8166611,11.5011769 34.6718927,12.3505491 L38.0587155,15.7140887 L34.6718927,19.0777077 C32.7312703,21.0050346 31.662531,23.5675421 31.662531,26.2931978 C31.662531,29.0188534 32.7312703,31.5812814 34.6718927,33.5086083 L38.0534319,36.8670594 L34.6718927,40.225431 C33.8154603,41.0759959 33.1247425,42.0531357 32.6190327,43.1296592 C32.295689,43.817871 32.3056959,44.6017295 32.6464917,45.2802415 C32.9859265,45.9561296 33.6073163,46.4336481 34.351431,46.5903562 C34.5238703,46.6266909 34.6964697,46.6442619 34.8669076,46.6442619 C35.817245,46.6442619 36.7015367,46.0976519 37.1247094,45.2021657 C37.2836994,44.865772 37.4783941,44.5482214 37.7058314,44.2521377 L45.4186868,44.2521377 C45.6471648,44.5488574 45.84266,44.8672826 46.0023705,45.2046304 C46.4260236,46.0997986 47.3106355,46.645693 48.2564097,46.645693 C48.4255667,46.645693 48.5968052,46.6282015 48.7676434,46.5921054 C48.7701251,46.5916283 48.7752486,46.5905947 48.7776503,46.5901177 C49.5212847,46.4330916 50.1420341,45.9555731 50.4809886,45.2798439 C50.8211439,44.60165 50.8307505,43.8182685 50.5074068,43.1306928 C50.0018571,42.055839 49.3118598,41.0800507 48.4565482,40.230599 L48.4565482,40.230599 Z M39.2436152,9.91938701 L43.8900293,9.91938701 L41.5668223,12.2266774 L39.2436152,9.91938701 Z M48.4448601,7.54634445 C48.7085625,7.60184027 48.9288749,7.77111047 49.0491181,8.01050576 C49.1707222,8.25260428 49.1740845,8.53278661 49.0584045,8.77909899 C48.6317894,9.68706783 48.0484259,10.512111 47.324325,11.2311714 L43.944467,14.5878734 L42.6989654,13.350905 L46.0788234,9.994203 C46.6509792,9.42596716 47.113299,8.7733745 47.453054,8.05447307 C47.6345396,7.67053424 48.0425018,7.4616696 48.4448601,7.54634445 L48.4448601,7.54634445 Z M39.2395324,31.0733913 L43.8836249,31.0733913 L41.5616187,33.3794891 L39.2395324,31.0733913 Z M41.5668223,19.2015795 L43.8889886,21.5078363 L39.2446559,21.5078363 L41.5668223,19.2015795 Z M37.7164788,23.0922498 C37.7468998,23.0957481 37.7778012,23.0979743 37.8091829,23.0979743 L45.352481,23.0979743 C45.3745762,23.0979743 45.3962713,23.0964637 45.4178862,23.0947145 C45.959701,23.7990662 46.3108239,24.620293 46.4428352,25.4955845 L36.6864863,25.4955845 C36.8195383,24.6190209 37.1723424,23.7969195 37.7164788,23.0922498 L37.7164788,23.0922498 Z M46.4419546,27.0857226 C46.3089826,27.9611731 45.9568991,28.7823204 45.4138834,29.486354 C45.3935494,29.4848434 45.3732153,29.4832533 45.352481,29.4832533 L37.7079929,29.4832533 C37.1676191,28.7796172 36.8173769,27.9596625 36.6856057,27.0857226 L46.4419546,27.0857226 Z M34.6835808,45.0348036 C34.4198784,44.9792283 34.199566,44.8100376 34.0793228,44.5704833 C33.9577187,44.3283848 33.9543564,44.048282 34.0700364,43.8019696 C34.4966515,42.8939212 35.080015,42.0688781 35.8041159,41.3498177 L39.184054,37.9931157 L40.4295556,39.2300841 L37.0496175,42.5868656 C36.4773817,43.1551809 36.0150619,43.8077736 35.6753869,44.526516 C35.4938213,44.9105343 35.0858591,45.1193195 34.6835808,45.0348036 Z M43.8849858,42.6619201 L39.2383315,42.6619201 L41.5616187,40.3545502 L43.8849858,42.6619201 Z M49.0477571,44.5708014 C48.9277541,44.8100376 48.7079221,44.9791488 48.451905,45.033134 C48.4494233,45.0336905 48.4442997,45.0347241 48.441898,45.0352012 C48.0401001,45.1202736 47.6328584,44.9114884 47.4513729,44.5281061 C47.1117779,43.8106358 46.6500185,43.1591563 46.0788234,42.5918745 L35.8040359,32.3841422 C34.1658627,30.7571924 33.2636386,28.5939686 33.2636386,26.2931183 C33.2636386,23.9921885 34.1658627,21.8290441 35.8040359,20.2020149 L39.1891775,16.8401449 L40.4320373,18.0744896 L37.0495374,21.4390628 C35.7439943,22.7356614 35.025017,24.4595301 35.025017,26.2931978 C35.025017,28.1268655 35.7439943,29.8507342 37.0495374,31.1472533 L47.324325,41.3550651 C48.0474652,42.0731715 48.6302683,42.8971015 49.0566433,43.8036392 C49.1722433,44.0493951 49.169041,44.3290209 49.0477571,44.5708014 L49.0477571,44.5708014 Z" id="XMLID_386_" fill-rule="nonzero"></path>
                    <path d="M50.1087823,26.2912088 C49.9414939,26.2912088 49.7773859,26.3592691 49.6590755,26.4775795 C49.5401289,26.59589 49.4727047,26.759998 49.4727047,26.9272864 C49.4727047,27.0945748 49.5401289,27.2586829 49.6590755,27.3769297 C49.7773859,27.4952401 49.9414939,27.5633641 50.1087823,27.5633641 C50.2760708,27.5633641 50.4401788,27.4953037 50.5584892,27.3769297 C50.6767997,27.2586829 50.74486,27.0945748 50.74486,26.9272864 C50.74486,26.759998 50.6767997,26.59589 50.5584892,26.4775795 C50.4401788,26.3592691 50.2760708,26.2912088 50.1087823,26.2912088 L50.1087823,26.2912088 Z" id="XMLID_395_"></path>
                    <rect id="Rectangle" x="29.6836228" y="49.4727047" width="23.7468983" height="1.97890819" rx="0.5"></rect>
                </g>
            </g>
        </g>
    </g>
</svg>