<?xml version="1.0" encoding="UTF-8"?>
<svg width="31px" height="29px" viewBox="0 0 31 29" version="1.1" xmlns="http://www.w3.org/2000/svg" xmlns:xlink="http://www.w3.org/1999/xlink">
    <title>9CB59FBC-5DE1-4A7A-9496-6C2069253D23</title>
    <g id="Marca" stroke="none" stroke-width="1" fill="none" fill-rule="evenodd">
        <g id="4" transform="translate(-1536.000000, -517.000000)" fill="#3962E6">
            <g id="Lab-domicilio" transform="translate(1536.000000, 517.000000)">
                <path d="M5.55536669,17.2562463 C5.03837703,17.5609561 4.69084412,18.1209696 4.69084412,18.7603358 C4.69084412,19.7241044 5.47996137,20.5081932 6.44991067,20.5081932 C7.21428371,20.5081932 7.8660765,20.0210654 8.10812406,19.342955 L12.6652791,19.342955 C13.6352284,19.342955 14.4243457,20.1270438 14.4243457,21.0908123 C14.4243457,22.0545809 13.6352284,22.8386697 12.6652791,22.8386697 L5.62901294,22.8386697 C4.01243079,22.8386697 2.69723537,24.1454844 2.69723537,25.7517653 C2.69723537,27.3580463 4.01243079,28.664861 5.62901294,28.664861 L11.4925681,28.664861 C11.8164122,28.664861 12.0789236,28.4040224 12.0789236,28.0822418 C12.0789236,27.7604613 11.8164122,27.4996227 11.4925681,27.4996227 L5.62901294,27.4996227 C4.65906365,27.4996227 3.8699464,26.7155339 3.8699464,25.7517653 C3.8699464,24.7879968 4.65906365,24.003908 5.62901294,24.003908 L12.6652791,24.003908 C14.2818613,24.003908 15.5970567,22.6970933 15.5970567,21.0908123 C15.5970567,19.4845314 14.2818613,18.1777167 12.6652791,18.1777167 L8.10812406,18.1777167 C7.96945098,17.7892263 7.69632658,17.4636004 7.34445464,17.2562463 L11.8229208,9.95509647 C12.5274269,8.90288633 12.8998213,7.67682264 12.8998213,6.40881038 C12.8998213,2.87499234 10.0063914,0 6.44991067,0 C2.89342992,0 0,2.87499234 0,6.40881038 C0,7.67682264 0.372394388,8.90288633 1.07690054,9.95509647 L5.55536669,17.2562463 Z M6.44991067,19.342955 C6.12659423,19.342955 5.86355515,19.081592 5.86355515,18.7603358 C5.86355515,18.4390796 6.12659423,18.1777167 6.44991067,18.1777167 C6.7732271,18.1777167 7.03626618,18.4390796 7.03626618,18.7603358 C7.03626618,19.081592 6.7732271,19.342955 6.44991067,19.342955 Z M6.44991067,1.16523825 C9.35975854,1.16523825 11.7271103,3.51750471 11.7271103,6.40881038 C11.7271103,7.44983423 11.4206223,8.45584267 10.8408339,9.31811898 C10.836319,9.3248191 10.8319213,9.33163574 10.8276996,9.33856891 L6.44991067,16.4755949 C6.44991067,16.4755949 2.06350233,9.3248191 2.05898739,9.31811898 C1.47919906,8.45584267 1.17271103,7.44983423 1.17271103,6.40881038 C1.17271103,3.51750471 3.54006279,1.16523825 6.44991067,1.16523825 Z" id="Shape" fill-rule="nonzero"></path>
                <path d="M6.32313109,9.2739256 C7.95019919,9.2739256 9.2739256,7.95019919 9.2739256,6.32313109 C9.2739256,4.696063 7.95019919,3.37233658 6.32313109,3.37233658 C4.696063,3.37233658 3.37233658,4.696063 3.37233658,6.32313109 C3.37233658,7.95019919 4.696063,9.2739256 6.32313109,9.2739256 Z M6.32313109,4.55265439 C7.29937195,4.55265439 8.0936078,5.34689024 8.0936078,6.32313109 C8.0936078,7.29937195 7.29937195,8.0936078 6.32313109,8.0936078 C5.34689024,8.0936078 4.55265439,7.29937195 4.55265439,6.32313109 C4.55265439,5.34689024 5.34689024,4.55265439 6.32313109,4.55265439 Z" id="Shape" fill-rule="nonzero"></path>
                <circle id="Oval" fill-rule="nonzero" cx="14.1216594" cy="28.0325479" r="1"></circle>
                <path d="M27.3118726,22.6754285 L25.4029361,20.7796153 L27.3118726,18.8838021 C27.845938,18.3533508 28.2641299,17.7366346 28.5548517,17.0508615 C28.6515484,16.8227634 28.5437517,16.5600249 28.3140801,16.4639459 C28.0844536,16.3680013 27.8198123,16.4749699 27.7231156,16.7031128 C27.4778769,17.2815139 27.1248414,17.8019719 26.6737104,18.2500569 L24.7657215,20.144929 L24.0637115,19.4477287 L25.9716553,17.5528565 C26.7075069,16.8220464 27.1127487,15.8504562 27.1127487,14.8169344 C27.1127487,13.7834125 26.7075069,12.8117775 25.9716553,12.0810122 L20.1804566,6.32742858 C19.7729136,5.92267773 19.4444245,5.45837042 19.204059,4.94732317 C19.1389026,4.80876143 19.1407526,4.65115417 19.2090675,4.5148779 C19.2767056,4.38008045 19.400611,4.28476323 19.5505066,4.25312527 C19.7770648,4.20548907 20.0065559,4.32285427 20.1088478,4.53894247 C20.3002558,4.94337963 20.5605202,5.31053239 20.8824666,5.63022821 L26.6737556,11.3837222 C27.121367,11.8282669 27.4725976,12.3443333 27.7175656,12.9175809 C27.8149391,13.1454101 28.0798962,13.2517065 28.3092069,13.1550001 C28.5386077,13.0582937 28.6456374,12.7951967 28.5482639,12.5674123 C28.2577677,11.8877338 27.8417868,11.2763054 27.3118726,10.749977 L25.4058691,8.85707661 L27.3118726,6.96413143 C27.7945891,6.48467734 28.1839027,5.9339706 28.4689392,5.32720282 C28.6511423,4.93925684 28.645502,4.49744565 28.4534172,4.11501166 C28.2620994,3.73410131 27.9118615,3.46495454 27.4924965,3.37662815 C26.8532965,3.24192033 26.2106221,3.56376716 25.9293308,4.15906282 C25.8397183,4.34871136 25.7299361,4.52773922 25.6017442,4.69462277 L21.2546338,4.69462277 C21.1258553,4.52738072 21.0156219,4.34785991 20.9256033,4.15767362 C20.6440864,3.56291572 20.001412,3.24160664 19.3613998,3.3768074 C18.9422604,3.46526823 18.5923384,3.734415 18.4013364,4.11528053 C18.2095674,4.49758008 18.2041528,4.9391224 18.3864461,5.32666507 C18.6713923,5.93253658 19.0602999,6.4824815 19.5423395,6.96121859 L21.451276,8.8570318 L19.5423395,10.7528898 C18.4485342,11.8392013 17.8461538,13.2835237 17.8461538,14.8198024 C17.8461538,16.356081 18.4485342,17.8003586 19.5423395,18.8866701 L21.448298,20.7796153 L19.5423395,22.6725157 C19.0596231,23.151925 18.6703094,23.7026765 18.385273,24.3094443 C18.2030247,24.6973455 18.208665,25.1391566 18.4007498,25.5215906 C18.5920676,25.9025458 18.9423056,26.1716926 19.3617157,26.260019 C19.4589087,26.2804985 19.556192,26.2904022 19.652257,26.2904022 C20.1879017,26.2904022 20.6863207,25.9823129 20.9248362,25.4775843 C21.0144488,25.2879806 21.1241858,25.1089975 21.2523777,24.942114 L25.5996234,24.942114 C25.728402,25.109356 25.8385902,25.288832 25.9286088,25.4789735 C26.1673951,25.9835229 26.6659946,26.2912088 27.1990673,26.2912088 C27.2944103,26.2912088 27.3909266,26.2813499 27.4872172,26.2610048 C27.488616,26.260736 27.4915038,26.2601534 27.4928574,26.2598845 C27.9119968,26.1713789 28.2618738,25.9022321 28.4529208,25.5213666 C28.6446447,25.1391118 28.6500594,24.6975695 28.4678111,24.3100269 C28.1828649,23.7042001 27.7939574,23.1542104 27.3118726,22.6754285 L27.3118726,22.6754285 Z M22.1191286,5.59092722 L24.7380165,5.59092722 L23.4285725,6.89139996 L22.1191286,5.59092722 Z M27.3052848,4.25339415 C27.4539171,4.28467361 27.5780931,4.38008045 27.6458666,4.51501233 C27.7144071,4.65146787 27.7163022,4.80938881 27.6511007,4.94821943 C27.4106449,5.45998369 27.08184,5.925008 26.6737104,6.33029661 L24.7686996,8.2222559 L24.0666896,7.52505553 L25.9717005,5.63309624 C26.2941883,5.31281786 26.5547685,4.9449929 26.7462668,4.53979391 C26.8485587,4.32339202 27.078501,4.20566832 27.3052848,4.25339415 L27.3052848,4.25339415 Z M22.1168273,17.5140933 L24.7344068,17.5140933 L23.4256396,18.8138939 L22.1168273,17.5140933 Z M23.4285725,10.8227084 L24.7374299,12.1225986 L22.1197151,12.1225986 L23.4285725,10.8227084 Z M21.258379,13.0156317 C21.2755254,13.0176035 21.2929425,13.0188583 21.3106304,13.0188583 L25.5623074,13.0188583 C25.5747612,13.0188583 25.5869893,13.0180068 25.5991722,13.0170209 C25.9045587,13.4140191 26.1024644,13.8768924 26.1768708,14.3702385 L20.6778377,14.3702385 C20.7528307,13.8761754 20.9516839,13.4128092 21.258379,13.0156317 L21.258379,13.0156317 Z M26.1763744,15.2664982 C26.1014266,15.7599339 25.9029795,16.2227624 25.5969161,16.6195814 C25.5854551,16.6187299 25.5739941,16.6178337 25.5623074,16.6178337 L21.253596,16.6178337 C20.9490217,16.2212388 20.7516124,15.7590825 20.6773414,15.2664982 L26.1763744,15.2664982 Z M19.5489274,25.383253 C19.4002951,25.3519287 19.276119,25.2565667 19.2083456,25.1215451 C19.1398051,24.9850896 19.13791,24.8272135 19.2031114,24.6883829 C19.4435672,24.1765738 19.7723721,23.7115495 20.1805017,23.3062609 L22.0855577,21.4143016 L22.7875677,22.111502 L20.8825117,24.0035061 C20.5599788,24.3238293 20.2993985,24.6916542 20.1079453,25.0967636 C20.0056084,25.3132103 19.775666,25.4308892 19.5489274,25.383253 Z M24.7351738,24.0458095 L22.1161505,24.0458095 L23.4256396,22.745292 L24.7351738,24.0458095 Z M27.6450995,25.1217244 C27.5774614,25.2565667 27.4535561,25.3518839 27.3092555,25.3823119 C27.3078567,25.3826256 27.3049689,25.3832081 27.3036153,25.383477 C27.0771473,25.4314269 26.8476111,25.313748 26.7453192,25.0976598 C26.5539112,24.6932675 26.2936468,24.3260699 25.9717005,24.0063293 L20.1804566,18.2528801 C19.2571226,17.3358721 18.7485963,16.1166005 18.7485963,14.8197576 C18.7485963,13.5228699 19.2571226,12.3036431 20.1804566,11.3865902 L22.0884455,9.49171806 L22.7889665,10.1874396 L20.8824666,12.0838354 C20.146615,12.8146455 19.7413732,13.7862806 19.7413732,14.8198024 C19.7413732,15.8533242 20.146615,16.8249593 20.8824666,17.5557246 L26.6737104,23.3092185 C27.0812986,23.7139694 27.4097876,24.1783663 27.650108,24.6893239 C27.7152644,24.8278409 27.7134595,24.9854481 27.6450995,25.1217244 L27.6450995,25.1217244 Z" id="XMLID_386_" fill-rule="nonzero"></path>
                <path d="M28.2431319,14.8186813 C28.148842,14.8186813 28.0563448,14.8570426 27.9896607,14.9237266 C27.9226181,14.9904107 27.8846154,15.082908 27.8846154,15.1771978 C27.8846154,15.2714876 27.9226181,15.3639849 27.9896607,15.4306331 C28.0563448,15.4973172 28.148842,15.5357143 28.2431319,15.5357143 C28.3374217,15.5357143 28.429919,15.497353 28.496603,15.4306331 C28.5632871,15.3639849 28.6016484,15.2714876 28.6016484,15.1771978 C28.6016484,15.082908 28.5632871,14.9904107 28.496603,14.9237266 C28.429919,14.8570426 28.3374217,14.8186813 28.2431319,14.8186813 L28.2431319,14.8186813 Z" id="XMLID_395_"></path>
                <rect id="Rectangle" x="16.7307692" y="27.8846154" width="13.3846154" height="1.11538462" rx="0.5"></rect>
            </g>
        </g>
    </g>
</svg>