<?xml version="1.0" encoding="UTF-8"?>
<svg width="45px" height="45px" viewBox="0 0 45 45" version="1.1" xmlns="http://www.w3.org/2000/svg" xmlns:xlink="http://www.w3.org/1999/xlink">
    <!-- Generator: sketchtool 52.1 (67048) - http://www.bohemiancoding.com/sketch -->
    <title>9A8C6387-5A77-457F-B119-77F916CE725E</title>
    <desc>Created with sketchtool.</desc>
    <g id="PASO-2" stroke="none" stroke-width="1" fill="none" fill-rule="evenodd">
        <g id="Iconos-beneficios" transform="translate(-724.000000, -251.000000)">
            <g id="Aseguradora-sin-logo" transform="translate(724.000000, 251.000000)">
                <g id="Convenio-Humana" fill="#FFFFFF" stroke="#DBE0E4">
                    <rect id="Rectangle" x="0.5" y="0.5" width="44" height="44" rx="6"></rect>
                </g>
                <g transform="translate(12.000000, 10.000000)" fill="#011AC5" fill-rule="nonzero" id="Shape">
                    <path d="M19.4291204,3.83824074 L10.3550463,0.070787037 C10.1277315,-0.0235648148 9.87222222,-0.0236111111 9.6449537,0.070787037 L0.57087963,3.83824074 C0.225277778,3.98175926 0,4.31916667 0,4.69337963 L0,9.27324074 C0,15.5793981 3.81152778,21.2519444 9.65009259,23.6350463 C9.87435185,23.7265741 10.1256019,23.7265741 10.3499074,23.6350463 C16.1883796,21.2519907 20,15.5794444 20,9.27324074 L20,4.69337963 C20,4.31916667 19.7747685,3.98175926 19.4291204,3.83824074 Z M18.1481481,9.27324074 C18.1481481,14.6341204 15,19.5691667 10,21.772037 C5.13361111,19.6280093 1.85185185,14.7793981 1.85185185,9.27324074 L1.85185185,5.31152778 L10,1.92847222 L18.1481481,5.31152778 L18.1481481,9.27324074 Z M8.97657407,12.3942593 L12.9563889,8.41449074 C13.317963,8.05291667 13.904213,8.05287037 14.2658333,8.41449074 C14.6274537,8.77611111 14.6274074,9.36236111 14.265787,9.72393519 L9.6312963,14.3584259 C9.26962963,14.7200926 8.68337963,14.7199537 8.32185185,14.3584259 L5.73416667,11.7707407 C5.3725463,11.4091204 5.3725463,10.8228704 5.73416667,10.4612963 C6.09578704,10.0997222 6.68203704,10.0996759 7.04361111,10.4612963 L8.97657407,12.3942593 Z"></path>
                </g>
            </g>
        </g>
    </g>
</svg>