<?xml version="1.0" encoding="UTF-8"?>
<svg width="45px" height="45px" viewBox="0 0 45 45" version="1.1" xmlns="http://www.w3.org/2000/svg" xmlns:xlink="http://www.w3.org/1999/xlink">
    <!-- Generator: sketchtool 52.1 (67048) - http://www.bohemiancoding.com/sketch -->
    <title>4DD2F13F-96A7-47C6-9044-D576C03198E2</title>
    <desc>Created with sketchtool.</desc>
    <g id="PASO-2" stroke="none" stroke-width="1" fill="none" fill-rule="evenodd">
        <g id="Iconos-beneficios" transform="translate(-1070.000000, -251.000000)">
            <g id="Paquetes" transform="translate(1070.000000, 251.000000)">
                <rect id="Rectangle" stroke="#DBE0E4" fill="#FFFFFF" x="0.5" y="0.5" width="44" height="44" rx="6"></rect>
                <g transform="translate(11.000000, 9.000000)" fill="#EF227B" fill-rule="nonzero" id="Shape">
                    <path d="M21.84375,4.12439062 L16.4035313,4.12439062 C17.1167813,3.10139062 17.0181563,1.6801875 16.1061563,0.768234375 C15.0826875,-0.25528125 13.4173594,-0.25528125 12.3938906,0.768234375 C12.279,0.883125 12.1417969,1.04948437 12.0000469,1.330875 C11.85825,1.04948437 11.7210938,0.883125 11.6062031,0.768234375 C10.5827344,-0.25528125 8.91740625,-0.25528125 7.8939375,0.768234375 C6.98198438,1.6801875 6.88335938,3.10134375 7.5965625,4.12439062 L2.15625,4.12439062 C0.9673125,4.12439062 2.84217094e-14,5.09170312 2.84217094e-14,6.28064062 L2.84217094e-14,7.96814062 C2.84217094e-14,8.92832813 0.630984375,9.743625 1.5,10.0219219 L1.5,21.8431406 C1.5,23.0320781 2.4673125,23.9993906 3.65625,23.9993906 L10.5,23.9993906 L13.5,23.9993906 L20.34375,23.9993906 C21.5326875,23.9993906 22.5,23.0320781 22.5,21.8431406 L22.5,10.0219219 C23.3690156,9.74357812 24,8.92828125 24,7.96814062 L24,6.28064062 C24,5.09170312 23.0326875,4.12439062 21.84375,4.12439062 Z M12.75,8.62439062 L11.25,8.62439062 L11.25,5.62439063 L12.75,5.62439063 L12.75,8.62439062 Z M12.9264375,3.48951563 C13.1580938,2.15709375 13.4248594,1.85854688 13.4545313,1.828875 C13.6738594,1.60954688 13.9619531,1.49990625 14.2500469,1.49990625 C14.5381406,1.49990625 14.8262344,1.60954688 15.0455625,1.828875 C15.4841719,2.26753125 15.4841719,2.98120313 15.0455625,3.41985938 C15.0160781,3.44934375 14.7193125,3.71460938 13.3969688,3.94584375 C13.2045,3.9795 13.0166719,4.00767188 12.843375,4.03096875 C12.8661563,3.86165625 12.893625,3.67814063 12.9264375,3.48951563 Z M8.95448438,1.828875 C9.1738125,1.60954688 9.46190625,1.49990625 9.75,1.49990625 C10.0380938,1.49990625 10.3261875,1.60954688 10.5455156,1.828875 C10.575,1.85835938 10.8402656,2.155125 11.0715,3.47742188 C11.1051563,3.66989063 11.1333281,3.85776563 11.156625,4.0310625 C10.9873125,4.00823438 10.80375,3.98076563 10.6151719,3.94795313 C9.28275,3.71629688 8.98420313,3.44953125 8.95453125,3.41985938 C8.515875,2.98125 8.515875,2.26753125 8.95448438,1.828875 Z M1.5,6.28064062 C1.5,5.91876563 1.794375,5.62439063 2.15625,5.62439063 L9.75,5.62439063 L9.75,8.62439062 L2.25,8.62439062 L2.15625,8.62439062 C1.794375,8.62439062 1.5,8.33001562 1.5,7.96814062 L1.5,6.28064062 Z M3,21.8431406 L3,10.1243906 L9.75,10.1243906 L9.75,22.4993906 L3.65625,22.4993906 C3.294375,22.4993906 3,22.2050156 3,21.8431406 Z M11.25,22.4993906 L11.25,10.1243906 L12.75,10.1243906 L12.75,22.4993906 L11.25,22.4993906 Z M21,21.8431406 C21,22.2050156 20.705625,22.4993906 20.34375,22.4993906 L14.25,22.4993906 L14.25,10.1243906 L21,10.1243906 L21,21.8431406 Z M22.5,7.96814063 C22.5,8.33001562 22.205625,8.62439063 21.84375,8.62439063 L21.75,8.62439063 L14.25,8.62439063 L14.25,5.62439063 L21.84375,5.62439063 C22.205625,5.62439063 22.5,5.91876562 22.5,6.28064063 L22.5,7.96814063 Z"></path>
                </g>
            </g>
        </g>
    </g>
</svg>