<?xml version="1.0" encoding="UTF-8"?>
<svg width="45px" height="45px" viewBox="0 0 45 45" version="1.1" xmlns="http://www.w3.org/2000/svg" xmlns:xlink="http://www.w3.org/1999/xlink">
    <!-- Generator: sketchtool 52.1 (67048) - http://www.bohemiancoding.com/sketch -->
    <title>0EF2D556-6423-4995-983C-E6017D273763</title>
    <desc>Created with sketchtool.</desc>
    <g id="PASO-2" stroke="none" stroke-width="1" fill="none" fill-rule="evenodd">
        <g id="Iconos-beneficios" transform="translate(-901.000000, -251.000000)">
            <g id="Tarjetas" transform="translate(901.000000, 251.000000)">
                <rect id="Rectangle" stroke="#DBE0E4" fill="#FFFFFF" x="0.5" y="0.5" width="44" height="44" rx="6"></rect>
                <g transform="translate(9.000000, 11.500000)" fill="#F76106" stroke="#FF5400" stroke-width="0.3">
                    <path d="M25.265625,0 L2.734375,0 C1.22664062,0 0,1.22664063 0,2.734375 L0,17.171875 C0,18.6796094 1.22664062,19.90625 2.734375,19.90625 L11.2109375,19.90625 C11.5129766,19.90625 11.7578125,19.6614141 11.7578125,19.359375 C11.7578125,19.0573359 11.5129766,18.8125 11.2109375,18.8125 L2.734375,18.8125 C1.82973437,18.8125 1.09375,18.0765156 1.09375,17.171875 L1.09375,10.5 L12.9794766,10.5 C13.0671406,10.9438437 13.3313359,11.3349687 13.7231719,11.5834141 C13.8507578,11.6642969 13.9864922,11.7257656 14.1263828,11.7690781 L13.1635547,13.4249062 C13.0521562,13.6164219 13.0673594,13.8562266 13.202,14.0321562 C13.3366406,14.2080859 13.5641406,14.2853594 13.7780781,14.2279922 L15.087625,13.8765156 L15.4380078,15.1863359 C15.4951562,15.4000547 15.6754609,15.5582656 15.8948125,15.5871953 C15.9188203,15.5903672 15.9427187,15.5918984 15.9665078,15.5918984 C16.1599922,15.5918984 16.3414453,15.4890859 16.4399375,15.3184609 L18.93325,10.9998984 L22.0569453,16.5536328 C22.1546172,16.7272656 22.3377109,16.8324297 22.5334375,16.8324297 C22.5561875,16.8324297 22.5790469,16.8310078 22.6020156,16.8281094 C22.822625,16.8002734 23.0044062,16.6416797 23.0618828,16.4268672 L23.4123203,15.1169922 L24.7218672,15.4684687 C24.9348203,15.5255625 25.1612812,15.4493281 25.2961953,15.274875 C25.4311094,15.1004766 25.4480625,14.8621484 25.3392891,14.6703594 L23.7310937,11.8363984 C23.7818984,11.8411016 23.8328125,11.844 23.8837266,11.844 C24.1945703,11.844 24.5038281,11.7563906 24.7768281,11.5833594 C25.1686641,11.3349687 25.4329141,10.9437891 25.5205234,10.4999453 L26.90625,10.4999453 L26.90625,17.1718203 C26.90625,18.0764609 26.1702656,18.8124453 25.265625,18.8124453 L19.796875,18.8124453 L19.796875,15.8593203 C19.796875,15.5572813 19.5520391,15.3124453 19.25,15.3124453 C18.9479609,15.3124453 18.703125,15.5572813 18.703125,15.8593203 L18.703125,18.8124453 L15.8612891,18.8124453 C15.55925,18.8124453 15.3144141,19.0572812 15.3144141,19.3593203 C15.3144141,19.6613594 15.55925,19.9061953 15.8612891,19.9061953 L25.265625,19.9061953 C26.7733594,19.9061953 28,18.6795547 28,17.1718203 L28,2.734375 C28,1.22664063 26.7733594,0 25.265625,0 Z M14.3088203,10.6595781 C14.1386875,10.5517344 14.041125,10.3743828 14.041125,10.1729141 L14.041125,6.34134375 L14.0410703,6.34134375 C14.0410703,6.139875 14.1386328,5.96252344 14.3087656,5.85467969 C14.4788984,5.74678125 14.6809687,5.73425781 14.8631328,5.82022656 L17.5463203,7.0861875 C17.4800937,7.26583594 17.4438906,7.45986719 17.4438906,7.66221094 L17.4438906,8.83203125 C17.4438906,9.04082813 17.4827187,9.24060156 17.5530469,9.42495313 L14.8631875,10.6940313 C14.6810234,10.7798906 14.4790078,10.7674219 14.3088203,10.6595781 Z M16.1532656,13.6275234 L16.0028203,13.0651172 C15.9653047,12.9249531 15.8736484,12.8053516 15.7479766,12.7328359 C15.6223047,12.6602109 15.4729531,12.6406328 15.3327891,12.6782578 L14.7760703,12.8276641 L15.4837266,11.6106484 L18.0043281,10.4214141 L16.1532656,13.6275234 Z M15.3298906,4.83098437 C14.8095937,4.58554687 14.2090156,4.62289844 13.7232266,4.93084375 C13.2374375,5.23878906 12.947375,5.76608594 12.947375,6.34128906 L12.947375,9.40625 L1.09375,9.40625 L1.09375,2.734375 C1.09375,1.82973437 1.82973437,1.09375 2.734375,1.09375 L18.703125,1.09375 L18.703125,5.77866406 C18.703125,5.86911719 18.7254375,5.95415625 18.7643203,6.02929688 C18.5889922,6.0668125 18.4239453,6.132 18.2736094,6.21988281 L15.3298906,4.83098437 Z M19.3945938,9.40821875 L19.1138281,9.40821875 C18.7960938,9.40821875 18.5375859,9.14971094 18.5375859,8.83203125 L18.5375859,7.66215625 C18.5375859,7.34442188 18.7960938,7.08596875 19.1138281,7.08596875 L19.3945938,7.08596875 C19.7123281,7.08596875 19.9708359,7.34442188 19.9708359,7.66215625 L19.9708359,8.83203125 C19.9708359,9.14976562 19.7123281,9.40821875 19.3945938,9.40821875 Z M23.7428516,14.0732266 L23.1672109,13.9187344 C23.0270469,13.8811094 22.8776953,13.9007969 22.7520234,13.9733125 C22.6263516,14.0458828 22.5346406,14.1654297 22.4971797,14.3055938 L22.3522031,14.8474375 L19.8692266,10.4328438 C19.9896484,10.3970781 20.1043828,10.3480781 20.2118437,10.2874844 L22.1000937,11.1783984 L23.7428516,14.0732266 Z M24.1912344,10.6596328 C24.0210469,10.7675312 23.8190313,10.7800547 23.6368672,10.6940859 L20.9541172,9.42834375 C21.0252109,9.24300781 21.0645859,9.04208594 21.0645859,8.83203125 L21.0645859,7.66215625 C21.0645859,7.45855469 21.0278359,7.263375 20.9608437,7.08279687 L23.6368672,5.82022656 C23.8190859,5.7343125 24.0210469,5.74683594 24.1912344,5.85467969 C24.3613672,5.96252344 24.4589297,6.13992969 24.4589297,6.34134375 L24.4589297,10.1729687 C24.4589297,10.3743828 24.3613672,10.5517891 24.1912344,10.6596328 Z M26.9063047,9.40625 L25.5526797,9.40625 L25.5526797,6.34134375 C25.5526797,5.76614063 25.2626172,5.23884375 24.7768281,4.93089844 C24.2909844,4.62295313 23.6903516,4.58565625 23.1701641,4.83103906 L20.2310937,6.21769531 C20.0796094,6.12964844 19.9133047,6.06446094 19.7366094,6.02754688 C19.7748906,5.95284375 19.7969297,5.86840625 19.7969297,5.77866406 L19.7969297,1.09375 L25.2656797,1.09375 C26.1703203,1.09375 26.9063047,1.82973437 26.9063047,2.734375 L26.9063047,9.40625 Z" id="Shape" fill-rule="nonzero"></path>
                    <path d="M13.8807813,18.9727344 C13.7790625,18.8710156 13.6379688,18.8125 13.4941406,18.8125 C13.3503125,18.8125 13.2092187,18.8710156 13.1075,18.9727344 C13.0057813,19.0744531 12.9472656,19.2155469 12.9472656,19.359375 C12.9472656,19.5032031 13.0057813,19.6442969 13.1075,19.7460156 C13.2092188,19.8477344 13.3503125,19.90625 13.4941406,19.90625 C13.6379688,19.90625 13.7790625,19.8477344 13.8807813,19.7460156 C13.9830469,19.6442969 14.0410156,19.5032031 14.0410156,19.359375 C14.0410156,19.2155469 13.9830469,19.0744531 13.8807813,18.9727344 Z" id="Path"></path>
                    <path d="M11.5664062,14.3605324 L3.5,14.3605324 C3.19796094,14.3605324 2.953125,14.6053683 2.953125,14.9074074 C2.953125,15.2094465 3.19796094,15.4542824 3.5,15.4542824 L11.5664062,15.4542824 C11.8684453,15.4542824 12.1132812,15.2094465 12.1132812,14.9074074 C12.1132812,14.6053683 11.8684453,14.3605324 11.5664062,14.3605324 Z" id="Path"></path>
                </g>
            </g>
        </g>
    </g>
</svg>