<?xml version="1.0" encoding="UTF-8"?>
<svg width="19px" height="21px" viewBox="0 0 19 21" version="1.1" xmlns="http://www.w3.org/2000/svg" xmlns:xlink="http://www.w3.org/1999/xlink">
    <!-- Generator: Sketch 52.1 (67048) - http://www.bohemiancoding.com/sketch -->
    <title>Icon Path</title>
    <desc>Created with Sketch.</desc>
    <g id="Tarifarios-2.0*" stroke="none" stroke-width="1" fill="none" fill-rule="evenodd">
        <g id="Tarifario-18" transform="translate(-791.000000, -732.000000)" fill="#FFFFFF">
            <g id="Group-9" transform="translate(313.000000, 696.000000)">
                <g id="Group-14" transform="translate(467.000000, 27.000000)">
                    <g id="ic-round-attachment" transform="translate(20.736248, 19.936248) rotate(-45.000000) translate(-20.736248, -19.936248) translate(8.336248, 7.536248)">
                        <g id="Icon" transform="translate(0.775000, 6.200000)">
                            <path d="M17.5666667,10.3333333 L6.634,10.3333333 C4.47433333,10.3333333 2.55233333,8.75233333 2.34566667,6.603 C2.23130435,5.44224174 2.61294,4.28722733 3.39635458,3.42310924 C4.17976915,2.55899115 5.29195504,2.0662979 6.45833333,2.06666667 L19.2303333,2.06666667 C20.584,2.06666667 21.8136667,3.038 21.948,4.38133333 C22.024185,5.1099018 21.7874743,5.83655898 21.2967774,6.38046401 C20.8060804,6.92436904 20.1075402,7.2343756 19.375,7.23333333 L8.525,7.23333333 C7.95666667,7.23333333 7.49166667,6.76833333 7.49166667,6.2 C7.49166667,5.63166667 7.95666667,5.16666667 8.525,5.16666667 L17.5666667,5.16666667 C17.9903333,5.16666667 18.3416667,4.81533333 18.3416667,4.39166667 C18.3416667,3.968 17.9903333,3.61666667 17.5666667,3.61666667 L8.66966667,3.61666667 C7.316,3.61666667 6.08633333,4.588 5.952,5.93133333 C5.87581501,6.6599018 6.11252569,7.38655898 6.60322262,7.93046401 C7.09391955,8.47436904 7.79245985,8.7843756 8.525,8.78333333 L19.1993333,8.78333333 C21.359,8.78333333 23.281,7.20233333 23.4876667,5.053 C23.6036869,3.89187462 23.2226262,2.73591711 22.4388563,1.87140708 C21.6550863,1.00689706 20.5419057,0.514683756 19.375,0.516666667 L6.696,0.516666667 C3.73033333,0.516666667 1.07466667,2.68666667 0.795666667,5.642 C0.639681058,7.23945021 1.16580912,8.82845736 2.24430514,10.0171647 C3.32280116,11.2058719 4.85328548,11.883642 6.45833333,11.8833333 L17.5666667,11.8833333 C17.9903333,11.8833333 18.3416667,11.532 18.3416667,11.1083333 C18.3416667,10.6846667 17.9903333,10.3333333 17.5666667,10.3333333 Z" id="Icon-Path"></path>
                        </g>
                    </g>
                </g>
            </g>
        </g>
    </g>
</svg>