<?xml version="1.0" encoding="UTF-8"?>
<svg width="18px" height="18px" viewBox="0 0 18 18" version="1.1" xmlns="http://www.w3.org/2000/svg" xmlns:xlink="http://www.w3.org/1999/xlink">
    <!-- Generator: sketchtool 52.1 (67048) - http://www.bohemiancoding.com/sketch -->
    <title>2C9185F9-A566-4771-A72E-FE85F70E1510</title>
    <desc>Created with sketchtool.</desc>
    <g id="Tarifarios-2.0*" stroke="none" stroke-width="1" fill="none" fill-rule="evenodd">
        <g id="Tarifario-20" transform="translate(-494.000000, -736.000000)">
            <g id="Group-20" transform="translate(494.000000, 736.000000)">
                <circle id="Oval" fill="#8B97A3" cx="9" cy="9" r="9"></circle>
                <path d="M12.4159895,5.57052632 C12.3027523,5.45684211 12.1612058,5.4 11.9913499,5.4 C11.8214941,5.4 11.6799476,5.45684211 11.5667104,5.57052632 L9,8.14736842 L6.43328965,5.57052632 C6.32005242,5.45684211 6.1785059,5.4 6.00865007,5.4 C5.83879423,5.4 5.69724771,5.45684211 5.58401048,5.57052632 C5.47077326,5.68421053 5.41415465,5.82631579 5.41415465,5.99684211 C5.41415465,6.16736842 5.47077326,6.30947368 5.58401048,6.42315789 L8.15072084,9 L5.58401048,11.5768421 C5.508519,11.6526316 5.45504587,11.7410526 5.42359109,11.8421053 C5.3921363,11.9431579 5.3921363,12.0473684 5.42359109,12.1547368 C5.45504587,12.2621053 5.508519,12.3536842 5.58401048,12.4294737 C5.69724771,12.5431579 5.83879423,12.6 6.00865007,12.6 C6.1785059,12.6 6.32005242,12.5431579 6.43328965,12.4294737 L9,9.85263158 L11.5667104,12.4294737 C11.6799476,12.5431579 11.8214941,12.6 11.9913499,12.6 C12.1612058,12.6 12.3027523,12.5431579 12.4159895,12.4294737 C12.491481,12.3536842 12.5449541,12.2621053 12.5764089,12.1547368 C12.6078637,12.0473684 12.6078637,11.9431579 12.5764089,11.8421053 C12.5449541,11.7410526 12.491481,11.6526316 12.4159895,11.5768421 L9.84927916,9 L12.4159895,6.42315789 C12.5292267,6.30947368 12.5858453,6.16736842 12.5858453,5.99684211 C12.5858453,5.82631579 12.5292267,5.68421053 12.4159895,5.57052632 Z" id="Icon-Path" fill="#FFFFFF"></path>
            </g>
        </g>
    </g>
</svg>