<?xml version="1.0" encoding="UTF-8"?>
<svg width="16px" height="20px" viewBox="0 0 16 20" version="1.1" xmlns="http://www.w3.org/2000/svg" xmlns:xlink="http://www.w3.org/1999/xlink">
    <!-- Generator: sketchtool 52.1 (67048) - http://www.bohemiancoding.com/sketch -->
    <title>CA96303A-FD25-4618-94AC-A14490A1763C</title>
    <desc>Created with sketchtool.</desc>
    <g id="Tarifarios-2.0*" stroke="none" stroke-width="1" fill="none" fill-rule="evenodd">
        <g id="Tarifario-17" transform="translate(-877.000000, -922.000000)" fill="#FF5964" fill-rule="nonzero" stroke="#FFFFFF" stroke-width="0.3">
            <g id="Button-eliminar" transform="translate(865.000000, 912.000000)">
                <g id="Eliminar-icon" transform="translate(12.000000, 10.789474)">
                    <g id="Icon">
                        <path d="M6.28571429,15.0025063 C6.75910121,15.0025063 7.14285714,14.5884538 7.14285714,14.0776942 L7.14285714,8.52882206 C7.14285714,8.01806247 6.75910121,7.60401003 6.28571429,7.60401003 C5.81232736,7.60401003 5.42857143,8.01806247 5.42857143,8.52882206 L5.42857143,14.0776942 C5.42857143,14.5884538 5.81232736,15.0025063 6.28571429,15.0025063 Z M14.8571429,3.9047619 L11.4285714,3.9047619 L11.4285714,2.97994987 C11.4285714,1.44767113 10.2773036,0.205513784 8.85714286,0.205513784 L7.14285714,0.205513784 C5.72269636,0.205513784 4.57142857,1.44767113 4.57142857,2.97994987 L4.57142857,3.9047619 L1.14285714,3.9047619 C0.669470214,3.9047619 0.285714286,4.31881435 0.285714286,4.82957393 C0.285714286,5.34033352 0.669470214,5.75438596 1.14285714,5.75438596 L2,5.75438596 L2,15.9273183 C2,17.459597 3.15126779,18.7017544 4.57142857,18.7017544 L11.4285714,18.7017544 C12.8487322,18.7017544 14,17.459597 14,15.9273183 L14,5.75438596 L14.8571429,5.75438596 C15.3305298,5.75438596 15.7142857,5.34033352 15.7142857,4.82957393 C15.7142857,4.31881435 15.3305298,3.9047619 14.8571429,3.9047619 Z M6.28571429,2.97994987 C6.28571429,2.46919029 6.66947021,2.05513784 7.14285714,2.05513784 L8.85714286,2.05513784 C9.33052979,2.05513784 9.71428571,2.46919029 9.71428571,2.97994987 L9.71428571,3.9047619 L6.28571429,3.9047619 L6.28571429,2.97994987 Z M12.2857143,15.9273183 C12.2857143,16.4380779 11.9019584,16.8521303 11.4285714,16.8521303 L4.57142857,16.8521303 C4.09804164,16.8521303 3.71428571,16.4380779 3.71428571,15.9273183 L3.71428571,5.75438596 L12.2857143,5.75438596 L12.2857143,15.9273183 Z M9.71428571,15.0025063 C10.1876726,15.0025063 10.5714286,14.5884538 10.5714286,14.0776942 L10.5714286,8.52882206 C10.5714286,8.01806247 10.1876726,7.60401003 9.71428571,7.60401003 C9.24089879,7.60401003 8.85714286,8.01806247 8.85714286,8.52882206 L8.85714286,14.0776942 C8.85714286,14.5884538 9.24089879,15.0025063 9.71428571,15.0025063 Z" id="Icon-Shape"></path>
                    </g>
                </g>
            </g>
        </g>
    </g>
</svg>