<?xml version="1.0" encoding="UTF-8"?>
<svg width="28px" height="36px" viewBox="0 0 28 36" version="1.1" xmlns="http://www.w3.org/2000/svg" xmlns:xlink="http://www.w3.org/1999/xlink">
    <!-- Generator: sketchtool 52.1 (67048) - http://www.bohemiancoding.com/sketch -->
    <title>8EB343A4-B7AB-4464-A7CE-647D97E56266</title>
    <desc>Created with sketchtool.</desc>
    <g id="Convenios-2.0*" stroke="none" stroke-width="1" fill="none" fill-rule="evenodd">
        <g id="Convenios-025" transform="translate(-1393.000000, -1308.000000)">
            <g id="Group-2" transform="translate(1221.000000, 1308.000000)">
                <g id="Descargar-archivo" transform="translate(172.200000, 0.000000)">
                    <path d="M8.16195318,31.5575196 L7.05412709,29.8906303 L8.08525753,28.3865092 C8.26786622,28.1191891 8.35917057,27.9088973 8.35917057,27.7532576 C8.35917057,27.6463295 8.31656187,27.5536586 8.23256187,27.4764328 C8.14734448,27.3980189 8.03899666,27.36 7.906301,27.36 C7.83204013,27.36 7.76751839,27.373069 7.71151839,27.3956427 C7.65551839,27.4217806 7.60560535,27.4574233 7.56056187,27.506135 C7.51551839,27.5548467 7.46804013,27.6166273 7.41934448,27.6902888 C7.37064883,27.7651385 7.31099666,27.8542452 7.24282274,27.958797 L6.40525753,29.1979742 L5.62004013,27.958797 C5.47517057,27.7283077 5.36073579,27.572668 5.27917057,27.4859375 C5.19760535,27.4027712 5.08317057,27.36 4.93586622,27.36 C4.80682274,27.36 4.69725753,27.3980189 4.60838796,27.4764328 C4.52073579,27.5536586 4.47447492,27.6415772 4.47447492,27.7390005 C4.47447492,27.8340476 4.49882274,27.9338471 4.54386622,28.0360228 C4.59134448,28.1405747 4.66073579,28.264136 4.75204013,28.4078948 L5.73812709,29.8906303 L4.56821405,31.5575196 C4.3929097,31.8058303 4.30769231,32.0161221 4.30769231,32.1872069 C4.30769231,32.3333419 4.34786622,32.4450223 4.43308361,32.5222481 C4.518301,32.5982859 4.62543144,32.6363047 4.75204013,32.6363047 C4.83725753,32.6363047 4.90908361,32.6232357 4.97117057,32.5982859 C5.03325753,32.5721479 5.08682274,32.5376933 5.13186622,32.493734 C5.1769097,32.4497747 5.21464883,32.4046273 5.24751839,32.3582918 C5.27917057,32.3119563 5.33395318,32.2299782 5.40943144,32.1147335 L6.38699666,30.6593241 L7.30734448,32.0731504 C7.42421405,32.2466114 7.50334448,32.3642323 7.54595318,32.4236367 C7.58856187,32.4842293 7.64456187,32.5353171 7.71395318,32.5745241 C7.78212709,32.6172953 7.86734448,32.6363047 7.96717057,32.6363047 C8.05969231,32.6363047 8.14247492,32.6172953 8.21673579,32.5769002 C8.28977926,32.5376933 8.34699666,32.4842293 8.38838796,32.4176963 C8.42856187,32.3499752 8.44925753,32.2751256 8.44925753,32.1943355 C8.44925753,32.1087931 8.42612709,32.0184983 8.38108361,31.9210749 C8.33604013,31.8260278 8.26299666,31.7036546 8.16195318,31.5575196" id="Fill-1" fill="#171D49"></path>
                    <path d="M22.5728696,33.4870106 C22.5728696,34.2034285 21.9763478,34.7867803 21.2410435,34.7867803 L2.47130435,34.7867803 C1.73965217,34.7867803 1.14191304,34.2034285 1.14191304,33.4870106 L1.14191304,7.410826 C1.14191304,6.69322005 1.73965217,6.11105628 2.47130435,6.11105628 L13.4010435,6.11105628 C13.8514783,6.11105628 14.4151304,6.25006273 14.9422609,6.46748308 C14.8144348,6.69797241 14.7328696,7.00568754 14.7328696,7.410826 L14.7328696,11.3493421 C14.7328696,12.6800022 15.8431304,13.7623516 17.2053913,13.7623516 L21.2410435,13.7623516 C21.6829565,13.7623516 21.9787826,13.6684925 22.2027826,13.5484955 C22.4267826,14.0665024 22.5728696,14.6201521 22.5728696,15.0621213 L22.5728696,33.4870106 Z M21.3932174,12.2855565 C21.476,12.3663466 21.5502609,12.4827794 21.6293913,12.5837669 C21.6306087,12.5873312 21.6342609,12.5920836 21.6342609,12.5944598 C21.5721739,12.6194096 21.4528696,12.6491119 21.2398261,12.6491119 L17.2053913,12.6491119 C16.4688696,12.6491119 15.8735652,12.0645719 15.8735652,11.3493421 L15.8735652,7.410826 C15.8735652,7.20291037 15.9027826,7.08410144 15.9283478,7.02707315 C15.932,7.02707315 15.9368696,7.03182551 15.9405217,7.0330136 C16.0427826,7.10905132 16.162087,7.18033667 16.2436522,7.26112675 L21.3932174,12.2855565 Z M22.2027826,11.4990414 L17.052,6.47342352 C16.2046957,5.64532526 14.6001739,4.99781658 13.4010435,4.99781658 L2.47130435,4.99781658 C1.10904348,4.99781658 3.41060513e-13,6.08016596 3.41060513e-13,7.410826 L3.41060513e-13,33.4870106 C3.41060513e-13,34.8176707 1.10904348,35.90002 2.47130435,35.90002 L21.2410435,35.90002 C22.6033043,35.90002 23.7135652,34.8176707 23.7135652,33.4870106 L23.7135652,15.0621213 C23.7135652,14.0059099 23.1718261,12.6348548 22.4462609,11.7687377 C22.3768696,11.6808191 22.2977391,11.5917124 22.2027826,11.4990414 Z" id="Fill-5" fill="#171D49"></path>
                    <path d="M12.9001338,31.7000903 L10.7514381,31.7000903 L10.7514381,27.9861231 C10.7514381,27.7746432 10.7015251,27.6178154 10.6029164,27.5144516 C10.5043077,27.4122759 10.3764816,27.36 10.2170033,27.36 C10.0599599,27.36 9.93213378,27.4122759 9.83717726,27.5168278 C9.73978595,27.6201916 9.69230769,27.7770194 9.69230769,27.9861231 L9.69230769,31.9163226 C9.69230769,32.1384953 9.74222074,32.3000754 9.84448161,32.3998749 C9.94430769,32.4996744 10.1110903,32.5495742 10.3411773,32.5495742 L12.9001338,32.5495742 C13.0730033,32.5495742 13.2044816,32.5103672 13.2945686,32.4331414 C13.3846555,32.3547275 13.4309164,32.25374 13.4309164,32.1278025 C13.4309164,32.0054293 13.3834381,31.9032536 13.2921338,31.8224635 C13.2008294,31.7404854 13.0693512,31.7000903 12.9001338,31.7000903" id="Fill-7" fill="#171D49"></path>
                    <path d="M23.1434609,8.25745846 L20.4652,5.30386839 L21.1834609,5.30386839 C21.4963304,5.30386839 21.7532,5.05436963 21.7532,4.74665449 L21.7532,1.11466541 L24.531287,1.11466541 L24.531287,4.74665449 C24.531287,5.05436963 24.7869391,5.30386839 25.1010261,5.30386839 L25.8205043,5.30386839 L23.1434609,8.25745846 Z M27.6076348,4.51735325 C27.515113,4.31775424 27.3118087,4.1894406 27.0878087,4.1894406 L25.6732,4.1894406 L25.6732,0.557451514 C25.6732,0.249736377 25.4187652,0.000237617866 25.1022435,0.000237617866 L21.1834609,0.000237617866 C20.8681565,0.000237617866 20.611287,0.249736377 20.611287,0.557451514 L20.611287,4.1894406 L19.199113,4.1894406 C18.9738957,4.1894406 18.7705913,4.31775424 18.6780696,4.51735325 C18.5867652,4.71814035 18.623287,4.94981777 18.7718087,5.11496218 L22.7149391,9.46574531 C22.8220696,9.58574233 22.979113,9.65465151 23.1434609,9.65465151 C23.3078087,9.65465151 23.4624174,9.58574233 23.5719826,9.46574531 L27.515113,5.11496218 C27.6636348,4.94981777 27.6989391,4.71814035 27.6076348,4.51735325 Z" id="Fill-9" fill="#009110"></path>
                    <path d="M18.2,30.9293139 C18.2,31.2864051 18.1177359,31.5921401 17.9532051,31.8465281 C17.7886744,32.100916 17.5456213,32.2936792 17.2240385,32.4248233 C16.9024557,32.5559674 16.5113271,32.6215385 16.050641,32.6215385 C15.6108952,32.6215385 15.2339759,32.5504373 14.9198718,32.4082328 C14.6057677,32.2660284 14.3739324,32.0882755 14.224359,31.8749688 C14.0747856,31.6616621 14,31.4475686 14,31.2326819 C14,31.0904775 14.0478628,30.9688155 14.1435897,30.8676923 C14.2393167,30.7665691 14.3604694,30.7160083 14.5070513,30.7160083 C14.6356844,30.7160083 14.7344014,30.7491889 14.8032051,30.8155509 C14.8720089,30.881913 14.9378202,30.9751345 15.000641,31.0952183 C15.1262827,31.3259055 15.2766017,31.4981283 15.4516026,31.6118919 C15.6266034,31.7256555 15.8651694,31.7825364 16.1673077,31.7825364 C16.4126081,31.7825364 16.6137813,31.7248654 16.7708333,31.6095218 C16.9278854,31.4941782 17.0064103,31.3622461 17.0064103,31.2137214 C17.0064103,30.9861943 16.924894,30.8202916 16.761859,30.7160083 C16.598824,30.6117251 16.3303437,30.5121834 15.9564103,30.4173805 C15.5346133,30.306777 15.1913475,30.1906451 14.9266026,30.0689813 C14.6618577,29.9473175 14.4502145,29.7869449 14.2916667,29.5878586 C14.1331189,29.3887724 14.0538462,29.1438684 14.0538462,28.8531393 C14.0538462,28.5940112 14.127136,28.3491072 14.2737179,28.11842 C14.4202999,27.8877327 14.6364302,27.7036597 14.9221154,27.5661954 C15.2078006,27.4287311 15.5525621,27.36 15.9564103,27.36 C16.2735059,27.36 16.5584389,27.3947606 16.8112179,27.4642827 C17.063997,27.5338049 17.2748923,27.6270264 17.4439103,27.7439501 C17.6129282,27.8608738 17.7415594,27.9904359 17.8298077,28.1326403 C17.918056,28.2748448 17.9621795,28.4138871 17.9621795,28.5497713 C17.9621795,28.698296 17.9150646,28.8199579 17.8208333,28.9147609 C17.7266021,29.0095639 17.5927359,29.0569647 17.4192308,29.0569647 C17.2935891,29.0569647 17.1866457,29.019044 17.0983974,28.9432017 C17.0101491,28.8673593 16.9091886,28.7535974 16.7955128,28.6019127 C16.7027773,28.4755087 16.5935904,28.3743871 16.4679487,28.2985447 C16.3423071,28.2227023 16.1717959,28.1847817 15.9564103,28.1847817 C15.7350416,28.1847817 15.5510691,28.2345525 15.4044872,28.3340956 C15.2579053,28.4336388 15.1846154,28.5576708 15.1846154,28.7061954 C15.1846154,28.8420797 15.238461,28.9534715 15.3461538,29.0403742 C15.4538467,29.1272769 15.5989307,29.1991681 15.7814103,29.2560499 C15.9638898,29.3129317 16.2151693,29.3824528 16.5352564,29.4646154 C16.9151728,29.5625785 17.225533,29.6795004 17.4663462,29.8153846 C17.7071593,29.9512689 17.8896361,30.1116415 18.0137821,30.2965073 C18.137928,30.4813731 18.2,30.6923065 18.2,30.9293139 Z" id="s" fill="#171D49"></path>
                </g>
            </g>
        </g>
    </g>
</svg>