<?xml version="1.0" encoding="utf-8"?>
<!-- Generator: Adobe Illustrator 25.0.0, SVG Export Plug-In . SVG Version: 6.00 Build 0)  -->
<svg version="1.1" id="Capa_1" xmlns="http://www.w3.org/2000/svg" xmlns:xlink="http://www.w3.org/1999/xlink" x="0px" y="0px"
	 viewBox="0 0 16 17" style="enable-background:new 0 0 16 17;" xml:space="preserve">
<style type="text/css">
	.st0{fill:#D93025;}
</style>
<desc>Created with sketchtool.</desc>
<g id="Agenda-6">
	<g id="Sobrecupos-000--opcion2" transform="translate(-859.000000, -504.000000)">
		<path id="Eliminar-icon" class="st0" d="M866,517.4c0.5,0,0.8-0.4,0.8-0.8v-4.9c0-0.5-0.4-0.8-0.8-0.8c-0.5,0-0.8,0.4-0.8,0.8v4.9
			C865.2,517,865.5,517.4,866,517.4z M874.2,507.6h-3.3v-0.8c0-1.4-1.1-2.5-2.5-2.5h-1.6c-1.4,0-2.5,1.1-2.5,2.5v0.8h-3.3
			c-0.5,0-0.8,0.4-0.8,0.8c0,0.5,0.4,0.8,0.8,0.8h0.8v9c0,1.4,1.1,2.5,2.5,2.5h6.6c1.4,0,2.5-1.1,2.5-2.5v-9h0.8
			c0.5,0,0.8-0.4,0.8-0.8C875,507.9,874.6,507.6,874.2,507.6z M866,506.7c0-0.5,0.4-0.8,0.8-0.8h1.6c0.5,0,0.8,0.4,0.8,0.8v0.8H866
			V506.7z M871.7,518.2c0,0.5-0.4,0.8-0.8,0.8h-6.6c-0.5,0-0.8-0.4-0.8-0.8v-9h8.2V518.2z M869.3,517.4c0.5,0,0.8-0.4,0.8-0.8v-4.9
			c0-0.5-0.4-0.8-0.8-0.8c-0.5,0-0.8,0.4-0.8,0.8v4.9C868.4,517,868.8,517.4,869.3,517.4z"/>
	</g>
</g>
</svg>
