<?xml version="1.0" encoding="utf-8"?>
<!-- Generator: Adobe Illustrator 25.0.0, SVG Export Plug-In . SVG Version: 6.00 Build 0)  -->
<svg version="1.1" id="Capa_1" xmlns="http://www.w3.org/2000/svg" xmlns:xlink="http://www.w3.org/1999/xlink" x="0px" y="0px"
	 viewBox="0 0 20 21" style="enable-background:new 0 0 20 21;" xml:space="preserve">
<style type="text/css">
	.st0{fill:#CED8E1;}
	.st1{fill-rule:evenodd;clip-rule:evenodd;fill:#FFFFFF;}
	.st2{fill:#3962E6;}
</style>
<desc>Created with sketchtool.</desc>
<g id="Tarifarios-2.0_x2A_">
	<g id="Tarifario-15" transform="translate(-1569.000000, -509.000000)">
		<g id="Parametros-Profesionales" transform="translate(55.000000, 508.000000)">
			<g id="uil-edit-alt" transform="translate(1512.305122, 0.000000)">
				<g id="Icon">
					<path id="Icon-Shape" class="st0" d="M4.7,17.6h4c0.3,0,0.5-0.1,0.7-0.3l6.6-6.8l2.7-2.7c0.2-0.2,0.3-0.4,0.3-0.7
						c0-0.3-0.1-0.5-0.3-0.7l-4-4.2C14.5,2.1,14.2,2,14,2s-0.5,0.1-0.7,0.3L10.6,5l-6.6,6.8c-0.2,0.2-0.3,0.4-0.3,0.7v4.2
						C3.8,17.2,4.2,17.6,4.7,17.6z M14,4.3l2.7,2.8l-1.3,1.4l-2.7-2.8L14,4.3z M5.7,12.9l5.6-5.8L14,9.9l-5.6,5.8H5.7V12.9z
						 M19.9,19.6h-17c-0.5,0-0.9,0.4-0.9,1s0.4,1,0.9,1h17c0.5,0,0.9-0.4,0.9-1S20.4,19.6,19.9,19.6z"/>
				</g>
			</g>
		</g>
	</g>
</g>
<desc>Created with Sketch.</desc>
<g id="Convenios-2.0_x2A_">
	<g id="Convenios-035" transform="translate(-264.000000, -952.000000)">
		<rect x="-98.4" y="-97.6" class="st1" width="1680" height="3262.6"/>
		<g id="info-icon" transform="translate(364.000000, 1052.000000)">
			
				<g id="uil-exclamation-circle-copy" transform="translate(8.500000, 8.500000) rotate(-180.000000) translate(-8.500000, -8.500000) ">
				<g id="Icon_1_">
					<path id="Icon-Shape_1_" class="st2" d="M105.9,109.5c0,0.6,0.5,1,1,1c0.6,0,1-0.5,1-1c0-0.6-0.5-1-1-1
						C106.4,108.4,105.9,108.9,105.9,109.5z M106.9,107.2c0.5,0,0.8-0.4,0.8-0.8v-3.9c0-0.5-0.4-0.8-0.8-0.8c-0.5,0-0.8,0.4-0.8,0.8
						v3.9C106.1,106.8,106.5,107.2,106.9,107.2z M106.9,97.8c-4.5,0-8.2,3.7-8.2,8.2c0,4.5,3.7,8.2,8.2,8.2s8.2-3.7,8.2-8.2
						C115.2,101.5,111.5,97.8,106.9,97.8z M106.9,112.6c-3.6,0-6.6-2.9-6.6-6.6c0-3.6,2.9-6.6,6.6-6.6c3.6,0,6.6,2.9,6.6,6.6
						C113.5,109.7,110.6,112.6,106.9,112.6z"/>
				</g>
			</g>
		</g>
	</g>
</g>
</svg>
