<?xml version="1.0" encoding="UTF-8"?>
<svg width="18px" height="19px" viewBox="0 0 18 19" version="1.1" xmlns="http://www.w3.org/2000/svg" xmlns:xlink="http://www.w3.org/1999/xlink">
    <!-- Generator: sketchtool 52.1 (67048) - http://www.bohemiancoding.com/sketch -->
    <title>4F2C7DDC-27D4-4996-A9E1-A559778AAF4E</title>
    <desc>Created with sketchtool.</desc>
    <g id="Convenios-2.0*" stroke="none" stroke-width="1" fill="none" fill-rule="evenodd">
        <g id="Convenios-029" transform="translate(-481.000000, -486.000000)" fill="#8B97A3" fill-rule="nonzero">
            <g id="Modal">
                <g id="Group-5" transform="translate(481.000000, 485.000000)">
                    <g id="Info" transform="translate(0.000000, 1.500000)">
                        <g id="Icon">
                            <path d="M9,10.74 C8.39939033,10.74 7.9125,11.2268903 7.9125,11.8275 C7.9125,12.4281097 8.39939033,12.915 9,12.915 C9.60060967,12.915 10.0875,12.4281097 10.0875,11.8275 C10.0875,11.2268903 9.60060967,10.74 9,10.74 Z M9,9.435 C9.48048773,9.435 9.87,9.04548773 9.87,8.565 L9.87,5.955 C9.87,5.47451227 9.48048773,5.085 9,5.085 C8.51951227,5.085 8.13,5.47451227 8.13,5.955 L8.13,8.565 C8.13,9.04548773 8.51951227,9.435 9,9.435 Z M9,0.3 C4.19512268,0.3 0.3,4.19512268 0.3,9 C0.3,13.8048773 4.19512268,17.7 9,17.7 C13.8048773,17.7 17.7,13.8048773 17.7,9 C17.6947257,4.19730904 13.802691,0.305274262 9,0.3 Z M9,15.96 C5.15609814,15.96 2.04,12.8439019 2.04,9 C2.04,5.15609814 5.15609814,2.04 9,2.04 C12.8439019,2.04 15.96,5.15609814 15.96,9 C15.9552066,12.8419146 12.8419146,15.9552066 9,15.96 Z" id="Icon-Shape" transform="translate(9.000000, 9.000000) rotate(-180.000000) translate(-9.000000, -9.000000) "></path>
                        </g>
                    </g>
                </g>
            </g>
        </g>
    </g>
</svg>