<?xml version="1.0" encoding="utf-8"?>
<!-- Generator: Adobe Illustrator 25.0.0, SVG Export Plug-In . SVG Version: 6.00 Build 0)  -->
<svg version="1.1" id="Capa_1" xmlns="http://www.w3.org/2000/svg" xmlns:xlink="http://www.w3.org/1999/xlink" x="0px" y="0px"
	 viewBox="0 0 19 19" style="enable-background:new 0 0 19 19;" xml:space="preserve">
<style type="text/css">
	.st0{opacity:0.42;fill:#405EA8;}
	.st1{display:none;}
	.st2{display:inline;fill:#4B64AC;}
	.st3{fill:#405EA8;}
</style>
<desc>Created with sketchtool.</desc>
<rect class="st0" width="19" height="19"/>
<g class="st1">
	<path class="st2" d="M9.56,13.83v-1.07c-0.61-0.01-1.24-0.2-1.61-0.46L8.2,11.6c0.38,0.25,0.93,0.45,1.52,0.45
		c0.75,0,1.25-0.43,1.25-1.03c0-0.58-0.41-0.94-1.19-1.25C8.71,9.34,8.04,8.86,8.04,7.94c0-0.88,0.62-1.54,1.59-1.7V5.18h0.65V6.2
		c0.63,0.02,1.06,0.19,1.37,0.37l-0.26,0.7c-0.22-0.13-0.65-0.36-1.33-0.36c-0.81,0-1.12,0.48-1.12,0.91c0,0.55,0.39,0.82,1.31,1.2
		c1.09,0.44,1.63,0.99,1.63,1.93c0,0.83-0.58,1.61-1.67,1.79v1.1H9.56z"/>
</g>
<g>
	<g>
		<path class="st3" d="M9.37,7.92c0,1.33-0.7,1.99-1.51,1.99c-0.79,0-1.47-0.63-1.48-1.9c0-1.26,0.69-1.97,1.52-1.97
			C8.79,6.04,9.37,6.72,9.37,7.92z M7.06,7.98C7.04,8.79,7.35,9.4,7.88,9.4c0.56,0,0.82-0.6,0.82-1.44c0-0.77-0.22-1.41-0.82-1.41
			C7.35,6.56,7.06,7.19,7.06,7.98z M7.8,12.56l3.71-6.52h0.54l-3.71,6.52H7.8z M13.48,10.53c0,1.33-0.7,1.99-1.51,1.99
			c-0.79,0-1.47-0.63-1.48-1.89c0-1.27,0.69-1.98,1.52-1.98C12.91,8.65,13.48,9.33,13.48,10.53z M11.17,10.59
			c-0.01,0.81,0.3,1.42,0.82,1.42c0.57,0,0.82-0.6,0.82-1.44c0-0.77-0.22-1.41-0.82-1.41C11.46,9.17,11.17,9.8,11.17,10.59z"/>
	</g>
</g>
</svg>
