<?xml version="1.0" encoding="UTF-8"?>
<svg width="23px" height="23px" viewBox="0 0 23 23" version="1.1" xmlns="http://www.w3.org/2000/svg" xmlns:xlink="http://www.w3.org/1999/xlink">
    <!-- Generator: sketchtool 52.1 (67048) - http://www.bohemiancoding.com/sketch -->
    <title>B4FEA81C-1B87-4859-A9E1-F3FCD9AEDA5E</title>
    <desc>Created with sketchtool.</desc>
    <g id="Parte-2-+" stroke="none" stroke-width="1" fill="none" fill-rule="evenodd">
        <g id="Nueva-Pla-003-2" transform="translate(-1499.000000, -1582.000000)" fill="#3962E6" fill-rule="nonzero">
            <g id="Group-17" transform="translate(1329.000000, 1579.000000)">
                <g id="Iconos-editar" transform="translate(170.000000, 3.000000)">
                    <g id="yes-icon">
                        <g id="Icon">
                            <path d="M11.5,0 C5.152,0 0,5.152 0,11.5 C0,17.848 5.152,23 11.5,23 C17.848,23 23,17.848 23,11.5 C23,5.152 17.848,0 11.5,0 Z M11.5,20.7 C6.4285,20.7 2.3,16.5715 2.3,11.5 C2.3,6.4285 6.4285,2.3 11.5,2.3 C16.5715,2.3 20.7,6.4285 20.7,11.5 C20.7,16.5715 16.5715,20.7 11.5,20.7 Z M15.962,7.2335 L9.2,13.9955 L7.038,11.8335 C6.59023514,11.3857351 5.86426486,11.3857351 5.4165,11.8335 C4.96873514,12.2812649 4.96873514,13.0072351 5.4165,13.455 L8.395,16.4335 C8.8435,16.882 9.568,16.882 10.0165,16.4335 L17.595,8.855 C17.8103123,8.64012872 17.9313106,8.34843589 17.9313106,8.04425 C17.9313106,7.74006411 17.8103123,7.44837128 17.595,7.2335 C17.1465,6.785 16.4105,6.785 15.962,7.2335 Z" id="Icon-Shape"></path>
                        </g>
                    </g>
                </g>
            </g>
        </g>
    </g>
</svg>