<?xml version="1.0" encoding="UTF-8"?>
<svg width="20px" height="21px" viewBox="0 0 20 21" version="1.1" xmlns="http://www.w3.org/2000/svg" xmlns:xlink="http://www.w3.org/1999/xlink">
    <!-- Generator: sketchtool 52.1 (67048) - http://www.bohemiancoding.com/sketch -->
    <title>D44D57BF-DDCE-4570-80D0-8463DECE65AE</title>
    <desc>Created with sketchtool.</desc>
    <g id="Tarifarios-2.0*" stroke="none" stroke-width="1" fill="none" fill-rule="evenodd">
        <g id="Tarifario-15" transform="translate(-1569.000000, -509.000000)" fill="#CED8E1" fill-rule="nonzero">
            <g id="Parametros-Profesionales" transform="translate(55.000000, 508.000000)">
                <g id="uil-edit-alt" transform="translate(1512.305122, 0.000000)">
                    <g id="Icon">
                        <path d="M4.73505949,17.6428563 L8.75038963,17.6428563 C9.0021082,17.6443625 9.24404906,17.5420827 9.42276803,17.3586103 L15.9760899,10.5661106 L18.6656035,7.8412695 C18.8448848,7.65722844 18.945728,7.40670394 18.945728,7.14535684 C18.945728,6.88400975 18.8448848,6.63348525 18.6656035,6.44944418 L14.6502733,2.24456346 C14.4724561,2.05900702 14.2304038,1.95463417 13.9778949,1.95463417 C13.725386,1.95463417 13.4833337,2.05900702 13.3055165,2.24456346 L10.6349432,5.01841252 L4.06268109,11.8109121 C3.88541325,11.9958865 3.78659233,12.2462957 3.78804766,12.5068248 L3.78804766,16.6626976 C3.78804766,17.2040243 4.2120393,17.6428563 4.73505949,17.6428563 Z M13.9778952,4.32249992 L16.6579387,7.09634903 L15.3131819,8.48817438 L12.6331384,5.71432527 L13.9778952,4.32249992 Z M5.68207148,12.9086903 L11.2978518,7.09634913 L13.9778953,9.87019827 L8.36211503,15.6825394 L5.68207148,15.6825394 L5.68207148,12.9086903 Z M19.887249,19.603174 L2.84103568,19.603174 C2.31801547,19.603174 1.89402383,20.0420061 1.89402383,20.5833328 C1.89402383,21.1246595 2.31801547,21.5634916 2.84103568,21.5634916 L19.887249,21.5634916 C20.4102692,21.5634916 20.8342608,21.1246595 20.8342608,20.5833328 C20.8342608,20.0420061 20.4102692,19.603174 19.887249,19.603174 Z" id="Icon-Shape"></path>
                    </g>
                </g>
            </g>
        </g>
    </g>
</svg>