<?xml version="1.0" encoding="UTF-8"?>
<svg width="14px" height="9px" viewBox="0 0 14 9" version="1.1" xmlns="http://www.w3.org/2000/svg" xmlns:xlink="http://www.w3.org/1999/xlink">
    <title>52560AA1-E45D-48DC-B6EE-09B2C979BDBE</title>
    <g id="Nuevo***" stroke="none" stroke-width="1" fill="none" fill-rule="evenodd">
        <g id="326" transform="translate(-1392.000000, -469.000000)" fill="#3962E6">
            <path d="M1394.14544,469.38212 L1399.00652,474.458854 L1403.86759,469.38212 C1404.18315,469.052561 1404.64308,468.923854 1405.07415,469.044481 C1405.50521,469.165108 1405.84191,469.516743 1405.95741,469.966929 C1406.07291,470.417114 1405.94967,470.897457 1405.63411,471.227016 L1399.88351,477.23274 C1399.64942,477.477716 1399.33164,477.615385 1399.00025,477.615385 C1398.66886,477.615385 1398.35108,477.477716 1398.11699,477.23274 L1392.36639,471.227016 C1392.13182,470.982542 1392,470.650662 1392,470.304568 C1392,469.958474 1392.13182,469.626594 1392.36639,469.38212 C1392.855,468.884914 1393.65683,468.87183 1394.14544,469.38212 Z" id="Arrow-icon" transform="translate(1399.000000, 473.307692) rotate(-180.000000) translate(-1399.000000, -473.307692) "></path>
        </g>
    </g>
</svg>