<?xml version="1.0" encoding="UTF-8"?>
<svg width="23px" height="23px" viewBox="0 0 23 23" version="1.1" xmlns="http://www.w3.org/2000/svg" xmlns:xlink="http://www.w3.org/1999/xlink">
    <!-- Generator: sketchtool 52.1 (67048) - http://www.bohemiancoding.com/sketch -->
    <title>5F56646E-19E7-4F17-BF36-1902F50CA98B</title>
    <desc>Created with sketchtool.</desc>
    <g id="Convenios-2.0*" stroke="none" stroke-width="1" fill="none" fill-rule="evenodd">
        <g id="Convenios-025" transform="translate(-876.000000, -1316.000000)" fill="#3962E6">
            <g id="Ver-prestaciones" transform="translate(867.000000, 1307.000000)">
                <g transform="translate(9.000000, 9.000000)">
                    <path d="M21.7467499,11.852005 L21.96241,11.5 L21.7467499,11.1478195 C21.7106018,11.089035 20.8430481,9.68873598 19.1576004,8.28545379 C16.9158936,6.41926577 14.2749787,5.43273926 11.5201798,5.43273926 C8.76608276,5.43273926 6.11867522,6.41873933 3.86415862,8.28404998 C2.16905974,9.68663023 1.29167937,11.0858765 1.25518035,11.1448364 L1.03495786,11.5 L1.25518035,11.8551636 C1.29167937,11.9141235 2.16905974,13.3133698 3.86415862,14.71595 C6.11867522,16.5812607 8.76608276,17.5672607 11.5201798,17.5672607 C14.2749787,17.5672607 16.9158936,16.5807342 19.1576004,14.7145462 C20.8430481,13.311264 21.7106018,11.910965 21.7467499,11.852005 Z M18.2595138,13.7083664 C16.2429428,15.3746872 13.975441,16.219429 11.5201798,16.219429 C9.06404116,16.219429 6.78916929,15.3741608 4.75891113,13.7067871 C3.7088623,12.8444977 2.99695588,11.9713288 2.64828491,11.5 C2.99713135,11.0283203 3.70903777,10.1553268 4.75891113,9.29303743 C6.78916929,7.62583921 9.06386565,6.78039551 11.5201798,6.78039551 C13.975441,6.78039551 16.2427673,7.62531282 18.2595138,9.29145815 C19.3048249,10.1551514 20.0105896,11.0295487 20.3545227,11.5 C20.0102386,11.9706268 19.3046493,12.8450241 18.2595138,13.7083664 Z" id="Shape" fill-rule="nonzero"></path>
                    <path d="M11.5,7.45106509 C9.2674179,7.45106509 7.45106509,9.2674179 7.45106509,11.5 C7.45106509,13.7325821 9.2674179,15.5489349 11.5,15.5489349 C13.7325821,15.5489349 15.5489349,13.7325821 15.5489349,11.5 C15.5489349,9.2674179 13.7325821,7.45106509 11.5,7.45106509 Z M11.5,14.2012787 C10.0105591,14.2012787 8.79872134,12.9894409 8.79872134,11.5 C8.79872134,10.0105591 10.0105591,8.79872134 11.5,8.79872134 C12.9894409,8.79872134 14.2012787,10.0105591 14.2012787,11.5 C14.2012787,12.9894409 12.9894409,14.2012787 11.5,14.2012787 Z" id="Shape" fill-rule="nonzero"></path>
                    <polygon id="Path" points="1.34765625 1.34765625 4.16088867 1.34765625 4.16088867 0 0 0 0 4.11035156 1.34765625 4.11035156"></polygon>
                    <polygon id="Path" points="18.8391113 0 18.8391113 1.34765625 21.6523438 1.34765625 21.6523438 4.11035156 23 4.11035156 23 0"></polygon>
                    <polygon id="Path" points="1.34765625 18.8896484 0 18.8896484 0 23 4.16088867 23 4.16088867 21.6523438 1.34765625 21.6523438"></polygon>
                    <polygon id="Path" points="21.6523438 21.6523438 18.8391113 21.6523438 18.8391113 23 23 23 23 18.8896484 21.6523438 18.8896484"></polygon>
                </g>
            </g>
        </g>
    </g>
</svg>