<svg id="_x31__x2C_5" enable-background="new 0 0 24 24" height="512" viewBox="0 0 24 24" width="512" xmlns="http://www.w3.org/2000/svg"><path d="m12 22c-3.434 0-5.334-2.449-6.738-4.845-.013-.022-.394-.727-.55-1.093-.474-1.145-.712-2.35-.712-3.588v-3.699c0-3.25 2.104-4.442 3.591-4.704.329-.791 1.333-1.988 4.389-2.068 2.366-.07 4.667.766 6.157 2.218 1.219 1.187 1.863 2.756 1.863 4.539v3.699c0 1.233-.238 2.44-.708 3.588-.18.417-.568 1.108-.612 1.186-1.499 2.484-3.337 4.767-6.68 4.767zm.223-18.5c-.067 0-.136.001-.203.002-2.358.063-3.052.873-3.09 1.292-.034.38-.352.712-.733.72-.272.009-2.697.179-2.697 3.261v3.698c0 1.041.2 2.053.596 3.008.134.315.472.936.472.936 1.432 2.442 2.911 4.083 5.432 4.083 2.462 0 3.886-1.54 5.384-4.024s.375-.662.525-1.011c.391-.954.591-1.969.591-3.007v-3.698c0-1.388-.474-2.554-1.409-3.464-1.147-1.117-2.996-1.796-4.868-1.796z"/><path d="m4.75 12.23c-.286 0-.561-.165-.685-.444-.169-.378 0-.822.379-.991l1.532-.685c.02-.009 2.217-1.03 2.217-2.917 0-.362.259-.672.614-.738.357-.068.708.133.837.471.047.121 1.037 2.611 3.348 3.329-.383-1.235-.226-2.326-.216-2.388.048-.318.295-.57.612-.625.313-.058.634.098.788.38.531.977 1.658 2.422 2.391 2.422.267 0 .377-.005.491-.011.264-.012.532-.024 2.205.005.414.008.744.35.736.764-.008.41-.342.736-.75.736-.004 0-.009 0-.014 0-1.619-.031-1.88-.019-2.106-.007-.131.006-.258.012-.562.012-.565 0-1.1-.242-1.579-.595.066.191.055.405-.041.59-.128.25-.386.407-.667.407-2.552 0-4.182-1.53-5.098-2.804-.856 1.542-2.501 2.295-2.595 2.336l-1.532.685c-.098.047-.202.068-.305.068z"/><path d="m12.001 18.5c-1.003 0-1.943-.402-2.65-1.131-.288-.298-.28-.772.018-1.061.299-.289.773-.28 1.061.017.84.87 2.3.871 3.144 0 .29-.297.764-.304 1.061-.017.298.288.306.763.018 1.061-.71.729-1.65 1.131-2.652 1.131z"/><path d="m23.25 8.348c-.414 0-.75-.336-.75-.75v-4.848c0-.689-.561-1.25-1.25-1.25h-4.848c-.414 0-.75-.336-.75-.75s.336-.75.75-.75h4.848c1.517 0 2.75 1.234 2.75 2.75v4.848c0 .414-.336.75-.75.75z"/><path d="m.75 8.348c-.414 0-.75-.336-.75-.75v-4.848c0-1.516 1.233-2.75 2.75-2.75h4.848c.414 0 .75.336.75.75s-.336.75-.75.75h-4.848c-.689 0-1.25.561-1.25 1.25v4.848c0 .414-.336.75-.75.75z"/><path d="m21.25 24h-4.848c-.414 0-.75-.336-.75-.75s.336-.75.75-.75h4.848c.689 0 1.25-.561 1.25-1.25v-4.848c0-.414.336-.75.75-.75s.75.336.75.75v4.848c0 1.516-1.233 2.75-2.75 2.75z"/><path d="m7.598 24h-4.848c-1.517 0-2.75-1.234-2.75-2.75v-4.848c0-.414.336-.75.75-.75s.75.336.75.75v4.848c0 .689.561 1.25 1.25 1.25h4.848c.414 0 .75.336.75.75s-.336.75-.75.75z"/></svg>